{"asset":{"generator":"glTF-Transform v4.5.0","version":"2.0"},"accessors":[{"type":"VEC3","componentType":5126,"count":2392,"max":[0.6187571287155151,1.0157458782196045,0.010831124149262905],"min":[-0.6187571287155151,-1.0157458782196045,-0.010831124149262905],"normalized":false,"byteOffset":0,"bufferView":0},{"type":"VEC3","componentType":5126,"count":2392,"normalized":false,"byteOffset":0,"bufferView":1},{"type":"VEC2","componentType":5126,"count":2392,"normalized":false,"byteOffset":0,"bufferView":2},{"type":"SCALAR","componentType":5123,"count":12588,"normalized":false,"byteOffset":0,"bufferView":3},{"type":"VEC3","componentType":5126,"count":514,"max":[0.1009504571557045,0,0.0053944955579936504],"min":[-0.09995229542255402,0,-0.005732110235840082],"normalized":false,"byteOffset":0,"bufferView":4},{"type":"VEC3","componentType":5126,"count":514,"normalized":false,"byteOffset":0,"bufferView":5},{"type":"VEC2","componentType":5126,"count":514,"normalized":false,"byteOffset":0,"bufferView":6},{"type":"SCALAR","componentType":5123,"count":1482,"normalized":false,"byteOffset":25176,"bufferView":3},{"type":"VEC3","componentType":5126,"count":6440,"max":[0.17977513372898102,0,0.0499560572206974],"min":[-0.17942433059215546,0,-0.0509968101978302],"normalized":false,"byteOffset":0,"bufferView":7},{"type":"VEC3","componentType":5126,"count":6440,"normalized":false,"byteOffset":0,"bufferView":8},{"type":"VEC2","componentType":5126,"count":6440,"normalized":false,"byteOffset":0,"bufferView":9},{"type":"SCALAR","componentType":5123,"count":19014,"normalized":false,"byteOffset":28140,"bufferView":3},{"type":"VEC3","componentType":5126,"count":516,"max":[0.0995934009552002,0,0.00647339504212141],"min":[-0.0983075276017189,0,-0.006878532003611326],"normalized":false,"byteOffset":0,"bufferView":10},{"type":"VEC3","componentType":5126,"count":516,"normalized":false,"byteOffset":0,"bufferView":11},{"type":"VEC2","componentType":5126,"count":516,"normalized":false,"byteOffset":0,"bufferView":12},{"type":"SCALAR","componentType":5123,"count":1488,"normalized":false,"byteOffset":66168,"bufferView":3},{"type":"VEC3","componentType":5126,"count":966,"max":[0.07913339138031006,0,0.005664220545440912],"min":[-0.0783858671784401,0,-0.0060187154449522495],"normalized":false,"byteOffset":0,"bufferView":13},{"type":"VEC3","componentType":5126,"count":966,"normalized":false,"byteOffset":0,"bufferView":14},{"type":"VEC2","componentType":5126,"count":966,"normalized":false,"byteOffset":0,"bufferView":15},{"type":"SCALAR","componentType":5123,"count":2874,"normalized":false,"byteOffset":69144,"bufferView":3},{"type":"VEC3","componentType":5126,"count":155,"max":[0.5839999914169312,0.9835000038146973,0.0010000000474974513],"min":[-0.5839999914169312,-0.9835000038146973,-0.0010000000474974513],"normalized":false,"byteOffset":0,"bufferView":16},{"type":"VEC3","componentType":5126,"count":155,"normalized":false,"byteOffset":0,"bufferView":17},{"type":"VEC2","componentType":5126,"count":155,"normalized":false,"byteOffset":0,"bufferView":18},{"type":"VEC2","componentType":5126,"count":155,"normalized":false,"byteOffset":0,"bufferView":19},{"type":"SCALAR","componentType":5123,"count":564,"normalized":false,"byteOffset":74892,"bufferView":3},{"type":"VEC3","componentType":5126,"count":928,"max":[0.13599608838558197,0,0.015037741512060165],"min":[-0.13593550026416779,0,-0.016855597496032715],"normalized":false,"byteOffset":0,"bufferView":20},{"type":"VEC3","componentType":5126,"count":928,"normalized":false,"byteOffset":0,"bufferView":21},{"type":"VEC2","componentType":5126,"count":928,"normalized":false,"byteOffset":0,"bufferView":22},{"type":"SCALAR","componentType":5123,"count":2742,"normalized":false,"byteOffset":76020,"bufferView":3},{"type":"VEC3","componentType":5126,"count":16611,"max":[-0.6625297665596008,-0.6202671527862549,0.010499999858438969],"min":[-0.6632499694824219,-0.9240528345108032,-0.010499999858438969],"normalized":false,"byteOffset":0,"bufferView":23},{"type":"VEC3","componentType":5126,"count":16611,"normalized":false,"byteOffset":0,"bufferView":24},{"type":"VEC2","componentType":5126,"count":16611,"normalized":false,"byteOffset":0,"bufferView":25},{"type":"SCALAR","componentType":5123,"count":25032,"normalized":false,"byteOffset":81504,"bufferView":3},{"type":"VEC3","componentType":5126,"count":8772,"max":[0.5920000076293945,0.9880993366241455,0.0949999988079071],"min":[-0.6320000290870667,-0.988082766532898,-0.0949999988079071],"normalized":false,"byteOffset":0,"bufferView":26},{"type":"VEC3","componentType":5126,"count":8772,"normalized":false,"byteOffset":0,"bufferView":27},{"type":"VEC2","componentType":5126,"count":8772,"normalized":false,"byteOffset":0,"bufferView":28},{"type":"SCALAR","componentType":5123,"count":49152,"normalized":false,"byteOffset":131568,"bufferView":3},{"type":"VEC3","componentType":5126,"count":8,"max":[0.5920000076293945,0.9879999756813049,0.0949999988079071],"min":[-0.609000027179718,-0.9879999756813049,-0.0949999988079071],"normalized":false,"byteOffset":0,"bufferView":29},{"type":"VEC3","componentType":5126,"count":8,"normalized":false,"byteOffset":0,"bufferView":30},{"type":"VEC2","componentType":5126,"count":8,"normalized":false,"byteOffset":0,"bufferView":31},{"type":"SCALAR","componentType":5123,"count":12,"normalized":false,"byteOffset":229872,"bufferView":3},{"type":"VEC3","componentType":5126,"count":64,"max":[-0.6436046957969666,-0.5476400256156921,0.0745600014925003],"min":[-0.663100004196167,-0.5496399998664856,-0.0745600014925003],"normalized":false,"byteOffset":0,"bufferView":32},{"type":"VEC3","componentType":5126,"count":64,"normalized":false,"byteOffset":0,"bufferView":33},{"type":"VEC2","componentType":5126,"count":64,"normalized":false,"byteOffset":0,"bufferView":34},{"type":"SCALAR","componentType":5123,"count":96,"normalized":false,"byteOffset":229896,"bufferView":3},{"type":"VEC3","componentType":5126,"count":64,"max":[-0.6436046957969666,0.4683600068092346,0.0745600014925003],"min":[-0.663100004196167,0.4663600027561188,-0.0745600014925003],"normalized":false,"byteOffset":0,"bufferView":35},{"type":"VEC3","componentType":5126,"count":64,"normalized":false,"byteOffset":0,"bufferView":36},{"type":"VEC2","componentType":5126,"count":64,"normalized":false,"byteOffset":0,"bufferView":37},{"type":"VEC3","componentType":5126,"count":155,"max":[0.5839999914169312,0.9835000038146973,0.0010000000474974513],"min":[-0.5839999914169312,-0.9835000038146973,-0.0010000000474974513],"normalized":false,"byteOffset":0,"bufferView":38},{"type":"VEC3","componentType":5126,"count":155,"normalized":false,"byteOffset":0,"bufferView":39},{"type":"VEC2","componentType":5126,"count":155,"normalized":false,"byteOffset":0,"bufferView":40},{"type":"VEC2","componentType":5126,"count":155,"normalized":false,"byteOffset":0,"bufferView":41},{"type":"VEC3","componentType":5126,"count":1326,"max":[0.6187570691108704,1.0157465934753418,0.011302389204502106],"min":[-0.6187570691108704,-1.0157465934753418,-0.008646869100630283],"normalized":false,"byteOffset":0,"bufferView":42},{"type":"VEC3","componentType":5126,"count":1326,"normalized":false,"byteOffset":0,"bufferView":43},{"type":"VEC2","componentType":5126,"count":1326,"normalized":false,"byteOffset":0,"bufferView":44},{"type":"VEC2","componentType":5126,"count":1326,"normalized":false,"byteOffset":0,"bufferView":45},{"type":"VEC2","componentType":5126,"count":1326,"normalized":false,"byteOffset":0,"bufferView":46},{"type":"VEC2","componentType":5126,"count":1326,"normalized":false,"byteOffset":0,"bufferView":47},{"type":"SCALAR","componentType":5123,"count":6720,"normalized":false,"byteOffset":230088,"bufferView":3},{"type":"VEC3","componentType":5126,"count":1192,"max":[0.6187570691108704,1.0157465934753418,-0.0050829448737204075],"min":[-0.6187570691108704,-1.0157465934753418,-0.011505368165671825],"normalized":false,"byteOffset":0,"bufferView":48},{"type":"VEC3","componentType":5126,"count":1192,"normalized":false,"byteOffset":0,"bufferView":49},{"type":"VEC2","componentType":5126,"count":1192,"normalized":false,"byteOffset":0,"bufferView":50},{"type":"VEC2","componentType":5126,"count":1192,"normalized":false,"byteOffset":0,"bufferView":51},{"type":"VEC2","componentType":5126,"count":1192,"normalized":false,"byteOffset":0,"bufferView":52},{"type":"VEC2","componentType":5126,"count":1192,"normalized":false,"byteOffset":0,"bufferView":53},{"type":"SCALAR","componentType":5123,"count":5940,"normalized":false,"byteOffset":243528,"bufferView":3},{"type":"VEC3","componentType":5126,"count":2720,"max":[-0.6037499904632568,0.9910420179367065,0.0949999988079071],"min":[-0.635249674320221,0.9829580187797546,-0.0949999988079071],"normalized":false,"byteOffset":0,"bufferView":54},{"type":"VEC3","componentType":5126,"count":2720,"normalized":false,"byteOffset":0,"bufferView":55},{"type":"SCALAR","componentType":5123,"count":16260,"normalized":false,"byteOffset":255408,"bufferView":3},{"type":"VEC3","componentType":5126,"count":588,"max":[-0.6097410321235657,0.9760000109672546,0.0949999988079071],"min":[-0.6349999904632568,-0.9760000109672546,-0.0949999988079071],"normalized":false,"byteOffset":0,"bufferView":56},{"type":"VEC3","componentType":5126,"count":588,"normalized":false,"byteOffset":0,"bufferView":57},{"type":"SCALAR","componentType":5123,"count":1164,"normalized":false,"byteOffset":287928,"bufferView":3},{"type":"VEC3","componentType":5126,"count":730,"max":[0.02171694114804268,-1.0079991817474365,0.02216394618153572],"min":[-0.02171694114804268,-1.2979999780654907,0.006000000052154064],"normalized":false,"byteOffset":0,"bufferView":58},{"type":"VEC3","componentType":5126,"count":730,"normalized":false,"byteOffset":0,"bufferView":59},{"type":"VEC2","componentType":5126,"count":730,"normalized":false,"byteOffset":0,"bufferView":60},{"type":"SCALAR","componentType":5123,"count":4368,"normalized":false,"byteOffset":290256,"bufferView":3},{"type":"VEC3","componentType":5126,"count":2178,"max":[-0.6111443042755127,1.0160651206970215,0.11649999767541885],"min":[-0.6614996194839478,-1.016063928604126,-0.11649999767541885],"normalized":false,"byteOffset":0,"bufferView":61},{"type":"VEC3","componentType":5126,"count":2178,"normalized":false,"byteOffset":0,"bufferView":62},{"type":"VEC2","componentType":5126,"count":2178,"normalized":false,"byteOffset":0,"bufferView":63},{"type":"SCALAR","componentType":5123,"count":13056,"normalized":false,"byteOffset":298992,"bufferView":3},{"type":"VEC3","componentType":5126,"count":5262,"max":[-0.6623064279556274,0.7873703837394714,0.013000000268220901],"min":[-0.6632499694824219,0.6350296139717102,-0.013000000268220901],"normalized":false,"byteOffset":0,"bufferView":64},{"type":"VEC3","componentType":5126,"count":5262,"normalized":false,"byteOffset":0,"bufferView":65},{"type":"VEC2","componentType":5126,"count":5262,"normalized":false,"byteOffset":0,"bufferView":66},{"type":"SCALAR","componentType":5123,"count":7932,"normalized":false,"byteOffset":325104,"bufferView":3},{"type":"VEC3","componentType":5126,"count":9493,"max":[-0.6600006222724915,0.2383948266506195,0.027960000559687614],"min":[-0.6632499694824219,-0.2383948266506195,-0.027960000559687614],"normalized":false,"byteOffset":0,"bufferView":67},{"type":"VEC3","componentType":5126,"count":9493,"normalized":false,"byteOffset":0,"bufferView":68},{"type":"VEC2","componentType":5126,"count":9493,"normalized":false,"byteOffset":0,"bufferView":69},{"type":"SCALAR","componentType":5123,"count":14340,"normalized":false,"byteOffset":340968,"bufferView":3},{"type":"VEC3","componentType":5126,"count":2720,"max":[-0.6037499904632568,-0.9829580187797546,0.0949999988079071],"min":[-0.635249674320221,-0.9910420179367065,-0.0949999988079071],"normalized":false,"byteOffset":0,"bufferView":70},{"type":"VEC3","componentType":5126,"count":2720,"normalized":false,"byteOffset":0,"bufferView":71},{"type":"VEC3","componentType":5126,"count":1066,"max":[1.1629999876022339,0.984000027179718,0.003422901965677738],"min":[-0.000021593450583168305,-0.984000027179718,0],"normalized":false,"byteOffset":0,"bufferView":72},{"type":"VEC3","componentType":5126,"count":1066,"normalized":false,"byteOffset":0,"bufferView":73},{"type":"VEC2","componentType":5126,"count":1066,"normalized":false,"byteOffset":0,"bufferView":74},{"type":"SCALAR","componentType":5123,"count":6384,"normalized":false,"byteOffset":369648,"bufferView":3},{"type":"VEC3","componentType":5126,"count":2728,"max":[0.6460997462272644,-0.08985566347837448,0.0039198328740894794],"min":[0.5306178331375122,-0.11345594376325607,0.003912764135748148],"normalized":false,"byteOffset":0,"bufferView":75},{"type":"VEC3","componentType":5126,"count":2728,"normalized":false,"byteOffset":0,"bufferView":76},{"type":"VEC2","componentType":5126,"count":2728,"normalized":false,"byteOffset":0,"bufferView":77},{"type":"SCALAR","componentType":5123,"count":8040,"normalized":false,"byteOffset":382416,"bufferView":3},{"type":"VEC3","componentType":5126,"count":9448,"max":[0.7182783484458923,-0.7244542241096497,0.003921452444046736],"min":[0.45770251750946045,-0.7386813759803772,0.0039013728965073824],"normalized":false,"byteOffset":0,"bufferView":78},{"type":"VEC3","componentType":5126,"count":9448,"normalized":false,"byteOffset":0,"bufferView":79},{"type":"VEC2","componentType":5126,"count":9448,"normalized":false,"byteOffset":0,"bufferView":80},{"type":"SCALAR","componentType":5123,"count":27840,"normalized":false,"byteOffset":398496,"bufferView":3},{"type":"VEC3","componentType":5126,"count":4950,"max":[0.8385190963745117,0.4171297550201416,0.0039224931970238686],"min":[0.33759254217147827,0.3583788573741913,0.0038485208060592413],"normalized":false,"byteOffset":0,"bufferView":81},{"type":"VEC3","componentType":5126,"count":4950,"normalized":false,"byteOffset":0,"bufferView":82},{"type":"VEC2","componentType":5126,"count":4950,"normalized":false,"byteOffset":0,"bufferView":83},{"type":"SCALAR","componentType":5123,"count":14340,"normalized":false,"byteOffset":454176,"bufferView":3}],"bufferViews":[{"buffer":1,"byteOffset":0,"byteLength":28704,"target":34962,"byteStride":12,"extensions":{"EXT_meshopt_compression":{"buffer":0,"byteOffset":0,"byteLength":17207,"mode":"ATTRIBUTES","byteStride":12,"count":2392}}},{"buffer":1,"byteOffset":28704,"byteLength":28704,"target":34962,"byteStride":12,"extensions":{"EXT_meshopt_compression":{"buffer":0,"byteOffset":17208,"byteLength":21520,"mode":"ATTRIBUTES","byteStride":12,"count":2392}}},{"buffer":1,"byteOffset":57408,"byteLength":19136,"target":34962,"byteStride":8,"extensions":{"EXT_meshopt_compression":{"buffer":0,"byteOffset":38728,"byteLength":13560,"mode":"ATTRIBUTES","byteStride":8,"count":2392}}},{"buffer":1,"byteOffset":76544,"byteLength":482856,"target":34963,"extensions":{"EXT_meshopt_compression":{"buffer":0,"byteOffset":52288,"byteLength":221195,"mode":"TRIANGLES","byteStride":2,"count":241428}}},{"buffer":1,"byteOffset":559400,"byteLength":6168,"target":34962,"byteStride":12,"extensions":{"EXT_meshopt_compression":{"buffer":0,"byteOffset":273484,"byteLength":3261,"mode":"ATTRIBUTES","byteStride":12,"count":514}}},{"buffer":1,"byteOffset":565568,"byteLength":6168,"target":34962,"byteStride":12,"extensions":{"EXT_meshopt_compression":{"buffer":0,"byteOffset":276748,"byteLength":141,"mode":"ATTRIBUTES","byteStride":12,"count":514}}},{"buffer":1,"byteOffset":571736,"byteLength":4112,"target":34962,"byteStride":8,"extensions":{"EXT_meshopt_compression":{"buffer":0,"byteOffset":276892,"byteLength":1619,"mode":"ATTRIBUTES","byteStride":8,"count":514}}},{"buffer":1,"byteOffset":575848,"byteLength":77280,"target":34962,"byteStride":12,"extensions":{"EXT_meshopt_compression":{"buffer":0,"byteOffset":278512,"byteLength":34943,"mode":"ATTRIBUTES","byteStride":12,"count":6440}}},{"buffer":1,"byteOffset":653128,"byteLength":77280,"target":34962,"byteStride":12,"extensions":{"EXT_meshopt_compression":{"buffer":0,"byteOffset":313456,"byteLength":1245,"mode":"ATTRIBUTES","byteStride":12,"count":6440}}},{"buffer":1,"byteOffset":730408,"byteLength":51520,"target":34962,"byteStride":8,"extensions":{"EXT_meshopt_compression":{"buffer":0,"byteOffset":314704,"byteLength":18926,"mode":"ATTRIBUTES","byteStride":8,"count":6440}}},{"buffer":1,"byteOffset":781928,"byteLength":6192,"target":34962,"byteStride":12,"extensions":{"EXT_meshopt_compression":{"buffer":0,"byteOffset":333632,"byteLength":3316,"mode":"ATTRIBUTES","byteStride":12,"count":516}}},{"buffer":1,"byteOffset":788120,"byteLength":6192,"target":34962,"byteStride":12,"extensions":{"EXT_meshopt_compression":{"buffer":0,"byteOffset":336948,"byteLength":141,"mode":"ATTRIBUTES","byteStride":12,"count":516}}},{"buffer":1,"byteOffset":794312,"byteLength":4128,"target":34962,"byteStride":8,"extensions":{"EXT_meshopt_compression":{"buffer":0,"byteOffset":337092,"byteLength":1637,"mode":"ATTRIBUTES","byteStride":8,"count":516}}},{"buffer":1,"byteOffset":798440,"byteLength":11592,"target":34962,"byteStride":12,"extensions":{"EXT_meshopt_compression":{"buffer":0,"byteOffset":338732,"byteLength":6009,"mode":"ATTRIBUTES","byteStride":12,"count":966}}},{"buffer":1,"byteOffset":810032,"byteLength":11592,"target":34962,"byteStride":12,"extensions":{"EXT_meshopt_compression":{"buffer":0,"byteOffset":344744,"byteLength":225,"mode":"ATTRIBUTES","byteStride":12,"count":966}}},{"buffer":1,"byteOffset":821624,"byteLength":7728,"target":34962,"byteStride":8,"extensions":{"EXT_meshopt_compression":{"buffer":0,"byteOffset":344972,"byteLength":2892,"mode":"ATTRIBUTES","byteStride":8,"count":966}}},{"buffer":1,"byteOffset":829352,"byteLength":1860,"target":34962,"byteStride":12,"extensions":{"EXT_meshopt_compression":{"buffer":0,"byteOffset":347864,"byteLength":1037,"mode":"ATTRIBUTES","byteStride":12,"count":155}}},{"buffer":1,"byteOffset":831212,"byteLength":1860,"target":34962,"byteStride":12,"extensions":{"EXT_meshopt_compression":{"buffer":0,"byteOffset":348904,"byteLength":1455,"mode":"ATTRIBUTES","byteStride":12,"count":155}}},{"buffer":1,"byteOffset":833072,"byteLength":1240,"target":34962,"byteStride":8,"extensions":{"EXT_meshopt_compression":{"buffer":0,"byteOffset":350360,"byteLength":1071,"mode":"ATTRIBUTES","byteStride":8,"count":155}}},{"buffer":1,"byteOffset":834312,"byteLength":1240,"target":34962,"byteStride":8,"extensions":{"EXT_meshopt_compression":{"buffer":0,"byteOffset":351432,"byteLength":641,"mode":"ATTRIBUTES","byteStride":8,"count":155}}},{"buffer":1,"byteOffset":835552,"byteLength":11136,"target":34962,"byteStride":12,"extensions":{"EXT_meshopt_compression":{"buffer":0,"byteOffset":352076,"byteLength":5551,"mode":"ATTRIBUTES","byteStride":12,"count":928}}},{"buffer":1,"byteOffset":846688,"byteLength":11136,"target":34962,"byteStride":12,"extensions":{"EXT_meshopt_compression":{"buffer":0,"byteOffset":357628,"byteLength":213,"mode":"ATTRIBUTES","byteStride":12,"count":928}}},{"buffer":1,"byteOffset":857824,"byteLength":7424,"target":34962,"byteStride":8,"extensions":{"EXT_meshopt_compression":{"buffer":0,"byteOffset":357844,"byteLength":2787,"mode":"ATTRIBUTES","byteStride":8,"count":928}}},{"buffer":1,"byteOffset":865248,"byteLength":199332,"target":34962,"byteStride":12,"extensions":{"EXT_meshopt_compression":{"buffer":0,"byteOffset":360632,"byteLength":75170,"mode":"ATTRIBUTES","byteStride":12,"count":16611}}},{"buffer":1,"byteOffset":1064580,"byteLength":199332,"target":34962,"byteStride":12,"extensions":{"EXT_meshopt_compression":{"buffer":0,"byteOffset":435804,"byteLength":127434,"mode":"ATTRIBUTES","byteStride":12,"count":16611}}},{"buffer":1,"byteOffset":1263912,"byteLength":132888,"target":34962,"byteStride":8,"extensions":{"EXT_meshopt_compression":{"buffer":0,"byteOffset":563240,"byteLength":40967,"mode":"ATTRIBUTES","byteStride":8,"count":16611}}},{"buffer":1,"byteOffset":1396800,"byteLength":105264,"target":34962,"byteStride":12,"extensions":{"EXT_meshopt_compression":{"buffer":0,"byteOffset":604208,"byteLength":43530,"mode":"ATTRIBUTES","byteStride":12,"count":8772}}},{"buffer":1,"byteOffset":1502064,"byteLength":105264,"target":34962,"byteStride":12,"extensions":{"EXT_meshopt_compression":{"buffer":0,"byteOffset":647740,"byteLength":16155,"mode":"ATTRIBUTES","byteStride":12,"count":8772}}},{"buffer":1,"byteOffset":1607328,"byteLength":70176,"target":34962,"byteStride":8,"extensions":{"EXT_meshopt_compression":{"buffer":0,"byteOffset":663896,"byteLength":35473,"mode":"ATTRIBUTES","byteStride":8,"count":8772}}},{"buffer":1,"byteOffset":1677504,"byteLength":96,"target":34962,"byteStride":12,"extensions":{"EXT_meshopt_compression":{"buffer":0,"byteOffset":699372,"byteLength":89,"mode":"ATTRIBUTES","byteStride":12,"count":8}}},{"buffer":1,"byteOffset":1677600,"byteLength":96,"target":34962,"byteStride":12,"extensions":{"EXT_meshopt_compression":{"buffer":0,"byteOffset":699464,"byteLength":50,"mode":"ATTRIBUTES","byteStride":12,"count":8}}},{"buffer":1,"byteOffset":1677696,"byteLength":64,"target":34962,"byteStride":8,"extensions":{"EXT_meshopt_compression":{"buffer":0,"byteOffset":699516,"byteLength":71,"mode":"ATTRIBUTES","byteStride":8,"count":8}}},{"buffer":1,"byteOffset":1677760,"byteLength":768,"target":34962,"byteStride":12,"extensions":{"EXT_meshopt_compression":{"buffer":0,"byteOffset":699588,"byteLength":324,"mode":"ATTRIBUTES","byteStride":12,"count":64}}},{"buffer":1,"byteOffset":1678528,"byteLength":768,"target":34962,"byteStride":12,"extensions":{"EXT_meshopt_compression":{"buffer":0,"byteOffset":699912,"byteLength":374,"mode":"ATTRIBUTES","byteStride":12,"count":64}}},{"buffer":1,"byteOffset":1679296,"byteLength":512,"target":34962,"byteStride":8,"extensions":{"EXT_meshopt_compression":{"buffer":0,"byteOffset":700288,"byteLength":154,"mode":"ATTRIBUTES","byteStride":8,"count":64}}},{"buffer":1,"byteOffset":1679808,"byteLength":768,"target":34962,"byteStride":12,"extensions":{"EXT_meshopt_compression":{"buffer":0,"byteOffset":700444,"byteLength":328,"mode":"ATTRIBUTES","byteStride":12,"count":64}}},{"buffer":1,"byteOffset":1680576,"byteLength":768,"target":34962,"byteStride":12,"extensions":{"EXT_meshopt_compression":{"buffer":0,"byteOffset":700772,"byteLength":374,"mode":"ATTRIBUTES","byteStride":12,"count":64}}},{"buffer":1,"byteOffset":1681344,"byteLength":512,"target":34962,"byteStride":8,"extensions":{"EXT_meshopt_compression":{"buffer":0,"byteOffset":701148,"byteLength":154,"mode":"ATTRIBUTES","byteStride":8,"count":64}}},{"buffer":1,"byteOffset":1681856,"byteLength":1860,"target":34962,"byteStride":12,"extensions":{"EXT_meshopt_compression":{"buffer":0,"byteOffset":701304,"byteLength":1037,"mode":"ATTRIBUTES","byteStride":12,"count":155}}},{"buffer":1,"byteOffset":1683716,"byteLength":1860,"target":34962,"byteStride":12,"extensions":{"EXT_meshopt_compression":{"buffer":0,"byteOffset":702344,"byteLength":1455,"mode":"ATTRIBUTES","byteStride":12,"count":155}}},{"buffer":1,"byteOffset":1685576,"byteLength":1240,"target":34962,"byteStride":8,"extensions":{"EXT_meshopt_compression":{"buffer":0,"byteOffset":703800,"byteLength":1071,"mode":"ATTRIBUTES","byteStride":8,"count":155}}},{"buffer":1,"byteOffset":1686816,"byteLength":1240,"target":34962,"byteStride":8,"extensions":{"EXT_meshopt_compression":{"buffer":0,"byteOffset":704872,"byteLength":641,"mode":"ATTRIBUTES","byteStride":8,"count":155}}},{"buffer":1,"byteOffset":1688056,"byteLength":15912,"target":34962,"byteStride":12,"extensions":{"EXT_meshopt_compression":{"buffer":0,"byteOffset":705516,"byteLength":10233,"mode":"ATTRIBUTES","byteStride":12,"count":1326}}},{"buffer":1,"byteOffset":1703968,"byteLength":15912,"target":34962,"byteStride":12,"extensions":{"EXT_meshopt_compression":{"buffer":0,"byteOffset":715752,"byteLength":12216,"mode":"ATTRIBUTES","byteStride":12,"count":1326}}},{"buffer":1,"byteOffset":1719880,"byteLength":10608,"target":34962,"byteStride":8,"extensions":{"EXT_meshopt_compression":{"buffer":0,"byteOffset":727968,"byteLength":7589,"mode":"ATTRIBUTES","byteStride":8,"count":1326}}},{"buffer":1,"byteOffset":1730488,"byteLength":10608,"target":34962,"byteStride":8,"extensions":{"EXT_meshopt_compression":{"buffer":0,"byteOffset":735560,"byteLength":6985,"mode":"ATTRIBUTES","byteStride":8,"count":1326}}},{"buffer":1,"byteOffset":1741096,"byteLength":10608,"target":34962,"byteStride":8,"extensions":{"EXT_meshopt_compression":{"buffer":0,"byteOffset":742548,"byteLength":6884,"mode":"ATTRIBUTES","byteStride":8,"count":1326}}},{"buffer":1,"byteOffset":1751704,"byteLength":10608,"target":34962,"byteStride":8,"extensions":{"EXT_meshopt_compression":{"buffer":0,"byteOffset":749432,"byteLength":6235,"mode":"ATTRIBUTES","byteStride":8,"count":1326}}},{"buffer":1,"byteOffset":1762312,"byteLength":14304,"target":34962,"byteStride":12,"extensions":{"EXT_meshopt_compression":{"buffer":0,"byteOffset":755668,"byteLength":8784,"mode":"ATTRIBUTES","byteStride":12,"count":1192}}},{"buffer":1,"byteOffset":1776616,"byteLength":14304,"target":34962,"byteStride":12,"extensions":{"EXT_meshopt_compression":{"buffer":0,"byteOffset":764452,"byteLength":10437,"mode":"ATTRIBUTES","byteStride":12,"count":1192}}},{"buffer":1,"byteOffset":1790920,"byteLength":9536,"target":34962,"byteStride":8,"extensions":{"EXT_meshopt_compression":{"buffer":0,"byteOffset":774892,"byteLength":6819,"mode":"ATTRIBUTES","byteStride":8,"count":1192}}},{"buffer":1,"byteOffset":1800456,"byteLength":9536,"target":34962,"byteStride":8,"extensions":{"EXT_meshopt_compression":{"buffer":0,"byteOffset":781712,"byteLength":6297,"mode":"ATTRIBUTES","byteStride":8,"count":1192}}},{"buffer":1,"byteOffset":1809992,"byteLength":9536,"target":34962,"byteStride":8,"extensions":{"EXT_meshopt_compression":{"buffer":0,"byteOffset":788012,"byteLength":6283,"mode":"ATTRIBUTES","byteStride":8,"count":1192}}},{"buffer":1,"byteOffset":1819528,"byteLength":9536,"target":34962,"byteStride":8,"extensions":{"EXT_meshopt_compression":{"buffer":0,"byteOffset":794296,"byteLength":5611,"mode":"ATTRIBUTES","byteStride":8,"count":1192}}},{"buffer":1,"byteOffset":1829064,"byteLength":32640,"target":34962,"byteStride":12,"extensions":{"EXT_meshopt_compression":{"buffer":0,"byteOffset":799908,"byteLength":15620,"mode":"ATTRIBUTES","byteStride":12,"count":2720}}},{"buffer":1,"byteOffset":1861704,"byteLength":32640,"target":34962,"byteStride":12,"extensions":{"EXT_meshopt_compression":{"buffer":0,"byteOffset":815528,"byteLength":29276,"mode":"ATTRIBUTES","byteStride":12,"count":2720}}},{"buffer":1,"byteOffset":1894344,"byteLength":7056,"target":34962,"byteStride":12,"extensions":{"EXT_meshopt_compression":{"buffer":0,"byteOffset":844804,"byteLength":1838,"mode":"ATTRIBUTES","byteStride":12,"count":588}}},{"buffer":1,"byteOffset":1901400,"byteLength":7056,"target":34962,"byteStride":12,"extensions":{"EXT_meshopt_compression":{"buffer":0,"byteOffset":846644,"byteLength":5843,"mode":"ATTRIBUTES","byteStride":12,"count":588}}},{"buffer":1,"byteOffset":1908456,"byteLength":8760,"target":34962,"byteStride":12,"extensions":{"EXT_meshopt_compression":{"buffer":0,"byteOffset":852488,"byteLength":4464,"mode":"ATTRIBUTES","byteStride":12,"count":730}}},{"buffer":1,"byteOffset":1917216,"byteLength":8760,"target":34962,"byteStride":12,"extensions":{"EXT_meshopt_compression":{"buffer":0,"byteOffset":856952,"byteLength":6185,"mode":"ATTRIBUTES","byteStride":12,"count":730}}},{"buffer":1,"byteOffset":1925976,"byteLength":5840,"target":34962,"byteStride":8,"extensions":{"EXT_meshopt_compression":{"buffer":0,"byteOffset":863140,"byteLength":2354,"mode":"ATTRIBUTES","byteStride":8,"count":730}}},{"buffer":1,"byteOffset":1931816,"byteLength":26136,"target":34962,"byteStride":12,"extensions":{"EXT_meshopt_compression":{"buffer":0,"byteOffset":865496,"byteLength":15203,"mode":"ATTRIBUTES","byteStride":12,"count":2178}}},{"buffer":1,"byteOffset":1957952,"byteLength":26136,"target":34962,"byteStride":12,"extensions":{"EXT_meshopt_compression":{"buffer":0,"byteOffset":880700,"byteLength":21423,"mode":"ATTRIBUTES","byteStride":12,"count":2178}}},{"buffer":1,"byteOffset":1984088,"byteLength":17424,"target":34962,"byteStride":8,"extensions":{"EXT_meshopt_compression":{"buffer":0,"byteOffset":902124,"byteLength":6858,"mode":"ATTRIBUTES","byteStride":8,"count":2178}}},{"buffer":1,"byteOffset":2001512,"byteLength":63144,"target":34962,"byteStride":12,"extensions":{"EXT_meshopt_compression":{"buffer":0,"byteOffset":908984,"byteLength":24443,"mode":"ATTRIBUTES","byteStride":12,"count":5262}}},{"buffer":1,"byteOffset":2064656,"byteLength":63144,"target":34962,"byteStride":12,"extensions":{"EXT_meshopt_compression":{"buffer":0,"byteOffset":933428,"byteLength":41157,"mode":"ATTRIBUTES","byteStride":12,"count":5262}}},{"buffer":1,"byteOffset":2127800,"byteLength":42096,"target":34962,"byteStride":8,"extensions":{"EXT_meshopt_compression":{"buffer":0,"byteOffset":974588,"byteLength":13044,"mode":"ATTRIBUTES","byteStride":8,"count":5262}}},{"buffer":1,"byteOffset":2169896,"byteLength":113916,"target":34962,"byteStride":12,"extensions":{"EXT_meshopt_compression":{"buffer":0,"byteOffset":987632,"byteLength":46887,"mode":"ATTRIBUTES","byteStride":12,"count":9493}}},{"buffer":1,"byteOffset":2283812,"byteLength":113916,"target":34962,"byteStride":12,"extensions":{"EXT_meshopt_compression":{"buffer":0,"byteOffset":1034520,"byteLength":77137,"mode":"ATTRIBUTES","byteStride":12,"count":9493}}},{"buffer":1,"byteOffset":2397728,"byteLength":75944,"target":34962,"byteStride":8,"extensions":{"EXT_meshopt_compression":{"buffer":0,"byteOffset":1111660,"byteLength":23560,"mode":"ATTRIBUTES","byteStride":8,"count":9493}}},{"buffer":1,"byteOffset":2473672,"byteLength":32640,"target":34962,"byteStride":12,"extensions":{"EXT_meshopt_compression":{"buffer":0,"byteOffset":1135220,"byteLength":15620,"mode":"ATTRIBUTES","byteStride":12,"count":2720}}},{"buffer":1,"byteOffset":2506312,"byteLength":32640,"target":34962,"byteStride":12,"extensions":{"EXT_meshopt_compression":{"buffer":0,"byteOffset":1150840,"byteLength":29276,"mode":"ATTRIBUTES","byteStride":12,"count":2720}}},{"buffer":1,"byteOffset":2538952,"byteLength":12792,"target":34962,"byteStride":12,"extensions":{"EXT_meshopt_compression":{"buffer":0,"byteOffset":1180116,"byteLength":6732,"mode":"ATTRIBUTES","byteStride":12,"count":1066}}},{"buffer":1,"byteOffset":2551744,"byteLength":12792,"target":34962,"byteStride":12,"extensions":{"EXT_meshopt_compression":{"buffer":0,"byteOffset":1186848,"byteLength":4150,"mode":"ATTRIBUTES","byteStride":12,"count":1066}}},{"buffer":1,"byteOffset":2564536,"byteLength":8528,"target":34962,"byteStride":8,"extensions":{"EXT_meshopt_compression":{"buffer":0,"byteOffset":1191000,"byteLength":3721,"mode":"ATTRIBUTES","byteStride":8,"count":1066}}},{"buffer":1,"byteOffset":2573064,"byteLength":32736,"target":34962,"byteStride":12,"extensions":{"EXT_meshopt_compression":{"buffer":0,"byteOffset":1194724,"byteLength":14405,"mode":"ATTRIBUTES","byteStride":12,"count":2728}}},{"buffer":1,"byteOffset":2605800,"byteLength":32736,"target":34962,"byteStride":12,"extensions":{"EXT_meshopt_compression":{"buffer":0,"byteOffset":1209132,"byteLength":3926,"mode":"ATTRIBUTES","byteStride":12,"count":2728}}},{"buffer":1,"byteOffset":2638536,"byteLength":21824,"target":34962,"byteStride":8,"extensions":{"EXT_meshopt_compression":{"buffer":0,"byteOffset":1213060,"byteLength":9830,"mode":"ATTRIBUTES","byteStride":8,"count":2728}}},{"buffer":1,"byteOffset":2660360,"byteLength":113376,"target":34962,"byteStride":12,"extensions":{"EXT_meshopt_compression":{"buffer":0,"byteOffset":1222892,"byteLength":46416,"mode":"ATTRIBUTES","byteStride":12,"count":9448}}},{"buffer":1,"byteOffset":2773736,"byteLength":113376,"target":34962,"byteStride":12,"extensions":{"EXT_meshopt_compression":{"buffer":0,"byteOffset":1269308,"byteLength":4196,"mode":"ATTRIBUTES","byteStride":12,"count":9448}}},{"buffer":1,"byteOffset":2887112,"byteLength":75584,"target":34962,"byteStride":8,"extensions":{"EXT_meshopt_compression":{"buffer":0,"byteOffset":1273504,"byteLength":33104,"mode":"ATTRIBUTES","byteStride":8,"count":9448}}},{"buffer":1,"byteOffset":2962696,"byteLength":59400,"target":34962,"byteStride":12,"extensions":{"EXT_meshopt_compression":{"buffer":0,"byteOffset":1306608,"byteLength":26610,"mode":"ATTRIBUTES","byteStride":12,"count":4950}}},{"buffer":1,"byteOffset":3022096,"byteLength":59400,"target":34962,"byteStride":12,"extensions":{"EXT_meshopt_compression":{"buffer":0,"byteOffset":1333220,"byteLength":6812,"mode":"ATTRIBUTES","byteStride":12,"count":4950}}},{"buffer":1,"byteOffset":3081496,"byteLength":39600,"target":34962,"byteStride":8,"extensions":{"EXT_meshopt_compression":{"buffer":0,"byteOffset":1340032,"byteLength":17724,"mode":"ATTRIBUTES","byteStride":8,"count":4950}}}],"samplers":[{"magFilter":9729,"minFilter":9987,"wrapS":10497,"wrapT":10497},{"magFilter":9729,"minFilter":9987,"wrapS":33071,"wrapT":33071}],"textures":[{"sampler":0,"extensions":{"EXT_texture_webp":{"source":0}}},{"sampler":0,"extensions":{"EXT_texture_webp":{"source":1}}},{"sampler":0,"extensions":{"EXT_texture_webp":{"source":3}}},{"sampler":0,"extensions":{"EXT_texture_webp":{"source":2}}},{"sampler":0,"extensions":{"EXT_texture_webp":{"source":4}}},{"sampler":0,"extensions":{"EXT_texture_webp":{"source":6}}},{"sampler":0,"extensions":{"EXT_texture_webp":{"source":5}}},{"sampler":1,"extensions":{"EXT_texture_webp":{"source":9}}},{"sampler":0,"extensions":{"EXT_texture_webp":{"source":8}}},{"sampler":0,"extensions":{"EXT_texture_webp":{"source":7}}}],"images":[{"name":"book_pattern_nor_gl_2k","mimeType":"image/webp","uri":"shared/8de172b46ec41fd3863b660a.webp"},{"name":"book_pattern_rough_2k","mimeType":"image/webp","uri":"shared/a04d51bd9431742f3e8e78f4.webp"},{"name":"Paper001_2K-JPG_NormalGL","mimeType":"image/webp","uri":"shared/a4ffc7b7fc49def2917e39f5.webp"},{"name":"Paper001_2K-JPG_Color","mimeType":"image/webp","uri":"shared/75262c983a496cb7fcdc6c19.webp"},{"name":"Paper001_2K-JPG_Roughness","mimeType":"image/webp","uri":"shared/49f61cb86539e805ce6a1ee3.webp"},{"name":"compressed-paper-normal","mimeType":"image/webp","uri":"shared/339c1ac519928878fbaa1237.webp"},{"name":"compressed-paper-color","mimeType":"image/webp","uri":"shared/7701c62282fa7f26c46af450.webp"},{"name":"art-of-war_print_orm","mimeType":"image/webp","uri":"shared/06ada11c9eb652cd2a7812e8.webp"},{"name":"art-of-war_print_normal","mimeType":"image/webp","uri":"shared/5cb7bff8447deb89ae1c4097.webp"},{"name":"edition-art-of-war","mimeType":"image/webp","uri":"shared/4f42b30204f119f13aca61ee.webp"}],"buffers":[{"uri":"shared/f48e5a4a7bfce0deef9edd17.bin","byteLength":1357756},{"byteLength":3121096,"extensions":{"EXT_meshopt_compression":{"fallback":true}}}],"materials":[{"name":"art-of-war case material.002","doubleSided":true,"pbrMetallicRoughness":{"baseColorFactor":[0.7991027235984802,0.7304607629776001,0.5906188488006592,1],"metallicFactor":0,"metallicRoughnessTexture":{"index":1}},"normalTexture":{"index":0,"scale":0.05999999865889549}},{"name":"MAT_art-of-war_BackInk","doubleSided":true,"pbrMetallicRoughness":{"baseColorFactor":[0.02500000037252903,0.03200000151991844,0.027000000700354576,1],"roughnessFactor":0.7200000286102295,"metallicFactor":0}},{"name":"MAT_art-of-war_Stamped_Ink.002","doubleSided":true,"pbrMetallicRoughness":{"baseColorFactor":[0.02500000037252903,0.03200000151991844,0.027000000700354576,1],"roughnessFactor":0.3400000035762787,"metallicFactor":0},"extensions":{"KHR_materials_clearcoat":{"clearcoatFactor":0.44999998807907104,"clearcoatRoughnessFactor":0.20000000298023224}}},{"name":"MAT_Uncoated_Paper_Fibre","doubleSided":true,"pbrMetallicRoughness":{"metallicFactor":0,"baseColorTexture":{"index":2,"texCoord":1},"metallicRoughnessTexture":{"index":4,"texCoord":1}},"normalTexture":{"index":3,"texCoord":1,"scale":0.07000000029802322}},{"name":"MAT_art-of-war_Stamped_Ink.003","doubleSided":true,"pbrMetallicRoughness":{"baseColorFactor":[0.4019777774810791,0.01599629409611225,0.04666508734226227,1],"roughnessFactor":0.3400000035762787,"metallicFactor":0},"extensions":{"KHR_materials_clearcoat":{"clearcoatFactor":0.44999998807907104,"clearcoatRoughnessFactor":0.20000000298023224}}},{"name":"Compressed paper cut surface","doubleSided":true,"pbrMetallicRoughness":{"roughnessFactor":0.8999999761581421,"metallicFactor":0,"baseColorTexture":{"index":5}},"normalTexture":{"index":6}},{"name":"Compressed ivory stock 2","doubleSided":true,"pbrMetallicRoughness":{"baseColorFactor":[0.7279999852180481,0.7129999995231628,0.656000018119812,1],"roughnessFactor":0.8600000143051147,"metallicFactor":0}},{"name":"MAT_art-of-war_Registered_Print.001","extras":{"surface_finish":"Registered print, selective varnish"},"doubleSided":true,"pbrMetallicRoughness":{"baseColorTexture":{"index":7,"texCoord":1},"metallicRoughnessTexture":{"index":9,"texCoord":1}},"normalTexture":{"index":8,"texCoord":1},"extensions":{"KHR_materials_clearcoat":{"clearcoatFactor":1,"clearcoatRoughnessFactor":0.23999999463558197,"clearcoatTexture":{"index":9,"texCoord":1}}}},{"name":"Endband cotton ecru","doubleSided":true,"pbrMetallicRoughness":{"baseColorFactor":[0.5,0.46000000834465027,0.3499999940395355,1],"roughnessFactor":0.8799999952316284,"metallicFactor":0}},{"name":"Binding linen warm ecru","doubleSided":true,"pbrMetallicRoughness":{"baseColorFactor":[0.3799999952316284,0.3400000035762787,0.25999999046325684,1],"roughnessFactor":0.9300000071525574,"metallicFactor":0}},{"name":"art-of-war woven ribbon.002","doubleSided":true,"pbrMetallicRoughness":{"baseColorFactor":[0.4019777774810791,0.01599629409611225,0.04666508734226227,1],"metallicFactor":0,"metallicRoughnessTexture":{"index":1}},"normalTexture":{"index":0,"scale":1.149999976158142},"extensions":{"KHR_materials_sheen":{"sheenColorFactor":[1,1,1],"sheenRoughnessFactor":0.5}}},{"name":"MAT_Uncoated_Paper_Fibre","doubleSided":true,"pbrMetallicRoughness":{"metallicFactor":0,"baseColorTexture":{"index":2},"metallicRoughnessTexture":{"index":4}},"normalTexture":{"index":3,"scale":0.07000000029802322}},{"name":"art-of-war printed ink.002","doubleSided":true,"pbrMetallicRoughness":{"baseColorFactor":[0.040915198624134064,0.03310476616024971,0.019382361322641373,1],"roughnessFactor":0.8999999761581421,"metallicFactor":0}}],"meshes":[{"name":"Pressed case joint Back board.027","primitives":[{"attributes":{"POSITION":0,"NORMAL":1,"TEXCOORD_0":2},"mode":4,"material":0,"indices":3}]},{"name":"Back collection.003","primitives":[{"attributes":{"POSITION":4,"NORMAL":5,"TEXCOORD_0":6},"mode":4,"material":1,"indices":7}]},{"name":"Back description.003","primitives":[{"attributes":{"POSITION":8,"NORMAL":9,"TEXCOORD_0":10},"mode":4,"material":1,"indices":11}]},{"name":"Back edition.003","primitives":[{"attributes":{"POSITION":12,"NORMAL":13,"TEXCOORD_0":14},"mode":4,"material":2,"indices":15}]},{"name":"Back ISBN.003","primitives":[{"attributes":{"POSITION":16,"NORMAL":17,"TEXCOORD_0":18},"mode":4,"material":1,"indices":19}]},{"name":"Back pastedown.027","primitives":[{"attributes":{"POSITION":20,"NORMAL":21,"TEXCOORD_0":22,"TEXCOORD_1":23},"mode":4,"material":3,"indices":24}]},{"name":"Back title.003","primitives":[{"attributes":{"POSITION":25,"NORMAL":26,"TEXCOORD_0":27},"mode":4,"material":2,"indices":28}]},{"name":"Collection mark.019","primitives":[{"attributes":{"POSITION":29,"NORMAL":30,"TEXCOORD_0":31},"mode":4,"material":4,"indices":32}]},{"name":"Continuous compressed cut art-of-war.003","primitives":[{"attributes":{"POSITION":33,"NORMAL":34,"TEXCOORD_0":35},"mode":4,"material":5,"indices":36},{"attributes":{"POSITION":37,"NORMAL":38,"TEXCOORD_0":39},"mode":4,"material":6,"indices":40}]},{"name":"Curved foil rule.038","primitives":[{"attributes":{"POSITION":41,"NORMAL":42,"TEXCOORD_0":43},"mode":4,"material":4,"indices":44}]},{"name":"Curved foil rule.039","primitives":[{"attributes":{"POSITION":45,"NORMAL":46,"TEXCOORD_0":47},"mode":4,"material":4,"indices":44}]},{"name":"Front pastedown.027","primitives":[{"attributes":{"POSITION":48,"NORMAL":49,"TEXCOORD_0":50,"TEXCOORD_1":51},"mode":4,"material":3,"indices":24}]},{"name":"Pressed case joint Wrapped printed cover.002","primitives":[{"attributes":{"POSITION":52,"NORMAL":53,"TEXCOORD_0":54,"TEXCOORD_1":55,"TEXCOORD_2":56,"TEXCOORD_3":57},"mode":4,"material":7,"indices":58},{"attributes":{"POSITION":59,"NORMAL":60,"TEXCOORD_0":61,"TEXCOORD_1":62,"TEXCOORD_2":63,"TEXCOORD_3":64},"mode":4,"material":0,"indices":65}]},{"name":"Head textile endband art-of-war.004","primitives":[{"attributes":{"POSITION":66,"NORMAL":67},"mode":4,"material":8,"indices":68}]},{"name":"Linen spine lining art-of-war.004","primitives":[{"attributes":{"POSITION":69,"NORMAL":70},"mode":4,"material":9,"indices":71}]},{"name":"Ribbon flexible satin art-of-war.004","primitives":[{"attributes":{"POSITION":72,"NORMAL":73,"TEXCOORD_0":74},"mode":4,"material":10,"indices":75}]},{"name":"Rounded cloth spine.027","primitives":[{"attributes":{"POSITION":76,"NORMAL":77,"TEXCOORD_0":78},"mode":4,"material":0,"indices":79}]},{"name":"Spine author.019","primitives":[{"attributes":{"POSITION":80,"NORMAL":81,"TEXCOORD_0":82},"mode":4,"material":4,"indices":83}]},{"name":"Spine title.027","primitives":[{"attributes":{"POSITION":84,"NORMAL":85,"TEXCOORD_0":86},"mode":4,"material":4,"indices":87}]},{"name":"Tail textile endband art-of-war.004","primitives":[{"attributes":{"POSITION":88,"NORMAL":89},"mode":4,"material":8,"indices":68}]},{"name":"Flexible paper.003","primitives":[{"attributes":{"POSITION":90,"NORMAL":91,"TEXCOORD_0":92},"mode":4,"material":11,"indices":93}]},{"name":"Interior author.027","primitives":[{"attributes":{"POSITION":94,"NORMAL":95,"TEXCOORD_0":96},"mode":4,"material":12,"indices":97}]},{"name":"Interior imprint.027","primitives":[{"attributes":{"POSITION":98,"NORMAL":99,"TEXCOORD_0":100},"mode":4,"material":12,"indices":101}]},{"name":"Interior title.027","primitives":[{"attributes":{"POSITION":102,"NORMAL":103,"TEXCOORD_0":104},"mode":4,"material":12,"indices":105}]}],"nodes":[{"name":"Back board.027","extras":{"edge_refined":true,"unpressed_mesh":"Back board.035","pressed_joint_revision":1,"joint_depth_mm":1.0366440366697272,"joint_center_mm":6.3999999999999995},"translation":[0,0,-0.11649999022483826],"mesh":0},{"name":"Back collection.003","translation":[0,-0.48767995834350586,-0.12849998474121094],"rotation":[0,-0.7071068286895752,0.7071068286895752,3.090862676913275e-8],"mesh":1},{"name":"Back description.003","translation":[0,0.05079999938607216,-0.12849998474121094],"rotation":[0,-0.7071068286895752,0.7071068286895752,3.090862676913275e-8],"mesh":2},{"name":"Back edition.003","translation":[0,-0.6908799409866333,-0.12849998474121094],"rotation":[0,-0.7071068286895752,0.7071068286895752,3.090862676913275e-8],"mesh":3},{"name":"Back ISBN.003","translation":[0,-0.7924799919128418,-0.12849998474121094],"rotation":[0,-0.7071068286895752,0.7071068286895752,3.090862676913275e-8],"mesh":4},{"name":"Back pastedown.027","translation":[0,0,-0.10499998927116394],"mesh":5},{"name":"Back title.003","translation":[0,0.5892800092697144,-0.12849998474121094],"rotation":[0,-0.7071068286895752,0.7071068286895752,3.090862676913275e-8],"mesh":6},{"name":"Collection mark.019","mesh":7},{"name":"Compressed paper signatures art-of-war.003","extras":{"paper_surface_revision":1,"leaf_count":156,"paper_caliper_mm":0.12179487179487182,"binding_structure":"Rounded and backed signatures"},"mesh":8},{"name":"Curved foil rule.038","mesh":9},{"name":"Curved foil rule.039","mesh":10},{"name":"Front pastedown.027","translation":[0.6190000176429749,0,-0.011500008404254913],"mesh":11},{"name":"Wrapped printed cover.002","extras":{"edge_refined":true,"unpressed_mesh":"Front board.035","pressed_joint_revision":1,"joint_depth_mm":1.1011757091455818,"joint_center_mm":6.3999999999999995},"translation":[0.6190000176429749,0,0],"mesh":12},{"name":"FrontHinge.027","translation":[-0.6190000772476196,0,0.11649999022483826],"children":[11,12]},{"name":"Head textile endband art-of-war.004","extras":{"binding_revision":2},"mesh":13},{"name":"Linen spine lining art-of-war.004","extras":{"binding_revision":2},"mesh":14},{"name":"Ribbon flexible satin art-of-war.004","extras":{"binding_revision":2,"ribbon_width_dm":0.043,"ribbon_length_dm":0.29,"ribbon_anchor_dm":[0,-1.008,0.006]},"mesh":15},{"name":"Rounded cloth spine.027","mesh":16},{"name":"Spine author.019","mesh":17},{"name":"Spine title.027","mesh":18},{"name":"Tail textile endband art-of-war.004","extras":{"binding_revision":2},"mesh":19},{"name":"Curved title leaf.003","mesh":20},{"name":"Interior author.027","mesh":21},{"name":"Interior imprint.027","mesh":22},{"name":"Interior title.027","mesh":23},{"name":"TurningLeaf.003","translation":[-0.5740000009536743,0,0.09749999642372131],"children":[21,22,23,24]},{"name":"Publisher_art-of-war.001","extras":{"slug":"art-of-war","dimensions_mm":[123.8,203.2,25.4],"model_design":"Publisher front artwork on a showcase binding; spine and interior are custom reconstructions"},"scale":[0.09668101370334625,0.09999364614486694,0.09969764202833176],"children":[0,1,2,3,4,5,6,7,8,9,10,13,14,15,16,17,18,19,20,25]}],"scenes":[{"name":"Library Publisher Editions.001","nodes":[26]}],"scene":0,"extensionsUsed":["EXT_meshopt_compression","EXT_texture_webp","KHR_materials_clearcoat","KHR_materials_sheen"],"extensionsRequired":["EXT_meshopt_compression","EXT_texture_webp"]}