{"asset":{"generator":"glTF-Transform v4.5.0","version":"2.0"},"accessors":[{"type":"VEC3","componentType":5126,"count":2392,"max":[0.6187571287155151,1.0157458782196045,0.010831124149262905],"min":[-0.6187571287155151,-1.0157458782196045,-0.010831124149262905],"normalized":false,"byteOffset":0,"bufferView":0},{"type":"VEC3","componentType":5126,"count":2392,"normalized":false,"byteOffset":0,"bufferView":1},{"type":"VEC2","componentType":5126,"count":2392,"normalized":false,"byteOffset":0,"bufferView":2},{"type":"SCALAR","componentType":5123,"count":12588,"normalized":false,"byteOffset":0,"bufferView":3},{"type":"VEC3","componentType":5126,"count":514,"max":[0.1009504571557045,0,0.0053944955579936504],"min":[-0.09995229542255402,0,-0.005732110235840082],"normalized":false,"byteOffset":0,"bufferView":4},{"type":"VEC3","componentType":5126,"count":514,"normalized":false,"byteOffset":0,"bufferView":5},{"type":"SCALAR","componentType":5123,"count":1482,"normalized":false,"byteOffset":25176,"bufferView":3},{"type":"VEC3","componentType":5126,"count":6440,"max":[0.17977513372898102,0,0.0499560572206974],"min":[-0.17942433059215546,0,-0.0509968101978302],"normalized":false,"byteOffset":0,"bufferView":6},{"type":"VEC3","componentType":5126,"count":6440,"normalized":false,"byteOffset":0,"bufferView":7},{"type":"SCALAR","componentType":5123,"count":19014,"normalized":false,"byteOffset":28140,"bufferView":3},{"type":"VEC3","componentType":5126,"count":516,"max":[0.0995934009552002,0,0.00647339504212141],"min":[-0.0983075276017189,0,-0.006878532003611326],"normalized":false,"byteOffset":0,"bufferView":8},{"type":"VEC3","componentType":5126,"count":516,"normalized":false,"byteOffset":0,"bufferView":9},{"type":"SCALAR","componentType":5123,"count":1488,"normalized":false,"byteOffset":66168,"bufferView":3},{"type":"VEC3","componentType":5126,"count":966,"max":[0.07913339138031006,0,0.005664220545440912],"min":[-0.0783858671784401,0,-0.0060187154449522495],"normalized":false,"byteOffset":0,"bufferView":10},{"type":"VEC3","componentType":5126,"count":966,"normalized":false,"byteOffset":0,"bufferView":11},{"type":"SCALAR","componentType":5123,"count":2874,"normalized":false,"byteOffset":69144,"bufferView":3},{"type":"VEC3","componentType":5126,"count":928,"max":[0.13599608838558197,0,0.015037741512060165],"min":[-0.13593550026416779,0,-0.016855597496032715],"normalized":false,"byteOffset":0,"bufferView":12},{"type":"VEC3","componentType":5126,"count":928,"normalized":false,"byteOffset":0,"bufferView":13},{"type":"SCALAR","componentType":5123,"count":2742,"normalized":false,"byteOffset":74892,"bufferView":3},{"type":"VEC3","componentType":5126,"count":16611,"max":[-0.6625297665596008,-0.6202671527862549,0.010499999858438969],"min":[-0.6632499694824219,-0.9240528345108032,-0.010499999858438969],"normalized":false,"byteOffset":0,"bufferView":14},{"type":"VEC3","componentType":5126,"count":16611,"normalized":false,"byteOffset":0,"bufferView":15},{"type":"SCALAR","componentType":5123,"count":25032,"normalized":false,"byteOffset":80376,"bufferView":3},{"type":"VEC3","componentType":5126,"count":8772,"max":[0.5920000076293945,0.9880993366241455,0.0949999988079071],"min":[-0.6320000290870667,-0.988082766532898,-0.0949999988079071],"normalized":false,"byteOffset":0,"bufferView":16},{"type":"VEC3","componentType":5126,"count":8772,"normalized":false,"byteOffset":0,"bufferView":17},{"type":"VEC2","componentType":5126,"count":8772,"normalized":false,"byteOffset":0,"bufferView":18},{"type":"SCALAR","componentType":5123,"count":49152,"normalized":false,"byteOffset":130440,"bufferView":3},{"type":"VEC3","componentType":5126,"count":8,"max":[0.5920000076293945,0.9879999756813049,0.0949999988079071],"min":[-0.609000027179718,-0.9879999756813049,-0.0949999988079071],"normalized":false,"byteOffset":0,"bufferView":19},{"type":"VEC3","componentType":5126,"count":8,"normalized":false,"byteOffset":0,"bufferView":20},{"type":"SCALAR","componentType":5123,"count":12,"normalized":false,"byteOffset":228744,"bufferView":3},{"type":"VEC3","componentType":5126,"count":64,"max":[-0.6436046957969666,-0.5476400256156921,0.0745600014925003],"min":[-0.663100004196167,-0.5496399998664856,-0.0745600014925003],"normalized":false,"byteOffset":0,"bufferView":21},{"type":"VEC3","componentType":5126,"count":64,"normalized":false,"byteOffset":0,"bufferView":22},{"type":"SCALAR","componentType":5123,"count":96,"normalized":false,"byteOffset":228768,"bufferView":3},{"type":"VEC3","componentType":5126,"count":64,"max":[-0.6436046957969666,0.4683600068092346,0.0745600014925003],"min":[-0.663100004196167,0.4663600027561188,-0.0745600014925003],"normalized":false,"byteOffset":0,"bufferView":23},{"type":"VEC3","componentType":5126,"count":64,"normalized":false,"byteOffset":0,"bufferView":24},{"type":"VEC3","componentType":5126,"count":1326,"max":[0.6187570691108704,1.0157465934753418,0.011302389204502106],"min":[-0.6187570691108704,-1.0157465934753418,-0.008646869100630283],"normalized":false,"byteOffset":0,"bufferView":25},{"type":"VEC3","componentType":5126,"count":1326,"normalized":false,"byteOffset":0,"bufferView":26},{"type":"VEC2","componentType":5126,"count":1326,"normalized":false,"byteOffset":0,"bufferView":27},{"type":"SCALAR","componentType":5123,"count":6720,"normalized":false,"byteOffset":228960,"bufferView":3},{"type":"VEC3","componentType":5126,"count":1192,"max":[0.6187570691108704,1.0157465934753418,-0.0050829448737204075],"min":[-0.6187570691108704,-1.0157465934753418,-0.011505368165671825],"normalized":false,"byteOffset":0,"bufferView":28},{"type":"VEC3","componentType":5126,"count":1192,"normalized":false,"byteOffset":0,"bufferView":29},{"type":"VEC2","componentType":5126,"count":1192,"normalized":false,"byteOffset":0,"bufferView":30},{"type":"SCALAR","componentType":5123,"count":5940,"normalized":false,"byteOffset":242400,"bufferView":3},{"type":"VEC3","componentType":5126,"count":2720,"max":[-0.6037499904632568,0.9910420179367065,0.0949999988079071],"min":[-0.635249674320221,0.9829580187797546,-0.0949999988079071],"normalized":false,"byteOffset":0,"bufferView":31},{"type":"VEC3","componentType":5126,"count":2720,"normalized":false,"byteOffset":0,"bufferView":32},{"type":"SCALAR","componentType":5123,"count":16260,"normalized":false,"byteOffset":254280,"bufferView":3},{"type":"VEC3","componentType":5126,"count":588,"max":[-0.6097410321235657,0.9760000109672546,0.0949999988079071],"min":[-0.6349999904632568,-0.9760000109672546,-0.0949999988079071],"normalized":false,"byteOffset":0,"bufferView":33},{"type":"VEC3","componentType":5126,"count":588,"normalized":false,"byteOffset":0,"bufferView":34},{"type":"SCALAR","componentType":5123,"count":1164,"normalized":false,"byteOffset":286800,"bufferView":3},{"type":"VEC3","componentType":5126,"count":730,"max":[0.02171694114804268,-1.0079991817474365,0.02216394618153572],"min":[-0.02171694114804268,-1.2979999780654907,0.006000000052154064],"normalized":false,"byteOffset":0,"bufferView":35},{"type":"VEC3","componentType":5126,"count":730,"normalized":false,"byteOffset":0,"bufferView":36},{"type":"VEC2","componentType":5126,"count":730,"normalized":false,"byteOffset":0,"bufferView":37},{"type":"SCALAR","componentType":5123,"count":4368,"normalized":false,"byteOffset":289128,"bufferView":3},{"type":"VEC3","componentType":5126,"count":2178,"max":[-0.6111443042755127,1.0160651206970215,0.11649999767541885],"min":[-0.6614996194839478,-1.016063928604126,-0.11649999767541885],"normalized":false,"byteOffset":0,"bufferView":38},{"type":"VEC3","componentType":5126,"count":2178,"normalized":false,"byteOffset":0,"bufferView":39},{"type":"VEC2","componentType":5126,"count":2178,"normalized":false,"byteOffset":0,"bufferView":40},{"type":"SCALAR","componentType":5123,"count":13056,"normalized":false,"byteOffset":297864,"bufferView":3},{"type":"VEC3","componentType":5126,"count":5262,"max":[-0.6623064279556274,0.7873703837394714,0.013000000268220901],"min":[-0.6632499694824219,0.6350296139717102,-0.013000000268220901],"normalized":false,"byteOffset":0,"bufferView":41},{"type":"VEC3","componentType":5126,"count":5262,"normalized":false,"byteOffset":0,"bufferView":42},{"type":"SCALAR","componentType":5123,"count":7932,"normalized":false,"byteOffset":323976,"bufferView":3},{"type":"VEC3","componentType":5126,"count":9493,"max":[-0.6600006222724915,0.2383948266506195,0.027960000559687614],"min":[-0.6632499694824219,-0.2383948266506195,-0.027960000559687614],"normalized":false,"byteOffset":0,"bufferView":43},{"type":"VEC3","componentType":5126,"count":9493,"normalized":false,"byteOffset":0,"bufferView":44},{"type":"SCALAR","componentType":5123,"count":14340,"normalized":false,"byteOffset":339840,"bufferView":3},{"type":"VEC3","componentType":5126,"count":2720,"max":[-0.6037499904632568,-0.9829580187797546,0.0949999988079071],"min":[-0.635249674320221,-0.9910420179367065,-0.0949999988079071],"normalized":false,"byteOffset":0,"bufferView":45},{"type":"VEC3","componentType":5126,"count":2720,"normalized":false,"byteOffset":0,"bufferView":46}],"bufferViews":[{"buffer":1,"byteOffset":0,"byteLength":28704,"target":34962,"byteStride":12,"extensions":{"EXT_meshopt_compression":{"buffer":0,"byteOffset":0,"byteLength":17207,"mode":"ATTRIBUTES","byteStride":12,"count":2392}}},{"buffer":1,"byteOffset":28704,"byteLength":28704,"target":34962,"byteStride":12,"extensions":{"EXT_meshopt_compression":{"buffer":0,"byteOffset":17208,"byteLength":21520,"mode":"ATTRIBUTES","byteStride":12,"count":2392}}},{"buffer":1,"byteOffset":57408,"byteLength":19136,"target":34962,"byteStride":8,"extensions":{"EXT_meshopt_compression":{"buffer":0,"byteOffset":38728,"byteLength":13560,"mode":"ATTRIBUTES","byteStride":8,"count":2392}}},{"buffer":1,"byteOffset":76544,"byteLength":368520,"target":34963,"extensions":{"EXT_meshopt_compression":{"buffer":0,"byteOffset":52288,"byteLength":169882,"mode":"TRIANGLES","byteStride":2,"count":184260}}},{"buffer":1,"byteOffset":445064,"byteLength":6168,"target":34962,"byteStride":12,"extensions":{"EXT_meshopt_compression":{"buffer":0,"byteOffset":222172,"byteLength":3261,"mode":"ATTRIBUTES","byteStride":12,"count":514}}},{"buffer":1,"byteOffset":451232,"byteLength":6168,"target":34962,"byteStride":12,"extensions":{"EXT_meshopt_compression":{"buffer":0,"byteOffset":225436,"byteLength":141,"mode":"ATTRIBUTES","byteStride":12,"count":514}}},{"buffer":1,"byteOffset":457400,"byteLength":77280,"target":34962,"byteStride":12,"extensions":{"EXT_meshopt_compression":{"buffer":0,"byteOffset":225580,"byteLength":34943,"mode":"ATTRIBUTES","byteStride":12,"count":6440}}},{"buffer":1,"byteOffset":534680,"byteLength":77280,"target":34962,"byteStride":12,"extensions":{"EXT_meshopt_compression":{"buffer":0,"byteOffset":260524,"byteLength":1245,"mode":"ATTRIBUTES","byteStride":12,"count":6440}}},{"buffer":1,"byteOffset":611960,"byteLength":6192,"target":34962,"byteStride":12,"extensions":{"EXT_meshopt_compression":{"buffer":0,"byteOffset":261772,"byteLength":3316,"mode":"ATTRIBUTES","byteStride":12,"count":516}}},{"buffer":1,"byteOffset":618152,"byteLength":6192,"target":34962,"byteStride":12,"extensions":{"EXT_meshopt_compression":{"buffer":0,"byteOffset":265088,"byteLength":141,"mode":"ATTRIBUTES","byteStride":12,"count":516}}},{"buffer":1,"byteOffset":624344,"byteLength":11592,"target":34962,"byteStride":12,"extensions":{"EXT_meshopt_compression":{"buffer":0,"byteOffset":265232,"byteLength":6009,"mode":"ATTRIBUTES","byteStride":12,"count":966}}},{"buffer":1,"byteOffset":635936,"byteLength":11592,"target":34962,"byteStride":12,"extensions":{"EXT_meshopt_compression":{"buffer":0,"byteOffset":271244,"byteLength":225,"mode":"ATTRIBUTES","byteStride":12,"count":966}}},{"buffer":1,"byteOffset":647528,"byteLength":11136,"target":34962,"byteStride":12,"extensions":{"EXT_meshopt_compression":{"buffer":0,"byteOffset":271472,"byteLength":5551,"mode":"ATTRIBUTES","byteStride":12,"count":928}}},{"buffer":1,"byteOffset":658664,"byteLength":11136,"target":34962,"byteStride":12,"extensions":{"EXT_meshopt_compression":{"buffer":0,"byteOffset":277024,"byteLength":213,"mode":"ATTRIBUTES","byteStride":12,"count":928}}},{"buffer":1,"byteOffset":669800,"byteLength":199332,"target":34962,"byteStride":12,"extensions":{"EXT_meshopt_compression":{"buffer":0,"byteOffset":277240,"byteLength":75170,"mode":"ATTRIBUTES","byteStride":12,"count":16611}}},{"buffer":1,"byteOffset":869132,"byteLength":199332,"target":34962,"byteStride":12,"extensions":{"EXT_meshopt_compression":{"buffer":0,"byteOffset":352412,"byteLength":127434,"mode":"ATTRIBUTES","byteStride":12,"count":16611}}},{"buffer":1,"byteOffset":1068464,"byteLength":105264,"target":34962,"byteStride":12,"extensions":{"EXT_meshopt_compression":{"buffer":0,"byteOffset":479848,"byteLength":43530,"mode":"ATTRIBUTES","byteStride":12,"count":8772}}},{"buffer":1,"byteOffset":1173728,"byteLength":105264,"target":34962,"byteStride":12,"extensions":{"EXT_meshopt_compression":{"buffer":0,"byteOffset":523380,"byteLength":16155,"mode":"ATTRIBUTES","byteStride":12,"count":8772}}},{"buffer":1,"byteOffset":1278992,"byteLength":70176,"target":34962,"byteStride":8,"extensions":{"EXT_meshopt_compression":{"buffer":0,"byteOffset":539536,"byteLength":35473,"mode":"ATTRIBUTES","byteStride":8,"count":8772}}},{"buffer":1,"byteOffset":1349168,"byteLength":96,"target":34962,"byteStride":12,"extensions":{"EXT_meshopt_compression":{"buffer":0,"byteOffset":575012,"byteLength":89,"mode":"ATTRIBUTES","byteStride":12,"count":8}}},{"buffer":1,"byteOffset":1349264,"byteLength":96,"target":34962,"byteStride":12,"extensions":{"EXT_meshopt_compression":{"buffer":0,"byteOffset":575104,"byteLength":50,"mode":"ATTRIBUTES","byteStride":12,"count":8}}},{"buffer":1,"byteOffset":1349360,"byteLength":768,"target":34962,"byteStride":12,"extensions":{"EXT_meshopt_compression":{"buffer":0,"byteOffset":575156,"byteLength":324,"mode":"ATTRIBUTES","byteStride":12,"count":64}}},{"buffer":1,"byteOffset":1350128,"byteLength":768,"target":34962,"byteStride":12,"extensions":{"EXT_meshopt_compression":{"buffer":0,"byteOffset":575480,"byteLength":374,"mode":"ATTRIBUTES","byteStride":12,"count":64}}},{"buffer":1,"byteOffset":1350896,"byteLength":768,"target":34962,"byteStride":12,"extensions":{"EXT_meshopt_compression":{"buffer":0,"byteOffset":575856,"byteLength":328,"mode":"ATTRIBUTES","byteStride":12,"count":64}}},{"buffer":1,"byteOffset":1351664,"byteLength":768,"target":34962,"byteStride":12,"extensions":{"EXT_meshopt_compression":{"buffer":0,"byteOffset":576184,"byteLength":374,"mode":"ATTRIBUTES","byteStride":12,"count":64}}},{"buffer":1,"byteOffset":1352432,"byteLength":15912,"target":34962,"byteStride":12,"extensions":{"EXT_meshopt_compression":{"buffer":0,"byteOffset":576560,"byteLength":10233,"mode":"ATTRIBUTES","byteStride":12,"count":1326}}},{"buffer":1,"byteOffset":1368344,"byteLength":15912,"target":34962,"byteStride":12,"extensions":{"EXT_meshopt_compression":{"buffer":0,"byteOffset":586796,"byteLength":12216,"mode":"ATTRIBUTES","byteStride":12,"count":1326}}},{"buffer":1,"byteOffset":1384256,"byteLength":10608,"target":34962,"byteStride":8,"extensions":{"EXT_meshopt_compression":{"buffer":0,"byteOffset":599012,"byteLength":6985,"mode":"ATTRIBUTES","byteStride":8,"count":1326}}},{"buffer":1,"byteOffset":1394864,"byteLength":14304,"target":34962,"byteStride":12,"extensions":{"EXT_meshopt_compression":{"buffer":0,"byteOffset":606000,"byteLength":8784,"mode":"ATTRIBUTES","byteStride":12,"count":1192}}},{"buffer":1,"byteOffset":1409168,"byteLength":14304,"target":34962,"byteStride":12,"extensions":{"EXT_meshopt_compression":{"buffer":0,"byteOffset":614784,"byteLength":10437,"mode":"ATTRIBUTES","byteStride":12,"count":1192}}},{"buffer":1,"byteOffset":1423472,"byteLength":9536,"target":34962,"byteStride":8,"extensions":{"EXT_meshopt_compression":{"buffer":0,"byteOffset":625224,"byteLength":6819,"mode":"ATTRIBUTES","byteStride":8,"count":1192}}},{"buffer":1,"byteOffset":1433008,"byteLength":32640,"target":34962,"byteStride":12,"extensions":{"EXT_meshopt_compression":{"buffer":0,"byteOffset":632044,"byteLength":15620,"mode":"ATTRIBUTES","byteStride":12,"count":2720}}},{"buffer":1,"byteOffset":1465648,"byteLength":32640,"target":34962,"byteStride":12,"extensions":{"EXT_meshopt_compression":{"buffer":0,"byteOffset":647664,"byteLength":29276,"mode":"ATTRIBUTES","byteStride":12,"count":2720}}},{"buffer":1,"byteOffset":1498288,"byteLength":7056,"target":34962,"byteStride":12,"extensions":{"EXT_meshopt_compression":{"buffer":0,"byteOffset":676940,"byteLength":1838,"mode":"ATTRIBUTES","byteStride":12,"count":588}}},{"buffer":1,"byteOffset":1505344,"byteLength":7056,"target":34962,"byteStride":12,"extensions":{"EXT_meshopt_compression":{"buffer":0,"byteOffset":678780,"byteLength":5843,"mode":"ATTRIBUTES","byteStride":12,"count":588}}},{"buffer":1,"byteOffset":1512400,"byteLength":8760,"target":34962,"byteStride":12,"extensions":{"EXT_meshopt_compression":{"buffer":0,"byteOffset":684624,"byteLength":4464,"mode":"ATTRIBUTES","byteStride":12,"count":730}}},{"buffer":1,"byteOffset":1521160,"byteLength":8760,"target":34962,"byteStride":12,"extensions":{"EXT_meshopt_compression":{"buffer":0,"byteOffset":689088,"byteLength":6185,"mode":"ATTRIBUTES","byteStride":12,"count":730}}},{"buffer":1,"byteOffset":1529920,"byteLength":5840,"target":34962,"byteStride":8,"extensions":{"EXT_meshopt_compression":{"buffer":0,"byteOffset":695276,"byteLength":2354,"mode":"ATTRIBUTES","byteStride":8,"count":730}}},{"buffer":1,"byteOffset":1535760,"byteLength":26136,"target":34962,"byteStride":12,"extensions":{"EXT_meshopt_compression":{"buffer":0,"byteOffset":697632,"byteLength":15203,"mode":"ATTRIBUTES","byteStride":12,"count":2178}}},{"buffer":1,"byteOffset":1561896,"byteLength":26136,"target":34962,"byteStride":12,"extensions":{"EXT_meshopt_compression":{"buffer":0,"byteOffset":712836,"byteLength":21423,"mode":"ATTRIBUTES","byteStride":12,"count":2178}}},{"buffer":1,"byteOffset":1588032,"byteLength":17424,"target":34962,"byteStride":8,"extensions":{"EXT_meshopt_compression":{"buffer":0,"byteOffset":734260,"byteLength":6858,"mode":"ATTRIBUTES","byteStride":8,"count":2178}}},{"buffer":1,"byteOffset":1605456,"byteLength":63144,"target":34962,"byteStride":12,"extensions":{"EXT_meshopt_compression":{"buffer":0,"byteOffset":741120,"byteLength":24443,"mode":"ATTRIBUTES","byteStride":12,"count":5262}}},{"buffer":1,"byteOffset":1668600,"byteLength":63144,"target":34962,"byteStride":12,"extensions":{"EXT_meshopt_compression":{"buffer":0,"byteOffset":765564,"byteLength":41157,"mode":"ATTRIBUTES","byteStride":12,"count":5262}}},{"buffer":1,"byteOffset":1731744,"byteLength":113916,"target":34962,"byteStride":12,"extensions":{"EXT_meshopt_compression":{"buffer":0,"byteOffset":806724,"byteLength":46887,"mode":"ATTRIBUTES","byteStride":12,"count":9493}}},{"buffer":1,"byteOffset":1845660,"byteLength":113916,"target":34962,"byteStride":12,"extensions":{"EXT_meshopt_compression":{"buffer":0,"byteOffset":853612,"byteLength":77137,"mode":"ATTRIBUTES","byteStride":12,"count":9493}}},{"buffer":1,"byteOffset":1959576,"byteLength":32640,"target":34962,"byteStride":12,"extensions":{"EXT_meshopt_compression":{"buffer":0,"byteOffset":930752,"byteLength":15620,"mode":"ATTRIBUTES","byteStride":12,"count":2720}}},{"buffer":1,"byteOffset":1992216,"byteLength":32640,"target":34962,"byteStride":12,"extensions":{"EXT_meshopt_compression":{"buffer":0,"byteOffset":946372,"byteLength":29276,"mode":"ATTRIBUTES","byteStride":12,"count":2720}}}],"samplers":[{"magFilter":9729,"minFilter":9987,"wrapS":10497,"wrapT":10497},{"magFilter":9729,"minFilter":9987,"wrapS":33071,"wrapT":33071}],"textures":[{"sampler":0,"extensions":{"EXT_texture_webp":{"source":0}}},{"sampler":0,"extensions":{"EXT_texture_webp":{"source":1}}},{"sampler":0,"extensions":{"EXT_texture_webp":{"source":3}}},{"sampler":0,"extensions":{"EXT_texture_webp":{"source":2}}},{"sampler":1,"extensions":{"EXT_texture_webp":{"source":6}}},{"sampler":0,"extensions":{"EXT_texture_webp":{"source":5}}},{"sampler":0,"extensions":{"EXT_texture_webp":{"source":4}}}],"images":[{"name":"book_pattern_nor_gl_2k","mimeType":"image/webp","uri":"shared/8de172b46ec41fd3863b660a.webp"},{"name":"book_pattern_rough_2k","mimeType":"image/webp","uri":"shared/a04d51bd9431742f3e8e78f4.webp"},{"name":"compressed-paper-normal","mimeType":"image/webp","uri":"shared/339c1ac519928878fbaa1237.webp"},{"name":"compressed-paper-color","mimeType":"image/webp","uri":"shared/7701c62282fa7f26c46af450.webp"},{"name":"art-of-war_print_orm","mimeType":"image/webp","uri":"shared/06ada11c9eb652cd2a7812e8.webp"},{"name":"art-of-war_print_normal","mimeType":"image/webp","uri":"shared/5cb7bff8447deb89ae1c4097.webp"},{"name":"edition-art-of-war","mimeType":"image/webp","uri":"shared/4f42b30204f119f13aca61ee.webp"}],"buffers":[{"uri":"shared/5ed0a3caa9f19ec907d3aa38.bin","byteLength":975648},{"byteLength":2024856,"extensions":{"EXT_meshopt_compression":{"fallback":true}}}],"materials":[{"name":"art-of-war case material.002","doubleSided":true,"pbrMetallicRoughness":{"baseColorFactor":[0.7991027235984802,0.7304607629776001,0.5906188488006592,1],"metallicFactor":0,"metallicRoughnessTexture":{"index":1}},"normalTexture":{"index":0,"scale":0.05999999865889549}},{"name":"MAT_art-of-war_BackInk","doubleSided":true,"pbrMetallicRoughness":{"baseColorFactor":[0.02500000037252903,0.03200000151991844,0.027000000700354576,1],"roughnessFactor":0.7200000286102295,"metallicFactor":0}},{"name":"MAT_art-of-war_Stamped_Ink.002","doubleSided":true,"pbrMetallicRoughness":{"baseColorFactor":[0.02500000037252903,0.03200000151991844,0.027000000700354576,1],"roughnessFactor":0.3400000035762787,"metallicFactor":0},"extensions":{"KHR_materials_clearcoat":{"clearcoatFactor":0.44999998807907104,"clearcoatRoughnessFactor":0.20000000298023224}}},{"name":"MAT_art-of-war_Stamped_Ink.003","doubleSided":true,"pbrMetallicRoughness":{"baseColorFactor":[0.4019777774810791,0.01599629409611225,0.04666508734226227,1],"roughnessFactor":0.3400000035762787,"metallicFactor":0},"extensions":{"KHR_materials_clearcoat":{"clearcoatFactor":0.44999998807907104,"clearcoatRoughnessFactor":0.20000000298023224}}},{"name":"Compressed paper cut surface","doubleSided":true,"pbrMetallicRoughness":{"roughnessFactor":0.8999999761581421,"metallicFactor":0,"baseColorTexture":{"index":2}},"normalTexture":{"index":3}},{"name":"Compressed ivory stock 2","doubleSided":true,"pbrMetallicRoughness":{"baseColorFactor":[0.7279999852180481,0.7129999995231628,0.656000018119812,1],"roughnessFactor":0.8600000143051147,"metallicFactor":0}},{"name":"MAT_art-of-war_Registered_Print.001","extras":{"surface_finish":"Registered print, selective varnish"},"doubleSided":true,"pbrMetallicRoughness":{"baseColorTexture":{"index":4},"metallicRoughnessTexture":{"index":6}},"normalTexture":{"index":5},"extensions":{"KHR_materials_clearcoat":{"clearcoatFactor":1,"clearcoatRoughnessFactor":0.23999999463558197,"clearcoatTexture":{"index":6}}}},{"name":"Endband cotton ecru","doubleSided":true,"pbrMetallicRoughness":{"baseColorFactor":[0.5,0.46000000834465027,0.3499999940395355,1],"roughnessFactor":0.8799999952316284,"metallicFactor":0}},{"name":"Binding linen warm ecru","doubleSided":true,"pbrMetallicRoughness":{"baseColorFactor":[0.3799999952316284,0.3400000035762787,0.25999999046325684,1],"roughnessFactor":0.9300000071525574,"metallicFactor":0}},{"name":"art-of-war woven ribbon.002","doubleSided":true,"pbrMetallicRoughness":{"baseColorFactor":[0.4019777774810791,0.01599629409611225,0.04666508734226227,1],"metallicFactor":0,"metallicRoughnessTexture":{"index":1}},"normalTexture":{"index":0,"scale":1.149999976158142},"extensions":{"KHR_materials_sheen":{"sheenColorFactor":[1,1,1],"sheenRoughnessFactor":0.5}}}],"meshes":[{"name":"Pressed case joint Back board.027","primitives":[{"attributes":{"POSITION":0,"NORMAL":1,"TEXCOORD_0":2},"mode":4,"material":0,"indices":3}]},{"name":"Back collection.003","primitives":[{"attributes":{"POSITION":4,"NORMAL":5},"mode":4,"material":1,"indices":6}]},{"name":"Back description.003","primitives":[{"attributes":{"POSITION":7,"NORMAL":8},"mode":4,"material":1,"indices":9}]},{"name":"Back edition.003","primitives":[{"attributes":{"POSITION":10,"NORMAL":11},"mode":4,"material":2,"indices":12}]},{"name":"Back ISBN.003","primitives":[{"attributes":{"POSITION":13,"NORMAL":14},"mode":4,"material":1,"indices":15}]},{"name":"Back title.003","primitives":[{"attributes":{"POSITION":16,"NORMAL":17},"mode":4,"material":2,"indices":18}]},{"name":"Collection mark.019","primitives":[{"attributes":{"POSITION":19,"NORMAL":20},"mode":4,"material":3,"indices":21}]},{"name":"Continuous compressed cut art-of-war.003","primitives":[{"attributes":{"POSITION":22,"NORMAL":23,"TEXCOORD_0":24},"mode":4,"material":4,"indices":25},{"attributes":{"POSITION":26,"NORMAL":27},"mode":4,"material":5,"indices":28}]},{"name":"Curved foil rule.038","primitives":[{"attributes":{"POSITION":29,"NORMAL":30},"mode":4,"material":3,"indices":31}]},{"name":"Curved foil rule.039","primitives":[{"attributes":{"POSITION":32,"NORMAL":33},"mode":4,"material":3,"indices":31}]},{"name":"Pressed case joint Wrapped printed cover.002","primitives":[{"attributes":{"POSITION":34,"NORMAL":35,"TEXCOORD_0":36},"mode":4,"material":6,"indices":37},{"attributes":{"POSITION":38,"NORMAL":39,"TEXCOORD_0":40},"mode":4,"material":0,"indices":41}]},{"name":"Head textile endband art-of-war.004","primitives":[{"attributes":{"POSITION":42,"NORMAL":43},"mode":4,"material":7,"indices":44}]},{"name":"Linen spine lining art-of-war.004","primitives":[{"attributes":{"POSITION":45,"NORMAL":46},"mode":4,"material":8,"indices":47}]},{"name":"Ribbon flexible satin art-of-war.004","primitives":[{"attributes":{"POSITION":48,"NORMAL":49,"TEXCOORD_0":50},"mode":4,"material":9,"indices":51}]},{"name":"Rounded cloth spine.027","primitives":[{"attributes":{"POSITION":52,"NORMAL":53,"TEXCOORD_0":54},"mode":4,"material":0,"indices":55}]},{"name":"Spine author.019","primitives":[{"attributes":{"POSITION":56,"NORMAL":57},"mode":4,"material":3,"indices":58}]},{"name":"Spine title.027","primitives":[{"attributes":{"POSITION":59,"NORMAL":60},"mode":4,"material":3,"indices":61}]},{"name":"Tail textile endband art-of-war.004","primitives":[{"attributes":{"POSITION":62,"NORMAL":63},"mode":4,"material":7,"indices":44}]}],"nodes":[{"name":"Back board.027","extras":{"edge_refined":true,"unpressed_mesh":"Back board.035","pressed_joint_revision":1,"joint_depth_mm":1.0366440366697272,"joint_center_mm":6.3999999999999995},"translation":[0,0,-0.11649999022483826],"mesh":0},{"name":"Back collection.003","translation":[0,-0.48767995834350586,-0.12849998474121094],"rotation":[0,-0.7071068286895752,0.7071068286895752,3.090862676913275e-8],"mesh":1},{"name":"Back description.003","translation":[0,0.05079999938607216,-0.12849998474121094],"rotation":[0,-0.7071068286895752,0.7071068286895752,3.090862676913275e-8],"mesh":2},{"name":"Back edition.003","translation":[0,-0.6908799409866333,-0.12849998474121094],"rotation":[0,-0.7071068286895752,0.7071068286895752,3.090862676913275e-8],"mesh":3},{"name":"Back ISBN.003","translation":[0,-0.7924799919128418,-0.12849998474121094],"rotation":[0,-0.7071068286895752,0.7071068286895752,3.090862676913275e-8],"mesh":4},{"name":"Back title.003","translation":[0,0.5892800092697144,-0.12849998474121094],"rotation":[0,-0.7071068286895752,0.7071068286895752,3.090862676913275e-8],"mesh":5},{"name":"Collection mark.019","mesh":6},{"name":"Compressed paper signatures art-of-war.003","extras":{"paper_surface_revision":1,"leaf_count":156,"paper_caliper_mm":0.12179487179487182,"binding_structure":"Rounded and backed signatures"},"mesh":7},{"name":"Curved foil rule.038","mesh":8},{"name":"Curved foil rule.039","mesh":9},{"name":"Wrapped printed cover.002","extras":{"edge_refined":true,"unpressed_mesh":"Front board.035","pressed_joint_revision":1,"joint_depth_mm":1.1011757091455818,"joint_center_mm":6.3999999999999995},"translation":[0.6190000176429749,0,0],"mesh":10},{"name":"FrontHinge.027","translation":[-0.6190000772476196,0,0.11649999022483826],"children":[10]},{"name":"Head textile endband art-of-war.004","extras":{"binding_revision":2},"mesh":11},{"name":"Linen spine lining art-of-war.004","extras":{"binding_revision":2},"mesh":12},{"name":"Ribbon flexible satin art-of-war.004","extras":{"binding_revision":2,"ribbon_width_dm":0.043,"ribbon_length_dm":0.29,"ribbon_anchor_dm":[0,-1.008,0.006]},"mesh":13},{"name":"Rounded cloth spine.027","mesh":14},{"name":"Spine author.019","mesh":15},{"name":"Spine title.027","mesh":16},{"name":"Tail textile endband art-of-war.004","extras":{"binding_revision":2},"mesh":17},{"name":"Publisher_art-of-war.001","extras":{"slug":"art-of-war","dimensions_mm":[123.8,203.2,25.4],"model_design":"Publisher front artwork on a showcase binding; spine and interior are custom reconstructions"},"scale":[0.09668101370334625,0.09999364614486694,0.09969764202833176],"children":[0,1,2,3,4,5,6,7,8,9,11,12,13,14,15,16,17,18]}],"scenes":[{"name":"Library Publisher Editions.001","nodes":[19]}],"scene":0,"extensionsUsed":["EXT_meshopt_compression","EXT_texture_webp","KHR_materials_clearcoat","KHR_materials_sheen"],"extensionsRequired":["EXT_meshopt_compression","EXT_texture_webp"]}