{"asset":{"generator":"glTF-Transform v4.5.0","version":"2.0"},"accessors":[{"type":"VEC3","componentType":5126,"count":1316,"max":[0.8747397661209106,1.1398191452026367,0.0008528704638592899],"min":[-0.8747397661209106,-1.1398191452026367,-0.0028383478056639433],"normalized":false,"byteOffset":0,"bufferView":0},{"type":"VEC3","componentType":5126,"count":1316,"normalized":false,"byteOffset":0,"bufferView":1},{"type":"VEC2","componentType":5126,"count":1316,"normalized":false,"byteOffset":0,"bufferView":2},{"type":"VEC2","componentType":5126,"count":1316,"normalized":false,"byteOffset":0,"bufferView":3},{"type":"SCALAR","componentType":5123,"count":6648,"normalized":false,"byteOffset":0,"bufferView":4},{"type":"VEC3","componentType":5126,"count":1182,"max":[0.8747397661209106,1.1398191452026367,0.0028383478056639433],"min":[-0.8747397661209106,-1.1398191452026367,-0.00034922658232972026],"normalized":false,"byteOffset":0,"bufferView":5},{"type":"VEC3","componentType":5126,"count":1182,"normalized":false,"byteOffset":0,"bufferView":6},{"type":"VEC2","componentType":5126,"count":1182,"normalized":false,"byteOffset":0,"bufferView":7},{"type":"VEC2","componentType":5126,"count":1182,"normalized":false,"byteOffset":0,"bufferView":8},{"type":"SCALAR","componentType":5123,"count":5868,"normalized":false,"byteOffset":13296,"bufferView":4},{"type":"VEC3","componentType":5126,"count":514,"max":[0.1009504571557045,0,0.0053944955579936504],"min":[-0.09995229542255402,0,-0.005732110235840082],"normalized":false,"byteOffset":0,"bufferView":9},{"type":"VEC3","componentType":5126,"count":514,"normalized":false,"byteOffset":0,"bufferView":10},{"type":"VEC2","componentType":5126,"count":514,"normalized":false,"byteOffset":0,"bufferView":11},{"type":"SCALAR","componentType":5123,"count":1482,"normalized":false,"byteOffset":25032,"bufferView":4},{"type":"VEC3","componentType":5126,"count":8310,"max":[0.17538408935070038,0,0.07058105617761612],"min":[-0.17525547742843628,0,-0.07163350284099579],"normalized":false,"byteOffset":0,"bufferView":12},{"type":"VEC3","componentType":5126,"count":8310,"normalized":false,"byteOffset":0,"bufferView":13},{"type":"VEC2","componentType":5126,"count":8310,"normalized":false,"byteOffset":0,"bufferView":14},{"type":"SCALAR","componentType":5123,"count":24552,"normalized":false,"byteOffset":27996,"bufferView":4},{"type":"VEC3","componentType":5126,"count":424,"max":[0.08405725657939911,0,0.00647339504212141],"min":[-0.08462092280387878,0,-0.009485503658652306],"normalized":false,"byteOffset":0,"bufferView":15},{"type":"VEC3","componentType":5126,"count":424,"normalized":false,"byteOffset":0,"bufferView":16},{"type":"VEC2","componentType":5126,"count":424,"normalized":false,"byteOffset":0,"bufferView":17},{"type":"SCALAR","componentType":5123,"count":1206,"normalized":false,"byteOffset":77100,"bufferView":4},{"type":"VEC3","componentType":5126,"count":932,"max":[0.07914110273122787,0,0.005671926308423281],"min":[-0.0783858671784401,0,-0.0060187154449522495],"normalized":false,"byteOffset":0,"bufferView":18},{"type":"VEC3","componentType":5126,"count":932,"normalized":false,"byteOffset":0,"bufferView":19},{"type":"VEC2","componentType":5126,"count":932,"normalized":false,"byteOffset":0,"bufferView":20},{"type":"SCALAR","componentType":5123,"count":2748,"normalized":false,"byteOffset":79512,"bufferView":4},{"type":"VEC3","componentType":5126,"count":1754,"max":[0.1908247470855713,0,0.015098337084054947],"min":[-0.18973402678966522,0,-0.016835398972034454],"normalized":false,"byteOffset":0,"bufferView":21},{"type":"VEC3","componentType":5126,"count":1754,"normalized":false,"byteOffset":0,"bufferView":22},{"type":"VEC2","componentType":5126,"count":1754,"normalized":false,"byteOffset":0,"bufferView":23},{"type":"SCALAR","componentType":5123,"count":5208,"normalized":false,"byteOffset":85008,"bufferView":4},{"type":"VEC3","componentType":5126,"count":8772,"max":[0.8479999899864197,1.112099289894104,0.15279999375343323],"min":[-0.8650000095367432,-1.1120827198028564,-0.15279999375343323],"normalized":false,"byteOffset":0,"bufferView":24},{"type":"VEC3","componentType":5126,"count":8772,"normalized":false,"byteOffset":0,"bufferView":25},{"type":"VEC2","componentType":5126,"count":8772,"normalized":false,"byteOffset":0,"bufferView":26},{"type":"SCALAR","componentType":5123,"count":49152,"normalized":false,"byteOffset":95424,"bufferView":4},{"type":"VEC3","componentType":5126,"count":8,"max":[0.8479999899864197,1.1119999885559082,0.15279999375343323],"min":[-0.8650000095367432,-1.1119999885559082,-0.15279999375343323],"normalized":false,"byteOffset":0,"bufferView":27},{"type":"VEC3","componentType":5126,"count":8,"normalized":false,"byteOffset":0,"bufferView":28},{"type":"VEC2","componentType":5126,"count":8,"normalized":false,"byteOffset":0,"bufferView":29},{"type":"SCALAR","componentType":5123,"count":12,"normalized":false,"byteOffset":193728,"bufferView":4},{"type":"VEC3","componentType":5126,"count":1089,"max":[-0.8750799894332886,1.1399999856948853,0.1574999988079071],"min":[-0.8810799717903137,-1.1399999856948853,-0.1574999988079071],"normalized":false,"byteOffset":0,"bufferView":30},{"type":"VEC3","componentType":5126,"count":1089,"normalized":false,"byteOffset":0,"bufferView":31},{"type":"VEC2","componentType":5126,"count":1089,"normalized":false,"byteOffset":0,"bufferView":32},{"type":"VEC2","componentType":5126,"count":1089,"normalized":false,"byteOffset":0,"bufferView":33},{"type":"SCALAR","componentType":5123,"count":6144,"normalized":false,"byteOffset":193752,"bufferView":4},{"type":"VEC3","componentType":5126,"count":1316,"max":[0.8747397661209106,1.1398191452026367,0.003957271110266447],"min":[-0.8747397661209106,-1.1398191452026367,-0.0015157921006903052],"normalized":false,"byteOffset":0,"bufferView":34},{"type":"VEC3","componentType":5126,"count":1316,"normalized":false,"byteOffset":0,"bufferView":35},{"type":"VEC2","componentType":5126,"count":1316,"normalized":false,"byteOffset":0,"bufferView":36},{"type":"VEC2","componentType":5126,"count":1316,"normalized":false,"byteOffset":0,"bufferView":37},{"type":"VEC2","componentType":5126,"count":1316,"normalized":false,"byteOffset":0,"bufferView":38},{"type":"VEC2","componentType":5126,"count":1316,"normalized":false,"byteOffset":0,"bufferView":39},{"type":"SCALAR","componentType":5123,"count":6648,"normalized":false,"byteOffset":206040,"bufferView":4},{"type":"VEC3","componentType":5126,"count":1182,"max":[0.8747397661209106,1.1398191452026367,0.0015143748605623841],"min":[-0.8747397661209106,-1.1398191452026367,-0.003960123285651207],"normalized":false,"byteOffset":0,"bufferView":40},{"type":"VEC3","componentType":5126,"count":1182,"normalized":false,"byteOffset":0,"bufferView":41},{"type":"VEC2","componentType":5126,"count":1182,"normalized":false,"byteOffset":0,"bufferView":42},{"type":"VEC2","componentType":5126,"count":1182,"normalized":false,"byteOffset":0,"bufferView":43},{"type":"VEC2","componentType":5126,"count":1182,"normalized":false,"byteOffset":0,"bufferView":44},{"type":"VEC2","componentType":5126,"count":1182,"normalized":false,"byteOffset":0,"bufferView":45},{"type":"SCALAR","componentType":5123,"count":5868,"normalized":false,"byteOffset":219336,"bufferView":4},{"type":"VEC3","componentType":5126,"count":2178,"max":[-0.8670142292976379,1.1399999856948853,0.1574999988079071],"min":[-0.8809999823570251,-1.1399999856948853,-0.1574999988079071],"normalized":false,"byteOffset":0,"bufferView":46},{"type":"VEC3","componentType":5126,"count":2178,"normalized":false,"byteOffset":0,"bufferView":47},{"type":"VEC2","componentType":5126,"count":2178,"normalized":false,"byteOffset":0,"bufferView":48},{"type":"SCALAR","componentType":5123,"count":13056,"normalized":false,"byteOffset":231072,"bufferView":4},{"type":"VEC3","componentType":5126,"count":1066,"max":[1.6749999523162842,1.1080000400543213,0.001769999973475933],"min":[-0.000018384953364147805,-1.1080000400543213,0],"normalized":false,"byteOffset":0,"bufferView":49},{"type":"VEC3","componentType":5126,"count":1066,"normalized":false,"byteOffset":0,"bufferView":50},{"type":"VEC2","componentType":5126,"count":1066,"normalized":false,"byteOffset":0,"bufferView":51},{"type":"SCALAR","componentType":5123,"count":6384,"normalized":false,"byteOffset":257184,"bufferView":4},{"type":"VEC3","componentType":5126,"count":10446,"max":[1.0151498317718506,-0.10070888698101044,0.0007699999841861427],"min":[0.6732009649276733,-0.13247358798980713,0.0007699999841861427],"normalized":false,"byteOffset":0,"bufferView":52},{"type":"VEC3","componentType":5126,"count":10446,"normalized":false,"byteOffset":0,"bufferView":53},{"type":"VEC2","componentType":5126,"count":10446,"normalized":false,"byteOffset":0,"bufferView":54},{"type":"SCALAR","componentType":5123,"count":30972,"normalized":false,"byteOffset":269952,"bufferView":4},{"type":"VEC3","componentType":5126,"count":9386,"max":[0.9742783308029175,-0.8137341737747192,0.0007699999841861427],"min":[0.7137024998664856,-0.8279613256454468,0.0007699999841861427],"normalized":false,"byteOffset":0,"bufferView":55},{"type":"VEC3","componentType":5126,"count":9386,"normalized":false,"byteOffset":0,"bufferView":56},{"type":"VEC2","componentType":5126,"count":9386,"normalized":false,"byteOffset":0,"bufferView":57},{"type":"SCALAR","componentType":5123,"count":27840,"normalized":false,"byteOffset":331896,"bufferView":4},{"type":"VEC3","componentType":5126,"count":9250,"max":[1.195519208908081,0.4642125368118286,0.0007699999841861427],"min":[0.49448996782302856,0.4053872525691986,0.0007699999841861427],"normalized":false,"byteOffset":0,"bufferView":58},{"type":"VEC3","componentType":5126,"count":9250,"normalized":false,"byteOffset":0,"bufferView":59},{"type":"VEC2","componentType":5126,"count":9250,"normalized":false,"byteOffset":0,"bufferView":60},{"type":"SCALAR","componentType":5123,"count":27468,"normalized":false,"byteOffset":387576,"bufferView":4}],"bufferViews":[{"buffer":1,"byteOffset":0,"byteLength":15792,"target":34962,"byteStride":12,"extensions":{"EXT_meshopt_compression":{"buffer":0,"byteOffset":0,"byteLength":10161,"mode":"ATTRIBUTES","byteStride":12,"count":1316}}},{"buffer":1,"byteOffset":15792,"byteLength":15792,"target":34962,"byteStride":12,"extensions":{"EXT_meshopt_compression":{"buffer":0,"byteOffset":10164,"byteLength":12405,"mode":"ATTRIBUTES","byteStride":12,"count":1316}}},{"buffer":1,"byteOffset":31584,"byteLength":10528,"target":34962,"byteStride":8,"extensions":{"EXT_meshopt_compression":{"buffer":0,"byteOffset":22572,"byteLength":7347,"mode":"ATTRIBUTES","byteStride":8,"count":1316}}},{"buffer":1,"byteOffset":42112,"byteLength":10528,"target":34962,"byteStride":8,"extensions":{"EXT_meshopt_compression":{"buffer":0,"byteOffset":29920,"byteLength":6080,"mode":"ATTRIBUTES","byteStride":8,"count":1316}}},{"buffer":1,"byteOffset":52640,"byteLength":442512,"target":34963,"extensions":{"EXT_meshopt_compression":{"buffer":0,"byteOffset":36000,"byteLength":177602,"mode":"TRIANGLES","byteStride":2,"count":221256}}},{"buffer":1,"byteOffset":495152,"byteLength":14184,"target":34962,"byteStride":12,"extensions":{"EXT_meshopt_compression":{"buffer":0,"byteOffset":213604,"byteLength":8965,"mode":"ATTRIBUTES","byteStride":12,"count":1182}}},{"buffer":1,"byteOffset":509336,"byteLength":14184,"target":34962,"byteStride":12,"extensions":{"EXT_meshopt_compression":{"buffer":0,"byteOffset":222572,"byteLength":10775,"mode":"ATTRIBUTES","byteStride":12,"count":1182}}},{"buffer":1,"byteOffset":523520,"byteLength":9456,"target":34962,"byteStride":8,"extensions":{"EXT_meshopt_compression":{"buffer":0,"byteOffset":233348,"byteLength":6787,"mode":"ATTRIBUTES","byteStride":8,"count":1182}}},{"buffer":1,"byteOffset":532976,"byteLength":9456,"target":34962,"byteStride":8,"extensions":{"EXT_meshopt_compression":{"buffer":0,"byteOffset":240136,"byteLength":5482,"mode":"ATTRIBUTES","byteStride":8,"count":1182}}},{"buffer":1,"byteOffset":542432,"byteLength":6168,"target":34962,"byteStride":12,"extensions":{"EXT_meshopt_compression":{"buffer":0,"byteOffset":245620,"byteLength":3261,"mode":"ATTRIBUTES","byteStride":12,"count":514}}},{"buffer":1,"byteOffset":548600,"byteLength":6168,"target":34962,"byteStride":12,"extensions":{"EXT_meshopt_compression":{"buffer":0,"byteOffset":248884,"byteLength":141,"mode":"ATTRIBUTES","byteStride":12,"count":514}}},{"buffer":1,"byteOffset":554768,"byteLength":4112,"target":34962,"byteStride":8,"extensions":{"EXT_meshopt_compression":{"buffer":0,"byteOffset":249028,"byteLength":1619,"mode":"ATTRIBUTES","byteStride":8,"count":514}}},{"buffer":1,"byteOffset":558880,"byteLength":99720,"target":34962,"byteStride":12,"extensions":{"EXT_meshopt_compression":{"buffer":0,"byteOffset":250648,"byteLength":43317,"mode":"ATTRIBUTES","byteStride":12,"count":8310}}},{"buffer":1,"byteOffset":658600,"byteLength":99720,"target":34962,"byteStride":12,"extensions":{"EXT_meshopt_compression":{"buffer":0,"byteOffset":293968,"byteLength":1593,"mode":"ATTRIBUTES","byteStride":12,"count":8310}}},{"buffer":1,"byteOffset":758320,"byteLength":66480,"target":34962,"byteStride":8,"extensions":{"EXT_meshopt_compression":{"buffer":0,"byteOffset":295564,"byteLength":24173,"mode":"ATTRIBUTES","byteStride":8,"count":8310}}},{"buffer":1,"byteOffset":824800,"byteLength":5088,"target":34962,"byteStride":12,"extensions":{"EXT_meshopt_compression":{"buffer":0,"byteOffset":319740,"byteLength":2662,"mode":"ATTRIBUTES","byteStride":12,"count":424}}},{"buffer":1,"byteOffset":829888,"byteLength":5088,"target":34962,"byteStride":12,"extensions":{"EXT_meshopt_compression":{"buffer":0,"byteOffset":322404,"byteLength":117,"mode":"ATTRIBUTES","byteStride":12,"count":424}}},{"buffer":1,"byteOffset":834976,"byteLength":3392,"target":34962,"byteStride":8,"extensions":{"EXT_meshopt_compression":{"buffer":0,"byteOffset":322524,"byteLength":1342,"mode":"ATTRIBUTES","byteStride":8,"count":424}}},{"buffer":1,"byteOffset":838368,"byteLength":11184,"target":34962,"byteStride":12,"extensions":{"EXT_meshopt_compression":{"buffer":0,"byteOffset":323868,"byteLength":5841,"mode":"ATTRIBUTES","byteStride":12,"count":932}}},{"buffer":1,"byteOffset":849552,"byteLength":11184,"target":34962,"byteStride":12,"extensions":{"EXT_meshopt_compression":{"buffer":0,"byteOffset":329712,"byteLength":213,"mode":"ATTRIBUTES","byteStride":12,"count":932}}},{"buffer":1,"byteOffset":860736,"byteLength":7456,"target":34962,"byteStride":8,"extensions":{"EXT_meshopt_compression":{"buffer":0,"byteOffset":329928,"byteLength":2828,"mode":"ATTRIBUTES","byteStride":8,"count":932}}},{"buffer":1,"byteOffset":868192,"byteLength":21048,"target":34962,"byteStride":12,"extensions":{"EXT_meshopt_compression":{"buffer":0,"byteOffset":332756,"byteLength":10410,"mode":"ATTRIBUTES","byteStride":12,"count":1754}}},{"buffer":1,"byteOffset":889240,"byteLength":21048,"target":34962,"byteStride":12,"extensions":{"EXT_meshopt_compression":{"buffer":0,"byteOffset":343168,"byteLength":369,"mode":"ATTRIBUTES","byteStride":12,"count":1754}}},{"buffer":1,"byteOffset":910288,"byteLength":14032,"target":34962,"byteStride":8,"extensions":{"EXT_meshopt_compression":{"buffer":0,"byteOffset":343540,"byteLength":5131,"mode":"ATTRIBUTES","byteStride":8,"count":1754}}},{"buffer":1,"byteOffset":924320,"byteLength":105264,"target":34962,"byteStride":12,"extensions":{"EXT_meshopt_compression":{"buffer":0,"byteOffset":348672,"byteLength":41882,"mode":"ATTRIBUTES","byteStride":12,"count":8772}}},{"buffer":1,"byteOffset":1029584,"byteLength":105264,"target":34962,"byteStride":12,"extensions":{"EXT_meshopt_compression":{"buffer":0,"byteOffset":390556,"byteLength":10318,"mode":"ATTRIBUTES","byteStride":12,"count":8772}}},{"buffer":1,"byteOffset":1134848,"byteLength":70176,"target":34962,"byteStride":8,"extensions":{"EXT_meshopt_compression":{"buffer":0,"byteOffset":400876,"byteLength":35705,"mode":"ATTRIBUTES","byteStride":8,"count":8772}}},{"buffer":1,"byteOffset":1205024,"byteLength":96,"target":34962,"byteStride":12,"extensions":{"EXT_meshopt_compression":{"buffer":0,"byteOffset":436584,"byteLength":89,"mode":"ATTRIBUTES","byteStride":12,"count":8}}},{"buffer":1,"byteOffset":1205120,"byteLength":96,"target":34962,"byteStride":12,"extensions":{"EXT_meshopt_compression":{"buffer":0,"byteOffset":436676,"byteLength":50,"mode":"ATTRIBUTES","byteStride":12,"count":8}}},{"buffer":1,"byteOffset":1205216,"byteLength":64,"target":34962,"byteStride":8,"extensions":{"EXT_meshopt_compression":{"buffer":0,"byteOffset":436728,"byteLength":71,"mode":"ATTRIBUTES","byteStride":8,"count":8}}},{"buffer":1,"byteOffset":1205280,"byteLength":13068,"target":34962,"byteStride":12,"extensions":{"EXT_meshopt_compression":{"buffer":0,"byteOffset":436800,"byteLength":6834,"mode":"ATTRIBUTES","byteStride":12,"count":1089}}},{"buffer":1,"byteOffset":1218348,"byteLength":13068,"target":34962,"byteStride":12,"extensions":{"EXT_meshopt_compression":{"buffer":0,"byteOffset":443636,"byteLength":6207,"mode":"ATTRIBUTES","byteStride":12,"count":1089}}},{"buffer":1,"byteOffset":1231416,"byteLength":8712,"target":34962,"byteStride":8,"extensions":{"EXT_meshopt_compression":{"buffer":0,"byteOffset":449844,"byteLength":5024,"mode":"ATTRIBUTES","byteStride":8,"count":1089}}},{"buffer":1,"byteOffset":1240128,"byteLength":8712,"target":34962,"byteStride":8,"extensions":{"EXT_meshopt_compression":{"buffer":0,"byteOffset":454868,"byteLength":3428,"mode":"ATTRIBUTES","byteStride":8,"count":1089}}},{"buffer":1,"byteOffset":1248840,"byteLength":15792,"target":34962,"byteStride":12,"extensions":{"EXT_meshopt_compression":{"buffer":0,"byteOffset":458296,"byteLength":10156,"mode":"ATTRIBUTES","byteStride":12,"count":1316}}},{"buffer":1,"byteOffset":1264632,"byteLength":15792,"target":34962,"byteStride":12,"extensions":{"EXT_meshopt_compression":{"buffer":0,"byteOffset":468452,"byteLength":12470,"mode":"ATTRIBUTES","byteStride":12,"count":1316}}},{"buffer":1,"byteOffset":1280424,"byteLength":10528,"target":34962,"byteStride":8,"extensions":{"EXT_meshopt_compression":{"buffer":0,"byteOffset":480924,"byteLength":7486,"mode":"ATTRIBUTES","byteStride":8,"count":1316}}},{"buffer":1,"byteOffset":1290952,"byteLength":10528,"target":34962,"byteStride":8,"extensions":{"EXT_meshopt_compression":{"buffer":0,"byteOffset":488412,"byteLength":7238,"mode":"ATTRIBUTES","byteStride":8,"count":1316}}},{"buffer":1,"byteOffset":1301480,"byteLength":10528,"target":34962,"byteStride":8,"extensions":{"EXT_meshopt_compression":{"buffer":0,"byteOffset":495652,"byteLength":6779,"mode":"ATTRIBUTES","byteStride":8,"count":1316}}},{"buffer":1,"byteOffset":1312008,"byteLength":10528,"target":34962,"byteStride":8,"extensions":{"EXT_meshopt_compression":{"buffer":0,"byteOffset":502432,"byteLength":6019,"mode":"ATTRIBUTES","byteStride":8,"count":1316}}},{"buffer":1,"byteOffset":1322536,"byteLength":14184,"target":34962,"byteStride":12,"extensions":{"EXT_meshopt_compression":{"buffer":0,"byteOffset":508452,"byteLength":9208,"mode":"ATTRIBUTES","byteStride":12,"count":1182}}},{"buffer":1,"byteOffset":1336720,"byteLength":14184,"target":34962,"byteStride":12,"extensions":{"EXT_meshopt_compression":{"buffer":0,"byteOffset":517660,"byteLength":10723,"mode":"ATTRIBUTES","byteStride":12,"count":1182}}},{"buffer":1,"byteOffset":1350904,"byteLength":9456,"target":34962,"byteStride":8,"extensions":{"EXT_meshopt_compression":{"buffer":0,"byteOffset":528384,"byteLength":6648,"mode":"ATTRIBUTES","byteStride":8,"count":1182}}},{"buffer":1,"byteOffset":1360360,"byteLength":9456,"target":34962,"byteStride":8,"extensions":{"EXT_meshopt_compression":{"buffer":0,"byteOffset":535032,"byteLength":6530,"mode":"ATTRIBUTES","byteStride":8,"count":1182}}},{"buffer":1,"byteOffset":1369816,"byteLength":9456,"target":34962,"byteStride":8,"extensions":{"EXT_meshopt_compression":{"buffer":0,"byteOffset":541564,"byteLength":6167,"mode":"ATTRIBUTES","byteStride":8,"count":1182}}},{"buffer":1,"byteOffset":1379272,"byteLength":9456,"target":34962,"byteStride":8,"extensions":{"EXT_meshopt_compression":{"buffer":0,"byteOffset":547732,"byteLength":5499,"mode":"ATTRIBUTES","byteStride":8,"count":1182}}},{"buffer":1,"byteOffset":1388728,"byteLength":26136,"target":34962,"byteStride":12,"extensions":{"EXT_meshopt_compression":{"buffer":0,"byteOffset":553232,"byteLength":13614,"mode":"ATTRIBUTES","byteStride":12,"count":2178}}},{"buffer":1,"byteOffset":1414864,"byteLength":26136,"target":34962,"byteStride":12,"extensions":{"EXT_meshopt_compression":{"buffer":0,"byteOffset":566848,"byteLength":13208,"mode":"ATTRIBUTES","byteStride":12,"count":2178}}},{"buffer":1,"byteOffset":1441000,"byteLength":17424,"target":34962,"byteStride":8,"extensions":{"EXT_meshopt_compression":{"buffer":0,"byteOffset":580056,"byteLength":7196,"mode":"ATTRIBUTES","byteStride":8,"count":2178}}},{"buffer":1,"byteOffset":1458424,"byteLength":12792,"target":34962,"byteStride":12,"extensions":{"EXT_meshopt_compression":{"buffer":0,"byteOffset":587252,"byteLength":4530,"mode":"ATTRIBUTES","byteStride":12,"count":1066}}},{"buffer":1,"byteOffset":1471216,"byteLength":12792,"target":34962,"byteStride":12,"extensions":{"EXT_meshopt_compression":{"buffer":0,"byteOffset":591784,"byteLength":1958,"mode":"ATTRIBUTES","byteStride":12,"count":1066}}},{"buffer":1,"byteOffset":1484008,"byteLength":8528,"target":34962,"byteStride":8,"extensions":{"EXT_meshopt_compression":{"buffer":0,"byteOffset":593744,"byteLength":3917,"mode":"ATTRIBUTES","byteStride":8,"count":1066}}},{"buffer":1,"byteOffset":1492536,"byteLength":125352,"target":34962,"byteStride":12,"extensions":{"EXT_meshopt_compression":{"buffer":0,"byteOffset":597664,"byteLength":43803,"mode":"ATTRIBUTES","byteStride":12,"count":10446}}},{"buffer":1,"byteOffset":1617888,"byteLength":125352,"target":34962,"byteStride":12,"extensions":{"EXT_meshopt_compression":{"buffer":0,"byteOffset":641468,"byteLength":8481,"mode":"ATTRIBUTES","byteStride":12,"count":10446}}},{"buffer":1,"byteOffset":1743240,"byteLength":83568,"target":34962,"byteStride":8,"extensions":{"EXT_meshopt_compression":{"buffer":0,"byteOffset":649952,"byteLength":37215,"mode":"ATTRIBUTES","byteStride":8,"count":10446}}},{"buffer":1,"byteOffset":1826808,"byteLength":112632,"target":34962,"byteStride":12,"extensions":{"EXT_meshopt_compression":{"buffer":0,"byteOffset":687168,"byteLength":35969,"mode":"ATTRIBUTES","byteStride":12,"count":9386}}},{"buffer":1,"byteOffset":1939440,"byteLength":112632,"target":34962,"byteStride":12,"extensions":{"EXT_meshopt_compression":{"buffer":0,"byteOffset":723140,"byteLength":2802,"mode":"ATTRIBUTES","byteStride":12,"count":9386}}},{"buffer":1,"byteOffset":2052072,"byteLength":75088,"target":34962,"byteStride":8,"extensions":{"EXT_meshopt_compression":{"buffer":0,"byteOffset":725944,"byteLength":32931,"mode":"ATTRIBUTES","byteStride":8,"count":9386}}},{"buffer":1,"byteOffset":2127160,"byteLength":111000,"target":34962,"byteStride":12,"extensions":{"EXT_meshopt_compression":{"buffer":0,"byteOffset":758876,"byteLength":38529,"mode":"ATTRIBUTES","byteStride":12,"count":9250}}},{"buffer":1,"byteOffset":2238160,"byteLength":111000,"target":34962,"byteStride":12,"extensions":{"EXT_meshopt_compression":{"buffer":0,"byteOffset":797408,"byteLength":7016,"mode":"ATTRIBUTES","byteStride":12,"count":9250}}},{"buffer":1,"byteOffset":2349160,"byteLength":74000,"target":34962,"byteStride":8,"extensions":{"EXT_meshopt_compression":{"buffer":0,"byteOffset":804424,"byteLength":32997,"mode":"ATTRIBUTES","byteStride":8,"count":9250}}}],"samplers":[{"magFilter":9729,"minFilter":9987,"wrapS":10497,"wrapT":10497},{"magFilter":9729,"minFilter":9987,"wrapS":33071,"wrapT":33071}],"textures":[{"sampler":0,"extensions":{"EXT_texture_webp":{"source":1}}},{"sampler":0,"extensions":{"EXT_texture_webp":{"source":0}}},{"sampler":0,"extensions":{"EXT_texture_webp":{"source":2}}},{"sampler":0,"extensions":{"EXT_texture_webp":{"source":4}}},{"sampler":0,"extensions":{"EXT_texture_webp":{"source":3}}},{"source":5,"sampler":0},{"sampler":1,"extensions":{"EXT_texture_webp":{"source":8}}},{"sampler":0,"extensions":{"EXT_texture_webp":{"source":7}}},{"sampler":0,"extensions":{"EXT_texture_webp":{"source":6}}}],"images":[{"name":"Paper001_2K-JPG_NormalGL","mimeType":"image/webp","uri":"shared/a4ffc7b7fc49def2917e39f5.webp"},{"name":"Paper001_2K-JPG_Color","mimeType":"image/webp","uri":"shared/75262c983a496cb7fcdc6c19.webp"},{"name":"Paper001_2K-JPG_Roughness","mimeType":"image/webp","uri":"shared/49f61cb86539e805ce6a1ee3.webp"},{"name":"compressed-paper-normal","mimeType":"image/webp","uri":"shared/339c1ac519928878fbaa1237.webp"},{"name":"compressed-paper-color","mimeType":"image/webp","uri":"shared/7701c62282fa7f26c46af450.webp"},{"name":"cien-vintage-spine","mimeType":"image/jpeg","uri":"shared/d944d030f1e033cf8dc3d107.jpg"},{"name":"cien-anos-de-soledad_print_orm","mimeType":"image/webp","uri":"shared/4be515e51f8a678acf7951be.webp"},{"name":"cien-anos-de-soledad_print_normal","mimeType":"image/webp","uri":"shared/e76c748fd234d66ba02d73ea.webp"},{"name":"edition-cien-anos-de-soledad","mimeType":"image/webp","uri":"shared/ab58152d4f356fdbb97d8744.webp"}],"buffers":[{"uri":"shared/f55b892062a6d07348a7700c.bin","byteLength":837424},{"byteLength":2423160,"extensions":{"EXT_meshopt_compression":{"fallback":true}}}],"materials":[{"name":"cien-anos-de-soledad case material.002","doubleSided":true,"pbrMetallicRoughness":{"baseColorFactor":[0.008568125776946545,0.07036009430885315,0.05951123684644699,1],"roughnessFactor":0.7400000095367432,"metallicFactor":0},"extensions":{"KHR_materials_clearcoat":{"clearcoatFactor":0.014999999664723873,"clearcoatRoughnessFactor":0.36000001430511475}}},{"name":"MAT_Uncoated_Paper_Fibre.003","doubleSided":true,"pbrMetallicRoughness":{"metallicFactor":0,"baseColorTexture":{"index":0,"texCoord":1},"metallicRoughnessTexture":{"index":2,"texCoord":1}},"normalTexture":{"index":1,"texCoord":1,"scale":0.07000000029802322}},{"name":"MAT_cien-anos-de-soledad_BackInk.002","doubleSided":true,"pbrMetallicRoughness":{"baseColorFactor":[0.9130986332893372,0.7304607629776001,0.520995557308197,1],"roughnessFactor":0.4000000059604645,"metallicFactor":0},"extensions":{"KHR_materials_clearcoat":{"clearcoatFactor":0.07000000029802322,"clearcoatRoughnessFactor":0}}},{"name":"MAT_cien-anos-de-soledad_Stamped_Ink.005","doubleSided":true,"pbrMetallicRoughness":{"baseColorFactor":[0.9130986332893372,0.7304607629776001,0.520995557308197,1],"roughnessFactor":0.4000000059604645,"metallicFactor":0},"extensions":{"KHR_materials_clearcoat":{"clearcoatFactor":0.07000000029802322,"clearcoatRoughnessFactor":0.20000000298023224}}},{"name":"Compressed paper cut surface.003","doubleSided":true,"pbrMetallicRoughness":{"roughnessFactor":0.8999999761581421,"metallicFactor":0,"baseColorTexture":{"index":3}},"normalTexture":{"index":4}},{"name":"Compressed ivory stock 2.003","doubleSided":true,"pbrMetallicRoughness":{"baseColorFactor":[0.7279999852180481,0.7129999995231628,0.656000018119812,1],"roughnessFactor":0.8600000143051147,"metallicFactor":0}},{"name":"cien-anos-de-soledad photographed spine.001","doubleSided":true,"pbrMetallicRoughness":{"roughnessFactor":0.7400000095367432,"metallicFactor":0,"baseColorTexture":{"index":5}},"extensions":{"KHR_materials_clearcoat":{"clearcoatFactor":0.014999999664723873,"clearcoatRoughnessFactor":0.36000001430511475}}},{"name":"MAT_cien-anos-de-soledad_Registered_Print.002","extras":{"surface_finish":"Registered print, selective varnish"},"doubleSided":true,"pbrMetallicRoughness":{"baseColorTexture":{"index":6,"texCoord":1},"metallicRoughnessTexture":{"index":8,"texCoord":1}},"normalTexture":{"index":7,"texCoord":1},"extensions":{"KHR_materials_clearcoat":{"clearcoatFactor":1,"clearcoatRoughnessFactor":0.23999999463558197,"clearcoatTexture":{"index":8,"texCoord":1}}}},{"name":"MAT_Uncoated_Paper_Fibre.003","doubleSided":true,"pbrMetallicRoughness":{"metallicFactor":0,"baseColorTexture":{"index":0,"texCoord":3},"metallicRoughnessTexture":{"index":2,"texCoord":3}},"normalTexture":{"index":1,"texCoord":3,"scale":0.07000000029802322}},{"name":"MAT_Uncoated_Paper_Fibre.003","doubleSided":true,"pbrMetallicRoughness":{"metallicFactor":0,"baseColorTexture":{"index":0},"metallicRoughnessTexture":{"index":2}},"normalTexture":{"index":1,"scale":0.07000000029802322}},{"name":"cien-anos-de-soledad printed ink.002","doubleSided":true,"pbrMetallicRoughness":{"baseColorFactor":[0.040915198624134064,0.03310476616024971,0.019382361322641373,1],"roughnessFactor":0.8999999761581421,"metallicFactor":0}}],"meshes":[{"name":"Pressed case joint Back board.049","primitives":[{"attributes":{"POSITION":0,"NORMAL":1,"TEXCOORD_0":2,"TEXCOORD_1":3},"mode":4,"material":0,"indices":4},{"attributes":{"POSITION":5,"NORMAL":6,"TEXCOORD_0":7,"TEXCOORD_1":8},"mode":4,"material":1,"indices":9}]},{"name":"Back collection.049","primitives":[{"attributes":{"POSITION":10,"NORMAL":11,"TEXCOORD_0":12},"mode":4,"material":2,"indices":13}]},{"name":"Back description.049","primitives":[{"attributes":{"POSITION":14,"NORMAL":15,"TEXCOORD_0":16},"mode":4,"material":2,"indices":17}]},{"name":"Back edition.049","primitives":[{"attributes":{"POSITION":18,"NORMAL":19,"TEXCOORD_0":20},"mode":4,"material":3,"indices":21}]},{"name":"Back ISBN.049","primitives":[{"attributes":{"POSITION":22,"NORMAL":23,"TEXCOORD_0":24},"mode":4,"material":2,"indices":25}]},{"name":"Back title.049","primitives":[{"attributes":{"POSITION":26,"NORMAL":27,"TEXCOORD_0":28},"mode":4,"material":3,"indices":29}]},{"name":"Continuous compressed cut cien-anos-de-soledad.003","primitives":[{"attributes":{"POSITION":30,"NORMAL":31,"TEXCOORD_0":32},"mode":4,"material":4,"indices":33},{"attributes":{"POSITION":34,"NORMAL":35,"TEXCOORD_0":36},"mode":4,"material":5,"indices":37}]},{"name":"Edition spine print.005","primitives":[{"attributes":{"POSITION":38,"NORMAL":39,"TEXCOORD_0":40,"TEXCOORD_1":41},"mode":4,"material":6,"indices":42}]},{"name":"Pressed case joint Wrapped printed cover.048","primitives":[{"attributes":{"POSITION":43,"NORMAL":44,"TEXCOORD_0":45,"TEXCOORD_1":46,"TEXCOORD_2":47,"TEXCOORD_3":48},"mode":4,"material":7,"indices":49},{"attributes":{"POSITION":50,"NORMAL":51,"TEXCOORD_0":52,"TEXCOORD_1":53,"TEXCOORD_2":54,"TEXCOORD_3":55},"mode":4,"material":8,"indices":56}]},{"name":"Rounded cloth spine.073","primitives":[{"attributes":{"POSITION":57,"NORMAL":58,"TEXCOORD_0":59},"mode":4,"material":0,"indices":60}]},{"name":"Flexible paper.049","primitives":[{"attributes":{"POSITION":61,"NORMAL":62,"TEXCOORD_0":63},"mode":4,"material":9,"indices":64}]},{"name":"Interior author.073","primitives":[{"attributes":{"POSITION":65,"NORMAL":66,"TEXCOORD_0":67},"mode":4,"material":10,"indices":68}]},{"name":"Interior imprint.073","primitives":[{"attributes":{"POSITION":69,"NORMAL":70,"TEXCOORD_0":71},"mode":4,"material":10,"indices":72}]},{"name":"Interior title.073","primitives":[{"attributes":{"POSITION":73,"NORMAL":74,"TEXCOORD_0":75},"mode":4,"material":10,"indices":76}]}],"nodes":[{"name":"Back board.073","extras":{"edge_refined":true,"unpressed_mesh":"Back board.016","pressed_joint_revision":1,"joint_depth_mm":0.12000000000000002,"joint_center_mm":4.8},"translation":[0,0,-0.1574999988079071],"mesh":0},{"name":"Back collection.049","translation":[0,-0.5472000241279602,-0.1615000069141388],"rotation":[0,-0.7071068286895752,0.7071068286895752,3.090862321641907e-8],"mesh":1},{"name":"Back description.049","translation":[0,0.05700000002980232,-0.1615000069141388],"rotation":[0,-0.7071068286895752,0.7071068286895752,3.090862321641907e-8],"mesh":2},{"name":"Back edition.049","translation":[0,-0.7752000689506531,-0.1615000069141388],"rotation":[0,-0.7071068286895752,0.7071068286895752,3.090862321641907e-8],"mesh":3},{"name":"Back ISBN.049","translation":[0,-0.88919997215271,-0.1615000069141388],"rotation":[0,-0.7071068286895752,0.7071068286895752,3.090862321641907e-8],"mesh":4},{"name":"Back title.049","translation":[0,0.6611999869346619,-0.1615000069141388],"rotation":[0,-0.7071068286895752,0.7071068286895752,3.090862321641907e-8],"mesh":5},{"name":"Compressed paper signatures cien-anos-de-soledad.003","extras":{"paper_surface_revision":1,"leaf_count":200,"paper_caliper_mm":0.1528,"binding_structure":"Glued square back"},"mesh":6},{"name":"Edition spine print.005","extras":{"spine_art_source":"assets/images/book-covers/library-expansion-20260908/production/cien-vintage-spine.jpg"},"mesh":7},{"name":"Wrapped printed cover.048","extras":{"edge_refined":true,"unpressed_mesh":"Front board.016","pressed_joint_revision":1,"joint_depth_mm":0.12000000000000002,"joint_center_mm":4.8},"translation":[0.875,0,0],"mesh":8},{"name":"FrontHinge.073","translation":[-0.875,0,0.1574999988079071],"children":[8]},{"name":"Rounded cloth spine.073","mesh":9},{"name":"Curved title leaf.049","mesh":10},{"name":"Interior author.073","mesh":11},{"name":"Interior imprint.073","mesh":12},{"name":"Interior title.073","mesh":13},{"name":"TurningLeaf.049","translation":[-0.8300000429153442,0,0.15330000221729279],"children":[11,12,13,14]},{"name":"Publisher_cien-anos-de-soledad.003","extras":{"slug":"cien-anos-de-soledad","dimensions_mm":[175,228,32],"model_design":"Selected publisher front artwork with reconstructed binding, spine, back and interior. Anniversary artwork matches Vintage Español 9780525562443; dimensions from Libristo. Rough woven cover finish follows the user’s physical-copy description; the listed edition is paperback","edition_source":"https://www.penguinrandomhouse.com/books/196323/cien-anos-de-soledad-50-aniversario--one-hundred-years-of-solitude-by-gabriel-garcia-marquez/9780525562443/","surface_stock":"cloth","edition_print_evidence":"{\"slug\": \"cien-anos-de-soledad\", \"spine\": \"Exact Vintage Espa\\u00f1ol anniversary spine from the selected ISBN gallery: stacked name and title, insect, scissors, leaf and imprint. Original photo projected onto the curved substrate; existing woven grain retained.\", \"back\": \"Existing original showcase typography; reverse not verified\"}"},"scale":[0.09965831786394119,0.10000000149011612,0.09965067356824875],"children":[0,1,2,3,4,5,6,7,9,10,15]}],"scenes":[{"name":"Miguel Personal Library · 13 Editions","nodes":[16]}],"scene":0,"extensionsUsed":["EXT_meshopt_compression","EXT_texture_webp","KHR_materials_clearcoat"],"extensionsRequired":["EXT_meshopt_compression","EXT_texture_webp"]}