{"asset":{"generator":"glTF-Transform v4.5.0","version":"2.0"},"accessors":[{"type":"VEC3","componentType":5126,"count":1316,"max":[0.8747397661209106,1.1398191452026367,0.0008528704638592899],"min":[-0.8747397661209106,-1.1398191452026367,-0.0028383478056639433],"normalized":false,"byteOffset":0,"bufferView":0},{"type":"VEC3","componentType":5126,"count":1316,"normalized":false,"byteOffset":0,"bufferView":1},{"type":"SCALAR","componentType":5123,"count":6648,"normalized":false,"byteOffset":0,"bufferView":2},{"type":"VEC3","componentType":5126,"count":1182,"max":[0.8747397661209106,1.1398191452026367,0.0028383478056639433],"min":[-0.8747397661209106,-1.1398191452026367,-0.00034922658232972026],"normalized":false,"byteOffset":0,"bufferView":3},{"type":"VEC3","componentType":5126,"count":1182,"normalized":false,"byteOffset":0,"bufferView":4},{"type":"VEC2","componentType":5126,"count":1182,"normalized":false,"byteOffset":0,"bufferView":5},{"type":"SCALAR","componentType":5123,"count":5868,"normalized":false,"byteOffset":13296,"bufferView":2},{"type":"VEC3","componentType":5126,"count":514,"max":[0.1009504571557045,0,0.0053944955579936504],"min":[-0.09995229542255402,0,-0.005732110235840082],"normalized":false,"byteOffset":0,"bufferView":6},{"type":"VEC3","componentType":5126,"count":514,"normalized":false,"byteOffset":0,"bufferView":7},{"type":"SCALAR","componentType":5123,"count":1482,"normalized":false,"byteOffset":25032,"bufferView":2},{"type":"VEC3","componentType":5126,"count":8310,"max":[0.17538408935070038,0,0.07058105617761612],"min":[-0.17525547742843628,0,-0.07163350284099579],"normalized":false,"byteOffset":0,"bufferView":8},{"type":"VEC3","componentType":5126,"count":8310,"normalized":false,"byteOffset":0,"bufferView":9},{"type":"SCALAR","componentType":5123,"count":24552,"normalized":false,"byteOffset":27996,"bufferView":2},{"type":"VEC3","componentType":5126,"count":424,"max":[0.08405725657939911,0,0.00647339504212141],"min":[-0.08462092280387878,0,-0.009485503658652306],"normalized":false,"byteOffset":0,"bufferView":10},{"type":"VEC3","componentType":5126,"count":424,"normalized":false,"byteOffset":0,"bufferView":11},{"type":"SCALAR","componentType":5123,"count":1206,"normalized":false,"byteOffset":77100,"bufferView":2},{"type":"VEC3","componentType":5126,"count":932,"max":[0.07914110273122787,0,0.005671926308423281],"min":[-0.0783858671784401,0,-0.0060187154449522495],"normalized":false,"byteOffset":0,"bufferView":12},{"type":"VEC3","componentType":5126,"count":932,"normalized":false,"byteOffset":0,"bufferView":13},{"type":"SCALAR","componentType":5123,"count":2748,"normalized":false,"byteOffset":79512,"bufferView":2},{"type":"VEC3","componentType":5126,"count":1754,"max":[0.1908247470855713,0,0.015098337084054947],"min":[-0.18973402678966522,0,-0.016835398972034454],"normalized":false,"byteOffset":0,"bufferView":14},{"type":"VEC3","componentType":5126,"count":1754,"normalized":false,"byteOffset":0,"bufferView":15},{"type":"SCALAR","componentType":5123,"count":5208,"normalized":false,"byteOffset":85008,"bufferView":2},{"type":"VEC3","componentType":5126,"count":8772,"max":[0.8479999899864197,1.112099289894104,0.15279999375343323],"min":[-0.8650000095367432,-1.1120827198028564,-0.15279999375343323],"normalized":false,"byteOffset":0,"bufferView":16},{"type":"VEC3","componentType":5126,"count":8772,"normalized":false,"byteOffset":0,"bufferView":17},{"type":"VEC2","componentType":5126,"count":8772,"normalized":false,"byteOffset":0,"bufferView":18},{"type":"SCALAR","componentType":5123,"count":49152,"normalized":false,"byteOffset":95424,"bufferView":2},{"type":"VEC3","componentType":5126,"count":8,"max":[0.8479999899864197,1.1119999885559082,0.15279999375343323],"min":[-0.8650000095367432,-1.1119999885559082,-0.15279999375343323],"normalized":false,"byteOffset":0,"bufferView":19},{"type":"VEC3","componentType":5126,"count":8,"normalized":false,"byteOffset":0,"bufferView":20},{"type":"SCALAR","componentType":5123,"count":12,"normalized":false,"byteOffset":193728,"bufferView":2},{"type":"VEC3","componentType":5126,"count":1089,"max":[-0.8750799894332886,1.1399999856948853,0.1574999988079071],"min":[-0.8810799717903137,-1.1399999856948853,-0.1574999988079071],"normalized":false,"byteOffset":0,"bufferView":21},{"type":"VEC3","componentType":5126,"count":1089,"normalized":false,"byteOffset":0,"bufferView":22},{"type":"VEC2","componentType":5126,"count":1089,"normalized":false,"byteOffset":0,"bufferView":23},{"type":"SCALAR","componentType":5123,"count":6144,"normalized":false,"byteOffset":193752,"bufferView":2},{"type":"VEC3","componentType":5126,"count":1316,"max":[0.8747397661209106,1.1398191452026367,0.003957271110266447],"min":[-0.8747397661209106,-1.1398191452026367,-0.0015157921006903052],"normalized":false,"byteOffset":0,"bufferView":24},{"type":"VEC3","componentType":5126,"count":1316,"normalized":false,"byteOffset":0,"bufferView":25},{"type":"VEC2","componentType":5126,"count":1316,"normalized":false,"byteOffset":0,"bufferView":26},{"type":"SCALAR","componentType":5123,"count":6648,"normalized":false,"byteOffset":206040,"bufferView":2},{"type":"VEC3","componentType":5126,"count":1182,"max":[0.8747397661209106,1.1398191452026367,0.0015143748605623841],"min":[-0.8747397661209106,-1.1398191452026367,-0.003960123285651207],"normalized":false,"byteOffset":0,"bufferView":27},{"type":"VEC3","componentType":5126,"count":1182,"normalized":false,"byteOffset":0,"bufferView":28},{"type":"VEC2","componentType":5126,"count":1182,"normalized":false,"byteOffset":0,"bufferView":29},{"type":"SCALAR","componentType":5123,"count":5868,"normalized":false,"byteOffset":219336,"bufferView":2},{"type":"VEC3","componentType":5126,"count":2178,"max":[-0.8670142292976379,1.1399999856948853,0.1574999988079071],"min":[-0.8809999823570251,-1.1399999856948853,-0.1574999988079071],"normalized":false,"byteOffset":0,"bufferView":30},{"type":"VEC3","componentType":5126,"count":2178,"normalized":false,"byteOffset":0,"bufferView":31},{"type":"SCALAR","componentType":5123,"count":13056,"normalized":false,"byteOffset":231072,"bufferView":2}],"bufferViews":[{"buffer":1,"byteOffset":0,"byteLength":15792,"target":34962,"byteStride":12,"extensions":{"EXT_meshopt_compression":{"buffer":0,"byteOffset":0,"byteLength":10161,"mode":"ATTRIBUTES","byteStride":12,"count":1316}}},{"buffer":1,"byteOffset":15792,"byteLength":15792,"target":34962,"byteStride":12,"extensions":{"EXT_meshopt_compression":{"buffer":0,"byteOffset":10164,"byteLength":12405,"mode":"ATTRIBUTES","byteStride":12,"count":1316}}},{"buffer":1,"byteOffset":31584,"byteLength":257184,"target":34963,"extensions":{"EXT_meshopt_compression":{"buffer":0,"byteOffset":22572,"byteLength":92059,"mode":"TRIANGLES","byteStride":2,"count":128592}}},{"buffer":1,"byteOffset":288768,"byteLength":14184,"target":34962,"byteStride":12,"extensions":{"EXT_meshopt_compression":{"buffer":0,"byteOffset":114632,"byteLength":8965,"mode":"ATTRIBUTES","byteStride":12,"count":1182}}},{"buffer":1,"byteOffset":302952,"byteLength":14184,"target":34962,"byteStride":12,"extensions":{"EXT_meshopt_compression":{"buffer":0,"byteOffset":123600,"byteLength":10775,"mode":"ATTRIBUTES","byteStride":12,"count":1182}}},{"buffer":1,"byteOffset":317136,"byteLength":9456,"target":34962,"byteStride":8,"extensions":{"EXT_meshopt_compression":{"buffer":0,"byteOffset":134376,"byteLength":5482,"mode":"ATTRIBUTES","byteStride":8,"count":1182}}},{"buffer":1,"byteOffset":326592,"byteLength":6168,"target":34962,"byteStride":12,"extensions":{"EXT_meshopt_compression":{"buffer":0,"byteOffset":139860,"byteLength":3261,"mode":"ATTRIBUTES","byteStride":12,"count":514}}},{"buffer":1,"byteOffset":332760,"byteLength":6168,"target":34962,"byteStride":12,"extensions":{"EXT_meshopt_compression":{"buffer":0,"byteOffset":143124,"byteLength":141,"mode":"ATTRIBUTES","byteStride":12,"count":514}}},{"buffer":1,"byteOffset":338928,"byteLength":99720,"target":34962,"byteStride":12,"extensions":{"EXT_meshopt_compression":{"buffer":0,"byteOffset":143268,"byteLength":43317,"mode":"ATTRIBUTES","byteStride":12,"count":8310}}},{"buffer":1,"byteOffset":438648,"byteLength":99720,"target":34962,"byteStride":12,"extensions":{"EXT_meshopt_compression":{"buffer":0,"byteOffset":186588,"byteLength":1593,"mode":"ATTRIBUTES","byteStride":12,"count":8310}}},{"buffer":1,"byteOffset":538368,"byteLength":5088,"target":34962,"byteStride":12,"extensions":{"EXT_meshopt_compression":{"buffer":0,"byteOffset":188184,"byteLength":2662,"mode":"ATTRIBUTES","byteStride":12,"count":424}}},{"buffer":1,"byteOffset":543456,"byteLength":5088,"target":34962,"byteStride":12,"extensions":{"EXT_meshopt_compression":{"buffer":0,"byteOffset":190848,"byteLength":117,"mode":"ATTRIBUTES","byteStride":12,"count":424}}},{"buffer":1,"byteOffset":548544,"byteLength":11184,"target":34962,"byteStride":12,"extensions":{"EXT_meshopt_compression":{"buffer":0,"byteOffset":190968,"byteLength":5841,"mode":"ATTRIBUTES","byteStride":12,"count":932}}},{"buffer":1,"byteOffset":559728,"byteLength":11184,"target":34962,"byteStride":12,"extensions":{"EXT_meshopt_compression":{"buffer":0,"byteOffset":196812,"byteLength":213,"mode":"ATTRIBUTES","byteStride":12,"count":932}}},{"buffer":1,"byteOffset":570912,"byteLength":21048,"target":34962,"byteStride":12,"extensions":{"EXT_meshopt_compression":{"buffer":0,"byteOffset":197028,"byteLength":10410,"mode":"ATTRIBUTES","byteStride":12,"count":1754}}},{"buffer":1,"byteOffset":591960,"byteLength":21048,"target":34962,"byteStride":12,"extensions":{"EXT_meshopt_compression":{"buffer":0,"byteOffset":207440,"byteLength":369,"mode":"ATTRIBUTES","byteStride":12,"count":1754}}},{"buffer":1,"byteOffset":613008,"byteLength":105264,"target":34962,"byteStride":12,"extensions":{"EXT_meshopt_compression":{"buffer":0,"byteOffset":207812,"byteLength":41882,"mode":"ATTRIBUTES","byteStride":12,"count":8772}}},{"buffer":1,"byteOffset":718272,"byteLength":105264,"target":34962,"byteStride":12,"extensions":{"EXT_meshopt_compression":{"buffer":0,"byteOffset":249696,"byteLength":10318,"mode":"ATTRIBUTES","byteStride":12,"count":8772}}},{"buffer":1,"byteOffset":823536,"byteLength":70176,"target":34962,"byteStride":8,"extensions":{"EXT_meshopt_compression":{"buffer":0,"byteOffset":260016,"byteLength":35705,"mode":"ATTRIBUTES","byteStride":8,"count":8772}}},{"buffer":1,"byteOffset":893712,"byteLength":96,"target":34962,"byteStride":12,"extensions":{"EXT_meshopt_compression":{"buffer":0,"byteOffset":295724,"byteLength":89,"mode":"ATTRIBUTES","byteStride":12,"count":8}}},{"buffer":1,"byteOffset":893808,"byteLength":96,"target":34962,"byteStride":12,"extensions":{"EXT_meshopt_compression":{"buffer":0,"byteOffset":295816,"byteLength":50,"mode":"ATTRIBUTES","byteStride":12,"count":8}}},{"buffer":1,"byteOffset":893904,"byteLength":13068,"target":34962,"byteStride":12,"extensions":{"EXT_meshopt_compression":{"buffer":0,"byteOffset":295868,"byteLength":6834,"mode":"ATTRIBUTES","byteStride":12,"count":1089}}},{"buffer":1,"byteOffset":906972,"byteLength":13068,"target":34962,"byteStride":12,"extensions":{"EXT_meshopt_compression":{"buffer":0,"byteOffset":302704,"byteLength":6207,"mode":"ATTRIBUTES","byteStride":12,"count":1089}}},{"buffer":1,"byteOffset":920040,"byteLength":8712,"target":34962,"byteStride":8,"extensions":{"EXT_meshopt_compression":{"buffer":0,"byteOffset":308912,"byteLength":5024,"mode":"ATTRIBUTES","byteStride":8,"count":1089}}},{"buffer":1,"byteOffset":928752,"byteLength":15792,"target":34962,"byteStride":12,"extensions":{"EXT_meshopt_compression":{"buffer":0,"byteOffset":313936,"byteLength":10156,"mode":"ATTRIBUTES","byteStride":12,"count":1316}}},{"buffer":1,"byteOffset":944544,"byteLength":15792,"target":34962,"byteStride":12,"extensions":{"EXT_meshopt_compression":{"buffer":0,"byteOffset":324092,"byteLength":12470,"mode":"ATTRIBUTES","byteStride":12,"count":1316}}},{"buffer":1,"byteOffset":960336,"byteLength":10528,"target":34962,"byteStride":8,"extensions":{"EXT_meshopt_compression":{"buffer":0,"byteOffset":336564,"byteLength":7238,"mode":"ATTRIBUTES","byteStride":8,"count":1316}}},{"buffer":1,"byteOffset":970864,"byteLength":14184,"target":34962,"byteStride":12,"extensions":{"EXT_meshopt_compression":{"buffer":0,"byteOffset":343804,"byteLength":9208,"mode":"ATTRIBUTES","byteStride":12,"count":1182}}},{"buffer":1,"byteOffset":985048,"byteLength":14184,"target":34962,"byteStride":12,"extensions":{"EXT_meshopt_compression":{"buffer":0,"byteOffset":353012,"byteLength":10723,"mode":"ATTRIBUTES","byteStride":12,"count":1182}}},{"buffer":1,"byteOffset":999232,"byteLength":9456,"target":34962,"byteStride":8,"extensions":{"EXT_meshopt_compression":{"buffer":0,"byteOffset":363736,"byteLength":5499,"mode":"ATTRIBUTES","byteStride":8,"count":1182}}},{"buffer":1,"byteOffset":1008688,"byteLength":26136,"target":34962,"byteStride":12,"extensions":{"EXT_meshopt_compression":{"buffer":0,"byteOffset":369236,"byteLength":13614,"mode":"ATTRIBUTES","byteStride":12,"count":2178}}},{"buffer":1,"byteOffset":1034824,"byteLength":26136,"target":34962,"byteStride":12,"extensions":{"EXT_meshopt_compression":{"buffer":0,"byteOffset":382852,"byteLength":13208,"mode":"ATTRIBUTES","byteStride":12,"count":2178}}}],"samplers":[{"magFilter":9729,"minFilter":9987,"wrapS":10497,"wrapT":10497},{"magFilter":9729,"minFilter":9987,"wrapS":33071,"wrapT":33071}],"textures":[{"sampler":0,"extensions":{"EXT_texture_webp":{"source":1}}},{"sampler":0,"extensions":{"EXT_texture_webp":{"source":0}}},{"sampler":0,"extensions":{"EXT_texture_webp":{"source":2}}},{"sampler":0,"extensions":{"EXT_texture_webp":{"source":4}}},{"sampler":0,"extensions":{"EXT_texture_webp":{"source":3}}},{"source":5,"sampler":0},{"sampler":1,"extensions":{"EXT_texture_webp":{"source":8}}},{"sampler":0,"extensions":{"EXT_texture_webp":{"source":7}}},{"sampler":0,"extensions":{"EXT_texture_webp":{"source":6}}}],"images":[{"name":"Paper001_2K-JPG_NormalGL","mimeType":"image/webp","uri":"shared/a4ffc7b7fc49def2917e39f5.webp"},{"name":"Paper001_2K-JPG_Color","mimeType":"image/webp","uri":"shared/75262c983a496cb7fcdc6c19.webp"},{"name":"Paper001_2K-JPG_Roughness","mimeType":"image/webp","uri":"shared/49f61cb86539e805ce6a1ee3.webp"},{"name":"compressed-paper-normal","mimeType":"image/webp","uri":"shared/339c1ac519928878fbaa1237.webp"},{"name":"compressed-paper-color","mimeType":"image/webp","uri":"shared/7701c62282fa7f26c46af450.webp"},{"name":"cien-vintage-spine","mimeType":"image/jpeg","uri":"shared/d944d030f1e033cf8dc3d107.jpg"},{"name":"cien-anos-de-soledad_print_orm","mimeType":"image/webp","uri":"shared/4be515e51f8a678acf7951be.webp"},{"name":"cien-anos-de-soledad_print_normal","mimeType":"image/webp","uri":"shared/e76c748fd234d66ba02d73ea.webp"},{"name":"edition-cien-anos-de-soledad","mimeType":"image/webp","uri":"shared/ab58152d4f356fdbb97d8744.webp"}],"buffers":[{"uri":"shared/604b41b97c6f25de6f9ad6de.bin","byteLength":396060},{"byteLength":1060960,"extensions":{"EXT_meshopt_compression":{"fallback":true}}}],"materials":[{"name":"cien-anos-de-soledad case material.002","doubleSided":true,"pbrMetallicRoughness":{"baseColorFactor":[0.008568125776946545,0.07036009430885315,0.05951123684644699,1],"roughnessFactor":0.7400000095367432,"metallicFactor":0},"extensions":{"KHR_materials_clearcoat":{"clearcoatFactor":0.014999999664723873,"clearcoatRoughnessFactor":0.36000001430511475}}},{"name":"MAT_Uncoated_Paper_Fibre.003","doubleSided":true,"pbrMetallicRoughness":{"metallicFactor":0,"baseColorTexture":{"index":0},"metallicRoughnessTexture":{"index":2}},"normalTexture":{"index":1,"scale":0.07000000029802322}},{"name":"MAT_cien-anos-de-soledad_BackInk.002","doubleSided":true,"pbrMetallicRoughness":{"baseColorFactor":[0.9130986332893372,0.7304607629776001,0.520995557308197,1],"roughnessFactor":0.4000000059604645,"metallicFactor":0},"extensions":{"KHR_materials_clearcoat":{"clearcoatFactor":0.07000000029802322,"clearcoatRoughnessFactor":0}}},{"name":"MAT_cien-anos-de-soledad_Stamped_Ink.005","doubleSided":true,"pbrMetallicRoughness":{"baseColorFactor":[0.9130986332893372,0.7304607629776001,0.520995557308197,1],"roughnessFactor":0.4000000059604645,"metallicFactor":0},"extensions":{"KHR_materials_clearcoat":{"clearcoatFactor":0.07000000029802322,"clearcoatRoughnessFactor":0.20000000298023224}}},{"name":"Compressed paper cut surface.003","doubleSided":true,"pbrMetallicRoughness":{"roughnessFactor":0.8999999761581421,"metallicFactor":0,"baseColorTexture":{"index":3}},"normalTexture":{"index":4}},{"name":"Compressed ivory stock 2.003","doubleSided":true,"pbrMetallicRoughness":{"baseColorFactor":[0.7279999852180481,0.7129999995231628,0.656000018119812,1],"roughnessFactor":0.8600000143051147,"metallicFactor":0}},{"name":"cien-anos-de-soledad photographed spine.001","doubleSided":true,"pbrMetallicRoughness":{"roughnessFactor":0.7400000095367432,"metallicFactor":0,"baseColorTexture":{"index":5}},"extensions":{"KHR_materials_clearcoat":{"clearcoatFactor":0.014999999664723873,"clearcoatRoughnessFactor":0.36000001430511475}}},{"name":"MAT_cien-anos-de-soledad_Registered_Print.002","extras":{"surface_finish":"Registered print, selective varnish"},"doubleSided":true,"pbrMetallicRoughness":{"baseColorTexture":{"index":6},"metallicRoughnessTexture":{"index":8}},"normalTexture":{"index":7},"extensions":{"KHR_materials_clearcoat":{"clearcoatFactor":1,"clearcoatRoughnessFactor":0.23999999463558197,"clearcoatTexture":{"index":8}}}},{"name":"MAT_Uncoated_Paper_Fibre.003","doubleSided":true,"pbrMetallicRoughness":{"metallicFactor":0,"baseColorTexture":{"index":0},"metallicRoughnessTexture":{"index":2}},"normalTexture":{"index":1,"scale":0.07000000029802322}}],"meshes":[{"name":"Pressed case joint Back board.049","primitives":[{"attributes":{"POSITION":0,"NORMAL":1},"mode":4,"material":0,"indices":2},{"attributes":{"POSITION":3,"NORMAL":4,"TEXCOORD_0":5},"mode":4,"material":1,"indices":6}]},{"name":"Back collection.049","primitives":[{"attributes":{"POSITION":7,"NORMAL":8},"mode":4,"material":2,"indices":9}]},{"name":"Back description.049","primitives":[{"attributes":{"POSITION":10,"NORMAL":11},"mode":4,"material":2,"indices":12}]},{"name":"Back edition.049","primitives":[{"attributes":{"POSITION":13,"NORMAL":14},"mode":4,"material":3,"indices":15}]},{"name":"Back ISBN.049","primitives":[{"attributes":{"POSITION":16,"NORMAL":17},"mode":4,"material":2,"indices":18}]},{"name":"Back title.049","primitives":[{"attributes":{"POSITION":19,"NORMAL":20},"mode":4,"material":3,"indices":21}]},{"name":"Continuous compressed cut cien-anos-de-soledad.003","primitives":[{"attributes":{"POSITION":22,"NORMAL":23,"TEXCOORD_0":24},"mode":4,"material":4,"indices":25},{"attributes":{"POSITION":26,"NORMAL":27},"mode":4,"material":5,"indices":28}]},{"name":"Edition spine print.005","primitives":[{"attributes":{"POSITION":29,"NORMAL":30,"TEXCOORD_0":31},"mode":4,"material":6,"indices":32}]},{"name":"Pressed case joint Wrapped printed cover.048","primitives":[{"attributes":{"POSITION":33,"NORMAL":34,"TEXCOORD_0":35},"mode":4,"material":7,"indices":36},{"attributes":{"POSITION":37,"NORMAL":38,"TEXCOORD_0":39},"mode":4,"material":8,"indices":40}]},{"name":"Rounded cloth spine.073","primitives":[{"attributes":{"POSITION":41,"NORMAL":42},"mode":4,"material":0,"indices":43}]}],"nodes":[{"name":"Back board.073","extras":{"edge_refined":true,"unpressed_mesh":"Back board.016","pressed_joint_revision":1,"joint_depth_mm":0.12000000000000002,"joint_center_mm":4.8},"translation":[0,0,-0.1574999988079071],"mesh":0},{"name":"Back collection.049","translation":[0,-0.5472000241279602,-0.1615000069141388],"rotation":[0,-0.7071068286895752,0.7071068286895752,3.090862321641907e-8],"mesh":1},{"name":"Back description.049","translation":[0,0.05700000002980232,-0.1615000069141388],"rotation":[0,-0.7071068286895752,0.7071068286895752,3.090862321641907e-8],"mesh":2},{"name":"Back edition.049","translation":[0,-0.7752000689506531,-0.1615000069141388],"rotation":[0,-0.7071068286895752,0.7071068286895752,3.090862321641907e-8],"mesh":3},{"name":"Back ISBN.049","translation":[0,-0.88919997215271,-0.1615000069141388],"rotation":[0,-0.7071068286895752,0.7071068286895752,3.090862321641907e-8],"mesh":4},{"name":"Back title.049","translation":[0,0.6611999869346619,-0.1615000069141388],"rotation":[0,-0.7071068286895752,0.7071068286895752,3.090862321641907e-8],"mesh":5},{"name":"Compressed paper signatures cien-anos-de-soledad.003","extras":{"paper_surface_revision":1,"leaf_count":200,"paper_caliper_mm":0.1528,"binding_structure":"Glued square back"},"mesh":6},{"name":"Edition spine print.005","extras":{"spine_art_source":"assets/images/book-covers/library-expansion-20260908/production/cien-vintage-spine.jpg"},"mesh":7},{"name":"Wrapped printed cover.048","extras":{"edge_refined":true,"unpressed_mesh":"Front board.016","pressed_joint_revision":1,"joint_depth_mm":0.12000000000000002,"joint_center_mm":4.8},"translation":[0.875,0,0],"mesh":8},{"name":"FrontHinge.073","translation":[-0.875,0,0.1574999988079071],"children":[8]},{"name":"Rounded cloth spine.073","mesh":9},{"name":"Publisher_cien-anos-de-soledad.003","extras":{"slug":"cien-anos-de-soledad","dimensions_mm":[175,228,32],"model_design":"Selected publisher front artwork with reconstructed binding, spine, back and interior. Anniversary artwork matches Vintage Español 9780525562443; dimensions from Libristo. Rough woven cover finish follows the user’s physical-copy description; the listed edition is paperback","edition_source":"https://www.penguinrandomhouse.com/books/196323/cien-anos-de-soledad-50-aniversario--one-hundred-years-of-solitude-by-gabriel-garcia-marquez/9780525562443/","surface_stock":"cloth","edition_print_evidence":"{\"slug\": \"cien-anos-de-soledad\", \"spine\": \"Exact Vintage Espa\\u00f1ol anniversary spine from the selected ISBN gallery: stacked name and title, insect, scissors, leaf and imprint. Original photo projected onto the curved substrate; existing woven grain retained.\", \"back\": \"Existing original showcase typography; reverse not verified\"}"},"scale":[0.09965831786394119,0.10000000149011612,0.09965067356824875],"children":[0,1,2,3,4,5,6,7,9,10]}],"scenes":[{"name":"Miguel Personal Library · 13 Editions","nodes":[11]}],"scene":0,"extensionsUsed":["EXT_meshopt_compression","EXT_texture_webp","KHR_materials_clearcoat"],"extensionsRequired":["EXT_meshopt_compression","EXT_texture_webp"]}