{"asset":{"generator":"glTF-Transform v4.5.0","version":"2.0"},"accessors":[{"type":"VEC3","componentType":5126,"count":1316,"max":[0.6997566819190979,1.079819917678833,0.0006610248237848282],"min":[-0.6997566819190979,-1.079819917678833,-0.002835579914972186],"normalized":false,"byteOffset":0,"bufferView":0},{"type":"VEC3","componentType":5126,"count":1316,"normalized":false,"byteOffset":0,"bufferView":1},{"type":"SCALAR","componentType":5123,"count":6648,"normalized":false,"byteOffset":0,"bufferView":2},{"type":"VEC3","componentType":5126,"count":1182,"max":[0.6997566819190979,1.079819917678833,0.002835579914972186],"min":[-0.6997566819190979,-1.079819917678833,-0.00034903749474324286],"normalized":false,"byteOffset":0,"bufferView":3},{"type":"VEC3","componentType":5126,"count":1182,"normalized":false,"byteOffset":0,"bufferView":4},{"type":"VEC2","componentType":5126,"count":1182,"normalized":false,"byteOffset":0,"bufferView":5},{"type":"SCALAR","componentType":5123,"count":5868,"normalized":false,"byteOffset":13296,"bufferView":2},{"type":"VEC3","componentType":5126,"count":514,"max":[0.1009504571557045,0,0.0053944955579936504],"min":[-0.09995229542255402,0,-0.005732110235840082],"normalized":false,"byteOffset":0,"bufferView":6},{"type":"VEC3","componentType":5126,"count":514,"normalized":false,"byteOffset":0,"bufferView":7},{"type":"SCALAR","componentType":5123,"count":1482,"normalized":false,"byteOffset":25032,"bufferView":2},{"type":"VEC3","componentType":5126,"count":8820,"max":[0.1685081273317337,0,0.07542230188846588],"min":[-0.16806375980377197,0,-0.07163350284099579],"normalized":false,"byteOffset":0,"bufferView":8},{"type":"VEC3","componentType":5126,"count":8820,"normalized":false,"byteOffset":0,"bufferView":9},{"type":"SCALAR","componentType":5123,"count":26052,"normalized":false,"byteOffset":27996,"bufferView":2},{"type":"VEC3","componentType":5126,"count":544,"max":[0.08662018924951553,0,0.008807339705526829],"min":[-0.0873776227235794,0,-0.00688733858987689],"normalized":false,"byteOffset":0,"bufferView":10},{"type":"VEC3","componentType":5126,"count":544,"normalized":false,"byteOffset":0,"bufferView":11},{"type":"SCALAR","componentType":5123,"count":1566,"normalized":false,"byteOffset":80100,"bufferView":2},{"type":"VEC3","componentType":5126,"count":1084,"max":[0.07922586798667908,0,0.005671926308423281],"min":[-0.0783858671784401,0,-0.0060187154449522495],"normalized":false,"byteOffset":0,"bufferView":12},{"type":"VEC3","componentType":5126,"count":1084,"normalized":false,"byteOffset":0,"bufferView":13},{"type":"SCALAR","componentType":5123,"count":3234,"normalized":false,"byteOffset":83232,"bufferView":2},{"type":"VEC3","componentType":5126,"count":3765,"max":[0.22402086853981018,0,0.09464988857507706],"min":[-0.22327353060245514,0,-0.08808540552854538],"normalized":false,"byteOffset":0,"bufferView":14},{"type":"VEC3","componentType":5126,"count":3765,"normalized":false,"byteOffset":0,"bufferView":15},{"type":"SCALAR","componentType":5123,"count":11109,"normalized":false,"byteOffset":89700,"bufferView":2},{"type":"VEC3","componentType":5126,"count":8772,"max":[0.6729999780654907,1.052099347114563,0.07779999822378159],"min":[-0.6899999976158142,-1.0520827770233154,-0.07779999822378159],"normalized":false,"byteOffset":0,"bufferView":16},{"type":"VEC3","componentType":5126,"count":8772,"normalized":false,"byteOffset":0,"bufferView":17},{"type":"VEC2","componentType":5126,"count":8772,"normalized":false,"byteOffset":0,"bufferView":18},{"type":"SCALAR","componentType":5123,"count":49152,"normalized":false,"byteOffset":111918,"bufferView":2},{"type":"VEC3","componentType":5126,"count":8,"max":[0.6729999780654907,1.0520000457763672,0.07779999822378159],"min":[-0.6899999976158142,-1.0520000457763672,-0.07779999822378159],"normalized":false,"byteOffset":0,"bufferView":19},{"type":"VEC3","componentType":5126,"count":8,"normalized":false,"byteOffset":0,"bufferView":20},{"type":"SCALAR","componentType":5123,"count":12,"normalized":false,"byteOffset":210222,"bufferView":2},{"type":"VEC3","componentType":5126,"count":35257,"max":[-0.7054939270019531,0.9288000464439392,0.028295306488871574],"min":[-0.7063500285148621,-0.496800035238266,-0.028295306488871574],"normalized":false,"byteOffset":0,"bufferView":21},{"type":"VEC3","componentType":5126,"count":35257,"normalized":false,"byteOffset":0,"bufferView":22},{"type":"SCALAR","componentType":5123,"count":53145,"normalized":false,"byteOffset":210246,"bufferView":2},{"type":"VEC3","componentType":5126,"count":8665,"max":[-0.705920934677124,-0.6047999858856201,0.01990717090666294],"min":[-0.7063499689102173,-0.9287999868392944,-0.01990717090666294],"normalized":false,"byteOffset":0,"bufferView":23},{"type":"VEC3","componentType":5126,"count":8665,"normalized":false,"byteOffset":0,"bufferView":24},{"type":"SCALAR","componentType":5123,"count":12657,"normalized":false,"byteOffset":316536,"bufferView":2},{"type":"VEC3","componentType":5126,"count":1316,"max":[0.6997566819190979,1.079819917678833,0.003682474372908473],"min":[-0.6997566819190979,-1.079819917678833,-0.0013214598875492811],"normalized":false,"byteOffset":0,"bufferView":25},{"type":"VEC3","componentType":5126,"count":1316,"normalized":false,"byteOffset":0,"bufferView":26},{"type":"VEC2","componentType":5126,"count":1316,"normalized":false,"byteOffset":0,"bufferView":27},{"type":"SCALAR","componentType":5123,"count":6648,"normalized":false,"byteOffset":341850,"bufferView":2},{"type":"VEC3","componentType":5126,"count":1182,"max":[0.6997566819190979,1.079819917678833,0.0013204371789470315],"min":[-0.6997566819190979,-1.079819917678833,-0.003685187781229615],"normalized":false,"byteOffset":0,"bufferView":28},{"type":"VEC3","componentType":5126,"count":1182,"normalized":false,"byteOffset":0,"bufferView":29},{"type":"VEC2","componentType":5126,"count":1182,"normalized":false,"byteOffset":0,"bufferView":30},{"type":"SCALAR","componentType":5123,"count":5868,"normalized":false,"byteOffset":355146,"bufferView":2},{"type":"VEC3","componentType":5126,"count":2490,"max":[-0.6920515298843384,1.0800000429153442,0.08250000327825546],"min":[-0.7059999704360962,-1.0800000429153442,-0.08250000327825546],"normalized":false,"byteOffset":0,"bufferView":31},{"type":"VEC3","componentType":5126,"count":2490,"normalized":false,"byteOffset":0,"bufferView":32},{"type":"SCALAR","componentType":5123,"count":13056,"normalized":false,"byteOffset":366882,"bufferView":2}],"bufferViews":[{"buffer":1,"byteOffset":0,"byteLength":15792,"target":34962,"byteStride":12,"extensions":{"EXT_meshopt_compression":{"buffer":0,"byteOffset":0,"byteLength":10246,"mode":"ATTRIBUTES","byteStride":12,"count":1316}}},{"buffer":1,"byteOffset":15792,"byteLength":15792,"target":34962,"byteStride":12,"extensions":{"EXT_meshopt_compression":{"buffer":0,"byteOffset":10248,"byteLength":12342,"mode":"ATTRIBUTES","byteStride":12,"count":1316}}},{"buffer":1,"byteOffset":31584,"byteLength":392994,"target":34963,"extensions":{"EXT_meshopt_compression":{"buffer":0,"byteOffset":22592,"byteLength":227502,"mode":"TRIANGLES","byteStride":2,"count":196497}}},{"buffer":1,"byteOffset":424580,"byteLength":14184,"target":34962,"byteStride":12,"extensions":{"EXT_meshopt_compression":{"buffer":0,"byteOffset":250096,"byteLength":9077,"mode":"ATTRIBUTES","byteStride":12,"count":1182}}},{"buffer":1,"byteOffset":438764,"byteLength":14184,"target":34962,"byteStride":12,"extensions":{"EXT_meshopt_compression":{"buffer":0,"byteOffset":259176,"byteLength":10744,"mode":"ATTRIBUTES","byteStride":12,"count":1182}}},{"buffer":1,"byteOffset":452948,"byteLength":9456,"target":34962,"byteStride":8,"extensions":{"EXT_meshopt_compression":{"buffer":0,"byteOffset":269920,"byteLength":5515,"mode":"ATTRIBUTES","byteStride":8,"count":1182}}},{"buffer":1,"byteOffset":462404,"byteLength":6168,"target":34962,"byteStride":12,"extensions":{"EXT_meshopt_compression":{"buffer":0,"byteOffset":275436,"byteLength":3261,"mode":"ATTRIBUTES","byteStride":12,"count":514}}},{"buffer":1,"byteOffset":468572,"byteLength":6168,"target":34962,"byteStride":12,"extensions":{"EXT_meshopt_compression":{"buffer":0,"byteOffset":278700,"byteLength":141,"mode":"ATTRIBUTES","byteStride":12,"count":514}}},{"buffer":1,"byteOffset":474740,"byteLength":105840,"target":34962,"byteStride":12,"extensions":{"EXT_meshopt_compression":{"buffer":0,"byteOffset":278844,"byteLength":45997,"mode":"ATTRIBUTES","byteStride":12,"count":8820}}},{"buffer":1,"byteOffset":580580,"byteLength":105840,"target":34962,"byteStride":12,"extensions":{"EXT_meshopt_compression":{"buffer":0,"byteOffset":324844,"byteLength":1689,"mode":"ATTRIBUTES","byteStride":12,"count":8820}}},{"buffer":1,"byteOffset":686420,"byteLength":6528,"target":34962,"byteStride":12,"extensions":{"EXT_meshopt_compression":{"buffer":0,"byteOffset":326536,"byteLength":3349,"mode":"ATTRIBUTES","byteStride":12,"count":544}}},{"buffer":1,"byteOffset":692948,"byteLength":6528,"target":34962,"byteStride":12,"extensions":{"EXT_meshopt_compression":{"buffer":0,"byteOffset":329888,"byteLength":141,"mode":"ATTRIBUTES","byteStride":12,"count":544}}},{"buffer":1,"byteOffset":699476,"byteLength":13008,"target":34962,"byteStride":12,"extensions":{"EXT_meshopt_compression":{"buffer":0,"byteOffset":330032,"byteLength":6832,"mode":"ATTRIBUTES","byteStride":12,"count":1084}}},{"buffer":1,"byteOffset":712484,"byteLength":13008,"target":34962,"byteStride":12,"extensions":{"EXT_meshopt_compression":{"buffer":0,"byteOffset":336864,"byteLength":237,"mode":"ATTRIBUTES","byteStride":12,"count":1084}}},{"buffer":1,"byteOffset":725492,"byteLength":45180,"target":34962,"byteStride":12,"extensions":{"EXT_meshopt_compression":{"buffer":0,"byteOffset":337104,"byteLength":21072,"mode":"ATTRIBUTES","byteStride":12,"count":3765}}},{"buffer":1,"byteOffset":770672,"byteLength":45180,"target":34962,"byteStride":12,"extensions":{"EXT_meshopt_compression":{"buffer":0,"byteOffset":358176,"byteLength":741,"mode":"ATTRIBUTES","byteStride":12,"count":3765}}},{"buffer":1,"byteOffset":815852,"byteLength":105264,"target":34962,"byteStride":12,"extensions":{"EXT_meshopt_compression":{"buffer":0,"byteOffset":358920,"byteLength":41868,"mode":"ATTRIBUTES","byteStride":12,"count":8772}}},{"buffer":1,"byteOffset":921116,"byteLength":105264,"target":34962,"byteStride":12,"extensions":{"EXT_meshopt_compression":{"buffer":0,"byteOffset":400788,"byteLength":11326,"mode":"ATTRIBUTES","byteStride":12,"count":8772}}},{"buffer":1,"byteOffset":1026380,"byteLength":70176,"target":34962,"byteStride":8,"extensions":{"EXT_meshopt_compression":{"buffer":0,"byteOffset":412116,"byteLength":35441,"mode":"ATTRIBUTES","byteStride":8,"count":8772}}},{"buffer":1,"byteOffset":1096556,"byteLength":96,"target":34962,"byteStride":12,"extensions":{"EXT_meshopt_compression":{"buffer":0,"byteOffset":447560,"byteLength":89,"mode":"ATTRIBUTES","byteStride":12,"count":8}}},{"buffer":1,"byteOffset":1096652,"byteLength":96,"target":34962,"byteStride":12,"extensions":{"EXT_meshopt_compression":{"buffer":0,"byteOffset":447652,"byteLength":50,"mode":"ATTRIBUTES","byteStride":12,"count":8}}},{"buffer":1,"byteOffset":1096748,"byteLength":423084,"target":34962,"byteStride":12,"extensions":{"EXT_meshopt_compression":{"buffer":0,"byteOffset":447704,"byteLength":161787,"mode":"ATTRIBUTES","byteStride":12,"count":35257}}},{"buffer":1,"byteOffset":1519832,"byteLength":423084,"target":34962,"byteStride":12,"extensions":{"EXT_meshopt_compression":{"buffer":0,"byteOffset":609492,"byteLength":313610,"mode":"ATTRIBUTES","byteStride":12,"count":35257}}},{"buffer":1,"byteOffset":1942916,"byteLength":103980,"target":34962,"byteStride":12,"extensions":{"EXT_meshopt_compression":{"buffer":0,"byteOffset":923104,"byteLength":38271,"mode":"ATTRIBUTES","byteStride":12,"count":8665}}},{"buffer":1,"byteOffset":2046896,"byteLength":103980,"target":34962,"byteStride":12,"extensions":{"EXT_meshopt_compression":{"buffer":0,"byteOffset":961376,"byteLength":76275,"mode":"ATTRIBUTES","byteStride":12,"count":8665}}},{"buffer":1,"byteOffset":2150876,"byteLength":15792,"target":34962,"byteStride":12,"extensions":{"EXT_meshopt_compression":{"buffer":0,"byteOffset":1037652,"byteLength":10273,"mode":"ATTRIBUTES","byteStride":12,"count":1316}}},{"buffer":1,"byteOffset":2166668,"byteLength":15792,"target":34962,"byteStride":12,"extensions":{"EXT_meshopt_compression":{"buffer":0,"byteOffset":1047928,"byteLength":12348,"mode":"ATTRIBUTES","byteStride":12,"count":1316}}},{"buffer":1,"byteOffset":2182460,"byteLength":10528,"target":34962,"byteStride":8,"extensions":{"EXT_meshopt_compression":{"buffer":0,"byteOffset":1060276,"byteLength":7204,"mode":"ATTRIBUTES","byteStride":8,"count":1316}}},{"buffer":1,"byteOffset":2192988,"byteLength":14184,"target":34962,"byteStride":12,"extensions":{"EXT_meshopt_compression":{"buffer":0,"byteOffset":1067480,"byteLength":9185,"mode":"ATTRIBUTES","byteStride":12,"count":1182}}},{"buffer":1,"byteOffset":2207172,"byteLength":14184,"target":34962,"byteStride":12,"extensions":{"EXT_meshopt_compression":{"buffer":0,"byteOffset":1076668,"byteLength":10619,"mode":"ATTRIBUTES","byteStride":12,"count":1182}}},{"buffer":1,"byteOffset":2221356,"byteLength":9456,"target":34962,"byteStride":8,"extensions":{"EXT_meshopt_compression":{"buffer":0,"byteOffset":1087288,"byteLength":5541,"mode":"ATTRIBUTES","byteStride":8,"count":1182}}},{"buffer":1,"byteOffset":2230812,"byteLength":29880,"target":34962,"byteStride":12,"extensions":{"EXT_meshopt_compression":{"buffer":0,"byteOffset":1092832,"byteLength":15207,"mode":"ATTRIBUTES","byteStride":12,"count":2490}}},{"buffer":1,"byteOffset":2260692,"byteLength":29880,"target":34962,"byteStride":12,"extensions":{"EXT_meshopt_compression":{"buffer":0,"byteOffset":1108040,"byteLength":14967,"mode":"ATTRIBUTES","byteStride":12,"count":2490}}}],"samplers":[{"magFilter":9729,"minFilter":9987,"wrapS":10497,"wrapT":10497},{"magFilter":9729,"minFilter":9987,"wrapS":33071,"wrapT":33071}],"textures":[{"sampler":0,"extensions":{"EXT_texture_webp":{"source":1}}},{"sampler":0,"extensions":{"EXT_texture_webp":{"source":0}}},{"sampler":0,"extensions":{"EXT_texture_webp":{"source":2}}},{"sampler":0,"extensions":{"EXT_texture_webp":{"source":4}}},{"sampler":0,"extensions":{"EXT_texture_webp":{"source":3}}},{"sampler":1,"extensions":{"EXT_texture_webp":{"source":7}}},{"sampler":0,"extensions":{"EXT_texture_webp":{"source":6}}},{"sampler":0,"extensions":{"EXT_texture_webp":{"source":5}}}],"images":[{"name":"Paper001_2K-JPG_NormalGL","mimeType":"image/webp","uri":"shared/a4ffc7b7fc49def2917e39f5.webp"},{"name":"Paper001_2K-JPG_Color","mimeType":"image/webp","uri":"shared/75262c983a496cb7fcdc6c19.webp"},{"name":"Paper001_2K-JPG_Roughness","mimeType":"image/webp","uri":"shared/49f61cb86539e805ce6a1ee3.webp"},{"name":"compressed-paper-normal","mimeType":"image/webp","uri":"shared/339c1ac519928878fbaa1237.webp"},{"name":"compressed-paper-color","mimeType":"image/webp","uri":"shared/7701c62282fa7f26c46af450.webp"},{"name":"how-to-fail_print_orm","mimeType":"image/webp","uri":"shared/2938690472b663dde23bfdb2.webp"},{"name":"how-to-fail_print_normal","mimeType":"image/webp","uri":"shared/5109fde1a076da2038877ecc.webp"},{"name":"edition-how-to-fail","mimeType":"image/webp","uri":"shared/d2baaf522929e16dee6a7e79.webp"}],"buffers":[{"uri":"shared/eb6ea5f1937095d5c757fe20.bin","byteLength":1123008},{"byteLength":2290572,"extensions":{"EXT_meshopt_compression":{"fallback":true}}}],"materials":[{"name":"how-to-fail case material","doubleSided":true,"pbrMetallicRoughness":{"baseColorFactor":[0.15292614698410034,0.3762621283531189,0.6104955673217773,1],"roughnessFactor":0.5,"metallicFactor":0},"extensions":{"KHR_materials_clearcoat":{"clearcoatFactor":0.07999999821186066,"clearcoatRoughnessFactor":0.36000001430511475}}},{"name":"MAT_Uncoated_Paper_Fibre","doubleSided":true,"pbrMetallicRoughness":{"metallicFactor":0,"baseColorTexture":{"index":0},"metallicRoughnessTexture":{"index":2}},"normalTexture":{"index":1,"scale":0.07000000029802322}},{"name":"MAT_how-to-fail_BackInk","doubleSided":true,"pbrMetallicRoughness":{"roughnessFactor":0.4000000059604645,"metallicFactor":0},"extensions":{"KHR_materials_clearcoat":{"clearcoatFactor":0.07000000029802322,"clearcoatRoughnessFactor":0}}},{"name":"MAT_how-to-fail_Stamped_Ink","doubleSided":true,"pbrMetallicRoughness":{"roughnessFactor":0.4000000059604645,"metallicFactor":0},"extensions":{"KHR_materials_clearcoat":{"clearcoatFactor":0.07000000029802322,"clearcoatRoughnessFactor":0.20000000298023224}}},{"name":"Compressed paper cut surface","doubleSided":true,"pbrMetallicRoughness":{"roughnessFactor":0.8999999761581421,"metallicFactor":0,"baseColorTexture":{"index":3}},"normalTexture":{"index":4}},{"name":"Compressed ivory stock 2","doubleSided":true,"pbrMetallicRoughness":{"baseColorFactor":[0.7279999852180481,0.7129999995231628,0.656000018119812,1],"roughnessFactor":0.8600000143051147,"metallicFactor":0}},{"name":"how-to-fail edition spine ink","doubleSided":true,"pbrMetallicRoughness":{"roughnessFactor":0.6000000238418579,"metallicFactor":0}},{"name":"MAT_how-to-fail_Registered_Print","extras":{"surface_finish":"Registered print, selective varnish"},"doubleSided":true,"pbrMetallicRoughness":{"roughnessFactor":0.49019607843137253,"metallicFactor":0,"baseColorTexture":{"index":5}},"normalTexture":{"index":6},"extensions":{"KHR_materials_clearcoat":{"clearcoatFactor":1,"clearcoatRoughnessFactor":0.23999999463558197,"clearcoatTexture":{"index":7}}}},{"name":"MAT_Uncoated_Paper_Fibre","doubleSided":true,"pbrMetallicRoughness":{"metallicFactor":0,"baseColorTexture":{"index":0},"metallicRoughnessTexture":{"index":2}},"normalTexture":{"index":1,"scale":0.07000000029802322}}],"meshes":[{"name":"Pressed case joint Back board.010","primitives":[{"attributes":{"POSITION":0,"NORMAL":1},"mode":4,"material":0,"indices":2},{"attributes":{"POSITION":3,"NORMAL":4,"TEXCOORD_0":5},"mode":4,"material":1,"indices":6}]},{"name":"Back collection.010","primitives":[{"attributes":{"POSITION":7,"NORMAL":8},"mode":4,"material":2,"indices":9}]},{"name":"Back description.010","primitives":[{"attributes":{"POSITION":10,"NORMAL":11},"mode":4,"material":2,"indices":12}]},{"name":"Back edition.010","primitives":[{"attributes":{"POSITION":13,"NORMAL":14},"mode":4,"material":3,"indices":15}]},{"name":"Back ISBN.010","primitives":[{"attributes":{"POSITION":16,"NORMAL":17},"mode":4,"material":2,"indices":18}]},{"name":"Back title.010","primitives":[{"attributes":{"POSITION":19,"NORMAL":20},"mode":4,"material":3,"indices":21}]},{"name":"Continuous compressed cut how-to-fail","primitives":[{"attributes":{"POSITION":22,"NORMAL":23,"TEXCOORD_0":24},"mode":4,"material":4,"indices":25},{"attributes":{"POSITION":26,"NORMAL":27},"mode":4,"material":5,"indices":28}]},{"name":"Edition lettering.010","primitives":[{"attributes":{"POSITION":29,"NORMAL":30},"mode":4,"material":6,"indices":31}]},{"name":"Edition lettering.011","primitives":[{"attributes":{"POSITION":32,"NORMAL":33},"mode":4,"material":6,"indices":34}]},{"name":"Pressed case joint Wrapped printed cover.010","primitives":[{"attributes":{"POSITION":35,"NORMAL":36,"TEXCOORD_0":37},"mode":4,"material":7,"indices":38},{"attributes":{"POSITION":39,"NORMAL":40,"TEXCOORD_0":41},"mode":4,"material":8,"indices":42}]},{"name":"Rounded cloth spine.010","primitives":[{"attributes":{"POSITION":43,"NORMAL":44},"mode":4,"material":0,"indices":45}]}],"nodes":[{"name":"Back board.010","extras":{"edge_refined":true,"unpressed_mesh":"Back board.023","pressed_joint_revision":1,"joint_depth_mm":0.12000000000000002,"joint_center_mm":4.8},"translation":[0,0,-0.08250000327825546],"mesh":0},{"name":"Back collection.010","translation":[0,-0.5184000730514526,-0.08649998903274536],"rotation":[0,-0.7071068286895752,0.7071068286895752,3.090862321641907e-8],"mesh":1},{"name":"Back description.010","translation":[0,0.05400000140070915,-0.08649998903274536],"rotation":[0,-0.7071068286895752,0.7071068286895752,3.090862321641907e-8],"mesh":2},{"name":"Back edition.010","translation":[0,-0.7343999743461609,-0.08649998903274536],"rotation":[0,-0.7071068286895752,0.7071068286895752,3.090862321641907e-8],"mesh":3},{"name":"Back ISBN.010","translation":[0,-0.842400074005127,-0.08649998903274536],"rotation":[0,-0.7071068286895752,0.7071068286895752,3.090862321641907e-8],"mesh":4},{"name":"Back title.010","translation":[0,0.6264000535011292,-0.08649998903274536],"rotation":[0,-0.7071068286895752,0.7071068286895752,3.090862321641907e-8],"mesh":5},{"name":"Compressed paper signatures how-to-fail","extras":{"paper_surface_revision":1,"leaf_count":144,"paper_caliper_mm":0.10805555555555557,"binding_structure":"Glued square back"},"mesh":6},{"name":"Edition spine lettering How to Fail at Almost Everything and Still Win Big","mesh":7},{"name":"Edition spine lettering Scott Adams","mesh":8},{"name":"Wrapped printed cover.010","extras":{"edge_refined":true,"unpressed_mesh":"Front board.023","pressed_joint_revision":1,"joint_depth_mm":0.12000000000000002,"joint_center_mm":4.8},"translation":[0.699999988079071,0,0],"mesh":9},{"name":"FrontHinge.010","translation":[-0.7000000476837158,0,0.08250000327825546],"children":[9]},{"name":"Rounded cloth spine.010","mesh":10},{"name":"Publisher_how-to-fail","extras":{"slug":"how-to-fail","dimensions_mm":[140,216,17],"model_design":"Selected publisher front artwork with reconstructed binding, spine, back and interior. Measurements correspond to the selected print edition","edition_source":"https://www.libristo.eu/en/book/how-to-fail-at-almost-everything-and-still-win-big-kind-of-the-story-of-my-life_44117165","surface_stock":"satin-paper","edition_print_evidence":"{\"slug\": \"how-to-fail\", \"spine\": \"Blue paperback and white sans lettering matched to user second-edition photograph; full placement partly reconstructed\", \"back\": \"Existing original showcase typography; reverse not verified\"}"},"scale":[0.09957326203584671,0.09999999403953552,0.09939087182283401],"children":[0,1,2,3,4,5,6,7,8,10,11]}],"scenes":[{"name":"Miguel Personal Library · 13 Editions","nodes":[12]}],"scene":0,"extensionsUsed":["EXT_meshopt_compression","EXT_texture_webp","KHR_materials_clearcoat"],"extensionsRequired":["EXT_meshopt_compression","EXT_texture_webp"]}