{"asset":{"generator":"glTF-Transform v4.5.0","version":"2.0"},"accessors":[{"type":"VEC3","componentType":5126,"count":1316,"max":[0.6997566819190979,1.079819917678833,0.0006610248237848282],"min":[-0.6997566819190979,-1.079819917678833,-0.002835579914972186],"normalized":false,"byteOffset":0,"bufferView":0},{"type":"VEC3","componentType":5126,"count":1316,"normalized":false,"byteOffset":0,"bufferView":1},{"type":"VEC2","componentType":5126,"count":1316,"normalized":false,"byteOffset":0,"bufferView":2},{"type":"VEC2","componentType":5126,"count":1316,"normalized":false,"byteOffset":0,"bufferView":3},{"type":"SCALAR","componentType":5123,"count":6648,"normalized":false,"byteOffset":0,"bufferView":4},{"type":"VEC3","componentType":5126,"count":1182,"max":[0.6997566819190979,1.079819917678833,0.002835579914972186],"min":[-0.6997566819190979,-1.079819917678833,-0.00034903749474324286],"normalized":false,"byteOffset":0,"bufferView":5},{"type":"VEC3","componentType":5126,"count":1182,"normalized":false,"byteOffset":0,"bufferView":6},{"type":"VEC2","componentType":5126,"count":1182,"normalized":false,"byteOffset":0,"bufferView":7},{"type":"VEC2","componentType":5126,"count":1182,"normalized":false,"byteOffset":0,"bufferView":8},{"type":"SCALAR","componentType":5123,"count":5868,"normalized":false,"byteOffset":13296,"bufferView":4},{"type":"VEC3","componentType":5126,"count":514,"max":[0.1009504571557045,0,0.0053944955579936504],"min":[-0.09995229542255402,0,-0.005732110235840082],"normalized":false,"byteOffset":0,"bufferView":9},{"type":"VEC3","componentType":5126,"count":514,"normalized":false,"byteOffset":0,"bufferView":10},{"type":"VEC2","componentType":5126,"count":514,"normalized":false,"byteOffset":0,"bufferView":11},{"type":"SCALAR","componentType":5123,"count":1482,"normalized":false,"byteOffset":25032,"bufferView":4},{"type":"VEC3","componentType":5126,"count":8820,"max":[0.1685081273317337,0,0.07542230188846588],"min":[-0.16806375980377197,0,-0.07163350284099579],"normalized":false,"byteOffset":0,"bufferView":12},{"type":"VEC3","componentType":5126,"count":8820,"normalized":false,"byteOffset":0,"bufferView":13},{"type":"VEC2","componentType":5126,"count":8820,"normalized":false,"byteOffset":0,"bufferView":14},{"type":"SCALAR","componentType":5123,"count":26052,"normalized":false,"byteOffset":27996,"bufferView":4},{"type":"VEC3","componentType":5126,"count":544,"max":[0.08662018924951553,0,0.008807339705526829],"min":[-0.0873776227235794,0,-0.00688733858987689],"normalized":false,"byteOffset":0,"bufferView":15},{"type":"VEC3","componentType":5126,"count":544,"normalized":false,"byteOffset":0,"bufferView":16},{"type":"VEC2","componentType":5126,"count":544,"normalized":false,"byteOffset":0,"bufferView":17},{"type":"SCALAR","componentType":5123,"count":1566,"normalized":false,"byteOffset":80100,"bufferView":4},{"type":"VEC3","componentType":5126,"count":1084,"max":[0.07922586798667908,0,0.005671926308423281],"min":[-0.0783858671784401,0,-0.0060187154449522495],"normalized":false,"byteOffset":0,"bufferView":18},{"type":"VEC3","componentType":5126,"count":1084,"normalized":false,"byteOffset":0,"bufferView":19},{"type":"VEC2","componentType":5126,"count":1084,"normalized":false,"byteOffset":0,"bufferView":20},{"type":"SCALAR","componentType":5123,"count":3234,"normalized":false,"byteOffset":83232,"bufferView":4},{"type":"VEC3","componentType":5126,"count":3765,"max":[0.22402086853981018,0,0.09464988857507706],"min":[-0.22327353060245514,0,-0.08808540552854538],"normalized":false,"byteOffset":0,"bufferView":21},{"type":"VEC3","componentType":5126,"count":3765,"normalized":false,"byteOffset":0,"bufferView":22},{"type":"VEC2","componentType":5126,"count":3765,"normalized":false,"byteOffset":0,"bufferView":23},{"type":"SCALAR","componentType":5123,"count":11109,"normalized":false,"byteOffset":89700,"bufferView":4},{"type":"VEC3","componentType":5126,"count":8772,"max":[0.6729999780654907,1.052099347114563,0.07779999822378159],"min":[-0.6899999976158142,-1.0520827770233154,-0.07779999822378159],"normalized":false,"byteOffset":0,"bufferView":24},{"type":"VEC3","componentType":5126,"count":8772,"normalized":false,"byteOffset":0,"bufferView":25},{"type":"VEC2","componentType":5126,"count":8772,"normalized":false,"byteOffset":0,"bufferView":26},{"type":"SCALAR","componentType":5123,"count":49152,"normalized":false,"byteOffset":111918,"bufferView":4},{"type":"VEC3","componentType":5126,"count":8,"max":[0.6729999780654907,1.0520000457763672,0.07779999822378159],"min":[-0.6899999976158142,-1.0520000457763672,-0.07779999822378159],"normalized":false,"byteOffset":0,"bufferView":27},{"type":"VEC3","componentType":5126,"count":8,"normalized":false,"byteOffset":0,"bufferView":28},{"type":"VEC2","componentType":5126,"count":8,"normalized":false,"byteOffset":0,"bufferView":29},{"type":"SCALAR","componentType":5123,"count":12,"normalized":false,"byteOffset":210222,"bufferView":4},{"type":"VEC3","componentType":5126,"count":35257,"max":[-0.7054939270019531,0.9288000464439392,0.028295306488871574],"min":[-0.7063500285148621,-0.496800035238266,-0.028295306488871574],"normalized":false,"byteOffset":0,"bufferView":30},{"type":"VEC3","componentType":5126,"count":35257,"normalized":false,"byteOffset":0,"bufferView":31},{"type":"VEC2","componentType":5126,"count":35257,"normalized":false,"byteOffset":0,"bufferView":32},{"type":"SCALAR","componentType":5123,"count":53145,"normalized":false,"byteOffset":210246,"bufferView":4},{"type":"VEC3","componentType":5126,"count":8665,"max":[-0.705920934677124,-0.6047999858856201,0.01990717090666294],"min":[-0.7063499689102173,-0.9287999868392944,-0.01990717090666294],"normalized":false,"byteOffset":0,"bufferView":33},{"type":"VEC3","componentType":5126,"count":8665,"normalized":false,"byteOffset":0,"bufferView":34},{"type":"VEC2","componentType":5126,"count":8665,"normalized":false,"byteOffset":0,"bufferView":35},{"type":"SCALAR","componentType":5123,"count":12657,"normalized":false,"byteOffset":316536,"bufferView":4},{"type":"VEC3","componentType":5126,"count":1316,"max":[0.6997566819190979,1.079819917678833,0.003682474372908473],"min":[-0.6997566819190979,-1.079819917678833,-0.0013214598875492811],"normalized":false,"byteOffset":0,"bufferView":36},{"type":"VEC3","componentType":5126,"count":1316,"normalized":false,"byteOffset":0,"bufferView":37},{"type":"VEC2","componentType":5126,"count":1316,"normalized":false,"byteOffset":0,"bufferView":38},{"type":"VEC2","componentType":5126,"count":1316,"normalized":false,"byteOffset":0,"bufferView":39},{"type":"VEC2","componentType":5126,"count":1316,"normalized":false,"byteOffset":0,"bufferView":40},{"type":"VEC2","componentType":5126,"count":1316,"normalized":false,"byteOffset":0,"bufferView":41},{"type":"SCALAR","componentType":5123,"count":6648,"normalized":false,"byteOffset":341850,"bufferView":4},{"type":"VEC3","componentType":5126,"count":1182,"max":[0.6997566819190979,1.079819917678833,0.0013204371789470315],"min":[-0.6997566819190979,-1.079819917678833,-0.003685187781229615],"normalized":false,"byteOffset":0,"bufferView":42},{"type":"VEC3","componentType":5126,"count":1182,"normalized":false,"byteOffset":0,"bufferView":43},{"type":"VEC2","componentType":5126,"count":1182,"normalized":false,"byteOffset":0,"bufferView":44},{"type":"VEC2","componentType":5126,"count":1182,"normalized":false,"byteOffset":0,"bufferView":45},{"type":"VEC2","componentType":5126,"count":1182,"normalized":false,"byteOffset":0,"bufferView":46},{"type":"VEC2","componentType":5126,"count":1182,"normalized":false,"byteOffset":0,"bufferView":47},{"type":"SCALAR","componentType":5123,"count":5868,"normalized":false,"byteOffset":355146,"bufferView":4},{"type":"VEC3","componentType":5126,"count":2490,"max":[-0.6920515298843384,1.0800000429153442,0.08250000327825546],"min":[-0.7059999704360962,-1.0800000429153442,-0.08250000327825546],"normalized":false,"byteOffset":0,"bufferView":48},{"type":"VEC3","componentType":5126,"count":2490,"normalized":false,"byteOffset":0,"bufferView":49},{"type":"VEC2","componentType":5126,"count":2490,"normalized":false,"byteOffset":0,"bufferView":50},{"type":"SCALAR","componentType":5123,"count":13056,"normalized":false,"byteOffset":366882,"bufferView":4},{"type":"VEC3","componentType":5126,"count":1066,"max":[1.3250000476837158,1.0479999780654907,0.001769999973475933],"min":[-0.000021593450583168305,-1.0479999780654907,0],"normalized":false,"byteOffset":0,"bufferView":51},{"type":"VEC3","componentType":5126,"count":1066,"normalized":false,"byteOffset":0,"bufferView":52},{"type":"VEC2","componentType":5126,"count":1066,"normalized":false,"byteOffset":0,"bufferView":53},{"type":"SCALAR","componentType":5123,"count":6384,"normalized":false,"byteOffset":392994,"bufferView":4},{"type":"VEC3","componentType":5126,"count":5152,"max":[0.7583621144294739,-0.0947088897228241,0.0007699999841861427],"min":[0.5799089074134827,-0.11987189948558807,0.0007699999841861427],"normalized":false,"byteOffset":0,"bufferView":54},{"type":"VEC3","componentType":5126,"count":5152,"normalized":false,"byteOffset":0,"bufferView":55},{"type":"VEC2","componentType":5126,"count":5152,"normalized":false,"byteOffset":0,"bufferView":56},{"type":"SCALAR","componentType":5123,"count":15300,"normalized":false,"byteOffset":405762,"bufferView":4},{"type":"VEC3","componentType":5126,"count":9386,"max":[0.7992783188819885,-0.7705342769622803,0.0007699999841861427],"min":[0.5387024879455566,-0.7847614288330078,0.0007699999841861427],"normalized":false,"byteOffset":0,"bufferView":57},{"type":"VEC3","componentType":5126,"count":9386,"normalized":false,"byteOffset":0,"bufferView":58},{"type":"VEC2","componentType":5126,"count":9386,"normalized":false,"byteOffset":0,"bufferView":59},{"type":"SCALAR","componentType":5123,"count":27840,"normalized":false,"byteOffset":436362,"bufferView":4},{"type":"VEC3","componentType":5126,"count":19678,"max":[1.2297086715698242,0.4307709038257599,0.0007699999841861427],"min":[0.10970878601074219,0.3820858895778656,0.0007699999841861427],"normalized":false,"byteOffset":0,"bufferView":60},{"type":"VEC3","componentType":5126,"count":19678,"normalized":false,"byteOffset":0,"bufferView":61},{"type":"VEC2","componentType":5126,"count":19678,"normalized":false,"byteOffset":0,"bufferView":62},{"type":"SCALAR","componentType":5123,"count":58296,"normalized":false,"byteOffset":492042,"bufferView":4}],"bufferViews":[{"buffer":1,"byteOffset":0,"byteLength":15792,"target":34962,"byteStride":12,"extensions":{"EXT_meshopt_compression":{"buffer":0,"byteOffset":0,"byteLength":10246,"mode":"ATTRIBUTES","byteStride":12,"count":1316}}},{"buffer":1,"byteOffset":15792,"byteLength":15792,"target":34962,"byteStride":12,"extensions":{"EXT_meshopt_compression":{"buffer":0,"byteOffset":10248,"byteLength":12342,"mode":"ATTRIBUTES","byteStride":12,"count":1316}}},{"buffer":1,"byteOffset":31584,"byteLength":10528,"target":34962,"byteStride":8,"extensions":{"EXT_meshopt_compression":{"buffer":0,"byteOffset":22592,"byteLength":7392,"mode":"ATTRIBUTES","byteStride":8,"count":1316}}},{"buffer":1,"byteOffset":42112,"byteLength":10528,"target":34962,"byteStride":8,"extensions":{"EXT_meshopt_compression":{"buffer":0,"byteOffset":29984,"byteLength":6123,"mode":"ATTRIBUTES","byteStride":8,"count":1316}}},{"buffer":1,"byteOffset":52640,"byteLength":608634,"target":34963,"extensions":{"EXT_meshopt_compression":{"buffer":0,"byteOffset":36108,"byteLength":325215,"mode":"TRIANGLES","byteStride":2,"count":304317}}},{"buffer":1,"byteOffset":661276,"byteLength":14184,"target":34962,"byteStride":12,"extensions":{"EXT_meshopt_compression":{"buffer":0,"byteOffset":361324,"byteLength":9077,"mode":"ATTRIBUTES","byteStride":12,"count":1182}}},{"buffer":1,"byteOffset":675460,"byteLength":14184,"target":34962,"byteStride":12,"extensions":{"EXT_meshopt_compression":{"buffer":0,"byteOffset":370404,"byteLength":10744,"mode":"ATTRIBUTES","byteStride":12,"count":1182}}},{"buffer":1,"byteOffset":689644,"byteLength":9456,"target":34962,"byteStride":8,"extensions":{"EXT_meshopt_compression":{"buffer":0,"byteOffset":381148,"byteLength":6863,"mode":"ATTRIBUTES","byteStride":8,"count":1182}}},{"buffer":1,"byteOffset":699100,"byteLength":9456,"target":34962,"byteStride":8,"extensions":{"EXT_meshopt_compression":{"buffer":0,"byteOffset":388012,"byteLength":5515,"mode":"ATTRIBUTES","byteStride":8,"count":1182}}},{"buffer":1,"byteOffset":708556,"byteLength":6168,"target":34962,"byteStride":12,"extensions":{"EXT_meshopt_compression":{"buffer":0,"byteOffset":393528,"byteLength":3261,"mode":"ATTRIBUTES","byteStride":12,"count":514}}},{"buffer":1,"byteOffset":714724,"byteLength":6168,"target":34962,"byteStride":12,"extensions":{"EXT_meshopt_compression":{"buffer":0,"byteOffset":396792,"byteLength":141,"mode":"ATTRIBUTES","byteStride":12,"count":514}}},{"buffer":1,"byteOffset":720892,"byteLength":4112,"target":34962,"byteStride":8,"extensions":{"EXT_meshopt_compression":{"buffer":0,"byteOffset":396936,"byteLength":1619,"mode":"ATTRIBUTES","byteStride":8,"count":514}}},{"buffer":1,"byteOffset":725004,"byteLength":105840,"target":34962,"byteStride":12,"extensions":{"EXT_meshopt_compression":{"buffer":0,"byteOffset":398556,"byteLength":45997,"mode":"ATTRIBUTES","byteStride":12,"count":8820}}},{"buffer":1,"byteOffset":830844,"byteLength":105840,"target":34962,"byteStride":12,"extensions":{"EXT_meshopt_compression":{"buffer":0,"byteOffset":444556,"byteLength":1689,"mode":"ATTRIBUTES","byteStride":12,"count":8820}}},{"buffer":1,"byteOffset":936684,"byteLength":70560,"target":34962,"byteStride":8,"extensions":{"EXT_meshopt_compression":{"buffer":0,"byteOffset":446248,"byteLength":25774,"mode":"ATTRIBUTES","byteStride":8,"count":8820}}},{"buffer":1,"byteOffset":1007244,"byteLength":6528,"target":34962,"byteStride":12,"extensions":{"EXT_meshopt_compression":{"buffer":0,"byteOffset":472024,"byteLength":3349,"mode":"ATTRIBUTES","byteStride":12,"count":544}}},{"buffer":1,"byteOffset":1013772,"byteLength":6528,"target":34962,"byteStride":12,"extensions":{"EXT_meshopt_compression":{"buffer":0,"byteOffset":475376,"byteLength":141,"mode":"ATTRIBUTES","byteStride":12,"count":544}}},{"buffer":1,"byteOffset":1020300,"byteLength":4352,"target":34962,"byteStride":8,"extensions":{"EXT_meshopt_compression":{"buffer":0,"byteOffset":475520,"byteLength":1647,"mode":"ATTRIBUTES","byteStride":8,"count":544}}},{"buffer":1,"byteOffset":1024652,"byteLength":13008,"target":34962,"byteStride":12,"extensions":{"EXT_meshopt_compression":{"buffer":0,"byteOffset":477168,"byteLength":6832,"mode":"ATTRIBUTES","byteStride":12,"count":1084}}},{"buffer":1,"byteOffset":1037660,"byteLength":13008,"target":34962,"byteStride":12,"extensions":{"EXT_meshopt_compression":{"buffer":0,"byteOffset":484000,"byteLength":237,"mode":"ATTRIBUTES","byteStride":12,"count":1084}}},{"buffer":1,"byteOffset":1050668,"byteLength":8672,"target":34962,"byteStride":8,"extensions":{"EXT_meshopt_compression":{"buffer":0,"byteOffset":484240,"byteLength":3264,"mode":"ATTRIBUTES","byteStride":8,"count":1084}}},{"buffer":1,"byteOffset":1059340,"byteLength":45180,"target":34962,"byteStride":12,"extensions":{"EXT_meshopt_compression":{"buffer":0,"byteOffset":487504,"byteLength":21072,"mode":"ATTRIBUTES","byteStride":12,"count":3765}}},{"buffer":1,"byteOffset":1104520,"byteLength":45180,"target":34962,"byteStride":12,"extensions":{"EXT_meshopt_compression":{"buffer":0,"byteOffset":508576,"byteLength":741,"mode":"ATTRIBUTES","byteStride":12,"count":3765}}},{"buffer":1,"byteOffset":1149700,"byteLength":30120,"target":34962,"byteStride":8,"extensions":{"EXT_meshopt_compression":{"buffer":0,"byteOffset":509320,"byteLength":10888,"mode":"ATTRIBUTES","byteStride":8,"count":3765}}},{"buffer":1,"byteOffset":1179820,"byteLength":105264,"target":34962,"byteStride":12,"extensions":{"EXT_meshopt_compression":{"buffer":0,"byteOffset":520208,"byteLength":41868,"mode":"ATTRIBUTES","byteStride":12,"count":8772}}},{"buffer":1,"byteOffset":1285084,"byteLength":105264,"target":34962,"byteStride":12,"extensions":{"EXT_meshopt_compression":{"buffer":0,"byteOffset":562076,"byteLength":11326,"mode":"ATTRIBUTES","byteStride":12,"count":8772}}},{"buffer":1,"byteOffset":1390348,"byteLength":70176,"target":34962,"byteStride":8,"extensions":{"EXT_meshopt_compression":{"buffer":0,"byteOffset":573404,"byteLength":35441,"mode":"ATTRIBUTES","byteStride":8,"count":8772}}},{"buffer":1,"byteOffset":1460524,"byteLength":96,"target":34962,"byteStride":12,"extensions":{"EXT_meshopt_compression":{"buffer":0,"byteOffset":608848,"byteLength":89,"mode":"ATTRIBUTES","byteStride":12,"count":8}}},{"buffer":1,"byteOffset":1460620,"byteLength":96,"target":34962,"byteStride":12,"extensions":{"EXT_meshopt_compression":{"buffer":0,"byteOffset":608940,"byteLength":50,"mode":"ATTRIBUTES","byteStride":12,"count":8}}},{"buffer":1,"byteOffset":1460716,"byteLength":64,"target":34962,"byteStride":8,"extensions":{"EXT_meshopt_compression":{"buffer":0,"byteOffset":608992,"byteLength":71,"mode":"ATTRIBUTES","byteStride":8,"count":8}}},{"buffer":1,"byteOffset":1460780,"byteLength":423084,"target":34962,"byteStride":12,"extensions":{"EXT_meshopt_compression":{"buffer":0,"byteOffset":609064,"byteLength":161787,"mode":"ATTRIBUTES","byteStride":12,"count":35257}}},{"buffer":1,"byteOffset":1883864,"byteLength":423084,"target":34962,"byteStride":12,"extensions":{"EXT_meshopt_compression":{"buffer":0,"byteOffset":770852,"byteLength":313610,"mode":"ATTRIBUTES","byteStride":12,"count":35257}}},{"buffer":1,"byteOffset":2306948,"byteLength":282056,"target":34962,"byteStride":8,"extensions":{"EXT_meshopt_compression":{"buffer":0,"byteOffset":1084464,"byteLength":66437,"mode":"ATTRIBUTES","byteStride":8,"count":35257}}},{"buffer":1,"byteOffset":2589004,"byteLength":103980,"target":34962,"byteStride":12,"extensions":{"EXT_meshopt_compression":{"buffer":0,"byteOffset":1150904,"byteLength":38271,"mode":"ATTRIBUTES","byteStride":12,"count":8665}}},{"buffer":1,"byteOffset":2692984,"byteLength":103980,"target":34962,"byteStride":12,"extensions":{"EXT_meshopt_compression":{"buffer":0,"byteOffset":1189176,"byteLength":76275,"mode":"ATTRIBUTES","byteStride":12,"count":8665}}},{"buffer":1,"byteOffset":2796964,"byteLength":69320,"target":34962,"byteStride":8,"extensions":{"EXT_meshopt_compression":{"buffer":0,"byteOffset":1265452,"byteLength":15929,"mode":"ATTRIBUTES","byteStride":8,"count":8665}}},{"buffer":1,"byteOffset":2866284,"byteLength":15792,"target":34962,"byteStride":12,"extensions":{"EXT_meshopt_compression":{"buffer":0,"byteOffset":1281384,"byteLength":10273,"mode":"ATTRIBUTES","byteStride":12,"count":1316}}},{"buffer":1,"byteOffset":2882076,"byteLength":15792,"target":34962,"byteStride":12,"extensions":{"EXT_meshopt_compression":{"buffer":0,"byteOffset":1291660,"byteLength":12348,"mode":"ATTRIBUTES","byteStride":12,"count":1316}}},{"buffer":1,"byteOffset":2897868,"byteLength":10528,"target":34962,"byteStride":8,"extensions":{"EXT_meshopt_compression":{"buffer":0,"byteOffset":1304008,"byteLength":7589,"mode":"ATTRIBUTES","byteStride":8,"count":1316}}},{"buffer":1,"byteOffset":2908396,"byteLength":10528,"target":34962,"byteStride":8,"extensions":{"EXT_meshopt_compression":{"buffer":0,"byteOffset":1311600,"byteLength":7204,"mode":"ATTRIBUTES","byteStride":8,"count":1316}}},{"buffer":1,"byteOffset":2918924,"byteLength":10528,"target":34962,"byteStride":8,"extensions":{"EXT_meshopt_compression":{"buffer":0,"byteOffset":1318804,"byteLength":6745,"mode":"ATTRIBUTES","byteStride":8,"count":1316}}},{"buffer":1,"byteOffset":2929452,"byteLength":10528,"target":34962,"byteStride":8,"extensions":{"EXT_meshopt_compression":{"buffer":0,"byteOffset":1325552,"byteLength":6058,"mode":"ATTRIBUTES","byteStride":8,"count":1316}}},{"buffer":1,"byteOffset":2939980,"byteLength":14184,"target":34962,"byteStride":12,"extensions":{"EXT_meshopt_compression":{"buffer":0,"byteOffset":1331612,"byteLength":9185,"mode":"ATTRIBUTES","byteStride":12,"count":1182}}},{"buffer":1,"byteOffset":2954164,"byteLength":14184,"target":34962,"byteStride":12,"extensions":{"EXT_meshopt_compression":{"buffer":0,"byteOffset":1340800,"byteLength":10619,"mode":"ATTRIBUTES","byteStride":12,"count":1182}}},{"buffer":1,"byteOffset":2968348,"byteLength":9456,"target":34962,"byteStride":8,"extensions":{"EXT_meshopt_compression":{"buffer":0,"byteOffset":1351420,"byteLength":6690,"mode":"ATTRIBUTES","byteStride":8,"count":1182}}},{"buffer":1,"byteOffset":2977804,"byteLength":9456,"target":34962,"byteStride":8,"extensions":{"EXT_meshopt_compression":{"buffer":0,"byteOffset":1358112,"byteLength":6500,"mode":"ATTRIBUTES","byteStride":8,"count":1182}}},{"buffer":1,"byteOffset":2987260,"byteLength":9456,"target":34962,"byteStride":8,"extensions":{"EXT_meshopt_compression":{"buffer":0,"byteOffset":1364612,"byteLength":6168,"mode":"ATTRIBUTES","byteStride":8,"count":1182}}},{"buffer":1,"byteOffset":2996716,"byteLength":9456,"target":34962,"byteStride":8,"extensions":{"EXT_meshopt_compression":{"buffer":0,"byteOffset":1370780,"byteLength":5541,"mode":"ATTRIBUTES","byteStride":8,"count":1182}}},{"buffer":1,"byteOffset":3006172,"byteLength":29880,"target":34962,"byteStride":12,"extensions":{"EXT_meshopt_compression":{"buffer":0,"byteOffset":1376324,"byteLength":15207,"mode":"ATTRIBUTES","byteStride":12,"count":2490}}},{"buffer":1,"byteOffset":3036052,"byteLength":29880,"target":34962,"byteStride":12,"extensions":{"EXT_meshopt_compression":{"buffer":0,"byteOffset":1391532,"byteLength":14967,"mode":"ATTRIBUTES","byteStride":12,"count":2490}}},{"buffer":1,"byteOffset":3065932,"byteLength":19920,"target":34962,"byteStride":8,"extensions":{"EXT_meshopt_compression":{"buffer":0,"byteOffset":1406500,"byteLength":9431,"mode":"ATTRIBUTES","byteStride":8,"count":2490}}},{"buffer":1,"byteOffset":3085852,"byteLength":12792,"target":34962,"byteStride":12,"extensions":{"EXT_meshopt_compression":{"buffer":0,"byteOffset":1415932,"byteLength":4709,"mode":"ATTRIBUTES","byteStride":12,"count":1066}}},{"buffer":1,"byteOffset":3098644,"byteLength":12792,"target":34962,"byteStride":12,"extensions":{"EXT_meshopt_compression":{"buffer":0,"byteOffset":1420644,"byteLength":2147,"mode":"ATTRIBUTES","byteStride":12,"count":1066}}},{"buffer":1,"byteOffset":3111436,"byteLength":8528,"target":34962,"byteStride":8,"extensions":{"EXT_meshopt_compression":{"buffer":0,"byteOffset":1422792,"byteLength":3764,"mode":"ATTRIBUTES","byteStride":8,"count":1066}}},{"buffer":1,"byteOffset":3119964,"byteLength":61824,"target":34962,"byteStride":12,"extensions":{"EXT_meshopt_compression":{"buffer":0,"byteOffset":1426556,"byteLength":21565,"mode":"ATTRIBUTES","byteStride":12,"count":5152}}},{"buffer":1,"byteOffset":3181788,"byteLength":61824,"target":34962,"byteStride":12,"extensions":{"EXT_meshopt_compression":{"buffer":0,"byteOffset":1448124,"byteLength":4269,"mode":"ATTRIBUTES","byteStride":12,"count":5152}}},{"buffer":1,"byteOffset":3243612,"byteLength":41216,"target":34962,"byteStride":8,"extensions":{"EXT_meshopt_compression":{"buffer":0,"byteOffset":1452396,"byteLength":18257,"mode":"ATTRIBUTES","byteStride":8,"count":5152}}},{"buffer":1,"byteOffset":3284828,"byteLength":112632,"target":34962,"byteStride":12,"extensions":{"EXT_meshopt_compression":{"buffer":0,"byteOffset":1470656,"byteLength":35953,"mode":"ATTRIBUTES","byteStride":12,"count":9386}}},{"buffer":1,"byteOffset":3397460,"byteLength":112632,"target":34962,"byteStride":12,"extensions":{"EXT_meshopt_compression":{"buffer":0,"byteOffset":1506612,"byteLength":2862,"mode":"ATTRIBUTES","byteStride":12,"count":9386}}},{"buffer":1,"byteOffset":3510092,"byteLength":75088,"target":34962,"byteStride":8,"extensions":{"EXT_meshopt_compression":{"buffer":0,"byteOffset":1509476,"byteLength":32931,"mode":"ATTRIBUTES","byteStride":8,"count":9386}}},{"buffer":1,"byteOffset":3585180,"byteLength":236136,"target":34962,"byteStride":12,"extensions":{"EXT_meshopt_compression":{"buffer":0,"byteOffset":1542408,"byteLength":80961,"mode":"ATTRIBUTES","byteStride":12,"count":19678}}},{"buffer":1,"byteOffset":3821316,"byteLength":236136,"target":34962,"byteStride":12,"extensions":{"EXT_meshopt_compression":{"buffer":0,"byteOffset":1623372,"byteLength":10770,"mode":"ATTRIBUTES","byteStride":12,"count":19678}}},{"buffer":1,"byteOffset":4057452,"byteLength":157424,"target":34962,"byteStride":8,"extensions":{"EXT_meshopt_compression":{"buffer":0,"byteOffset":1634144,"byteLength":69911,"mode":"ATTRIBUTES","byteStride":8,"count":19678}}}],"samplers":[{"magFilter":9729,"minFilter":9987,"wrapS":10497,"wrapT":10497},{"magFilter":9729,"minFilter":9987,"wrapS":33071,"wrapT":33071}],"textures":[{"sampler":0,"extensions":{"EXT_texture_webp":{"source":1}}},{"sampler":0,"extensions":{"EXT_texture_webp":{"source":0}}},{"sampler":0,"extensions":{"EXT_texture_webp":{"source":2}}},{"sampler":0,"extensions":{"EXT_texture_webp":{"source":4}}},{"sampler":0,"extensions":{"EXT_texture_webp":{"source":3}}},{"sampler":1,"extensions":{"EXT_texture_webp":{"source":7}}},{"sampler":0,"extensions":{"EXT_texture_webp":{"source":6}}},{"sampler":0,"extensions":{"EXT_texture_webp":{"source":5}}}],"images":[{"name":"Paper001_2K-JPG_NormalGL","mimeType":"image/webp","uri":"shared/a4ffc7b7fc49def2917e39f5.webp"},{"name":"Paper001_2K-JPG_Color","mimeType":"image/webp","uri":"shared/75262c983a496cb7fcdc6c19.webp"},{"name":"Paper001_2K-JPG_Roughness","mimeType":"image/webp","uri":"shared/49f61cb86539e805ce6a1ee3.webp"},{"name":"compressed-paper-normal","mimeType":"image/webp","uri":"shared/339c1ac519928878fbaa1237.webp"},{"name":"compressed-paper-color","mimeType":"image/webp","uri":"shared/7701c62282fa7f26c46af450.webp"},{"name":"how-to-fail_print_orm","mimeType":"image/webp","uri":"shared/2938690472b663dde23bfdb2.webp"},{"name":"how-to-fail_print_normal","mimeType":"image/webp","uri":"shared/5109fde1a076da2038877ecc.webp"},{"name":"edition-how-to-fail","mimeType":"image/webp","uri":"shared/d2baaf522929e16dee6a7e79.webp"}],"buffers":[{"uri":"shared/6063637b60654258814cca7b.bin","byteLength":1704056},{"byteLength":4214876,"extensions":{"EXT_meshopt_compression":{"fallback":true}}}],"materials":[{"name":"how-to-fail case material","doubleSided":true,"pbrMetallicRoughness":{"baseColorFactor":[0.15292614698410034,0.3762621283531189,0.6104955673217773,1],"roughnessFactor":0.5,"metallicFactor":0},"extensions":{"KHR_materials_clearcoat":{"clearcoatFactor":0.07999999821186066,"clearcoatRoughnessFactor":0.36000001430511475}}},{"name":"MAT_Uncoated_Paper_Fibre","doubleSided":true,"pbrMetallicRoughness":{"metallicFactor":0,"baseColorTexture":{"index":0,"texCoord":1},"metallicRoughnessTexture":{"index":2,"texCoord":1}},"normalTexture":{"index":1,"texCoord":1,"scale":0.07000000029802322}},{"name":"MAT_how-to-fail_BackInk","doubleSided":true,"pbrMetallicRoughness":{"roughnessFactor":0.4000000059604645,"metallicFactor":0},"extensions":{"KHR_materials_clearcoat":{"clearcoatFactor":0.07000000029802322,"clearcoatRoughnessFactor":0}}},{"name":"MAT_how-to-fail_Stamped_Ink","doubleSided":true,"pbrMetallicRoughness":{"roughnessFactor":0.4000000059604645,"metallicFactor":0},"extensions":{"KHR_materials_clearcoat":{"clearcoatFactor":0.07000000029802322,"clearcoatRoughnessFactor":0.20000000298023224}}},{"name":"Compressed paper cut surface","doubleSided":true,"pbrMetallicRoughness":{"roughnessFactor":0.8999999761581421,"metallicFactor":0,"baseColorTexture":{"index":3}},"normalTexture":{"index":4}},{"name":"Compressed ivory stock 2","doubleSided":true,"pbrMetallicRoughness":{"baseColorFactor":[0.7279999852180481,0.7129999995231628,0.656000018119812,1],"roughnessFactor":0.8600000143051147,"metallicFactor":0}},{"name":"how-to-fail edition spine ink","doubleSided":true,"pbrMetallicRoughness":{"roughnessFactor":0.6000000238418579,"metallicFactor":0}},{"name":"MAT_how-to-fail_Registered_Print","extras":{"surface_finish":"Registered print, selective varnish"},"doubleSided":true,"pbrMetallicRoughness":{"baseColorTexture":{"index":5,"texCoord":1},"metallicRoughnessTexture":{"index":7,"texCoord":1}},"normalTexture":{"index":6,"texCoord":1},"extensions":{"KHR_materials_clearcoat":{"clearcoatFactor":1,"clearcoatRoughnessFactor":0.23999999463558197,"clearcoatTexture":{"index":7,"texCoord":1}}}},{"name":"MAT_Uncoated_Paper_Fibre","doubleSided":true,"pbrMetallicRoughness":{"metallicFactor":0,"baseColorTexture":{"index":0,"texCoord":3},"metallicRoughnessTexture":{"index":2,"texCoord":3}},"normalTexture":{"index":1,"texCoord":3,"scale":0.07000000029802322}},{"name":"MAT_Uncoated_Paper_Fibre","doubleSided":true,"pbrMetallicRoughness":{"metallicFactor":0,"baseColorTexture":{"index":0},"metallicRoughnessTexture":{"index":2}},"normalTexture":{"index":1,"scale":0.07000000029802322}},{"name":"how-to-fail printed ink","doubleSided":true,"pbrMetallicRoughness":{"baseColorFactor":[0.040915198624134064,0.03310476616024971,0.019382361322641373,1],"roughnessFactor":0.8999999761581421,"metallicFactor":0}}],"meshes":[{"name":"Pressed case joint Back board.010","primitives":[{"attributes":{"POSITION":0,"NORMAL":1,"TEXCOORD_0":2,"TEXCOORD_1":3},"mode":4,"material":0,"indices":4},{"attributes":{"POSITION":5,"NORMAL":6,"TEXCOORD_0":7,"TEXCOORD_1":8},"mode":4,"material":1,"indices":9}]},{"name":"Back collection.010","primitives":[{"attributes":{"POSITION":10,"NORMAL":11,"TEXCOORD_0":12},"mode":4,"material":2,"indices":13}]},{"name":"Back description.010","primitives":[{"attributes":{"POSITION":14,"NORMAL":15,"TEXCOORD_0":16},"mode":4,"material":2,"indices":17}]},{"name":"Back edition.010","primitives":[{"attributes":{"POSITION":18,"NORMAL":19,"TEXCOORD_0":20},"mode":4,"material":3,"indices":21}]},{"name":"Back ISBN.010","primitives":[{"attributes":{"POSITION":22,"NORMAL":23,"TEXCOORD_0":24},"mode":4,"material":2,"indices":25}]},{"name":"Back title.010","primitives":[{"attributes":{"POSITION":26,"NORMAL":27,"TEXCOORD_0":28},"mode":4,"material":3,"indices":29}]},{"name":"Continuous compressed cut how-to-fail","primitives":[{"attributes":{"POSITION":30,"NORMAL":31,"TEXCOORD_0":32},"mode":4,"material":4,"indices":33},{"attributes":{"POSITION":34,"NORMAL":35,"TEXCOORD_0":36},"mode":4,"material":5,"indices":37}]},{"name":"Edition lettering.010","primitives":[{"attributes":{"POSITION":38,"NORMAL":39,"TEXCOORD_0":40},"mode":4,"material":6,"indices":41}]},{"name":"Edition lettering.011","primitives":[{"attributes":{"POSITION":42,"NORMAL":43,"TEXCOORD_0":44},"mode":4,"material":6,"indices":45}]},{"name":"Pressed case joint Wrapped printed cover.010","primitives":[{"attributes":{"POSITION":46,"NORMAL":47,"TEXCOORD_0":48,"TEXCOORD_1":49,"TEXCOORD_2":50,"TEXCOORD_3":51},"mode":4,"material":7,"indices":52},{"attributes":{"POSITION":53,"NORMAL":54,"TEXCOORD_0":55,"TEXCOORD_1":56,"TEXCOORD_2":57,"TEXCOORD_3":58},"mode":4,"material":8,"indices":59}]},{"name":"Rounded cloth spine.010","primitives":[{"attributes":{"POSITION":60,"NORMAL":61,"TEXCOORD_0":62},"mode":4,"material":0,"indices":63}]},{"name":"Flexible paper.010","primitives":[{"attributes":{"POSITION":64,"NORMAL":65,"TEXCOORD_0":66},"mode":4,"material":9,"indices":67}]},{"name":"Interior author.010","primitives":[{"attributes":{"POSITION":68,"NORMAL":69,"TEXCOORD_0":70},"mode":4,"material":10,"indices":71}]},{"name":"Interior imprint.010","primitives":[{"attributes":{"POSITION":72,"NORMAL":73,"TEXCOORD_0":74},"mode":4,"material":10,"indices":75}]},{"name":"Interior title.010","primitives":[{"attributes":{"POSITION":76,"NORMAL":77,"TEXCOORD_0":78},"mode":4,"material":10,"indices":79}]}],"nodes":[{"name":"Back board.010","extras":{"edge_refined":true,"unpressed_mesh":"Back board.023","pressed_joint_revision":1,"joint_depth_mm":0.12000000000000002,"joint_center_mm":4.8},"translation":[0,0,-0.08250000327825546],"mesh":0},{"name":"Back collection.010","translation":[0,-0.5184000730514526,-0.08649998903274536],"rotation":[0,-0.7071068286895752,0.7071068286895752,3.090862321641907e-8],"mesh":1},{"name":"Back description.010","translation":[0,0.05400000140070915,-0.08649998903274536],"rotation":[0,-0.7071068286895752,0.7071068286895752,3.090862321641907e-8],"mesh":2},{"name":"Back edition.010","translation":[0,-0.7343999743461609,-0.08649998903274536],"rotation":[0,-0.7071068286895752,0.7071068286895752,3.090862321641907e-8],"mesh":3},{"name":"Back ISBN.010","translation":[0,-0.842400074005127,-0.08649998903274536],"rotation":[0,-0.7071068286895752,0.7071068286895752,3.090862321641907e-8],"mesh":4},{"name":"Back title.010","translation":[0,0.6264000535011292,-0.08649998903274536],"rotation":[0,-0.7071068286895752,0.7071068286895752,3.090862321641907e-8],"mesh":5},{"name":"Compressed paper signatures how-to-fail","extras":{"paper_surface_revision":1,"leaf_count":144,"paper_caliper_mm":0.10805555555555557,"binding_structure":"Glued square back"},"mesh":6},{"name":"Edition spine lettering How to Fail at Almost Everything and Still Win Big","mesh":7},{"name":"Edition spine lettering Scott Adams","mesh":8},{"name":"Wrapped printed cover.010","extras":{"edge_refined":true,"unpressed_mesh":"Front board.023","pressed_joint_revision":1,"joint_depth_mm":0.12000000000000002,"joint_center_mm":4.8},"translation":[0.699999988079071,0,0],"mesh":9},{"name":"FrontHinge.010","translation":[-0.7000000476837158,0,0.08250000327825546],"children":[9]},{"name":"Rounded cloth spine.010","mesh":10},{"name":"Curved title leaf.010","mesh":11},{"name":"Interior author.010","mesh":12},{"name":"Interior imprint.010","mesh":13},{"name":"Interior title.010","mesh":14},{"name":"TurningLeaf.010","translation":[-0.6549999713897705,0,0.07829999923706055],"children":[12,13,14,15]},{"name":"Publisher_how-to-fail","extras":{"slug":"how-to-fail","dimensions_mm":[140,216,17],"model_design":"Selected publisher front artwork with reconstructed binding, spine, back and interior. Measurements correspond to the selected print edition","edition_source":"https://www.libristo.eu/en/book/how-to-fail-at-almost-everything-and-still-win-big-kind-of-the-story-of-my-life_44117165","surface_stock":"satin-paper","edition_print_evidence":"{\"slug\": \"how-to-fail\", \"spine\": \"Blue paperback and white sans lettering matched to user second-edition photograph; full placement partly reconstructed\", \"back\": \"Existing original showcase typography; reverse not verified\"}"},"scale":[0.09957326203584671,0.09999999403953552,0.09939087182283401],"children":[0,1,2,3,4,5,6,7,8,10,11,16]}],"scenes":[{"name":"Miguel Personal Library · 13 Editions","nodes":[17]}],"scene":0,"extensionsUsed":["EXT_meshopt_compression","EXT_texture_webp","KHR_materials_clearcoat"],"extensionsRequired":["EXT_meshopt_compression","EXT_texture_webp"]}