{"asset":{"generator":"glTF-Transform v4.5.0","version":"2.0"},"accessors":[{"type":"VEC3","componentType":5126,"count":2396,"max":[0.7997477054595947,1.1498109102249146,0.010826142504811287],"min":[-0.7997477054595947,-1.1498109102249146,-0.010826142504811287],"normalized":false,"byteOffset":0,"bufferView":0},{"type":"VEC3","componentType":5126,"count":2396,"normalized":false,"byteOffset":0,"bufferView":1},{"type":"VEC2","componentType":5126,"count":2396,"normalized":false,"byteOffset":0,"bufferView":2},{"type":"SCALAR","componentType":5123,"count":12612,"normalized":false,"byteOffset":0,"bufferView":3},{"type":"VEC3","componentType":5126,"count":514,"max":[0.1009504571557045,0,0.0053944955579936504],"min":[-0.09995229542255402,0,-0.005732110235840082],"normalized":false,"byteOffset":0,"bufferView":4},{"type":"VEC3","componentType":5126,"count":514,"normalized":false,"byteOffset":0,"bufferView":5},{"type":"SCALAR","componentType":5123,"count":1482,"normalized":false,"byteOffset":25224,"bufferView":3},{"type":"VEC3","componentType":5126,"count":8399,"max":[0.16308219730854034,0,0.07542230188846588],"min":[-0.16386568546295166,0,-0.07163350284099579],"normalized":false,"byteOffset":0,"bufferView":6},{"type":"VEC3","componentType":5126,"count":8399,"normalized":false,"byteOffset":0,"bufferView":7},{"type":"SCALAR","componentType":5123,"count":24789,"normalized":false,"byteOffset":28188,"bufferView":3},{"type":"VEC3","componentType":5126,"count":578,"max":[0.10127119719982147,0,0.00647339504212141],"min":[-0.10128000378608704,0,-0.006878532003611326],"normalized":false,"byteOffset":0,"bufferView":8},{"type":"VEC3","componentType":5126,"count":578,"normalized":false,"byteOffset":0,"bufferView":9},{"type":"SCALAR","componentType":5123,"count":1656,"normalized":false,"byteOffset":77766,"bufferView":3},{"type":"VEC3","componentType":5126,"count":947,"max":[0.07916422188282013,0,0.005671926308423281],"min":[-0.0783858671784401,0,-0.0060187154449522495],"normalized":false,"byteOffset":0,"bufferView":10},{"type":"VEC3","componentType":5126,"count":947,"normalized":false,"byteOffset":0,"bufferView":11},{"type":"SCALAR","componentType":5123,"count":2793,"normalized":false,"byteOffset":81078,"bufferView":3},{"type":"VEC3","componentType":5126,"count":991,"max":[0.13331982493400574,0,0.014956947416067123],"min":[-0.13218869268894196,0,-0.016168851405382156],"normalized":false,"byteOffset":0,"bufferView":12},{"type":"VEC3","componentType":5126,"count":991,"normalized":false,"byteOffset":0,"bufferView":13},{"type":"SCALAR","componentType":5123,"count":2913,"normalized":false,"byteOffset":86664,"bufferView":3},{"type":"VEC3","componentType":5126,"count":16500,"max":[-0.8432060480117798,-0.7904514670372009,0.0053400001488626],"min":[-0.8442500233650208,-0.9575484991073608,-0.0053400001488626],"normalized":false,"byteOffset":0,"bufferView":14},{"type":"VEC3","componentType":5126,"count":16500,"normalized":false,"byteOffset":0,"bufferView":15},{"type":"SCALAR","componentType":5123,"count":24780,"normalized":false,"byteOffset":92490,"bufferView":3},{"type":"VEC3","componentType":5126,"count":8772,"max":[0.7730000019073486,1.1220992803573608,0.026000000536441803],"min":[-0.795199990272522,-1.1220828294754028,-0.026000000536441803],"normalized":false,"byteOffset":0,"bufferView":16},{"type":"VEC3","componentType":5126,"count":8772,"normalized":false,"byteOffset":0,"bufferView":17},{"type":"VEC2","componentType":5126,"count":8772,"normalized":false,"byteOffset":0,"bufferView":18},{"type":"SCALAR","componentType":5123,"count":49152,"normalized":false,"byteOffset":142050,"bufferView":3},{"type":"VEC3","componentType":5126,"count":8,"max":[0.7730000019073486,1.121999979019165,0.026000000536441803],"min":[-0.7900000214576721,-1.121999979019165,-0.026000000536441803],"normalized":false,"byteOffset":0,"bufferView":19},{"type":"VEC3","componentType":5126,"count":8,"normalized":false,"byteOffset":0,"bufferView":20},{"type":"SCALAR","componentType":5123,"count":12,"normalized":false,"byteOffset":240354,"bufferView":3},{"type":"VEC3","componentType":5126,"count":64,"max":[-0.8246047496795654,-0.6200000047683716,0.02848000079393387],"min":[-0.8440999984741211,-0.621999979019165,-0.02848000079393387],"normalized":false,"byteOffset":0,"bufferView":21},{"type":"VEC3","componentType":5126,"count":64,"normalized":false,"byteOffset":0,"bufferView":22},{"type":"SCALAR","componentType":5123,"count":96,"normalized":false,"byteOffset":240378,"bufferView":3},{"type":"VEC3","componentType":5126,"count":64,"max":[-0.8246047496795654,0.5299999713897705,0.02848000079393387],"min":[-0.8440999984741211,0.527999997138977,-0.02848000079393387],"normalized":false,"byteOffset":0,"bufferView":23},{"type":"VEC3","componentType":5126,"count":64,"normalized":false,"byteOffset":0,"bufferView":24},{"type":"VEC3","componentType":5126,"count":1329,"max":[0.7997472882270813,1.1498106718063354,0.01168831717222929],"min":[-0.7997472882270813,-1.1498106718063354,-0.009263762272894382],"normalized":false,"byteOffset":0,"bufferView":25},{"type":"VEC3","componentType":5126,"count":1329,"normalized":false,"byteOffset":0,"bufferView":26},{"type":"VEC2","componentType":5126,"count":1329,"normalized":false,"byteOffset":0,"bufferView":27},{"type":"SCALAR","componentType":5123,"count":6720,"normalized":false,"byteOffset":240570,"bufferView":3},{"type":"VEC3","componentType":5126,"count":1193,"max":[0.7997472882270813,1.1498106718063354,-0.004561667330563068],"min":[-0.7997472882270813,-1.1498106718063354,-0.011778555810451508],"normalized":false,"byteOffset":0,"bufferView":28},{"type":"VEC3","componentType":5126,"count":1193,"normalized":false,"byteOffset":0,"bufferView":29},{"type":"VEC2","componentType":5126,"count":1193,"normalized":false,"byteOffset":0,"bufferView":30},{"type":"SCALAR","componentType":5123,"count":5940,"normalized":false,"byteOffset":254010,"bufferView":3},{"type":"VEC3","componentType":5126,"count":1010,"max":[-0.7847499847412109,1.1250419616699219,0.026000000536441803],"min":[-0.7984499931335449,1.1169580221176147,-0.026000000536441803],"normalized":false,"byteOffset":0,"bufferView":31},{"type":"VEC3","componentType":5126,"count":1010,"normalized":false,"byteOffset":0,"bufferView":32},{"type":"SCALAR","componentType":5123,"count":6000,"normalized":false,"byteOffset":265890,"bufferView":3},{"type":"VEC3","componentType":5126,"count":616,"max":[-0.7906721830368042,1.1100000143051147,0.026000000536441803],"min":[-0.7982000112533569,-1.1100000143051147,-0.026000000536441803],"normalized":false,"byteOffset":0,"bufferView":33},{"type":"VEC3","componentType":5126,"count":616,"normalized":false,"byteOffset":0,"bufferView":34},{"type":"SCALAR","componentType":5123,"count":1164,"normalized":false,"byteOffset":277890,"bufferView":3},{"type":"VEC3","componentType":5126,"count":730,"max":[0.02171693742275238,-1.1419991254806519,0.02216394804418087],"min":[-0.02171693742275238,-1.4320000410079956,0.006000000052154064],"normalized":false,"byteOffset":0,"bufferView":35},{"type":"VEC3","componentType":5126,"count":730,"normalized":false,"byteOffset":0,"bufferView":36},{"type":"VEC2","componentType":5126,"count":730,"normalized":false,"byteOffset":0,"bufferView":37},{"type":"SCALAR","componentType":5123,"count":4368,"normalized":false,"byteOffset":280218,"bufferView":3},{"type":"VEC3","componentType":5126,"count":2356,"max":[-0.7913093566894531,1.1500545740127563,0.04450000077486038],"min":[-0.8424988985061646,-1.1500494480133057,-0.04450000077486038],"normalized":false,"byteOffset":0,"bufferView":38},{"type":"VEC3","componentType":5126,"count":2356,"normalized":false,"byteOffset":0,"bufferView":39},{"type":"VEC2","componentType":5126,"count":2356,"normalized":false,"byteOffset":0,"bufferView":40},{"type":"SCALAR","componentType":5123,"count":13056,"normalized":false,"byteOffset":288954,"bufferView":3},{"type":"VEC3","componentType":5126,"count":20165,"max":[-0.8432060480117798,0.8890839219093323,0.0053400001488626],"min":[-0.8442500233650208,0.7209160327911377,-0.0053400001488626],"normalized":false,"byteOffset":0,"bufferView":41},{"type":"VEC3","componentType":5126,"count":20165,"normalized":false,"byteOffset":0,"bufferView":42},{"type":"SCALAR","componentType":5123,"count":30312,"normalized":false,"byteOffset":315066,"bufferView":3},{"type":"VEC3","componentType":5126,"count":10162,"max":[-0.8410006165504456,0.09110227227210999,0.0106800002977252],"min":[-0.8442500233650208,-0.09110227227210999,-0.0106800002977252],"normalized":false,"byteOffset":0,"bufferView":43},{"type":"VEC3","componentType":5126,"count":10162,"normalized":false,"byteOffset":0,"bufferView":44},{"type":"SCALAR","componentType":5123,"count":15300,"normalized":false,"byteOffset":375690,"bufferView":3},{"type":"VEC3","componentType":5126,"count":1010,"max":[-0.7847499847412109,-1.1169580221176147,0.026000000536441803],"min":[-0.7984499931335449,-1.1250419616699219,-0.026000000536441803],"normalized":false,"byteOffset":0,"bufferView":45},{"type":"VEC3","componentType":5126,"count":1010,"normalized":false,"byteOffset":0,"bufferView":46}],"bufferViews":[{"buffer":1,"byteOffset":0,"byteLength":28752,"target":34962,"byteStride":12,"extensions":{"EXT_meshopt_compression":{"buffer":0,"byteOffset":0,"byteLength":17274,"mode":"ATTRIBUTES","byteStride":12,"count":2396}}},{"buffer":1,"byteOffset":28752,"byteLength":28752,"target":34962,"byteStride":12,"extensions":{"EXT_meshopt_compression":{"buffer":0,"byteOffset":17276,"byteLength":21621,"mode":"ATTRIBUTES","byteStride":12,"count":2396}}},{"buffer":1,"byteOffset":57504,"byteLength":19168,"target":34962,"byteStride":8,"extensions":{"EXT_meshopt_compression":{"buffer":0,"byteOffset":38900,"byteLength":13519,"mode":"ATTRIBUTES","byteStride":8,"count":2396}}},{"buffer":1,"byteOffset":76672,"byteLength":406290,"target":34963,"extensions":{"EXT_meshopt_compression":{"buffer":0,"byteOffset":52420,"byteLength":207685,"mode":"TRIANGLES","byteStride":2,"count":203145}}},{"buffer":1,"byteOffset":482964,"byteLength":6168,"target":34962,"byteStride":12,"extensions":{"EXT_meshopt_compression":{"buffer":0,"byteOffset":260108,"byteLength":3261,"mode":"ATTRIBUTES","byteStride":12,"count":514}}},{"buffer":1,"byteOffset":489132,"byteLength":6168,"target":34962,"byteStride":12,"extensions":{"EXT_meshopt_compression":{"buffer":0,"byteOffset":263372,"byteLength":141,"mode":"ATTRIBUTES","byteStride":12,"count":514}}},{"buffer":1,"byteOffset":495300,"byteLength":100788,"target":34962,"byteStride":12,"extensions":{"EXT_meshopt_compression":{"buffer":0,"byteOffset":263516,"byteLength":43462,"mode":"ATTRIBUTES","byteStride":12,"count":8399}}},{"buffer":1,"byteOffset":596088,"byteLength":100788,"target":34962,"byteStride":12,"extensions":{"EXT_meshopt_compression":{"buffer":0,"byteOffset":306980,"byteLength":1617,"mode":"ATTRIBUTES","byteStride":12,"count":8399}}},{"buffer":1,"byteOffset":696876,"byteLength":6936,"target":34962,"byteStride":12,"extensions":{"EXT_meshopt_compression":{"buffer":0,"byteOffset":308600,"byteLength":3588,"mode":"ATTRIBUTES","byteStride":12,"count":578}}},{"buffer":1,"byteOffset":703812,"byteLength":6936,"target":34962,"byteStride":12,"extensions":{"EXT_meshopt_compression":{"buffer":0,"byteOffset":312188,"byteLength":153,"mode":"ATTRIBUTES","byteStride":12,"count":578}}},{"buffer":1,"byteOffset":710748,"byteLength":11364,"target":34962,"byteStride":12,"extensions":{"EXT_meshopt_compression":{"buffer":0,"byteOffset":312344,"byteLength":5918,"mode":"ATTRIBUTES","byteStride":12,"count":947}}},{"buffer":1,"byteOffset":722112,"byteLength":11364,"target":34962,"byteStride":12,"extensions":{"EXT_meshopt_compression":{"buffer":0,"byteOffset":318264,"byteLength":213,"mode":"ATTRIBUTES","byteStride":12,"count":947}}},{"buffer":1,"byteOffset":733476,"byteLength":11892,"target":34962,"byteStride":12,"extensions":{"EXT_meshopt_compression":{"buffer":0,"byteOffset":318480,"byteLength":5930,"mode":"ATTRIBUTES","byteStride":12,"count":991}}},{"buffer":1,"byteOffset":745368,"byteLength":11892,"target":34962,"byteStride":12,"extensions":{"EXT_meshopt_compression":{"buffer":0,"byteOffset":324412,"byteLength":225,"mode":"ATTRIBUTES","byteStride":12,"count":991}}},{"buffer":1,"byteOffset":757260,"byteLength":198000,"target":34962,"byteStride":12,"extensions":{"EXT_meshopt_compression":{"buffer":0,"byteOffset":324640,"byteLength":75188,"mode":"ATTRIBUTES","byteStride":12,"count":16500}}},{"buffer":1,"byteOffset":955260,"byteLength":198000,"target":34962,"byteStride":12,"extensions":{"EXT_meshopt_compression":{"buffer":0,"byteOffset":399828,"byteLength":135181,"mode":"ATTRIBUTES","byteStride":12,"count":16500}}},{"buffer":1,"byteOffset":1153260,"byteLength":105264,"target":34962,"byteStride":12,"extensions":{"EXT_meshopt_compression":{"buffer":0,"byteOffset":535012,"byteLength":43186,"mode":"ATTRIBUTES","byteStride":12,"count":8772}}},{"buffer":1,"byteOffset":1258524,"byteLength":105264,"target":34962,"byteStride":12,"extensions":{"EXT_meshopt_compression":{"buffer":0,"byteOffset":578200,"byteLength":19609,"mode":"ATTRIBUTES","byteStride":12,"count":8772}}},{"buffer":1,"byteOffset":1363788,"byteLength":70176,"target":34962,"byteStride":8,"extensions":{"EXT_meshopt_compression":{"buffer":0,"byteOffset":597812,"byteLength":34008,"mode":"ATTRIBUTES","byteStride":8,"count":8772}}},{"buffer":1,"byteOffset":1433964,"byteLength":96,"target":34962,"byteStride":12,"extensions":{"EXT_meshopt_compression":{"buffer":0,"byteOffset":631820,"byteLength":89,"mode":"ATTRIBUTES","byteStride":12,"count":8}}},{"buffer":1,"byteOffset":1434060,"byteLength":96,"target":34962,"byteStride":12,"extensions":{"EXT_meshopt_compression":{"buffer":0,"byteOffset":631912,"byteLength":50,"mode":"ATTRIBUTES","byteStride":12,"count":8}}},{"buffer":1,"byteOffset":1434156,"byteLength":768,"target":34962,"byteStride":12,"extensions":{"EXT_meshopt_compression":{"buffer":0,"byteOffset":631964,"byteLength":328,"mode":"ATTRIBUTES","byteStride":12,"count":64}}},{"buffer":1,"byteOffset":1434924,"byteLength":768,"target":34962,"byteStride":12,"extensions":{"EXT_meshopt_compression":{"buffer":0,"byteOffset":632292,"byteLength":388,"mode":"ATTRIBUTES","byteStride":12,"count":64}}},{"buffer":1,"byteOffset":1435692,"byteLength":768,"target":34962,"byteStride":12,"extensions":{"EXT_meshopt_compression":{"buffer":0,"byteOffset":632680,"byteLength":324,"mode":"ATTRIBUTES","byteStride":12,"count":64}}},{"buffer":1,"byteOffset":1436460,"byteLength":768,"target":34962,"byteStride":12,"extensions":{"EXT_meshopt_compression":{"buffer":0,"byteOffset":633004,"byteLength":388,"mode":"ATTRIBUTES","byteStride":12,"count":64}}},{"buffer":1,"byteOffset":1437228,"byteLength":15948,"target":34962,"byteStride":12,"extensions":{"EXT_meshopt_compression":{"buffer":0,"byteOffset":633392,"byteLength":10407,"mode":"ATTRIBUTES","byteStride":12,"count":1329}}},{"buffer":1,"byteOffset":1453176,"byteLength":15948,"target":34962,"byteStride":12,"extensions":{"EXT_meshopt_compression":{"buffer":0,"byteOffset":643800,"byteLength":12430,"mode":"ATTRIBUTES","byteStride":12,"count":1329}}},{"buffer":1,"byteOffset":1469124,"byteLength":10632,"target":34962,"byteStride":8,"extensions":{"EXT_meshopt_compression":{"buffer":0,"byteOffset":656232,"byteLength":6910,"mode":"ATTRIBUTES","byteStride":8,"count":1329}}},{"buffer":1,"byteOffset":1479756,"byteLength":14316,"target":34962,"byteStride":12,"extensions":{"EXT_meshopt_compression":{"buffer":0,"byteOffset":663144,"byteLength":8915,"mode":"ATTRIBUTES","byteStride":12,"count":1193}}},{"buffer":1,"byteOffset":1494072,"byteLength":14316,"target":34962,"byteStride":12,"extensions":{"EXT_meshopt_compression":{"buffer":0,"byteOffset":672060,"byteLength":10524,"mode":"ATTRIBUTES","byteStride":12,"count":1193}}},{"buffer":1,"byteOffset":1508388,"byteLength":9544,"target":34962,"byteStride":8,"extensions":{"EXT_meshopt_compression":{"buffer":0,"byteOffset":682584,"byteLength":6810,"mode":"ATTRIBUTES","byteStride":8,"count":1193}}},{"buffer":1,"byteOffset":1517932,"byteLength":12120,"target":34962,"byteStride":12,"extensions":{"EXT_meshopt_compression":{"buffer":0,"byteOffset":689396,"byteLength":5845,"mode":"ATTRIBUTES","byteStride":12,"count":1010}}},{"buffer":1,"byteOffset":1530052,"byteLength":12120,"target":34962,"byteStride":12,"extensions":{"EXT_meshopt_compression":{"buffer":0,"byteOffset":695244,"byteLength":10873,"mode":"ATTRIBUTES","byteStride":12,"count":1010}}},{"buffer":1,"byteOffset":1542172,"byteLength":7392,"target":34962,"byteStride":12,"extensions":{"EXT_meshopt_compression":{"buffer":0,"byteOffset":706120,"byteLength":1814,"mode":"ATTRIBUTES","byteStride":12,"count":616}}},{"buffer":1,"byteOffset":1549564,"byteLength":7392,"target":34962,"byteStride":12,"extensions":{"EXT_meshopt_compression":{"buffer":0,"byteOffset":707936,"byteLength":6064,"mode":"ATTRIBUTES","byteStride":12,"count":616}}},{"buffer":1,"byteOffset":1556956,"byteLength":8760,"target":34962,"byteStride":12,"extensions":{"EXT_meshopt_compression":{"buffer":0,"byteOffset":714000,"byteLength":4464,"mode":"ATTRIBUTES","byteStride":12,"count":730}}},{"buffer":1,"byteOffset":1565716,"byteLength":8760,"target":34962,"byteStride":12,"extensions":{"EXT_meshopt_compression":{"buffer":0,"byteOffset":718464,"byteLength":6185,"mode":"ATTRIBUTES","byteStride":12,"count":730}}},{"buffer":1,"byteOffset":1574476,"byteLength":5840,"target":34962,"byteStride":8,"extensions":{"EXT_meshopt_compression":{"buffer":0,"byteOffset":724652,"byteLength":2354,"mode":"ATTRIBUTES","byteStride":8,"count":730}}},{"buffer":1,"byteOffset":1580316,"byteLength":28272,"target":34962,"byteStride":12,"extensions":{"EXT_meshopt_compression":{"buffer":0,"byteOffset":727008,"byteLength":16129,"mode":"ATTRIBUTES","byteStride":12,"count":2356}}},{"buffer":1,"byteOffset":1608588,"byteLength":28272,"target":34962,"byteStride":12,"extensions":{"EXT_meshopt_compression":{"buffer":0,"byteOffset":743140,"byteLength":23627,"mode":"ATTRIBUTES","byteStride":12,"count":2356}}},{"buffer":1,"byteOffset":1636860,"byteLength":18848,"target":34962,"byteStride":8,"extensions":{"EXT_meshopt_compression":{"buffer":0,"byteOffset":766768,"byteLength":8453,"mode":"ATTRIBUTES","byteStride":8,"count":2356}}},{"buffer":1,"byteOffset":1655708,"byteLength":241980,"target":34962,"byteStride":12,"extensions":{"EXT_meshopt_compression":{"buffer":0,"byteOffset":775224,"byteLength":90170,"mode":"ATTRIBUTES","byteStride":12,"count":20165}}},{"buffer":1,"byteOffset":1897688,"byteLength":241980,"target":34962,"byteStride":12,"extensions":{"EXT_meshopt_compression":{"buffer":0,"byteOffset":865396,"byteLength":164020,"mode":"ATTRIBUTES","byteStride":12,"count":20165}}},{"buffer":1,"byteOffset":2139668,"byteLength":121944,"target":34962,"byteStride":12,"extensions":{"EXT_meshopt_compression":{"buffer":0,"byteOffset":1029416,"byteLength":51097,"mode":"ATTRIBUTES","byteStride":12,"count":10162}}},{"buffer":1,"byteOffset":2261612,"byteLength":121944,"target":34962,"byteStride":12,"extensions":{"EXT_meshopt_compression":{"buffer":0,"byteOffset":1080516,"byteLength":85073,"mode":"ATTRIBUTES","byteStride":12,"count":10162}}},{"buffer":1,"byteOffset":2383556,"byteLength":12120,"target":34962,"byteStride":12,"extensions":{"EXT_meshopt_compression":{"buffer":0,"byteOffset":1165592,"byteLength":5849,"mode":"ATTRIBUTES","byteStride":12,"count":1010}}},{"buffer":1,"byteOffset":2395676,"byteLength":12120,"target":34962,"byteStride":12,"extensions":{"EXT_meshopt_compression":{"buffer":0,"byteOffset":1171444,"byteLength":10873,"mode":"ATTRIBUTES","byteStride":12,"count":1010}}}],"samplers":[{"magFilter":9729,"minFilter":9987,"wrapS":10497,"wrapT":10497},{"magFilter":9729,"minFilter":9987,"wrapS":33071,"wrapT":33071}],"textures":[{"sampler":0,"extensions":{"EXT_texture_webp":{"source":0}}},{"sampler":0,"extensions":{"EXT_texture_webp":{"source":2}}},{"sampler":0,"extensions":{"EXT_texture_webp":{"source":1}}},{"sampler":1,"extensions":{"EXT_texture_webp":{"source":5}}},{"sampler":0,"extensions":{"EXT_texture_webp":{"source":4}}},{"sampler":0,"extensions":{"EXT_texture_webp":{"source":3}}},{"sampler":0,"extensions":{"EXT_texture_webp":{"source":6}}}],"images":[{"name":"book_pattern_nor_gl_2k","mimeType":"image/webp","uri":"shared/8de172b46ec41fd3863b660a.webp"},{"name":"compressed-paper-normal","mimeType":"image/webp","uri":"shared/339c1ac519928878fbaa1237.webp"},{"name":"compressed-paper-color","mimeType":"image/webp","uri":"shared/7701c62282fa7f26c46af450.webp"},{"name":"le-petit-prince_print_orm","mimeType":"image/webp","uri":"shared/71a1a3588fc8bcb5d0819a5a.webp"},{"name":"le-petit-prince_print_normal","mimeType":"image/webp","uri":"shared/29b372daa5505e9f1f2c69c8.webp"},{"name":"edition-le-petit-prince","mimeType":"image/webp","uri":"shared/eb0b9013669935da8ff50a65.webp"},{"name":"book_pattern_rough_2k","mimeType":"image/webp","uri":"shared/a04d51bd9431742f3e8e78f4.webp"}],"buffers":[{"uri":"shared/797977d2ab00b7d70105e012.bin","byteLength":1182320},{"byteLength":2407796,"extensions":{"EXT_meshopt_compression":{"fallback":true}}}],"materials":[{"name":"le-petit-prince case material","doubleSided":true,"pbrMetallicRoughness":{"baseColorFactor":[0.8549926280975342,0.8227857351303101,0.715693473815918,1],"roughnessFactor":0.5,"metallicFactor":0},"normalTexture":{"index":0,"scale":0.1599999964237213},"extensions":{"KHR_materials_clearcoat":{"clearcoatFactor":0.014999999664723873,"clearcoatRoughnessFactor":0.36000001430511475}}},{"name":"MAT_le-petit-prince_BackInk","doubleSided":true,"pbrMetallicRoughness":{"baseColorFactor":[0.2746773064136505,0.2158605009317398,0.05780543014407158,1],"roughnessFactor":0.4000000059604645,"metallicFactor":0.6499999761581421},"extensions":{"KHR_materials_clearcoat":{"clearcoatFactor":0.07000000029802322,"clearcoatRoughnessFactor":0}}},{"name":"MAT_le-petit-prince_Stamped_Ink","doubleSided":true,"pbrMetallicRoughness":{"baseColorFactor":[0.2746773064136505,0.2158605009317398,0.05780543014407158,1],"roughnessFactor":0.4000000059604645,"metallicFactor":0.6499999761581421},"extensions":{"KHR_materials_clearcoat":{"clearcoatFactor":0.07000000029802322,"clearcoatRoughnessFactor":0.20000000298023224}}},{"name":"MAT_le-petit-prince_Stamped_Ink.001","doubleSided":true,"pbrMetallicRoughness":{"baseColorFactor":[0.2746773064136505,0.2158605009317398,0.05780543014407158,1],"roughnessFactor":0.4000000059604645,"metallicFactor":0.6499999761581421},"extensions":{"KHR_materials_clearcoat":{"clearcoatFactor":0.07000000029802322,"clearcoatRoughnessFactor":0.20000000298023224}}},{"name":"Compressed paper cut surface","doubleSided":true,"pbrMetallicRoughness":{"roughnessFactor":0.8999999761581421,"metallicFactor":0,"baseColorTexture":{"index":1}},"normalTexture":{"index":2}},{"name":"Compressed ivory stock 2","doubleSided":true,"pbrMetallicRoughness":{"baseColorFactor":[0.7279999852180481,0.7129999995231628,0.656000018119812,1],"roughnessFactor":0.8600000143051147,"metallicFactor":0}},{"name":"MAT_le-petit-prince_Registered_Print","extras":{"surface_finish":"Registered print, selective varnish and metallic stamping"},"doubleSided":true,"pbrMetallicRoughness":{"baseColorTexture":{"index":3},"metallicRoughnessTexture":{"index":5}},"normalTexture":{"index":4},"extensions":{"KHR_materials_clearcoat":{"clearcoatFactor":1,"clearcoatRoughnessFactor":0.23999999463558197,"clearcoatTexture":{"index":5}}}},{"name":"Endband cotton ecru","doubleSided":true,"pbrMetallicRoughness":{"baseColorFactor":[0.5,0.46000000834465027,0.3499999940395355,1],"roughnessFactor":0.8799999952316284,"metallicFactor":0}},{"name":"Binding linen warm ecru","doubleSided":true,"pbrMetallicRoughness":{"baseColorFactor":[0.3799999952316284,0.3400000035762787,0.25999999046325684,1],"roughnessFactor":0.9300000071525574,"metallicFactor":0}},{"name":"le-petit-prince woven ribbon","doubleSided":true,"pbrMetallicRoughness":{"baseColorFactor":[0.2746773064136505,0.2158605009317398,0.05780543014407158,1],"metallicFactor":0,"metallicRoughnessTexture":{"index":6}},"normalTexture":{"index":0,"scale":1.149999976158142},"extensions":{"KHR_materials_sheen":{"sheenColorFactor":[1,1,1],"sheenRoughnessFactor":0.5}}}],"meshes":[{"name":"Pressed case joint Back board.004","primitives":[{"attributes":{"POSITION":0,"NORMAL":1,"TEXCOORD_0":2},"mode":4,"material":0,"indices":3}]},{"name":"Back collection.004","primitives":[{"attributes":{"POSITION":4,"NORMAL":5},"mode":4,"material":1,"indices":6}]},{"name":"Back description.004","primitives":[{"attributes":{"POSITION":7,"NORMAL":8},"mode":4,"material":1,"indices":9}]},{"name":"Back edition.004","primitives":[{"attributes":{"POSITION":10,"NORMAL":11},"mode":4,"material":2,"indices":12}]},{"name":"Back ISBN.004","primitives":[{"attributes":{"POSITION":13,"NORMAL":14},"mode":4,"material":1,"indices":15}]},{"name":"Back title.004","primitives":[{"attributes":{"POSITION":16,"NORMAL":17},"mode":4,"material":2,"indices":18}]},{"name":"Collection mark.004","primitives":[{"attributes":{"POSITION":19,"NORMAL":20},"mode":4,"material":3,"indices":21}]},{"name":"Continuous compressed cut le-petit-prince","primitives":[{"attributes":{"POSITION":22,"NORMAL":23,"TEXCOORD_0":24},"mode":4,"material":4,"indices":25},{"attributes":{"POSITION":26,"NORMAL":27},"mode":4,"material":5,"indices":28}]},{"name":"Curved foil rule.008","primitives":[{"attributes":{"POSITION":29,"NORMAL":30},"mode":4,"material":3,"indices":31}]},{"name":"Curved foil rule.009","primitives":[{"attributes":{"POSITION":32,"NORMAL":33},"mode":4,"material":3,"indices":31}]},{"name":"Pressed case joint Wrapped printed cover.004","primitives":[{"attributes":{"POSITION":34,"NORMAL":35,"TEXCOORD_0":36},"mode":4,"material":6,"indices":37},{"attributes":{"POSITION":38,"NORMAL":39,"TEXCOORD_0":40},"mode":4,"material":0,"indices":41}]},{"name":"Head textile endband le-petit-prince","primitives":[{"attributes":{"POSITION":42,"NORMAL":43},"mode":4,"material":7,"indices":44}]},{"name":"Linen spine lining le-petit-prince","primitives":[{"attributes":{"POSITION":45,"NORMAL":46},"mode":4,"material":8,"indices":47}]},{"name":"Ribbon flexible satin le-petit-prince","primitives":[{"attributes":{"POSITION":48,"NORMAL":49,"TEXCOORD_0":50},"mode":4,"material":9,"indices":51}]},{"name":"Rounded cloth spine.004","primitives":[{"attributes":{"POSITION":52,"NORMAL":53,"TEXCOORD_0":54},"mode":4,"material":0,"indices":55}]},{"name":"Spine author.004","primitives":[{"attributes":{"POSITION":56,"NORMAL":57},"mode":4,"material":3,"indices":58}]},{"name":"Spine title.004","primitives":[{"attributes":{"POSITION":59,"NORMAL":60},"mode":4,"material":3,"indices":61}]},{"name":"Tail textile endband le-petit-prince","primitives":[{"attributes":{"POSITION":62,"NORMAL":63},"mode":4,"material":7,"indices":44}]}],"nodes":[{"name":"Back board.004","extras":{"edge_refined":true,"unpressed_mesh":"Back board.017","pressed_joint_revision":1,"joint_depth_mm":1.030143142231421,"joint_center_mm":6.400000000000001},"translation":[0,0,-0.044499997049570084],"mesh":0},{"name":"Back collection.004","translation":[0,-0.5519999861717224,-0.05649999529123306],"rotation":[0,-0.7071068286895752,0.7071068286895752,3.090862321641907e-8],"mesh":1},{"name":"Back description.004","translation":[0,0.057500001043081284,-0.05649999529123306],"rotation":[0,-0.7071068286895752,0.7071068286895752,3.090862321641907e-8],"mesh":2},{"name":"Back edition.004","translation":[0,-0.7820000052452087,-0.05649999529123306],"rotation":[0,-0.7071068286895752,0.7071068286895752,3.090862321641907e-8],"mesh":3},{"name":"Back ISBN.004","translation":[0,-0.8970000147819519,-0.05649999529123306],"rotation":[0,-0.7071068286895752,0.7071068286895752,3.090862321641907e-8],"mesh":4},{"name":"Back title.004","translation":[0,0.6669999957084656,-0.05649999529123306],"rotation":[0,-0.7071068286895752,0.7071068286895752,3.090862321641907e-8],"mesh":5},{"name":"Collection mark.004","mesh":6},{"name":"Compressed paper signatures le-petit-prince","extras":{"paper_surface_revision":1,"leaf_count":47,"paper_caliper_mm":0.11063829787234042,"binding_structure":"Rounded and backed signatures"},"mesh":7},{"name":"Curved foil rule.008","mesh":8},{"name":"Curved foil rule.009","mesh":9},{"name":"Wrapped printed cover.004","extras":{"edge_refined":true,"unpressed_mesh":"Front board.017","pressed_joint_revision":1,"joint_depth_mm":1.1207684074114432,"joint_center_mm":6.400000000000001},"translation":[0.800000011920929,0,0],"mesh":10},{"name":"FrontHinge.004","translation":[-0.7999999523162842,0,0.044499997049570084],"children":[10]},{"name":"Head textile endband le-petit-prince","extras":{"binding_revision":2},"mesh":11},{"name":"Linen spine lining le-petit-prince","extras":{"binding_revision":2},"mesh":12},{"name":"Ribbon flexible satin le-petit-prince","extras":{"binding_revision":2,"ribbon_width_dm":0.043,"ribbon_length_dm":0.29,"ribbon_anchor_dm":[0,-1.142,0.006]},"mesh":13},{"name":"Rounded cloth spine.004","mesh":14},{"name":"Spine author.004","mesh":15},{"name":"Spine title.004","mesh":16},{"name":"Tail textile endband le-petit-prince","extras":{"binding_revision":2},"mesh":17},{"name":"Publisher_le-petit-prince","extras":{"slug":"le-petit-prince","dimensions_mm":[160,230,11],"model_design":"Selected publisher front artwork with reconstructed binding, spine, back and interior. 70th-anniversary package artwork on a reconstructed book; 160 × 230 mm format, modeled 11 mm book depth. CD/DVD packaging is not included","edition_source":"https://www.cercle-enseignement.com/Ouvrages/Gallimard-Jeunesse/Hors-Serie-Musique/Le-Petit-Prince","surface_stock":"foil-paper","edition_print_evidence":"{\"slug\": \"le-petit-prince\", \"spine\": \"Existing reconstruction; matching spine photograph not found\", \"back\": \"Existing original showcase typography; reverse not verified\"}"},"scale":[0.09741254895925522,0.09999547898769379,0.09911801666021347],"children":[0,1,2,3,4,5,6,7,8,9,11,12,13,14,15,16,17,18]}],"scenes":[{"name":"Miguel Personal Library · 13 Editions","nodes":[19]}],"scene":0,"extensionsUsed":["EXT_meshopt_compression","EXT_texture_webp","KHR_materials_clearcoat","KHR_materials_sheen"],"extensionsRequired":["EXT_meshopt_compression","EXT_texture_webp"]}