{"asset":{"generator":"glTF-Transform v4.5.0","version":"2.0"},"accessors":[{"type":"VEC3","componentType":5126,"count":2396,"max":[0.7997477054595947,1.1498109102249146,0.010826142504811287],"min":[-0.7997477054595947,-1.1498109102249146,-0.010826142504811287],"normalized":false,"byteOffset":0,"bufferView":0},{"type":"VEC3","componentType":5126,"count":2396,"normalized":false,"byteOffset":0,"bufferView":1},{"type":"VEC2","componentType":5126,"count":2396,"normalized":false,"byteOffset":0,"bufferView":2},{"type":"SCALAR","componentType":5123,"count":12612,"normalized":false,"byteOffset":0,"bufferView":3},{"type":"VEC3","componentType":5126,"count":514,"max":[0.1009504571557045,0,0.0053944955579936504],"min":[-0.09995229542255402,0,-0.005732110235840082],"normalized":false,"byteOffset":0,"bufferView":4},{"type":"VEC3","componentType":5126,"count":514,"normalized":false,"byteOffset":0,"bufferView":5},{"type":"VEC2","componentType":5126,"count":514,"normalized":false,"byteOffset":0,"bufferView":6},{"type":"SCALAR","componentType":5123,"count":1482,"normalized":false,"byteOffset":25224,"bufferView":3},{"type":"VEC3","componentType":5126,"count":8399,"max":[0.16308219730854034,0,0.07542230188846588],"min":[-0.16386568546295166,0,-0.07163350284099579],"normalized":false,"byteOffset":0,"bufferView":7},{"type":"VEC3","componentType":5126,"count":8399,"normalized":false,"byteOffset":0,"bufferView":8},{"type":"VEC2","componentType":5126,"count":8399,"normalized":false,"byteOffset":0,"bufferView":9},{"type":"SCALAR","componentType":5123,"count":24789,"normalized":false,"byteOffset":28188,"bufferView":3},{"type":"VEC3","componentType":5126,"count":578,"max":[0.10127119719982147,0,0.00647339504212141],"min":[-0.10128000378608704,0,-0.006878532003611326],"normalized":false,"byteOffset":0,"bufferView":10},{"type":"VEC3","componentType":5126,"count":578,"normalized":false,"byteOffset":0,"bufferView":11},{"type":"VEC2","componentType":5126,"count":578,"normalized":false,"byteOffset":0,"bufferView":12},{"type":"SCALAR","componentType":5123,"count":1656,"normalized":false,"byteOffset":77766,"bufferView":3},{"type":"VEC3","componentType":5126,"count":947,"max":[0.07916422188282013,0,0.005671926308423281],"min":[-0.0783858671784401,0,-0.0060187154449522495],"normalized":false,"byteOffset":0,"bufferView":13},{"type":"VEC3","componentType":5126,"count":947,"normalized":false,"byteOffset":0,"bufferView":14},{"type":"VEC2","componentType":5126,"count":947,"normalized":false,"byteOffset":0,"bufferView":15},{"type":"SCALAR","componentType":5123,"count":2793,"normalized":false,"byteOffset":81078,"bufferView":3},{"type":"VEC3","componentType":5126,"count":168,"max":[0.7649999856948853,1.1174999475479126,0.0010000000474974513],"min":[-0.7649999856948853,-1.1174999475479126,-0.0010000000474974513],"normalized":false,"byteOffset":0,"bufferView":16},{"type":"VEC3","componentType":5126,"count":168,"normalized":false,"byteOffset":0,"bufferView":17},{"type":"VEC2","componentType":5126,"count":168,"normalized":false,"byteOffset":0,"bufferView":18},{"type":"VEC2","componentType":5126,"count":168,"normalized":false,"byteOffset":0,"bufferView":19},{"type":"SCALAR","componentType":5123,"count":564,"normalized":false,"byteOffset":86664,"bufferView":3},{"type":"VEC3","componentType":5126,"count":991,"max":[0.13331982493400574,0,0.014956947416067123],"min":[-0.13218869268894196,0,-0.016168851405382156],"normalized":false,"byteOffset":0,"bufferView":20},{"type":"VEC3","componentType":5126,"count":991,"normalized":false,"byteOffset":0,"bufferView":21},{"type":"VEC2","componentType":5126,"count":991,"normalized":false,"byteOffset":0,"bufferView":22},{"type":"SCALAR","componentType":5123,"count":2913,"normalized":false,"byteOffset":87792,"bufferView":3},{"type":"VEC3","componentType":5126,"count":16500,"max":[-0.8432060480117798,-0.7904514670372009,0.0053400001488626],"min":[-0.8442500233650208,-0.9575484991073608,-0.0053400001488626],"normalized":false,"byteOffset":0,"bufferView":23},{"type":"VEC3","componentType":5126,"count":16500,"normalized":false,"byteOffset":0,"bufferView":24},{"type":"VEC2","componentType":5126,"count":16500,"normalized":false,"byteOffset":0,"bufferView":25},{"type":"SCALAR","componentType":5123,"count":24780,"normalized":false,"byteOffset":93618,"bufferView":3},{"type":"VEC3","componentType":5126,"count":8772,"max":[0.7730000019073486,1.1220992803573608,0.026000000536441803],"min":[-0.795199990272522,-1.1220828294754028,-0.026000000536441803],"normalized":false,"byteOffset":0,"bufferView":26},{"type":"VEC3","componentType":5126,"count":8772,"normalized":false,"byteOffset":0,"bufferView":27},{"type":"VEC2","componentType":5126,"count":8772,"normalized":false,"byteOffset":0,"bufferView":28},{"type":"SCALAR","componentType":5123,"count":49152,"normalized":false,"byteOffset":143178,"bufferView":3},{"type":"VEC3","componentType":5126,"count":8,"max":[0.7730000019073486,1.121999979019165,0.026000000536441803],"min":[-0.7900000214576721,-1.121999979019165,-0.026000000536441803],"normalized":false,"byteOffset":0,"bufferView":29},{"type":"VEC3","componentType":5126,"count":8,"normalized":false,"byteOffset":0,"bufferView":30},{"type":"VEC2","componentType":5126,"count":8,"normalized":false,"byteOffset":0,"bufferView":31},{"type":"SCALAR","componentType":5123,"count":12,"normalized":false,"byteOffset":241482,"bufferView":3},{"type":"VEC3","componentType":5126,"count":64,"max":[-0.8246047496795654,-0.6200000047683716,0.02848000079393387],"min":[-0.8440999984741211,-0.621999979019165,-0.02848000079393387],"normalized":false,"byteOffset":0,"bufferView":32},{"type":"VEC3","componentType":5126,"count":64,"normalized":false,"byteOffset":0,"bufferView":33},{"type":"VEC2","componentType":5126,"count":64,"normalized":false,"byteOffset":0,"bufferView":34},{"type":"SCALAR","componentType":5123,"count":96,"normalized":false,"byteOffset":241506,"bufferView":3},{"type":"VEC3","componentType":5126,"count":64,"max":[-0.8246047496795654,0.5299999713897705,0.02848000079393387],"min":[-0.8440999984741211,0.527999997138977,-0.02848000079393387],"normalized":false,"byteOffset":0,"bufferView":35},{"type":"VEC3","componentType":5126,"count":64,"normalized":false,"byteOffset":0,"bufferView":36},{"type":"VEC2","componentType":5126,"count":64,"normalized":false,"byteOffset":0,"bufferView":37},{"type":"VEC3","componentType":5126,"count":168,"max":[0.7649999856948853,1.1174999475479126,0.0010000000474974513],"min":[-0.7649999856948853,-1.1174999475479126,-0.0010000000474974513],"normalized":false,"byteOffset":0,"bufferView":38},{"type":"VEC3","componentType":5126,"count":168,"normalized":false,"byteOffset":0,"bufferView":39},{"type":"VEC2","componentType":5126,"count":168,"normalized":false,"byteOffset":0,"bufferView":40},{"type":"VEC2","componentType":5126,"count":168,"normalized":false,"byteOffset":0,"bufferView":41},{"type":"VEC3","componentType":5126,"count":1329,"max":[0.7997472882270813,1.1498106718063354,0.01168831717222929],"min":[-0.7997472882270813,-1.1498106718063354,-0.009263762272894382],"normalized":false,"byteOffset":0,"bufferView":42},{"type":"VEC3","componentType":5126,"count":1329,"normalized":false,"byteOffset":0,"bufferView":43},{"type":"VEC2","componentType":5126,"count":1329,"normalized":false,"byteOffset":0,"bufferView":44},{"type":"VEC2","componentType":5126,"count":1329,"normalized":false,"byteOffset":0,"bufferView":45},{"type":"VEC2","componentType":5126,"count":1329,"normalized":false,"byteOffset":0,"bufferView":46},{"type":"VEC2","componentType":5126,"count":1329,"normalized":false,"byteOffset":0,"bufferView":47},{"type":"SCALAR","componentType":5123,"count":6720,"normalized":false,"byteOffset":241698,"bufferView":3},{"type":"VEC3","componentType":5126,"count":1193,"max":[0.7997472882270813,1.1498106718063354,-0.004561667330563068],"min":[-0.7997472882270813,-1.1498106718063354,-0.011778555810451508],"normalized":false,"byteOffset":0,"bufferView":48},{"type":"VEC3","componentType":5126,"count":1193,"normalized":false,"byteOffset":0,"bufferView":49},{"type":"VEC2","componentType":5126,"count":1193,"normalized":false,"byteOffset":0,"bufferView":50},{"type":"VEC2","componentType":5126,"count":1193,"normalized":false,"byteOffset":0,"bufferView":51},{"type":"VEC2","componentType":5126,"count":1193,"normalized":false,"byteOffset":0,"bufferView":52},{"type":"VEC2","componentType":5126,"count":1193,"normalized":false,"byteOffset":0,"bufferView":53},{"type":"SCALAR","componentType":5123,"count":5940,"normalized":false,"byteOffset":255138,"bufferView":3},{"type":"VEC3","componentType":5126,"count":1010,"max":[-0.7847499847412109,1.1250419616699219,0.026000000536441803],"min":[-0.7984499931335449,1.1169580221176147,-0.026000000536441803],"normalized":false,"byteOffset":0,"bufferView":54},{"type":"VEC3","componentType":5126,"count":1010,"normalized":false,"byteOffset":0,"bufferView":55},{"type":"SCALAR","componentType":5123,"count":6000,"normalized":false,"byteOffset":267018,"bufferView":3},{"type":"VEC3","componentType":5126,"count":616,"max":[-0.7906721830368042,1.1100000143051147,0.026000000536441803],"min":[-0.7982000112533569,-1.1100000143051147,-0.026000000536441803],"normalized":false,"byteOffset":0,"bufferView":56},{"type":"VEC3","componentType":5126,"count":616,"normalized":false,"byteOffset":0,"bufferView":57},{"type":"SCALAR","componentType":5123,"count":1164,"normalized":false,"byteOffset":279018,"bufferView":3},{"type":"VEC3","componentType":5126,"count":730,"max":[0.02171693742275238,-1.1419991254806519,0.02216394804418087],"min":[-0.02171693742275238,-1.4320000410079956,0.006000000052154064],"normalized":false,"byteOffset":0,"bufferView":58},{"type":"VEC3","componentType":5126,"count":730,"normalized":false,"byteOffset":0,"bufferView":59},{"type":"VEC2","componentType":5126,"count":730,"normalized":false,"byteOffset":0,"bufferView":60},{"type":"SCALAR","componentType":5123,"count":4368,"normalized":false,"byteOffset":281346,"bufferView":3},{"type":"VEC3","componentType":5126,"count":2356,"max":[-0.7913093566894531,1.1500545740127563,0.04450000077486038],"min":[-0.8424988985061646,-1.1500494480133057,-0.04450000077486038],"normalized":false,"byteOffset":0,"bufferView":61},{"type":"VEC3","componentType":5126,"count":2356,"normalized":false,"byteOffset":0,"bufferView":62},{"type":"VEC2","componentType":5126,"count":2356,"normalized":false,"byteOffset":0,"bufferView":63},{"type":"SCALAR","componentType":5123,"count":13056,"normalized":false,"byteOffset":290082,"bufferView":3},{"type":"VEC3","componentType":5126,"count":20165,"max":[-0.8432060480117798,0.8890839219093323,0.0053400001488626],"min":[-0.8442500233650208,0.7209160327911377,-0.0053400001488626],"normalized":false,"byteOffset":0,"bufferView":64},{"type":"VEC3","componentType":5126,"count":20165,"normalized":false,"byteOffset":0,"bufferView":65},{"type":"VEC2","componentType":5126,"count":20165,"normalized":false,"byteOffset":0,"bufferView":66},{"type":"SCALAR","componentType":5123,"count":30312,"normalized":false,"byteOffset":316194,"bufferView":3},{"type":"VEC3","componentType":5126,"count":10162,"max":[-0.8410006165504456,0.09110227227210999,0.0106800002977252],"min":[-0.8442500233650208,-0.09110227227210999,-0.0106800002977252],"normalized":false,"byteOffset":0,"bufferView":67},{"type":"VEC3","componentType":5126,"count":10162,"normalized":false,"byteOffset":0,"bufferView":68},{"type":"VEC2","componentType":5126,"count":10162,"normalized":false,"byteOffset":0,"bufferView":69},{"type":"SCALAR","componentType":5123,"count":15300,"normalized":false,"byteOffset":376818,"bufferView":3},{"type":"VEC3","componentType":5126,"count":1010,"max":[-0.7847499847412109,-1.1169580221176147,0.026000000536441803],"min":[-0.7984499931335449,-1.1250419616699219,-0.026000000536441803],"normalized":false,"byteOffset":0,"bufferView":70},{"type":"VEC3","componentType":5126,"count":1010,"normalized":false,"byteOffset":0,"bufferView":71},{"type":"VEC3","componentType":5126,"count":1066,"max":[1.524999976158142,1.1180000305175781,0.004177063703536987],"min":[-0.000021593448764178902,-1.1180000305175781,0],"normalized":false,"byteOffset":0,"bufferView":72},{"type":"VEC3","componentType":5126,"count":1066,"normalized":false,"byteOffset":0,"bufferView":73},{"type":"VEC2","componentType":5126,"count":1066,"normalized":false,"byteOffset":0,"bufferView":74},{"type":"SCALAR","componentType":5123,"count":6384,"normalized":false,"byteOffset":407418,"bufferView":3},{"type":"VEC3","componentType":5126,"count":10556,"max":[0.9558089375495911,-0.10170888155698776,0.004675362724810839],"min":[0.5820155739784241,-0.13347359001636505,0.004644495900720358],"normalized":false,"byteOffset":0,"bufferView":75},{"type":"VEC3","componentType":5126,"count":10556,"normalized":false,"byteOffset":0,"bufferView":76},{"type":"VEC2","componentType":5126,"count":10556,"normalized":false,"byteOffset":0,"bufferView":77},{"type":"SCALAR","componentType":5123,"count":31116,"normalized":false,"byteOffset":420186,"bufferView":3},{"type":"VEC3","componentType":5126,"count":9436,"max":[0.8992783427238464,-0.8209342360496521,0.004674398805946112],"min":[0.6387025117874146,-0.8351613879203796,0.004656222648918629],"normalized":false,"byteOffset":0,"bufferView":78},{"type":"VEC3","componentType":5126,"count":9436,"normalized":false,"byteOffset":0,"bufferView":79},{"type":"VEC2","componentType":5126,"count":9436,"normalized":false,"byteOffset":0,"bufferView":80},{"type":"SCALAR","componentType":5123,"count":27840,"normalized":false,"byteOffset":482418,"bufferView":3},{"type":"VEC3","componentType":5126,"count":5228,"max":[1.0145890712738037,0.46678468585014343,0.004675999749451876],"min":[0.5254945158958435,0.40944769978523254,0.0046262433752417564],"normalized":false,"byteOffset":0,"bufferView":81},{"type":"VEC3","componentType":5126,"count":5228,"normalized":false,"byteOffset":0,"bufferView":82},{"type":"VEC2","componentType":5126,"count":5228,"normalized":false,"byteOffset":0,"bufferView":83},{"type":"SCALAR","componentType":5123,"count":15300,"normalized":false,"byteOffset":538098,"bufferView":3}],"bufferViews":[{"buffer":1,"byteOffset":0,"byteLength":28752,"target":34962,"byteStride":12,"extensions":{"EXT_meshopt_compression":{"buffer":0,"byteOffset":0,"byteLength":17274,"mode":"ATTRIBUTES","byteStride":12,"count":2396}}},{"buffer":1,"byteOffset":28752,"byteLength":28752,"target":34962,"byteStride":12,"extensions":{"EXT_meshopt_compression":{"buffer":0,"byteOffset":17276,"byteLength":21621,"mode":"ATTRIBUTES","byteStride":12,"count":2396}}},{"buffer":1,"byteOffset":57504,"byteLength":19168,"target":34962,"byteStride":8,"extensions":{"EXT_meshopt_compression":{"buffer":0,"byteOffset":38900,"byteLength":13519,"mode":"ATTRIBUTES","byteStride":8,"count":2396}}},{"buffer":1,"byteOffset":76672,"byteLength":568698,"target":34963,"extensions":{"EXT_meshopt_compression":{"buffer":0,"byteOffset":52420,"byteLength":281777,"mode":"TRIANGLES","byteStride":2,"count":284349}}},{"buffer":1,"byteOffset":645372,"byteLength":6168,"target":34962,"byteStride":12,"extensions":{"EXT_meshopt_compression":{"buffer":0,"byteOffset":334200,"byteLength":3261,"mode":"ATTRIBUTES","byteStride":12,"count":514}}},{"buffer":1,"byteOffset":651540,"byteLength":6168,"target":34962,"byteStride":12,"extensions":{"EXT_meshopt_compression":{"buffer":0,"byteOffset":337464,"byteLength":141,"mode":"ATTRIBUTES","byteStride":12,"count":514}}},{"buffer":1,"byteOffset":657708,"byteLength":4112,"target":34962,"byteStride":8,"extensions":{"EXT_meshopt_compression":{"buffer":0,"byteOffset":337608,"byteLength":1619,"mode":"ATTRIBUTES","byteStride":8,"count":514}}},{"buffer":1,"byteOffset":661820,"byteLength":100788,"target":34962,"byteStride":12,"extensions":{"EXT_meshopt_compression":{"buffer":0,"byteOffset":339228,"byteLength":43462,"mode":"ATTRIBUTES","byteStride":12,"count":8399}}},{"buffer":1,"byteOffset":762608,"byteLength":100788,"target":34962,"byteStride":12,"extensions":{"EXT_meshopt_compression":{"buffer":0,"byteOffset":382692,"byteLength":1617,"mode":"ATTRIBUTES","byteStride":12,"count":8399}}},{"buffer":1,"byteOffset":863396,"byteLength":67192,"target":34962,"byteStride":8,"extensions":{"EXT_meshopt_compression":{"buffer":0,"byteOffset":384312,"byteLength":24741,"mode":"ATTRIBUTES","byteStride":8,"count":8399}}},{"buffer":1,"byteOffset":930588,"byteLength":6936,"target":34962,"byteStride":12,"extensions":{"EXT_meshopt_compression":{"buffer":0,"byteOffset":409056,"byteLength":3588,"mode":"ATTRIBUTES","byteStride":12,"count":578}}},{"buffer":1,"byteOffset":937524,"byteLength":6936,"target":34962,"byteStride":12,"extensions":{"EXT_meshopt_compression":{"buffer":0,"byteOffset":412644,"byteLength":153,"mode":"ATTRIBUTES","byteStride":12,"count":578}}},{"buffer":1,"byteOffset":944460,"byteLength":4624,"target":34962,"byteStride":8,"extensions":{"EXT_meshopt_compression":{"buffer":0,"byteOffset":412800,"byteLength":1815,"mode":"ATTRIBUTES","byteStride":8,"count":578}}},{"buffer":1,"byteOffset":949084,"byteLength":11364,"target":34962,"byteStride":12,"extensions":{"EXT_meshopt_compression":{"buffer":0,"byteOffset":414616,"byteLength":5918,"mode":"ATTRIBUTES","byteStride":12,"count":947}}},{"buffer":1,"byteOffset":960448,"byteLength":11364,"target":34962,"byteStride":12,"extensions":{"EXT_meshopt_compression":{"buffer":0,"byteOffset":420536,"byteLength":213,"mode":"ATTRIBUTES","byteStride":12,"count":947}}},{"buffer":1,"byteOffset":971812,"byteLength":7576,"target":34962,"byteStride":8,"extensions":{"EXT_meshopt_compression":{"buffer":0,"byteOffset":420752,"byteLength":2850,"mode":"ATTRIBUTES","byteStride":8,"count":947}}},{"buffer":1,"byteOffset":979388,"byteLength":2016,"target":34962,"byteStride":12,"extensions":{"EXT_meshopt_compression":{"buffer":0,"byteOffset":423604,"byteLength":1114,"mode":"ATTRIBUTES","byteStride":12,"count":168}}},{"buffer":1,"byteOffset":981404,"byteLength":2016,"target":34962,"byteStride":12,"extensions":{"EXT_meshopt_compression":{"buffer":0,"byteOffset":424720,"byteLength":1497,"mode":"ATTRIBUTES","byteStride":12,"count":168}}},{"buffer":1,"byteOffset":983420,"byteLength":1344,"target":34962,"byteStride":8,"extensions":{"EXT_meshopt_compression":{"buffer":0,"byteOffset":426220,"byteLength":1216,"mode":"ATTRIBUTES","byteStride":8,"count":168}}},{"buffer":1,"byteOffset":984764,"byteLength":1344,"target":34962,"byteStride":8,"extensions":{"EXT_meshopt_compression":{"buffer":0,"byteOffset":427436,"byteLength":653,"mode":"ATTRIBUTES","byteStride":8,"count":168}}},{"buffer":1,"byteOffset":986108,"byteLength":11892,"target":34962,"byteStride":12,"extensions":{"EXT_meshopt_compression":{"buffer":0,"byteOffset":428092,"byteLength":5930,"mode":"ATTRIBUTES","byteStride":12,"count":991}}},{"buffer":1,"byteOffset":998000,"byteLength":11892,"target":34962,"byteStride":12,"extensions":{"EXT_meshopt_compression":{"buffer":0,"byteOffset":434024,"byteLength":225,"mode":"ATTRIBUTES","byteStride":12,"count":991}}},{"buffer":1,"byteOffset":1009892,"byteLength":7928,"target":34962,"byteStride":8,"extensions":{"EXT_meshopt_compression":{"buffer":0,"byteOffset":434252,"byteLength":3002,"mode":"ATTRIBUTES","byteStride":8,"count":991}}},{"buffer":1,"byteOffset":1017820,"byteLength":198000,"target":34962,"byteStride":12,"extensions":{"EXT_meshopt_compression":{"buffer":0,"byteOffset":437256,"byteLength":75188,"mode":"ATTRIBUTES","byteStride":12,"count":16500}}},{"buffer":1,"byteOffset":1215820,"byteLength":198000,"target":34962,"byteStride":12,"extensions":{"EXT_meshopt_compression":{"buffer":0,"byteOffset":512444,"byteLength":135181,"mode":"ATTRIBUTES","byteStride":12,"count":16500}}},{"buffer":1,"byteOffset":1413820,"byteLength":132000,"target":34962,"byteStride":8,"extensions":{"EXT_meshopt_compression":{"buffer":0,"byteOffset":647628,"byteLength":40612,"mode":"ATTRIBUTES","byteStride":8,"count":16500}}},{"buffer":1,"byteOffset":1545820,"byteLength":105264,"target":34962,"byteStride":12,"extensions":{"EXT_meshopt_compression":{"buffer":0,"byteOffset":688240,"byteLength":43186,"mode":"ATTRIBUTES","byteStride":12,"count":8772}}},{"buffer":1,"byteOffset":1651084,"byteLength":105264,"target":34962,"byteStride":12,"extensions":{"EXT_meshopt_compression":{"buffer":0,"byteOffset":731428,"byteLength":19609,"mode":"ATTRIBUTES","byteStride":12,"count":8772}}},{"buffer":1,"byteOffset":1756348,"byteLength":70176,"target":34962,"byteStride":8,"extensions":{"EXT_meshopt_compression":{"buffer":0,"byteOffset":751040,"byteLength":34008,"mode":"ATTRIBUTES","byteStride":8,"count":8772}}},{"buffer":1,"byteOffset":1826524,"byteLength":96,"target":34962,"byteStride":12,"extensions":{"EXT_meshopt_compression":{"buffer":0,"byteOffset":785048,"byteLength":89,"mode":"ATTRIBUTES","byteStride":12,"count":8}}},{"buffer":1,"byteOffset":1826620,"byteLength":96,"target":34962,"byteStride":12,"extensions":{"EXT_meshopt_compression":{"buffer":0,"byteOffset":785140,"byteLength":50,"mode":"ATTRIBUTES","byteStride":12,"count":8}}},{"buffer":1,"byteOffset":1826716,"byteLength":64,"target":34962,"byteStride":8,"extensions":{"EXT_meshopt_compression":{"buffer":0,"byteOffset":785192,"byteLength":71,"mode":"ATTRIBUTES","byteStride":8,"count":8}}},{"buffer":1,"byteOffset":1826780,"byteLength":768,"target":34962,"byteStride":12,"extensions":{"EXT_meshopt_compression":{"buffer":0,"byteOffset":785264,"byteLength":328,"mode":"ATTRIBUTES","byteStride":12,"count":64}}},{"buffer":1,"byteOffset":1827548,"byteLength":768,"target":34962,"byteStride":12,"extensions":{"EXT_meshopt_compression":{"buffer":0,"byteOffset":785592,"byteLength":388,"mode":"ATTRIBUTES","byteStride":12,"count":64}}},{"buffer":1,"byteOffset":1828316,"byteLength":512,"target":34962,"byteStride":8,"extensions":{"EXT_meshopt_compression":{"buffer":0,"byteOffset":785980,"byteLength":219,"mode":"ATTRIBUTES","byteStride":8,"count":64}}},{"buffer":1,"byteOffset":1828828,"byteLength":768,"target":34962,"byteStride":12,"extensions":{"EXT_meshopt_compression":{"buffer":0,"byteOffset":786200,"byteLength":324,"mode":"ATTRIBUTES","byteStride":12,"count":64}}},{"buffer":1,"byteOffset":1829596,"byteLength":768,"target":34962,"byteStride":12,"extensions":{"EXT_meshopt_compression":{"buffer":0,"byteOffset":786524,"byteLength":388,"mode":"ATTRIBUTES","byteStride":12,"count":64}}},{"buffer":1,"byteOffset":1830364,"byteLength":512,"target":34962,"byteStride":8,"extensions":{"EXT_meshopt_compression":{"buffer":0,"byteOffset":786912,"byteLength":219,"mode":"ATTRIBUTES","byteStride":8,"count":64}}},{"buffer":1,"byteOffset":1830876,"byteLength":2016,"target":34962,"byteStride":12,"extensions":{"EXT_meshopt_compression":{"buffer":0,"byteOffset":787132,"byteLength":1114,"mode":"ATTRIBUTES","byteStride":12,"count":168}}},{"buffer":1,"byteOffset":1832892,"byteLength":2016,"target":34962,"byteStride":12,"extensions":{"EXT_meshopt_compression":{"buffer":0,"byteOffset":788248,"byteLength":1497,"mode":"ATTRIBUTES","byteStride":12,"count":168}}},{"buffer":1,"byteOffset":1834908,"byteLength":1344,"target":34962,"byteStride":8,"extensions":{"EXT_meshopt_compression":{"buffer":0,"byteOffset":789748,"byteLength":1216,"mode":"ATTRIBUTES","byteStride":8,"count":168}}},{"buffer":1,"byteOffset":1836252,"byteLength":1344,"target":34962,"byteStride":8,"extensions":{"EXT_meshopt_compression":{"buffer":0,"byteOffset":790964,"byteLength":653,"mode":"ATTRIBUTES","byteStride":8,"count":168}}},{"buffer":1,"byteOffset":1837596,"byteLength":15948,"target":34962,"byteStride":12,"extensions":{"EXT_meshopt_compression":{"buffer":0,"byteOffset":791620,"byteLength":10407,"mode":"ATTRIBUTES","byteStride":12,"count":1329}}},{"buffer":1,"byteOffset":1853544,"byteLength":15948,"target":34962,"byteStride":12,"extensions":{"EXT_meshopt_compression":{"buffer":0,"byteOffset":802028,"byteLength":12430,"mode":"ATTRIBUTES","byteStride":12,"count":1329}}},{"buffer":1,"byteOffset":1869492,"byteLength":10632,"target":34962,"byteStride":8,"extensions":{"EXT_meshopt_compression":{"buffer":0,"byteOffset":814460,"byteLength":7662,"mode":"ATTRIBUTES","byteStride":8,"count":1329}}},{"buffer":1,"byteOffset":1880124,"byteLength":10632,"target":34962,"byteStride":8,"extensions":{"EXT_meshopt_compression":{"buffer":0,"byteOffset":822124,"byteLength":6910,"mode":"ATTRIBUTES","byteStride":8,"count":1329}}},{"buffer":1,"byteOffset":1890756,"byteLength":10632,"target":34962,"byteStride":8,"extensions":{"EXT_meshopt_compression":{"buffer":0,"byteOffset":829036,"byteLength":6945,"mode":"ATTRIBUTES","byteStride":8,"count":1329}}},{"buffer":1,"byteOffset":1901388,"byteLength":10632,"target":34962,"byteStride":8,"extensions":{"EXT_meshopt_compression":{"buffer":0,"byteOffset":835984,"byteLength":6230,"mode":"ATTRIBUTES","byteStride":8,"count":1329}}},{"buffer":1,"byteOffset":1912020,"byteLength":14316,"target":34962,"byteStride":12,"extensions":{"EXT_meshopt_compression":{"buffer":0,"byteOffset":842216,"byteLength":8915,"mode":"ATTRIBUTES","byteStride":12,"count":1193}}},{"buffer":1,"byteOffset":1926336,"byteLength":14316,"target":34962,"byteStride":12,"extensions":{"EXT_meshopt_compression":{"buffer":0,"byteOffset":851132,"byteLength":10524,"mode":"ATTRIBUTES","byteStride":12,"count":1193}}},{"buffer":1,"byteOffset":1940652,"byteLength":9544,"target":34962,"byteStride":8,"extensions":{"EXT_meshopt_compression":{"buffer":0,"byteOffset":861656,"byteLength":6810,"mode":"ATTRIBUTES","byteStride":8,"count":1193}}},{"buffer":1,"byteOffset":1950196,"byteLength":9544,"target":34962,"byteStride":8,"extensions":{"EXT_meshopt_compression":{"buffer":0,"byteOffset":868468,"byteLength":6229,"mode":"ATTRIBUTES","byteStride":8,"count":1193}}},{"buffer":1,"byteOffset":1959740,"byteLength":9544,"target":34962,"byteStride":8,"extensions":{"EXT_meshopt_compression":{"buffer":0,"byteOffset":874700,"byteLength":6286,"mode":"ATTRIBUTES","byteStride":8,"count":1193}}},{"buffer":1,"byteOffset":1969284,"byteLength":9544,"target":34962,"byteStride":8,"extensions":{"EXT_meshopt_compression":{"buffer":0,"byteOffset":880988,"byteLength":5596,"mode":"ATTRIBUTES","byteStride":8,"count":1193}}},{"buffer":1,"byteOffset":1978828,"byteLength":12120,"target":34962,"byteStride":12,"extensions":{"EXT_meshopt_compression":{"buffer":0,"byteOffset":886584,"byteLength":5845,"mode":"ATTRIBUTES","byteStride":12,"count":1010}}},{"buffer":1,"byteOffset":1990948,"byteLength":12120,"target":34962,"byteStride":12,"extensions":{"EXT_meshopt_compression":{"buffer":0,"byteOffset":892432,"byteLength":10873,"mode":"ATTRIBUTES","byteStride":12,"count":1010}}},{"buffer":1,"byteOffset":2003068,"byteLength":7392,"target":34962,"byteStride":12,"extensions":{"EXT_meshopt_compression":{"buffer":0,"byteOffset":903308,"byteLength":1814,"mode":"ATTRIBUTES","byteStride":12,"count":616}}},{"buffer":1,"byteOffset":2010460,"byteLength":7392,"target":34962,"byteStride":12,"extensions":{"EXT_meshopt_compression":{"buffer":0,"byteOffset":905124,"byteLength":6064,"mode":"ATTRIBUTES","byteStride":12,"count":616}}},{"buffer":1,"byteOffset":2017852,"byteLength":8760,"target":34962,"byteStride":12,"extensions":{"EXT_meshopt_compression":{"buffer":0,"byteOffset":911188,"byteLength":4464,"mode":"ATTRIBUTES","byteStride":12,"count":730}}},{"buffer":1,"byteOffset":2026612,"byteLength":8760,"target":34962,"byteStride":12,"extensions":{"EXT_meshopt_compression":{"buffer":0,"byteOffset":915652,"byteLength":6185,"mode":"ATTRIBUTES","byteStride":12,"count":730}}},{"buffer":1,"byteOffset":2035372,"byteLength":5840,"target":34962,"byteStride":8,"extensions":{"EXT_meshopt_compression":{"buffer":0,"byteOffset":921840,"byteLength":2354,"mode":"ATTRIBUTES","byteStride":8,"count":730}}},{"buffer":1,"byteOffset":2041212,"byteLength":28272,"target":34962,"byteStride":12,"extensions":{"EXT_meshopt_compression":{"buffer":0,"byteOffset":924196,"byteLength":16129,"mode":"ATTRIBUTES","byteStride":12,"count":2356}}},{"buffer":1,"byteOffset":2069484,"byteLength":28272,"target":34962,"byteStride":12,"extensions":{"EXT_meshopt_compression":{"buffer":0,"byteOffset":940328,"byteLength":23627,"mode":"ATTRIBUTES","byteStride":12,"count":2356}}},{"buffer":1,"byteOffset":2097756,"byteLength":18848,"target":34962,"byteStride":8,"extensions":{"EXT_meshopt_compression":{"buffer":0,"byteOffset":963956,"byteLength":8453,"mode":"ATTRIBUTES","byteStride":8,"count":2356}}},{"buffer":1,"byteOffset":2116604,"byteLength":241980,"target":34962,"byteStride":12,"extensions":{"EXT_meshopt_compression":{"buffer":0,"byteOffset":972412,"byteLength":90170,"mode":"ATTRIBUTES","byteStride":12,"count":20165}}},{"buffer":1,"byteOffset":2358584,"byteLength":241980,"target":34962,"byteStride":12,"extensions":{"EXT_meshopt_compression":{"buffer":0,"byteOffset":1062584,"byteLength":164020,"mode":"ATTRIBUTES","byteStride":12,"count":20165}}},{"buffer":1,"byteOffset":2600564,"byteLength":161320,"target":34962,"byteStride":8,"extensions":{"EXT_meshopt_compression":{"buffer":0,"byteOffset":1226604,"byteLength":49294,"mode":"ATTRIBUTES","byteStride":8,"count":20165}}},{"buffer":1,"byteOffset":2761884,"byteLength":121944,"target":34962,"byteStride":12,"extensions":{"EXT_meshopt_compression":{"buffer":0,"byteOffset":1275900,"byteLength":51097,"mode":"ATTRIBUTES","byteStride":12,"count":10162}}},{"buffer":1,"byteOffset":2883828,"byteLength":121944,"target":34962,"byteStride":12,"extensions":{"EXT_meshopt_compression":{"buffer":0,"byteOffset":1327000,"byteLength":85073,"mode":"ATTRIBUTES","byteStride":12,"count":10162}}},{"buffer":1,"byteOffset":3005772,"byteLength":81296,"target":34962,"byteStride":8,"extensions":{"EXT_meshopt_compression":{"buffer":0,"byteOffset":1412076,"byteLength":25250,"mode":"ATTRIBUTES","byteStride":8,"count":10162}}},{"buffer":1,"byteOffset":3087068,"byteLength":12120,"target":34962,"byteStride":12,"extensions":{"EXT_meshopt_compression":{"buffer":0,"byteOffset":1437328,"byteLength":5849,"mode":"ATTRIBUTES","byteStride":12,"count":1010}}},{"buffer":1,"byteOffset":3099188,"byteLength":12120,"target":34962,"byteStride":12,"extensions":{"EXT_meshopt_compression":{"buffer":0,"byteOffset":1443180,"byteLength":10873,"mode":"ATTRIBUTES","byteStride":12,"count":1010}}},{"buffer":1,"byteOffset":3111308,"byteLength":12792,"target":34962,"byteStride":12,"extensions":{"EXT_meshopt_compression":{"buffer":0,"byteOffset":1454056,"byteLength":6652,"mode":"ATTRIBUTES","byteStride":12,"count":1066}}},{"buffer":1,"byteOffset":3124100,"byteLength":12792,"target":34962,"byteStride":12,"extensions":{"EXT_meshopt_compression":{"buffer":0,"byteOffset":1460708,"byteLength":4149,"mode":"ATTRIBUTES","byteStride":12,"count":1066}}},{"buffer":1,"byteOffset":3136892,"byteLength":8528,"target":34962,"byteStride":8,"extensions":{"EXT_meshopt_compression":{"buffer":0,"byteOffset":1464860,"byteLength":3943,"mode":"ATTRIBUTES","byteStride":8,"count":1066}}},{"buffer":1,"byteOffset":3145420,"byteLength":126672,"target":34962,"byteStride":12,"extensions":{"EXT_meshopt_compression":{"buffer":0,"byteOffset":1468804,"byteLength":56120,"mode":"ATTRIBUTES","byteStride":12,"count":10556}}},{"buffer":1,"byteOffset":3272092,"byteLength":126672,"target":34962,"byteStride":12,"extensions":{"EXT_meshopt_compression":{"buffer":0,"byteOffset":1524924,"byteLength":13184,"mode":"ATTRIBUTES","byteStride":12,"count":10556}}},{"buffer":1,"byteOffset":3398764,"byteLength":84448,"target":34962,"byteStride":8,"extensions":{"EXT_meshopt_compression":{"buffer":0,"byteOffset":1538108,"byteLength":37479,"mode":"ATTRIBUTES","byteStride":8,"count":10556}}},{"buffer":1,"byteOffset":3483212,"byteLength":113232,"target":34962,"byteStride":12,"extensions":{"EXT_meshopt_compression":{"buffer":0,"byteOffset":1575588,"byteLength":46308,"mode":"ATTRIBUTES","byteStride":12,"count":9436}}},{"buffer":1,"byteOffset":3596444,"byteLength":113232,"target":34962,"byteStride":12,"extensions":{"EXT_meshopt_compression":{"buffer":0,"byteOffset":1621896,"byteLength":4005,"mode":"ATTRIBUTES","byteStride":12,"count":9436}}},{"buffer":1,"byteOffset":3709676,"byteLength":75488,"target":34962,"byteStride":8,"extensions":{"EXT_meshopt_compression":{"buffer":0,"byteOffset":1625904,"byteLength":33077,"mode":"ATTRIBUTES","byteStride":8,"count":9436}}},{"buffer":1,"byteOffset":3785164,"byteLength":62736,"target":34962,"byteStride":12,"extensions":{"EXT_meshopt_compression":{"buffer":0,"byteOffset":1658984,"byteLength":27884,"mode":"ATTRIBUTES","byteStride":12,"count":5228}}},{"buffer":1,"byteOffset":3847900,"byteLength":62736,"target":34962,"byteStride":12,"extensions":{"EXT_meshopt_compression":{"buffer":0,"byteOffset":1686868,"byteLength":4972,"mode":"ATTRIBUTES","byteStride":12,"count":5228}}},{"buffer":1,"byteOffset":3910636,"byteLength":41824,"target":34962,"byteStride":8,"extensions":{"EXT_meshopt_compression":{"buffer":0,"byteOffset":1691840,"byteLength":18783,"mode":"ATTRIBUTES","byteStride":8,"count":5228}}}],"samplers":[{"magFilter":9729,"minFilter":9987,"wrapS":10497,"wrapT":10497},{"magFilter":9729,"minFilter":9987,"wrapS":33071,"wrapT":33071}],"textures":[{"sampler":0,"extensions":{"EXT_texture_webp":{"source":0}}},{"sampler":0,"extensions":{"EXT_texture_webp":{"source":2}}},{"sampler":0,"extensions":{"EXT_texture_webp":{"source":1}}},{"sampler":0,"extensions":{"EXT_texture_webp":{"source":3}}},{"sampler":0,"extensions":{"EXT_texture_webp":{"source":5}}},{"sampler":0,"extensions":{"EXT_texture_webp":{"source":4}}},{"sampler":1,"extensions":{"EXT_texture_webp":{"source":8}}},{"sampler":0,"extensions":{"EXT_texture_webp":{"source":7}}},{"sampler":0,"extensions":{"EXT_texture_webp":{"source":6}}},{"sampler":0,"extensions":{"EXT_texture_webp":{"source":9}}}],"images":[{"name":"book_pattern_nor_gl_2k","mimeType":"image/webp","uri":"shared/8de172b46ec41fd3863b660a.webp"},{"name":"Paper001_2K-JPG_NormalGL","mimeType":"image/webp","uri":"shared/a4ffc7b7fc49def2917e39f5.webp"},{"name":"Paper001_2K-JPG_Color","mimeType":"image/webp","uri":"shared/75262c983a496cb7fcdc6c19.webp"},{"name":"Paper001_2K-JPG_Roughness","mimeType":"image/webp","uri":"shared/49f61cb86539e805ce6a1ee3.webp"},{"name":"compressed-paper-normal","mimeType":"image/webp","uri":"shared/339c1ac519928878fbaa1237.webp"},{"name":"compressed-paper-color","mimeType":"image/webp","uri":"shared/7701c62282fa7f26c46af450.webp"},{"name":"le-petit-prince_print_orm","mimeType":"image/webp","uri":"shared/71a1a3588fc8bcb5d0819a5a.webp"},{"name":"le-petit-prince_print_normal","mimeType":"image/webp","uri":"shared/29b372daa5505e9f1f2c69c8.webp"},{"name":"edition-le-petit-prince","mimeType":"image/webp","uri":"shared/eb0b9013669935da8ff50a65.webp"},{"name":"book_pattern_rough_2k","mimeType":"image/webp","uri":"shared/a04d51bd9431742f3e8e78f4.webp"}],"buffers":[{"uri":"shared/bdf5b65b76620ab3c03e7f21.bin","byteLength":1710624},{"byteLength":3952460,"extensions":{"EXT_meshopt_compression":{"fallback":true}}}],"materials":[{"name":"le-petit-prince case material","doubleSided":true,"pbrMetallicRoughness":{"baseColorFactor":[0.8549926280975342,0.8227857351303101,0.715693473815918,1],"roughnessFactor":0.5,"metallicFactor":0},"normalTexture":{"index":0,"scale":0.1599999964237213},"extensions":{"KHR_materials_clearcoat":{"clearcoatFactor":0.014999999664723873,"clearcoatRoughnessFactor":0.36000001430511475}}},{"name":"MAT_le-petit-prince_BackInk","doubleSided":true,"pbrMetallicRoughness":{"baseColorFactor":[0.2746773064136505,0.2158605009317398,0.05780543014407158,1],"roughnessFactor":0.4000000059604645,"metallicFactor":0.6499999761581421},"extensions":{"KHR_materials_clearcoat":{"clearcoatFactor":0.07000000029802322,"clearcoatRoughnessFactor":0}}},{"name":"MAT_le-petit-prince_Stamped_Ink","doubleSided":true,"pbrMetallicRoughness":{"baseColorFactor":[0.2746773064136505,0.2158605009317398,0.05780543014407158,1],"roughnessFactor":0.4000000059604645,"metallicFactor":0.6499999761581421},"extensions":{"KHR_materials_clearcoat":{"clearcoatFactor":0.07000000029802322,"clearcoatRoughnessFactor":0.20000000298023224}}},{"name":"MAT_Uncoated_Paper_Fibre","doubleSided":true,"pbrMetallicRoughness":{"metallicFactor":0,"baseColorTexture":{"index":1,"texCoord":1},"metallicRoughnessTexture":{"index":3,"texCoord":1}},"normalTexture":{"index":2,"texCoord":1,"scale":0.07000000029802322}},{"name":"MAT_le-petit-prince_Stamped_Ink.001","doubleSided":true,"pbrMetallicRoughness":{"baseColorFactor":[0.2746773064136505,0.2158605009317398,0.05780543014407158,1],"roughnessFactor":0.4000000059604645,"metallicFactor":0.6499999761581421},"extensions":{"KHR_materials_clearcoat":{"clearcoatFactor":0.07000000029802322,"clearcoatRoughnessFactor":0.20000000298023224}}},{"name":"Compressed paper cut surface","doubleSided":true,"pbrMetallicRoughness":{"roughnessFactor":0.8999999761581421,"metallicFactor":0,"baseColorTexture":{"index":4}},"normalTexture":{"index":5}},{"name":"Compressed ivory stock 2","doubleSided":true,"pbrMetallicRoughness":{"baseColorFactor":[0.7279999852180481,0.7129999995231628,0.656000018119812,1],"roughnessFactor":0.8600000143051147,"metallicFactor":0}},{"name":"MAT_le-petit-prince_Registered_Print","extras":{"surface_finish":"Registered print, selective varnish and metallic stamping"},"doubleSided":true,"pbrMetallicRoughness":{"baseColorTexture":{"index":6,"texCoord":1},"metallicRoughnessTexture":{"index":8,"texCoord":1}},"normalTexture":{"index":7,"texCoord":1},"extensions":{"KHR_materials_clearcoat":{"clearcoatFactor":1,"clearcoatRoughnessFactor":0.23999999463558197,"clearcoatTexture":{"index":8,"texCoord":1}}}},{"name":"Endband cotton ecru","doubleSided":true,"pbrMetallicRoughness":{"baseColorFactor":[0.5,0.46000000834465027,0.3499999940395355,1],"roughnessFactor":0.8799999952316284,"metallicFactor":0}},{"name":"Binding linen warm ecru","doubleSided":true,"pbrMetallicRoughness":{"baseColorFactor":[0.3799999952316284,0.3400000035762787,0.25999999046325684,1],"roughnessFactor":0.9300000071525574,"metallicFactor":0}},{"name":"le-petit-prince woven ribbon","doubleSided":true,"pbrMetallicRoughness":{"baseColorFactor":[0.2746773064136505,0.2158605009317398,0.05780543014407158,1],"metallicFactor":0,"metallicRoughnessTexture":{"index":9}},"normalTexture":{"index":0,"scale":1.149999976158142},"extensions":{"KHR_materials_sheen":{"sheenColorFactor":[1,1,1],"sheenRoughnessFactor":0.5}}},{"name":"MAT_Uncoated_Paper_Fibre","doubleSided":true,"pbrMetallicRoughness":{"metallicFactor":0,"baseColorTexture":{"index":1},"metallicRoughnessTexture":{"index":3}},"normalTexture":{"index":2,"scale":0.07000000029802322}},{"name":"le-petit-prince printed ink","doubleSided":true,"pbrMetallicRoughness":{"baseColorFactor":[0.040915198624134064,0.03310476616024971,0.019382361322641373,1],"roughnessFactor":0.8999999761581421,"metallicFactor":0}}],"meshes":[{"name":"Pressed case joint Back board.004","primitives":[{"attributes":{"POSITION":0,"NORMAL":1,"TEXCOORD_0":2},"mode":4,"material":0,"indices":3}]},{"name":"Back collection.004","primitives":[{"attributes":{"POSITION":4,"NORMAL":5,"TEXCOORD_0":6},"mode":4,"material":1,"indices":7}]},{"name":"Back description.004","primitives":[{"attributes":{"POSITION":8,"NORMAL":9,"TEXCOORD_0":10},"mode":4,"material":1,"indices":11}]},{"name":"Back edition.004","primitives":[{"attributes":{"POSITION":12,"NORMAL":13,"TEXCOORD_0":14},"mode":4,"material":2,"indices":15}]},{"name":"Back ISBN.004","primitives":[{"attributes":{"POSITION":16,"NORMAL":17,"TEXCOORD_0":18},"mode":4,"material":1,"indices":19}]},{"name":"Back pastedown.004","primitives":[{"attributes":{"POSITION":20,"NORMAL":21,"TEXCOORD_0":22,"TEXCOORD_1":23},"mode":4,"material":3,"indices":24}]},{"name":"Back title.004","primitives":[{"attributes":{"POSITION":25,"NORMAL":26,"TEXCOORD_0":27},"mode":4,"material":2,"indices":28}]},{"name":"Collection mark.004","primitives":[{"attributes":{"POSITION":29,"NORMAL":30,"TEXCOORD_0":31},"mode":4,"material":4,"indices":32}]},{"name":"Continuous compressed cut le-petit-prince","primitives":[{"attributes":{"POSITION":33,"NORMAL":34,"TEXCOORD_0":35},"mode":4,"material":5,"indices":36},{"attributes":{"POSITION":37,"NORMAL":38,"TEXCOORD_0":39},"mode":4,"material":6,"indices":40}]},{"name":"Curved foil rule.008","primitives":[{"attributes":{"POSITION":41,"NORMAL":42,"TEXCOORD_0":43},"mode":4,"material":4,"indices":44}]},{"name":"Curved foil rule.009","primitives":[{"attributes":{"POSITION":45,"NORMAL":46,"TEXCOORD_0":47},"mode":4,"material":4,"indices":44}]},{"name":"Front pastedown.004","primitives":[{"attributes":{"POSITION":48,"NORMAL":49,"TEXCOORD_0":50,"TEXCOORD_1":51},"mode":4,"material":3,"indices":24}]},{"name":"Pressed case joint Wrapped printed cover.004","primitives":[{"attributes":{"POSITION":52,"NORMAL":53,"TEXCOORD_0":54,"TEXCOORD_1":55,"TEXCOORD_2":56,"TEXCOORD_3":57},"mode":4,"material":7,"indices":58},{"attributes":{"POSITION":59,"NORMAL":60,"TEXCOORD_0":61,"TEXCOORD_1":62,"TEXCOORD_2":63,"TEXCOORD_3":64},"mode":4,"material":0,"indices":65}]},{"name":"Head textile endband le-petit-prince","primitives":[{"attributes":{"POSITION":66,"NORMAL":67},"mode":4,"material":8,"indices":68}]},{"name":"Linen spine lining le-petit-prince","primitives":[{"attributes":{"POSITION":69,"NORMAL":70},"mode":4,"material":9,"indices":71}]},{"name":"Ribbon flexible satin le-petit-prince","primitives":[{"attributes":{"POSITION":72,"NORMAL":73,"TEXCOORD_0":74},"mode":4,"material":10,"indices":75}]},{"name":"Rounded cloth spine.004","primitives":[{"attributes":{"POSITION":76,"NORMAL":77,"TEXCOORD_0":78},"mode":4,"material":0,"indices":79}]},{"name":"Spine author.004","primitives":[{"attributes":{"POSITION":80,"NORMAL":81,"TEXCOORD_0":82},"mode":4,"material":4,"indices":83}]},{"name":"Spine title.004","primitives":[{"attributes":{"POSITION":84,"NORMAL":85,"TEXCOORD_0":86},"mode":4,"material":4,"indices":87}]},{"name":"Tail textile endband le-petit-prince","primitives":[{"attributes":{"POSITION":88,"NORMAL":89},"mode":4,"material":8,"indices":68}]},{"name":"Flexible paper.004","primitives":[{"attributes":{"POSITION":90,"NORMAL":91,"TEXCOORD_0":92},"mode":4,"material":11,"indices":93}]},{"name":"Interior author.004","primitives":[{"attributes":{"POSITION":94,"NORMAL":95,"TEXCOORD_0":96},"mode":4,"material":12,"indices":97}]},{"name":"Interior imprint.004","primitives":[{"attributes":{"POSITION":98,"NORMAL":99,"TEXCOORD_0":100},"mode":4,"material":12,"indices":101}]},{"name":"Interior title.004","primitives":[{"attributes":{"POSITION":102,"NORMAL":103,"TEXCOORD_0":104},"mode":4,"material":12,"indices":105}]}],"nodes":[{"name":"Back board.004","extras":{"edge_refined":true,"unpressed_mesh":"Back board.017","pressed_joint_revision":1,"joint_depth_mm":1.030143142231421,"joint_center_mm":6.400000000000001},"translation":[0,0,-0.044499997049570084],"mesh":0},{"name":"Back collection.004","translation":[0,-0.5519999861717224,-0.05649999529123306],"rotation":[0,-0.7071068286895752,0.7071068286895752,3.090862321641907e-8],"mesh":1},{"name":"Back description.004","translation":[0,0.057500001043081284,-0.05649999529123306],"rotation":[0,-0.7071068286895752,0.7071068286895752,3.090862321641907e-8],"mesh":2},{"name":"Back edition.004","translation":[0,-0.7820000052452087,-0.05649999529123306],"rotation":[0,-0.7071068286895752,0.7071068286895752,3.090862321641907e-8],"mesh":3},{"name":"Back ISBN.004","translation":[0,-0.8970000147819519,-0.05649999529123306],"rotation":[0,-0.7071068286895752,0.7071068286895752,3.090862321641907e-8],"mesh":4},{"name":"Back pastedown.004","translation":[0,0,-0.03299999609589577],"mesh":5},{"name":"Back title.004","translation":[0,0.6669999957084656,-0.05649999529123306],"rotation":[0,-0.7071068286895752,0.7071068286895752,3.090862321641907e-8],"mesh":6},{"name":"Collection mark.004","mesh":7},{"name":"Compressed paper signatures le-petit-prince","extras":{"paper_surface_revision":1,"leaf_count":47,"paper_caliper_mm":0.11063829787234042,"binding_structure":"Rounded and backed signatures"},"mesh":8},{"name":"Curved foil rule.008","mesh":9},{"name":"Curved foil rule.009","mesh":10},{"name":"Front pastedown.004","translation":[0.800000011920929,0,-0.011500004678964615],"mesh":11},{"name":"Wrapped printed cover.004","extras":{"edge_refined":true,"unpressed_mesh":"Front board.017","pressed_joint_revision":1,"joint_depth_mm":1.1207684074114432,"joint_center_mm":6.400000000000001},"translation":[0.800000011920929,0,0],"mesh":12},{"name":"FrontHinge.004","translation":[-0.7999999523162842,0,0.044499997049570084],"children":[11,12]},{"name":"Head textile endband le-petit-prince","extras":{"binding_revision":2},"mesh":13},{"name":"Linen spine lining le-petit-prince","extras":{"binding_revision":2},"mesh":14},{"name":"Ribbon flexible satin le-petit-prince","extras":{"binding_revision":2,"ribbon_width_dm":0.043,"ribbon_length_dm":0.29,"ribbon_anchor_dm":[0,-1.142,0.006]},"mesh":15},{"name":"Rounded cloth spine.004","mesh":16},{"name":"Spine author.004","mesh":17},{"name":"Spine title.004","mesh":18},{"name":"Tail textile endband le-petit-prince","extras":{"binding_revision":2},"mesh":19},{"name":"Curved title leaf.004","mesh":20},{"name":"Interior author.004","mesh":21},{"name":"Interior imprint.004","mesh":22},{"name":"Interior title.004","mesh":23},{"name":"TurningLeaf.004","translation":[-0.7549999952316284,0,0.028499998152256012],"children":[21,22,23,24]},{"name":"Publisher_le-petit-prince","extras":{"slug":"le-petit-prince","dimensions_mm":[160,230,11],"model_design":"Selected publisher front artwork with reconstructed binding, spine, back and interior. 70th-anniversary package artwork on a reconstructed book; 160 × 230 mm format, modeled 11 mm book depth. CD/DVD packaging is not included","edition_source":"https://www.cercle-enseignement.com/Ouvrages/Gallimard-Jeunesse/Hors-Serie-Musique/Le-Petit-Prince","surface_stock":"foil-paper","edition_print_evidence":"{\"slug\": \"le-petit-prince\", \"spine\": \"Existing reconstruction; matching spine photograph not found\", \"back\": \"Existing original showcase typography; reverse not verified\"}"},"scale":[0.09741254895925522,0.09999547898769379,0.09911801666021347],"children":[0,1,2,3,4,5,6,7,8,9,10,13,14,15,16,17,18,19,20,25]}],"scenes":[{"name":"Miguel Personal Library · 13 Editions","nodes":[26]}],"scene":0,"extensionsUsed":["EXT_meshopt_compression","EXT_texture_webp","KHR_materials_clearcoat","KHR_materials_sheen"],"extensionsRequired":["EXT_meshopt_compression","EXT_texture_webp"]}