{"asset":{"generator":"glTF-Transform v4.5.0","version":"2.0"},"accessors":[{"type":"VEC3","componentType":5126,"count":2380,"max":[0.5647345781326294,0.8698096871376038,0.010827695019543171],"min":[-0.5647345781326294,-0.8698096871376038,-0.010827695019543171],"normalized":false,"byteOffset":0,"bufferView":0},{"type":"VEC3","componentType":5126,"count":2380,"normalized":false,"byteOffset":0,"bufferView":1},{"type":"VEC2","componentType":5126,"count":2380,"normalized":false,"byteOffset":0,"bufferView":2},{"type":"SCALAR","componentType":5123,"count":12564,"normalized":false,"byteOffset":0,"bufferView":3},{"type":"VEC3","componentType":5126,"count":514,"max":[0.1009504571557045,0,0.0053944955579936504],"min":[-0.09995229542255402,0,-0.005732110235840082],"normalized":false,"byteOffset":0,"bufferView":4},{"type":"VEC3","componentType":5126,"count":514,"normalized":false,"byteOffset":0,"bufferView":5},{"type":"SCALAR","componentType":5123,"count":1482,"normalized":false,"byteOffset":25128,"bufferView":3},{"type":"VEC3","componentType":5126,"count":7351,"max":[0.16860169172286987,0,0.07085000723600388],"min":[-0.1680404096841812,0,-0.07163350284099579],"normalized":false,"byteOffset":0,"bufferView":6},{"type":"VEC3","componentType":5126,"count":7351,"normalized":false,"byteOffset":0,"bufferView":7},{"type":"SCALAR","componentType":5123,"count":21717,"normalized":false,"byteOffset":28092,"bufferView":3},{"type":"VEC3","componentType":5126,"count":801,"max":[0.13837212324142456,0,0.00647339504212141],"min":[-0.1379229575395584,0,-0.00688733858987689],"normalized":false,"byteOffset":0,"bufferView":8},{"type":"VEC3","componentType":5126,"count":801,"normalized":false,"byteOffset":0,"bufferView":9},{"type":"SCALAR","componentType":5123,"count":2325,"normalized":false,"byteOffset":71526,"bufferView":3},{"type":"VEC3","componentType":5126,"count":1007,"max":[0.07916422188282013,0,0.005671926308423281],"min":[-0.0783858671784401,0,-0.0060187154449522495],"normalized":false,"byteOffset":0,"bufferView":10},{"type":"VEC3","componentType":5126,"count":1007,"normalized":false,"byteOffset":0,"bufferView":11},{"type":"SCALAR","componentType":5123,"count":2991,"normalized":false,"byteOffset":76176,"bufferView":3},{"type":"VEC3","componentType":5126,"count":961,"max":[0.10862721502780914,0,0.015037741512060165],"min":[-0.1092129722237587,0,-0.016835398972034454],"normalized":false,"byteOffset":0,"bufferView":12},{"type":"VEC3","componentType":5126,"count":961,"normalized":false,"byteOffset":0,"bufferView":13},{"type":"SCALAR","componentType":5123,"count":2829,"normalized":false,"byteOffset":82158,"bufferView":3},{"type":"VEC3","componentType":5126,"count":22067,"max":[-0.6088598966598511,-0.5133000016212463,0.007070253137499094],"min":[-0.609250009059906,-0.8090999722480774,-0.007070253137499094],"normalized":false,"byteOffset":0,"bufferView":14},{"type":"VEC3","componentType":5126,"count":22067,"normalized":false,"byteOffset":0,"bufferView":15},{"type":"SCALAR","componentType":5123,"count":33360,"normalized":false,"byteOffset":87816,"bufferView":3},{"type":"VEC3","componentType":5126,"count":8772,"max":[0.5379999876022339,0.8420993089675903,0.14800000190734863],"min":[-0.578000009059906,-0.8420827984809875,-0.14800000190734863],"normalized":false,"byteOffset":0,"bufferView":16},{"type":"VEC3","componentType":5126,"count":8772,"normalized":false,"byteOffset":0,"bufferView":17},{"type":"VEC2","componentType":5126,"count":8772,"normalized":false,"byteOffset":0,"bufferView":18},{"type":"SCALAR","componentType":5123,"count":49152,"normalized":false,"byteOffset":154536,"bufferView":3},{"type":"VEC3","componentType":5126,"count":8,"max":[0.5379999876022339,0.8420000076293945,0.14800000190734863],"min":[-0.5550000071525574,-0.8420000076293945,-0.14800000190734863],"normalized":false,"byteOffset":0,"bufferView":19},{"type":"VEC3","componentType":5126,"count":8,"normalized":false,"byteOffset":0,"bufferView":20},{"type":"SCALAR","componentType":5123,"count":12,"normalized":false,"byteOffset":252840,"bufferView":3},{"type":"VEC3","componentType":5126,"count":64,"max":[-0.5896047353744507,-0.46880000829696655,0.10847999900579453],"min":[-0.6090999841690063,-0.4708000123500824,-0.10847999900579453],"normalized":false,"byteOffset":0,"bufferView":21},{"type":"VEC3","componentType":5126,"count":64,"normalized":false,"byteOffset":0,"bufferView":22},{"type":"SCALAR","componentType":5123,"count":96,"normalized":false,"byteOffset":252864,"bufferView":3},{"type":"VEC3","componentType":5126,"count":64,"max":[-0.5896047353744507,0.40119999647140503,0.10847999900579453],"min":[-0.6090999841690063,0.3991999924182892,-0.10847999900579453],"normalized":false,"byteOffset":0,"bufferView":23},{"type":"VEC3","componentType":5126,"count":64,"normalized":false,"byteOffset":0,"bufferView":24},{"type":"VEC3","componentType":5126,"count":1330,"max":[0.5647348165512085,0.869810163974762,0.01162668876349926],"min":[-0.5647348165512085,-0.869810163974762,-0.009256619028747082],"normalized":false,"byteOffset":0,"bufferView":25},{"type":"VEC3","componentType":5126,"count":1330,"normalized":false,"byteOffset":0,"bufferView":26},{"type":"VEC2","componentType":5126,"count":1330,"normalized":false,"byteOffset":0,"bufferView":27},{"type":"SCALAR","componentType":5123,"count":6708,"normalized":false,"byteOffset":253056,"bufferView":3},{"type":"VEC3","componentType":5126,"count":1201,"max":[0.5647348165512085,0.869810163974762,-0.0047952840104699135],"min":[-0.5647348165512085,-0.869810163974762,-0.01162669062614441],"normalized":false,"byteOffset":0,"bufferView":28},{"type":"VEC3","componentType":5126,"count":1201,"normalized":false,"byteOffset":0,"bufferView":29},{"type":"VEC2","componentType":5126,"count":1201,"normalized":false,"byteOffset":0,"bufferView":30},{"type":"SCALAR","componentType":5123,"count":5928,"normalized":false,"byteOffset":266472,"bufferView":3},{"type":"VEC3","componentType":5126,"count":4230,"max":[-0.5497499704360962,0.8450419902801514,0.14800000190734863],"min":[-0.581249475479126,0.8369579911231995,-0.14800000190734863],"normalized":false,"byteOffset":0,"bufferView":31},{"type":"VEC3","componentType":5126,"count":4230,"normalized":false,"byteOffset":0,"bufferView":32},{"type":"SCALAR","componentType":5123,"count":25320,"normalized":false,"byteOffset":278328,"bufferView":3},{"type":"VEC3","componentType":5126,"count":588,"max":[-0.555608332157135,0.8299999833106995,0.14800000190734863],"min":[-0.5809999704360962,-0.8299999833106995,-0.14800000190734863],"normalized":false,"byteOffset":0,"bufferView":33},{"type":"VEC3","componentType":5126,"count":588,"normalized":false,"byteOffset":0,"bufferView":34},{"type":"SCALAR","componentType":5123,"count":1164,"normalized":false,"byteOffset":328968,"bufferView":3},{"type":"VEC3","componentType":5126,"count":730,"max":[0.02171693742275238,-0.8619991540908813,0.02216394618153572],"min":[-0.02171693742275238,-1.1519999504089355,0.006000000052154064],"normalized":false,"byteOffset":0,"bufferView":35},{"type":"VEC3","componentType":5126,"count":730,"normalized":false,"byteOffset":0,"bufferView":36},{"type":"VEC2","componentType":5126,"count":730,"normalized":false,"byteOffset":0,"bufferView":37},{"type":"SCALAR","componentType":5123,"count":4368,"normalized":false,"byteOffset":331296,"bufferView":3},{"type":"VEC3","componentType":5126,"count":2178,"max":[-0.5570231080055237,0.8700764775276184,0.16949999332427979],"min":[-0.6074996590614319,-0.8700757026672363,-0.16949999332427979],"normalized":false,"byteOffset":0,"bufferView":38},{"type":"VEC3","componentType":5126,"count":2178,"normalized":false,"byteOffset":0,"bufferView":39},{"type":"VEC2","componentType":5126,"count":2178,"normalized":false,"byteOffset":0,"bufferView":40},{"type":"SCALAR","componentType":5123,"count":13056,"normalized":false,"byteOffset":340032,"bufferView":3},{"type":"VEC3","componentType":5126,"count":13796,"max":[-0.6086651086807251,0.7742999792098999,0.012575974687933922],"min":[-0.609250009059906,0.44369998574256897,-0.012575974687933922],"normalized":false,"byteOffset":0,"bufferView":41},{"type":"VEC3","componentType":5126,"count":13796,"normalized":false,"byteOffset":0,"bufferView":42},{"type":"SCALAR","componentType":5123,"count":20880,"normalized":false,"byteOffset":366144,"bufferView":3},{"type":"VEC3","componentType":5126,"count":9815,"max":[-0.6074935793876648,0.19478611648082733,0.02850000001490116],"min":[-0.609250009059906,-0.19478611648082733,-0.02850000001490116],"normalized":false,"byteOffset":0,"bufferView":43},{"type":"VEC3","componentType":5126,"count":9815,"normalized":false,"byteOffset":0,"bufferView":44},{"type":"SCALAR","componentType":5123,"count":14856,"normalized":false,"byteOffset":407904,"bufferView":3},{"type":"VEC3","componentType":5126,"count":4230,"max":[-0.5497499704360962,-0.8369579911231995,0.14800000190734863],"min":[-0.581249475479126,-0.8450419902801514,-0.14800000190734863],"normalized":false,"byteOffset":0,"bufferView":45},{"type":"VEC3","componentType":5126,"count":4230,"normalized":false,"byteOffset":0,"bufferView":46}],"bufferViews":[{"buffer":1,"byteOffset":0,"byteLength":28560,"target":34962,"byteStride":12,"extensions":{"EXT_meshopt_compression":{"buffer":0,"byteOffset":0,"byteLength":17173,"mode":"ATTRIBUTES","byteStride":12,"count":2380}}},{"buffer":1,"byteOffset":28560,"byteLength":28560,"target":34962,"byteStride":12,"extensions":{"EXT_meshopt_compression":{"buffer":0,"byteOffset":17176,"byteLength":21256,"mode":"ATTRIBUTES","byteStride":12,"count":2380}}},{"buffer":1,"byteOffset":57120,"byteLength":19040,"target":34962,"byteStride":8,"extensions":{"EXT_meshopt_compression":{"buffer":0,"byteOffset":38432,"byteLength":12160,"mode":"ATTRIBUTES","byteStride":8,"count":2380}}},{"buffer":1,"byteOffset":76160,"byteLength":437616,"target":34963,"extensions":{"EXT_meshopt_compression":{"buffer":0,"byteOffset":50592,"byteLength":210662,"mode":"TRIANGLES","byteStride":2,"count":218808}}},{"buffer":1,"byteOffset":513776,"byteLength":6168,"target":34962,"byteStride":12,"extensions":{"EXT_meshopt_compression":{"buffer":0,"byteOffset":261256,"byteLength":3261,"mode":"ATTRIBUTES","byteStride":12,"count":514}}},{"buffer":1,"byteOffset":519944,"byteLength":6168,"target":34962,"byteStride":12,"extensions":{"EXT_meshopt_compression":{"buffer":0,"byteOffset":264520,"byteLength":141,"mode":"ATTRIBUTES","byteStride":12,"count":514}}},{"buffer":1,"byteOffset":526112,"byteLength":88212,"target":34962,"byteStride":12,"extensions":{"EXT_meshopt_compression":{"buffer":0,"byteOffset":264664,"byteLength":38523,"mode":"ATTRIBUTES","byteStride":12,"count":7351}}},{"buffer":1,"byteOffset":614324,"byteLength":88212,"target":34962,"byteStride":12,"extensions":{"EXT_meshopt_compression":{"buffer":0,"byteOffset":303188,"byteLength":1413,"mode":"ATTRIBUTES","byteStride":12,"count":7351}}},{"buffer":1,"byteOffset":702536,"byteLength":9612,"target":34962,"byteStride":12,"extensions":{"EXT_meshopt_compression":{"buffer":0,"byteOffset":304604,"byteLength":4885,"mode":"ATTRIBUTES","byteStride":12,"count":801}}},{"buffer":1,"byteOffset":712148,"byteLength":9612,"target":34962,"byteStride":12,"extensions":{"EXT_meshopt_compression":{"buffer":0,"byteOffset":309492,"byteLength":189,"mode":"ATTRIBUTES","byteStride":12,"count":801}}},{"buffer":1,"byteOffset":721760,"byteLength":12084,"target":34962,"byteStride":12,"extensions":{"EXT_meshopt_compression":{"buffer":0,"byteOffset":309684,"byteLength":6233,"mode":"ATTRIBUTES","byteStride":12,"count":1007}}},{"buffer":1,"byteOffset":733844,"byteLength":12084,"target":34962,"byteStride":12,"extensions":{"EXT_meshopt_compression":{"buffer":0,"byteOffset":315920,"byteLength":225,"mode":"ATTRIBUTES","byteStride":12,"count":1007}}},{"buffer":1,"byteOffset":745928,"byteLength":11532,"target":34962,"byteStride":12,"extensions":{"EXT_meshopt_compression":{"buffer":0,"byteOffset":316148,"byteLength":5884,"mode":"ATTRIBUTES","byteStride":12,"count":961}}},{"buffer":1,"byteOffset":757460,"byteLength":11532,"target":34962,"byteStride":12,"extensions":{"EXT_meshopt_compression":{"buffer":0,"byteOffset":322032,"byteLength":225,"mode":"ATTRIBUTES","byteStride":12,"count":961}}},{"buffer":1,"byteOffset":768992,"byteLength":264804,"target":34962,"byteStride":12,"extensions":{"EXT_meshopt_compression":{"buffer":0,"byteOffset":322260,"byteLength":97099,"mode":"ATTRIBUTES","byteStride":12,"count":22067}}},{"buffer":1,"byteOffset":1033796,"byteLength":264804,"target":34962,"byteStride":12,"extensions":{"EXT_meshopt_compression":{"buffer":0,"byteOffset":419360,"byteLength":164151,"mode":"ATTRIBUTES","byteStride":12,"count":22067}}},{"buffer":1,"byteOffset":1298600,"byteLength":105264,"target":34962,"byteStride":12,"extensions":{"EXT_meshopt_compression":{"buffer":0,"byteOffset":583512,"byteLength":43515,"mode":"ATTRIBUTES","byteStride":12,"count":8772}}},{"buffer":1,"byteOffset":1403864,"byteLength":105264,"target":34962,"byteStride":12,"extensions":{"EXT_meshopt_compression":{"buffer":0,"byteOffset":627028,"byteLength":14453,"mode":"ATTRIBUTES","byteStride":12,"count":8772}}},{"buffer":1,"byteOffset":1509128,"byteLength":70176,"target":34962,"byteStride":8,"extensions":{"EXT_meshopt_compression":{"buffer":0,"byteOffset":641484,"byteLength":35388,"mode":"ATTRIBUTES","byteStride":8,"count":8772}}},{"buffer":1,"byteOffset":1579304,"byteLength":96,"target":34962,"byteStride":12,"extensions":{"EXT_meshopt_compression":{"buffer":0,"byteOffset":676872,"byteLength":89,"mode":"ATTRIBUTES","byteStride":12,"count":8}}},{"buffer":1,"byteOffset":1579400,"byteLength":96,"target":34962,"byteStride":12,"extensions":{"EXT_meshopt_compression":{"buffer":0,"byteOffset":676964,"byteLength":50,"mode":"ATTRIBUTES","byteStride":12,"count":8}}},{"buffer":1,"byteOffset":1579496,"byteLength":768,"target":34962,"byteStride":12,"extensions":{"EXT_meshopt_compression":{"buffer":0,"byteOffset":677016,"byteLength":332,"mode":"ATTRIBUTES","byteStride":12,"count":64}}},{"buffer":1,"byteOffset":1580264,"byteLength":768,"target":34962,"byteStride":12,"extensions":{"EXT_meshopt_compression":{"buffer":0,"byteOffset":677348,"byteLength":362,"mode":"ATTRIBUTES","byteStride":12,"count":64}}},{"buffer":1,"byteOffset":1581032,"byteLength":768,"target":34962,"byteStride":12,"extensions":{"EXT_meshopt_compression":{"buffer":0,"byteOffset":677712,"byteLength":332,"mode":"ATTRIBUTES","byteStride":12,"count":64}}},{"buffer":1,"byteOffset":1581800,"byteLength":768,"target":34962,"byteStride":12,"extensions":{"EXT_meshopt_compression":{"buffer":0,"byteOffset":678044,"byteLength":362,"mode":"ATTRIBUTES","byteStride":12,"count":64}}},{"buffer":1,"byteOffset":1582568,"byteLength":15960,"target":34962,"byteStride":12,"extensions":{"EXT_meshopt_compression":{"buffer":0,"byteOffset":678408,"byteLength":10321,"mode":"ATTRIBUTES","byteStride":12,"count":1330}}},{"buffer":1,"byteOffset":1598528,"byteLength":15960,"target":34962,"byteStride":12,"extensions":{"EXT_meshopt_compression":{"buffer":0,"byteOffset":688732,"byteLength":12244,"mode":"ATTRIBUTES","byteStride":12,"count":1330}}},{"buffer":1,"byteOffset":1614488,"byteLength":10640,"target":34962,"byteStride":8,"extensions":{"EXT_meshopt_compression":{"buffer":0,"byteOffset":700976,"byteLength":7121,"mode":"ATTRIBUTES","byteStride":8,"count":1330}}},{"buffer":1,"byteOffset":1625128,"byteLength":14412,"target":34962,"byteStride":12,"extensions":{"EXT_meshopt_compression":{"buffer":0,"byteOffset":708100,"byteLength":8871,"mode":"ATTRIBUTES","byteStride":12,"count":1201}}},{"buffer":1,"byteOffset":1639540,"byteLength":14412,"target":34962,"byteStride":12,"extensions":{"EXT_meshopt_compression":{"buffer":0,"byteOffset":716972,"byteLength":10601,"mode":"ATTRIBUTES","byteStride":12,"count":1201}}},{"buffer":1,"byteOffset":1653952,"byteLength":9608,"target":34962,"byteStride":8,"extensions":{"EXT_meshopt_compression":{"buffer":0,"byteOffset":727576,"byteLength":6458,"mode":"ATTRIBUTES","byteStride":8,"count":1201}}},{"buffer":1,"byteOffset":1663560,"byteLength":50760,"target":34962,"byteStride":12,"extensions":{"EXT_meshopt_compression":{"buffer":0,"byteOffset":734036,"byteLength":24181,"mode":"ATTRIBUTES","byteStride":12,"count":4230}}},{"buffer":1,"byteOffset":1714320,"byteLength":50760,"target":34962,"byteStride":12,"extensions":{"EXT_meshopt_compression":{"buffer":0,"byteOffset":758220,"byteLength":45403,"mode":"ATTRIBUTES","byteStride":12,"count":4230}}},{"buffer":1,"byteOffset":1765080,"byteLength":7056,"target":34962,"byteStride":12,"extensions":{"EXT_meshopt_compression":{"buffer":0,"byteOffset":803624,"byteLength":1855,"mode":"ATTRIBUTES","byteStride":12,"count":588}}},{"buffer":1,"byteOffset":1772136,"byteLength":7056,"target":34962,"byteStride":12,"extensions":{"EXT_meshopt_compression":{"buffer":0,"byteOffset":805480,"byteLength":5817,"mode":"ATTRIBUTES","byteStride":12,"count":588}}},{"buffer":1,"byteOffset":1779192,"byteLength":8760,"target":34962,"byteStride":12,"extensions":{"EXT_meshopt_compression":{"buffer":0,"byteOffset":811300,"byteLength":4464,"mode":"ATTRIBUTES","byteStride":12,"count":730}}},{"buffer":1,"byteOffset":1787952,"byteLength":8760,"target":34962,"byteStride":12,"extensions":{"EXT_meshopt_compression":{"buffer":0,"byteOffset":815764,"byteLength":6185,"mode":"ATTRIBUTES","byteStride":12,"count":730}}},{"buffer":1,"byteOffset":1796712,"byteLength":5840,"target":34962,"byteStride":8,"extensions":{"EXT_meshopt_compression":{"buffer":0,"byteOffset":821952,"byteLength":2354,"mode":"ATTRIBUTES","byteStride":8,"count":730}}},{"buffer":1,"byteOffset":1802552,"byteLength":26136,"target":34962,"byteStride":12,"extensions":{"EXT_meshopt_compression":{"buffer":0,"byteOffset":824308,"byteLength":15290,"mode":"ATTRIBUTES","byteStride":12,"count":2178}}},{"buffer":1,"byteOffset":1828688,"byteLength":26136,"target":34962,"byteStride":12,"extensions":{"EXT_meshopt_compression":{"buffer":0,"byteOffset":839600,"byteLength":21404,"mode":"ATTRIBUTES","byteStride":12,"count":2178}}},{"buffer":1,"byteOffset":1854824,"byteLength":17424,"target":34962,"byteStride":8,"extensions":{"EXT_meshopt_compression":{"buffer":0,"byteOffset":861004,"byteLength":6823,"mode":"ATTRIBUTES","byteStride":8,"count":2178}}},{"buffer":1,"byteOffset":1872248,"byteLength":165552,"target":34962,"byteStride":12,"extensions":{"EXT_meshopt_compression":{"buffer":0,"byteOffset":867828,"byteLength":63156,"mode":"ATTRIBUTES","byteStride":12,"count":13796}}},{"buffer":1,"byteOffset":2037800,"byteLength":165552,"target":34962,"byteStride":12,"extensions":{"EXT_meshopt_compression":{"buffer":0,"byteOffset":930984,"byteLength":104200,"mode":"ATTRIBUTES","byteStride":12,"count":13796}}},{"buffer":1,"byteOffset":2203352,"byteLength":117780,"target":34962,"byteStride":12,"extensions":{"EXT_meshopt_compression":{"buffer":0,"byteOffset":1035184,"byteLength":48773,"mode":"ATTRIBUTES","byteStride":12,"count":9815}}},{"buffer":1,"byteOffset":2321132,"byteLength":117780,"target":34962,"byteStride":12,"extensions":{"EXT_meshopt_compression":{"buffer":0,"byteOffset":1083960,"byteLength":77763,"mode":"ATTRIBUTES","byteStride":12,"count":9815}}},{"buffer":1,"byteOffset":2438912,"byteLength":50760,"target":34962,"byteStride":12,"extensions":{"EXT_meshopt_compression":{"buffer":0,"byteOffset":1161724,"byteLength":24181,"mode":"ATTRIBUTES","byteStride":12,"count":4230}}},{"buffer":1,"byteOffset":2489672,"byteLength":50760,"target":34962,"byteStride":12,"extensions":{"EXT_meshopt_compression":{"buffer":0,"byteOffset":1185908,"byteLength":45403,"mode":"ATTRIBUTES","byteStride":12,"count":4230}}}],"samplers":[{"magFilter":9729,"minFilter":9987,"wrapS":10497,"wrapT":10497},{"magFilter":9729,"minFilter":9987,"wrapS":33071,"wrapT":33071}],"textures":[{"sampler":0,"extensions":{"EXT_texture_webp":{"source":0}}},{"sampler":0,"extensions":{"EXT_texture_webp":{"source":2}}},{"sampler":0,"extensions":{"EXT_texture_webp":{"source":1}}},{"sampler":1,"extensions":{"EXT_texture_webp":{"source":5}}},{"sampler":0,"extensions":{"EXT_texture_webp":{"source":4}}},{"sampler":0,"extensions":{"EXT_texture_webp":{"source":3}}},{"sampler":0,"extensions":{"EXT_texture_webp":{"source":6}}}],"images":[{"name":"book_pattern_nor_gl_2k","mimeType":"image/webp","uri":"shared/8de172b46ec41fd3863b660a.webp"},{"name":"compressed-paper-normal","mimeType":"image/webp","uri":"shared/339c1ac519928878fbaa1237.webp"},{"name":"compressed-paper-color","mimeType":"image/webp","uri":"shared/7701c62282fa7f26c46af450.webp"},{"name":"meditations_print_orm","mimeType":"image/webp","uri":"shared/45a47160b98b6893760663fe.webp"},{"name":"meditations_print_normal","mimeType":"image/webp","uri":"shared/9843dc3a496d32c90daf6ae2.webp"},{"name":"edition-meditations","mimeType":"image/webp","uri":"shared/f17f3c01f1780c7a2ee41b62.webp"},{"name":"book_pattern_rough_2k","mimeType":"image/webp","uri":"shared/a04d51bd9431742f3e8e78f4.webp"}],"buffers":[{"uri":"shared/314698ad0f75a27404aaf9a7.bin","byteLength":1231312},{"byteLength":2540432,"extensions":{"EXT_meshopt_compression":{"fallback":true}}}],"materials":[{"name":"meditations case material.002","doubleSided":true,"pbrMetallicRoughness":{"baseColorFactor":[0,0.2581828534603119,0.40724021196365356,1],"roughnessFactor":0.7799999713897705,"metallicFactor":0},"normalTexture":{"index":0,"scale":0.3499999940395355},"extensions":{"KHR_materials_sheen":{"sheenColorFactor":[0.029999999329447746,0.20000000298023224,0.25],"sheenRoughnessFactor":0.8500000238418579}}},{"name":"MAT_meditations_BackInk","doubleSided":true,"pbrMetallicRoughness":{"baseColorFactor":[0.7200000286102295,0.6800000071525574,0.5899999737739563,1],"roughnessFactor":0.7200000286102295,"metallicFactor":0}},{"name":"MAT_meditations_Stamped_Ink.002","doubleSided":true,"pbrMetallicRoughness":{"baseColorFactor":[0.7200000286102295,0.6800000071525574,0.5899999737739563,1],"roughnessFactor":0.2199999988079071,"metallicFactor":0.8999999761581421},"extensions":{"KHR_materials_clearcoat":{"clearcoatFactor":0.44999998807907104,"clearcoatRoughnessFactor":0.20000000298023224}}},{"name":"MAT_meditations_Stamped_Ink.003","doubleSided":true,"pbrMetallicRoughness":{"baseColorFactor":[0.8069522380828857,0.838798999786377,0.8069522380828857,1],"roughnessFactor":0.2199999988079071,"metallicFactor":0.8999999761581421},"extensions":{"KHR_materials_clearcoat":{"clearcoatFactor":0.44999998807907104,"clearcoatRoughnessFactor":0.20000000298023224}}},{"name":"Compressed paper cut surface","doubleSided":true,"pbrMetallicRoughness":{"roughnessFactor":0.8999999761581421,"metallicFactor":0,"baseColorTexture":{"index":1}},"normalTexture":{"index":2}},{"name":"Compressed ivory stock 2","doubleSided":true,"pbrMetallicRoughness":{"baseColorFactor":[0.7279999852180481,0.7129999995231628,0.656000018119812,1],"roughnessFactor":0.8600000143051147,"metallicFactor":0}},{"name":"MAT_meditations_Registered_Print.001","extras":{"surface_finish":"Registered print, selective varnish and metallic stamping"},"doubleSided":true,"pbrMetallicRoughness":{"baseColorTexture":{"index":3},"metallicRoughnessTexture":{"index":5}},"normalTexture":{"index":4},"extensions":{"KHR_materials_clearcoat":{"clearcoatFactor":1,"clearcoatRoughnessFactor":0.23999999463558197,"clearcoatTexture":{"index":5}}}},{"name":"Endband cotton ecru","doubleSided":true,"pbrMetallicRoughness":{"baseColorFactor":[0.5,0.46000000834465027,0.3499999940395355,1],"roughnessFactor":0.8799999952316284,"metallicFactor":0}},{"name":"Binding linen warm ecru","doubleSided":true,"pbrMetallicRoughness":{"baseColorFactor":[0.3799999952316284,0.3400000035762787,0.25999999046325684,1],"roughnessFactor":0.9300000071525574,"metallicFactor":0}},{"name":"meditations woven ribbon.002","doubleSided":true,"pbrMetallicRoughness":{"baseColorFactor":[0.8069522380828857,0.838798999786377,0.8069522380828857,1],"metallicFactor":0,"metallicRoughnessTexture":{"index":6}},"normalTexture":{"index":0,"scale":1.149999976158142},"extensions":{"KHR_materials_sheen":{"sheenColorFactor":[1,1,1],"sheenRoughnessFactor":0.5}}}],"meshes":[{"name":"Pressed case joint Back board.026","primitives":[{"attributes":{"POSITION":0,"NORMAL":1,"TEXCOORD_0":2},"mode":4,"material":0,"indices":3}]},{"name":"Back collection.002","primitives":[{"attributes":{"POSITION":4,"NORMAL":5},"mode":4,"material":1,"indices":6}]},{"name":"Back description.002","primitives":[{"attributes":{"POSITION":7,"NORMAL":8},"mode":4,"material":1,"indices":9}]},{"name":"Back edition.002","primitives":[{"attributes":{"POSITION":10,"NORMAL":11},"mode":4,"material":2,"indices":12}]},{"name":"Back ISBN.002","primitives":[{"attributes":{"POSITION":13,"NORMAL":14},"mode":4,"material":1,"indices":15}]},{"name":"Back title.002","primitives":[{"attributes":{"POSITION":16,"NORMAL":17},"mode":4,"material":2,"indices":18}]},{"name":"Collection mark.018","primitives":[{"attributes":{"POSITION":19,"NORMAL":20},"mode":4,"material":3,"indices":21}]},{"name":"Continuous compressed cut meditations.003","primitives":[{"attributes":{"POSITION":22,"NORMAL":23,"TEXCOORD_0":24},"mode":4,"material":4,"indices":25},{"attributes":{"POSITION":26,"NORMAL":27},"mode":4,"material":5,"indices":28}]},{"name":"Curved foil rule.036","primitives":[{"attributes":{"POSITION":29,"NORMAL":30},"mode":4,"material":3,"indices":31}]},{"name":"Curved foil rule.037","primitives":[{"attributes":{"POSITION":32,"NORMAL":33},"mode":4,"material":3,"indices":31}]},{"name":"Pressed case joint Printed case","primitives":[{"attributes":{"POSITION":34,"NORMAL":35,"TEXCOORD_0":36},"mode":4,"material":6,"indices":37},{"attributes":{"POSITION":38,"NORMAL":39,"TEXCOORD_0":40},"mode":4,"material":0,"indices":41}]},{"name":"Head textile endband meditations.004","primitives":[{"attributes":{"POSITION":42,"NORMAL":43},"mode":4,"material":7,"indices":44}]},{"name":"Linen spine lining meditations.004","primitives":[{"attributes":{"POSITION":45,"NORMAL":46},"mode":4,"material":8,"indices":47}]},{"name":"Ribbon flexible satin meditations.004","primitives":[{"attributes":{"POSITION":48,"NORMAL":49,"TEXCOORD_0":50},"mode":4,"material":9,"indices":51}]},{"name":"Rounded cloth spine.026","primitives":[{"attributes":{"POSITION":52,"NORMAL":53,"TEXCOORD_0":54},"mode":4,"material":0,"indices":55}]},{"name":"Spine author.018","primitives":[{"attributes":{"POSITION":56,"NORMAL":57},"mode":4,"material":3,"indices":58}]},{"name":"Spine title.026","primitives":[{"attributes":{"POSITION":59,"NORMAL":60},"mode":4,"material":3,"indices":61}]},{"name":"Tail textile endband meditations.004","primitives":[{"attributes":{"POSITION":62,"NORMAL":63},"mode":4,"material":7,"indices":44}]}],"nodes":[{"name":"Back board.026","extras":{"edge_refined":true,"unpressed_mesh":"Back board.034","pressed_joint_revision":1,"joint_depth_mm":1.0367668793824891,"joint_center_mm":6.4},"translation":[0,0,-0.16949999332427979],"mesh":0},{"name":"Back collection.002","translation":[0,-0.41760003566741943,-0.18150000274181366],"rotation":[0,-0.7071068286895752,0.7071068286895752,3.090862321641907e-8],"mesh":1},{"name":"Back description.002","translation":[0,0.04350000247359276,-0.18150000274181366],"rotation":[0,-0.7071068286895752,0.7071068286895752,3.090862321641907e-8],"mesh":2},{"name":"Back edition.002","translation":[0,-0.5916000604629517,-0.18150000274181366],"rotation":[0,-0.7071068286895752,0.7071068286895752,3.090862321641907e-8],"mesh":3},{"name":"Back ISBN.002","translation":[0,-0.6786000728607178,-0.18150000274181366],"rotation":[0,-0.7071068286895752,0.7071068286895752,3.090862321641907e-8],"mesh":4},{"name":"Back title.002","translation":[0,0.5046000480651855,-0.18150000274181366],"rotation":[0,-0.7071068286895752,0.7071068286895752,3.090862321641907e-8],"mesh":5},{"name":"Collection mark.018","mesh":6},{"name":"Compressed paper signatures meditations.003","extras":{"paper_surface_revision":1,"leaf_count":208,"paper_caliper_mm":0.1423076923076923,"binding_structure":"Rounded and backed signatures"},"mesh":7},{"name":"Curved foil rule.036","mesh":8},{"name":"Curved foil rule.037","mesh":9},{"name":"Printed case","extras":{"edge_refined":true,"unpressed_mesh":"Front board.034","pressed_joint_revision":1,"joint_depth_mm":1.1132717324132348,"joint_center_mm":6.4},"translation":[0.565000057220459,0,0],"mesh":10},{"name":"FrontHinge.026","translation":[-0.5649999976158142,0,0.16949999332427979],"children":[10]},{"name":"Head textile endband meditations.004","extras":{"binding_revision":2},"mesh":11},{"name":"Linen spine lining meditations.004","extras":{"binding_revision":2},"mesh":12},{"name":"Ribbon flexible satin meditations.004","extras":{"binding_revision":2,"ribbon_width_dm":0.043,"ribbon_length_dm":0.29,"ribbon_anchor_dm":[0,-0.862,0.006]},"mesh":13},{"name":"Rounded cloth spine.026","mesh":14},{"name":"Spine author.018","mesh":15},{"name":"Spine title.026","mesh":16},{"name":"Tail textile endband meditations.004","extras":{"binding_revision":2},"mesh":17},{"name":"Publisher_meditations.001","extras":{"slug":"meditations","dimensions_mm":[113,174,36],"model_design":"Publisher front artwork on a showcase binding; spine and interior are custom reconstructions"},"scale":[0.09637529402971268,0.09999125450849533,0.09974103420972824],"children":[0,1,2,3,4,5,6,7,8,9,11,12,13,14,15,16,17,18]}],"scenes":[{"name":"Library Publisher Editions.001","nodes":[19]}],"scene":0,"extensionsUsed":["EXT_meshopt_compression","EXT_texture_webp","KHR_materials_clearcoat","KHR_materials_sheen"],"extensionsRequired":["EXT_meshopt_compression","EXT_texture_webp"]}