{"asset":{"generator":"glTF-Transform v4.5.0","version":"2.0"},"accessors":[{"type":"VEC3","componentType":5126,"count":2380,"max":[0.5647345781326294,0.8698096871376038,0.010827695019543171],"min":[-0.5647345781326294,-0.8698096871376038,-0.010827695019543171],"normalized":false,"byteOffset":0,"bufferView":0},{"type":"VEC3","componentType":5126,"count":2380,"normalized":false,"byteOffset":0,"bufferView":1},{"type":"VEC2","componentType":5126,"count":2380,"normalized":false,"byteOffset":0,"bufferView":2},{"type":"SCALAR","componentType":5123,"count":12564,"normalized":false,"byteOffset":0,"bufferView":3},{"type":"VEC3","componentType":5126,"count":514,"max":[0.1009504571557045,0,0.0053944955579936504],"min":[-0.09995229542255402,0,-0.005732110235840082],"normalized":false,"byteOffset":0,"bufferView":4},{"type":"VEC3","componentType":5126,"count":514,"normalized":false,"byteOffset":0,"bufferView":5},{"type":"VEC2","componentType":5126,"count":514,"normalized":false,"byteOffset":0,"bufferView":6},{"type":"SCALAR","componentType":5123,"count":1482,"normalized":false,"byteOffset":25128,"bufferView":3},{"type":"VEC3","componentType":5126,"count":7351,"max":[0.16860169172286987,0,0.07085000723600388],"min":[-0.1680404096841812,0,-0.07163350284099579],"normalized":false,"byteOffset":0,"bufferView":7},{"type":"VEC3","componentType":5126,"count":7351,"normalized":false,"byteOffset":0,"bufferView":8},{"type":"VEC2","componentType":5126,"count":7351,"normalized":false,"byteOffset":0,"bufferView":9},{"type":"SCALAR","componentType":5123,"count":21717,"normalized":false,"byteOffset":28092,"bufferView":3},{"type":"VEC3","componentType":5126,"count":801,"max":[0.13837212324142456,0,0.00647339504212141],"min":[-0.1379229575395584,0,-0.00688733858987689],"normalized":false,"byteOffset":0,"bufferView":10},{"type":"VEC3","componentType":5126,"count":801,"normalized":false,"byteOffset":0,"bufferView":11},{"type":"VEC2","componentType":5126,"count":801,"normalized":false,"byteOffset":0,"bufferView":12},{"type":"SCALAR","componentType":5123,"count":2325,"normalized":false,"byteOffset":71526,"bufferView":3},{"type":"VEC3","componentType":5126,"count":1007,"max":[0.07916422188282013,0,0.005671926308423281],"min":[-0.0783858671784401,0,-0.0060187154449522495],"normalized":false,"byteOffset":0,"bufferView":13},{"type":"VEC3","componentType":5126,"count":1007,"normalized":false,"byteOffset":0,"bufferView":14},{"type":"VEC2","componentType":5126,"count":1007,"normalized":false,"byteOffset":0,"bufferView":15},{"type":"SCALAR","componentType":5123,"count":2991,"normalized":false,"byteOffset":76176,"bufferView":3},{"type":"VEC3","componentType":5126,"count":177,"max":[0.5299999713897705,0.8374999761581421,0.0010000000474974513],"min":[-0.5299999713897705,-0.8374999761581421,-0.0010000000474974513],"normalized":false,"byteOffset":0,"bufferView":16},{"type":"VEC3","componentType":5126,"count":177,"normalized":false,"byteOffset":0,"bufferView":17},{"type":"VEC2","componentType":5126,"count":177,"normalized":false,"byteOffset":0,"bufferView":18},{"type":"VEC2","componentType":5126,"count":177,"normalized":false,"byteOffset":0,"bufferView":19},{"type":"SCALAR","componentType":5123,"count":564,"normalized":false,"byteOffset":82158,"bufferView":3},{"type":"VEC3","componentType":5126,"count":961,"max":[0.10862721502780914,0,0.015037741512060165],"min":[-0.1092129722237587,0,-0.016835398972034454],"normalized":false,"byteOffset":0,"bufferView":20},{"type":"VEC3","componentType":5126,"count":961,"normalized":false,"byteOffset":0,"bufferView":21},{"type":"VEC2","componentType":5126,"count":961,"normalized":false,"byteOffset":0,"bufferView":22},{"type":"SCALAR","componentType":5123,"count":2829,"normalized":false,"byteOffset":83286,"bufferView":3},{"type":"VEC3","componentType":5126,"count":22067,"max":[-0.6088598966598511,-0.5133000016212463,0.007070253137499094],"min":[-0.609250009059906,-0.8090999722480774,-0.007070253137499094],"normalized":false,"byteOffset":0,"bufferView":23},{"type":"VEC3","componentType":5126,"count":22067,"normalized":false,"byteOffset":0,"bufferView":24},{"type":"VEC2","componentType":5126,"count":22067,"normalized":false,"byteOffset":0,"bufferView":25},{"type":"SCALAR","componentType":5123,"count":33360,"normalized":false,"byteOffset":88944,"bufferView":3},{"type":"VEC3","componentType":5126,"count":8772,"max":[0.5379999876022339,0.8420993089675903,0.14800000190734863],"min":[-0.578000009059906,-0.8420827984809875,-0.14800000190734863],"normalized":false,"byteOffset":0,"bufferView":26},{"type":"VEC3","componentType":5126,"count":8772,"normalized":false,"byteOffset":0,"bufferView":27},{"type":"VEC2","componentType":5126,"count":8772,"normalized":false,"byteOffset":0,"bufferView":28},{"type":"SCALAR","componentType":5123,"count":49152,"normalized":false,"byteOffset":155664,"bufferView":3},{"type":"VEC3","componentType":5126,"count":8,"max":[0.5379999876022339,0.8420000076293945,0.14800000190734863],"min":[-0.5550000071525574,-0.8420000076293945,-0.14800000190734863],"normalized":false,"byteOffset":0,"bufferView":29},{"type":"VEC3","componentType":5126,"count":8,"normalized":false,"byteOffset":0,"bufferView":30},{"type":"VEC2","componentType":5126,"count":8,"normalized":false,"byteOffset":0,"bufferView":31},{"type":"SCALAR","componentType":5123,"count":12,"normalized":false,"byteOffset":253968,"bufferView":3},{"type":"VEC3","componentType":5126,"count":64,"max":[-0.5896047353744507,-0.46880000829696655,0.10847999900579453],"min":[-0.6090999841690063,-0.4708000123500824,-0.10847999900579453],"normalized":false,"byteOffset":0,"bufferView":32},{"type":"VEC3","componentType":5126,"count":64,"normalized":false,"byteOffset":0,"bufferView":33},{"type":"VEC2","componentType":5126,"count":64,"normalized":false,"byteOffset":0,"bufferView":34},{"type":"SCALAR","componentType":5123,"count":96,"normalized":false,"byteOffset":253992,"bufferView":3},{"type":"VEC3","componentType":5126,"count":64,"max":[-0.5896047353744507,0.40119999647140503,0.10847999900579453],"min":[-0.6090999841690063,0.3991999924182892,-0.10847999900579453],"normalized":false,"byteOffset":0,"bufferView":35},{"type":"VEC3","componentType":5126,"count":64,"normalized":false,"byteOffset":0,"bufferView":36},{"type":"VEC2","componentType":5126,"count":64,"normalized":false,"byteOffset":0,"bufferView":37},{"type":"VEC3","componentType":5126,"count":177,"max":[0.5299999713897705,0.8374999761581421,0.0010000000474974513],"min":[-0.5299999713897705,-0.8374999761581421,-0.0010000000474974513],"normalized":false,"byteOffset":0,"bufferView":38},{"type":"VEC3","componentType":5126,"count":177,"normalized":false,"byteOffset":0,"bufferView":39},{"type":"VEC2","componentType":5126,"count":177,"normalized":false,"byteOffset":0,"bufferView":40},{"type":"VEC2","componentType":5126,"count":177,"normalized":false,"byteOffset":0,"bufferView":41},{"type":"VEC3","componentType":5126,"count":1330,"max":[0.5647348165512085,0.869810163974762,0.01162668876349926],"min":[-0.5647348165512085,-0.869810163974762,-0.009256619028747082],"normalized":false,"byteOffset":0,"bufferView":42},{"type":"VEC3","componentType":5126,"count":1330,"normalized":false,"byteOffset":0,"bufferView":43},{"type":"VEC2","componentType":5126,"count":1330,"normalized":false,"byteOffset":0,"bufferView":44},{"type":"VEC2","componentType":5126,"count":1330,"normalized":false,"byteOffset":0,"bufferView":45},{"type":"VEC2","componentType":5126,"count":1330,"normalized":false,"byteOffset":0,"bufferView":46},{"type":"VEC2","componentType":5126,"count":1330,"normalized":false,"byteOffset":0,"bufferView":47},{"type":"SCALAR","componentType":5123,"count":6708,"normalized":false,"byteOffset":254184,"bufferView":3},{"type":"VEC3","componentType":5126,"count":1201,"max":[0.5647348165512085,0.869810163974762,-0.0047952840104699135],"min":[-0.5647348165512085,-0.869810163974762,-0.01162669062614441],"normalized":false,"byteOffset":0,"bufferView":48},{"type":"VEC3","componentType":5126,"count":1201,"normalized":false,"byteOffset":0,"bufferView":49},{"type":"VEC2","componentType":5126,"count":1201,"normalized":false,"byteOffset":0,"bufferView":50},{"type":"VEC2","componentType":5126,"count":1201,"normalized":false,"byteOffset":0,"bufferView":51},{"type":"VEC2","componentType":5126,"count":1201,"normalized":false,"byteOffset":0,"bufferView":52},{"type":"VEC2","componentType":5126,"count":1201,"normalized":false,"byteOffset":0,"bufferView":53},{"type":"SCALAR","componentType":5123,"count":5928,"normalized":false,"byteOffset":267600,"bufferView":3},{"type":"VEC3","componentType":5126,"count":4230,"max":[-0.5497499704360962,0.8450419902801514,0.14800000190734863],"min":[-0.581249475479126,0.8369579911231995,-0.14800000190734863],"normalized":false,"byteOffset":0,"bufferView":54},{"type":"VEC3","componentType":5126,"count":4230,"normalized":false,"byteOffset":0,"bufferView":55},{"type":"SCALAR","componentType":5123,"count":25320,"normalized":false,"byteOffset":279456,"bufferView":3},{"type":"VEC3","componentType":5126,"count":588,"max":[-0.555608332157135,0.8299999833106995,0.14800000190734863],"min":[-0.5809999704360962,-0.8299999833106995,-0.14800000190734863],"normalized":false,"byteOffset":0,"bufferView":56},{"type":"VEC3","componentType":5126,"count":588,"normalized":false,"byteOffset":0,"bufferView":57},{"type":"SCALAR","componentType":5123,"count":1164,"normalized":false,"byteOffset":330096,"bufferView":3},{"type":"VEC3","componentType":5126,"count":730,"max":[0.02171693742275238,-0.8619991540908813,0.02216394618153572],"min":[-0.02171693742275238,-1.1519999504089355,0.006000000052154064],"normalized":false,"byteOffset":0,"bufferView":58},{"type":"VEC3","componentType":5126,"count":730,"normalized":false,"byteOffset":0,"bufferView":59},{"type":"VEC2","componentType":5126,"count":730,"normalized":false,"byteOffset":0,"bufferView":60},{"type":"SCALAR","componentType":5123,"count":4368,"normalized":false,"byteOffset":332424,"bufferView":3},{"type":"VEC3","componentType":5126,"count":2178,"max":[-0.5570231080055237,0.8700764775276184,0.16949999332427979],"min":[-0.6074996590614319,-0.8700757026672363,-0.16949999332427979],"normalized":false,"byteOffset":0,"bufferView":61},{"type":"VEC3","componentType":5126,"count":2178,"normalized":false,"byteOffset":0,"bufferView":62},{"type":"VEC2","componentType":5126,"count":2178,"normalized":false,"byteOffset":0,"bufferView":63},{"type":"SCALAR","componentType":5123,"count":13056,"normalized":false,"byteOffset":341160,"bufferView":3},{"type":"VEC3","componentType":5126,"count":13796,"max":[-0.6086651086807251,0.7742999792098999,0.012575974687933922],"min":[-0.609250009059906,0.44369998574256897,-0.012575974687933922],"normalized":false,"byteOffset":0,"bufferView":64},{"type":"VEC3","componentType":5126,"count":13796,"normalized":false,"byteOffset":0,"bufferView":65},{"type":"VEC2","componentType":5126,"count":13796,"normalized":false,"byteOffset":0,"bufferView":66},{"type":"SCALAR","componentType":5123,"count":20880,"normalized":false,"byteOffset":367272,"bufferView":3},{"type":"VEC3","componentType":5126,"count":9815,"max":[-0.6074935793876648,0.19478611648082733,0.02850000001490116],"min":[-0.609250009059906,-0.19478611648082733,-0.02850000001490116],"normalized":false,"byteOffset":0,"bufferView":67},{"type":"VEC3","componentType":5126,"count":9815,"normalized":false,"byteOffset":0,"bufferView":68},{"type":"VEC2","componentType":5126,"count":9815,"normalized":false,"byteOffset":0,"bufferView":69},{"type":"SCALAR","componentType":5123,"count":14856,"normalized":false,"byteOffset":409032,"bufferView":3},{"type":"VEC3","componentType":5126,"count":4230,"max":[-0.5497499704360962,-0.8369579911231995,0.14800000190734863],"min":[-0.581249475479126,-0.8450419902801514,-0.14800000190734863],"normalized":false,"byteOffset":0,"bufferView":70},{"type":"VEC3","componentType":5126,"count":4230,"normalized":false,"byteOffset":0,"bufferView":71},{"type":"VEC3","componentType":5126,"count":1066,"max":[1.0549999475479126,0.8379999995231628,0.0031979032792150974],"min":[-0.000021593445126200095,-0.8379999995231628,0],"normalized":false,"byteOffset":0,"bufferView":72},{"type":"VEC3","componentType":5126,"count":1066,"normalized":false,"byteOffset":0,"bufferView":73},{"type":"VEC2","componentType":5126,"count":1066,"normalized":false,"byteOffset":0,"bufferView":74},{"type":"SCALAR","componentType":5123,"count":6384,"normalized":false,"byteOffset":438744,"bufferView":3},{"type":"VEC3","componentType":5126,"count":6496,"max":[0.6514672040939331,-0.07370888441801071,0.0036965867038816214],"min":[0.4160703420639038,-0.09880810976028442,0.003678566310554743],"normalized":false,"byteOffset":0,"bufferView":75},{"type":"VEC3","componentType":5126,"count":6496,"normalized":false,"byteOffset":0,"bufferView":76},{"type":"VEC2","componentType":5126,"count":6496,"normalized":false,"byteOffset":0,"bufferView":77},{"type":"SCALAR","componentType":5123,"count":19104,"normalized":false,"byteOffset":451512,"bufferView":3},{"type":"VEC3","componentType":5126,"count":9422,"max":[0.6642783284187317,-0.6193342804908752,0.0036967669147998095],"min":[0.4037024974822998,-0.6335614323616028,0.003675643354654312],"normalized":false,"byteOffset":0,"bufferView":78},{"type":"VEC3","componentType":5126,"count":9422,"normalized":false,"byteOffset":0,"bufferView":79},{"type":"VEC2","componentType":5126,"count":9422,"normalized":false,"byteOffset":0,"bufferView":80},{"type":"SCALAR","componentType":5123,"count":27840,"normalized":false,"byteOffset":489720,"bufferView":3},{"type":"VEC3","componentType":5126,"count":5102,"max":[0.734102725982666,0.3616125285625458,0.0036973971873521805],"min":[0.3328182101249695,0.3028988540172577,0.0036480349954217672],"normalized":false,"byteOffset":0,"bufferView":81},{"type":"VEC3","componentType":5126,"count":5102,"normalized":false,"byteOffset":0,"bufferView":82},{"type":"VEC2","componentType":5126,"count":5102,"normalized":false,"byteOffset":0,"bufferView":83},{"type":"SCALAR","componentType":5123,"count":14856,"normalized":false,"byteOffset":545400,"bufferView":3}],"bufferViews":[{"buffer":1,"byteOffset":0,"byteLength":28560,"target":34962,"byteStride":12,"extensions":{"EXT_meshopt_compression":{"buffer":0,"byteOffset":0,"byteLength":17173,"mode":"ATTRIBUTES","byteStride":12,"count":2380}}},{"buffer":1,"byteOffset":28560,"byteLength":28560,"target":34962,"byteStride":12,"extensions":{"EXT_meshopt_compression":{"buffer":0,"byteOffset":17176,"byteLength":21256,"mode":"ATTRIBUTES","byteStride":12,"count":2380}}},{"buffer":1,"byteOffset":57120,"byteLength":19040,"target":34962,"byteStride":8,"extensions":{"EXT_meshopt_compression":{"buffer":0,"byteOffset":38432,"byteLength":12160,"mode":"ATTRIBUTES","byteStride":8,"count":2380}}},{"buffer":1,"byteOffset":76160,"byteLength":575112,"target":34963,"extensions":{"EXT_meshopt_compression":{"buffer":0,"byteOffset":50592,"byteLength":272998,"mode":"TRIANGLES","byteStride":2,"count":287556}}},{"buffer":1,"byteOffset":651272,"byteLength":6168,"target":34962,"byteStride":12,"extensions":{"EXT_meshopt_compression":{"buffer":0,"byteOffset":323592,"byteLength":3261,"mode":"ATTRIBUTES","byteStride":12,"count":514}}},{"buffer":1,"byteOffset":657440,"byteLength":6168,"target":34962,"byteStride":12,"extensions":{"EXT_meshopt_compression":{"buffer":0,"byteOffset":326856,"byteLength":141,"mode":"ATTRIBUTES","byteStride":12,"count":514}}},{"buffer":1,"byteOffset":663608,"byteLength":4112,"target":34962,"byteStride":8,"extensions":{"EXT_meshopt_compression":{"buffer":0,"byteOffset":327000,"byteLength":1619,"mode":"ATTRIBUTES","byteStride":8,"count":514}}},{"buffer":1,"byteOffset":667720,"byteLength":88212,"target":34962,"byteStride":12,"extensions":{"EXT_meshopt_compression":{"buffer":0,"byteOffset":328620,"byteLength":38523,"mode":"ATTRIBUTES","byteStride":12,"count":7351}}},{"buffer":1,"byteOffset":755932,"byteLength":88212,"target":34962,"byteStride":12,"extensions":{"EXT_meshopt_compression":{"buffer":0,"byteOffset":367144,"byteLength":1413,"mode":"ATTRIBUTES","byteStride":12,"count":7351}}},{"buffer":1,"byteOffset":844144,"byteLength":58808,"target":34962,"byteStride":8,"extensions":{"EXT_meshopt_compression":{"buffer":0,"byteOffset":368560,"byteLength":21567,"mode":"ATTRIBUTES","byteStride":8,"count":7351}}},{"buffer":1,"byteOffset":902952,"byteLength":9612,"target":34962,"byteStride":12,"extensions":{"EXT_meshopt_compression":{"buffer":0,"byteOffset":390128,"byteLength":4885,"mode":"ATTRIBUTES","byteStride":12,"count":801}}},{"buffer":1,"byteOffset":912564,"byteLength":9612,"target":34962,"byteStride":12,"extensions":{"EXT_meshopt_compression":{"buffer":0,"byteOffset":395016,"byteLength":189,"mode":"ATTRIBUTES","byteStride":12,"count":801}}},{"buffer":1,"byteOffset":922176,"byteLength":6408,"target":34962,"byteStride":8,"extensions":{"EXT_meshopt_compression":{"buffer":0,"byteOffset":395208,"byteLength":2512,"mode":"ATTRIBUTES","byteStride":8,"count":801}}},{"buffer":1,"byteOffset":928584,"byteLength":12084,"target":34962,"byteStride":12,"extensions":{"EXT_meshopt_compression":{"buffer":0,"byteOffset":397720,"byteLength":6233,"mode":"ATTRIBUTES","byteStride":12,"count":1007}}},{"buffer":1,"byteOffset":940668,"byteLength":12084,"target":34962,"byteStride":12,"extensions":{"EXT_meshopt_compression":{"buffer":0,"byteOffset":403956,"byteLength":225,"mode":"ATTRIBUTES","byteStride":12,"count":1007}}},{"buffer":1,"byteOffset":952752,"byteLength":8056,"target":34962,"byteStride":8,"extensions":{"EXT_meshopt_compression":{"buffer":0,"byteOffset":404184,"byteLength":3025,"mode":"ATTRIBUTES","byteStride":8,"count":1007}}},{"buffer":1,"byteOffset":960808,"byteLength":2124,"target":34962,"byteStride":12,"extensions":{"EXT_meshopt_compression":{"buffer":0,"byteOffset":407212,"byteLength":1070,"mode":"ATTRIBUTES","byteStride":12,"count":177}}},{"buffer":1,"byteOffset":962932,"byteLength":2124,"target":34962,"byteStride":12,"extensions":{"EXT_meshopt_compression":{"buffer":0,"byteOffset":408284,"byteLength":1524,"mode":"ATTRIBUTES","byteStride":12,"count":177}}},{"buffer":1,"byteOffset":965056,"byteLength":1416,"target":34962,"byteStride":8,"extensions":{"EXT_meshopt_compression":{"buffer":0,"byteOffset":409808,"byteLength":1181,"mode":"ATTRIBUTES","byteStride":8,"count":177}}},{"buffer":1,"byteOffset":966472,"byteLength":1416,"target":34962,"byteStride":8,"extensions":{"EXT_meshopt_compression":{"buffer":0,"byteOffset":410992,"byteLength":678,"mode":"ATTRIBUTES","byteStride":8,"count":177}}},{"buffer":1,"byteOffset":967888,"byteLength":11532,"target":34962,"byteStride":12,"extensions":{"EXT_meshopt_compression":{"buffer":0,"byteOffset":411672,"byteLength":5884,"mode":"ATTRIBUTES","byteStride":12,"count":961}}},{"buffer":1,"byteOffset":979420,"byteLength":11532,"target":34962,"byteStride":12,"extensions":{"EXT_meshopt_compression":{"buffer":0,"byteOffset":417556,"byteLength":225,"mode":"ATTRIBUTES","byteStride":12,"count":961}}},{"buffer":1,"byteOffset":990952,"byteLength":7688,"target":34962,"byteStride":8,"extensions":{"EXT_meshopt_compression":{"buffer":0,"byteOffset":417784,"byteLength":2906,"mode":"ATTRIBUTES","byteStride":8,"count":961}}},{"buffer":1,"byteOffset":998640,"byteLength":264804,"target":34962,"byteStride":12,"extensions":{"EXT_meshopt_compression":{"buffer":0,"byteOffset":420692,"byteLength":97099,"mode":"ATTRIBUTES","byteStride":12,"count":22067}}},{"buffer":1,"byteOffset":1263444,"byteLength":264804,"target":34962,"byteStride":12,"extensions":{"EXT_meshopt_compression":{"buffer":0,"byteOffset":517792,"byteLength":164151,"mode":"ATTRIBUTES","byteStride":12,"count":22067}}},{"buffer":1,"byteOffset":1528248,"byteLength":176536,"target":34962,"byteStride":8,"extensions":{"EXT_meshopt_compression":{"buffer":0,"byteOffset":681944,"byteLength":53993,"mode":"ATTRIBUTES","byteStride":8,"count":22067}}},{"buffer":1,"byteOffset":1704784,"byteLength":105264,"target":34962,"byteStride":12,"extensions":{"EXT_meshopt_compression":{"buffer":0,"byteOffset":735940,"byteLength":43515,"mode":"ATTRIBUTES","byteStride":12,"count":8772}}},{"buffer":1,"byteOffset":1810048,"byteLength":105264,"target":34962,"byteStride":12,"extensions":{"EXT_meshopt_compression":{"buffer":0,"byteOffset":779456,"byteLength":14453,"mode":"ATTRIBUTES","byteStride":12,"count":8772}}},{"buffer":1,"byteOffset":1915312,"byteLength":70176,"target":34962,"byteStride":8,"extensions":{"EXT_meshopt_compression":{"buffer":0,"byteOffset":793912,"byteLength":35388,"mode":"ATTRIBUTES","byteStride":8,"count":8772}}},{"buffer":1,"byteOffset":1985488,"byteLength":96,"target":34962,"byteStride":12,"extensions":{"EXT_meshopt_compression":{"buffer":0,"byteOffset":829300,"byteLength":89,"mode":"ATTRIBUTES","byteStride":12,"count":8}}},{"buffer":1,"byteOffset":1985584,"byteLength":96,"target":34962,"byteStride":12,"extensions":{"EXT_meshopt_compression":{"buffer":0,"byteOffset":829392,"byteLength":50,"mode":"ATTRIBUTES","byteStride":12,"count":8}}},{"buffer":1,"byteOffset":1985680,"byteLength":64,"target":34962,"byteStride":8,"extensions":{"EXT_meshopt_compression":{"buffer":0,"byteOffset":829444,"byteLength":71,"mode":"ATTRIBUTES","byteStride":8,"count":8}}},{"buffer":1,"byteOffset":1985744,"byteLength":768,"target":34962,"byteStride":12,"extensions":{"EXT_meshopt_compression":{"buffer":0,"byteOffset":829516,"byteLength":332,"mode":"ATTRIBUTES","byteStride":12,"count":64}}},{"buffer":1,"byteOffset":1986512,"byteLength":768,"target":34962,"byteStride":12,"extensions":{"EXT_meshopt_compression":{"buffer":0,"byteOffset":829848,"byteLength":362,"mode":"ATTRIBUTES","byteStride":12,"count":64}}},{"buffer":1,"byteOffset":1987280,"byteLength":512,"target":34962,"byteStride":8,"extensions":{"EXT_meshopt_compression":{"buffer":0,"byteOffset":830212,"byteLength":182,"mode":"ATTRIBUTES","byteStride":8,"count":64}}},{"buffer":1,"byteOffset":1987792,"byteLength":768,"target":34962,"byteStride":12,"extensions":{"EXT_meshopt_compression":{"buffer":0,"byteOffset":830396,"byteLength":332,"mode":"ATTRIBUTES","byteStride":12,"count":64}}},{"buffer":1,"byteOffset":1988560,"byteLength":768,"target":34962,"byteStride":12,"extensions":{"EXT_meshopt_compression":{"buffer":0,"byteOffset":830728,"byteLength":362,"mode":"ATTRIBUTES","byteStride":12,"count":64}}},{"buffer":1,"byteOffset":1989328,"byteLength":512,"target":34962,"byteStride":8,"extensions":{"EXT_meshopt_compression":{"buffer":0,"byteOffset":831092,"byteLength":182,"mode":"ATTRIBUTES","byteStride":8,"count":64}}},{"buffer":1,"byteOffset":1989840,"byteLength":2124,"target":34962,"byteStride":12,"extensions":{"EXT_meshopt_compression":{"buffer":0,"byteOffset":831276,"byteLength":1070,"mode":"ATTRIBUTES","byteStride":12,"count":177}}},{"buffer":1,"byteOffset":1991964,"byteLength":2124,"target":34962,"byteStride":12,"extensions":{"EXT_meshopt_compression":{"buffer":0,"byteOffset":832348,"byteLength":1524,"mode":"ATTRIBUTES","byteStride":12,"count":177}}},{"buffer":1,"byteOffset":1994088,"byteLength":1416,"target":34962,"byteStride":8,"extensions":{"EXT_meshopt_compression":{"buffer":0,"byteOffset":833872,"byteLength":1181,"mode":"ATTRIBUTES","byteStride":8,"count":177}}},{"buffer":1,"byteOffset":1995504,"byteLength":1416,"target":34962,"byteStride":8,"extensions":{"EXT_meshopt_compression":{"buffer":0,"byteOffset":835056,"byteLength":678,"mode":"ATTRIBUTES","byteStride":8,"count":177}}},{"buffer":1,"byteOffset":1996920,"byteLength":15960,"target":34962,"byteStride":12,"extensions":{"EXT_meshopt_compression":{"buffer":0,"byteOffset":835736,"byteLength":10321,"mode":"ATTRIBUTES","byteStride":12,"count":1330}}},{"buffer":1,"byteOffset":2012880,"byteLength":15960,"target":34962,"byteStride":12,"extensions":{"EXT_meshopt_compression":{"buffer":0,"byteOffset":846060,"byteLength":12244,"mode":"ATTRIBUTES","byteStride":12,"count":1330}}},{"buffer":1,"byteOffset":2028840,"byteLength":10640,"target":34962,"byteStride":8,"extensions":{"EXT_meshopt_compression":{"buffer":0,"byteOffset":858304,"byteLength":7029,"mode":"ATTRIBUTES","byteStride":8,"count":1330}}},{"buffer":1,"byteOffset":2039480,"byteLength":10640,"target":34962,"byteStride":8,"extensions":{"EXT_meshopt_compression":{"buffer":0,"byteOffset":865336,"byteLength":7121,"mode":"ATTRIBUTES","byteStride":8,"count":1330}}},{"buffer":1,"byteOffset":2050120,"byteLength":10640,"target":34962,"byteStride":8,"extensions":{"EXT_meshopt_compression":{"buffer":0,"byteOffset":872460,"byteLength":6334,"mode":"ATTRIBUTES","byteStride":8,"count":1330}}},{"buffer":1,"byteOffset":2060760,"byteLength":10640,"target":34962,"byteStride":8,"extensions":{"EXT_meshopt_compression":{"buffer":0,"byteOffset":878796,"byteLength":6223,"mode":"ATTRIBUTES","byteStride":8,"count":1330}}},{"buffer":1,"byteOffset":2071400,"byteLength":14412,"target":34962,"byteStride":12,"extensions":{"EXT_meshopt_compression":{"buffer":0,"byteOffset":885020,"byteLength":8871,"mode":"ATTRIBUTES","byteStride":12,"count":1201}}},{"buffer":1,"byteOffset":2085812,"byteLength":14412,"target":34962,"byteStride":12,"extensions":{"EXT_meshopt_compression":{"buffer":0,"byteOffset":893892,"byteLength":10601,"mode":"ATTRIBUTES","byteStride":12,"count":1201}}},{"buffer":1,"byteOffset":2100224,"byteLength":9608,"target":34962,"byteStride":8,"extensions":{"EXT_meshopt_compression":{"buffer":0,"byteOffset":904496,"byteLength":6458,"mode":"ATTRIBUTES","byteStride":8,"count":1201}}},{"buffer":1,"byteOffset":2109832,"byteLength":9608,"target":34962,"byteStride":8,"extensions":{"EXT_meshopt_compression":{"buffer":0,"byteOffset":910956,"byteLength":6487,"mode":"ATTRIBUTES","byteStride":8,"count":1201}}},{"buffer":1,"byteOffset":2119440,"byteLength":9608,"target":34962,"byteStride":8,"extensions":{"EXT_meshopt_compression":{"buffer":0,"byteOffset":917444,"byteLength":5886,"mode":"ATTRIBUTES","byteStride":8,"count":1201}}},{"buffer":1,"byteOffset":2129048,"byteLength":9608,"target":34962,"byteStride":8,"extensions":{"EXT_meshopt_compression":{"buffer":0,"byteOffset":923332,"byteLength":5558,"mode":"ATTRIBUTES","byteStride":8,"count":1201}}},{"buffer":1,"byteOffset":2138656,"byteLength":50760,"target":34962,"byteStride":12,"extensions":{"EXT_meshopt_compression":{"buffer":0,"byteOffset":928892,"byteLength":24181,"mode":"ATTRIBUTES","byteStride":12,"count":4230}}},{"buffer":1,"byteOffset":2189416,"byteLength":50760,"target":34962,"byteStride":12,"extensions":{"EXT_meshopt_compression":{"buffer":0,"byteOffset":953076,"byteLength":45403,"mode":"ATTRIBUTES","byteStride":12,"count":4230}}},{"buffer":1,"byteOffset":2240176,"byteLength":7056,"target":34962,"byteStride":12,"extensions":{"EXT_meshopt_compression":{"buffer":0,"byteOffset":998480,"byteLength":1855,"mode":"ATTRIBUTES","byteStride":12,"count":588}}},{"buffer":1,"byteOffset":2247232,"byteLength":7056,"target":34962,"byteStride":12,"extensions":{"EXT_meshopt_compression":{"buffer":0,"byteOffset":1000336,"byteLength":5817,"mode":"ATTRIBUTES","byteStride":12,"count":588}}},{"buffer":1,"byteOffset":2254288,"byteLength":8760,"target":34962,"byteStride":12,"extensions":{"EXT_meshopt_compression":{"buffer":0,"byteOffset":1006156,"byteLength":4464,"mode":"ATTRIBUTES","byteStride":12,"count":730}}},{"buffer":1,"byteOffset":2263048,"byteLength":8760,"target":34962,"byteStride":12,"extensions":{"EXT_meshopt_compression":{"buffer":0,"byteOffset":1010620,"byteLength":6185,"mode":"ATTRIBUTES","byteStride":12,"count":730}}},{"buffer":1,"byteOffset":2271808,"byteLength":5840,"target":34962,"byteStride":8,"extensions":{"EXT_meshopt_compression":{"buffer":0,"byteOffset":1016808,"byteLength":2354,"mode":"ATTRIBUTES","byteStride":8,"count":730}}},{"buffer":1,"byteOffset":2277648,"byteLength":26136,"target":34962,"byteStride":12,"extensions":{"EXT_meshopt_compression":{"buffer":0,"byteOffset":1019164,"byteLength":15290,"mode":"ATTRIBUTES","byteStride":12,"count":2178}}},{"buffer":1,"byteOffset":2303784,"byteLength":26136,"target":34962,"byteStride":12,"extensions":{"EXT_meshopt_compression":{"buffer":0,"byteOffset":1034456,"byteLength":21404,"mode":"ATTRIBUTES","byteStride":12,"count":2178}}},{"buffer":1,"byteOffset":2329920,"byteLength":17424,"target":34962,"byteStride":8,"extensions":{"EXT_meshopt_compression":{"buffer":0,"byteOffset":1055860,"byteLength":6823,"mode":"ATTRIBUTES","byteStride":8,"count":2178}}},{"buffer":1,"byteOffset":2347344,"byteLength":165552,"target":34962,"byteStride":12,"extensions":{"EXT_meshopt_compression":{"buffer":0,"byteOffset":1062684,"byteLength":63156,"mode":"ATTRIBUTES","byteStride":12,"count":13796}}},{"buffer":1,"byteOffset":2512896,"byteLength":165552,"target":34962,"byteStride":12,"extensions":{"EXT_meshopt_compression":{"buffer":0,"byteOffset":1125840,"byteLength":104200,"mode":"ATTRIBUTES","byteStride":12,"count":13796}}},{"buffer":1,"byteOffset":2678448,"byteLength":110368,"target":34962,"byteStride":8,"extensions":{"EXT_meshopt_compression":{"buffer":0,"byteOffset":1230040,"byteLength":34138,"mode":"ATTRIBUTES","byteStride":8,"count":13796}}},{"buffer":1,"byteOffset":2788816,"byteLength":117780,"target":34962,"byteStride":12,"extensions":{"EXT_meshopt_compression":{"buffer":0,"byteOffset":1264180,"byteLength":48773,"mode":"ATTRIBUTES","byteStride":12,"count":9815}}},{"buffer":1,"byteOffset":2906596,"byteLength":117780,"target":34962,"byteStride":12,"extensions":{"EXT_meshopt_compression":{"buffer":0,"byteOffset":1312956,"byteLength":77763,"mode":"ATTRIBUTES","byteStride":12,"count":9815}}},{"buffer":1,"byteOffset":3024376,"byteLength":78520,"target":34962,"byteStride":8,"extensions":{"EXT_meshopt_compression":{"buffer":0,"byteOffset":1390720,"byteLength":24272,"mode":"ATTRIBUTES","byteStride":8,"count":9815}}},{"buffer":1,"byteOffset":3102896,"byteLength":50760,"target":34962,"byteStride":12,"extensions":{"EXT_meshopt_compression":{"buffer":0,"byteOffset":1414992,"byteLength":24181,"mode":"ATTRIBUTES","byteStride":12,"count":4230}}},{"buffer":1,"byteOffset":3153656,"byteLength":50760,"target":34962,"byteStride":12,"extensions":{"EXT_meshopt_compression":{"buffer":0,"byteOffset":1439176,"byteLength":45403,"mode":"ATTRIBUTES","byteStride":12,"count":4230}}},{"buffer":1,"byteOffset":3204416,"byteLength":12792,"target":34962,"byteStride":12,"extensions":{"EXT_meshopt_compression":{"buffer":0,"byteOffset":1484580,"byteLength":6611,"mode":"ATTRIBUTES","byteStride":12,"count":1066}}},{"buffer":1,"byteOffset":3217208,"byteLength":12792,"target":34962,"byteStride":12,"extensions":{"EXT_meshopt_compression":{"buffer":0,"byteOffset":1491192,"byteLength":4149,"mode":"ATTRIBUTES","byteStride":12,"count":1066}}},{"buffer":1,"byteOffset":3230000,"byteLength":8528,"target":34962,"byteStride":8,"extensions":{"EXT_meshopt_compression":{"buffer":0,"byteOffset":1495344,"byteLength":3727,"mode":"ATTRIBUTES","byteStride":8,"count":1066}}},{"buffer":1,"byteOffset":3238528,"byteLength":77952,"target":34962,"byteStride":12,"extensions":{"EXT_meshopt_compression":{"buffer":0,"byteOffset":1499072,"byteLength":34656,"mode":"ATTRIBUTES","byteStride":12,"count":6496}}},{"buffer":1,"byteOffset":3316480,"byteLength":77952,"target":34962,"byteStride":12,"extensions":{"EXT_meshopt_compression":{"buffer":0,"byteOffset":1533728,"byteLength":8905,"mode":"ATTRIBUTES","byteStride":12,"count":6496}}},{"buffer":1,"byteOffset":3394432,"byteLength":51968,"target":34962,"byteStride":8,"extensions":{"EXT_meshopt_compression":{"buffer":0,"byteOffset":1542636,"byteLength":23267,"mode":"ATTRIBUTES","byteStride":8,"count":6496}}},{"buffer":1,"byteOffset":3446400,"byteLength":113064,"target":34962,"byteStride":12,"extensions":{"EXT_meshopt_compression":{"buffer":0,"byteOffset":1565904,"byteLength":47162,"mode":"ATTRIBUTES","byteStride":12,"count":9422}}},{"buffer":1,"byteOffset":3559464,"byteLength":113064,"target":34962,"byteStride":12,"extensions":{"EXT_meshopt_compression":{"buffer":0,"byteOffset":1613068,"byteLength":3957,"mode":"ATTRIBUTES","byteStride":12,"count":9422}}},{"buffer":1,"byteOffset":3672528,"byteLength":75376,"target":34962,"byteStride":8,"extensions":{"EXT_meshopt_compression":{"buffer":0,"byteOffset":1617028,"byteLength":33033,"mode":"ATTRIBUTES","byteStride":8,"count":9422}}},{"buffer":1,"byteOffset":3747904,"byteLength":61224,"target":34962,"byteStride":12,"extensions":{"EXT_meshopt_compression":{"buffer":0,"byteOffset":1650064,"byteLength":27591,"mode":"ATTRIBUTES","byteStride":12,"count":5102}}},{"buffer":1,"byteOffset":3809128,"byteLength":61224,"target":34962,"byteStride":12,"extensions":{"EXT_meshopt_compression":{"buffer":0,"byteOffset":1677656,"byteLength":6627,"mode":"ATTRIBUTES","byteStride":12,"count":5102}}},{"buffer":1,"byteOffset":3870352,"byteLength":40816,"target":34962,"byteStride":8,"extensions":{"EXT_meshopt_compression":{"buffer":0,"byteOffset":1684284,"byteLength":18108,"mode":"ATTRIBUTES","byteStride":8,"count":5102}}}],"samplers":[{"magFilter":9729,"minFilter":9987,"wrapS":10497,"wrapT":10497},{"magFilter":9729,"minFilter":9987,"wrapS":33071,"wrapT":33071}],"textures":[{"source":0,"sampler":0},{"sampler":0,"extensions":{"EXT_texture_webp":{"source":1}}},{"sampler":0,"extensions":{"EXT_texture_webp":{"source":2}}},{"sampler":0,"extensions":{"EXT_texture_webp":{"source":4}}},{"sampler":0,"extensions":{"EXT_texture_webp":{"source":3}}},{"source":7,"sampler":1},{"sampler":0,"extensions":{"EXT_texture_webp":{"source":6}}},{"sampler":0,"extensions":{"EXT_texture_webp":{"source":5}}},{"sampler":0,"extensions":{"EXT_texture_webp":{"source":8}}},{"source":9,"sampler":0}],"images":[{"name":"book_pattern_nor_gl_2k","mimeType":"image/jpeg","uri":"shared/140c3719f3201130f562bf79.jpg"},{"name":"Paper001_2K-JPG_NormalGL","mimeType":"image/webp","uri":"shared/a490f2254a54e6ac01465d82.webp"},{"name":"Paper001_2K-JPG_Roughness","mimeType":"image/webp","uri":"shared/98c3a72e3346f80ad454feb3.webp"},{"name":"compressed-paper-normal","mimeType":"image/webp","uri":"shared/c65a4a9bdd0dce53b8ec9861.webp"},{"name":"compressed-paper-color","mimeType":"image/webp","uri":"shared/e933106c126139066215af87.webp"},{"name":"meditations_print_orm","mimeType":"image/webp","uri":"shared/b52d9d46b03be7dddaa00f9e.webp"},{"name":"meditations_print_normal","mimeType":"image/webp","uri":"shared/0b23fed04d623f5ff0703f55.webp"},{"name":"edition-meditations","mimeType":"image/jpeg","uri":"shared/8142a657671e24b7040eaf9e.jpg"},{"name":"book_pattern_rough_2k","mimeType":"image/webp","uri":"shared/8bb161f505fd3344121ca5dd.webp"},{"name":"Paper001_2K-JPG_Color","mimeType":"image/jpeg","uri":"shared/1ec1da7815c3e53e02f7f6f4.jpg"}],"buffers":[{"uri":"shared/9a633e16456c88a8d5b28a3f.bin","byteLength":1702392},{"byteLength":3911168,"extensions":{"EXT_meshopt_compression":{"fallback":true}}}],"materials":[{"name":"meditations case material.002","doubleSided":true,"pbrMetallicRoughness":{"baseColorFactor":[0,0.2581828534603119,0.40724021196365356,1],"roughnessFactor":0.7799999713897705,"metallicFactor":0},"normalTexture":{"index":0,"scale":0.3499999940395355},"extensions":{"KHR_materials_sheen":{"sheenColorFactor":[0.029999999329447746,0.20000000298023224,0.25],"sheenRoughnessFactor":0.8500000238418579}}},{"name":"MAT_meditations_BackInk","doubleSided":true,"pbrMetallicRoughness":{"baseColorFactor":[0.7200000286102295,0.6800000071525574,0.5899999737739563,1],"roughnessFactor":0.7200000286102295,"metallicFactor":0}},{"name":"MAT_meditations_Stamped_Ink.002","doubleSided":true,"pbrMetallicRoughness":{"baseColorFactor":[0.7200000286102295,0.6800000071525574,0.5899999737739563,1],"roughnessFactor":0.2199999988079071,"metallicFactor":0.8999999761581421},"extensions":{"KHR_materials_clearcoat":{"clearcoatFactor":0.44999998807907104,"clearcoatRoughnessFactor":0.20000000298023224}}},{"name":"MAT_Quiet_Blue_Endpaper","doubleSided":true,"pbrMetallicRoughness":{"baseColorFactor":[0.3100000023841858,0.41999998688697815,0.4399999976158142,1],"metallicFactor":0,"metallicRoughnessTexture":{"index":2,"texCoord":1}},"normalTexture":{"index":1,"texCoord":1,"scale":0.07000000029802322}},{"name":"MAT_meditations_Stamped_Ink.003","doubleSided":true,"pbrMetallicRoughness":{"baseColorFactor":[0.8069522380828857,0.838798999786377,0.8069522380828857,1],"roughnessFactor":0.2199999988079071,"metallicFactor":0.8999999761581421},"extensions":{"KHR_materials_clearcoat":{"clearcoatFactor":0.44999998807907104,"clearcoatRoughnessFactor":0.20000000298023224}}},{"name":"Compressed paper cut surface","doubleSided":true,"pbrMetallicRoughness":{"roughnessFactor":0.8999999761581421,"metallicFactor":0,"baseColorTexture":{"index":3}},"normalTexture":{"index":4}},{"name":"Compressed ivory stock 2","doubleSided":true,"pbrMetallicRoughness":{"baseColorFactor":[0.7279999852180481,0.7129999995231628,0.656000018119812,1],"roughnessFactor":0.8600000143051147,"metallicFactor":0}},{"name":"MAT_meditations_Registered_Print.001","extras":{"surface_finish":"Registered print, selective varnish and metallic stamping"},"doubleSided":true,"pbrMetallicRoughness":{"baseColorTexture":{"index":5,"texCoord":1},"metallicRoughnessTexture":{"index":7,"texCoord":1}},"normalTexture":{"index":6,"texCoord":1},"extensions":{"KHR_materials_clearcoat":{"clearcoatFactor":1,"clearcoatRoughnessFactor":0.23999999463558197,"clearcoatTexture":{"index":7,"texCoord":1}}}},{"name":"Endband cotton ecru","doubleSided":true,"pbrMetallicRoughness":{"baseColorFactor":[0.5,0.46000000834465027,0.3499999940395355,1],"roughnessFactor":0.8799999952316284,"metallicFactor":0}},{"name":"Binding linen warm ecru","doubleSided":true,"pbrMetallicRoughness":{"baseColorFactor":[0.3799999952316284,0.3400000035762787,0.25999999046325684,1],"roughnessFactor":0.9300000071525574,"metallicFactor":0}},{"name":"meditations woven ribbon.002","doubleSided":true,"pbrMetallicRoughness":{"baseColorFactor":[0.8069522380828857,0.838798999786377,0.8069522380828857,1],"metallicFactor":0,"metallicRoughnessTexture":{"index":8}},"normalTexture":{"index":0,"scale":1.149999976158142},"extensions":{"KHR_materials_sheen":{"sheenColorFactor":[1,1,1],"sheenRoughnessFactor":0.5}}},{"name":"MAT_Uncoated_Paper_Fibre","doubleSided":true,"pbrMetallicRoughness":{"metallicFactor":0,"baseColorTexture":{"index":9},"metallicRoughnessTexture":{"index":2}},"normalTexture":{"index":1,"scale":0.07000000029802322}},{"name":"meditations printed ink.002","doubleSided":true,"pbrMetallicRoughness":{"baseColorFactor":[0.040915198624134064,0.03310476616024971,0.019382361322641373,1],"roughnessFactor":0.8999999761581421,"metallicFactor":0}}],"meshes":[{"name":"Pressed case joint Back board.026","primitives":[{"attributes":{"POSITION":0,"NORMAL":1,"TEXCOORD_0":2},"mode":4,"material":0,"indices":3}]},{"name":"Back collection.002","primitives":[{"attributes":{"POSITION":4,"NORMAL":5,"TEXCOORD_0":6},"mode":4,"material":1,"indices":7}]},{"name":"Back description.002","primitives":[{"attributes":{"POSITION":8,"NORMAL":9,"TEXCOORD_0":10},"mode":4,"material":1,"indices":11}]},{"name":"Back edition.002","primitives":[{"attributes":{"POSITION":12,"NORMAL":13,"TEXCOORD_0":14},"mode":4,"material":2,"indices":15}]},{"name":"Back ISBN.002","primitives":[{"attributes":{"POSITION":16,"NORMAL":17,"TEXCOORD_0":18},"mode":4,"material":1,"indices":19}]},{"name":"Back pastedown.026","primitives":[{"attributes":{"POSITION":20,"NORMAL":21,"TEXCOORD_0":22,"TEXCOORD_1":23},"mode":4,"material":3,"indices":24}]},{"name":"Back title.002","primitives":[{"attributes":{"POSITION":25,"NORMAL":26,"TEXCOORD_0":27},"mode":4,"material":2,"indices":28}]},{"name":"Collection mark.018","primitives":[{"attributes":{"POSITION":29,"NORMAL":30,"TEXCOORD_0":31},"mode":4,"material":4,"indices":32}]},{"name":"Continuous compressed cut meditations.003","primitives":[{"attributes":{"POSITION":33,"NORMAL":34,"TEXCOORD_0":35},"mode":4,"material":5,"indices":36},{"attributes":{"POSITION":37,"NORMAL":38,"TEXCOORD_0":39},"mode":4,"material":6,"indices":40}]},{"name":"Curved foil rule.036","primitives":[{"attributes":{"POSITION":41,"NORMAL":42,"TEXCOORD_0":43},"mode":4,"material":4,"indices":44}]},{"name":"Curved foil rule.037","primitives":[{"attributes":{"POSITION":45,"NORMAL":46,"TEXCOORD_0":47},"mode":4,"material":4,"indices":44}]},{"name":"Front pastedown.026","primitives":[{"attributes":{"POSITION":48,"NORMAL":49,"TEXCOORD_0":50,"TEXCOORD_1":51},"mode":4,"material":3,"indices":24}]},{"name":"Pressed case joint Printed case","primitives":[{"attributes":{"POSITION":52,"NORMAL":53,"TEXCOORD_0":54,"TEXCOORD_1":55,"TEXCOORD_2":56,"TEXCOORD_3":57},"mode":4,"material":7,"indices":58},{"attributes":{"POSITION":59,"NORMAL":60,"TEXCOORD_0":61,"TEXCOORD_1":62,"TEXCOORD_2":63,"TEXCOORD_3":64},"mode":4,"material":0,"indices":65}]},{"name":"Head textile endband meditations.004","primitives":[{"attributes":{"POSITION":66,"NORMAL":67},"mode":4,"material":8,"indices":68}]},{"name":"Linen spine lining meditations.004","primitives":[{"attributes":{"POSITION":69,"NORMAL":70},"mode":4,"material":9,"indices":71}]},{"name":"Ribbon flexible satin meditations.004","primitives":[{"attributes":{"POSITION":72,"NORMAL":73,"TEXCOORD_0":74},"mode":4,"material":10,"indices":75}]},{"name":"Rounded cloth spine.026","primitives":[{"attributes":{"POSITION":76,"NORMAL":77,"TEXCOORD_0":78},"mode":4,"material":0,"indices":79}]},{"name":"Spine author.018","primitives":[{"attributes":{"POSITION":80,"NORMAL":81,"TEXCOORD_0":82},"mode":4,"material":4,"indices":83}]},{"name":"Spine title.026","primitives":[{"attributes":{"POSITION":84,"NORMAL":85,"TEXCOORD_0":86},"mode":4,"material":4,"indices":87}]},{"name":"Tail textile endband meditations.004","primitives":[{"attributes":{"POSITION":88,"NORMAL":89},"mode":4,"material":8,"indices":68}]},{"name":"Flexible paper.002","primitives":[{"attributes":{"POSITION":90,"NORMAL":91,"TEXCOORD_0":92},"mode":4,"material":11,"indices":93}]},{"name":"Interior author.026","primitives":[{"attributes":{"POSITION":94,"NORMAL":95,"TEXCOORD_0":96},"mode":4,"material":12,"indices":97}]},{"name":"Interior imprint.026","primitives":[{"attributes":{"POSITION":98,"NORMAL":99,"TEXCOORD_0":100},"mode":4,"material":12,"indices":101}]},{"name":"Interior title.026","primitives":[{"attributes":{"POSITION":102,"NORMAL":103,"TEXCOORD_0":104},"mode":4,"material":12,"indices":105}]}],"nodes":[{"name":"Back board.026","extras":{"edge_refined":true,"unpressed_mesh":"Back board.034","pressed_joint_revision":1,"joint_depth_mm":1.0367668793824891,"joint_center_mm":6.4},"translation":[0,0,-0.16949999332427979],"mesh":0},{"name":"Back collection.002","translation":[0,-0.41760003566741943,-0.18150000274181366],"rotation":[0,-0.7071068286895752,0.7071068286895752,3.090862321641907e-8],"mesh":1},{"name":"Back description.002","translation":[0,0.04350000247359276,-0.18150000274181366],"rotation":[0,-0.7071068286895752,0.7071068286895752,3.090862321641907e-8],"mesh":2},{"name":"Back edition.002","translation":[0,-0.5916000604629517,-0.18150000274181366],"rotation":[0,-0.7071068286895752,0.7071068286895752,3.090862321641907e-8],"mesh":3},{"name":"Back ISBN.002","translation":[0,-0.6786000728607178,-0.18150000274181366],"rotation":[0,-0.7071068286895752,0.7071068286895752,3.090862321641907e-8],"mesh":4},{"name":"Back pastedown.026","translation":[0,0,-0.15800000727176666],"mesh":5},{"name":"Back title.002","translation":[0,0.5046000480651855,-0.18150000274181366],"rotation":[0,-0.7071068286895752,0.7071068286895752,3.090862321641907e-8],"mesh":6},{"name":"Collection mark.018","mesh":7},{"name":"Compressed paper signatures meditations.003","extras":{"paper_surface_revision":1,"leaf_count":208,"paper_caliper_mm":0.1423076923076923,"binding_structure":"Rounded and backed signatures"},"mesh":8},{"name":"Curved foil rule.036","mesh":9},{"name":"Curved foil rule.037","mesh":10},{"name":"Front pastedown.026","translation":[0.565000057220459,0,-0.01150001585483551],"mesh":11},{"name":"Printed case","extras":{"edge_refined":true,"unpressed_mesh":"Front board.034","pressed_joint_revision":1,"joint_depth_mm":1.1132717324132348,"joint_center_mm":6.4},"translation":[0.565000057220459,0,0],"mesh":12},{"name":"FrontHinge.026","translation":[-0.5649999976158142,0,0.16949999332427979],"children":[11,12]},{"name":"Head textile endband meditations.004","extras":{"binding_revision":2},"mesh":13},{"name":"Linen spine lining meditations.004","extras":{"binding_revision":2},"mesh":14},{"name":"Ribbon flexible satin meditations.004","extras":{"binding_revision":2,"ribbon_width_dm":0.043,"ribbon_length_dm":0.29,"ribbon_anchor_dm":[0,-0.862,0.006]},"mesh":15},{"name":"Rounded cloth spine.026","mesh":16},{"name":"Spine author.018","mesh":17},{"name":"Spine title.026","mesh":18},{"name":"Tail textile endband meditations.004","extras":{"binding_revision":2},"mesh":19},{"name":"Curved title leaf.002","mesh":20},{"name":"Interior author.026","mesh":21},{"name":"Interior imprint.026","mesh":22},{"name":"Interior title.026","mesh":23},{"name":"TurningLeaf.002","translation":[-0.5199999809265137,0,0.15049999952316284],"children":[21,22,23,24]},{"name":"Publisher_meditations.001","extras":{"slug":"meditations","dimensions_mm":[113,174,36],"model_design":"Publisher front artwork on a showcase binding; spine and interior are custom reconstructions"},"scale":[0.09637529402971268,0.09999125450849533,0.09974103420972824],"children":[0,1,2,3,4,5,6,7,8,9,10,13,14,15,16,17,18,19,20,25]}],"scenes":[{"name":"Library Publisher Editions.001","nodes":[26]}],"scene":0,"extensionsUsed":["EXT_meshopt_compression","EXT_texture_webp","KHR_materials_clearcoat","KHR_materials_sheen"],"extensionsRequired":["EXT_meshopt_compression","EXT_texture_webp"]}