{"asset":{"generator":"glTF-Transform v4.5.0","version":"2.0"},"accessors":[{"type":"VEC3","componentType":5126,"count":1330,"max":[0.6982592344284058,1.0633200407028198,0.0108255073428154],"min":[-0.6982592344284058,-1.0633200407028198,-0.006843942683190107],"normalized":false,"byteOffset":0,"bufferView":0},{"type":"VEC3","componentType":5126,"count":1330,"normalized":false,"byteOffset":0,"bufferView":1},{"type":"VEC2","componentType":5126,"count":1330,"normalized":false,"byteOffset":0,"bufferView":2},{"type":"SCALAR","componentType":5123,"count":6684,"normalized":false,"byteOffset":0,"bufferView":3},{"type":"VEC3","componentType":5126,"count":1196,"max":[0.6982592344284058,1.0633200407028198,0.0018284484976902604],"min":[-0.6982592344284058,-1.0633200407028198,-0.0108255073428154],"normalized":false,"byteOffset":0,"bufferView":4},{"type":"VEC3","componentType":5126,"count":1196,"normalized":false,"byteOffset":0,"bufferView":5},{"type":"VEC2","componentType":5126,"count":1196,"normalized":false,"byteOffset":0,"bufferView":6},{"type":"VEC2","componentType":5126,"count":1196,"normalized":false,"byteOffset":0,"bufferView":7},{"type":"SCALAR","componentType":5123,"count":5904,"normalized":false,"byteOffset":13368,"bufferView":3},{"type":"VEC3","componentType":5126,"count":8772,"max":[0.671500027179718,1.0355993509292603,0.12349999696016312],"min":[-0.7114999890327454,-1.0355827808380127,-0.12349999696016312],"normalized":false,"byteOffset":0,"bufferView":8},{"type":"VEC3","componentType":5126,"count":8772,"normalized":false,"byteOffset":0,"bufferView":9},{"type":"VEC2","componentType":5126,"count":8772,"normalized":false,"byteOffset":0,"bufferView":10},{"type":"SCALAR","componentType":5123,"count":49152,"normalized":false,"byteOffset":25176,"bufferView":3},{"type":"VEC3","componentType":5126,"count":8,"max":[0.671500027179718,1.0355000495910645,0.12349999696016312],"min":[-0.6884999871253967,-1.0355000495910645,-0.12349999696016312],"normalized":false,"byteOffset":0,"bufferView":11},{"type":"VEC3","componentType":5126,"count":8,"normalized":false,"byteOffset":0,"bufferView":12},{"type":"SCALAR","componentType":5123,"count":12,"normalized":false,"byteOffset":123480,"bufferView":3},{"type":"VEC3","componentType":5126,"count":2121,"max":[-0.7391876578330994,-0.923117995262146,0.02173454314470291],"min":[-0.7412638664245605,-0.9869279861450195,-0.02173454314470291],"normalized":false,"byteOffset":0,"bufferView":13},{"type":"VEC3","componentType":5126,"count":2121,"normalized":false,"byteOffset":0,"bufferView":14},{"type":"SCALAR","componentType":5123,"count":3135,"normalized":false,"byteOffset":123504,"bufferView":3},{"type":"VEC3","componentType":5126,"count":4184,"max":[-0.7400670647621155,-0.5126069784164429,0.011607708409428596],"min":[-0.7413152456283569,-0.8167679905891418,-0.011607708409428596],"normalized":false,"byteOffset":0,"bufferView":15},{"type":"VEC3","componentType":5126,"count":4184,"normalized":false,"byteOffset":0,"bufferView":16},{"type":"SCALAR","componentType":5123,"count":5010,"normalized":false,"byteOffset":129774,"bufferView":3},{"type":"VEC3","componentType":5126,"count":24239,"max":[-0.7390980124473572,0.9039750099182129,0.02262144908308983],"min":[-0.7413367033004761,-0.43390798568725586,-0.02262144908308983],"normalized":false,"byteOffset":0,"bufferView":17},{"type":"VEC3","componentType":5126,"count":24239,"normalized":false,"byteOffset":0,"bufferView":18},{"type":"SCALAR","componentType":5123,"count":35742,"normalized":false,"byteOffset":139794,"bufferView":3},{"type":"VEC3","componentType":5126,"count":1326,"max":[0.6982592940330505,1.0633200407028198,0.011177132837474346],"min":[-0.6982592940330505,-1.0633200407028198,-0.008512772619724274],"normalized":false,"byteOffset":0,"bufferView":19},{"type":"VEC3","componentType":5126,"count":1326,"normalized":false,"byteOffset":0,"bufferView":20},{"type":"VEC2","componentType":5126,"count":1326,"normalized":false,"byteOffset":0,"bufferView":21},{"type":"SCALAR","componentType":5123,"count":6720,"normalized":false,"byteOffset":211278,"bufferView":3},{"type":"VEC3","componentType":5126,"count":1192,"max":[0.6982592940330505,1.0633200407028198,-0.004762934986501932],"min":[-0.6982592940330505,-1.0633200407028198,-0.011393931694328785],"normalized":false,"byteOffset":0,"bufferView":22},{"type":"VEC3","componentType":5126,"count":1192,"normalized":false,"byteOffset":0,"bufferView":23},{"type":"VEC2","componentType":5126,"count":1192,"normalized":false,"byteOffset":0,"bufferView":24},{"type":"SCALAR","componentType":5123,"count":5940,"normalized":false,"byteOffset":224718,"bufferView":3},{"type":"VEC3","componentType":5126,"count":3530,"max":[-0.6832500100135803,1.0385420322418213,0.12349999696016312],"min":[-0.714749276638031,1.0304579734802246,-0.12349999696016312],"normalized":false,"byteOffset":0,"bufferView":25},{"type":"VEC3","componentType":5126,"count":3530,"normalized":false,"byteOffset":0,"bufferView":26},{"type":"SCALAR","componentType":5123,"count":21120,"normalized":false,"byteOffset":236598,"bufferView":3},{"type":"VEC3","componentType":5126,"count":588,"max":[-0.6891513466835022,1.0234999656677246,0.12349999696016312],"min":[-0.7145000100135803,-1.0234999656677246,-0.12349999696016312],"normalized":false,"byteOffset":0,"bufferView":27},{"type":"VEC3","componentType":5126,"count":588,"normalized":false,"byteOffset":0,"bufferView":28},{"type":"SCALAR","componentType":5123,"count":1164,"normalized":false,"byteOffset":278838,"bufferView":3},{"type":"VEC3","componentType":5126,"count":730,"max":[0.02171693928539753,-1.0554991960525513,0.02216394618153572],"min":[-0.02171693928539753,-1.3454999923706055,0.006000000052154064],"normalized":false,"byteOffset":0,"bufferView":29},{"type":"VEC3","componentType":5126,"count":730,"normalized":false,"byteOffset":0,"bufferView":30},{"type":"VEC2","componentType":5126,"count":730,"normalized":false,"byteOffset":0,"bufferView":31},{"type":"SCALAR","componentType":5123,"count":4368,"normalized":false,"byteOffset":281166,"bufferView":3},{"type":"VEC3","componentType":5126,"count":2178,"max":[-0.6906315088272095,1.0635625123977661,0.1420000046491623],"min":[-0.7409996390342712,-1.0635615587234497,-0.1420000046491623],"normalized":false,"byteOffset":0,"bufferView":32},{"type":"VEC3","componentType":5126,"count":2178,"normalized":false,"byteOffset":0,"bufferView":33},{"type":"VEC2","componentType":5126,"count":2178,"normalized":false,"byteOffset":0,"bufferView":34},{"type":"SCALAR","componentType":5123,"count":13056,"normalized":false,"byteOffset":289902,"bufferView":3},{"type":"VEC3","componentType":5126,"count":3530,"max":[-0.6832500100135803,-1.0304579734802246,0.12349999696016312],"min":[-0.714749276638031,-1.0385420322418213,-0.12349999696016312],"normalized":false,"byteOffset":0,"bufferView":35},{"type":"VEC3","componentType":5126,"count":3530,"normalized":false,"byteOffset":0,"bufferView":36}],"bufferViews":[{"buffer":1,"byteOffset":0,"byteLength":15960,"target":34962,"byteStride":12,"extensions":{"EXT_meshopt_compression":{"buffer":0,"byteOffset":0,"byteLength":9879,"mode":"ATTRIBUTES","byteStride":12,"count":1330}}},{"buffer":1,"byteOffset":15960,"byteLength":15960,"target":34962,"byteStride":12,"extensions":{"EXT_meshopt_compression":{"buffer":0,"byteOffset":9880,"byteLength":12279,"mode":"ATTRIBUTES","byteStride":12,"count":1330}}},{"buffer":1,"byteOffset":31920,"byteLength":10640,"target":34962,"byteStride":8,"extensions":{"EXT_meshopt_compression":{"buffer":0,"byteOffset":22160,"byteLength":7711,"mode":"ATTRIBUTES","byteStride":8,"count":1330}}},{"buffer":1,"byteOffset":42560,"byteLength":316014,"target":34963,"extensions":{"EXT_meshopt_compression":{"buffer":0,"byteOffset":29872,"byteLength":167709,"mode":"TRIANGLES","byteStride":2,"count":158007}}},{"buffer":1,"byteOffset":358576,"byteLength":14352,"target":34962,"byteStride":12,"extensions":{"EXT_meshopt_compression":{"buffer":0,"byteOffset":197584,"byteLength":8864,"mode":"ATTRIBUTES","byteStride":12,"count":1196}}},{"buffer":1,"byteOffset":372928,"byteLength":14352,"target":34962,"byteStride":12,"extensions":{"EXT_meshopt_compression":{"buffer":0,"byteOffset":206448,"byteLength":10687,"mode":"ATTRIBUTES","byteStride":12,"count":1196}}},{"buffer":1,"byteOffset":387280,"byteLength":9568,"target":34962,"byteStride":8,"extensions":{"EXT_meshopt_compression":{"buffer":0,"byteOffset":217136,"byteLength":6883,"mode":"ATTRIBUTES","byteStride":8,"count":1196}}},{"buffer":1,"byteOffset":396848,"byteLength":9568,"target":34962,"byteStride":8,"extensions":{"EXT_meshopt_compression":{"buffer":0,"byteOffset":224020,"byteLength":5553,"mode":"ATTRIBUTES","byteStride":8,"count":1196}}},{"buffer":1,"byteOffset":406416,"byteLength":105264,"target":34962,"byteStride":12,"extensions":{"EXT_meshopt_compression":{"buffer":0,"byteOffset":229576,"byteLength":43341,"mode":"ATTRIBUTES","byteStride":12,"count":8772}}},{"buffer":1,"byteOffset":511680,"byteLength":105264,"target":34962,"byteStride":12,"extensions":{"EXT_meshopt_compression":{"buffer":0,"byteOffset":272920,"byteLength":15340,"mode":"ATTRIBUTES","byteStride":12,"count":8772}}},{"buffer":1,"byteOffset":616944,"byteLength":70176,"target":34962,"byteStride":8,"extensions":{"EXT_meshopt_compression":{"buffer":0,"byteOffset":288260,"byteLength":32649,"mode":"ATTRIBUTES","byteStride":8,"count":8772}}},{"buffer":1,"byteOffset":687120,"byteLength":96,"target":34962,"byteStride":12,"extensions":{"EXT_meshopt_compression":{"buffer":0,"byteOffset":320912,"byteLength":89,"mode":"ATTRIBUTES","byteStride":12,"count":8}}},{"buffer":1,"byteOffset":687216,"byteLength":96,"target":34962,"byteStride":12,"extensions":{"EXT_meshopt_compression":{"buffer":0,"byteOffset":321004,"byteLength":50,"mode":"ATTRIBUTES","byteStride":12,"count":8}}},{"buffer":1,"byteOffset":687312,"byteLength":25452,"target":34962,"byteStride":12,"extensions":{"EXT_meshopt_compression":{"buffer":0,"byteOffset":321056,"byteLength":9363,"mode":"ATTRIBUTES","byteStride":12,"count":2121}}},{"buffer":1,"byteOffset":712764,"byteLength":25452,"target":34962,"byteStride":12,"extensions":{"EXT_meshopt_compression":{"buffer":0,"byteOffset":330420,"byteLength":19496,"mode":"ATTRIBUTES","byteStride":12,"count":2121}}},{"buffer":1,"byteOffset":738216,"byteLength":50208,"target":34962,"byteStride":12,"extensions":{"EXT_meshopt_compression":{"buffer":0,"byteOffset":349916,"byteLength":18974,"mode":"ATTRIBUTES","byteStride":12,"count":4184}}},{"buffer":1,"byteOffset":788424,"byteLength":50208,"target":34962,"byteStride":12,"extensions":{"EXT_meshopt_compression":{"buffer":0,"byteOffset":368892,"byteLength":35530,"mode":"ATTRIBUTES","byteStride":12,"count":4184}}},{"buffer":1,"byteOffset":838632,"byteLength":290868,"target":34962,"byteStride":12,"extensions":{"EXT_meshopt_compression":{"buffer":0,"byteOffset":404424,"byteLength":111715,"mode":"ATTRIBUTES","byteStride":12,"count":24239}}},{"buffer":1,"byteOffset":1129500,"byteLength":290868,"target":34962,"byteStride":12,"extensions":{"EXT_meshopt_compression":{"buffer":0,"byteOffset":516140,"byteLength":221582,"mode":"ATTRIBUTES","byteStride":12,"count":24239}}},{"buffer":1,"byteOffset":1420368,"byteLength":15912,"target":34962,"byteStride":12,"extensions":{"EXT_meshopt_compression":{"buffer":0,"byteOffset":737724,"byteLength":10324,"mode":"ATTRIBUTES","byteStride":12,"count":1326}}},{"buffer":1,"byteOffset":1436280,"byteLength":15912,"target":34962,"byteStride":12,"extensions":{"EXT_meshopt_compression":{"buffer":0,"byteOffset":748048,"byteLength":12420,"mode":"ATTRIBUTES","byteStride":12,"count":1326}}},{"buffer":1,"byteOffset":1452192,"byteLength":10608,"target":34962,"byteStride":8,"extensions":{"EXT_meshopt_compression":{"buffer":0,"byteOffset":760468,"byteLength":7070,"mode":"ATTRIBUTES","byteStride":8,"count":1326}}},{"buffer":1,"byteOffset":1462800,"byteLength":14304,"target":34962,"byteStride":12,"extensions":{"EXT_meshopt_compression":{"buffer":0,"byteOffset":767540,"byteLength":8814,"mode":"ATTRIBUTES","byteStride":12,"count":1192}}},{"buffer":1,"byteOffset":1477104,"byteLength":14304,"target":34962,"byteStride":12,"extensions":{"EXT_meshopt_compression":{"buffer":0,"byteOffset":776356,"byteLength":10526,"mode":"ATTRIBUTES","byteStride":12,"count":1192}}},{"buffer":1,"byteOffset":1491408,"byteLength":9536,"target":34962,"byteStride":8,"extensions":{"EXT_meshopt_compression":{"buffer":0,"byteOffset":786884,"byteLength":6828,"mode":"ATTRIBUTES","byteStride":8,"count":1192}}},{"buffer":1,"byteOffset":1500944,"byteLength":42360,"target":34962,"byteStride":12,"extensions":{"EXT_meshopt_compression":{"buffer":0,"byteOffset":793712,"byteLength":20229,"mode":"ATTRIBUTES","byteStride":12,"count":3530}}},{"buffer":1,"byteOffset":1543304,"byteLength":42360,"target":34962,"byteStride":12,"extensions":{"EXT_meshopt_compression":{"buffer":0,"byteOffset":813944,"byteLength":37957,"mode":"ATTRIBUTES","byteStride":12,"count":3530}}},{"buffer":1,"byteOffset":1585664,"byteLength":7056,"target":34962,"byteStride":12,"extensions":{"EXT_meshopt_compression":{"buffer":0,"byteOffset":851904,"byteLength":1839,"mode":"ATTRIBUTES","byteStride":12,"count":588}}},{"buffer":1,"byteOffset":1592720,"byteLength":7056,"target":34962,"byteStride":12,"extensions":{"EXT_meshopt_compression":{"buffer":0,"byteOffset":853744,"byteLength":5805,"mode":"ATTRIBUTES","byteStride":12,"count":588}}},{"buffer":1,"byteOffset":1599776,"byteLength":8760,"target":34962,"byteStride":12,"extensions":{"EXT_meshopt_compression":{"buffer":0,"byteOffset":859552,"byteLength":4464,"mode":"ATTRIBUTES","byteStride":12,"count":730}}},{"buffer":1,"byteOffset":1608536,"byteLength":8760,"target":34962,"byteStride":12,"extensions":{"EXT_meshopt_compression":{"buffer":0,"byteOffset":864016,"byteLength":6185,"mode":"ATTRIBUTES","byteStride":12,"count":730}}},{"buffer":1,"byteOffset":1617296,"byteLength":5840,"target":34962,"byteStride":8,"extensions":{"EXT_meshopt_compression":{"buffer":0,"byteOffset":870204,"byteLength":2354,"mode":"ATTRIBUTES","byteStride":8,"count":730}}},{"buffer":1,"byteOffset":1623136,"byteLength":26136,"target":34962,"byteStride":12,"extensions":{"EXT_meshopt_compression":{"buffer":0,"byteOffset":872560,"byteLength":15191,"mode":"ATTRIBUTES","byteStride":12,"count":2178}}},{"buffer":1,"byteOffset":1649272,"byteLength":26136,"target":34962,"byteStride":12,"extensions":{"EXT_meshopt_compression":{"buffer":0,"byteOffset":887752,"byteLength":21399,"mode":"ATTRIBUTES","byteStride":12,"count":2178}}},{"buffer":1,"byteOffset":1675408,"byteLength":17424,"target":34962,"byteStride":8,"extensions":{"EXT_meshopt_compression":{"buffer":0,"byteOffset":909152,"byteLength":6852,"mode":"ATTRIBUTES","byteStride":8,"count":2178}}},{"buffer":1,"byteOffset":1692832,"byteLength":42360,"target":34962,"byteStride":12,"extensions":{"EXT_meshopt_compression":{"buffer":0,"byteOffset":916004,"byteLength":20229,"mode":"ATTRIBUTES","byteStride":12,"count":3530}}},{"buffer":1,"byteOffset":1735192,"byteLength":42360,"target":34962,"byteStride":12,"extensions":{"EXT_meshopt_compression":{"buffer":0,"byteOffset":936236,"byteLength":37957,"mode":"ATTRIBUTES","byteStride":12,"count":3530}}}],"samplers":[{"magFilter":9729,"minFilter":9987,"wrapS":10497,"wrapT":10497},{"magFilter":9729,"minFilter":9987,"wrapS":33071,"wrapT":33071}],"textures":[{"sampler":0,"extensions":{"EXT_texture_webp":{"source":0}}},{"source":1,"sampler":0},{"sampler":0,"extensions":{"EXT_texture_webp":{"source":3}}},{"sampler":0,"extensions":{"EXT_texture_webp":{"source":2}}},{"sampler":1,"extensions":{"EXT_texture_webp":{"source":6}}},{"sampler":0,"extensions":{"EXT_texture_webp":{"source":5}}},{"sampler":0,"extensions":{"EXT_texture_webp":{"source":7}}},{"sampler":0,"extensions":{"EXT_texture_webp":{"source":4}}}],"images":[{"name":"book_pattern_nor_gl_2k","mimeType":"image/webp","uri":"shared/8de172b46ec41fd3863b660a.webp"},{"name":"naval-primary-back","mimeType":"image/jpeg","uri":"shared/f2648ab2a15195a0182e5f0e.jpg"},{"name":"compressed-paper-normal","mimeType":"image/webp","uri":"shared/339c1ac519928878fbaa1237.webp"},{"name":"compressed-paper-color","mimeType":"image/webp","uri":"shared/7701c62282fa7f26c46af450.webp"},{"name":"naval_print_orm","mimeType":"image/webp","uri":"shared/1d9eadd81ee9fcf4b233b3b9.webp"},{"name":"naval_print_normal","mimeType":"image/webp","uri":"shared/4e5adea097bbe0cd7e2239d7.webp"},{"name":"edition-naval","mimeType":"image/webp","uri":"shared/312fca61b7d0841f423797fa.webp"},{"name":"book_pattern_rough_2k","mimeType":"image/webp","uri":"shared/a04d51bd9431742f3e8e78f4.webp"}],"buffers":[{"uri":"shared/9c382a8426bb08ae082044ef.bin","byteLength":974196},{"byteLength":1777552,"extensions":{"EXT_meshopt_compression":{"fallback":true}}}],"materials":[{"name":"naval case material","doubleSided":true,"pbrMetallicRoughness":{"baseColorFactor":[0.9215818643569946,0.9215818643569946,0.8962693810462952,1],"roughnessFactor":0.7400000095367432,"metallicFactor":0},"normalTexture":{"index":0,"scale":0.1599999964237213},"extensions":{"KHR_materials_clearcoat":{"clearcoatFactor":0.014999999664723873,"clearcoatRoughnessFactor":0.36000001430511475}}},{"name":"naval verified reverse artwork","doubleSided":true,"pbrMetallicRoughness":{"roughnessFactor":0.7400000095367432,"metallicFactor":0,"baseColorTexture":{"index":1,"texCoord":1}},"normalTexture":{"index":0,"scale":0.1599999964237213},"extensions":{"KHR_materials_clearcoat":{"clearcoatFactor":0.014999999664723873,"clearcoatRoughnessFactor":0.36000001430511475}}},{"name":"Compressed paper cut surface","doubleSided":true,"pbrMetallicRoughness":{"roughnessFactor":0.8999999761581421,"metallicFactor":0,"baseColorTexture":{"index":2}},"normalTexture":{"index":3}},{"name":"Compressed ivory stock 2","doubleSided":true,"pbrMetallicRoughness":{"baseColorFactor":[0.7279999852180481,0.7129999995231628,0.656000018119812,1],"roughnessFactor":0.8600000143051147,"metallicFactor":0}},{"name":"naval edition spine ink","doubleSided":true,"pbrMetallicRoughness":{"baseColorFactor":[0.017641954123973846,0.020288562402129173,0.01850022003054619,1],"roughnessFactor":0.6000000238418579,"metallicFactor":0}},{"name":"MAT_naval_Registered_Print","extras":{"surface_finish":"Registered print, selective varnish"},"doubleSided":true,"pbrMetallicRoughness":{"roughnessFactor":0.7058823529411764,"metallicFactor":0,"baseColorTexture":{"index":4}},"normalTexture":{"index":5},"extensions":{"KHR_materials_clearcoat":{"clearcoatFactor":1,"clearcoatRoughnessFactor":0.23999999463558197,"clearcoatTexture":{"index":7}}}},{"name":"Endband cotton ecru","doubleSided":true,"pbrMetallicRoughness":{"baseColorFactor":[0.5,0.46000000834465027,0.3499999940395355,1],"roughnessFactor":0.8799999952316284,"metallicFactor":0}},{"name":"Binding linen warm ecru","doubleSided":true,"pbrMetallicRoughness":{"baseColorFactor":[0.3799999952316284,0.3400000035762787,0.25999999046325684,1],"roughnessFactor":0.9300000071525574,"metallicFactor":0}},{"name":"naval woven ribbon","doubleSided":true,"pbrMetallicRoughness":{"baseColorFactor":[0.017641954123973846,0.020288562402129173,0.01850022003054619,1],"metallicFactor":0,"metallicRoughnessTexture":{"index":6}},"normalTexture":{"index":0,"scale":1.149999976158142},"extensions":{"KHR_materials_sheen":{"sheenColorFactor":[1,1,1],"sheenRoughnessFactor":0.5}}}],"meshes":[{"name":"Pressed case joint Back board.012","primitives":[{"attributes":{"POSITION":0,"NORMAL":1,"TEXCOORD_0":2},"mode":4,"material":0,"indices":3},{"attributes":{"POSITION":4,"NORMAL":5,"TEXCOORD_0":6,"TEXCOORD_1":7},"mode":4,"material":1,"indices":8}]},{"name":"Continuous compressed cut naval","primitives":[{"attributes":{"POSITION":9,"NORMAL":10,"TEXCOORD_0":11},"mode":4,"material":2,"indices":12},{"attributes":{"POSITION":13,"NORMAL":14},"mode":4,"material":3,"indices":15}]},{"name":"Edition lettering.014","primitives":[{"attributes":{"POSITION":16,"NORMAL":17},"mode":4,"material":4,"indices":18}]},{"name":"Edition lettering.013","primitives":[{"attributes":{"POSITION":19,"NORMAL":20},"mode":4,"material":4,"indices":21}]},{"name":"Edition lettering.012","primitives":[{"attributes":{"POSITION":22,"NORMAL":23},"mode":4,"material":4,"indices":24}]},{"name":"Pressed case joint Wrapped printed cover.012","primitives":[{"attributes":{"POSITION":25,"NORMAL":26,"TEXCOORD_0":27},"mode":4,"material":5,"indices":28},{"attributes":{"POSITION":29,"NORMAL":30,"TEXCOORD_0":31},"mode":4,"material":0,"indices":32}]},{"name":"Head textile endband naval","primitives":[{"attributes":{"POSITION":33,"NORMAL":34},"mode":4,"material":6,"indices":35}]},{"name":"Linen spine lining naval","primitives":[{"attributes":{"POSITION":36,"NORMAL":37},"mode":4,"material":7,"indices":38}]},{"name":"Ribbon flexible satin naval","primitives":[{"attributes":{"POSITION":39,"NORMAL":40,"TEXCOORD_0":41},"mode":4,"material":8,"indices":42}]},{"name":"Rounded cloth spine.012","primitives":[{"attributes":{"POSITION":43,"NORMAL":44,"TEXCOORD_0":45},"mode":4,"material":0,"indices":46}]},{"name":"Tail textile endband naval","primitives":[{"attributes":{"POSITION":47,"NORMAL":48},"mode":4,"material":6,"indices":35}]}],"nodes":[{"name":"Back board.012","extras":{"edge_refined":true,"unpressed_mesh":"Back board.025","pressed_joint_revision":1,"joint_depth_mm":1.0368195070498132,"joint_center_mm":6.4,"reverse_art_source":"assets/images/book-covers/library-expansion-20260908/production/naval-primary-back.jpg"},"translation":[0,0,-0.1420000046491623],"mesh":0},{"name":"Compressed paper signatures naval","extras":{"paper_surface_revision":1,"leaf_count":128,"paper_caliper_mm":0.19296874999999997,"binding_structure":"Rounded and backed signatures"},"mesh":1},{"name":"Edition spine lettering AE","mesh":2},{"name":"Edition spine lettering ERIC JORGENSON","mesh":3},{"name":"Edition spine lettering THE ALMANACK OF NAVAL RAVIKANT","mesh":4},{"name":"Wrapped printed cover.012","extras":{"edge_refined":true,"unpressed_mesh":"Front board.025","pressed_joint_revision":1,"joint_depth_mm":1.091260737384303,"joint_center_mm":6.4},"translation":[0.6984999775886536,0,0],"mesh":5},{"name":"FrontHinge.012","translation":[-0.6984999179840088,0,0.1420000046491623],"children":[5]},{"name":"Head textile endband naval","extras":{"binding_revision":2},"mesh":6},{"name":"Linen spine lining naval","extras":{"binding_revision":2},"mesh":7},{"name":"Ribbon flexible satin naval","extras":{"binding_revision":2,"ribbon_width_dm":0.043,"ribbon_length_dm":0.29,"ribbon_anchor_dm":[0,-1.0554999999999999,0.006]},"mesh":8},{"name":"Rounded cloth spine.012","mesh":9},{"name":"Tail textile endband naval","extras":{"binding_revision":2},"mesh":10},{"name":"Publisher_naval","extras":{"slug":"naval","dimensions_mm":[139.7,212.7,30.5],"model_design":"Selected publisher front artwork with reconstructed binding, spine, back and interior. Measurements correspond to the selected print edition","edition_source":"https://www.simonandschuster.com/books/The-Almanack-of-Naval-Ravikant/Eric-Jorgenson/9798893310948","surface_stock":"uncoated","edition_print_evidence":"{\"slug\": \"naval\", \"spine\": \"Title and author placement matched to Authors Equity publisher photograph naval-primary-in2.jpg; small AE mark typographically approximated\", \"back\": \"Exact Authors Equity reverse artwork, ISBN 9798893310948\"}"},"scale":[0.09704761207103729,0.09999416768550873,0.09976625442504883],"children":[0,1,2,3,4,6,7,8,9,10,11]}],"scenes":[{"name":"Miguel Personal Library · 13 Editions","nodes":[12]}],"scene":0,"extensionsUsed":["EXT_meshopt_compression","EXT_texture_webp","KHR_materials_clearcoat","KHR_materials_sheen"],"extensionsRequired":["EXT_meshopt_compression","EXT_texture_webp"]}