{"asset":{"generator":"glTF-Transform v4.5.0","version":"2.0"},"accessors":[{"type":"VEC3","componentType":5126,"count":1330,"max":[0.6982592344284058,1.0633200407028198,0.0108255073428154],"min":[-0.6982592344284058,-1.0633200407028198,-0.006843942683190107],"normalized":false,"byteOffset":0,"bufferView":0},{"type":"VEC3","componentType":5126,"count":1330,"normalized":false,"byteOffset":0,"bufferView":1},{"type":"VEC2","componentType":5126,"count":1330,"normalized":false,"byteOffset":0,"bufferView":2},{"type":"VEC2","componentType":5126,"count":1330,"normalized":false,"byteOffset":0,"bufferView":3},{"type":"SCALAR","componentType":5123,"count":6684,"normalized":false,"byteOffset":0,"bufferView":4},{"type":"VEC3","componentType":5126,"count":1196,"max":[0.6982592344284058,1.0633200407028198,0.0018284484976902604],"min":[-0.6982592344284058,-1.0633200407028198,-0.0108255073428154],"normalized":false,"byteOffset":0,"bufferView":5},{"type":"VEC3","componentType":5126,"count":1196,"normalized":false,"byteOffset":0,"bufferView":6},{"type":"VEC2","componentType":5126,"count":1196,"normalized":false,"byteOffset":0,"bufferView":7},{"type":"VEC2","componentType":5126,"count":1196,"normalized":false,"byteOffset":0,"bufferView":8},{"type":"SCALAR","componentType":5123,"count":5904,"normalized":false,"byteOffset":13368,"bufferView":4},{"type":"VEC3","componentType":5126,"count":168,"max":[0.6635000109672546,1.031000018119812,0.0010000000474974513],"min":[-0.6635000109672546,-1.031000018119812,-0.0010000000474974513],"normalized":false,"byteOffset":0,"bufferView":9},{"type":"VEC3","componentType":5126,"count":168,"normalized":false,"byteOffset":0,"bufferView":10},{"type":"VEC2","componentType":5126,"count":168,"normalized":false,"byteOffset":0,"bufferView":11},{"type":"VEC2","componentType":5126,"count":168,"normalized":false,"byteOffset":0,"bufferView":12},{"type":"SCALAR","componentType":5123,"count":564,"normalized":false,"byteOffset":25176,"bufferView":4},{"type":"VEC3","componentType":5126,"count":8772,"max":[0.671500027179718,1.0355993509292603,0.12349999696016312],"min":[-0.7114999890327454,-1.0355827808380127,-0.12349999696016312],"normalized":false,"byteOffset":0,"bufferView":13},{"type":"VEC3","componentType":5126,"count":8772,"normalized":false,"byteOffset":0,"bufferView":14},{"type":"VEC2","componentType":5126,"count":8772,"normalized":false,"byteOffset":0,"bufferView":15},{"type":"SCALAR","componentType":5123,"count":49152,"normalized":false,"byteOffset":26304,"bufferView":4},{"type":"VEC3","componentType":5126,"count":8,"max":[0.671500027179718,1.0355000495910645,0.12349999696016312],"min":[-0.6884999871253967,-1.0355000495910645,-0.12349999696016312],"normalized":false,"byteOffset":0,"bufferView":16},{"type":"VEC3","componentType":5126,"count":8,"normalized":false,"byteOffset":0,"bufferView":17},{"type":"VEC2","componentType":5126,"count":8,"normalized":false,"byteOffset":0,"bufferView":18},{"type":"SCALAR","componentType":5123,"count":12,"normalized":false,"byteOffset":124608,"bufferView":4},{"type":"VEC3","componentType":5126,"count":2121,"max":[-0.7391876578330994,-0.923117995262146,0.02173454314470291],"min":[-0.7412638664245605,-0.9869279861450195,-0.02173454314470291],"normalized":false,"byteOffset":0,"bufferView":19},{"type":"VEC3","componentType":5126,"count":2121,"normalized":false,"byteOffset":0,"bufferView":20},{"type":"VEC2","componentType":5126,"count":2121,"normalized":false,"byteOffset":0,"bufferView":21},{"type":"SCALAR","componentType":5123,"count":3135,"normalized":false,"byteOffset":124632,"bufferView":4},{"type":"VEC3","componentType":5126,"count":4184,"max":[-0.7400670647621155,-0.5126069784164429,0.011607708409428596],"min":[-0.7413152456283569,-0.8167679905891418,-0.011607708409428596],"normalized":false,"byteOffset":0,"bufferView":22},{"type":"VEC3","componentType":5126,"count":4184,"normalized":false,"byteOffset":0,"bufferView":23},{"type":"VEC2","componentType":5126,"count":4184,"normalized":false,"byteOffset":0,"bufferView":24},{"type":"SCALAR","componentType":5123,"count":5010,"normalized":false,"byteOffset":130902,"bufferView":4},{"type":"VEC3","componentType":5126,"count":24239,"max":[-0.7390980124473572,0.9039750099182129,0.02262144908308983],"min":[-0.7413367033004761,-0.43390798568725586,-0.02262144908308983],"normalized":false,"byteOffset":0,"bufferView":25},{"type":"VEC3","componentType":5126,"count":24239,"normalized":false,"byteOffset":0,"bufferView":26},{"type":"VEC2","componentType":5126,"count":24239,"normalized":false,"byteOffset":0,"bufferView":27},{"type":"SCALAR","componentType":5123,"count":35742,"normalized":false,"byteOffset":140922,"bufferView":4},{"type":"VEC3","componentType":5126,"count":168,"max":[0.6635000109672546,1.031000018119812,0.0010000000474974513],"min":[-0.6635000109672546,-1.031000018119812,-0.0010000000474974513],"normalized":false,"byteOffset":0,"bufferView":28},{"type":"VEC3","componentType":5126,"count":168,"normalized":false,"byteOffset":0,"bufferView":29},{"type":"VEC2","componentType":5126,"count":168,"normalized":false,"byteOffset":0,"bufferView":30},{"type":"VEC2","componentType":5126,"count":168,"normalized":false,"byteOffset":0,"bufferView":31},{"type":"VEC3","componentType":5126,"count":1326,"max":[0.6982592940330505,1.0633200407028198,0.011177132837474346],"min":[-0.6982592940330505,-1.0633200407028198,-0.008512772619724274],"normalized":false,"byteOffset":0,"bufferView":32},{"type":"VEC3","componentType":5126,"count":1326,"normalized":false,"byteOffset":0,"bufferView":33},{"type":"VEC2","componentType":5126,"count":1326,"normalized":false,"byteOffset":0,"bufferView":34},{"type":"VEC2","componentType":5126,"count":1326,"normalized":false,"byteOffset":0,"bufferView":35},{"type":"VEC2","componentType":5126,"count":1326,"normalized":false,"byteOffset":0,"bufferView":36},{"type":"VEC2","componentType":5126,"count":1326,"normalized":false,"byteOffset":0,"bufferView":37},{"type":"SCALAR","componentType":5123,"count":6720,"normalized":false,"byteOffset":212406,"bufferView":4},{"type":"VEC3","componentType":5126,"count":1192,"max":[0.6982592940330505,1.0633200407028198,-0.004762934986501932],"min":[-0.6982592940330505,-1.0633200407028198,-0.011393931694328785],"normalized":false,"byteOffset":0,"bufferView":38},{"type":"VEC3","componentType":5126,"count":1192,"normalized":false,"byteOffset":0,"bufferView":39},{"type":"VEC2","componentType":5126,"count":1192,"normalized":false,"byteOffset":0,"bufferView":40},{"type":"VEC2","componentType":5126,"count":1192,"normalized":false,"byteOffset":0,"bufferView":41},{"type":"VEC2","componentType":5126,"count":1192,"normalized":false,"byteOffset":0,"bufferView":42},{"type":"VEC2","componentType":5126,"count":1192,"normalized":false,"byteOffset":0,"bufferView":43},{"type":"SCALAR","componentType":5123,"count":5940,"normalized":false,"byteOffset":225846,"bufferView":4},{"type":"VEC3","componentType":5126,"count":3530,"max":[-0.6832500100135803,1.0385420322418213,0.12349999696016312],"min":[-0.714749276638031,1.0304579734802246,-0.12349999696016312],"normalized":false,"byteOffset":0,"bufferView":44},{"type":"VEC3","componentType":5126,"count":3530,"normalized":false,"byteOffset":0,"bufferView":45},{"type":"SCALAR","componentType":5123,"count":21120,"normalized":false,"byteOffset":237726,"bufferView":4},{"type":"VEC3","componentType":5126,"count":588,"max":[-0.6891513466835022,1.0234999656677246,0.12349999696016312],"min":[-0.7145000100135803,-1.0234999656677246,-0.12349999696016312],"normalized":false,"byteOffset":0,"bufferView":46},{"type":"VEC3","componentType":5126,"count":588,"normalized":false,"byteOffset":0,"bufferView":47},{"type":"SCALAR","componentType":5123,"count":1164,"normalized":false,"byteOffset":279966,"bufferView":4},{"type":"VEC3","componentType":5126,"count":730,"max":[0.02171693928539753,-1.0554991960525513,0.02216394618153572],"min":[-0.02171693928539753,-1.3454999923706055,0.006000000052154064],"normalized":false,"byteOffset":0,"bufferView":48},{"type":"VEC3","componentType":5126,"count":730,"normalized":false,"byteOffset":0,"bufferView":49},{"type":"VEC2","componentType":5126,"count":730,"normalized":false,"byteOffset":0,"bufferView":50},{"type":"SCALAR","componentType":5123,"count":4368,"normalized":false,"byteOffset":282294,"bufferView":4},{"type":"VEC3","componentType":5126,"count":2178,"max":[-0.6906315088272095,1.0635625123977661,0.1420000046491623],"min":[-0.7409996390342712,-1.0635615587234497,-0.1420000046491623],"normalized":false,"byteOffset":0,"bufferView":51},{"type":"VEC3","componentType":5126,"count":2178,"normalized":false,"byteOffset":0,"bufferView":52},{"type":"VEC2","componentType":5126,"count":2178,"normalized":false,"byteOffset":0,"bufferView":53},{"type":"SCALAR","componentType":5123,"count":13056,"normalized":false,"byteOffset":291030,"bufferView":4},{"type":"VEC3","componentType":5126,"count":3530,"max":[-0.6832500100135803,-1.0304579734802246,0.12349999696016312],"min":[-0.714749276638031,-1.0385420322418213,-0.12349999696016312],"normalized":false,"byteOffset":0,"bufferView":54},{"type":"VEC3","componentType":5126,"count":3530,"normalized":false,"byteOffset":0,"bufferView":55},{"type":"VEC3","componentType":5126,"count":1066,"max":[1.3220000267028809,1.031499981880188,0.003754149656742811],"min":[-0.000021593450583168305,-1.031499981880188,0],"normalized":false,"byteOffset":0,"bufferView":56},{"type":"VEC3","componentType":5126,"count":1066,"normalized":false,"byteOffset":0,"bufferView":57},{"type":"VEC2","componentType":5126,"count":1066,"normalized":false,"byteOffset":0,"bufferView":58},{"type":"SCALAR","componentType":5123,"count":6384,"normalized":false,"byteOffset":317142,"bufferView":4},{"type":"VEC3","componentType":5126,"count":6668,"max":[0.7755191326141357,-0.09358511120080948,0.0042517525143921375],"min":[0.5600708723068237,-0.12482360005378723,0.0042371018789708614],"normalized":false,"byteOffset":0,"bufferView":59},{"type":"VEC3","componentType":5126,"count":6668,"normalized":false,"byteOffset":0,"bufferView":60},{"type":"VEC2","componentType":5126,"count":6668,"normalized":false,"byteOffset":0,"bufferView":61},{"type":"SCALAR","componentType":5123,"count":19620,"normalized":false,"byteOffset":329910,"bufferView":4},{"type":"VEC3","componentType":5126,"count":9426,"max":[0.7977783679962158,-0.7586542963981628,0.004252193961292505],"min":[0.5372025370597839,-0.7728814482688904,0.004233165178447962],"normalized":false,"byteOffset":0,"bufferView":62},{"type":"VEC3","componentType":5126,"count":9426,"normalized":false,"byteOffset":0,"bufferView":63},{"type":"VEC2","componentType":5126,"count":9426,"normalized":false,"byteOffset":0,"bufferView":64},{"type":"SCALAR","componentType":5123,"count":27840,"normalized":false,"byteOffset":369150,"bufferView":4},{"type":"VEC3","componentType":5126,"count":14350,"max":[1.217763900756836,0.43517979979515076,0.004254123196005821],"min":[0.11682683229446411,0.37642890214920044,0.003300403943285346],"normalized":false,"byteOffset":0,"bufferView":65},{"type":"VEC3","componentType":5126,"count":14350,"normalized":false,"byteOffset":0,"bufferView":66},{"type":"VEC2","componentType":5126,"count":14350,"normalized":false,"byteOffset":0,"bufferView":67},{"type":"SCALAR","componentType":5123,"count":40308,"normalized":false,"byteOffset":424830,"bufferView":4}],"bufferViews":[{"buffer":1,"byteOffset":0,"byteLength":15960,"target":34962,"byteStride":12,"extensions":{"EXT_meshopt_compression":{"buffer":0,"byteOffset":0,"byteLength":9879,"mode":"ATTRIBUTES","byteStride":12,"count":1330}}},{"buffer":1,"byteOffset":15960,"byteLength":15960,"target":34962,"byteStride":12,"extensions":{"EXT_meshopt_compression":{"buffer":0,"byteOffset":9880,"byteLength":12279,"mode":"ATTRIBUTES","byteStride":12,"count":1330}}},{"buffer":1,"byteOffset":31920,"byteLength":10640,"target":34962,"byteStride":8,"extensions":{"EXT_meshopt_compression":{"buffer":0,"byteOffset":22160,"byteLength":7711,"mode":"ATTRIBUTES","byteStride":8,"count":1330}}},{"buffer":1,"byteOffset":42560,"byteLength":10640,"target":34962,"byteStride":8,"extensions":{"EXT_meshopt_compression":{"buffer":0,"byteOffset":29872,"byteLength":6167,"mode":"ATTRIBUTES","byteStride":8,"count":1330}}},{"buffer":1,"byteOffset":53200,"byteLength":505446,"target":34963,"extensions":{"EXT_meshopt_compression":{"buffer":0,"byteOffset":36040,"byteLength":256157,"mode":"TRIANGLES","byteStride":2,"count":252723}}},{"buffer":1,"byteOffset":558648,"byteLength":14352,"target":34962,"byteStride":12,"extensions":{"EXT_meshopt_compression":{"buffer":0,"byteOffset":292200,"byteLength":8864,"mode":"ATTRIBUTES","byteStride":12,"count":1196}}},{"buffer":1,"byteOffset":573000,"byteLength":14352,"target":34962,"byteStride":12,"extensions":{"EXT_meshopt_compression":{"buffer":0,"byteOffset":301064,"byteLength":10687,"mode":"ATTRIBUTES","byteStride":12,"count":1196}}},{"buffer":1,"byteOffset":587352,"byteLength":9568,"target":34962,"byteStride":8,"extensions":{"EXT_meshopt_compression":{"buffer":0,"byteOffset":311752,"byteLength":6883,"mode":"ATTRIBUTES","byteStride":8,"count":1196}}},{"buffer":1,"byteOffset":596920,"byteLength":9568,"target":34962,"byteStride":8,"extensions":{"EXT_meshopt_compression":{"buffer":0,"byteOffset":318636,"byteLength":5553,"mode":"ATTRIBUTES","byteStride":8,"count":1196}}},{"buffer":1,"byteOffset":606488,"byteLength":2016,"target":34962,"byteStride":12,"extensions":{"EXT_meshopt_compression":{"buffer":0,"byteOffset":324192,"byteLength":1070,"mode":"ATTRIBUTES","byteStride":12,"count":168}}},{"buffer":1,"byteOffset":608504,"byteLength":2016,"target":34962,"byteStride":12,"extensions":{"EXT_meshopt_compression":{"buffer":0,"byteOffset":325264,"byteLength":1495,"mode":"ATTRIBUTES","byteStride":12,"count":168}}},{"buffer":1,"byteOffset":610520,"byteLength":1344,"target":34962,"byteStride":8,"extensions":{"EXT_meshopt_compression":{"buffer":0,"byteOffset":326760,"byteLength":1221,"mode":"ATTRIBUTES","byteStride":8,"count":168}}},{"buffer":1,"byteOffset":611864,"byteLength":1344,"target":34962,"byteStride":8,"extensions":{"EXT_meshopt_compression":{"buffer":0,"byteOffset":327984,"byteLength":646,"mode":"ATTRIBUTES","byteStride":8,"count":168}}},{"buffer":1,"byteOffset":613208,"byteLength":105264,"target":34962,"byteStride":12,"extensions":{"EXT_meshopt_compression":{"buffer":0,"byteOffset":328632,"byteLength":43341,"mode":"ATTRIBUTES","byteStride":12,"count":8772}}},{"buffer":1,"byteOffset":718472,"byteLength":105264,"target":34962,"byteStride":12,"extensions":{"EXT_meshopt_compression":{"buffer":0,"byteOffset":371976,"byteLength":15340,"mode":"ATTRIBUTES","byteStride":12,"count":8772}}},{"buffer":1,"byteOffset":823736,"byteLength":70176,"target":34962,"byteStride":8,"extensions":{"EXT_meshopt_compression":{"buffer":0,"byteOffset":387316,"byteLength":32649,"mode":"ATTRIBUTES","byteStride":8,"count":8772}}},{"buffer":1,"byteOffset":893912,"byteLength":96,"target":34962,"byteStride":12,"extensions":{"EXT_meshopt_compression":{"buffer":0,"byteOffset":419968,"byteLength":89,"mode":"ATTRIBUTES","byteStride":12,"count":8}}},{"buffer":1,"byteOffset":894008,"byteLength":96,"target":34962,"byteStride":12,"extensions":{"EXT_meshopt_compression":{"buffer":0,"byteOffset":420060,"byteLength":50,"mode":"ATTRIBUTES","byteStride":12,"count":8}}},{"buffer":1,"byteOffset":894104,"byteLength":64,"target":34962,"byteStride":8,"extensions":{"EXT_meshopt_compression":{"buffer":0,"byteOffset":420112,"byteLength":71,"mode":"ATTRIBUTES","byteStride":8,"count":8}}},{"buffer":1,"byteOffset":894168,"byteLength":25452,"target":34962,"byteStride":12,"extensions":{"EXT_meshopt_compression":{"buffer":0,"byteOffset":420184,"byteLength":9363,"mode":"ATTRIBUTES","byteStride":12,"count":2121}}},{"buffer":1,"byteOffset":919620,"byteLength":25452,"target":34962,"byteStride":12,"extensions":{"EXT_meshopt_compression":{"buffer":0,"byteOffset":429548,"byteLength":19496,"mode":"ATTRIBUTES","byteStride":12,"count":2121}}},{"buffer":1,"byteOffset":945072,"byteLength":16968,"target":34962,"byteStride":8,"extensions":{"EXT_meshopt_compression":{"buffer":0,"byteOffset":449044,"byteLength":3975,"mode":"ATTRIBUTES","byteStride":8,"count":2121}}},{"buffer":1,"byteOffset":962040,"byteLength":50208,"target":34962,"byteStride":12,"extensions":{"EXT_meshopt_compression":{"buffer":0,"byteOffset":453020,"byteLength":18974,"mode":"ATTRIBUTES","byteStride":12,"count":4184}}},{"buffer":1,"byteOffset":1012248,"byteLength":50208,"target":34962,"byteStride":12,"extensions":{"EXT_meshopt_compression":{"buffer":0,"byteOffset":471996,"byteLength":35530,"mode":"ATTRIBUTES","byteStride":12,"count":4184}}},{"buffer":1,"byteOffset":1062456,"byteLength":33472,"target":34962,"byteStride":8,"extensions":{"EXT_meshopt_compression":{"buffer":0,"byteOffset":507528,"byteLength":8198,"mode":"ATTRIBUTES","byteStride":8,"count":4184}}},{"buffer":1,"byteOffset":1095928,"byteLength":290868,"target":34962,"byteStride":12,"extensions":{"EXT_meshopt_compression":{"buffer":0,"byteOffset":515728,"byteLength":111715,"mode":"ATTRIBUTES","byteStride":12,"count":24239}}},{"buffer":1,"byteOffset":1386796,"byteLength":290868,"target":34962,"byteStride":12,"extensions":{"EXT_meshopt_compression":{"buffer":0,"byteOffset":627444,"byteLength":221582,"mode":"ATTRIBUTES","byteStride":12,"count":24239}}},{"buffer":1,"byteOffset":1677664,"byteLength":193912,"target":34962,"byteStride":8,"extensions":{"EXT_meshopt_compression":{"buffer":0,"byteOffset":849028,"byteLength":45590,"mode":"ATTRIBUTES","byteStride":8,"count":24239}}},{"buffer":1,"byteOffset":1871576,"byteLength":2016,"target":34962,"byteStride":12,"extensions":{"EXT_meshopt_compression":{"buffer":0,"byteOffset":894620,"byteLength":1070,"mode":"ATTRIBUTES","byteStride":12,"count":168}}},{"buffer":1,"byteOffset":1873592,"byteLength":2016,"target":34962,"byteStride":12,"extensions":{"EXT_meshopt_compression":{"buffer":0,"byteOffset":895692,"byteLength":1495,"mode":"ATTRIBUTES","byteStride":12,"count":168}}},{"buffer":1,"byteOffset":1875608,"byteLength":1344,"target":34962,"byteStride":8,"extensions":{"EXT_meshopt_compression":{"buffer":0,"byteOffset":897188,"byteLength":1221,"mode":"ATTRIBUTES","byteStride":8,"count":168}}},{"buffer":1,"byteOffset":1876952,"byteLength":1344,"target":34962,"byteStride":8,"extensions":{"EXT_meshopt_compression":{"buffer":0,"byteOffset":898412,"byteLength":646,"mode":"ATTRIBUTES","byteStride":8,"count":168}}},{"buffer":1,"byteOffset":1878296,"byteLength":15912,"target":34962,"byteStride":12,"extensions":{"EXT_meshopt_compression":{"buffer":0,"byteOffset":899060,"byteLength":10324,"mode":"ATTRIBUTES","byteStride":12,"count":1326}}},{"buffer":1,"byteOffset":1894208,"byteLength":15912,"target":34962,"byteStride":12,"extensions":{"EXT_meshopt_compression":{"buffer":0,"byteOffset":909384,"byteLength":12420,"mode":"ATTRIBUTES","byteStride":12,"count":1326}}},{"buffer":1,"byteOffset":1910120,"byteLength":10608,"target":34962,"byteStride":8,"extensions":{"EXT_meshopt_compression":{"buffer":0,"byteOffset":921804,"byteLength":7541,"mode":"ATTRIBUTES","byteStride":8,"count":1326}}},{"buffer":1,"byteOffset":1920728,"byteLength":10608,"target":34962,"byteStride":8,"extensions":{"EXT_meshopt_compression":{"buffer":0,"byteOffset":929348,"byteLength":7070,"mode":"ATTRIBUTES","byteStride":8,"count":1326}}},{"buffer":1,"byteOffset":1931336,"byteLength":10608,"target":34962,"byteStride":8,"extensions":{"EXT_meshopt_compression":{"buffer":0,"byteOffset":936420,"byteLength":6804,"mode":"ATTRIBUTES","byteStride":8,"count":1326}}},{"buffer":1,"byteOffset":1941944,"byteLength":10608,"target":34962,"byteStride":8,"extensions":{"EXT_meshopt_compression":{"buffer":0,"byteOffset":943224,"byteLength":6199,"mode":"ATTRIBUTES","byteStride":8,"count":1326}}},{"buffer":1,"byteOffset":1952552,"byteLength":14304,"target":34962,"byteStride":12,"extensions":{"EXT_meshopt_compression":{"buffer":0,"byteOffset":949424,"byteLength":8814,"mode":"ATTRIBUTES","byteStride":12,"count":1192}}},{"buffer":1,"byteOffset":1966856,"byteLength":14304,"target":34962,"byteStride":12,"extensions":{"EXT_meshopt_compression":{"buffer":0,"byteOffset":958240,"byteLength":10526,"mode":"ATTRIBUTES","byteStride":12,"count":1192}}},{"buffer":1,"byteOffset":1981160,"byteLength":9536,"target":34962,"byteStride":8,"extensions":{"EXT_meshopt_compression":{"buffer":0,"byteOffset":968768,"byteLength":6828,"mode":"ATTRIBUTES","byteStride":8,"count":1192}}},{"buffer":1,"byteOffset":1990696,"byteLength":9536,"target":34962,"byteStride":8,"extensions":{"EXT_meshopt_compression":{"buffer":0,"byteOffset":975596,"byteLength":6359,"mode":"ATTRIBUTES","byteStride":8,"count":1192}}},{"buffer":1,"byteOffset":2000232,"byteLength":9536,"target":34962,"byteStride":8,"extensions":{"EXT_meshopt_compression":{"buffer":0,"byteOffset":981956,"byteLength":6204,"mode":"ATTRIBUTES","byteStride":8,"count":1192}}},{"buffer":1,"byteOffset":2009768,"byteLength":9536,"target":34962,"byteStride":8,"extensions":{"EXT_meshopt_compression":{"buffer":0,"byteOffset":988160,"byteLength":5595,"mode":"ATTRIBUTES","byteStride":8,"count":1192}}},{"buffer":1,"byteOffset":2019304,"byteLength":42360,"target":34962,"byteStride":12,"extensions":{"EXT_meshopt_compression":{"buffer":0,"byteOffset":993756,"byteLength":20229,"mode":"ATTRIBUTES","byteStride":12,"count":3530}}},{"buffer":1,"byteOffset":2061664,"byteLength":42360,"target":34962,"byteStride":12,"extensions":{"EXT_meshopt_compression":{"buffer":0,"byteOffset":1013988,"byteLength":37957,"mode":"ATTRIBUTES","byteStride":12,"count":3530}}},{"buffer":1,"byteOffset":2104024,"byteLength":7056,"target":34962,"byteStride":12,"extensions":{"EXT_meshopt_compression":{"buffer":0,"byteOffset":1051948,"byteLength":1839,"mode":"ATTRIBUTES","byteStride":12,"count":588}}},{"buffer":1,"byteOffset":2111080,"byteLength":7056,"target":34962,"byteStride":12,"extensions":{"EXT_meshopt_compression":{"buffer":0,"byteOffset":1053788,"byteLength":5805,"mode":"ATTRIBUTES","byteStride":12,"count":588}}},{"buffer":1,"byteOffset":2118136,"byteLength":8760,"target":34962,"byteStride":12,"extensions":{"EXT_meshopt_compression":{"buffer":0,"byteOffset":1059596,"byteLength":4464,"mode":"ATTRIBUTES","byteStride":12,"count":730}}},{"buffer":1,"byteOffset":2126896,"byteLength":8760,"target":34962,"byteStride":12,"extensions":{"EXT_meshopt_compression":{"buffer":0,"byteOffset":1064060,"byteLength":6185,"mode":"ATTRIBUTES","byteStride":12,"count":730}}},{"buffer":1,"byteOffset":2135656,"byteLength":5840,"target":34962,"byteStride":8,"extensions":{"EXT_meshopt_compression":{"buffer":0,"byteOffset":1070248,"byteLength":2354,"mode":"ATTRIBUTES","byteStride":8,"count":730}}},{"buffer":1,"byteOffset":2141496,"byteLength":26136,"target":34962,"byteStride":12,"extensions":{"EXT_meshopt_compression":{"buffer":0,"byteOffset":1072604,"byteLength":15191,"mode":"ATTRIBUTES","byteStride":12,"count":2178}}},{"buffer":1,"byteOffset":2167632,"byteLength":26136,"target":34962,"byteStride":12,"extensions":{"EXT_meshopt_compression":{"buffer":0,"byteOffset":1087796,"byteLength":21399,"mode":"ATTRIBUTES","byteStride":12,"count":2178}}},{"buffer":1,"byteOffset":2193768,"byteLength":17424,"target":34962,"byteStride":8,"extensions":{"EXT_meshopt_compression":{"buffer":0,"byteOffset":1109196,"byteLength":6852,"mode":"ATTRIBUTES","byteStride":8,"count":2178}}},{"buffer":1,"byteOffset":2211192,"byteLength":42360,"target":34962,"byteStride":12,"extensions":{"EXT_meshopt_compression":{"buffer":0,"byteOffset":1116048,"byteLength":20229,"mode":"ATTRIBUTES","byteStride":12,"count":3530}}},{"buffer":1,"byteOffset":2253552,"byteLength":42360,"target":34962,"byteStride":12,"extensions":{"EXT_meshopt_compression":{"buffer":0,"byteOffset":1136280,"byteLength":37957,"mode":"ATTRIBUTES","byteStride":12,"count":3530}}},{"buffer":1,"byteOffset":2295912,"byteLength":12792,"target":34962,"byteStride":12,"extensions":{"EXT_meshopt_compression":{"buffer":0,"byteOffset":1174240,"byteLength":6725,"mode":"ATTRIBUTES","byteStride":12,"count":1066}}},{"buffer":1,"byteOffset":2308704,"byteLength":12792,"target":34962,"byteStride":12,"extensions":{"EXT_meshopt_compression":{"buffer":0,"byteOffset":1180968,"byteLength":4150,"mode":"ATTRIBUTES","byteStride":12,"count":1066}}},{"buffer":1,"byteOffset":2321496,"byteLength":8528,"target":34962,"byteStride":8,"extensions":{"EXT_meshopt_compression":{"buffer":0,"byteOffset":1185120,"byteLength":3771,"mode":"ATTRIBUTES","byteStride":8,"count":1066}}},{"buffer":1,"byteOffset":2330024,"byteLength":80016,"target":34962,"byteStride":12,"extensions":{"EXT_meshopt_compression":{"buffer":0,"byteOffset":1188892,"byteLength":35117,"mode":"ATTRIBUTES","byteStride":12,"count":6668}}},{"buffer":1,"byteOffset":2410040,"byteLength":80016,"target":34962,"byteStride":12,"extensions":{"EXT_meshopt_compression":{"buffer":0,"byteOffset":1224012,"byteLength":9500,"mode":"ATTRIBUTES","byteStride":12,"count":6668}}},{"buffer":1,"byteOffset":2490056,"byteLength":53344,"target":34962,"byteStride":8,"extensions":{"EXT_meshopt_compression":{"buffer":0,"byteOffset":1233512,"byteLength":23760,"mode":"ATTRIBUTES","byteStride":8,"count":6668}}},{"buffer":1,"byteOffset":2543400,"byteLength":113112,"target":34962,"byteStride":12,"extensions":{"EXT_meshopt_compression":{"buffer":0,"byteOffset":1257272,"byteLength":46214,"mode":"ATTRIBUTES","byteStride":12,"count":9426}}},{"buffer":1,"byteOffset":2656512,"byteLength":113112,"target":34962,"byteStride":12,"extensions":{"EXT_meshopt_compression":{"buffer":0,"byteOffset":1303488,"byteLength":2817,"mode":"ATTRIBUTES","byteStride":12,"count":9426}}},{"buffer":1,"byteOffset":2769624,"byteLength":75408,"target":34962,"byteStride":8,"extensions":{"EXT_meshopt_compression":{"buffer":0,"byteOffset":1306308,"byteLength":33046,"mode":"ATTRIBUTES","byteStride":8,"count":9426}}},{"buffer":1,"byteOffset":2845032,"byteLength":172200,"target":34962,"byteStride":12,"extensions":{"EXT_meshopt_compression":{"buffer":0,"byteOffset":1339356,"byteLength":75203,"mode":"ATTRIBUTES","byteStride":12,"count":14350}}},{"buffer":1,"byteOffset":3017232,"byteLength":172200,"target":34962,"byteStride":12,"extensions":{"EXT_meshopt_compression":{"buffer":0,"byteOffset":1414560,"byteLength":24532,"mode":"ATTRIBUTES","byteStride":12,"count":14350}}},{"buffer":1,"byteOffset":3189432,"byteLength":114800,"target":34962,"byteStride":8,"extensions":{"EXT_meshopt_compression":{"buffer":0,"byteOffset":1439092,"byteLength":49780,"mode":"ATTRIBUTES","byteStride":8,"count":14350}}}],"samplers":[{"magFilter":9729,"minFilter":9987,"wrapS":10497,"wrapT":10497},{"magFilter":9729,"minFilter":9987,"wrapS":33071,"wrapT":33071}],"textures":[{"sampler":0,"extensions":{"EXT_texture_webp":{"source":0}}},{"source":1,"sampler":0},{"sampler":0,"extensions":{"EXT_texture_webp":{"source":3}}},{"sampler":0,"extensions":{"EXT_texture_webp":{"source":2}}},{"sampler":0,"extensions":{"EXT_texture_webp":{"source":4}}},{"sampler":0,"extensions":{"EXT_texture_webp":{"source":6}}},{"sampler":0,"extensions":{"EXT_texture_webp":{"source":5}}},{"sampler":1,"extensions":{"EXT_texture_webp":{"source":9}}},{"sampler":0,"extensions":{"EXT_texture_webp":{"source":8}}},{"sampler":0,"extensions":{"EXT_texture_webp":{"source":7}}},{"sampler":0,"extensions":{"EXT_texture_webp":{"source":10}}}],"images":[{"name":"book_pattern_nor_gl_2k","mimeType":"image/webp","uri":"shared/8de172b46ec41fd3863b660a.webp"},{"name":"naval-primary-back","mimeType":"image/jpeg","uri":"shared/f2648ab2a15195a0182e5f0e.jpg"},{"name":"Paper001_2K-JPG_NormalGL","mimeType":"image/webp","uri":"shared/a4ffc7b7fc49def2917e39f5.webp"},{"name":"Paper001_2K-JPG_Color","mimeType":"image/webp","uri":"shared/75262c983a496cb7fcdc6c19.webp"},{"name":"Paper001_2K-JPG_Roughness","mimeType":"image/webp","uri":"shared/49f61cb86539e805ce6a1ee3.webp"},{"name":"compressed-paper-normal","mimeType":"image/webp","uri":"shared/339c1ac519928878fbaa1237.webp"},{"name":"compressed-paper-color","mimeType":"image/webp","uri":"shared/7701c62282fa7f26c46af450.webp"},{"name":"naval_print_orm","mimeType":"image/webp","uri":"shared/1d9eadd81ee9fcf4b233b3b9.webp"},{"name":"naval_print_normal","mimeType":"image/webp","uri":"shared/4e5adea097bbe0cd7e2239d7.webp"},{"name":"edition-naval","mimeType":"image/webp","uri":"shared/312fca61b7d0841f423797fa.webp"},{"name":"book_pattern_rough_2k","mimeType":"image/webp","uri":"shared/a04d51bd9431742f3e8e78f4.webp"}],"buffers":[{"uri":"shared/a60fdc2d7efdf42763563767.bin","byteLength":1488872},{"byteLength":3304232,"extensions":{"EXT_meshopt_compression":{"fallback":true}}}],"materials":[{"name":"naval case material","doubleSided":true,"pbrMetallicRoughness":{"baseColorFactor":[0.9215818643569946,0.9215818643569946,0.8962693810462952,1],"roughnessFactor":0.7400000095367432,"metallicFactor":0},"normalTexture":{"index":0,"scale":0.1599999964237213},"extensions":{"KHR_materials_clearcoat":{"clearcoatFactor":0.014999999664723873,"clearcoatRoughnessFactor":0.36000001430511475}}},{"name":"naval verified reverse artwork","doubleSided":true,"pbrMetallicRoughness":{"roughnessFactor":0.7400000095367432,"metallicFactor":0,"baseColorTexture":{"index":1,"texCoord":1}},"normalTexture":{"index":0,"scale":0.1599999964237213},"extensions":{"KHR_materials_clearcoat":{"clearcoatFactor":0.014999999664723873,"clearcoatRoughnessFactor":0.36000001430511475}}},{"name":"MAT_Uncoated_Paper_Fibre","doubleSided":true,"pbrMetallicRoughness":{"metallicFactor":0,"baseColorTexture":{"index":2,"texCoord":1},"metallicRoughnessTexture":{"index":4,"texCoord":1}},"normalTexture":{"index":3,"texCoord":1,"scale":0.07000000029802322}},{"name":"Compressed paper cut surface","doubleSided":true,"pbrMetallicRoughness":{"roughnessFactor":0.8999999761581421,"metallicFactor":0,"baseColorTexture":{"index":5}},"normalTexture":{"index":6}},{"name":"Compressed ivory stock 2","doubleSided":true,"pbrMetallicRoughness":{"baseColorFactor":[0.7279999852180481,0.7129999995231628,0.656000018119812,1],"roughnessFactor":0.8600000143051147,"metallicFactor":0}},{"name":"naval edition spine ink","doubleSided":true,"pbrMetallicRoughness":{"baseColorFactor":[0.017641954123973846,0.020288562402129173,0.01850022003054619,1],"roughnessFactor":0.6000000238418579,"metallicFactor":0}},{"name":"MAT_naval_Registered_Print","extras":{"surface_finish":"Registered print, selective varnish"},"doubleSided":true,"pbrMetallicRoughness":{"baseColorTexture":{"index":7,"texCoord":1},"metallicRoughnessTexture":{"index":9,"texCoord":1}},"normalTexture":{"index":8,"texCoord":1},"extensions":{"KHR_materials_clearcoat":{"clearcoatFactor":1,"clearcoatRoughnessFactor":0.23999999463558197,"clearcoatTexture":{"index":9,"texCoord":1}}}},{"name":"Endband cotton ecru","doubleSided":true,"pbrMetallicRoughness":{"baseColorFactor":[0.5,0.46000000834465027,0.3499999940395355,1],"roughnessFactor":0.8799999952316284,"metallicFactor":0}},{"name":"Binding linen warm ecru","doubleSided":true,"pbrMetallicRoughness":{"baseColorFactor":[0.3799999952316284,0.3400000035762787,0.25999999046325684,1],"roughnessFactor":0.9300000071525574,"metallicFactor":0}},{"name":"naval woven ribbon","doubleSided":true,"pbrMetallicRoughness":{"baseColorFactor":[0.017641954123973846,0.020288562402129173,0.01850022003054619,1],"metallicFactor":0,"metallicRoughnessTexture":{"index":10}},"normalTexture":{"index":0,"scale":1.149999976158142},"extensions":{"KHR_materials_sheen":{"sheenColorFactor":[1,1,1],"sheenRoughnessFactor":0.5}}},{"name":"MAT_Uncoated_Paper_Fibre","doubleSided":true,"pbrMetallicRoughness":{"metallicFactor":0,"baseColorTexture":{"index":2},"metallicRoughnessTexture":{"index":4}},"normalTexture":{"index":3,"scale":0.07000000029802322}},{"name":"naval printed ink","doubleSided":true,"pbrMetallicRoughness":{"baseColorFactor":[0.040915198624134064,0.03310476616024971,0.019382361322641373,1],"roughnessFactor":0.8999999761581421,"metallicFactor":0}}],"meshes":[{"name":"Pressed case joint Back board.012","primitives":[{"attributes":{"POSITION":0,"NORMAL":1,"TEXCOORD_0":2,"TEXCOORD_1":3},"mode":4,"material":0,"indices":4},{"attributes":{"POSITION":5,"NORMAL":6,"TEXCOORD_0":7,"TEXCOORD_1":8},"mode":4,"material":1,"indices":9}]},{"name":"Back pastedown.012","primitives":[{"attributes":{"POSITION":10,"NORMAL":11,"TEXCOORD_0":12,"TEXCOORD_1":13},"mode":4,"material":2,"indices":14}]},{"name":"Continuous compressed cut naval","primitives":[{"attributes":{"POSITION":15,"NORMAL":16,"TEXCOORD_0":17},"mode":4,"material":3,"indices":18},{"attributes":{"POSITION":19,"NORMAL":20,"TEXCOORD_0":21},"mode":4,"material":4,"indices":22}]},{"name":"Edition lettering.014","primitives":[{"attributes":{"POSITION":23,"NORMAL":24,"TEXCOORD_0":25},"mode":4,"material":5,"indices":26}]},{"name":"Edition lettering.013","primitives":[{"attributes":{"POSITION":27,"NORMAL":28,"TEXCOORD_0":29},"mode":4,"material":5,"indices":30}]},{"name":"Edition lettering.012","primitives":[{"attributes":{"POSITION":31,"NORMAL":32,"TEXCOORD_0":33},"mode":4,"material":5,"indices":34}]},{"name":"Front pastedown.012","primitives":[{"attributes":{"POSITION":35,"NORMAL":36,"TEXCOORD_0":37,"TEXCOORD_1":38},"mode":4,"material":2,"indices":14}]},{"name":"Pressed case joint Wrapped printed cover.012","primitives":[{"attributes":{"POSITION":39,"NORMAL":40,"TEXCOORD_0":41,"TEXCOORD_1":42,"TEXCOORD_2":43,"TEXCOORD_3":44},"mode":4,"material":6,"indices":45},{"attributes":{"POSITION":46,"NORMAL":47,"TEXCOORD_0":48,"TEXCOORD_1":49,"TEXCOORD_2":50,"TEXCOORD_3":51},"mode":4,"material":0,"indices":52}]},{"name":"Head textile endband naval","primitives":[{"attributes":{"POSITION":53,"NORMAL":54},"mode":4,"material":7,"indices":55}]},{"name":"Linen spine lining naval","primitives":[{"attributes":{"POSITION":56,"NORMAL":57},"mode":4,"material":8,"indices":58}]},{"name":"Ribbon flexible satin naval","primitives":[{"attributes":{"POSITION":59,"NORMAL":60,"TEXCOORD_0":61},"mode":4,"material":9,"indices":62}]},{"name":"Rounded cloth spine.012","primitives":[{"attributes":{"POSITION":63,"NORMAL":64,"TEXCOORD_0":65},"mode":4,"material":0,"indices":66}]},{"name":"Tail textile endband naval","primitives":[{"attributes":{"POSITION":67,"NORMAL":68},"mode":4,"material":7,"indices":55}]},{"name":"Flexible paper.012","primitives":[{"attributes":{"POSITION":69,"NORMAL":70,"TEXCOORD_0":71},"mode":4,"material":10,"indices":72}]},{"name":"Interior author.012","primitives":[{"attributes":{"POSITION":73,"NORMAL":74,"TEXCOORD_0":75},"mode":4,"material":11,"indices":76}]},{"name":"Interior imprint.012","primitives":[{"attributes":{"POSITION":77,"NORMAL":78,"TEXCOORD_0":79},"mode":4,"material":11,"indices":80}]},{"name":"Interior title.012","primitives":[{"attributes":{"POSITION":81,"NORMAL":82,"TEXCOORD_0":83},"mode":4,"material":11,"indices":84}]}],"nodes":[{"name":"Back board.012","extras":{"edge_refined":true,"unpressed_mesh":"Back board.025","pressed_joint_revision":1,"joint_depth_mm":1.0368195070498132,"joint_center_mm":6.4,"reverse_art_source":"assets/images/book-covers/library-expansion-20260908/production/naval-primary-back.jpg"},"translation":[0,0,-0.1420000046491623],"mesh":0},{"name":"Back pastedown.012","translation":[0,0,-0.13050000369548798],"mesh":1},{"name":"Compressed paper signatures naval","extras":{"paper_surface_revision":1,"leaf_count":128,"paper_caliper_mm":0.19296874999999997,"binding_structure":"Rounded and backed signatures"},"mesh":2},{"name":"Edition spine lettering AE","mesh":3},{"name":"Edition spine lettering ERIC JORGENSON","mesh":4},{"name":"Edition spine lettering THE ALMANACK OF NAVAL RAVIKANT","mesh":5},{"name":"Front pastedown.012","translation":[0.6984999775886536,0,-0.011500000953674316],"mesh":6},{"name":"Wrapped printed cover.012","extras":{"edge_refined":true,"unpressed_mesh":"Front board.025","pressed_joint_revision":1,"joint_depth_mm":1.091260737384303,"joint_center_mm":6.4},"translation":[0.6984999775886536,0,0],"mesh":7},{"name":"FrontHinge.012","translation":[-0.6984999179840088,0,0.1420000046491623],"children":[6,7]},{"name":"Head textile endband naval","extras":{"binding_revision":2},"mesh":8},{"name":"Linen spine lining naval","extras":{"binding_revision":2},"mesh":9},{"name":"Ribbon flexible satin naval","extras":{"binding_revision":2,"ribbon_width_dm":0.043,"ribbon_length_dm":0.29,"ribbon_anchor_dm":[0,-1.0554999999999999,0.006]},"mesh":10},{"name":"Rounded cloth spine.012","mesh":11},{"name":"Tail textile endband naval","extras":{"binding_revision":2},"mesh":12},{"name":"Curved title leaf.012","mesh":13},{"name":"Interior author.012","mesh":14},{"name":"Interior imprint.012","mesh":15},{"name":"Interior title.012","mesh":16},{"name":"TurningLeaf.012","translation":[-0.6535000205039978,0,0.12599998712539673],"children":[14,15,16,17]},{"name":"Publisher_naval","extras":{"slug":"naval","dimensions_mm":[139.7,212.7,30.5],"model_design":"Selected publisher front artwork with reconstructed binding, spine, back and interior. Measurements correspond to the selected print edition","edition_source":"https://www.simonandschuster.com/books/The-Almanack-of-Naval-Ravikant/Eric-Jorgenson/9798893310948","surface_stock":"uncoated","edition_print_evidence":"{\"slug\": \"naval\", \"spine\": \"Title and author placement matched to Authors Equity publisher photograph naval-primary-in2.jpg; small AE mark typographically approximated\", \"back\": \"Exact Authors Equity reverse artwork, ISBN 9798893310948\"}"},"scale":[0.09704761207103729,0.09999416768550873,0.09976625442504883],"children":[0,1,2,3,4,5,8,9,10,11,12,13,18]}],"scenes":[{"name":"Miguel Personal Library · 13 Editions","nodes":[19]}],"scene":0,"extensionsUsed":["EXT_meshopt_compression","EXT_texture_webp","KHR_materials_clearcoat","KHR_materials_sheen"],"extensionsRequired":["EXT_meshopt_compression","EXT_texture_webp"]}