{"asset":{"generator":"glTF-Transform v4.5.0","version":"2.0"},"accessors":[{"type":"VEC3","componentType":5126,"count":1326,"max":[0.644758939743042,0.9897821545600891,0.0006059613078832626],"min":[-0.644758939743042,-0.9897821545600891,-0.0028377592097967863],"normalized":false,"byteOffset":0,"bufferView":0},{"type":"VEC3","componentType":5126,"count":1326,"normalized":false,"byteOffset":0,"bufferView":1},{"type":"VEC2","componentType":5126,"count":1326,"normalized":false,"byteOffset":0,"bufferView":2},{"type":"VEC2","componentType":5126,"count":1326,"normalized":false,"byteOffset":0,"bufferView":3},{"type":"SCALAR","componentType":5123,"count":6624,"normalized":false,"byteOffset":0,"bufferView":4},{"type":"VEC3","componentType":5126,"count":1194,"max":[0.644758939743042,0.9897821545600891,0.0028377592097967863],"min":[-0.644758939743042,-0.9897821545600891,-0.00034997210605069995],"normalized":false,"byteOffset":0,"bufferView":5},{"type":"VEC3","componentType":5126,"count":1194,"normalized":false,"byteOffset":0,"bufferView":6},{"type":"VEC2","componentType":5126,"count":1194,"normalized":false,"byteOffset":0,"bufferView":7},{"type":"VEC2","componentType":5126,"count":1194,"normalized":false,"byteOffset":0,"bufferView":8},{"type":"SCALAR","componentType":5123,"count":5892,"normalized":false,"byteOffset":13248,"bufferView":4},{"type":"VEC3","componentType":5126,"count":514,"max":[0.1009504571557045,0,0.0053944955579936504],"min":[-0.09995229542255402,0,-0.005732110235840082],"normalized":false,"byteOffset":0,"bufferView":9},{"type":"VEC3","componentType":5126,"count":514,"normalized":false,"byteOffset":0,"bufferView":10},{"type":"VEC2","componentType":5126,"count":514,"normalized":false,"byteOffset":0,"bufferView":11},{"type":"SCALAR","componentType":5123,"count":1482,"normalized":false,"byteOffset":25032,"bufferView":4},{"type":"VEC3","componentType":5126,"count":9079,"max":[0.17126786708831787,0,0.07542230188846588],"min":[-0.17168883979320526,0,-0.07163350284099579],"normalized":false,"byteOffset":0,"bufferView":12},{"type":"VEC3","componentType":5126,"count":9079,"normalized":false,"byteOffset":0,"bufferView":13},{"type":"VEC2","componentType":5126,"count":9079,"normalized":false,"byteOffset":0,"bufferView":14},{"type":"SCALAR","componentType":5123,"count":26799,"normalized":false,"byteOffset":27996,"bufferView":4},{"type":"VEC3","componentType":5126,"count":645,"max":[0.08726311475038528,0,0.00647339504212141],"min":[-0.08681394904851913,0,-0.006878532003611326],"normalized":false,"byteOffset":0,"bufferView":15},{"type":"VEC3","componentType":5126,"count":645,"normalized":false,"byteOffset":0,"bufferView":16},{"type":"VEC2","componentType":5126,"count":645,"normalized":false,"byteOffset":0,"bufferView":17},{"type":"SCALAR","componentType":5123,"count":1857,"normalized":false,"byteOffset":81594,"bufferView":4},{"type":"VEC3","componentType":5126,"count":878,"max":[0.07910256832838058,0,0.005671926308423281],"min":[-0.0783858671784401,0,-0.0060187154449522495],"normalized":false,"byteOffset":0,"bufferView":18},{"type":"VEC3","componentType":5126,"count":878,"normalized":false,"byteOffset":0,"bufferView":19},{"type":"VEC2","componentType":5126,"count":878,"normalized":false,"byteOffset":0,"bufferView":20},{"type":"SCALAR","componentType":5123,"count":2598,"normalized":false,"byteOffset":85308,"bufferView":4},{"type":"VEC3","componentType":5126,"count":1868,"max":[0.21960753202438354,0,0.023399895057082176],"min":[-0.21954692900180817,0,-0.016855597496032715],"normalized":false,"byteOffset":0,"bufferView":21},{"type":"VEC3","componentType":5126,"count":1868,"normalized":false,"byteOffset":0,"bufferView":22},{"type":"VEC2","componentType":5126,"count":1868,"normalized":false,"byteOffset":0,"bufferView":23},{"type":"SCALAR","componentType":5123,"count":5520,"normalized":false,"byteOffset":90504,"bufferView":4},{"type":"VEC3","componentType":5126,"count":13805,"max":[-0.6529035568237305,-0.615447461605072,0.010499999858438969],"min":[-0.6532500386238098,-0.8893525004386902,-0.010499999858438969],"normalized":false,"byteOffset":0,"bufferView":24},{"type":"VEC3","componentType":5126,"count":13805,"normalized":false,"byteOffset":0,"bufferView":25},{"type":"VEC2","componentType":5126,"count":13805,"normalized":false,"byteOffset":0,"bufferView":26},{"type":"SCALAR","componentType":5123,"count":21312,"normalized":false,"byteOffset":101544,"bufferView":4},{"type":"VEC3","componentType":5126,"count":8772,"max":[0.6179999709129333,0.9620993137359619,0.11900000274181366],"min":[-0.6349999904632568,-0.9620827436447144,-0.11900000274181366],"normalized":false,"byteOffset":0,"bufferView":27},{"type":"VEC3","componentType":5126,"count":8772,"normalized":false,"byteOffset":0,"bufferView":28},{"type":"VEC2","componentType":5126,"count":8772,"normalized":false,"byteOffset":0,"bufferView":29},{"type":"SCALAR","componentType":5123,"count":49152,"normalized":false,"byteOffset":144168,"bufferView":4},{"type":"VEC3","componentType":5126,"count":8,"max":[0.6179999709129333,0.9620000123977661,0.11900000274181366],"min":[-0.6349999904632568,-0.9620000123977661,-0.11900000274181366],"normalized":false,"byteOffset":0,"bufferView":30},{"type":"VEC3","componentType":5126,"count":8,"normalized":false,"byteOffset":0,"bufferView":31},{"type":"VEC2","componentType":5126,"count":8,"normalized":false,"byteOffset":0,"bufferView":32},{"type":"SCALAR","componentType":5123,"count":12,"normalized":false,"byteOffset":242472,"bufferView":4},{"type":"VEC3","componentType":5126,"count":64,"max":[-0.6503149271011353,-0.5335999727249146,0.08479999750852585],"min":[-0.6531000137329102,-0.5356000065803528,-0.08479999750852585],"normalized":false,"byteOffset":0,"bufferView":33},{"type":"VEC3","componentType":5126,"count":64,"normalized":false,"byteOffset":0,"bufferView":34},{"type":"VEC2","componentType":5126,"count":64,"normalized":false,"byteOffset":0,"bufferView":35},{"type":"SCALAR","componentType":5123,"count":96,"normalized":false,"byteOffset":242496,"bufferView":4},{"type":"VEC3","componentType":5126,"count":64,"max":[-0.6503149271011353,0.4564000070095062,0.08479999750852585],"min":[-0.6531000137329102,0.4544000029563904,-0.08479999750852585],"normalized":false,"byteOffset":0,"bufferView":36},{"type":"VEC3","componentType":5126,"count":64,"normalized":false,"byteOffset":0,"bufferView":37},{"type":"VEC2","componentType":5126,"count":64,"normalized":false,"byteOffset":0,"bufferView":38},{"type":"VEC3","componentType":5126,"count":1316,"max":[0.644758939743042,0.9897821545600891,0.0035143743734806776],"min":[-0.644758939743042,-0.9897821545600891,-0.0014443631516769528],"normalized":false,"byteOffset":0,"bufferView":39},{"type":"VEC3","componentType":5126,"count":1316,"normalized":false,"byteOffset":0,"bufferView":40},{"type":"VEC2","componentType":5126,"count":1316,"normalized":false,"byteOffset":0,"bufferView":41},{"type":"VEC2","componentType":5126,"count":1316,"normalized":false,"byteOffset":0,"bufferView":42},{"type":"VEC2","componentType":5126,"count":1316,"normalized":false,"byteOffset":0,"bufferView":43},{"type":"VEC2","componentType":5126,"count":1316,"normalized":false,"byteOffset":0,"bufferView":44},{"type":"SCALAR","componentType":5123,"count":6600,"normalized":false,"byteOffset":242688,"bufferView":4},{"type":"VEC3","componentType":5126,"count":1204,"max":[0.644758939743042,0.9897821545600891,0.0011498276144266129],"min":[-0.644758939743042,-0.9897821545600891,-0.0035143746063113213],"normalized":false,"byteOffset":0,"bufferView":45},{"type":"VEC3","componentType":5126,"count":1204,"normalized":false,"byteOffset":0,"bufferView":46},{"type":"VEC2","componentType":5126,"count":1204,"normalized":false,"byteOffset":0,"bufferView":47},{"type":"VEC2","componentType":5126,"count":1204,"normalized":false,"byteOffset":0,"bufferView":48},{"type":"VEC2","componentType":5126,"count":1204,"normalized":false,"byteOffset":0,"bufferView":49},{"type":"VEC2","componentType":5126,"count":1204,"normalized":false,"byteOffset":0,"bufferView":50},{"type":"SCALAR","componentType":5123,"count":5916,"normalized":false,"byteOffset":255888,"bufferView":4},{"type":"VEC3","componentType":5126,"count":2178,"max":[-0.6370200514793396,0.9900000095367432,0.13249999284744263],"min":[-0.6510000228881836,-0.9900000095367432,-0.13249999284744263],"normalized":false,"byteOffset":0,"bufferView":51},{"type":"VEC3","componentType":5126,"count":2178,"normalized":false,"byteOffset":0,"bufferView":52},{"type":"VEC2","componentType":5126,"count":2178,"normalized":false,"byteOffset":0,"bufferView":53},{"type":"SCALAR","componentType":5123,"count":13056,"normalized":false,"byteOffset":267720,"bufferView":4},{"type":"VEC3","componentType":5126,"count":11839,"max":[-0.6528788805007935,0.8561920523643494,0.013000000268220901],"min":[-0.6532500386238098,0.5298079252243042,-0.013000000268220901],"normalized":false,"byteOffset":0,"bufferView":54},{"type":"VEC3","componentType":5126,"count":11839,"normalized":false,"byteOffset":0,"bufferView":55},{"type":"VEC2","componentType":5126,"count":11839,"normalized":false,"byteOffset":0,"bufferView":56},{"type":"SCALAR","componentType":5123,"count":18156,"normalized":false,"byteOffset":293832,"bufferView":4},{"type":"VEC3","componentType":5126,"count":19059,"max":[-0.6526107788085938,0.3109116554260254,0.02850000001490116],"min":[-0.6532500386238098,-0.3109116554260254,-0.02850000001490116],"normalized":false,"byteOffset":0,"bufferView":57},{"type":"VEC3","componentType":5126,"count":19059,"normalized":false,"byteOffset":0,"bufferView":58},{"type":"VEC2","componentType":5126,"count":19059,"normalized":false,"byteOffset":0,"bufferView":59},{"type":"SCALAR","componentType":5123,"count":29112,"normalized":false,"byteOffset":330144,"bufferView":4},{"type":"VEC3","componentType":5126,"count":1066,"max":[1.215000033378601,0.9580000042915344,0.0035312343388795853],"min":[-0.00002159344330721069,-0.9580000042915344,0],"normalized":false,"byteOffset":0,"bufferView":60},{"type":"VEC3","componentType":5126,"count":1066,"normalized":false,"byteOffset":0,"bufferView":61},{"type":"VEC2","componentType":5126,"count":1066,"normalized":false,"byteOffset":0,"bufferView":62},{"type":"SCALAR","componentType":5123,"count":6384,"normalized":false,"byteOffset":388368,"bufferView":4},{"type":"VEC3","componentType":5126,"count":6578,"max":[0.7253040671348572,-0.08570888638496399,0.004029289819300175],"min":[0.503158450126648,-0.11091972887516022,0.0040136659517884254],"normalized":false,"byteOffset":0,"bufferView":63},{"type":"VEC3","componentType":5126,"count":6578,"normalized":false,"byteOffset":0,"bufferView":64},{"type":"VEC2","componentType":5126,"count":6578,"normalized":false,"byteOffset":0,"bufferView":65},{"type":"SCALAR","componentType":5123,"count":19440,"normalized":false,"byteOffset":401136,"bufferView":4},{"type":"VEC3","componentType":5126,"count":9442,"max":[0.7442783713340759,-0.7057342529296875,0.004029625095427036],"min":[0.48370254039764404,-0.719961404800415,0.004009940195828676],"normalized":false,"byteOffset":0,"bufferView":66},{"type":"VEC3","componentType":5126,"count":9442,"normalized":false,"byteOffset":0,"bufferView":67},{"type":"VEC2","componentType":5126,"count":9442,"normalized":false,"byteOffset":0,"bufferView":68},{"type":"SCALAR","componentType":5123,"count":27840,"normalized":false,"byteOffset":440016,"bufferView":4},{"type":"VEC3","componentType":5126,"count":9884,"max":[0.8433665633201599,0.45971253514289856,0.0040306393057107925],"min":[0.38578689098358154,0.2805948853492737,0.003975200932472944],"normalized":false,"byteOffset":0,"bufferView":69},{"type":"VEC3","componentType":5126,"count":9884,"normalized":false,"byteOffset":0,"bufferView":70},{"type":"VEC2","componentType":5126,"count":9884,"normalized":false,"byteOffset":0,"bufferView":71},{"type":"SCALAR","componentType":5123,"count":29112,"normalized":false,"byteOffset":495696,"bufferView":4}],"bufferViews":[{"buffer":1,"byteOffset":0,"byteLength":15912,"target":34962,"byteStride":12,"extensions":{"EXT_meshopt_compression":{"buffer":0,"byteOffset":0,"byteLength":10208,"mode":"ATTRIBUTES","byteStride":12,"count":1326}}},{"buffer":1,"byteOffset":15912,"byteLength":15912,"target":34962,"byteStride":12,"extensions":{"EXT_meshopt_compression":{"buffer":0,"byteOffset":10208,"byteLength":12482,"mode":"ATTRIBUTES","byteStride":12,"count":1326}}},{"buffer":1,"byteOffset":31824,"byteLength":10608,"target":34962,"byteStride":8,"extensions":{"EXT_meshopt_compression":{"buffer":0,"byteOffset":22692,"byteLength":7449,"mode":"ATTRIBUTES","byteStride":8,"count":1326}}},{"buffer":1,"byteOffset":42432,"byteLength":10608,"target":34962,"byteStride":8,"extensions":{"EXT_meshopt_compression":{"buffer":0,"byteOffset":30144,"byteLength":6134,"mode":"ATTRIBUTES","byteStride":8,"count":1326}}},{"buffer":1,"byteOffset":53040,"byteLength":553920,"target":34963,"extensions":{"EXT_meshopt_compression":{"buffer":0,"byteOffset":36280,"byteLength":273449,"mode":"TRIANGLES","byteStride":2,"count":276960}}},{"buffer":1,"byteOffset":606960,"byteLength":14328,"target":34962,"byteStride":12,"extensions":{"EXT_meshopt_compression":{"buffer":0,"byteOffset":309732,"byteLength":9136,"mode":"ATTRIBUTES","byteStride":12,"count":1194}}},{"buffer":1,"byteOffset":621288,"byteLength":14328,"target":34962,"byteStride":12,"extensions":{"EXT_meshopt_compression":{"buffer":0,"byteOffset":318868,"byteLength":10897,"mode":"ATTRIBUTES","byteStride":12,"count":1194}}},{"buffer":1,"byteOffset":635616,"byteLength":9552,"target":34962,"byteStride":8,"extensions":{"EXT_meshopt_compression":{"buffer":0,"byteOffset":329768,"byteLength":6890,"mode":"ATTRIBUTES","byteStride":8,"count":1194}}},{"buffer":1,"byteOffset":645168,"byteLength":9552,"target":34962,"byteStride":8,"extensions":{"EXT_meshopt_compression":{"buffer":0,"byteOffset":336660,"byteLength":5611,"mode":"ATTRIBUTES","byteStride":8,"count":1194}}},{"buffer":1,"byteOffset":654720,"byteLength":6168,"target":34962,"byteStride":12,"extensions":{"EXT_meshopt_compression":{"buffer":0,"byteOffset":342272,"byteLength":3261,"mode":"ATTRIBUTES","byteStride":12,"count":514}}},{"buffer":1,"byteOffset":660888,"byteLength":6168,"target":34962,"byteStride":12,"extensions":{"EXT_meshopt_compression":{"buffer":0,"byteOffset":345536,"byteLength":141,"mode":"ATTRIBUTES","byteStride":12,"count":514}}},{"buffer":1,"byteOffset":667056,"byteLength":4112,"target":34962,"byteStride":8,"extensions":{"EXT_meshopt_compression":{"buffer":0,"byteOffset":345680,"byteLength":1619,"mode":"ATTRIBUTES","byteStride":8,"count":514}}},{"buffer":1,"byteOffset":671168,"byteLength":108948,"target":34962,"byteStride":12,"extensions":{"EXT_meshopt_compression":{"buffer":0,"byteOffset":347300,"byteLength":46923,"mode":"ATTRIBUTES","byteStride":12,"count":9079}}},{"buffer":1,"byteOffset":780116,"byteLength":108948,"target":34962,"byteStride":12,"extensions":{"EXT_meshopt_compression":{"buffer":0,"byteOffset":394224,"byteLength":1737,"mode":"ATTRIBUTES","byteStride":12,"count":9079}}},{"buffer":1,"byteOffset":889064,"byteLength":72632,"target":34962,"byteStride":8,"extensions":{"EXT_meshopt_compression":{"buffer":0,"byteOffset":395964,"byteLength":26663,"mode":"ATTRIBUTES","byteStride":8,"count":9079}}},{"buffer":1,"byteOffset":961696,"byteLength":7740,"target":34962,"byteStride":12,"extensions":{"EXT_meshopt_compression":{"buffer":0,"byteOffset":422628,"byteLength":3963,"mode":"ATTRIBUTES","byteStride":12,"count":645}}},{"buffer":1,"byteOffset":969436,"byteLength":7740,"target":34962,"byteStride":12,"extensions":{"EXT_meshopt_compression":{"buffer":0,"byteOffset":426592,"byteLength":165,"mode":"ATTRIBUTES","byteStride":12,"count":645}}},{"buffer":1,"byteOffset":977176,"byteLength":5160,"target":34962,"byteStride":8,"extensions":{"EXT_meshopt_compression":{"buffer":0,"byteOffset":426760,"byteLength":2010,"mode":"ATTRIBUTES","byteStride":8,"count":645}}},{"buffer":1,"byteOffset":982336,"byteLength":10536,"target":34962,"byteStride":12,"extensions":{"EXT_meshopt_compression":{"buffer":0,"byteOffset":428772,"byteLength":5463,"mode":"ATTRIBUTES","byteStride":12,"count":878}}},{"buffer":1,"byteOffset":992872,"byteLength":10536,"target":34962,"byteStride":12,"extensions":{"EXT_meshopt_compression":{"buffer":0,"byteOffset":434236,"byteLength":201,"mode":"ATTRIBUTES","byteStride":12,"count":878}}},{"buffer":1,"byteOffset":1003408,"byteLength":7024,"target":34962,"byteStride":8,"extensions":{"EXT_meshopt_compression":{"buffer":0,"byteOffset":434440,"byteLength":2691,"mode":"ATTRIBUTES","byteStride":8,"count":878}}},{"buffer":1,"byteOffset":1010432,"byteLength":22416,"target":34962,"byteStride":12,"extensions":{"EXT_meshopt_compression":{"buffer":0,"byteOffset":437132,"byteLength":11081,"mode":"ATTRIBUTES","byteStride":12,"count":1868}}},{"buffer":1,"byteOffset":1032848,"byteLength":22416,"target":34962,"byteStride":12,"extensions":{"EXT_meshopt_compression":{"buffer":0,"byteOffset":448216,"byteLength":393,"mode":"ATTRIBUTES","byteStride":12,"count":1868}}},{"buffer":1,"byteOffset":1055264,"byteLength":14944,"target":34962,"byteStride":8,"extensions":{"EXT_meshopt_compression":{"buffer":0,"byteOffset":448612,"byteLength":5525,"mode":"ATTRIBUTES","byteStride":8,"count":1868}}},{"buffer":1,"byteOffset":1070208,"byteLength":165660,"target":34962,"byteStride":12,"extensions":{"EXT_meshopt_compression":{"buffer":0,"byteOffset":454140,"byteLength":62894,"mode":"ATTRIBUTES","byteStride":12,"count":13805}}},{"buffer":1,"byteOffset":1235868,"byteLength":165660,"target":34962,"byteStride":12,"extensions":{"EXT_meshopt_compression":{"buffer":0,"byteOffset":517036,"byteLength":98419,"mode":"ATTRIBUTES","byteStride":12,"count":13805}}},{"buffer":1,"byteOffset":1401528,"byteLength":110440,"target":34962,"byteStride":8,"extensions":{"EXT_meshopt_compression":{"buffer":0,"byteOffset":615456,"byteLength":34575,"mode":"ATTRIBUTES","byteStride":8,"count":13805}}},{"buffer":1,"byteOffset":1511968,"byteLength":105264,"target":34962,"byteStride":12,"extensions":{"EXT_meshopt_compression":{"buffer":0,"byteOffset":650032,"byteLength":42082,"mode":"ATTRIBUTES","byteStride":12,"count":8772}}},{"buffer":1,"byteOffset":1617232,"byteLength":105264,"target":34962,"byteStride":12,"extensions":{"EXT_meshopt_compression":{"buffer":0,"byteOffset":692116,"byteLength":10472,"mode":"ATTRIBUTES","byteStride":12,"count":8772}}},{"buffer":1,"byteOffset":1722496,"byteLength":70176,"target":34962,"byteStride":8,"extensions":{"EXT_meshopt_compression":{"buffer":0,"byteOffset":702588,"byteLength":35084,"mode":"ATTRIBUTES","byteStride":8,"count":8772}}},{"buffer":1,"byteOffset":1792672,"byteLength":96,"target":34962,"byteStride":12,"extensions":{"EXT_meshopt_compression":{"buffer":0,"byteOffset":737672,"byteLength":89,"mode":"ATTRIBUTES","byteStride":12,"count":8}}},{"buffer":1,"byteOffset":1792768,"byteLength":96,"target":34962,"byteStride":12,"extensions":{"EXT_meshopt_compression":{"buffer":0,"byteOffset":737764,"byteLength":50,"mode":"ATTRIBUTES","byteStride":12,"count":8}}},{"buffer":1,"byteOffset":1792864,"byteLength":64,"target":34962,"byteStride":8,"extensions":{"EXT_meshopt_compression":{"buffer":0,"byteOffset":737816,"byteLength":71,"mode":"ATTRIBUTES","byteStride":8,"count":8}}},{"buffer":1,"byteOffset":1792928,"byteLength":768,"target":34962,"byteStride":12,"extensions":{"EXT_meshopt_compression":{"buffer":0,"byteOffset":737888,"byteLength":324,"mode":"ATTRIBUTES","byteStride":12,"count":64}}},{"buffer":1,"byteOffset":1793696,"byteLength":768,"target":34962,"byteStride":12,"extensions":{"EXT_meshopt_compression":{"buffer":0,"byteOffset":738212,"byteLength":334,"mode":"ATTRIBUTES","byteStride":12,"count":64}}},{"buffer":1,"byteOffset":1794464,"byteLength":512,"target":34962,"byteStride":8,"extensions":{"EXT_meshopt_compression":{"buffer":0,"byteOffset":738548,"byteLength":182,"mode":"ATTRIBUTES","byteStride":8,"count":64}}},{"buffer":1,"byteOffset":1794976,"byteLength":768,"target":34962,"byteStride":12,"extensions":{"EXT_meshopt_compression":{"buffer":0,"byteOffset":738732,"byteLength":324,"mode":"ATTRIBUTES","byteStride":12,"count":64}}},{"buffer":1,"byteOffset":1795744,"byteLength":768,"target":34962,"byteStride":12,"extensions":{"EXT_meshopt_compression":{"buffer":0,"byteOffset":739056,"byteLength":334,"mode":"ATTRIBUTES","byteStride":12,"count":64}}},{"buffer":1,"byteOffset":1796512,"byteLength":512,"target":34962,"byteStride":8,"extensions":{"EXT_meshopt_compression":{"buffer":0,"byteOffset":739392,"byteLength":186,"mode":"ATTRIBUTES","byteStride":8,"count":64}}},{"buffer":1,"byteOffset":1797024,"byteLength":15792,"target":34962,"byteStride":12,"extensions":{"EXT_meshopt_compression":{"buffer":0,"byteOffset":739580,"byteLength":10385,"mode":"ATTRIBUTES","byteStride":12,"count":1316}}},{"buffer":1,"byteOffset":1812816,"byteLength":15792,"target":34962,"byteStride":12,"extensions":{"EXT_meshopt_compression":{"buffer":0,"byteOffset":749968,"byteLength":12326,"mode":"ATTRIBUTES","byteStride":12,"count":1316}}},{"buffer":1,"byteOffset":1828608,"byteLength":10528,"target":34962,"byteStride":8,"extensions":{"EXT_meshopt_compression":{"buffer":0,"byteOffset":762296,"byteLength":7512,"mode":"ATTRIBUTES","byteStride":8,"count":1316}}},{"buffer":1,"byteOffset":1839136,"byteLength":10528,"target":34962,"byteStride":8,"extensions":{"EXT_meshopt_compression":{"buffer":0,"byteOffset":769808,"byteLength":6920,"mode":"ATTRIBUTES","byteStride":8,"count":1316}}},{"buffer":1,"byteOffset":1849664,"byteLength":10528,"target":34962,"byteStride":8,"extensions":{"EXT_meshopt_compression":{"buffer":0,"byteOffset":776728,"byteLength":6754,"mode":"ATTRIBUTES","byteStride":8,"count":1316}}},{"buffer":1,"byteOffset":1860192,"byteLength":10528,"target":34962,"byteStride":8,"extensions":{"EXT_meshopt_compression":{"buffer":0,"byteOffset":783484,"byteLength":6091,"mode":"ATTRIBUTES","byteStride":8,"count":1316}}},{"buffer":1,"byteOffset":1870720,"byteLength":14448,"target":34962,"byteStride":12,"extensions":{"EXT_meshopt_compression":{"buffer":0,"byteOffset":789576,"byteLength":9253,"mode":"ATTRIBUTES","byteStride":12,"count":1204}}},{"buffer":1,"byteOffset":1885168,"byteLength":14448,"target":34962,"byteStride":12,"extensions":{"EXT_meshopt_compression":{"buffer":0,"byteOffset":798832,"byteLength":10912,"mode":"ATTRIBUTES","byteStride":12,"count":1204}}},{"buffer":1,"byteOffset":1899616,"byteLength":9632,"target":34962,"byteStride":8,"extensions":{"EXT_meshopt_compression":{"buffer":0,"byteOffset":809744,"byteLength":6862,"mode":"ATTRIBUTES","byteStride":8,"count":1204}}},{"buffer":1,"byteOffset":1909248,"byteLength":9632,"target":34962,"byteStride":8,"extensions":{"EXT_meshopt_compression":{"buffer":0,"byteOffset":816608,"byteLength":6442,"mode":"ATTRIBUTES","byteStride":8,"count":1204}}},{"buffer":1,"byteOffset":1918880,"byteLength":9632,"target":34962,"byteStride":8,"extensions":{"EXT_meshopt_compression":{"buffer":0,"byteOffset":823052,"byteLength":6312,"mode":"ATTRIBUTES","byteStride":8,"count":1204}}},{"buffer":1,"byteOffset":1928512,"byteLength":9632,"target":34962,"byteStride":8,"extensions":{"EXT_meshopt_compression":{"buffer":0,"byteOffset":829364,"byteLength":5639,"mode":"ATTRIBUTES","byteStride":8,"count":1204}}},{"buffer":1,"byteOffset":1938144,"byteLength":26136,"target":34962,"byteStride":12,"extensions":{"EXT_meshopt_compression":{"buffer":0,"byteOffset":835004,"byteLength":13582,"mode":"ATTRIBUTES","byteStride":12,"count":2178}}},{"buffer":1,"byteOffset":1964280,"byteLength":26136,"target":34962,"byteStride":12,"extensions":{"EXT_meshopt_compression":{"buffer":0,"byteOffset":848588,"byteLength":13189,"mode":"ATTRIBUTES","byteStride":12,"count":2178}}},{"buffer":1,"byteOffset":1990416,"byteLength":17424,"target":34962,"byteStride":8,"extensions":{"EXT_meshopt_compression":{"buffer":0,"byteOffset":861780,"byteLength":6840,"mode":"ATTRIBUTES","byteStride":8,"count":2178}}},{"buffer":1,"byteOffset":2007840,"byteLength":142068,"target":34962,"byteStride":12,"extensions":{"EXT_meshopt_compression":{"buffer":0,"byteOffset":868620,"byteLength":53424,"mode":"ATTRIBUTES","byteStride":12,"count":11839}}},{"buffer":1,"byteOffset":2149908,"byteLength":142068,"target":34962,"byteStride":12,"extensions":{"EXT_meshopt_compression":{"buffer":0,"byteOffset":922044,"byteLength":85441,"mode":"ATTRIBUTES","byteStride":12,"count":11839}}},{"buffer":1,"byteOffset":2291976,"byteLength":94712,"target":34962,"byteStride":8,"extensions":{"EXT_meshopt_compression":{"buffer":0,"byteOffset":1007488,"byteLength":29617,"mode":"ATTRIBUTES","byteStride":8,"count":11839}}},{"buffer":1,"byteOffset":2386688,"byteLength":228708,"target":34962,"byteStride":12,"extensions":{"EXT_meshopt_compression":{"buffer":0,"byteOffset":1037108,"byteLength":91777,"mode":"ATTRIBUTES","byteStride":12,"count":19059}}},{"buffer":1,"byteOffset":2615396,"byteLength":228708,"target":34962,"byteStride":12,"extensions":{"EXT_meshopt_compression":{"buffer":0,"byteOffset":1128888,"byteLength":140254,"mode":"ATTRIBUTES","byteStride":12,"count":19059}}},{"buffer":1,"byteOffset":2844104,"byteLength":152472,"target":34962,"byteStride":8,"extensions":{"EXT_meshopt_compression":{"buffer":0,"byteOffset":1269144,"byteLength":46456,"mode":"ATTRIBUTES","byteStride":8,"count":19059}}},{"buffer":1,"byteOffset":2996576,"byteLength":12792,"target":34962,"byteStride":12,"extensions":{"EXT_meshopt_compression":{"buffer":0,"byteOffset":1315600,"byteLength":6739,"mode":"ATTRIBUTES","byteStride":12,"count":1066}}},{"buffer":1,"byteOffset":3009368,"byteLength":12792,"target":34962,"byteStride":12,"extensions":{"EXT_meshopt_compression":{"buffer":0,"byteOffset":1322340,"byteLength":4149,"mode":"ATTRIBUTES","byteStride":12,"count":1066}}},{"buffer":1,"byteOffset":3022160,"byteLength":8528,"target":34962,"byteStride":8,"extensions":{"EXT_meshopt_compression":{"buffer":0,"byteOffset":1326492,"byteLength":3739,"mode":"ATTRIBUTES","byteStride":8,"count":1066}}},{"buffer":1,"byteOffset":3030688,"byteLength":78936,"target":34962,"byteStride":12,"extensions":{"EXT_meshopt_compression":{"buffer":0,"byteOffset":1330232,"byteLength":34464,"mode":"ATTRIBUTES","byteStride":12,"count":6578}}},{"buffer":1,"byteOffset":3109624,"byteLength":78936,"target":34962,"byteStride":12,"extensions":{"EXT_meshopt_compression":{"buffer":0,"byteOffset":1364696,"byteLength":7627,"mode":"ATTRIBUTES","byteStride":12,"count":6578}}},{"buffer":1,"byteOffset":3188560,"byteLength":52624,"target":34962,"byteStride":8,"extensions":{"EXT_meshopt_compression":{"buffer":0,"byteOffset":1372324,"byteLength":23522,"mode":"ATTRIBUTES","byteStride":8,"count":6578}}},{"buffer":1,"byteOffset":3241184,"byteLength":113304,"target":34962,"byteStride":12,"extensions":{"EXT_meshopt_compression":{"buffer":0,"byteOffset":1395848,"byteLength":46961,"mode":"ATTRIBUTES","byteStride":12,"count":9442}}},{"buffer":1,"byteOffset":3354488,"byteLength":113304,"target":34962,"byteStride":12,"extensions":{"EXT_meshopt_compression":{"buffer":0,"byteOffset":1442812,"byteLength":3991,"mode":"ATTRIBUTES","byteStride":12,"count":9442}}},{"buffer":1,"byteOffset":3467792,"byteLength":75536,"target":34962,"byteStride":8,"extensions":{"EXT_meshopt_compression":{"buffer":0,"byteOffset":1446804,"byteLength":33117,"mode":"ATTRIBUTES","byteStride":8,"count":9442}}},{"buffer":1,"byteOffset":3543328,"byteLength":118608,"target":34962,"byteStride":12,"extensions":{"EXT_meshopt_compression":{"buffer":0,"byteOffset":1479924,"byteLength":52909,"mode":"ATTRIBUTES","byteStride":12,"count":9884}}},{"buffer":1,"byteOffset":3661936,"byteLength":118608,"target":34962,"byteStride":12,"extensions":{"EXT_meshopt_compression":{"buffer":0,"byteOffset":1532836,"byteLength":18482,"mode":"ATTRIBUTES","byteStride":12,"count":9884}}},{"buffer":1,"byteOffset":3780544,"byteLength":79072,"target":34962,"byteStride":8,"extensions":{"EXT_meshopt_compression":{"buffer":0,"byteOffset":1551320,"byteLength":34331,"mode":"ATTRIBUTES","byteStride":8,"count":9884}}}],"samplers":[{"magFilter":9729,"minFilter":9987,"wrapS":10497,"wrapT":10497},{"magFilter":9729,"minFilter":9987,"wrapS":33071,"wrapT":33071}],"textures":[{"source":1,"sampler":0},{"sampler":0,"extensions":{"EXT_texture_webp":{"source":0}}},{"sampler":0,"extensions":{"EXT_texture_webp":{"source":2}}},{"sampler":0,"extensions":{"EXT_texture_webp":{"source":4}}},{"sampler":0,"extensions":{"EXT_texture_webp":{"source":3}}},{"source":7,"sampler":1},{"sampler":0,"extensions":{"EXT_texture_webp":{"source":6}}},{"sampler":0,"extensions":{"EXT_texture_webp":{"source":5}}}],"images":[{"name":"Paper001_2K-JPG_NormalGL","mimeType":"image/webp","uri":"shared/a490f2254a54e6ac01465d82.webp"},{"name":"Paper001_2K-JPG_Color","mimeType":"image/jpeg","uri":"shared/1ec1da7815c3e53e02f7f6f4.jpg"},{"name":"Paper001_2K-JPG_Roughness","mimeType":"image/webp","uri":"shared/98c3a72e3346f80ad454feb3.webp"},{"name":"compressed-paper-normal","mimeType":"image/webp","uri":"shared/c65a4a9bdd0dce53b8ec9861.webp"},{"name":"compressed-paper-color","mimeType":"image/webp","uri":"shared/e933106c126139066215af87.webp"},{"name":"origin-of-species_print_orm","mimeType":"image/webp","uri":"shared/9e4d70c66d6d21f0ae0f4fd2.webp"},{"name":"origin-of-species_print_normal","mimeType":"image/webp","uri":"shared/61676d3e9af8c007b2476fc4.webp"},{"name":"edition-origin-of-species","mimeType":"image/jpeg","uri":"shared/4e22d1dbd0e205be60b00d15.jpg"}],"buffers":[{"uri":"shared/aed18e66255489351d160c4f.bin","byteLength":1585652},{"byteLength":3859616,"extensions":{"EXT_meshopt_compression":{"fallback":true}}}],"materials":[{"name":"origin-of-species case material.002","doubleSided":true,"pbrMetallicRoughness":{"baseColorFactor":[0.002124688820913434,0.009721217676997185,0.016807375475764275,1],"roughnessFactor":0.5799999833106995,"metallicFactor":0},"extensions":{"KHR_materials_clearcoat":{"clearcoatFactor":0.05999999865889549,"clearcoatRoughnessFactor":0}}},{"name":"MAT_Uncoated_Paper_Fibre","doubleSided":true,"pbrMetallicRoughness":{"metallicFactor":0,"baseColorTexture":{"index":0,"texCoord":1},"metallicRoughnessTexture":{"index":2,"texCoord":1}},"normalTexture":{"index":1,"texCoord":1,"scale":0.07000000029802322}},{"name":"MAT_origin-of-species_BackInk","doubleSided":true,"pbrMetallicRoughness":{"baseColorFactor":[0.7200000286102295,0.6800000071525574,0.5899999737739563,1],"roughnessFactor":0.7200000286102295,"metallicFactor":0}},{"name":"MAT_origin-of-species_Stamped_Ink.002","doubleSided":true,"pbrMetallicRoughness":{"baseColorFactor":[0.7200000286102295,0.6800000071525574,0.5899999737739563,1],"roughnessFactor":0.3400000035762787,"metallicFactor":0},"extensions":{"KHR_materials_clearcoat":{"clearcoatFactor":0.44999998807907104,"clearcoatRoughnessFactor":0.20000000298023224}}},{"name":"MAT_origin-of-species_Stamped_Ink.003","doubleSided":true,"pbrMetallicRoughness":{"baseColorFactor":[0.9130986332893372,0.8549926280975342,0.7083757519721985,1],"roughnessFactor":0.3400000035762787,"metallicFactor":0},"extensions":{"KHR_materials_clearcoat":{"clearcoatFactor":0.44999998807907104,"clearcoatRoughnessFactor":0.20000000298023224}}},{"name":"Compressed paper cut surface","doubleSided":true,"pbrMetallicRoughness":{"roughnessFactor":0.8999999761581421,"metallicFactor":0,"baseColorTexture":{"index":3}},"normalTexture":{"index":4}},{"name":"Compressed ivory stock 2","doubleSided":true,"pbrMetallicRoughness":{"baseColorFactor":[0.7279999852180481,0.7129999995231628,0.656000018119812,1],"roughnessFactor":0.8600000143051147,"metallicFactor":0}},{"name":"MAT_origin-of-species_Registered_Print.001","extras":{"surface_finish":"Registered print, selective varnish"},"doubleSided":true,"pbrMetallicRoughness":{"baseColorTexture":{"index":5,"texCoord":1},"metallicRoughnessTexture":{"index":7,"texCoord":1}},"normalTexture":{"index":6,"texCoord":1},"extensions":{"KHR_materials_clearcoat":{"clearcoatFactor":1,"clearcoatRoughnessFactor":0.23999999463558197,"clearcoatTexture":{"index":7,"texCoord":1}}}},{"name":"MAT_Uncoated_Paper_Fibre","doubleSided":true,"pbrMetallicRoughness":{"metallicFactor":0,"baseColorTexture":{"index":0,"texCoord":3},"metallicRoughnessTexture":{"index":2,"texCoord":3}},"normalTexture":{"index":1,"texCoord":3,"scale":0.07000000029802322}},{"name":"MAT_Uncoated_Paper_Fibre","doubleSided":true,"pbrMetallicRoughness":{"metallicFactor":0,"baseColorTexture":{"index":0},"metallicRoughnessTexture":{"index":2}},"normalTexture":{"index":1,"scale":0.07000000029802322}},{"name":"origin-of-species printed ink.002","doubleSided":true,"pbrMetallicRoughness":{"baseColorFactor":[0.040915198624134064,0.03310476616024971,0.019382361322641373,1],"roughnessFactor":0.8999999761581421,"metallicFactor":0}}],"meshes":[{"name":"Pressed case joint Back board.025","primitives":[{"attributes":{"POSITION":0,"NORMAL":1,"TEXCOORD_0":2,"TEXCOORD_1":3},"mode":4,"material":0,"indices":4},{"attributes":{"POSITION":5,"NORMAL":6,"TEXCOORD_0":7,"TEXCOORD_1":8},"mode":4,"material":1,"indices":9}]},{"name":"Back collection.001","primitives":[{"attributes":{"POSITION":10,"NORMAL":11,"TEXCOORD_0":12},"mode":4,"material":2,"indices":13}]},{"name":"Back description.001","primitives":[{"attributes":{"POSITION":14,"NORMAL":15,"TEXCOORD_0":16},"mode":4,"material":2,"indices":17}]},{"name":"Back edition.001","primitives":[{"attributes":{"POSITION":18,"NORMAL":19,"TEXCOORD_0":20},"mode":4,"material":3,"indices":21}]},{"name":"Back ISBN.001","primitives":[{"attributes":{"POSITION":22,"NORMAL":23,"TEXCOORD_0":24},"mode":4,"material":2,"indices":25}]},{"name":"Back title.001","primitives":[{"attributes":{"POSITION":26,"NORMAL":27,"TEXCOORD_0":28},"mode":4,"material":3,"indices":29}]},{"name":"Collection mark.017","primitives":[{"attributes":{"POSITION":30,"NORMAL":31,"TEXCOORD_0":32},"mode":4,"material":4,"indices":33}]},{"name":"Continuous compressed cut origin-of-species.003","primitives":[{"attributes":{"POSITION":34,"NORMAL":35,"TEXCOORD_0":36},"mode":4,"material":5,"indices":37},{"attributes":{"POSITION":38,"NORMAL":39,"TEXCOORD_0":40},"mode":4,"material":6,"indices":41}]},{"name":"Curved foil rule.034","primitives":[{"attributes":{"POSITION":42,"NORMAL":43,"TEXCOORD_0":44},"mode":4,"material":4,"indices":45}]},{"name":"Curved foil rule.035","primitives":[{"attributes":{"POSITION":46,"NORMAL":47,"TEXCOORD_0":48},"mode":4,"material":4,"indices":45}]},{"name":"Pressed case joint Wrapped printed cover.001","primitives":[{"attributes":{"POSITION":49,"NORMAL":50,"TEXCOORD_0":51,"TEXCOORD_1":52,"TEXCOORD_2":53,"TEXCOORD_3":54},"mode":4,"material":7,"indices":55},{"attributes":{"POSITION":56,"NORMAL":57,"TEXCOORD_0":58,"TEXCOORD_1":59,"TEXCOORD_2":60,"TEXCOORD_3":61},"mode":4,"material":8,"indices":62}]},{"name":"Rounded cloth spine.025","primitives":[{"attributes":{"POSITION":63,"NORMAL":64,"TEXCOORD_0":65},"mode":4,"material":0,"indices":66}]},{"name":"Spine author.017","primitives":[{"attributes":{"POSITION":67,"NORMAL":68,"TEXCOORD_0":69},"mode":4,"material":4,"indices":70}]},{"name":"Spine title.025","primitives":[{"attributes":{"POSITION":71,"NORMAL":72,"TEXCOORD_0":73},"mode":4,"material":4,"indices":74}]},{"name":"Flexible paper.001","primitives":[{"attributes":{"POSITION":75,"NORMAL":76,"TEXCOORD_0":77},"mode":4,"material":9,"indices":78}]},{"name":"Interior author.025","primitives":[{"attributes":{"POSITION":79,"NORMAL":80,"TEXCOORD_0":81},"mode":4,"material":10,"indices":82}]},{"name":"Interior imprint.025","primitives":[{"attributes":{"POSITION":83,"NORMAL":84,"TEXCOORD_0":85},"mode":4,"material":10,"indices":86}]},{"name":"Interior title.025","primitives":[{"attributes":{"POSITION":87,"NORMAL":88,"TEXCOORD_0":89},"mode":4,"material":10,"indices":90}]}],"nodes":[{"name":"Back board.025","extras":{"edge_refined":true,"unpressed_mesh":"Back board.033","pressed_joint_revision":1,"joint_depth_mm":0.12000000000000001,"joint_center_mm":4.8},"translation":[0,0,-0.13249999284744263],"mesh":0},{"name":"Back collection.001","translation":[0,-0.47519996762275696,-0.13650000095367432],"rotation":[0,-0.7071068286895752,0.7071068286895752,3.090862321641907e-8],"mesh":1},{"name":"Back description.001","translation":[0,0.0494999960064888,-0.13650000095367432],"rotation":[0,-0.7071068286895752,0.7071068286895752,3.090862321641907e-8],"mesh":2},{"name":"Back edition.001","translation":[0,-0.6731999516487122,-0.13650000095367432],"rotation":[0,-0.7071068286895752,0.7071068286895752,3.090862321641907e-8],"mesh":3},{"name":"Back ISBN.001","translation":[0,-0.7721999287605286,-0.13650000095367432],"rotation":[0,-0.7071068286895752,0.7071068286895752,3.090862321641907e-8],"mesh":4},{"name":"Back title.001","translation":[0,0.574199914932251,-0.13650000095367432],"rotation":[0,-0.7071068286895752,0.7071068286895752,3.090862321641907e-8],"mesh":5},{"name":"Collection mark.017","mesh":6},{"name":"Compressed paper signatures origin-of-species.003","extras":{"paper_surface_revision":1,"leaf_count":288,"paper_caliper_mm":0.0826388888888889,"binding_structure":"Glued square back"},"mesh":7},{"name":"Curved foil rule.034","mesh":8},{"name":"Curved foil rule.035","mesh":9},{"name":"Wrapped printed cover.001","extras":{"edge_refined":true,"unpressed_mesh":"Front board.033","pressed_joint_revision":1,"joint_depth_mm":0.12000000000000001,"joint_center_mm":4.8},"translation":[0.6449999213218689,0,0],"mesh":10},{"name":"FrontHinge.025","translation":[-0.6449999809265137,0,0.13249999284744263],"children":[10]},{"name":"Rounded cloth spine.025","mesh":11},{"name":"Spine author.017","mesh":12},{"name":"Spine title.025","mesh":13},{"name":"Curved title leaf.001","mesh":14},{"name":"Interior author.025","mesh":15},{"name":"Interior imprint.025","mesh":16},{"name":"Interior title.025","mesh":17},{"name":"TurningLeaf.001","translation":[-0.6000000238418579,0,0.12150000035762787],"children":[15,16,17,18]},{"name":"Publisher_origin-of-species.001","extras":{"slug":"origin-of-species","dimensions_mm":[129,198,27],"model_design":"Publisher front artwork on a showcase binding; spine and interior are custom reconstructions"},"scale":[0.09953703731298447,0.10000000149011612,0.09969198703765869],"children":[0,1,2,3,4,5,6,7,8,9,11,12,13,14,19]}],"scenes":[{"name":"Library Publisher Editions.001","nodes":[20]}],"scene":0,"extensionsUsed":["EXT_meshopt_compression","EXT_texture_webp","KHR_materials_clearcoat"],"extensionsRequired":["EXT_meshopt_compression","EXT_texture_webp"]}