{"asset":{"generator":"glTF-Transform v4.5.0","version":"2.0"},"accessors":[{"type":"VEC3","componentType":5126,"count":1326,"max":[0.644758939743042,0.9897821545600891,0.0006059613078832626],"min":[-0.644758939743042,-0.9897821545600891,-0.0028377592097967863],"normalized":false,"byteOffset":0,"bufferView":0},{"type":"VEC3","componentType":5126,"count":1326,"normalized":false,"byteOffset":0,"bufferView":1},{"type":"SCALAR","componentType":5123,"count":6624,"normalized":false,"byteOffset":0,"bufferView":2},{"type":"VEC3","componentType":5126,"count":1194,"max":[0.644758939743042,0.9897821545600891,0.0028377592097967863],"min":[-0.644758939743042,-0.9897821545600891,-0.00034997210605069995],"normalized":false,"byteOffset":0,"bufferView":3},{"type":"VEC3","componentType":5126,"count":1194,"normalized":false,"byteOffset":0,"bufferView":4},{"type":"VEC2","componentType":5126,"count":1194,"normalized":false,"byteOffset":0,"bufferView":5},{"type":"SCALAR","componentType":5123,"count":5892,"normalized":false,"byteOffset":13248,"bufferView":2},{"type":"VEC3","componentType":5126,"count":514,"max":[0.1009504571557045,0,0.0053944955579936504],"min":[-0.09995229542255402,0,-0.005732110235840082],"normalized":false,"byteOffset":0,"bufferView":6},{"type":"VEC3","componentType":5126,"count":514,"normalized":false,"byteOffset":0,"bufferView":7},{"type":"SCALAR","componentType":5123,"count":1482,"normalized":false,"byteOffset":25032,"bufferView":2},{"type":"VEC3","componentType":5126,"count":9079,"max":[0.17126786708831787,0,0.07542230188846588],"min":[-0.17168883979320526,0,-0.07163350284099579],"normalized":false,"byteOffset":0,"bufferView":8},{"type":"VEC3","componentType":5126,"count":9079,"normalized":false,"byteOffset":0,"bufferView":9},{"type":"SCALAR","componentType":5123,"count":26799,"normalized":false,"byteOffset":27996,"bufferView":2},{"type":"VEC3","componentType":5126,"count":645,"max":[0.08726311475038528,0,0.00647339504212141],"min":[-0.08681394904851913,0,-0.006878532003611326],"normalized":false,"byteOffset":0,"bufferView":10},{"type":"VEC3","componentType":5126,"count":645,"normalized":false,"byteOffset":0,"bufferView":11},{"type":"SCALAR","componentType":5123,"count":1857,"normalized":false,"byteOffset":81594,"bufferView":2},{"type":"VEC3","componentType":5126,"count":878,"max":[0.07910256832838058,0,0.005671926308423281],"min":[-0.0783858671784401,0,-0.0060187154449522495],"normalized":false,"byteOffset":0,"bufferView":12},{"type":"VEC3","componentType":5126,"count":878,"normalized":false,"byteOffset":0,"bufferView":13},{"type":"SCALAR","componentType":5123,"count":2598,"normalized":false,"byteOffset":85308,"bufferView":2},{"type":"VEC3","componentType":5126,"count":1868,"max":[0.21960753202438354,0,0.023399895057082176],"min":[-0.21954692900180817,0,-0.016855597496032715],"normalized":false,"byteOffset":0,"bufferView":14},{"type":"VEC3","componentType":5126,"count":1868,"normalized":false,"byteOffset":0,"bufferView":15},{"type":"SCALAR","componentType":5123,"count":5520,"normalized":false,"byteOffset":90504,"bufferView":2},{"type":"VEC3","componentType":5126,"count":13805,"max":[-0.6529035568237305,-0.615447461605072,0.010499999858438969],"min":[-0.6532500386238098,-0.8893525004386902,-0.010499999858438969],"normalized":false,"byteOffset":0,"bufferView":16},{"type":"VEC3","componentType":5126,"count":13805,"normalized":false,"byteOffset":0,"bufferView":17},{"type":"SCALAR","componentType":5123,"count":21312,"normalized":false,"byteOffset":101544,"bufferView":2},{"type":"VEC3","componentType":5126,"count":8772,"max":[0.6179999709129333,0.9620993137359619,0.11900000274181366],"min":[-0.6349999904632568,-0.9620827436447144,-0.11900000274181366],"normalized":false,"byteOffset":0,"bufferView":18},{"type":"VEC3","componentType":5126,"count":8772,"normalized":false,"byteOffset":0,"bufferView":19},{"type":"VEC2","componentType":5126,"count":8772,"normalized":false,"byteOffset":0,"bufferView":20},{"type":"SCALAR","componentType":5123,"count":49152,"normalized":false,"byteOffset":144168,"bufferView":2},{"type":"VEC3","componentType":5126,"count":8,"max":[0.6179999709129333,0.9620000123977661,0.11900000274181366],"min":[-0.6349999904632568,-0.9620000123977661,-0.11900000274181366],"normalized":false,"byteOffset":0,"bufferView":21},{"type":"VEC3","componentType":5126,"count":8,"normalized":false,"byteOffset":0,"bufferView":22},{"type":"SCALAR","componentType":5123,"count":12,"normalized":false,"byteOffset":242472,"bufferView":2},{"type":"VEC3","componentType":5126,"count":64,"max":[-0.6503149271011353,-0.5335999727249146,0.08479999750852585],"min":[-0.6531000137329102,-0.5356000065803528,-0.08479999750852585],"normalized":false,"byteOffset":0,"bufferView":23},{"type":"VEC3","componentType":5126,"count":64,"normalized":false,"byteOffset":0,"bufferView":24},{"type":"SCALAR","componentType":5123,"count":96,"normalized":false,"byteOffset":242496,"bufferView":2},{"type":"VEC3","componentType":5126,"count":64,"max":[-0.6503149271011353,0.4564000070095062,0.08479999750852585],"min":[-0.6531000137329102,0.4544000029563904,-0.08479999750852585],"normalized":false,"byteOffset":0,"bufferView":25},{"type":"VEC3","componentType":5126,"count":64,"normalized":false,"byteOffset":0,"bufferView":26},{"type":"VEC3","componentType":5126,"count":1316,"max":[0.644758939743042,0.9897821545600891,0.0035143743734806776],"min":[-0.644758939743042,-0.9897821545600891,-0.0014443631516769528],"normalized":false,"byteOffset":0,"bufferView":27},{"type":"VEC3","componentType":5126,"count":1316,"normalized":false,"byteOffset":0,"bufferView":28},{"type":"VEC2","componentType":5126,"count":1316,"normalized":false,"byteOffset":0,"bufferView":29},{"type":"SCALAR","componentType":5123,"count":6600,"normalized":false,"byteOffset":242688,"bufferView":2},{"type":"VEC3","componentType":5126,"count":1204,"max":[0.644758939743042,0.9897821545600891,0.0011498276144266129],"min":[-0.644758939743042,-0.9897821545600891,-0.0035143746063113213],"normalized":false,"byteOffset":0,"bufferView":30},{"type":"VEC3","componentType":5126,"count":1204,"normalized":false,"byteOffset":0,"bufferView":31},{"type":"VEC2","componentType":5126,"count":1204,"normalized":false,"byteOffset":0,"bufferView":32},{"type":"SCALAR","componentType":5123,"count":5916,"normalized":false,"byteOffset":255888,"bufferView":2},{"type":"VEC3","componentType":5126,"count":2178,"max":[-0.6370200514793396,0.9900000095367432,0.13249999284744263],"min":[-0.6510000228881836,-0.9900000095367432,-0.13249999284744263],"normalized":false,"byteOffset":0,"bufferView":33},{"type":"VEC3","componentType":5126,"count":2178,"normalized":false,"byteOffset":0,"bufferView":34},{"type":"SCALAR","componentType":5123,"count":13056,"normalized":false,"byteOffset":267720,"bufferView":2},{"type":"VEC3","componentType":5126,"count":11839,"max":[-0.6528788805007935,0.8561920523643494,0.013000000268220901],"min":[-0.6532500386238098,0.5298079252243042,-0.013000000268220901],"normalized":false,"byteOffset":0,"bufferView":35},{"type":"VEC3","componentType":5126,"count":11839,"normalized":false,"byteOffset":0,"bufferView":36},{"type":"SCALAR","componentType":5123,"count":18156,"normalized":false,"byteOffset":293832,"bufferView":2},{"type":"VEC3","componentType":5126,"count":19059,"max":[-0.6526107788085938,0.3109116554260254,0.02850000001490116],"min":[-0.6532500386238098,-0.3109116554260254,-0.02850000001490116],"normalized":false,"byteOffset":0,"bufferView":37},{"type":"VEC3","componentType":5126,"count":19059,"normalized":false,"byteOffset":0,"bufferView":38},{"type":"SCALAR","componentType":5123,"count":29112,"normalized":false,"byteOffset":330144,"bufferView":2}],"bufferViews":[{"buffer":1,"byteOffset":0,"byteLength":15912,"target":34962,"byteStride":12,"extensions":{"EXT_meshopt_compression":{"buffer":0,"byteOffset":0,"byteLength":10208,"mode":"ATTRIBUTES","byteStride":12,"count":1326}}},{"buffer":1,"byteOffset":15912,"byteLength":15912,"target":34962,"byteStride":12,"extensions":{"EXT_meshopt_compression":{"buffer":0,"byteOffset":10208,"byteLength":12482,"mode":"ATTRIBUTES","byteStride":12,"count":1326}}},{"buffer":1,"byteOffset":31824,"byteLength":388368,"target":34963,"extensions":{"EXT_meshopt_compression":{"buffer":0,"byteOffset":22692,"byteLength":197329,"mode":"TRIANGLES","byteStride":2,"count":194184}}},{"buffer":1,"byteOffset":420192,"byteLength":14328,"target":34962,"byteStride":12,"extensions":{"EXT_meshopt_compression":{"buffer":0,"byteOffset":220024,"byteLength":9136,"mode":"ATTRIBUTES","byteStride":12,"count":1194}}},{"buffer":1,"byteOffset":434520,"byteLength":14328,"target":34962,"byteStride":12,"extensions":{"EXT_meshopt_compression":{"buffer":0,"byteOffset":229160,"byteLength":10897,"mode":"ATTRIBUTES","byteStride":12,"count":1194}}},{"buffer":1,"byteOffset":448848,"byteLength":9552,"target":34962,"byteStride":8,"extensions":{"EXT_meshopt_compression":{"buffer":0,"byteOffset":240060,"byteLength":5611,"mode":"ATTRIBUTES","byteStride":8,"count":1194}}},{"buffer":1,"byteOffset":458400,"byteLength":6168,"target":34962,"byteStride":12,"extensions":{"EXT_meshopt_compression":{"buffer":0,"byteOffset":245672,"byteLength":3261,"mode":"ATTRIBUTES","byteStride":12,"count":514}}},{"buffer":1,"byteOffset":464568,"byteLength":6168,"target":34962,"byteStride":12,"extensions":{"EXT_meshopt_compression":{"buffer":0,"byteOffset":248936,"byteLength":141,"mode":"ATTRIBUTES","byteStride":12,"count":514}}},{"buffer":1,"byteOffset":470736,"byteLength":108948,"target":34962,"byteStride":12,"extensions":{"EXT_meshopt_compression":{"buffer":0,"byteOffset":249080,"byteLength":46923,"mode":"ATTRIBUTES","byteStride":12,"count":9079}}},{"buffer":1,"byteOffset":579684,"byteLength":108948,"target":34962,"byteStride":12,"extensions":{"EXT_meshopt_compression":{"buffer":0,"byteOffset":296004,"byteLength":1737,"mode":"ATTRIBUTES","byteStride":12,"count":9079}}},{"buffer":1,"byteOffset":688632,"byteLength":7740,"target":34962,"byteStride":12,"extensions":{"EXT_meshopt_compression":{"buffer":0,"byteOffset":297744,"byteLength":3963,"mode":"ATTRIBUTES","byteStride":12,"count":645}}},{"buffer":1,"byteOffset":696372,"byteLength":7740,"target":34962,"byteStride":12,"extensions":{"EXT_meshopt_compression":{"buffer":0,"byteOffset":301708,"byteLength":165,"mode":"ATTRIBUTES","byteStride":12,"count":645}}},{"buffer":1,"byteOffset":704112,"byteLength":10536,"target":34962,"byteStride":12,"extensions":{"EXT_meshopt_compression":{"buffer":0,"byteOffset":301876,"byteLength":5463,"mode":"ATTRIBUTES","byteStride":12,"count":878}}},{"buffer":1,"byteOffset":714648,"byteLength":10536,"target":34962,"byteStride":12,"extensions":{"EXT_meshopt_compression":{"buffer":0,"byteOffset":307340,"byteLength":201,"mode":"ATTRIBUTES","byteStride":12,"count":878}}},{"buffer":1,"byteOffset":725184,"byteLength":22416,"target":34962,"byteStride":12,"extensions":{"EXT_meshopt_compression":{"buffer":0,"byteOffset":307544,"byteLength":11081,"mode":"ATTRIBUTES","byteStride":12,"count":1868}}},{"buffer":1,"byteOffset":747600,"byteLength":22416,"target":34962,"byteStride":12,"extensions":{"EXT_meshopt_compression":{"buffer":0,"byteOffset":318628,"byteLength":393,"mode":"ATTRIBUTES","byteStride":12,"count":1868}}},{"buffer":1,"byteOffset":770016,"byteLength":165660,"target":34962,"byteStride":12,"extensions":{"EXT_meshopt_compression":{"buffer":0,"byteOffset":319024,"byteLength":62894,"mode":"ATTRIBUTES","byteStride":12,"count":13805}}},{"buffer":1,"byteOffset":935676,"byteLength":165660,"target":34962,"byteStride":12,"extensions":{"EXT_meshopt_compression":{"buffer":0,"byteOffset":381920,"byteLength":98419,"mode":"ATTRIBUTES","byteStride":12,"count":13805}}},{"buffer":1,"byteOffset":1101336,"byteLength":105264,"target":34962,"byteStride":12,"extensions":{"EXT_meshopt_compression":{"buffer":0,"byteOffset":480340,"byteLength":42082,"mode":"ATTRIBUTES","byteStride":12,"count":8772}}},{"buffer":1,"byteOffset":1206600,"byteLength":105264,"target":34962,"byteStride":12,"extensions":{"EXT_meshopt_compression":{"buffer":0,"byteOffset":522424,"byteLength":10472,"mode":"ATTRIBUTES","byteStride":12,"count":8772}}},{"buffer":1,"byteOffset":1311864,"byteLength":70176,"target":34962,"byteStride":8,"extensions":{"EXT_meshopt_compression":{"buffer":0,"byteOffset":532896,"byteLength":35084,"mode":"ATTRIBUTES","byteStride":8,"count":8772}}},{"buffer":1,"byteOffset":1382040,"byteLength":96,"target":34962,"byteStride":12,"extensions":{"EXT_meshopt_compression":{"buffer":0,"byteOffset":567980,"byteLength":89,"mode":"ATTRIBUTES","byteStride":12,"count":8}}},{"buffer":1,"byteOffset":1382136,"byteLength":96,"target":34962,"byteStride":12,"extensions":{"EXT_meshopt_compression":{"buffer":0,"byteOffset":568072,"byteLength":50,"mode":"ATTRIBUTES","byteStride":12,"count":8}}},{"buffer":1,"byteOffset":1382232,"byteLength":768,"target":34962,"byteStride":12,"extensions":{"EXT_meshopt_compression":{"buffer":0,"byteOffset":568124,"byteLength":324,"mode":"ATTRIBUTES","byteStride":12,"count":64}}},{"buffer":1,"byteOffset":1383000,"byteLength":768,"target":34962,"byteStride":12,"extensions":{"EXT_meshopt_compression":{"buffer":0,"byteOffset":568448,"byteLength":334,"mode":"ATTRIBUTES","byteStride":12,"count":64}}},{"buffer":1,"byteOffset":1383768,"byteLength":768,"target":34962,"byteStride":12,"extensions":{"EXT_meshopt_compression":{"buffer":0,"byteOffset":568784,"byteLength":324,"mode":"ATTRIBUTES","byteStride":12,"count":64}}},{"buffer":1,"byteOffset":1384536,"byteLength":768,"target":34962,"byteStride":12,"extensions":{"EXT_meshopt_compression":{"buffer":0,"byteOffset":569108,"byteLength":334,"mode":"ATTRIBUTES","byteStride":12,"count":64}}},{"buffer":1,"byteOffset":1385304,"byteLength":15792,"target":34962,"byteStride":12,"extensions":{"EXT_meshopt_compression":{"buffer":0,"byteOffset":569444,"byteLength":10385,"mode":"ATTRIBUTES","byteStride":12,"count":1316}}},{"buffer":1,"byteOffset":1401096,"byteLength":15792,"target":34962,"byteStride":12,"extensions":{"EXT_meshopt_compression":{"buffer":0,"byteOffset":579832,"byteLength":12326,"mode":"ATTRIBUTES","byteStride":12,"count":1316}}},{"buffer":1,"byteOffset":1416888,"byteLength":10528,"target":34962,"byteStride":8,"extensions":{"EXT_meshopt_compression":{"buffer":0,"byteOffset":592160,"byteLength":6920,"mode":"ATTRIBUTES","byteStride":8,"count":1316}}},{"buffer":1,"byteOffset":1427416,"byteLength":14448,"target":34962,"byteStride":12,"extensions":{"EXT_meshopt_compression":{"buffer":0,"byteOffset":599080,"byteLength":9253,"mode":"ATTRIBUTES","byteStride":12,"count":1204}}},{"buffer":1,"byteOffset":1441864,"byteLength":14448,"target":34962,"byteStride":12,"extensions":{"EXT_meshopt_compression":{"buffer":0,"byteOffset":608336,"byteLength":10912,"mode":"ATTRIBUTES","byteStride":12,"count":1204}}},{"buffer":1,"byteOffset":1456312,"byteLength":9632,"target":34962,"byteStride":8,"extensions":{"EXT_meshopt_compression":{"buffer":0,"byteOffset":619248,"byteLength":5639,"mode":"ATTRIBUTES","byteStride":8,"count":1204}}},{"buffer":1,"byteOffset":1465944,"byteLength":26136,"target":34962,"byteStride":12,"extensions":{"EXT_meshopt_compression":{"buffer":0,"byteOffset":624888,"byteLength":13582,"mode":"ATTRIBUTES","byteStride":12,"count":2178}}},{"buffer":1,"byteOffset":1492080,"byteLength":26136,"target":34962,"byteStride":12,"extensions":{"EXT_meshopt_compression":{"buffer":0,"byteOffset":638472,"byteLength":13189,"mode":"ATTRIBUTES","byteStride":12,"count":2178}}},{"buffer":1,"byteOffset":1518216,"byteLength":142068,"target":34962,"byteStride":12,"extensions":{"EXT_meshopt_compression":{"buffer":0,"byteOffset":651664,"byteLength":53424,"mode":"ATTRIBUTES","byteStride":12,"count":11839}}},{"buffer":1,"byteOffset":1660284,"byteLength":142068,"target":34962,"byteStride":12,"extensions":{"EXT_meshopt_compression":{"buffer":0,"byteOffset":705088,"byteLength":85441,"mode":"ATTRIBUTES","byteStride":12,"count":11839}}},{"buffer":1,"byteOffset":1802352,"byteLength":228708,"target":34962,"byteStride":12,"extensions":{"EXT_meshopt_compression":{"buffer":0,"byteOffset":790532,"byteLength":91777,"mode":"ATTRIBUTES","byteStride":12,"count":19059}}},{"buffer":1,"byteOffset":2031060,"byteLength":228708,"target":34962,"byteStride":12,"extensions":{"EXT_meshopt_compression":{"buffer":0,"byteOffset":882312,"byteLength":140254,"mode":"ATTRIBUTES","byteStride":12,"count":19059}}}],"samplers":[{"magFilter":9729,"minFilter":9987,"wrapS":10497,"wrapT":10497},{"magFilter":9729,"minFilter":9987,"wrapS":33071,"wrapT":33071}],"textures":[{"sampler":0,"extensions":{"EXT_texture_webp":{"source":1}}},{"sampler":0,"extensions":{"EXT_texture_webp":{"source":0}}},{"sampler":0,"extensions":{"EXT_texture_webp":{"source":2}}},{"sampler":0,"extensions":{"EXT_texture_webp":{"source":4}}},{"sampler":0,"extensions":{"EXT_texture_webp":{"source":3}}},{"sampler":1,"extensions":{"EXT_texture_webp":{"source":7}}},{"sampler":0,"extensions":{"EXT_texture_webp":{"source":6}}},{"sampler":0,"extensions":{"EXT_texture_webp":{"source":5}}}],"images":[{"name":"Paper001_2K-JPG_NormalGL","mimeType":"image/webp","uri":"shared/a4ffc7b7fc49def2917e39f5.webp"},{"name":"Paper001_2K-JPG_Color","mimeType":"image/webp","uri":"shared/75262c983a496cb7fcdc6c19.webp"},{"name":"Paper001_2K-JPG_Roughness","mimeType":"image/webp","uri":"shared/49f61cb86539e805ce6a1ee3.webp"},{"name":"compressed-paper-normal","mimeType":"image/webp","uri":"shared/339c1ac519928878fbaa1237.webp"},{"name":"compressed-paper-color","mimeType":"image/webp","uri":"shared/7701c62282fa7f26c46af450.webp"},{"name":"origin-of-species_print_orm","mimeType":"image/webp","uri":"shared/20eac94f28be6480975265dd.webp"},{"name":"origin-of-species_print_normal","mimeType":"image/webp","uri":"shared/9cc6bbdc4357a10bd195d8e1.webp"},{"name":"edition-origin-of-species","mimeType":"image/webp","uri":"shared/3ab05532f113ec15c8dd4e8e.webp"}],"buffers":[{"uri":"shared/39852b8132722f2ca48c0c5b.bin","byteLength":1022568},{"byteLength":2259768,"extensions":{"EXT_meshopt_compression":{"fallback":true}}}],"materials":[{"name":"origin-of-species case material.002","doubleSided":true,"pbrMetallicRoughness":{"baseColorFactor":[0.002124688820913434,0.009721217676997185,0.016807375475764275,1],"roughnessFactor":0.5799999833106995,"metallicFactor":0},"extensions":{"KHR_materials_clearcoat":{"clearcoatFactor":0.05999999865889549,"clearcoatRoughnessFactor":0}}},{"name":"MAT_Uncoated_Paper_Fibre","doubleSided":true,"pbrMetallicRoughness":{"metallicFactor":0,"baseColorTexture":{"index":0},"metallicRoughnessTexture":{"index":2}},"normalTexture":{"index":1,"scale":0.07000000029802322}},{"name":"MAT_origin-of-species_BackInk","doubleSided":true,"pbrMetallicRoughness":{"baseColorFactor":[0.7200000286102295,0.6800000071525574,0.5899999737739563,1],"roughnessFactor":0.7200000286102295,"metallicFactor":0}},{"name":"MAT_origin-of-species_Stamped_Ink.002","doubleSided":true,"pbrMetallicRoughness":{"baseColorFactor":[0.7200000286102295,0.6800000071525574,0.5899999737739563,1],"roughnessFactor":0.3400000035762787,"metallicFactor":0},"extensions":{"KHR_materials_clearcoat":{"clearcoatFactor":0.44999998807907104,"clearcoatRoughnessFactor":0.20000000298023224}}},{"name":"MAT_origin-of-species_Stamped_Ink.003","doubleSided":true,"pbrMetallicRoughness":{"baseColorFactor":[0.9130986332893372,0.8549926280975342,0.7083757519721985,1],"roughnessFactor":0.3400000035762787,"metallicFactor":0},"extensions":{"KHR_materials_clearcoat":{"clearcoatFactor":0.44999998807907104,"clearcoatRoughnessFactor":0.20000000298023224}}},{"name":"Compressed paper cut surface","doubleSided":true,"pbrMetallicRoughness":{"roughnessFactor":0.8999999761581421,"metallicFactor":0,"baseColorTexture":{"index":3}},"normalTexture":{"index":4}},{"name":"Compressed ivory stock 2","doubleSided":true,"pbrMetallicRoughness":{"baseColorFactor":[0.7279999852180481,0.7129999995231628,0.656000018119812,1],"roughnessFactor":0.8600000143051147,"metallicFactor":0}},{"name":"MAT_origin-of-species_Registered_Print.001","extras":{"surface_finish":"Registered print, selective varnish"},"doubleSided":true,"pbrMetallicRoughness":{"baseColorTexture":{"index":5},"metallicRoughnessTexture":{"index":7}},"normalTexture":{"index":6},"extensions":{"KHR_materials_clearcoat":{"clearcoatFactor":1,"clearcoatRoughnessFactor":0.23999999463558197,"clearcoatTexture":{"index":7}}}},{"name":"MAT_Uncoated_Paper_Fibre","doubleSided":true,"pbrMetallicRoughness":{"metallicFactor":0,"baseColorTexture":{"index":0},"metallicRoughnessTexture":{"index":2}},"normalTexture":{"index":1,"scale":0.07000000029802322}}],"meshes":[{"name":"Pressed case joint Back board.025","primitives":[{"attributes":{"POSITION":0,"NORMAL":1},"mode":4,"material":0,"indices":2},{"attributes":{"POSITION":3,"NORMAL":4,"TEXCOORD_0":5},"mode":4,"material":1,"indices":6}]},{"name":"Back collection.001","primitives":[{"attributes":{"POSITION":7,"NORMAL":8},"mode":4,"material":2,"indices":9}]},{"name":"Back description.001","primitives":[{"attributes":{"POSITION":10,"NORMAL":11},"mode":4,"material":2,"indices":12}]},{"name":"Back edition.001","primitives":[{"attributes":{"POSITION":13,"NORMAL":14},"mode":4,"material":3,"indices":15}]},{"name":"Back ISBN.001","primitives":[{"attributes":{"POSITION":16,"NORMAL":17},"mode":4,"material":2,"indices":18}]},{"name":"Back title.001","primitives":[{"attributes":{"POSITION":19,"NORMAL":20},"mode":4,"material":3,"indices":21}]},{"name":"Collection mark.017","primitives":[{"attributes":{"POSITION":22,"NORMAL":23},"mode":4,"material":4,"indices":24}]},{"name":"Continuous compressed cut origin-of-species.003","primitives":[{"attributes":{"POSITION":25,"NORMAL":26,"TEXCOORD_0":27},"mode":4,"material":5,"indices":28},{"attributes":{"POSITION":29,"NORMAL":30},"mode":4,"material":6,"indices":31}]},{"name":"Curved foil rule.034","primitives":[{"attributes":{"POSITION":32,"NORMAL":33},"mode":4,"material":4,"indices":34}]},{"name":"Curved foil rule.035","primitives":[{"attributes":{"POSITION":35,"NORMAL":36},"mode":4,"material":4,"indices":34}]},{"name":"Pressed case joint Wrapped printed cover.001","primitives":[{"attributes":{"POSITION":37,"NORMAL":38,"TEXCOORD_0":39},"mode":4,"material":7,"indices":40},{"attributes":{"POSITION":41,"NORMAL":42,"TEXCOORD_0":43},"mode":4,"material":8,"indices":44}]},{"name":"Rounded cloth spine.025","primitives":[{"attributes":{"POSITION":45,"NORMAL":46},"mode":4,"material":0,"indices":47}]},{"name":"Spine author.017","primitives":[{"attributes":{"POSITION":48,"NORMAL":49},"mode":4,"material":4,"indices":50}]},{"name":"Spine title.025","primitives":[{"attributes":{"POSITION":51,"NORMAL":52},"mode":4,"material":4,"indices":53}]}],"nodes":[{"name":"Back board.025","extras":{"edge_refined":true,"unpressed_mesh":"Back board.033","pressed_joint_revision":1,"joint_depth_mm":0.12000000000000001,"joint_center_mm":4.8},"translation":[0,0,-0.13249999284744263],"mesh":0},{"name":"Back collection.001","translation":[0,-0.47519996762275696,-0.13650000095367432],"rotation":[0,-0.7071068286895752,0.7071068286895752,3.090862321641907e-8],"mesh":1},{"name":"Back description.001","translation":[0,0.0494999960064888,-0.13650000095367432],"rotation":[0,-0.7071068286895752,0.7071068286895752,3.090862321641907e-8],"mesh":2},{"name":"Back edition.001","translation":[0,-0.6731999516487122,-0.13650000095367432],"rotation":[0,-0.7071068286895752,0.7071068286895752,3.090862321641907e-8],"mesh":3},{"name":"Back ISBN.001","translation":[0,-0.7721999287605286,-0.13650000095367432],"rotation":[0,-0.7071068286895752,0.7071068286895752,3.090862321641907e-8],"mesh":4},{"name":"Back title.001","translation":[0,0.574199914932251,-0.13650000095367432],"rotation":[0,-0.7071068286895752,0.7071068286895752,3.090862321641907e-8],"mesh":5},{"name":"Collection mark.017","mesh":6},{"name":"Compressed paper signatures origin-of-species.003","extras":{"paper_surface_revision":1,"leaf_count":288,"paper_caliper_mm":0.0826388888888889,"binding_structure":"Glued square back"},"mesh":7},{"name":"Curved foil rule.034","mesh":8},{"name":"Curved foil rule.035","mesh":9},{"name":"Wrapped printed cover.001","extras":{"edge_refined":true,"unpressed_mesh":"Front board.033","pressed_joint_revision":1,"joint_depth_mm":0.12000000000000001,"joint_center_mm":4.8},"translation":[0.6449999213218689,0,0],"mesh":10},{"name":"FrontHinge.025","translation":[-0.6449999809265137,0,0.13249999284744263],"children":[10]},{"name":"Rounded cloth spine.025","mesh":11},{"name":"Spine author.017","mesh":12},{"name":"Spine title.025","mesh":13},{"name":"Publisher_origin-of-species.001","extras":{"slug":"origin-of-species","dimensions_mm":[129,198,27],"model_design":"Publisher front artwork on a showcase binding; spine and interior are custom reconstructions"},"scale":[0.09953703731298447,0.10000000149011612,0.09969198703765869],"children":[0,1,2,3,4,5,6,7,8,9,11,12,13,14]}],"scenes":[{"name":"Library Publisher Editions.001","nodes":[15]}],"scene":0,"extensionsUsed":["EXT_meshopt_compression","EXT_texture_webp","KHR_materials_clearcoat"],"extensionsRequired":["EXT_meshopt_compression","EXT_texture_webp"]}