{"asset":{"generator":"glTF-Transform v4.5.0","version":"2.0"},"accessors":[{"type":"VEC3","componentType":5126,"count":1315,"max":[0.8887596726417542,1.2698174715042114,0.0008596252300776541],"min":[-0.8887596726417542,-1.2698174715042114,-0.0028383051976561546],"normalized":false,"byteOffset":0,"bufferView":0},{"type":"VEC3","componentType":5126,"count":1315,"normalized":false,"byteOffset":0,"bufferView":1},{"type":"VEC2","componentType":5126,"count":1315,"normalized":false,"byteOffset":0,"bufferView":2},{"type":"VEC2","componentType":5126,"count":1315,"normalized":false,"byteOffset":0,"bufferView":3},{"type":"SCALAR","componentType":5123,"count":6612,"normalized":false,"byteOffset":0,"bufferView":4},{"type":"VEC3","componentType":5126,"count":1198,"max":[0.8887596726417542,1.2698174715042114,0.0028383051976561546],"min":[-0.8887596726417542,-1.2698174715042114,-0.00034901651088148355],"normalized":false,"byteOffset":0,"bufferView":5},{"type":"VEC3","componentType":5126,"count":1198,"normalized":false,"byteOffset":0,"bufferView":6},{"type":"VEC2","componentType":5126,"count":1198,"normalized":false,"byteOffset":0,"bufferView":7},{"type":"VEC2","componentType":5126,"count":1198,"normalized":false,"byteOffset":0,"bufferView":8},{"type":"SCALAR","componentType":5123,"count":5904,"normalized":false,"byteOffset":13224,"bufferView":4},{"type":"VEC3","componentType":5126,"count":514,"max":[0.1009504571557045,0,0.0053944955579936504],"min":[-0.09995229542255402,0,-0.005732110235840082],"normalized":false,"byteOffset":0,"bufferView":9},{"type":"VEC3","componentType":5126,"count":514,"normalized":false,"byteOffset":0,"bufferView":10},{"type":"VEC2","componentType":5126,"count":514,"normalized":false,"byteOffset":0,"bufferView":11},{"type":"SCALAR","componentType":5123,"count":1482,"normalized":false,"byteOffset":25032,"bufferView":4},{"type":"VEC3","componentType":5126,"count":7836,"max":[0.1579485833644867,0,0.07542230188846588],"min":[-0.15810059010982513,0,-0.07162181288003922],"normalized":false,"byteOffset":0,"bufferView":12},{"type":"VEC3","componentType":5126,"count":7836,"normalized":false,"byteOffset":0,"bufferView":13},{"type":"VEC2","componentType":5126,"count":7836,"normalized":false,"byteOffset":0,"bufferView":14},{"type":"SCALAR","componentType":5123,"count":23178,"normalized":false,"byteOffset":27996,"bufferView":4},{"type":"VEC3","componentType":5126,"count":898,"max":[0.1579156070947647,0,0.00647339504212141],"min":[-0.15744000673294067,0,-0.00688733858987689],"normalized":false,"byteOffset":0,"bufferView":15},{"type":"VEC3","componentType":5126,"count":898,"normalized":false,"byteOffset":0,"bufferView":16},{"type":"VEC2","componentType":5126,"count":898,"normalized":false,"byteOffset":0,"bufferView":17},{"type":"SCALAR","componentType":5123,"count":2580,"normalized":false,"byteOffset":74352,"bufferView":4},{"type":"VEC3","componentType":5126,"count":902,"max":[0.07914110273122787,0,0.005664220545440912],"min":[-0.0783858671784401,0,-0.0060187154449522495],"normalized":false,"byteOffset":0,"bufferView":18},{"type":"VEC3","componentType":5126,"count":902,"normalized":false,"byteOffset":0,"bufferView":19},{"type":"VEC2","componentType":5126,"count":902,"normalized":false,"byteOffset":0,"bufferView":20},{"type":"SCALAR","componentType":5123,"count":2664,"normalized":false,"byteOffset":79512,"bufferView":4},{"type":"VEC3","componentType":5126,"count":839,"max":[0.08259142190217972,0,0.023399895057082176],"min":[-0.08127852529287338,0,-0.016168851405382156],"normalized":false,"byteOffset":0,"bufferView":21},{"type":"VEC3","componentType":5126,"count":839,"normalized":false,"byteOffset":0,"bufferView":22},{"type":"VEC2","componentType":5126,"count":839,"normalized":false,"byteOffset":0,"bufferView":23},{"type":"SCALAR","componentType":5123,"count":2463,"normalized":false,"byteOffset":84840,"bufferView":4},{"type":"VEC3","componentType":5126,"count":24342,"max":[-0.8969319462776184,-0.7493000030517578,0.009021364152431488],"min":[-0.8972499966621399,-1.1811000108718872,-0.009021364152431488],"normalized":false,"byteOffset":0,"bufferView":24},{"type":"VEC3","componentType":5126,"count":24342,"normalized":false,"byteOffset":0,"bufferView":25},{"type":"VEC2","componentType":5126,"count":24342,"normalized":false,"byteOffset":0,"bufferView":26},{"type":"SCALAR","componentType":5123,"count":37620,"normalized":false,"byteOffset":89766,"bufferView":4},{"type":"VEC3","componentType":5126,"count":8772,"max":[0.8619999885559082,1.2420992851257324,0.16899999976158142],"min":[-0.8790000081062317,-1.2420827150344849,-0.16899999976158142],"normalized":false,"byteOffset":0,"bufferView":27},{"type":"VEC3","componentType":5126,"count":8772,"normalized":false,"byteOffset":0,"bufferView":28},{"type":"VEC2","componentType":5126,"count":8772,"normalized":false,"byteOffset":0,"bufferView":29},{"type":"SCALAR","componentType":5123,"count":49152,"normalized":false,"byteOffset":165006,"bufferView":4},{"type":"VEC3","componentType":5126,"count":8,"max":[0.8619999885559082,1.2419999837875366,0.16899999976158142],"min":[-0.8790000081062317,-1.2419999837875366,-0.16899999976158142],"normalized":false,"byteOffset":0,"bufferView":30},{"type":"VEC3","componentType":5126,"count":8,"normalized":false,"byteOffset":0,"bufferView":31},{"type":"VEC2","componentType":5126,"count":8,"normalized":false,"byteOffset":0,"bufferView":32},{"type":"SCALAR","componentType":5123,"count":12,"normalized":false,"byteOffset":263310,"bufferView":4},{"type":"VEC3","componentType":5126,"count":64,"max":[-0.8943149447441101,-0.6848000288009644,0.11680000275373459],"min":[-0.8970999717712402,-0.6868000030517578,-0.11680000275373459],"normalized":false,"byteOffset":0,"bufferView":33},{"type":"VEC3","componentType":5126,"count":64,"normalized":false,"byteOffset":0,"bufferView":34},{"type":"VEC2","componentType":5126,"count":64,"normalized":false,"byteOffset":0,"bufferView":35},{"type":"SCALAR","componentType":5123,"count":96,"normalized":false,"byteOffset":263334,"bufferView":4},{"type":"VEC3","componentType":5126,"count":64,"max":[-0.8943149447441101,0.5852000117301941,0.11680000275373459],"min":[-0.8970999717712402,0.5831999778747559,-0.11680000275373459],"normalized":false,"byteOffset":0,"bufferView":36},{"type":"VEC3","componentType":5126,"count":64,"normalized":false,"byteOffset":0,"bufferView":37},{"type":"VEC2","componentType":5126,"count":64,"normalized":false,"byteOffset":0,"bufferView":38},{"type":"VEC3","componentType":5126,"count":1323,"max":[0.8887596726417542,1.2698174715042114,0.0036328539717942476],"min":[-0.8887596726417542,-1.2698174715042114,-0.0012823729775846004],"normalized":false,"byteOffset":0,"bufferView":39},{"type":"VEC3","componentType":5126,"count":1323,"normalized":false,"byteOffset":0,"bufferView":40},{"type":"VEC2","componentType":5126,"count":1323,"normalized":false,"byteOffset":0,"bufferView":41},{"type":"VEC2","componentType":5126,"count":1323,"normalized":false,"byteOffset":0,"bufferView":42},{"type":"VEC2","componentType":5126,"count":1323,"normalized":false,"byteOffset":0,"bufferView":43},{"type":"VEC2","componentType":5126,"count":1323,"normalized":false,"byteOffset":0,"bufferView":44},{"type":"SCALAR","componentType":5123,"count":6630,"normalized":false,"byteOffset":263526,"bufferView":4},{"type":"VEC3","componentType":5126,"count":1190,"max":[0.8887596726417542,1.2698174715042114,0.001281477278098464],"min":[-0.8887596726417542,-1.2698174715042114,-0.0036354821640998125],"normalized":false,"byteOffset":0,"bufferView":45},{"type":"VEC3","componentType":5126,"count":1190,"normalized":false,"byteOffset":0,"bufferView":46},{"type":"VEC2","componentType":5126,"count":1190,"normalized":false,"byteOffset":0,"bufferView":47},{"type":"VEC2","componentType":5126,"count":1190,"normalized":false,"byteOffset":0,"bufferView":48},{"type":"VEC2","componentType":5126,"count":1190,"normalized":false,"byteOffset":0,"bufferView":49},{"type":"VEC2","componentType":5126,"count":1190,"normalized":false,"byteOffset":0,"bufferView":50},{"type":"SCALAR","componentType":5123,"count":5886,"normalized":false,"byteOffset":276786,"bufferView":4},{"type":"VEC3","componentType":5126,"count":2178,"max":[-0.8810105919837952,1.2699999809265137,0.18250000476837158],"min":[-0.8949999809265137,-1.2699999809265137,-0.18250000476837158],"normalized":false,"byteOffset":0,"bufferView":51},{"type":"VEC3","componentType":5126,"count":2178,"normalized":false,"byteOffset":0,"bufferView":52},{"type":"VEC2","componentType":5126,"count":2178,"normalized":false,"byteOffset":0,"bufferView":53},{"type":"SCALAR","componentType":5123,"count":13056,"normalized":false,"byteOffset":288558,"bufferView":4},{"type":"VEC3","componentType":5126,"count":9110,"max":[-0.8969124555587769,1.026055097579956,0.013000000268220901],"min":[-0.8972499966621399,0.7519448399543762,-0.013000000268220901],"normalized":false,"byteOffset":0,"bufferView":54},{"type":"VEC3","componentType":5126,"count":9110,"normalized":false,"byteOffset":0,"bufferView":55},{"type":"VEC2","componentType":5126,"count":9110,"normalized":false,"byteOffset":0,"bufferView":56},{"type":"SCALAR","componentType":5123,"count":14196,"normalized":false,"byteOffset":314670,"bufferView":4},{"type":"VEC3","componentType":5126,"count":8377,"max":[-0.8967703580856323,0.11802985519170761,0.02850000001490116],"min":[-0.8972499966621399,-0.11802985519170761,-0.02850000001490116],"normalized":false,"byteOffset":0,"bufferView":57},{"type":"VEC3","componentType":5126,"count":8377,"normalized":false,"byteOffset":0,"bufferView":58},{"type":"VEC2","componentType":5126,"count":8377,"normalized":false,"byteOffset":0,"bufferView":59},{"type":"SCALAR","componentType":5123,"count":13008,"normalized":false,"byteOffset":343062,"bufferView":4},{"type":"VEC3","componentType":5126,"count":1066,"max":[1.7029999494552612,1.2380000352859497,0.004547894932329655],"min":[-0.000021593450583168305,-1.2380000352859497,0],"normalized":false,"byteOffset":0,"bufferView":60},{"type":"VEC3","componentType":5126,"count":1066,"normalized":false,"byteOffset":0,"bufferView":61},{"type":"VEC2","componentType":5126,"count":1066,"normalized":false,"byteOffset":0,"bufferView":62},{"type":"SCALAR","componentType":5123,"count":6384,"normalized":false,"byteOffset":369078,"bufferView":4},{"type":"VEC3","componentType":5126,"count":5336,"max":[0.9549923539161682,-0.11576593667268753,0.0050436751917004585],"min":[0.7614859938621521,-0.13887189328670502,0.005031333304941654],"normalized":false,"byteOffset":0,"bufferView":63},{"type":"VEC3","componentType":5126,"count":5336,"normalized":false,"byteOffset":0,"bufferView":64},{"type":"VEC2","componentType":5126,"count":5336,"normalized":false,"byteOffset":0,"bufferView":65},{"type":"SCALAR","componentType":5123,"count":15804,"normalized":false,"byteOffset":381846,"bufferView":4},{"type":"VEC3","componentType":5126,"count":9432,"max":[0.988278329372406,-0.9073342084884644,0.00504456227645278],"min":[0.7277024984359741,-0.9215613603591919,0.005026876460760832],"normalized":false,"byteOffset":0,"bufferView":66},{"type":"VEC3","componentType":5126,"count":9432,"normalized":false,"byteOffset":0,"bufferView":67},{"type":"VEC2","componentType":5126,"count":9432,"normalized":false,"byteOffset":0,"bufferView":68},{"type":"SCALAR","componentType":5123,"count":27840,"normalized":false,"byteOffset":413454,"bufferView":4},{"type":"VEC3","componentType":5126,"count":4422,"max":[1.0101420879364014,0.5123846530914307,0.005045040976256132],"min":[0.7082763910293579,0.43949487805366516,0.005023789592087269],"normalized":false,"byteOffset":0,"bufferView":69},{"type":"VEC3","componentType":5126,"count":4422,"normalized":false,"byteOffset":0,"bufferView":70},{"type":"VEC2","componentType":5126,"count":4422,"normalized":false,"byteOffset":0,"bufferView":71},{"type":"SCALAR","componentType":5123,"count":13008,"normalized":false,"byteOffset":469134,"bufferView":4}],"bufferViews":[{"buffer":1,"byteOffset":0,"byteLength":15780,"target":34962,"byteStride":12,"extensions":{"EXT_meshopt_compression":{"buffer":0,"byteOffset":0,"byteLength":10167,"mode":"ATTRIBUTES","byteStride":12,"count":1315}}},{"buffer":1,"byteOffset":15780,"byteLength":15780,"target":34962,"byteStride":12,"extensions":{"EXT_meshopt_compression":{"buffer":0,"byteOffset":10168,"byteLength":12347,"mode":"ATTRIBUTES","byteStride":12,"count":1315}}},{"buffer":1,"byteOffset":31560,"byteLength":10520,"target":34962,"byteStride":8,"extensions":{"EXT_meshopt_compression":{"buffer":0,"byteOffset":22516,"byteLength":7353,"mode":"ATTRIBUTES","byteStride":8,"count":1315}}},{"buffer":1,"byteOffset":42080,"byteLength":10520,"target":34962,"byteStride":8,"extensions":{"EXT_meshopt_compression":{"buffer":0,"byteOffset":29872,"byteLength":6091,"mode":"ATTRIBUTES","byteStride":8,"count":1315}}},{"buffer":1,"byteOffset":52600,"byteLength":495150,"target":34963,"extensions":{"EXT_meshopt_compression":{"buffer":0,"byteOffset":35964,"byteLength":242209,"mode":"TRIANGLES","byteStride":2,"count":247575}}},{"buffer":1,"byteOffset":547752,"byteLength":14376,"target":34962,"byteStride":12,"extensions":{"EXT_meshopt_compression":{"buffer":0,"byteOffset":278176,"byteLength":9078,"mode":"ATTRIBUTES","byteStride":12,"count":1198}}},{"buffer":1,"byteOffset":562128,"byteLength":14376,"target":34962,"byteStride":12,"extensions":{"EXT_meshopt_compression":{"buffer":0,"byteOffset":287256,"byteLength":10907,"mode":"ATTRIBUTES","byteStride":12,"count":1198}}},{"buffer":1,"byteOffset":576504,"byteLength":9584,"target":34962,"byteStride":8,"extensions":{"EXT_meshopt_compression":{"buffer":0,"byteOffset":298164,"byteLength":6882,"mode":"ATTRIBUTES","byteStride":8,"count":1198}}},{"buffer":1,"byteOffset":586088,"byteLength":9584,"target":34962,"byteStride":8,"extensions":{"EXT_meshopt_compression":{"buffer":0,"byteOffset":305048,"byteLength":5528,"mode":"ATTRIBUTES","byteStride":8,"count":1198}}},{"buffer":1,"byteOffset":595672,"byteLength":6168,"target":34962,"byteStride":12,"extensions":{"EXT_meshopt_compression":{"buffer":0,"byteOffset":310576,"byteLength":3261,"mode":"ATTRIBUTES","byteStride":12,"count":514}}},{"buffer":1,"byteOffset":601840,"byteLength":6168,"target":34962,"byteStride":12,"extensions":{"EXT_meshopt_compression":{"buffer":0,"byteOffset":313840,"byteLength":141,"mode":"ATTRIBUTES","byteStride":12,"count":514}}},{"buffer":1,"byteOffset":608008,"byteLength":4112,"target":34962,"byteStride":8,"extensions":{"EXT_meshopt_compression":{"buffer":0,"byteOffset":313984,"byteLength":1619,"mode":"ATTRIBUTES","byteStride":8,"count":514}}},{"buffer":1,"byteOffset":612120,"byteLength":94032,"target":34962,"byteStride":12,"extensions":{"EXT_meshopt_compression":{"buffer":0,"byteOffset":315604,"byteLength":40871,"mode":"ATTRIBUTES","byteStride":12,"count":7836}}},{"buffer":1,"byteOffset":706152,"byteLength":94032,"target":34962,"byteStride":12,"extensions":{"EXT_meshopt_compression":{"buffer":0,"byteOffset":356476,"byteLength":1509,"mode":"ATTRIBUTES","byteStride":12,"count":7836}}},{"buffer":1,"byteOffset":800184,"byteLength":62688,"target":34962,"byteStride":8,"extensions":{"EXT_meshopt_compression":{"buffer":0,"byteOffset":357988,"byteLength":22977,"mode":"ATTRIBUTES","byteStride":8,"count":7836}}},{"buffer":1,"byteOffset":862872,"byteLength":10776,"target":34962,"byteStride":12,"extensions":{"EXT_meshopt_compression":{"buffer":0,"byteOffset":380968,"byteLength":5478,"mode":"ATTRIBUTES","byteStride":12,"count":898}}},{"buffer":1,"byteOffset":873648,"byteLength":10776,"target":34962,"byteStride":12,"extensions":{"EXT_meshopt_compression":{"buffer":0,"byteOffset":386448,"byteLength":213,"mode":"ATTRIBUTES","byteStride":12,"count":898}}},{"buffer":1,"byteOffset":884424,"byteLength":7184,"target":34962,"byteStride":8,"extensions":{"EXT_meshopt_compression":{"buffer":0,"byteOffset":386664,"byteLength":2830,"mode":"ATTRIBUTES","byteStride":8,"count":898}}},{"buffer":1,"byteOffset":891608,"byteLength":10824,"target":34962,"byteStride":12,"extensions":{"EXT_meshopt_compression":{"buffer":0,"byteOffset":389496,"byteLength":5689,"mode":"ATTRIBUTES","byteStride":12,"count":902}}},{"buffer":1,"byteOffset":902432,"byteLength":10824,"target":34962,"byteStride":12,"extensions":{"EXT_meshopt_compression":{"buffer":0,"byteOffset":395188,"byteLength":213,"mode":"ATTRIBUTES","byteStride":12,"count":902}}},{"buffer":1,"byteOffset":913256,"byteLength":7216,"target":34962,"byteStride":8,"extensions":{"EXT_meshopt_compression":{"buffer":0,"byteOffset":395404,"byteLength":2792,"mode":"ATTRIBUTES","byteStride":8,"count":902}}},{"buffer":1,"byteOffset":920472,"byteLength":10068,"target":34962,"byteStride":12,"extensions":{"EXT_meshopt_compression":{"buffer":0,"byteOffset":398196,"byteLength":5082,"mode":"ATTRIBUTES","byteStride":12,"count":839}}},{"buffer":1,"byteOffset":930540,"byteLength":10068,"target":34962,"byteStride":12,"extensions":{"EXT_meshopt_compression":{"buffer":0,"byteOffset":403280,"byteLength":201,"mode":"ATTRIBUTES","byteStride":12,"count":839}}},{"buffer":1,"byteOffset":940608,"byteLength":6712,"target":34962,"byteStride":8,"extensions":{"EXT_meshopt_compression":{"buffer":0,"byteOffset":403484,"byteLength":2534,"mode":"ATTRIBUTES","byteStride":8,"count":839}}},{"buffer":1,"byteOffset":947320,"byteLength":292104,"target":34962,"byteStride":12,"extensions":{"EXT_meshopt_compression":{"buffer":0,"byteOffset":406020,"byteLength":106582,"mode":"ATTRIBUTES","byteStride":12,"count":24342}}},{"buffer":1,"byteOffset":1239424,"byteLength":292104,"target":34962,"byteStride":12,"extensions":{"EXT_meshopt_compression":{"buffer":0,"byteOffset":512604,"byteLength":168525,"mode":"ATTRIBUTES","byteStride":12,"count":24342}}},{"buffer":1,"byteOffset":1531528,"byteLength":194736,"target":34962,"byteStride":8,"extensions":{"EXT_meshopt_compression":{"buffer":0,"byteOffset":681132,"byteLength":60372,"mode":"ATTRIBUTES","byteStride":8,"count":24342}}},{"buffer":1,"byteOffset":1726264,"byteLength":105264,"target":34962,"byteStride":12,"extensions":{"EXT_meshopt_compression":{"buffer":0,"byteOffset":741504,"byteLength":41897,"mode":"ATTRIBUTES","byteStride":12,"count":8772}}},{"buffer":1,"byteOffset":1831528,"byteLength":105264,"target":34962,"byteStride":12,"extensions":{"EXT_meshopt_compression":{"buffer":0,"byteOffset":783404,"byteLength":10194,"mode":"ATTRIBUTES","byteStride":12,"count":8772}}},{"buffer":1,"byteOffset":1936792,"byteLength":70176,"target":34962,"byteStride":8,"extensions":{"EXT_meshopt_compression":{"buffer":0,"byteOffset":793600,"byteLength":35804,"mode":"ATTRIBUTES","byteStride":8,"count":8772}}},{"buffer":1,"byteOffset":2006968,"byteLength":96,"target":34962,"byteStride":12,"extensions":{"EXT_meshopt_compression":{"buffer":0,"byteOffset":829404,"byteLength":89,"mode":"ATTRIBUTES","byteStride":12,"count":8}}},{"buffer":1,"byteOffset":2007064,"byteLength":96,"target":34962,"byteStride":12,"extensions":{"EXT_meshopt_compression":{"buffer":0,"byteOffset":829496,"byteLength":50,"mode":"ATTRIBUTES","byteStride":12,"count":8}}},{"buffer":1,"byteOffset":2007160,"byteLength":64,"target":34962,"byteStride":8,"extensions":{"EXT_meshopt_compression":{"buffer":0,"byteOffset":829548,"byteLength":71,"mode":"ATTRIBUTES","byteStride":8,"count":8}}},{"buffer":1,"byteOffset":2007224,"byteLength":768,"target":34962,"byteStride":12,"extensions":{"EXT_meshopt_compression":{"buffer":0,"byteOffset":829620,"byteLength":320,"mode":"ATTRIBUTES","byteStride":12,"count":64}}},{"buffer":1,"byteOffset":2007992,"byteLength":768,"target":34962,"byteStride":12,"extensions":{"EXT_meshopt_compression":{"buffer":0,"byteOffset":829940,"byteLength":332,"mode":"ATTRIBUTES","byteStride":12,"count":64}}},{"buffer":1,"byteOffset":2008760,"byteLength":512,"target":34962,"byteStride":8,"extensions":{"EXT_meshopt_compression":{"buffer":0,"byteOffset":830272,"byteLength":182,"mode":"ATTRIBUTES","byteStride":8,"count":64}}},{"buffer":1,"byteOffset":2009272,"byteLength":768,"target":34962,"byteStride":12,"extensions":{"EXT_meshopt_compression":{"buffer":0,"byteOffset":830456,"byteLength":320,"mode":"ATTRIBUTES","byteStride":12,"count":64}}},{"buffer":1,"byteOffset":2010040,"byteLength":768,"target":34962,"byteStride":12,"extensions":{"EXT_meshopt_compression":{"buffer":0,"byteOffset":830776,"byteLength":332,"mode":"ATTRIBUTES","byteStride":12,"count":64}}},{"buffer":1,"byteOffset":2010808,"byteLength":512,"target":34962,"byteStride":8,"extensions":{"EXT_meshopt_compression":{"buffer":0,"byteOffset":831108,"byteLength":186,"mode":"ATTRIBUTES","byteStride":8,"count":64}}},{"buffer":1,"byteOffset":2011320,"byteLength":15876,"target":34962,"byteStride":12,"extensions":{"EXT_meshopt_compression":{"buffer":0,"byteOffset":831296,"byteLength":10248,"mode":"ATTRIBUTES","byteStride":12,"count":1323}}},{"buffer":1,"byteOffset":2027196,"byteLength":15876,"target":34962,"byteStride":12,"extensions":{"EXT_meshopt_compression":{"buffer":0,"byteOffset":841544,"byteLength":12360,"mode":"ATTRIBUTES","byteStride":12,"count":1323}}},{"buffer":1,"byteOffset":2043072,"byteLength":10584,"target":34962,"byteStride":8,"extensions":{"EXT_meshopt_compression":{"buffer":0,"byteOffset":853904,"byteLength":7569,"mode":"ATTRIBUTES","byteStride":8,"count":1323}}},{"buffer":1,"byteOffset":2053656,"byteLength":10584,"target":34962,"byteStride":8,"extensions":{"EXT_meshopt_compression":{"buffer":0,"byteOffset":861476,"byteLength":7133,"mode":"ATTRIBUTES","byteStride":8,"count":1323}}},{"buffer":1,"byteOffset":2064240,"byteLength":10584,"target":34962,"byteStride":8,"extensions":{"EXT_meshopt_compression":{"buffer":0,"byteOffset":868612,"byteLength":6800,"mode":"ATTRIBUTES","byteStride":8,"count":1323}}},{"buffer":1,"byteOffset":2074824,"byteLength":10584,"target":34962,"byteStride":8,"extensions":{"EXT_meshopt_compression":{"buffer":0,"byteOffset":875412,"byteLength":6062,"mode":"ATTRIBUTES","byteStride":8,"count":1323}}},{"buffer":1,"byteOffset":2085408,"byteLength":14280,"target":34962,"byteStride":12,"extensions":{"EXT_meshopt_compression":{"buffer":0,"byteOffset":881476,"byteLength":9193,"mode":"ATTRIBUTES","byteStride":12,"count":1190}}},{"buffer":1,"byteOffset":2099688,"byteLength":14280,"target":34962,"byteStride":12,"extensions":{"EXT_meshopt_compression":{"buffer":0,"byteOffset":890672,"byteLength":10748,"mode":"ATTRIBUTES","byteStride":12,"count":1190}}},{"buffer":1,"byteOffset":2113968,"byteLength":9520,"target":34962,"byteStride":8,"extensions":{"EXT_meshopt_compression":{"buffer":0,"byteOffset":901420,"byteLength":6736,"mode":"ATTRIBUTES","byteStride":8,"count":1190}}},{"buffer":1,"byteOffset":2123488,"byteLength":9520,"target":34962,"byteStride":8,"extensions":{"EXT_meshopt_compression":{"buffer":0,"byteOffset":908156,"byteLength":6461,"mode":"ATTRIBUTES","byteStride":8,"count":1190}}},{"buffer":1,"byteOffset":2133008,"byteLength":9520,"target":34962,"byteStride":8,"extensions":{"EXT_meshopt_compression":{"buffer":0,"byteOffset":914620,"byteLength":6177,"mode":"ATTRIBUTES","byteStride":8,"count":1190}}},{"buffer":1,"byteOffset":2142528,"byteLength":9520,"target":34962,"byteStride":8,"extensions":{"EXT_meshopt_compression":{"buffer":0,"byteOffset":920800,"byteLength":5501,"mode":"ATTRIBUTES","byteStride":8,"count":1190}}},{"buffer":1,"byteOffset":2152048,"byteLength":26136,"target":34962,"byteStride":12,"extensions":{"EXT_meshopt_compression":{"buffer":0,"byteOffset":926304,"byteLength":13626,"mode":"ATTRIBUTES","byteStride":12,"count":2178}}},{"buffer":1,"byteOffset":2178184,"byteLength":26136,"target":34962,"byteStride":12,"extensions":{"EXT_meshopt_compression":{"buffer":0,"byteOffset":939932,"byteLength":12797,"mode":"ATTRIBUTES","byteStride":12,"count":2178}}},{"buffer":1,"byteOffset":2204320,"byteLength":17424,"target":34962,"byteStride":8,"extensions":{"EXT_meshopt_compression":{"buffer":0,"byteOffset":952732,"byteLength":7362,"mode":"ATTRIBUTES","byteStride":8,"count":2178}}},{"buffer":1,"byteOffset":2221744,"byteLength":109320,"target":34962,"byteStride":12,"extensions":{"EXT_meshopt_compression":{"buffer":0,"byteOffset":960096,"byteLength":41628,"mode":"ATTRIBUTES","byteStride":12,"count":9110}}},{"buffer":1,"byteOffset":2331064,"byteLength":109320,"target":34962,"byteStride":12,"extensions":{"EXT_meshopt_compression":{"buffer":0,"byteOffset":1001724,"byteLength":63356,"mode":"ATTRIBUTES","byteStride":12,"count":9110}}},{"buffer":1,"byteOffset":2440384,"byteLength":72880,"target":34962,"byteStride":8,"extensions":{"EXT_meshopt_compression":{"buffer":0,"byteOffset":1065080,"byteLength":22679,"mode":"ATTRIBUTES","byteStride":8,"count":9110}}},{"buffer":1,"byteOffset":2513264,"byteLength":100524,"target":34962,"byteStride":12,"extensions":{"EXT_meshopt_compression":{"buffer":0,"byteOffset":1087760,"byteLength":40801,"mode":"ATTRIBUTES","byteStride":12,"count":8377}}},{"buffer":1,"byteOffset":2613788,"byteLength":100524,"target":34962,"byteStride":12,"extensions":{"EXT_meshopt_compression":{"buffer":0,"byteOffset":1128564,"byteLength":58880,"mode":"ATTRIBUTES","byteStride":12,"count":8377}}},{"buffer":1,"byteOffset":2714312,"byteLength":67016,"target":34962,"byteStride":8,"extensions":{"EXT_meshopt_compression":{"buffer":0,"byteOffset":1187444,"byteLength":20939,"mode":"ATTRIBUTES","byteStride":8,"count":8377}}},{"buffer":1,"byteOffset":2781328,"byteLength":12792,"target":34962,"byteStride":12,"extensions":{"EXT_meshopt_compression":{"buffer":0,"byteOffset":1208384,"byteLength":6647,"mode":"ATTRIBUTES","byteStride":12,"count":1066}}},{"buffer":1,"byteOffset":2794120,"byteLength":12792,"target":34962,"byteStride":12,"extensions":{"EXT_meshopt_compression":{"buffer":0,"byteOffset":1215032,"byteLength":4150,"mode":"ATTRIBUTES","byteStride":12,"count":1066}}},{"buffer":1,"byteOffset":2806912,"byteLength":8528,"target":34962,"byteStride":8,"extensions":{"EXT_meshopt_compression":{"buffer":0,"byteOffset":1219184,"byteLength":3909,"mode":"ATTRIBUTES","byteStride":8,"count":1066}}},{"buffer":1,"byteOffset":2815440,"byteLength":64032,"target":34962,"byteStride":12,"extensions":{"EXT_meshopt_compression":{"buffer":0,"byteOffset":1223096,"byteLength":28381,"mode":"ATTRIBUTES","byteStride":12,"count":5336}}},{"buffer":1,"byteOffset":2879472,"byteLength":64032,"target":34962,"byteStride":12,"extensions":{"EXT_meshopt_compression":{"buffer":0,"byteOffset":1251480,"byteLength":5195,"mode":"ATTRIBUTES","byteStride":12,"count":5336}}},{"buffer":1,"byteOffset":2943504,"byteLength":42688,"target":34962,"byteStride":8,"extensions":{"EXT_meshopt_compression":{"buffer":0,"byteOffset":1256676,"byteLength":19158,"mode":"ATTRIBUTES","byteStride":8,"count":5336}}},{"buffer":1,"byteOffset":2986192,"byteLength":113184,"target":34962,"byteStride":12,"extensions":{"EXT_meshopt_compression":{"buffer":0,"byteOffset":1275836,"byteLength":46215,"mode":"ATTRIBUTES","byteStride":12,"count":9432}}},{"buffer":1,"byteOffset":3099376,"byteLength":113184,"target":34962,"byteStride":12,"extensions":{"EXT_meshopt_compression":{"buffer":0,"byteOffset":1322052,"byteLength":3802,"mode":"ATTRIBUTES","byteStride":12,"count":9432}}},{"buffer":1,"byteOffset":3212560,"byteLength":75456,"target":34962,"byteStride":8,"extensions":{"EXT_meshopt_compression":{"buffer":0,"byteOffset":1325856,"byteLength":33079,"mode":"ATTRIBUTES","byteStride":8,"count":9432}}},{"buffer":1,"byteOffset":3288016,"byteLength":53064,"target":34962,"byteStride":12,"extensions":{"EXT_meshopt_compression":{"buffer":0,"byteOffset":1358936,"byteLength":23600,"mode":"ATTRIBUTES","byteStride":12,"count":4422}}},{"buffer":1,"byteOffset":3341080,"byteLength":53064,"target":34962,"byteStride":12,"extensions":{"EXT_meshopt_compression":{"buffer":0,"byteOffset":1382536,"byteLength":4175,"mode":"ATTRIBUTES","byteStride":12,"count":4422}}},{"buffer":1,"byteOffset":3394144,"byteLength":35376,"target":34962,"byteStride":8,"extensions":{"EXT_meshopt_compression":{"buffer":0,"byteOffset":1386712,"byteLength":15720,"mode":"ATTRIBUTES","byteStride":8,"count":4422}}}],"samplers":[{"magFilter":9729,"minFilter":9987,"wrapS":10497,"wrapT":10497},{"magFilter":9729,"minFilter":9987,"wrapS":33071,"wrapT":33071}],"textures":[{"source":1,"sampler":0},{"sampler":0,"extensions":{"EXT_texture_webp":{"source":0}}},{"sampler":0,"extensions":{"EXT_texture_webp":{"source":2}}},{"sampler":0,"extensions":{"EXT_texture_webp":{"source":4}}},{"sampler":0,"extensions":{"EXT_texture_webp":{"source":3}}},{"source":7,"sampler":1},{"sampler":0,"extensions":{"EXT_texture_webp":{"source":6}}},{"sampler":0,"extensions":{"EXT_texture_webp":{"source":5}}}],"images":[{"name":"Paper001_2K-JPG_NormalGL","mimeType":"image/webp","uri":"shared/a490f2254a54e6ac01465d82.webp"},{"name":"Paper001_2K-JPG_Color","mimeType":"image/jpeg","uri":"shared/1ec1da7815c3e53e02f7f6f4.jpg"},{"name":"Paper001_2K-JPG_Roughness","mimeType":"image/webp","uri":"shared/98c3a72e3346f80ad454feb3.webp"},{"name":"compressed-paper-normal","mimeType":"image/webp","uri":"shared/c65a4a9bdd0dce53b8ec9861.webp"},{"name":"compressed-paper-color","mimeType":"image/webp","uri":"shared/e933106c126139066215af87.webp"},{"name":"principia_print_orm","mimeType":"image/webp","uri":"shared/98dee76443ecca382ef773d4.webp"},{"name":"principia_print_normal","mimeType":"image/webp","uri":"shared/87bee41871799a95e10c6593.webp"},{"name":"edition-principia","mimeType":"image/jpeg","uri":"shared/a2247bb102546c7efef19be4.jpg"}],"buffers":[{"uri":"shared/0dbdbf38358664fd82e67e62.bin","byteLength":1402432},{"byteLength":3429520,"extensions":{"EXT_meshopt_compression":{"fallback":true}}}],"materials":[{"name":"principia case material.002","doubleSided":true,"pbrMetallicRoughness":{"baseColorFactor":[0.0018211619462817907,0.020288562402129173,0.04970656707882881,1],"roughnessFactor":0.5799999833106995,"metallicFactor":0},"extensions":{"KHR_materials_clearcoat":{"clearcoatFactor":0.05999999865889549,"clearcoatRoughnessFactor":0}}},{"name":"MAT_Uncoated_Paper_Fibre","doubleSided":true,"pbrMetallicRoughness":{"metallicFactor":0,"baseColorTexture":{"index":0,"texCoord":1},"metallicRoughnessTexture":{"index":2,"texCoord":1}},"normalTexture":{"index":1,"texCoord":1,"scale":0.07000000029802322}},{"name":"MAT_principia_BackInk","doubleSided":true,"pbrMetallicRoughness":{"baseColorFactor":[0.7200000286102295,0.6800000071525574,0.5899999737739563,1],"roughnessFactor":0.7200000286102295,"metallicFactor":0}},{"name":"MAT_principia_Stamped_Ink.002","doubleSided":true,"pbrMetallicRoughness":{"baseColorFactor":[0.7200000286102295,0.6800000071525574,0.5899999737739563,1],"roughnessFactor":0.3400000035762787,"metallicFactor":0},"extensions":{"KHR_materials_clearcoat":{"clearcoatFactor":0.44999998807907104,"clearcoatRoughnessFactor":0.20000000298023224}}},{"name":"MAT_principia_Stamped_Ink.003","doubleSided":true,"pbrMetallicRoughness":{"baseColorFactor":[0.5457244515419006,0.7083757519721985,0.7681511640548706,1],"roughnessFactor":0.3400000035762787,"metallicFactor":0},"extensions":{"KHR_materials_clearcoat":{"clearcoatFactor":0.44999998807907104,"clearcoatRoughnessFactor":0.20000000298023224}}},{"name":"Compressed paper cut surface","doubleSided":true,"pbrMetallicRoughness":{"roughnessFactor":0.8999999761581421,"metallicFactor":0,"baseColorTexture":{"index":3}},"normalTexture":{"index":4}},{"name":"Compressed ivory stock 2","doubleSided":true,"pbrMetallicRoughness":{"baseColorFactor":[0.7279999852180481,0.7129999995231628,0.656000018119812,1],"roughnessFactor":0.8600000143051147,"metallicFactor":0}},{"name":"MAT_principia_Registered_Print.001","extras":{"surface_finish":"Registered print, selective varnish"},"doubleSided":true,"pbrMetallicRoughness":{"baseColorTexture":{"index":5,"texCoord":1},"metallicRoughnessTexture":{"index":7,"texCoord":1}},"normalTexture":{"index":6,"texCoord":1},"extensions":{"KHR_materials_clearcoat":{"clearcoatFactor":1,"clearcoatRoughnessFactor":0.23999999463558197,"clearcoatTexture":{"index":7,"texCoord":1}}}},{"name":"MAT_Uncoated_Paper_Fibre","doubleSided":true,"pbrMetallicRoughness":{"metallicFactor":0,"baseColorTexture":{"index":0,"texCoord":3},"metallicRoughnessTexture":{"index":2,"texCoord":3}},"normalTexture":{"index":1,"texCoord":3,"scale":0.07000000029802322}},{"name":"MAT_Uncoated_Paper_Fibre","doubleSided":true,"pbrMetallicRoughness":{"metallicFactor":0,"baseColorTexture":{"index":0},"metallicRoughnessTexture":{"index":2}},"normalTexture":{"index":1,"scale":0.07000000029802322}},{"name":"principia printed ink.002","doubleSided":true,"pbrMetallicRoughness":{"baseColorFactor":[0.040915198624134064,0.03310476616024971,0.019382361322641373,1],"roughnessFactor":0.8999999761581421,"metallicFactor":0}}],"meshes":[{"name":"Pressed case joint Back board.028","primitives":[{"attributes":{"POSITION":0,"NORMAL":1,"TEXCOORD_0":2,"TEXCOORD_1":3},"mode":4,"material":0,"indices":4},{"attributes":{"POSITION":5,"NORMAL":6,"TEXCOORD_0":7,"TEXCOORD_1":8},"mode":4,"material":1,"indices":9}]},{"name":"Back collection.004","primitives":[{"attributes":{"POSITION":10,"NORMAL":11,"TEXCOORD_0":12},"mode":4,"material":2,"indices":13}]},{"name":"Back description.004","primitives":[{"attributes":{"POSITION":14,"NORMAL":15,"TEXCOORD_0":16},"mode":4,"material":2,"indices":17}]},{"name":"Back edition.004","primitives":[{"attributes":{"POSITION":18,"NORMAL":19,"TEXCOORD_0":20},"mode":4,"material":3,"indices":21}]},{"name":"Back ISBN.004","primitives":[{"attributes":{"POSITION":22,"NORMAL":23,"TEXCOORD_0":24},"mode":4,"material":2,"indices":25}]},{"name":"Back title.004","primitives":[{"attributes":{"POSITION":26,"NORMAL":27,"TEXCOORD_0":28},"mode":4,"material":3,"indices":29}]},{"name":"Collection mark.020","primitives":[{"attributes":{"POSITION":30,"NORMAL":31,"TEXCOORD_0":32},"mode":4,"material":4,"indices":33}]},{"name":"Continuous compressed cut principia.003","primitives":[{"attributes":{"POSITION":34,"NORMAL":35,"TEXCOORD_0":36},"mode":4,"material":5,"indices":37},{"attributes":{"POSITION":38,"NORMAL":39,"TEXCOORD_0":40},"mode":4,"material":6,"indices":41}]},{"name":"Curved foil rule.040","primitives":[{"attributes":{"POSITION":42,"NORMAL":43,"TEXCOORD_0":44},"mode":4,"material":4,"indices":45}]},{"name":"Curved foil rule.041","primitives":[{"attributes":{"POSITION":46,"NORMAL":47,"TEXCOORD_0":48},"mode":4,"material":4,"indices":45}]},{"name":"Pressed case joint Wrapped printed cover.003","primitives":[{"attributes":{"POSITION":49,"NORMAL":50,"TEXCOORD_0":51,"TEXCOORD_1":52,"TEXCOORD_2":53,"TEXCOORD_3":54},"mode":4,"material":7,"indices":55},{"attributes":{"POSITION":56,"NORMAL":57,"TEXCOORD_0":58,"TEXCOORD_1":59,"TEXCOORD_2":60,"TEXCOORD_3":61},"mode":4,"material":8,"indices":62}]},{"name":"Rounded cloth spine.028","primitives":[{"attributes":{"POSITION":63,"NORMAL":64,"TEXCOORD_0":65},"mode":4,"material":0,"indices":66}]},{"name":"Spine author.020","primitives":[{"attributes":{"POSITION":67,"NORMAL":68,"TEXCOORD_0":69},"mode":4,"material":4,"indices":70}]},{"name":"Spine title.028","primitives":[{"attributes":{"POSITION":71,"NORMAL":72,"TEXCOORD_0":73},"mode":4,"material":4,"indices":74}]},{"name":"Flexible paper.004","primitives":[{"attributes":{"POSITION":75,"NORMAL":76,"TEXCOORD_0":77},"mode":4,"material":9,"indices":78}]},{"name":"Interior author.028","primitives":[{"attributes":{"POSITION":79,"NORMAL":80,"TEXCOORD_0":81},"mode":4,"material":10,"indices":82}]},{"name":"Interior imprint.028","primitives":[{"attributes":{"POSITION":83,"NORMAL":84,"TEXCOORD_0":85},"mode":4,"material":10,"indices":86}]},{"name":"Interior title.028","primitives":[{"attributes":{"POSITION":87,"NORMAL":88,"TEXCOORD_0":89},"mode":4,"material":10,"indices":90}]}],"nodes":[{"name":"Back board.028","extras":{"edge_refined":true,"unpressed_mesh":"Back board.036","pressed_joint_revision":1,"joint_depth_mm":0.12,"joint_center_mm":4.8},"translation":[0,0,-0.18250000476837158],"mesh":0},{"name":"Back collection.004","translation":[0,-0.6096000075340271,-0.18649999797344208],"rotation":[0,-0.7071068286895752,0.7071068286895752,3.0908619663705394e-8],"mesh":1},{"name":"Back description.004","translation":[0,0.06350000202655792,-0.18649999797344208],"rotation":[0,-0.7071068286895752,0.7071068286895752,3.0908619663705394e-8],"mesh":2},{"name":"Back edition.004","translation":[0,-0.8636000156402588,-0.18649999797344208],"rotation":[0,-0.7071068286895752,0.7071068286895752,3.0908619663705394e-8],"mesh":3},{"name":"Back ISBN.004","translation":[0,-0.9905999898910522,-0.18649999797344208],"rotation":[0,-0.7071068286895752,0.7071068286895752,3.0908619663705394e-8],"mesh":4},{"name":"Back title.004","translation":[0,0.7366000413894653,-0.18649999797344208],"rotation":[0,-0.7071068286895752,0.7071068286895752,3.0908619663705394e-8],"mesh":5},{"name":"Collection mark.020","mesh":6},{"name":"Compressed paper signatures principia.003","extras":{"paper_surface_revision":1,"leaf_count":308,"paper_caliper_mm":0.10974025974025974,"binding_structure":"Glued square back"},"mesh":7},{"name":"Curved foil rule.040","mesh":8},{"name":"Curved foil rule.041","mesh":9},{"name":"Wrapped printed cover.003","extras":{"edge_refined":true,"unpressed_mesh":"Front board.036","pressed_joint_revision":1,"joint_depth_mm":0.12,"joint_center_mm":4.8},"translation":[0.8890000581741333,0,0],"mesh":10},{"name":"FrontHinge.028","translation":[-0.8889999985694885,0,0.18250000476837158],"children":[10]},{"name":"Rounded cloth spine.028","mesh":11},{"name":"Spine author.020","mesh":12},{"name":"Spine title.028","mesh":13},{"name":"Curved title leaf.004","mesh":14},{"name":"Interior author.028","mesh":15},{"name":"Interior imprint.028","mesh":16},{"name":"Interior title.028","mesh":17},{"name":"TurningLeaf.004","translation":[-0.8439999222755432,0,0.17149999737739563],"children":[15,16,17,18]},{"name":"Publisher_principia.001","extras":{"slug":"principia","dimensions_mm":[177.8,254,37],"model_design":"Publisher front artwork on a showcase binding; spine and interior are custom reconstructions"},"scale":[0.09966367483139038,0.10000000149011612,0.09975552558898926],"children":[0,1,2,3,4,5,6,7,8,9,11,12,13,14,19]}],"scenes":[{"name":"Library Publisher Editions.001","nodes":[20]}],"scene":0,"extensionsUsed":["EXT_meshopt_compression","EXT_texture_webp","KHR_materials_clearcoat"],"extensionsRequired":["EXT_meshopt_compression","EXT_texture_webp"]}