{"asset":{"generator":"glTF-Transform v4.5.0","version":"2.0"},"accessors":[{"type":"VEC3","componentType":5126,"count":1315,"max":[0.8887596726417542,1.2698174715042114,0.0008596252300776541],"min":[-0.8887596726417542,-1.2698174715042114,-0.0028383051976561546],"normalized":false,"byteOffset":0,"bufferView":0},{"type":"VEC3","componentType":5126,"count":1315,"normalized":false,"byteOffset":0,"bufferView":1},{"type":"SCALAR","componentType":5123,"count":6612,"normalized":false,"byteOffset":0,"bufferView":2},{"type":"VEC3","componentType":5126,"count":1198,"max":[0.8887596726417542,1.2698174715042114,0.0028383051976561546],"min":[-0.8887596726417542,-1.2698174715042114,-0.00034901651088148355],"normalized":false,"byteOffset":0,"bufferView":3},{"type":"VEC3","componentType":5126,"count":1198,"normalized":false,"byteOffset":0,"bufferView":4},{"type":"VEC2","componentType":5126,"count":1198,"normalized":false,"byteOffset":0,"bufferView":5},{"type":"SCALAR","componentType":5123,"count":5904,"normalized":false,"byteOffset":13224,"bufferView":2},{"type":"VEC3","componentType":5126,"count":514,"max":[0.1009504571557045,0,0.0053944955579936504],"min":[-0.09995229542255402,0,-0.005732110235840082],"normalized":false,"byteOffset":0,"bufferView":6},{"type":"VEC3","componentType":5126,"count":514,"normalized":false,"byteOffset":0,"bufferView":7},{"type":"SCALAR","componentType":5123,"count":1482,"normalized":false,"byteOffset":25032,"bufferView":2},{"type":"VEC3","componentType":5126,"count":7836,"max":[0.1579485833644867,0,0.07542230188846588],"min":[-0.15810059010982513,0,-0.07162181288003922],"normalized":false,"byteOffset":0,"bufferView":8},{"type":"VEC3","componentType":5126,"count":7836,"normalized":false,"byteOffset":0,"bufferView":9},{"type":"SCALAR","componentType":5123,"count":23178,"normalized":false,"byteOffset":27996,"bufferView":2},{"type":"VEC3","componentType":5126,"count":898,"max":[0.1579156070947647,0,0.00647339504212141],"min":[-0.15744000673294067,0,-0.00688733858987689],"normalized":false,"byteOffset":0,"bufferView":10},{"type":"VEC3","componentType":5126,"count":898,"normalized":false,"byteOffset":0,"bufferView":11},{"type":"SCALAR","componentType":5123,"count":2580,"normalized":false,"byteOffset":74352,"bufferView":2},{"type":"VEC3","componentType":5126,"count":902,"max":[0.07914110273122787,0,0.005664220545440912],"min":[-0.0783858671784401,0,-0.0060187154449522495],"normalized":false,"byteOffset":0,"bufferView":12},{"type":"VEC3","componentType":5126,"count":902,"normalized":false,"byteOffset":0,"bufferView":13},{"type":"SCALAR","componentType":5123,"count":2664,"normalized":false,"byteOffset":79512,"bufferView":2},{"type":"VEC3","componentType":5126,"count":839,"max":[0.08259142190217972,0,0.023399895057082176],"min":[-0.08127852529287338,0,-0.016168851405382156],"normalized":false,"byteOffset":0,"bufferView":14},{"type":"VEC3","componentType":5126,"count":839,"normalized":false,"byteOffset":0,"bufferView":15},{"type":"SCALAR","componentType":5123,"count":2463,"normalized":false,"byteOffset":84840,"bufferView":2},{"type":"VEC3","componentType":5126,"count":24342,"max":[-0.8969319462776184,-0.7493000030517578,0.009021364152431488],"min":[-0.8972499966621399,-1.1811000108718872,-0.009021364152431488],"normalized":false,"byteOffset":0,"bufferView":16},{"type":"VEC3","componentType":5126,"count":24342,"normalized":false,"byteOffset":0,"bufferView":17},{"type":"SCALAR","componentType":5123,"count":37620,"normalized":false,"byteOffset":89766,"bufferView":2},{"type":"VEC3","componentType":5126,"count":8772,"max":[0.8619999885559082,1.2420992851257324,0.16899999976158142],"min":[-0.8790000081062317,-1.2420827150344849,-0.16899999976158142],"normalized":false,"byteOffset":0,"bufferView":18},{"type":"VEC3","componentType":5126,"count":8772,"normalized":false,"byteOffset":0,"bufferView":19},{"type":"VEC2","componentType":5126,"count":8772,"normalized":false,"byteOffset":0,"bufferView":20},{"type":"SCALAR","componentType":5123,"count":49152,"normalized":false,"byteOffset":165006,"bufferView":2},{"type":"VEC3","componentType":5126,"count":8,"max":[0.8619999885559082,1.2419999837875366,0.16899999976158142],"min":[-0.8790000081062317,-1.2419999837875366,-0.16899999976158142],"normalized":false,"byteOffset":0,"bufferView":21},{"type":"VEC3","componentType":5126,"count":8,"normalized":false,"byteOffset":0,"bufferView":22},{"type":"SCALAR","componentType":5123,"count":12,"normalized":false,"byteOffset":263310,"bufferView":2},{"type":"VEC3","componentType":5126,"count":64,"max":[-0.8943149447441101,-0.6848000288009644,0.11680000275373459],"min":[-0.8970999717712402,-0.6868000030517578,-0.11680000275373459],"normalized":false,"byteOffset":0,"bufferView":23},{"type":"VEC3","componentType":5126,"count":64,"normalized":false,"byteOffset":0,"bufferView":24},{"type":"SCALAR","componentType":5123,"count":96,"normalized":false,"byteOffset":263334,"bufferView":2},{"type":"VEC3","componentType":5126,"count":64,"max":[-0.8943149447441101,0.5852000117301941,0.11680000275373459],"min":[-0.8970999717712402,0.5831999778747559,-0.11680000275373459],"normalized":false,"byteOffset":0,"bufferView":25},{"type":"VEC3","componentType":5126,"count":64,"normalized":false,"byteOffset":0,"bufferView":26},{"type":"VEC3","componentType":5126,"count":1323,"max":[0.8887596726417542,1.2698174715042114,0.0036328539717942476],"min":[-0.8887596726417542,-1.2698174715042114,-0.0012823729775846004],"normalized":false,"byteOffset":0,"bufferView":27},{"type":"VEC3","componentType":5126,"count":1323,"normalized":false,"byteOffset":0,"bufferView":28},{"type":"VEC2","componentType":5126,"count":1323,"normalized":false,"byteOffset":0,"bufferView":29},{"type":"SCALAR","componentType":5123,"count":6630,"normalized":false,"byteOffset":263526,"bufferView":2},{"type":"VEC3","componentType":5126,"count":1190,"max":[0.8887596726417542,1.2698174715042114,0.001281477278098464],"min":[-0.8887596726417542,-1.2698174715042114,-0.0036354821640998125],"normalized":false,"byteOffset":0,"bufferView":30},{"type":"VEC3","componentType":5126,"count":1190,"normalized":false,"byteOffset":0,"bufferView":31},{"type":"VEC2","componentType":5126,"count":1190,"normalized":false,"byteOffset":0,"bufferView":32},{"type":"SCALAR","componentType":5123,"count":5886,"normalized":false,"byteOffset":276786,"bufferView":2},{"type":"VEC3","componentType":5126,"count":2178,"max":[-0.8810105919837952,1.2699999809265137,0.18250000476837158],"min":[-0.8949999809265137,-1.2699999809265137,-0.18250000476837158],"normalized":false,"byteOffset":0,"bufferView":33},{"type":"VEC3","componentType":5126,"count":2178,"normalized":false,"byteOffset":0,"bufferView":34},{"type":"SCALAR","componentType":5123,"count":13056,"normalized":false,"byteOffset":288558,"bufferView":2},{"type":"VEC3","componentType":5126,"count":9110,"max":[-0.8969124555587769,1.026055097579956,0.013000000268220901],"min":[-0.8972499966621399,0.7519448399543762,-0.013000000268220901],"normalized":false,"byteOffset":0,"bufferView":35},{"type":"VEC3","componentType":5126,"count":9110,"normalized":false,"byteOffset":0,"bufferView":36},{"type":"SCALAR","componentType":5123,"count":14196,"normalized":false,"byteOffset":314670,"bufferView":2},{"type":"VEC3","componentType":5126,"count":8377,"max":[-0.8967703580856323,0.11802985519170761,0.02850000001490116],"min":[-0.8972499966621399,-0.11802985519170761,-0.02850000001490116],"normalized":false,"byteOffset":0,"bufferView":37},{"type":"VEC3","componentType":5126,"count":8377,"normalized":false,"byteOffset":0,"bufferView":38},{"type":"SCALAR","componentType":5123,"count":13008,"normalized":false,"byteOffset":343062,"bufferView":2}],"bufferViews":[{"buffer":1,"byteOffset":0,"byteLength":15780,"target":34962,"byteStride":12,"extensions":{"EXT_meshopt_compression":{"buffer":0,"byteOffset":0,"byteLength":10167,"mode":"ATTRIBUTES","byteStride":12,"count":1315}}},{"buffer":1,"byteOffset":15780,"byteLength":15780,"target":34962,"byteStride":12,"extensions":{"EXT_meshopt_compression":{"buffer":0,"byteOffset":10168,"byteLength":12347,"mode":"ATTRIBUTES","byteStride":12,"count":1315}}},{"buffer":1,"byteOffset":31560,"byteLength":369078,"target":34963,"extensions":{"EXT_meshopt_compression":{"buffer":0,"byteOffset":22516,"byteLength":184743,"mode":"TRIANGLES","byteStride":2,"count":184539}}},{"buffer":1,"byteOffset":400640,"byteLength":14376,"target":34962,"byteStride":12,"extensions":{"EXT_meshopt_compression":{"buffer":0,"byteOffset":207260,"byteLength":9078,"mode":"ATTRIBUTES","byteStride":12,"count":1198}}},{"buffer":1,"byteOffset":415016,"byteLength":14376,"target":34962,"byteStride":12,"extensions":{"EXT_meshopt_compression":{"buffer":0,"byteOffset":216340,"byteLength":10907,"mode":"ATTRIBUTES","byteStride":12,"count":1198}}},{"buffer":1,"byteOffset":429392,"byteLength":9584,"target":34962,"byteStride":8,"extensions":{"EXT_meshopt_compression":{"buffer":0,"byteOffset":227248,"byteLength":5528,"mode":"ATTRIBUTES","byteStride":8,"count":1198}}},{"buffer":1,"byteOffset":438976,"byteLength":6168,"target":34962,"byteStride":12,"extensions":{"EXT_meshopt_compression":{"buffer":0,"byteOffset":232776,"byteLength":3261,"mode":"ATTRIBUTES","byteStride":12,"count":514}}},{"buffer":1,"byteOffset":445144,"byteLength":6168,"target":34962,"byteStride":12,"extensions":{"EXT_meshopt_compression":{"buffer":0,"byteOffset":236040,"byteLength":141,"mode":"ATTRIBUTES","byteStride":12,"count":514}}},{"buffer":1,"byteOffset":451312,"byteLength":94032,"target":34962,"byteStride":12,"extensions":{"EXT_meshopt_compression":{"buffer":0,"byteOffset":236184,"byteLength":40871,"mode":"ATTRIBUTES","byteStride":12,"count":7836}}},{"buffer":1,"byteOffset":545344,"byteLength":94032,"target":34962,"byteStride":12,"extensions":{"EXT_meshopt_compression":{"buffer":0,"byteOffset":277056,"byteLength":1509,"mode":"ATTRIBUTES","byteStride":12,"count":7836}}},{"buffer":1,"byteOffset":639376,"byteLength":10776,"target":34962,"byteStride":12,"extensions":{"EXT_meshopt_compression":{"buffer":0,"byteOffset":278568,"byteLength":5478,"mode":"ATTRIBUTES","byteStride":12,"count":898}}},{"buffer":1,"byteOffset":650152,"byteLength":10776,"target":34962,"byteStride":12,"extensions":{"EXT_meshopt_compression":{"buffer":0,"byteOffset":284048,"byteLength":213,"mode":"ATTRIBUTES","byteStride":12,"count":898}}},{"buffer":1,"byteOffset":660928,"byteLength":10824,"target":34962,"byteStride":12,"extensions":{"EXT_meshopt_compression":{"buffer":0,"byteOffset":284264,"byteLength":5689,"mode":"ATTRIBUTES","byteStride":12,"count":902}}},{"buffer":1,"byteOffset":671752,"byteLength":10824,"target":34962,"byteStride":12,"extensions":{"EXT_meshopt_compression":{"buffer":0,"byteOffset":289956,"byteLength":213,"mode":"ATTRIBUTES","byteStride":12,"count":902}}},{"buffer":1,"byteOffset":682576,"byteLength":10068,"target":34962,"byteStride":12,"extensions":{"EXT_meshopt_compression":{"buffer":0,"byteOffset":290172,"byteLength":5082,"mode":"ATTRIBUTES","byteStride":12,"count":839}}},{"buffer":1,"byteOffset":692644,"byteLength":10068,"target":34962,"byteStride":12,"extensions":{"EXT_meshopt_compression":{"buffer":0,"byteOffset":295256,"byteLength":201,"mode":"ATTRIBUTES","byteStride":12,"count":839}}},{"buffer":1,"byteOffset":702712,"byteLength":292104,"target":34962,"byteStride":12,"extensions":{"EXT_meshopt_compression":{"buffer":0,"byteOffset":295460,"byteLength":106582,"mode":"ATTRIBUTES","byteStride":12,"count":24342}}},{"buffer":1,"byteOffset":994816,"byteLength":292104,"target":34962,"byteStride":12,"extensions":{"EXT_meshopt_compression":{"buffer":0,"byteOffset":402044,"byteLength":168525,"mode":"ATTRIBUTES","byteStride":12,"count":24342}}},{"buffer":1,"byteOffset":1286920,"byteLength":105264,"target":34962,"byteStride":12,"extensions":{"EXT_meshopt_compression":{"buffer":0,"byteOffset":570572,"byteLength":41897,"mode":"ATTRIBUTES","byteStride":12,"count":8772}}},{"buffer":1,"byteOffset":1392184,"byteLength":105264,"target":34962,"byteStride":12,"extensions":{"EXT_meshopt_compression":{"buffer":0,"byteOffset":612472,"byteLength":10194,"mode":"ATTRIBUTES","byteStride":12,"count":8772}}},{"buffer":1,"byteOffset":1497448,"byteLength":70176,"target":34962,"byteStride":8,"extensions":{"EXT_meshopt_compression":{"buffer":0,"byteOffset":622668,"byteLength":35804,"mode":"ATTRIBUTES","byteStride":8,"count":8772}}},{"buffer":1,"byteOffset":1567624,"byteLength":96,"target":34962,"byteStride":12,"extensions":{"EXT_meshopt_compression":{"buffer":0,"byteOffset":658472,"byteLength":89,"mode":"ATTRIBUTES","byteStride":12,"count":8}}},{"buffer":1,"byteOffset":1567720,"byteLength":96,"target":34962,"byteStride":12,"extensions":{"EXT_meshopt_compression":{"buffer":0,"byteOffset":658564,"byteLength":50,"mode":"ATTRIBUTES","byteStride":12,"count":8}}},{"buffer":1,"byteOffset":1567816,"byteLength":768,"target":34962,"byteStride":12,"extensions":{"EXT_meshopt_compression":{"buffer":0,"byteOffset":658616,"byteLength":320,"mode":"ATTRIBUTES","byteStride":12,"count":64}}},{"buffer":1,"byteOffset":1568584,"byteLength":768,"target":34962,"byteStride":12,"extensions":{"EXT_meshopt_compression":{"buffer":0,"byteOffset":658936,"byteLength":332,"mode":"ATTRIBUTES","byteStride":12,"count":64}}},{"buffer":1,"byteOffset":1569352,"byteLength":768,"target":34962,"byteStride":12,"extensions":{"EXT_meshopt_compression":{"buffer":0,"byteOffset":659268,"byteLength":320,"mode":"ATTRIBUTES","byteStride":12,"count":64}}},{"buffer":1,"byteOffset":1570120,"byteLength":768,"target":34962,"byteStride":12,"extensions":{"EXT_meshopt_compression":{"buffer":0,"byteOffset":659588,"byteLength":332,"mode":"ATTRIBUTES","byteStride":12,"count":64}}},{"buffer":1,"byteOffset":1570888,"byteLength":15876,"target":34962,"byteStride":12,"extensions":{"EXT_meshopt_compression":{"buffer":0,"byteOffset":659920,"byteLength":10248,"mode":"ATTRIBUTES","byteStride":12,"count":1323}}},{"buffer":1,"byteOffset":1586764,"byteLength":15876,"target":34962,"byteStride":12,"extensions":{"EXT_meshopt_compression":{"buffer":0,"byteOffset":670168,"byteLength":12360,"mode":"ATTRIBUTES","byteStride":12,"count":1323}}},{"buffer":1,"byteOffset":1602640,"byteLength":10584,"target":34962,"byteStride":8,"extensions":{"EXT_meshopt_compression":{"buffer":0,"byteOffset":682528,"byteLength":7133,"mode":"ATTRIBUTES","byteStride":8,"count":1323}}},{"buffer":1,"byteOffset":1613224,"byteLength":14280,"target":34962,"byteStride":12,"extensions":{"EXT_meshopt_compression":{"buffer":0,"byteOffset":689664,"byteLength":9193,"mode":"ATTRIBUTES","byteStride":12,"count":1190}}},{"buffer":1,"byteOffset":1627504,"byteLength":14280,"target":34962,"byteStride":12,"extensions":{"EXT_meshopt_compression":{"buffer":0,"byteOffset":698860,"byteLength":10748,"mode":"ATTRIBUTES","byteStride":12,"count":1190}}},{"buffer":1,"byteOffset":1641784,"byteLength":9520,"target":34962,"byteStride":8,"extensions":{"EXT_meshopt_compression":{"buffer":0,"byteOffset":709608,"byteLength":5501,"mode":"ATTRIBUTES","byteStride":8,"count":1190}}},{"buffer":1,"byteOffset":1651304,"byteLength":26136,"target":34962,"byteStride":12,"extensions":{"EXT_meshopt_compression":{"buffer":0,"byteOffset":715112,"byteLength":13626,"mode":"ATTRIBUTES","byteStride":12,"count":2178}}},{"buffer":1,"byteOffset":1677440,"byteLength":26136,"target":34962,"byteStride":12,"extensions":{"EXT_meshopt_compression":{"buffer":0,"byteOffset":728740,"byteLength":12797,"mode":"ATTRIBUTES","byteStride":12,"count":2178}}},{"buffer":1,"byteOffset":1703576,"byteLength":109320,"target":34962,"byteStride":12,"extensions":{"EXT_meshopt_compression":{"buffer":0,"byteOffset":741540,"byteLength":41628,"mode":"ATTRIBUTES","byteStride":12,"count":9110}}},{"buffer":1,"byteOffset":1812896,"byteLength":109320,"target":34962,"byteStride":12,"extensions":{"EXT_meshopt_compression":{"buffer":0,"byteOffset":783168,"byteLength":63356,"mode":"ATTRIBUTES","byteStride":12,"count":9110}}},{"buffer":1,"byteOffset":1922216,"byteLength":100524,"target":34962,"byteStride":12,"extensions":{"EXT_meshopt_compression":{"buffer":0,"byteOffset":846524,"byteLength":40801,"mode":"ATTRIBUTES","byteStride":12,"count":8377}}},{"buffer":1,"byteOffset":2022740,"byteLength":100524,"target":34962,"byteStride":12,"extensions":{"EXT_meshopt_compression":{"buffer":0,"byteOffset":887328,"byteLength":58880,"mode":"ATTRIBUTES","byteStride":12,"count":8377}}}],"samplers":[{"magFilter":9729,"minFilter":9987,"wrapS":10497,"wrapT":10497},{"magFilter":9729,"minFilter":9987,"wrapS":33071,"wrapT":33071}],"textures":[{"sampler":0,"extensions":{"EXT_texture_webp":{"source":1}}},{"sampler":0,"extensions":{"EXT_texture_webp":{"source":0}}},{"sampler":0,"extensions":{"EXT_texture_webp":{"source":2}}},{"sampler":0,"extensions":{"EXT_texture_webp":{"source":4}}},{"sampler":0,"extensions":{"EXT_texture_webp":{"source":3}}},{"source":7,"sampler":1},{"sampler":0,"extensions":{"EXT_texture_webp":{"source":6}}},{"sampler":0,"extensions":{"EXT_texture_webp":{"source":5}}}],"images":[{"name":"Paper001_2K-JPG_NormalGL","mimeType":"image/webp","uri":"shared/a4ffc7b7fc49def2917e39f5.webp"},{"name":"Paper001_2K-JPG_Color","mimeType":"image/webp","uri":"shared/75262c983a496cb7fcdc6c19.webp"},{"name":"Paper001_2K-JPG_Roughness","mimeType":"image/webp","uri":"shared/49f61cb86539e805ce6a1ee3.webp"},{"name":"compressed-paper-normal","mimeType":"image/webp","uri":"shared/339c1ac519928878fbaa1237.webp"},{"name":"compressed-paper-color","mimeType":"image/webp","uri":"shared/7701c62282fa7f26c46af450.webp"},{"name":"principia_print_orm","mimeType":"image/webp","uri":"shared/98dee76443ecca382ef773d4.webp"},{"name":"principia_print_normal","mimeType":"image/webp","uri":"shared/87bee41871799a95e10c6593.webp"},{"name":"edition-principia","mimeType":"image/jpeg","uri":"shared/a2247bb102546c7efef19be4.jpg"}],"buffers":[{"uri":"shared/3f6a1e9700ded5a170905f54.bin","byteLength":946208},{"byteLength":2123264,"extensions":{"EXT_meshopt_compression":{"fallback":true}}}],"materials":[{"name":"principia case material.002","doubleSided":true,"pbrMetallicRoughness":{"baseColorFactor":[0.0018211619462817907,0.020288562402129173,0.04970656707882881,1],"roughnessFactor":0.5799999833106995,"metallicFactor":0},"extensions":{"KHR_materials_clearcoat":{"clearcoatFactor":0.05999999865889549,"clearcoatRoughnessFactor":0}}},{"name":"MAT_Uncoated_Paper_Fibre","doubleSided":true,"pbrMetallicRoughness":{"metallicFactor":0,"baseColorTexture":{"index":0},"metallicRoughnessTexture":{"index":2}},"normalTexture":{"index":1,"scale":0.07000000029802322}},{"name":"MAT_principia_BackInk","doubleSided":true,"pbrMetallicRoughness":{"baseColorFactor":[0.7200000286102295,0.6800000071525574,0.5899999737739563,1],"roughnessFactor":0.7200000286102295,"metallicFactor":0}},{"name":"MAT_principia_Stamped_Ink.002","doubleSided":true,"pbrMetallicRoughness":{"baseColorFactor":[0.7200000286102295,0.6800000071525574,0.5899999737739563,1],"roughnessFactor":0.3400000035762787,"metallicFactor":0},"extensions":{"KHR_materials_clearcoat":{"clearcoatFactor":0.44999998807907104,"clearcoatRoughnessFactor":0.20000000298023224}}},{"name":"MAT_principia_Stamped_Ink.003","doubleSided":true,"pbrMetallicRoughness":{"baseColorFactor":[0.5457244515419006,0.7083757519721985,0.7681511640548706,1],"roughnessFactor":0.3400000035762787,"metallicFactor":0},"extensions":{"KHR_materials_clearcoat":{"clearcoatFactor":0.44999998807907104,"clearcoatRoughnessFactor":0.20000000298023224}}},{"name":"Compressed paper cut surface","doubleSided":true,"pbrMetallicRoughness":{"roughnessFactor":0.8999999761581421,"metallicFactor":0,"baseColorTexture":{"index":3}},"normalTexture":{"index":4}},{"name":"Compressed ivory stock 2","doubleSided":true,"pbrMetallicRoughness":{"baseColorFactor":[0.7279999852180481,0.7129999995231628,0.656000018119812,1],"roughnessFactor":0.8600000143051147,"metallicFactor":0}},{"name":"MAT_principia_Registered_Print.001","extras":{"surface_finish":"Registered print, selective varnish"},"doubleSided":true,"pbrMetallicRoughness":{"baseColorTexture":{"index":5},"metallicRoughnessTexture":{"index":7}},"normalTexture":{"index":6},"extensions":{"KHR_materials_clearcoat":{"clearcoatFactor":1,"clearcoatRoughnessFactor":0.23999999463558197,"clearcoatTexture":{"index":7}}}},{"name":"MAT_Uncoated_Paper_Fibre","doubleSided":true,"pbrMetallicRoughness":{"metallicFactor":0,"baseColorTexture":{"index":0},"metallicRoughnessTexture":{"index":2}},"normalTexture":{"index":1,"scale":0.07000000029802322}}],"meshes":[{"name":"Pressed case joint Back board.028","primitives":[{"attributes":{"POSITION":0,"NORMAL":1},"mode":4,"material":0,"indices":2},{"attributes":{"POSITION":3,"NORMAL":4,"TEXCOORD_0":5},"mode":4,"material":1,"indices":6}]},{"name":"Back collection.004","primitives":[{"attributes":{"POSITION":7,"NORMAL":8},"mode":4,"material":2,"indices":9}]},{"name":"Back description.004","primitives":[{"attributes":{"POSITION":10,"NORMAL":11},"mode":4,"material":2,"indices":12}]},{"name":"Back edition.004","primitives":[{"attributes":{"POSITION":13,"NORMAL":14},"mode":4,"material":3,"indices":15}]},{"name":"Back ISBN.004","primitives":[{"attributes":{"POSITION":16,"NORMAL":17},"mode":4,"material":2,"indices":18}]},{"name":"Back title.004","primitives":[{"attributes":{"POSITION":19,"NORMAL":20},"mode":4,"material":3,"indices":21}]},{"name":"Collection mark.020","primitives":[{"attributes":{"POSITION":22,"NORMAL":23},"mode":4,"material":4,"indices":24}]},{"name":"Continuous compressed cut principia.003","primitives":[{"attributes":{"POSITION":25,"NORMAL":26,"TEXCOORD_0":27},"mode":4,"material":5,"indices":28},{"attributes":{"POSITION":29,"NORMAL":30},"mode":4,"material":6,"indices":31}]},{"name":"Curved foil rule.040","primitives":[{"attributes":{"POSITION":32,"NORMAL":33},"mode":4,"material":4,"indices":34}]},{"name":"Curved foil rule.041","primitives":[{"attributes":{"POSITION":35,"NORMAL":36},"mode":4,"material":4,"indices":34}]},{"name":"Pressed case joint Wrapped printed cover.003","primitives":[{"attributes":{"POSITION":37,"NORMAL":38,"TEXCOORD_0":39},"mode":4,"material":7,"indices":40},{"attributes":{"POSITION":41,"NORMAL":42,"TEXCOORD_0":43},"mode":4,"material":8,"indices":44}]},{"name":"Rounded cloth spine.028","primitives":[{"attributes":{"POSITION":45,"NORMAL":46},"mode":4,"material":0,"indices":47}]},{"name":"Spine author.020","primitives":[{"attributes":{"POSITION":48,"NORMAL":49},"mode":4,"material":4,"indices":50}]},{"name":"Spine title.028","primitives":[{"attributes":{"POSITION":51,"NORMAL":52},"mode":4,"material":4,"indices":53}]}],"nodes":[{"name":"Back board.028","extras":{"edge_refined":true,"unpressed_mesh":"Back board.036","pressed_joint_revision":1,"joint_depth_mm":0.12,"joint_center_mm":4.8},"translation":[0,0,-0.18250000476837158],"mesh":0},{"name":"Back collection.004","translation":[0,-0.6096000075340271,-0.18649999797344208],"rotation":[0,-0.7071068286895752,0.7071068286895752,3.0908619663705394e-8],"mesh":1},{"name":"Back description.004","translation":[0,0.06350000202655792,-0.18649999797344208],"rotation":[0,-0.7071068286895752,0.7071068286895752,3.0908619663705394e-8],"mesh":2},{"name":"Back edition.004","translation":[0,-0.8636000156402588,-0.18649999797344208],"rotation":[0,-0.7071068286895752,0.7071068286895752,3.0908619663705394e-8],"mesh":3},{"name":"Back ISBN.004","translation":[0,-0.9905999898910522,-0.18649999797344208],"rotation":[0,-0.7071068286895752,0.7071068286895752,3.0908619663705394e-8],"mesh":4},{"name":"Back title.004","translation":[0,0.7366000413894653,-0.18649999797344208],"rotation":[0,-0.7071068286895752,0.7071068286895752,3.0908619663705394e-8],"mesh":5},{"name":"Collection mark.020","mesh":6},{"name":"Compressed paper signatures principia.003","extras":{"paper_surface_revision":1,"leaf_count":308,"paper_caliper_mm":0.10974025974025974,"binding_structure":"Glued square back"},"mesh":7},{"name":"Curved foil rule.040","mesh":8},{"name":"Curved foil rule.041","mesh":9},{"name":"Wrapped printed cover.003","extras":{"edge_refined":true,"unpressed_mesh":"Front board.036","pressed_joint_revision":1,"joint_depth_mm":0.12,"joint_center_mm":4.8},"translation":[0.8890000581741333,0,0],"mesh":10},{"name":"FrontHinge.028","translation":[-0.8889999985694885,0,0.18250000476837158],"children":[10]},{"name":"Rounded cloth spine.028","mesh":11},{"name":"Spine author.020","mesh":12},{"name":"Spine title.028","mesh":13},{"name":"Publisher_principia.001","extras":{"slug":"principia","dimensions_mm":[177.8,254,37],"model_design":"Publisher front artwork on a showcase binding; spine and interior are custom reconstructions"},"scale":[0.09966367483139038,0.10000000149011612,0.09975552558898926],"children":[0,1,2,3,4,5,6,7,8,9,11,12,13,14]}],"scenes":[{"name":"Library Publisher Editions.001","nodes":[15]}],"scene":0,"extensionsUsed":["EXT_meshopt_compression","EXT_texture_webp","KHR_materials_clearcoat"],"extensionsRequired":["EXT_meshopt_compression","EXT_texture_webp"]}