{"asset":{"generator":"glTF-Transform v4.5.0","version":"2.0"},"accessors":[{"type":"VEC3","componentType":5126,"count":2392,"max":[0.6347571015357971,1.015763759613037,0.01083111111074686],"min":[-0.6347571015357971,-1.015763759613037,-0.01083111111074686],"normalized":false,"byteOffset":0,"bufferView":0},{"type":"VEC3","componentType":5126,"count":2392,"normalized":false,"byteOffset":0,"bufferView":1},{"type":"VEC2","componentType":5126,"count":2392,"normalized":false,"byteOffset":0,"bufferView":2},{"type":"SCALAR","componentType":5123,"count":12588,"normalized":false,"byteOffset":0,"bufferView":3},{"type":"VEC3","componentType":5126,"count":514,"max":[0.1009504571557045,0,0.0053944955579936504],"min":[-0.09995229542255402,0,-0.005732110235840082],"normalized":false,"byteOffset":0,"bufferView":4},{"type":"VEC3","componentType":5126,"count":514,"normalized":false,"byteOffset":0,"bufferView":5},{"type":"VEC2","componentType":5126,"count":514,"normalized":false,"byteOffset":0,"bufferView":6},{"type":"SCALAR","componentType":5123,"count":1482,"normalized":false,"byteOffset":25176,"bufferView":3},{"type":"VEC3","componentType":5126,"count":6033,"max":[0.18982015550136566,0,0.050225019454956055],"min":[-0.18969152867794037,0,-0.0509968101978302],"normalized":false,"byteOffset":0,"bufferView":7},{"type":"VEC3","componentType":5126,"count":6033,"normalized":false,"byteOffset":0,"bufferView":8},{"type":"VEC2","componentType":5126,"count":6033,"normalized":false,"byteOffset":0,"bufferView":9},{"type":"SCALAR","componentType":5123,"count":17787,"normalized":false,"byteOffset":28140,"bufferView":3},{"type":"VEC3","componentType":5126,"count":516,"max":[0.0995934009552002,0,0.00647339504212141],"min":[-0.0983075276017189,0,-0.006878532003611326],"normalized":false,"byteOffset":0,"bufferView":10},{"type":"VEC3","componentType":5126,"count":516,"normalized":false,"byteOffset":0,"bufferView":11},{"type":"VEC2","componentType":5126,"count":516,"normalized":false,"byteOffset":0,"bufferView":12},{"type":"SCALAR","componentType":5123,"count":1488,"normalized":false,"byteOffset":63714,"bufferView":3},{"type":"VEC3","componentType":5126,"count":935,"max":[0.07696018368005753,0,0.005671926308423281],"min":[-0.0783858671784401,0,-0.0060187154449522495],"normalized":false,"byteOffset":0,"bufferView":13},{"type":"VEC3","componentType":5126,"count":935,"normalized":false,"byteOffset":0,"bufferView":14},{"type":"VEC2","componentType":5126,"count":935,"normalized":false,"byteOffset":0,"bufferView":15},{"type":"SCALAR","componentType":5123,"count":2763,"normalized":false,"byteOffset":66690,"bufferView":3},{"type":"VEC3","componentType":5126,"count":155,"max":[0.6000000238418579,0.9835000038146973,0.0010000000474974513],"min":[-0.6000000238418579,-0.9835000038146973,-0.0010000000474974513],"normalized":false,"byteOffset":0,"bufferView":16},{"type":"VEC3","componentType":5126,"count":155,"normalized":false,"byteOffset":0,"bufferView":17},{"type":"VEC2","componentType":5126,"count":155,"normalized":false,"byteOffset":0,"bufferView":18},{"type":"VEC2","componentType":5126,"count":155,"normalized":false,"byteOffset":0,"bufferView":19},{"type":"SCALAR","componentType":5123,"count":564,"normalized":false,"byteOffset":72216,"bufferView":3},{"type":"VEC3","componentType":5126,"count":947,"max":[0.12089777737855911,0,0.023399895057082176],"min":[-0.12069579213857651,0,-0.016835398972034454],"normalized":false,"byteOffset":0,"bufferView":20},{"type":"VEC3","componentType":5126,"count":947,"normalized":false,"byteOffset":0,"bufferView":21},{"type":"VEC2","componentType":5126,"count":947,"normalized":false,"byteOffset":0,"bufferView":22},{"type":"SCALAR","componentType":5123,"count":2799,"normalized":false,"byteOffset":73344,"bufferView":3},{"type":"VEC3","componentType":5126,"count":16575,"max":[-0.6786345839500427,-0.6202671527862549,0.010499999858438969],"min":[-0.6792500019073486,-0.9240528345108032,-0.010499999858438969],"normalized":false,"byteOffset":0,"bufferView":23},{"type":"VEC3","componentType":5126,"count":16575,"normalized":false,"byteOffset":0,"bufferView":24},{"type":"VEC2","componentType":5126,"count":16575,"normalized":false,"byteOffset":0,"bufferView":25},{"type":"SCALAR","componentType":5123,"count":25032,"normalized":false,"byteOffset":78942,"bufferView":3},{"type":"VEC3","componentType":5126,"count":8772,"max":[0.6079999804496765,0.9880993366241455,0.11299999803304672],"min":[-0.6480000019073486,-0.988082766532898,-0.11299999803304672],"normalized":false,"byteOffset":0,"bufferView":26},{"type":"VEC3","componentType":5126,"count":8772,"normalized":false,"byteOffset":0,"bufferView":27},{"type":"VEC2","componentType":5126,"count":8772,"normalized":false,"byteOffset":0,"bufferView":28},{"type":"SCALAR","componentType":5123,"count":49152,"normalized":false,"byteOffset":129006,"bufferView":3},{"type":"VEC3","componentType":5126,"count":8,"max":[0.6079999804496765,0.9879999756813049,0.11299999803304672],"min":[-0.625,-0.9879999756813049,-0.11299999803304672],"normalized":false,"byteOffset":0,"bufferView":29},{"type":"VEC3","componentType":5126,"count":8,"normalized":false,"byteOffset":0,"bufferView":30},{"type":"VEC2","componentType":5126,"count":8,"normalized":false,"byteOffset":0,"bufferView":31},{"type":"SCALAR","componentType":5123,"count":12,"normalized":false,"byteOffset":227310,"bufferView":3},{"type":"VEC3","componentType":5126,"count":64,"max":[-0.6596047282218933,-0.5476400256156921,0.08607999980449677],"min":[-0.679099977016449,-0.5496399998664856,-0.08607999980449677],"normalized":false,"byteOffset":0,"bufferView":32},{"type":"VEC3","componentType":5126,"count":64,"normalized":false,"byteOffset":0,"bufferView":33},{"type":"VEC2","componentType":5126,"count":64,"normalized":false,"byteOffset":0,"bufferView":34},{"type":"SCALAR","componentType":5123,"count":96,"normalized":false,"byteOffset":227334,"bufferView":3},{"type":"VEC3","componentType":5126,"count":64,"max":[-0.6596047282218933,0.4683600068092346,0.08607999980449677],"min":[-0.679099977016449,0.4663600027561188,-0.08607999980449677],"normalized":false,"byteOffset":0,"bufferView":35},{"type":"VEC3","componentType":5126,"count":64,"normalized":false,"byteOffset":0,"bufferView":36},{"type":"VEC2","componentType":5126,"count":64,"normalized":false,"byteOffset":0,"bufferView":37},{"type":"VEC3","componentType":5126,"count":155,"max":[0.6000000238418579,0.9835000038146973,0.0010000000474974513],"min":[-0.6000000238418579,-0.9835000038146973,-0.0010000000474974513],"normalized":false,"byteOffset":0,"bufferView":38},{"type":"VEC3","componentType":5126,"count":155,"normalized":false,"byteOffset":0,"bufferView":39},{"type":"VEC2","componentType":5126,"count":155,"normalized":false,"byteOffset":0,"bufferView":40},{"type":"VEC2","componentType":5126,"count":155,"normalized":false,"byteOffset":0,"bufferView":41},{"type":"VEC3","componentType":5126,"count":1326,"max":[0.6347570419311523,1.0157629251480103,0.01164552103728056],"min":[-0.6347570419311523,-1.0157629251480103,-0.0092870919033885],"normalized":false,"byteOffset":0,"bufferView":42},{"type":"VEC3","componentType":5126,"count":1326,"normalized":false,"byteOffset":0,"bufferView":43},{"type":"VEC2","componentType":5126,"count":1326,"normalized":false,"byteOffset":0,"bufferView":44},{"type":"VEC2","componentType":5126,"count":1326,"normalized":false,"byteOffset":0,"bufferView":45},{"type":"VEC2","componentType":5126,"count":1326,"normalized":false,"byteOffset":0,"bufferView":46},{"type":"VEC2","componentType":5126,"count":1326,"normalized":false,"byteOffset":0,"bufferView":47},{"type":"SCALAR","componentType":5123,"count":6720,"normalized":false,"byteOffset":227526,"bufferView":3},{"type":"VEC3","componentType":5126,"count":1192,"max":[0.6347570419311523,1.0157629251480103,-0.0045584384351968765],"min":[-0.6347570419311523,-1.0157629251480103,-0.011645521968603134],"normalized":false,"byteOffset":0,"bufferView":48},{"type":"VEC3","componentType":5126,"count":1192,"normalized":false,"byteOffset":0,"bufferView":49},{"type":"VEC2","componentType":5126,"count":1192,"normalized":false,"byteOffset":0,"bufferView":50},{"type":"VEC2","componentType":5126,"count":1192,"normalized":false,"byteOffset":0,"bufferView":51},{"type":"VEC2","componentType":5126,"count":1192,"normalized":false,"byteOffset":0,"bufferView":52},{"type":"VEC2","componentType":5126,"count":1192,"normalized":false,"byteOffset":0,"bufferView":53},{"type":"SCALAR","componentType":5123,"count":5940,"normalized":false,"byteOffset":240966,"bufferView":3},{"type":"VEC3","componentType":5126,"count":3230,"max":[-0.6197500228881836,0.9910420179367065,0.11299999803304672],"min":[-0.6512491106987,0.9829580187797546,-0.11299999803304672],"normalized":false,"byteOffset":0,"bufferView":54},{"type":"VEC3","componentType":5126,"count":3230,"normalized":false,"byteOffset":0,"bufferView":55},{"type":"SCALAR","componentType":5123,"count":19320,"normalized":false,"byteOffset":252846,"bufferView":3},{"type":"VEC3","componentType":5126,"count":588,"max":[-0.6256777048110962,0.9760000109672546,0.11299999803304672],"min":[-0.6510000228881836,-0.9760000109672546,-0.11299999803304672],"normalized":false,"byteOffset":0,"bufferView":56},{"type":"VEC3","componentType":5126,"count":588,"normalized":false,"byteOffset":0,"bufferView":57},{"type":"SCALAR","componentType":5123,"count":1164,"normalized":false,"byteOffset":291486,"bufferView":3},{"type":"VEC3","componentType":5126,"count":730,"max":[0.02171694114804268,-1.0079991817474365,0.02216394618153572],"min":[-0.02171694114804268,-1.2979999780654907,0.006000000052154064],"normalized":false,"byteOffset":0,"bufferView":58},{"type":"VEC3","componentType":5126,"count":730,"normalized":false,"byteOffset":0,"bufferView":59},{"type":"VEC2","componentType":5126,"count":730,"normalized":false,"byteOffset":0,"bufferView":60},{"type":"SCALAR","componentType":5123,"count":4368,"normalized":false,"byteOffset":293814,"bufferView":3},{"type":"VEC3","componentType":5126,"count":2178,"max":[-0.6271504759788513,1.0160653591156006,0.13449999690055847],"min":[-0.6774996519088745,-1.0160642862319946,-0.13449999690055847],"normalized":false,"byteOffset":0,"bufferView":61},{"type":"VEC3","componentType":5126,"count":2178,"normalized":false,"byteOffset":0,"bufferView":62},{"type":"VEC2","componentType":5126,"count":2178,"normalized":false,"byteOffset":0,"bufferView":63},{"type":"SCALAR","componentType":5123,"count":13056,"normalized":false,"byteOffset":302550,"bufferView":3},{"type":"VEC3","componentType":5126,"count":4146,"max":[-0.6784668564796448,0.7678422331809998,0.013000000268220901],"min":[-0.6792500019073486,0.6545577645301819,-0.013000000268220901],"normalized":false,"byteOffset":0,"bufferView":64},{"type":"VEC3","componentType":5126,"count":4146,"normalized":false,"byteOffset":0,"bufferView":65},{"type":"VEC2","componentType":5126,"count":4146,"normalized":false,"byteOffset":0,"bufferView":66},{"type":"SCALAR","componentType":5123,"count":6276,"normalized":false,"byteOffset":328662,"bufferView":3},{"type":"VEC3","componentType":5126,"count":9740,"max":[-0.6766449213027954,0.1711287796497345,0.02850000001490116],"min":[-0.6792500019073486,-0.1711287796497345,-0.02850000001490116],"normalized":false,"byteOffset":0,"bufferView":67},{"type":"VEC3","componentType":5126,"count":9740,"normalized":false,"byteOffset":0,"bufferView":68},{"type":"VEC2","componentType":5126,"count":9740,"normalized":false,"byteOffset":0,"bufferView":69},{"type":"SCALAR","componentType":5123,"count":14664,"normalized":false,"byteOffset":341214,"bufferView":3},{"type":"VEC3","componentType":5126,"count":3230,"max":[-0.6197500228881836,-0.9829580187797546,0.11299999803304672],"min":[-0.6512491106987,-0.9910420179367065,-0.11299999803304672],"normalized":false,"byteOffset":0,"bufferView":70},{"type":"VEC3","componentType":5126,"count":3230,"normalized":false,"byteOffset":0,"bufferView":71},{"type":"VEC3","componentType":5126,"count":1066,"max":[1.1950000524520874,0.984000027179718,0.0034895678982138634],"min":[-0.000021593450583168305,-0.984000027179718,0],"normalized":false,"byteOffset":0,"bufferView":72},{"type":"VEC3","componentType":5126,"count":1066,"normalized":false,"byteOffset":0,"bufferView":73},{"type":"VEC2","componentType":5126,"count":1066,"normalized":false,"byteOffset":0,"bufferView":74},{"type":"SCALAR","componentType":5123,"count":6384,"normalized":false,"byteOffset":370542,"bufferView":3},{"type":"VEC3","componentType":5126,"count":2134,"max":[0.6401658058166504,-0.08830888569355011,0.003985562827438116],"min":[0.5681530833244324,-0.11347189545631409,0.003981297370046377],"normalized":false,"byteOffset":0,"bufferView":75},{"type":"VEC3","componentType":5126,"count":2134,"normalized":false,"byteOffset":0,"bufferView":76},{"type":"VEC2","componentType":5126,"count":2134,"normalized":false,"byteOffset":0,"bufferView":77},{"type":"SCALAR","componentType":5123,"count":6252,"normalized":false,"byteOffset":383310,"bufferView":3},{"type":"VEC3","componentType":5126,"count":9470,"max":[0.7342783212661743,-0.7244542241096497,0.003988020587712526],"min":[0.47370249032974243,-0.7386813759803772,0.003968191333115101],"normalized":false,"byteOffset":0,"bufferView":78},{"type":"VEC3","componentType":5126,"count":9470,"normalized":false,"byteOffset":0,"bufferView":79},{"type":"VEC2","componentType":5126,"count":9470,"normalized":false,"byteOffset":0,"bufferView":80},{"type":"SCALAR","componentType":5123,"count":27840,"normalized":false,"byteOffset":395814,"bufferView":3},{"type":"VEC3","componentType":5126,"count":5008,"max":[0.8267064094543457,0.41709253191947937,0.003988965880125761],"min":[0.3816656470298767,0.3429749011993408,0.003935676999390125],"normalized":false,"byteOffset":0,"bufferView":81},{"type":"VEC3","componentType":5126,"count":5008,"normalized":false,"byteOffset":0,"bufferView":82},{"type":"VEC2","componentType":5126,"count":5008,"normalized":false,"byteOffset":0,"bufferView":83},{"type":"SCALAR","componentType":5123,"count":14664,"normalized":false,"byteOffset":451494,"bufferView":3}],"bufferViews":[{"buffer":1,"byteOffset":0,"byteLength":28704,"target":34962,"byteStride":12,"extensions":{"EXT_meshopt_compression":{"buffer":0,"byteOffset":0,"byteLength":17183,"mode":"ATTRIBUTES","byteStride":12,"count":2392}}},{"buffer":1,"byteOffset":28704,"byteLength":28704,"target":34962,"byteStride":12,"extensions":{"EXT_meshopt_compression":{"buffer":0,"byteOffset":17184,"byteLength":21554,"mode":"ATTRIBUTES","byteStride":12,"count":2392}}},{"buffer":1,"byteOffset":57408,"byteLength":19136,"target":34962,"byteStride":8,"extensions":{"EXT_meshopt_compression":{"buffer":0,"byteOffset":38740,"byteLength":13504,"mode":"ATTRIBUTES","byteStride":8,"count":2392}}},{"buffer":1,"byteOffset":76544,"byteLength":480822,"target":34963,"extensions":{"EXT_meshopt_compression":{"buffer":0,"byteOffset":52244,"byteLength":218238,"mode":"TRIANGLES","byteStride":2,"count":240411}}},{"buffer":1,"byteOffset":557368,"byteLength":6168,"target":34962,"byteStride":12,"extensions":{"EXT_meshopt_compression":{"buffer":0,"byteOffset":270484,"byteLength":3261,"mode":"ATTRIBUTES","byteStride":12,"count":514}}},{"buffer":1,"byteOffset":563536,"byteLength":6168,"target":34962,"byteStride":12,"extensions":{"EXT_meshopt_compression":{"buffer":0,"byteOffset":273748,"byteLength":141,"mode":"ATTRIBUTES","byteStride":12,"count":514}}},{"buffer":1,"byteOffset":569704,"byteLength":4112,"target":34962,"byteStride":8,"extensions":{"EXT_meshopt_compression":{"buffer":0,"byteOffset":273892,"byteLength":1619,"mode":"ATTRIBUTES","byteStride":8,"count":514}}},{"buffer":1,"byteOffset":573816,"byteLength":72396,"target":34962,"byteStride":12,"extensions":{"EXT_meshopt_compression":{"buffer":0,"byteOffset":275512,"byteLength":33097,"mode":"ATTRIBUTES","byteStride":12,"count":6033}}},{"buffer":1,"byteOffset":646212,"byteLength":72396,"target":34962,"byteStride":12,"extensions":{"EXT_meshopt_compression":{"buffer":0,"byteOffset":308612,"byteLength":1173,"mode":"ATTRIBUTES","byteStride":12,"count":6033}}},{"buffer":1,"byteOffset":718608,"byteLength":48264,"target":34962,"byteStride":8,"extensions":{"EXT_meshopt_compression":{"buffer":0,"byteOffset":309788,"byteLength":17780,"mode":"ATTRIBUTES","byteStride":8,"count":6033}}},{"buffer":1,"byteOffset":766872,"byteLength":6192,"target":34962,"byteStride":12,"extensions":{"EXT_meshopt_compression":{"buffer":0,"byteOffset":327568,"byteLength":3316,"mode":"ATTRIBUTES","byteStride":12,"count":516}}},{"buffer":1,"byteOffset":773064,"byteLength":6192,"target":34962,"byteStride":12,"extensions":{"EXT_meshopt_compression":{"buffer":0,"byteOffset":330884,"byteLength":141,"mode":"ATTRIBUTES","byteStride":12,"count":516}}},{"buffer":1,"byteOffset":779256,"byteLength":4128,"target":34962,"byteStride":8,"extensions":{"EXT_meshopt_compression":{"buffer":0,"byteOffset":331028,"byteLength":1637,"mode":"ATTRIBUTES","byteStride":8,"count":516}}},{"buffer":1,"byteOffset":783384,"byteLength":11220,"target":34962,"byteStride":12,"extensions":{"EXT_meshopt_compression":{"buffer":0,"byteOffset":332668,"byteLength":5869,"mode":"ATTRIBUTES","byteStride":12,"count":935}}},{"buffer":1,"byteOffset":794604,"byteLength":11220,"target":34962,"byteStride":12,"extensions":{"EXT_meshopt_compression":{"buffer":0,"byteOffset":338540,"byteLength":213,"mode":"ATTRIBUTES","byteStride":12,"count":935}}},{"buffer":1,"byteOffset":805824,"byteLength":7480,"target":34962,"byteStride":8,"extensions":{"EXT_meshopt_compression":{"buffer":0,"byteOffset":338756,"byteLength":2815,"mode":"ATTRIBUTES","byteStride":8,"count":935}}},{"buffer":1,"byteOffset":813304,"byteLength":1860,"target":34962,"byteStride":12,"extensions":{"EXT_meshopt_compression":{"buffer":0,"byteOffset":341572,"byteLength":1022,"mode":"ATTRIBUTES","byteStride":12,"count":155}}},{"buffer":1,"byteOffset":815164,"byteLength":1860,"target":34962,"byteStride":12,"extensions":{"EXT_meshopt_compression":{"buffer":0,"byteOffset":342596,"byteLength":1455,"mode":"ATTRIBUTES","byteStride":12,"count":155}}},{"buffer":1,"byteOffset":817024,"byteLength":1240,"target":34962,"byteStride":8,"extensions":{"EXT_meshopt_compression":{"buffer":0,"byteOffset":344052,"byteLength":1071,"mode":"ATTRIBUTES","byteStride":8,"count":155}}},{"buffer":1,"byteOffset":818264,"byteLength":1240,"target":34962,"byteStride":8,"extensions":{"EXT_meshopt_compression":{"buffer":0,"byteOffset":345124,"byteLength":638,"mode":"ATTRIBUTES","byteStride":8,"count":155}}},{"buffer":1,"byteOffset":819504,"byteLength":11364,"target":34962,"byteStride":12,"extensions":{"EXT_meshopt_compression":{"buffer":0,"byteOffset":345764,"byteLength":5690,"mode":"ATTRIBUTES","byteStride":12,"count":947}}},{"buffer":1,"byteOffset":830868,"byteLength":11364,"target":34962,"byteStride":12,"extensions":{"EXT_meshopt_compression":{"buffer":0,"byteOffset":351456,"byteLength":213,"mode":"ATTRIBUTES","byteStride":12,"count":947}}},{"buffer":1,"byteOffset":842232,"byteLength":7576,"target":34962,"byteStride":8,"extensions":{"EXT_meshopt_compression":{"buffer":0,"byteOffset":351672,"byteLength":2821,"mode":"ATTRIBUTES","byteStride":8,"count":947}}},{"buffer":1,"byteOffset":849808,"byteLength":198900,"target":34962,"byteStride":12,"extensions":{"EXT_meshopt_compression":{"buffer":0,"byteOffset":354496,"byteLength":74746,"mode":"ATTRIBUTES","byteStride":12,"count":16575}}},{"buffer":1,"byteOffset":1048708,"byteLength":198900,"target":34962,"byteStride":12,"extensions":{"EXT_meshopt_compression":{"buffer":0,"byteOffset":429244,"byteLength":125877,"mode":"ATTRIBUTES","byteStride":12,"count":16575}}},{"buffer":1,"byteOffset":1247608,"byteLength":132600,"target":34962,"byteStride":8,"extensions":{"EXT_meshopt_compression":{"buffer":0,"byteOffset":555124,"byteLength":40896,"mode":"ATTRIBUTES","byteStride":8,"count":16575}}},{"buffer":1,"byteOffset":1380208,"byteLength":105264,"target":34962,"byteStride":12,"extensions":{"EXT_meshopt_compression":{"buffer":0,"byteOffset":596020,"byteLength":43522,"mode":"ATTRIBUTES","byteStride":12,"count":8772}}},{"buffer":1,"byteOffset":1485472,"byteLength":105264,"target":34962,"byteStride":12,"extensions":{"EXT_meshopt_compression":{"buffer":0,"byteOffset":639544,"byteLength":15689,"mode":"ATTRIBUTES","byteStride":12,"count":8772}}},{"buffer":1,"byteOffset":1590736,"byteLength":70176,"target":34962,"byteStride":8,"extensions":{"EXT_meshopt_compression":{"buffer":0,"byteOffset":655236,"byteLength":35697,"mode":"ATTRIBUTES","byteStride":8,"count":8772}}},{"buffer":1,"byteOffset":1660912,"byteLength":96,"target":34962,"byteStride":12,"extensions":{"EXT_meshopt_compression":{"buffer":0,"byteOffset":690936,"byteLength":89,"mode":"ATTRIBUTES","byteStride":12,"count":8}}},{"buffer":1,"byteOffset":1661008,"byteLength":96,"target":34962,"byteStride":12,"extensions":{"EXT_meshopt_compression":{"buffer":0,"byteOffset":691028,"byteLength":50,"mode":"ATTRIBUTES","byteStride":12,"count":8}}},{"buffer":1,"byteOffset":1661104,"byteLength":64,"target":34962,"byteStride":8,"extensions":{"EXT_meshopt_compression":{"buffer":0,"byteOffset":691080,"byteLength":71,"mode":"ATTRIBUTES","byteStride":8,"count":8}}},{"buffer":1,"byteOffset":1661168,"byteLength":768,"target":34962,"byteStride":12,"extensions":{"EXT_meshopt_compression":{"buffer":0,"byteOffset":691152,"byteLength":324,"mode":"ATTRIBUTES","byteStride":12,"count":64}}},{"buffer":1,"byteOffset":1661936,"byteLength":768,"target":34962,"byteStride":12,"extensions":{"EXT_meshopt_compression":{"buffer":0,"byteOffset":691476,"byteLength":364,"mode":"ATTRIBUTES","byteStride":12,"count":64}}},{"buffer":1,"byteOffset":1662704,"byteLength":512,"target":34962,"byteStride":8,"extensions":{"EXT_meshopt_compression":{"buffer":0,"byteOffset":691840,"byteLength":186,"mode":"ATTRIBUTES","byteStride":8,"count":64}}},{"buffer":1,"byteOffset":1663216,"byteLength":768,"target":34962,"byteStride":12,"extensions":{"EXT_meshopt_compression":{"buffer":0,"byteOffset":692028,"byteLength":328,"mode":"ATTRIBUTES","byteStride":12,"count":64}}},{"buffer":1,"byteOffset":1663984,"byteLength":768,"target":34962,"byteStride":12,"extensions":{"EXT_meshopt_compression":{"buffer":0,"byteOffset":692356,"byteLength":364,"mode":"ATTRIBUTES","byteStride":12,"count":64}}},{"buffer":1,"byteOffset":1664752,"byteLength":512,"target":34962,"byteStride":8,"extensions":{"EXT_meshopt_compression":{"buffer":0,"byteOffset":692720,"byteLength":186,"mode":"ATTRIBUTES","byteStride":8,"count":64}}},{"buffer":1,"byteOffset":1665264,"byteLength":1860,"target":34962,"byteStride":12,"extensions":{"EXT_meshopt_compression":{"buffer":0,"byteOffset":692908,"byteLength":1022,"mode":"ATTRIBUTES","byteStride":12,"count":155}}},{"buffer":1,"byteOffset":1667124,"byteLength":1860,"target":34962,"byteStride":12,"extensions":{"EXT_meshopt_compression":{"buffer":0,"byteOffset":693932,"byteLength":1455,"mode":"ATTRIBUTES","byteStride":12,"count":155}}},{"buffer":1,"byteOffset":1668984,"byteLength":1240,"target":34962,"byteStride":8,"extensions":{"EXT_meshopt_compression":{"buffer":0,"byteOffset":695388,"byteLength":1071,"mode":"ATTRIBUTES","byteStride":8,"count":155}}},{"buffer":1,"byteOffset":1670224,"byteLength":1240,"target":34962,"byteStride":8,"extensions":{"EXT_meshopt_compression":{"buffer":0,"byteOffset":696460,"byteLength":638,"mode":"ATTRIBUTES","byteStride":8,"count":155}}},{"buffer":1,"byteOffset":1671464,"byteLength":15912,"target":34962,"byteStride":12,"extensions":{"EXT_meshopt_compression":{"buffer":0,"byteOffset":697100,"byteLength":10230,"mode":"ATTRIBUTES","byteStride":12,"count":1326}}},{"buffer":1,"byteOffset":1687376,"byteLength":15912,"target":34962,"byteStride":12,"extensions":{"EXT_meshopt_compression":{"buffer":0,"byteOffset":707332,"byteLength":12182,"mode":"ATTRIBUTES","byteStride":12,"count":1326}}},{"buffer":1,"byteOffset":1703288,"byteLength":10608,"target":34962,"byteStride":8,"extensions":{"EXT_meshopt_compression":{"buffer":0,"byteOffset":719516,"byteLength":7560,"mode":"ATTRIBUTES","byteStride":8,"count":1326}}},{"buffer":1,"byteOffset":1713896,"byteLength":10608,"target":34962,"byteStride":8,"extensions":{"EXT_meshopt_compression":{"buffer":0,"byteOffset":727076,"byteLength":7061,"mode":"ATTRIBUTES","byteStride":8,"count":1326}}},{"buffer":1,"byteOffset":1724504,"byteLength":10608,"target":34962,"byteStride":8,"extensions":{"EXT_meshopt_compression":{"buffer":0,"byteOffset":734140,"byteLength":6900,"mode":"ATTRIBUTES","byteStride":8,"count":1326}}},{"buffer":1,"byteOffset":1735112,"byteLength":10608,"target":34962,"byteStride":8,"extensions":{"EXT_meshopt_compression":{"buffer":0,"byteOffset":741040,"byteLength":6228,"mode":"ATTRIBUTES","byteStride":8,"count":1326}}},{"buffer":1,"byteOffset":1745720,"byteLength":14304,"target":34962,"byteStride":12,"extensions":{"EXT_meshopt_compression":{"buffer":0,"byteOffset":747268,"byteLength":8754,"mode":"ATTRIBUTES","byteStride":12,"count":1192}}},{"buffer":1,"byteOffset":1760024,"byteLength":14304,"target":34962,"byteStride":12,"extensions":{"EXT_meshopt_compression":{"buffer":0,"byteOffset":756024,"byteLength":10465,"mode":"ATTRIBUTES","byteStride":12,"count":1192}}},{"buffer":1,"byteOffset":1774328,"byteLength":9536,"target":34962,"byteStride":8,"extensions":{"EXT_meshopt_compression":{"buffer":0,"byteOffset":766492,"byteLength":6810,"mode":"ATTRIBUTES","byteStride":8,"count":1192}}},{"buffer":1,"byteOffset":1783864,"byteLength":9536,"target":34962,"byteStride":8,"extensions":{"EXT_meshopt_compression":{"buffer":0,"byteOffset":773304,"byteLength":6328,"mode":"ATTRIBUTES","byteStride":8,"count":1192}}},{"buffer":1,"byteOffset":1793400,"byteLength":9536,"target":34962,"byteStride":8,"extensions":{"EXT_meshopt_compression":{"buffer":0,"byteOffset":779632,"byteLength":6280,"mode":"ATTRIBUTES","byteStride":8,"count":1192}}},{"buffer":1,"byteOffset":1802936,"byteLength":9536,"target":34962,"byteStride":8,"extensions":{"EXT_meshopt_compression":{"buffer":0,"byteOffset":785912,"byteLength":5620,"mode":"ATTRIBUTES","byteStride":8,"count":1192}}},{"buffer":1,"byteOffset":1812472,"byteLength":38760,"target":34962,"byteStride":12,"extensions":{"EXT_meshopt_compression":{"buffer":0,"byteOffset":791532,"byteLength":18483,"mode":"ATTRIBUTES","byteStride":12,"count":3230}}},{"buffer":1,"byteOffset":1851232,"byteLength":38760,"target":34962,"byteStride":12,"extensions":{"EXT_meshopt_compression":{"buffer":0,"byteOffset":810016,"byteLength":34738,"mode":"ATTRIBUTES","byteStride":12,"count":3230}}},{"buffer":1,"byteOffset":1889992,"byteLength":7056,"target":34962,"byteStride":12,"extensions":{"EXT_meshopt_compression":{"buffer":0,"byteOffset":844756,"byteLength":1848,"mode":"ATTRIBUTES","byteStride":12,"count":588}}},{"buffer":1,"byteOffset":1897048,"byteLength":7056,"target":34962,"byteStride":12,"extensions":{"EXT_meshopt_compression":{"buffer":0,"byteOffset":846604,"byteLength":5827,"mode":"ATTRIBUTES","byteStride":12,"count":588}}},{"buffer":1,"byteOffset":1904104,"byteLength":8760,"target":34962,"byteStride":12,"extensions":{"EXT_meshopt_compression":{"buffer":0,"byteOffset":852432,"byteLength":4464,"mode":"ATTRIBUTES","byteStride":12,"count":730}}},{"buffer":1,"byteOffset":1912864,"byteLength":8760,"target":34962,"byteStride":12,"extensions":{"EXT_meshopt_compression":{"buffer":0,"byteOffset":856896,"byteLength":6185,"mode":"ATTRIBUTES","byteStride":12,"count":730}}},{"buffer":1,"byteOffset":1921624,"byteLength":5840,"target":34962,"byteStride":8,"extensions":{"EXT_meshopt_compression":{"buffer":0,"byteOffset":863084,"byteLength":2354,"mode":"ATTRIBUTES","byteStride":8,"count":730}}},{"buffer":1,"byteOffset":1927464,"byteLength":26136,"target":34962,"byteStride":12,"extensions":{"EXT_meshopt_compression":{"buffer":0,"byteOffset":865440,"byteLength":15214,"mode":"ATTRIBUTES","byteStride":12,"count":2178}}},{"buffer":1,"byteOffset":1953600,"byteLength":26136,"target":34962,"byteStride":12,"extensions":{"EXT_meshopt_compression":{"buffer":0,"byteOffset":880656,"byteLength":21378,"mode":"ATTRIBUTES","byteStride":12,"count":2178}}},{"buffer":1,"byteOffset":1979736,"byteLength":17424,"target":34962,"byteStride":8,"extensions":{"EXT_meshopt_compression":{"buffer":0,"byteOffset":902036,"byteLength":6858,"mode":"ATTRIBUTES","byteStride":8,"count":2178}}},{"buffer":1,"byteOffset":1997160,"byteLength":49752,"target":34962,"byteStride":12,"extensions":{"EXT_meshopt_compression":{"buffer":0,"byteOffset":908896,"byteLength":19004,"mode":"ATTRIBUTES","byteStride":12,"count":4146}}},{"buffer":1,"byteOffset":2046912,"byteLength":49752,"target":34962,"byteStride":12,"extensions":{"EXT_meshopt_compression":{"buffer":0,"byteOffset":927900,"byteLength":31921,"mode":"ATTRIBUTES","byteStride":12,"count":4146}}},{"buffer":1,"byteOffset":2096664,"byteLength":33168,"target":34962,"byteStride":8,"extensions":{"EXT_meshopt_compression":{"buffer":0,"byteOffset":959824,"byteLength":9943,"mode":"ATTRIBUTES","byteStride":8,"count":4146}}},{"buffer":1,"byteOffset":2129832,"byteLength":116880,"target":34962,"byteStride":12,"extensions":{"EXT_meshopt_compression":{"buffer":0,"byteOffset":969768,"byteLength":48147,"mode":"ATTRIBUTES","byteStride":12,"count":9740}}},{"buffer":1,"byteOffset":2246712,"byteLength":116880,"target":34962,"byteStride":12,"extensions":{"EXT_meshopt_compression":{"buffer":0,"byteOffset":1017916,"byteLength":77224,"mode":"ATTRIBUTES","byteStride":12,"count":9740}}},{"buffer":1,"byteOffset":2363592,"byteLength":77920,"target":34962,"byteStride":8,"extensions":{"EXT_meshopt_compression":{"buffer":0,"byteOffset":1095140,"byteLength":24008,"mode":"ATTRIBUTES","byteStride":8,"count":9740}}},{"buffer":1,"byteOffset":2441512,"byteLength":38760,"target":34962,"byteStride":12,"extensions":{"EXT_meshopt_compression":{"buffer":0,"byteOffset":1119148,"byteLength":18483,"mode":"ATTRIBUTES","byteStride":12,"count":3230}}},{"buffer":1,"byteOffset":2480272,"byteLength":38760,"target":34962,"byteStride":12,"extensions":{"EXT_meshopt_compression":{"buffer":0,"byteOffset":1137632,"byteLength":34738,"mode":"ATTRIBUTES","byteStride":12,"count":3230}}},{"buffer":1,"byteOffset":2519032,"byteLength":12792,"target":34962,"byteStride":12,"extensions":{"EXT_meshopt_compression":{"buffer":0,"byteOffset":1172372,"byteLength":6745,"mode":"ATTRIBUTES","byteStride":12,"count":1066}}},{"buffer":1,"byteOffset":2531824,"byteLength":12792,"target":34962,"byteStride":12,"extensions":{"EXT_meshopt_compression":{"buffer":0,"byteOffset":1179120,"byteLength":4150,"mode":"ATTRIBUTES","byteStride":12,"count":1066}}},{"buffer":1,"byteOffset":2544616,"byteLength":8528,"target":34962,"byteStride":8,"extensions":{"EXT_meshopt_compression":{"buffer":0,"byteOffset":1183272,"byteLength":3729,"mode":"ATTRIBUTES","byteStride":8,"count":1066}}},{"buffer":1,"byteOffset":2553144,"byteLength":25608,"target":34962,"byteStride":12,"extensions":{"EXT_meshopt_compression":{"buffer":0,"byteOffset":1187004,"byteLength":11235,"mode":"ATTRIBUTES","byteStride":12,"count":2134}}},{"buffer":1,"byteOffset":2578752,"byteLength":25608,"target":34962,"byteStride":12,"extensions":{"EXT_meshopt_compression":{"buffer":0,"byteOffset":1198240,"byteLength":3086,"mode":"ATTRIBUTES","byteStride":12,"count":2134}}},{"buffer":1,"byteOffset":2604360,"byteLength":17072,"target":34962,"byteStride":8,"extensions":{"EXT_meshopt_compression":{"buffer":0,"byteOffset":1201328,"byteLength":7727,"mode":"ATTRIBUTES","byteStride":8,"count":2134}}},{"buffer":1,"byteOffset":2621432,"byteLength":113640,"target":34962,"byteStride":12,"extensions":{"EXT_meshopt_compression":{"buffer":0,"byteOffset":1209056,"byteLength":46478,"mode":"ATTRIBUTES","byteStride":12,"count":9470}}},{"buffer":1,"byteOffset":2735072,"byteLength":113640,"target":34962,"byteStride":12,"extensions":{"EXT_meshopt_compression":{"buffer":0,"byteOffset":1255536,"byteLength":4266,"mode":"ATTRIBUTES","byteStride":12,"count":9470}}},{"buffer":1,"byteOffset":2848712,"byteLength":75760,"target":34962,"byteStride":8,"extensions":{"EXT_meshopt_compression":{"buffer":0,"byteOffset":1259804,"byteLength":33151,"mode":"ATTRIBUTES","byteStride":8,"count":9470}}},{"buffer":1,"byteOffset":2924472,"byteLength":60096,"target":34962,"byteStride":12,"extensions":{"EXT_meshopt_compression":{"buffer":0,"byteOffset":1292956,"byteLength":26784,"mode":"ATTRIBUTES","byteStride":12,"count":5008}}},{"buffer":1,"byteOffset":2984568,"byteLength":60096,"target":34962,"byteStride":12,"extensions":{"EXT_meshopt_compression":{"buffer":0,"byteOffset":1319740,"byteLength":5547,"mode":"ATTRIBUTES","byteStride":12,"count":5008}}},{"buffer":1,"byteOffset":3044664,"byteLength":40064,"target":34962,"byteStride":8,"extensions":{"EXT_meshopt_compression":{"buffer":0,"byteOffset":1325288,"byteLength":17800,"mode":"ATTRIBUTES","byteStride":8,"count":5008}}}],"samplers":[{"magFilter":9729,"minFilter":9987,"wrapS":10497,"wrapT":10497},{"magFilter":9729,"minFilter":9987,"wrapS":33071,"wrapT":33071}],"textures":[{"sampler":0,"extensions":{"EXT_texture_webp":{"source":0}}},{"sampler":0,"extensions":{"EXT_texture_webp":{"source":1}}},{"sampler":0,"extensions":{"EXT_texture_webp":{"source":3}}},{"sampler":0,"extensions":{"EXT_texture_webp":{"source":2}}},{"sampler":0,"extensions":{"EXT_texture_webp":{"source":4}}},{"sampler":0,"extensions":{"EXT_texture_webp":{"source":6}}},{"sampler":0,"extensions":{"EXT_texture_webp":{"source":5}}},{"sampler":1,"extensions":{"EXT_texture_webp":{"source":9}}},{"sampler":0,"extensions":{"EXT_texture_webp":{"source":8}}},{"sampler":0,"extensions":{"EXT_texture_webp":{"source":7}}}],"images":[{"name":"book_pattern_nor_gl_2k","mimeType":"image/webp","uri":"shared/8de172b46ec41fd3863b660a.webp"},{"name":"book_pattern_rough_2k","mimeType":"image/webp","uri":"shared/a04d51bd9431742f3e8e78f4.webp"},{"name":"Paper001_2K-JPG_NormalGL","mimeType":"image/webp","uri":"shared/a4ffc7b7fc49def2917e39f5.webp"},{"name":"Paper001_2K-JPG_Color","mimeType":"image/webp","uri":"shared/75262c983a496cb7fcdc6c19.webp"},{"name":"Paper001_2K-JPG_Roughness","mimeType":"image/webp","uri":"shared/49f61cb86539e805ce6a1ee3.webp"},{"name":"compressed-paper-normal","mimeType":"image/webp","uri":"shared/339c1ac519928878fbaa1237.webp"},{"name":"compressed-paper-color","mimeType":"image/webp","uri":"shared/7701c62282fa7f26c46af450.webp"},{"name":"the-republic_print_orm","mimeType":"image/webp","uri":"shared/4ee0b3d4ab6cf30b27837997.webp"},{"name":"the-republic_print_normal","mimeType":"image/webp","uri":"shared/ef8d33b5a5dcf16eebd730ad.webp"},{"name":"edition-the-republic","mimeType":"image/webp","uri":"shared/f2ea7f1be1e4828de1c077f9.webp"}],"buffers":[{"uri":"shared/0bc347f00dbffdb124324b38.bin","byteLength":1343088},{"byteLength":3084728,"extensions":{"EXT_meshopt_compression":{"fallback":true}}}],"materials":[{"name":"the-republic case material.002","doubleSided":true,"pbrMetallicRoughness":{"baseColorFactor":[0.8549926280975342,0.8148465752601624,0.6938717365264893,1],"metallicFactor":0,"metallicRoughnessTexture":{"index":1}},"normalTexture":{"index":0,"scale":0.05999999865889549}},{"name":"MAT_the-republic_BackInk","doubleSided":true,"pbrMetallicRoughness":{"baseColorFactor":[0.02500000037252903,0.03200000151991844,0.027000000700354576,1],"roughnessFactor":0.7200000286102295,"metallicFactor":0}},{"name":"MAT_the-republic_Stamped_Ink.002","doubleSided":true,"pbrMetallicRoughness":{"baseColorFactor":[0.02500000037252903,0.03200000151991844,0.027000000700354576,1],"roughnessFactor":0.3400000035762787,"metallicFactor":0},"extensions":{"KHR_materials_clearcoat":{"clearcoatFactor":0.44999998807907104,"clearcoatRoughnessFactor":0.20000000298023224}}},{"name":"MAT_Uncoated_Paper_Fibre","doubleSided":true,"pbrMetallicRoughness":{"metallicFactor":0,"baseColorTexture":{"index":2,"texCoord":1},"metallicRoughnessTexture":{"index":4,"texCoord":1}},"normalTexture":{"index":3,"texCoord":1,"scale":0.07000000029802322}},{"name":"MAT_the-republic_Stamped_Ink.003","doubleSided":true,"pbrMetallicRoughness":{"baseColorFactor":[0.18447498977184296,0.0802198201417923,0.06847816705703735,1],"roughnessFactor":0.3400000035762787,"metallicFactor":0},"extensions":{"KHR_materials_clearcoat":{"clearcoatFactor":0.44999998807907104,"clearcoatRoughnessFactor":0.20000000298023224}}},{"name":"Compressed paper cut surface","doubleSided":true,"pbrMetallicRoughness":{"roughnessFactor":0.8999999761581421,"metallicFactor":0,"baseColorTexture":{"index":5}},"normalTexture":{"index":6}},{"name":"Compressed ivory stock 2","doubleSided":true,"pbrMetallicRoughness":{"baseColorFactor":[0.7279999852180481,0.7129999995231628,0.656000018119812,1],"roughnessFactor":0.8600000143051147,"metallicFactor":0}},{"name":"MAT_the-republic_Registered_Print.001","extras":{"surface_finish":"Registered print, selective varnish"},"doubleSided":true,"pbrMetallicRoughness":{"baseColorTexture":{"index":7,"texCoord":1},"metallicRoughnessTexture":{"index":9,"texCoord":1}},"normalTexture":{"index":8,"texCoord":1},"extensions":{"KHR_materials_clearcoat":{"clearcoatFactor":1,"clearcoatRoughnessFactor":0.23999999463558197,"clearcoatTexture":{"index":9,"texCoord":1}}}},{"name":"Endband cotton ecru","doubleSided":true,"pbrMetallicRoughness":{"baseColorFactor":[0.5,0.46000000834465027,0.3499999940395355,1],"roughnessFactor":0.8799999952316284,"metallicFactor":0}},{"name":"Binding linen warm ecru","doubleSided":true,"pbrMetallicRoughness":{"baseColorFactor":[0.3799999952316284,0.3400000035762787,0.25999999046325684,1],"roughnessFactor":0.9300000071525574,"metallicFactor":0}},{"name":"the-republic woven ribbon.002","doubleSided":true,"pbrMetallicRoughness":{"baseColorFactor":[0.18447498977184296,0.0802198201417923,0.06847816705703735,1],"metallicFactor":0,"metallicRoughnessTexture":{"index":1}},"normalTexture":{"index":0,"scale":1.149999976158142},"extensions":{"KHR_materials_sheen":{"sheenColorFactor":[1,1,1],"sheenRoughnessFactor":0.5}}},{"name":"MAT_Uncoated_Paper_Fibre","doubleSided":true,"pbrMetallicRoughness":{"metallicFactor":0,"baseColorTexture":{"index":2},"metallicRoughnessTexture":{"index":4}},"normalTexture":{"index":3,"scale":0.07000000029802322}},{"name":"the-republic printed ink.002","doubleSided":true,"pbrMetallicRoughness":{"baseColorFactor":[0.040915198624134064,0.03310476616024971,0.019382361322641373,1],"roughnessFactor":0.8999999761581421,"metallicFactor":0}}],"meshes":[{"name":"Pressed case joint Back board.030","primitives":[{"attributes":{"POSITION":0,"NORMAL":1,"TEXCOORD_0":2},"mode":4,"material":0,"indices":3}]},{"name":"Back collection.006","primitives":[{"attributes":{"POSITION":4,"NORMAL":5,"TEXCOORD_0":6},"mode":4,"material":1,"indices":7}]},{"name":"Back description.006","primitives":[{"attributes":{"POSITION":8,"NORMAL":9,"TEXCOORD_0":10},"mode":4,"material":1,"indices":11}]},{"name":"Back edition.006","primitives":[{"attributes":{"POSITION":12,"NORMAL":13,"TEXCOORD_0":14},"mode":4,"material":2,"indices":15}]},{"name":"Back ISBN.006","primitives":[{"attributes":{"POSITION":16,"NORMAL":17,"TEXCOORD_0":18},"mode":4,"material":1,"indices":19}]},{"name":"Back pastedown.030","primitives":[{"attributes":{"POSITION":20,"NORMAL":21,"TEXCOORD_0":22,"TEXCOORD_1":23},"mode":4,"material":3,"indices":24}]},{"name":"Back title.006","primitives":[{"attributes":{"POSITION":25,"NORMAL":26,"TEXCOORD_0":27},"mode":4,"material":2,"indices":28}]},{"name":"Collection mark.022","primitives":[{"attributes":{"POSITION":29,"NORMAL":30,"TEXCOORD_0":31},"mode":4,"material":4,"indices":32}]},{"name":"Continuous compressed cut the-republic.003","primitives":[{"attributes":{"POSITION":33,"NORMAL":34,"TEXCOORD_0":35},"mode":4,"material":5,"indices":36},{"attributes":{"POSITION":37,"NORMAL":38,"TEXCOORD_0":39},"mode":4,"material":6,"indices":40}]},{"name":"Curved foil rule.044","primitives":[{"attributes":{"POSITION":41,"NORMAL":42,"TEXCOORD_0":43},"mode":4,"material":4,"indices":44}]},{"name":"Curved foil rule.045","primitives":[{"attributes":{"POSITION":45,"NORMAL":46,"TEXCOORD_0":47},"mode":4,"material":4,"indices":44}]},{"name":"Front pastedown.030","primitives":[{"attributes":{"POSITION":48,"NORMAL":49,"TEXCOORD_0":50,"TEXCOORD_1":51},"mode":4,"material":3,"indices":24}]},{"name":"Pressed case joint Wrapped printed cover.005","primitives":[{"attributes":{"POSITION":52,"NORMAL":53,"TEXCOORD_0":54,"TEXCOORD_1":55,"TEXCOORD_2":56,"TEXCOORD_3":57},"mode":4,"material":7,"indices":58},{"attributes":{"POSITION":59,"NORMAL":60,"TEXCOORD_0":61,"TEXCOORD_1":62,"TEXCOORD_2":63,"TEXCOORD_3":64},"mode":4,"material":0,"indices":65}]},{"name":"Head textile endband the-republic.004","primitives":[{"attributes":{"POSITION":66,"NORMAL":67},"mode":4,"material":8,"indices":68}]},{"name":"Linen spine lining the-republic.004","primitives":[{"attributes":{"POSITION":69,"NORMAL":70},"mode":4,"material":9,"indices":71}]},{"name":"Ribbon flexible satin the-republic.004","primitives":[{"attributes":{"POSITION":72,"NORMAL":73,"TEXCOORD_0":74},"mode":4,"material":10,"indices":75}]},{"name":"Rounded cloth spine.030","primitives":[{"attributes":{"POSITION":76,"NORMAL":77,"TEXCOORD_0":78},"mode":4,"material":0,"indices":79}]},{"name":"Spine author.022","primitives":[{"attributes":{"POSITION":80,"NORMAL":81,"TEXCOORD_0":82},"mode":4,"material":4,"indices":83}]},{"name":"Spine title.030","primitives":[{"attributes":{"POSITION":84,"NORMAL":85,"TEXCOORD_0":86},"mode":4,"material":4,"indices":87}]},{"name":"Tail textile endband the-republic.004","primitives":[{"attributes":{"POSITION":88,"NORMAL":89},"mode":4,"material":8,"indices":68}]},{"name":"Flexible paper.006","primitives":[{"attributes":{"POSITION":90,"NORMAL":91,"TEXCOORD_0":92},"mode":4,"material":11,"indices":93}]},{"name":"Interior author.030","primitives":[{"attributes":{"POSITION":94,"NORMAL":95,"TEXCOORD_0":96},"mode":4,"material":12,"indices":97}]},{"name":"Interior imprint.030","primitives":[{"attributes":{"POSITION":98,"NORMAL":99,"TEXCOORD_0":100},"mode":4,"material":12,"indices":101}]},{"name":"Interior title.030","primitives":[{"attributes":{"POSITION":102,"NORMAL":103,"TEXCOORD_0":104},"mode":4,"material":12,"indices":105}]}],"nodes":[{"name":"Back board.030","extras":{"edge_refined":true,"unpressed_mesh":"Back board.038","pressed_joint_revision":1,"joint_depth_mm":1.0365870877235217,"joint_center_mm":6.4},"translation":[0,0,-0.13449999690055847],"mesh":0},{"name":"Back collection.006","translation":[0,-0.48767998814582825,-0.14650000631809235],"rotation":[0,-0.7071068286895752,0.7071068286895752,3.090862321641907e-8],"mesh":1},{"name":"Back description.006","translation":[0,0.05079999938607216,-0.14650000631809235],"rotation":[0,-0.7071068286895752,0.7071068286895752,3.090862321641907e-8],"mesh":2},{"name":"Back edition.006","translation":[0,-0.6908800005912781,-0.14650000631809235],"rotation":[0,-0.7071068286895752,0.7071068286895752,3.090862321641907e-8],"mesh":3},{"name":"Back ISBN.006","translation":[0,-0.7924799919128418,-0.14650000631809235],"rotation":[0,-0.7071068286895752,0.7071068286895752,3.090862321641907e-8],"mesh":4},{"name":"Back pastedown.030","translation":[0,0,-0.12300000339746475],"mesh":5},{"name":"Back title.006","translation":[0,0.5892800092697144,-0.14650000631809235],"rotation":[0,-0.7071068286895752,0.7071068286895752,3.090862321641907e-8],"mesh":6},{"name":"Collection mark.022","mesh":7},{"name":"Compressed paper signatures the-republic.003","extras":{"paper_surface_revision":1,"leaf_count":204,"paper_caliper_mm":0.11078431372549022,"binding_structure":"Rounded and backed signatures"},"mesh":8},{"name":"Curved foil rule.044","mesh":9},{"name":"Curved foil rule.045","mesh":10},{"name":"Front pastedown.030","translation":[0.6349999904632568,0,-0.01149999350309372],"mesh":11},{"name":"Wrapped printed cover.005","extras":{"edge_refined":true,"unpressed_mesh":"Front board.038","pressed_joint_revision":1,"joint_depth_mm":1.1145299033797595,"joint_center_mm":6.4},"translation":[0.6349999904632568,0,0],"mesh":12},{"name":"FrontHinge.030","translation":[-0.6349999904632568,0,0.13449999690055847],"children":[11,12]},{"name":"Head textile endband the-republic.004","extras":{"binding_revision":2},"mesh":13},{"name":"Linen spine lining the-republic.004","extras":{"binding_revision":2},"mesh":14},{"name":"Ribbon flexible satin the-republic.004","extras":{"binding_revision":2,"ribbon_width_dm":0.043,"ribbon_length_dm":0.29,"ribbon_anchor_dm":[0,-1.008,0.006]},"mesh":15},{"name":"Rounded cloth spine.030","mesh":16},{"name":"Spine author.022","mesh":17},{"name":"Spine title.030","mesh":18},{"name":"Tail textile endband the-republic.004","extras":{"binding_revision":2},"mesh":19},{"name":"Curved title leaf.006","mesh":20},{"name":"Interior author.030","mesh":21},{"name":"Interior imprint.030","mesh":22},{"name":"Interior title.030","mesh":23},{"name":"TurningLeaf.006","translation":[-0.5899999737739563,0,0.11550000309944153],"children":[21,22,23,24]},{"name":"Publisher_the-republic.001","extras":{"slug":"the-republic","dimensions_mm":[127,203.2,29],"model_design":"Publisher front artwork on a showcase binding; spine and interior are custom reconstructions"},"scale":[0.09676193445920944,0.09999362379312515,0.09969228506088257],"children":[0,1,2,3,4,5,6,7,8,9,10,13,14,15,16,17,18,19,20,25]}],"scenes":[{"name":"Library Publisher Editions.001","nodes":[26]}],"scene":0,"extensionsUsed":["EXT_meshopt_compression","EXT_texture_webp","KHR_materials_clearcoat","KHR_materials_sheen"],"extensionsRequired":["EXT_meshopt_compression","EXT_texture_webp"]}