{"asset":{"generator":"glTF-Transform v4.5.0","version":"2.0"},"accessors":[{"type":"VEC3","componentType":5126,"count":2392,"max":[0.6347571015357971,1.015763759613037,0.01083111111074686],"min":[-0.6347571015357971,-1.015763759613037,-0.01083111111074686],"normalized":false,"byteOffset":0,"bufferView":0},{"type":"VEC3","componentType":5126,"count":2392,"normalized":false,"byteOffset":0,"bufferView":1},{"type":"VEC2","componentType":5126,"count":2392,"normalized":false,"byteOffset":0,"bufferView":2},{"type":"SCALAR","componentType":5123,"count":12588,"normalized":false,"byteOffset":0,"bufferView":3},{"type":"VEC3","componentType":5126,"count":514,"max":[0.1009504571557045,0,0.0053944955579936504],"min":[-0.09995229542255402,0,-0.005732110235840082],"normalized":false,"byteOffset":0,"bufferView":4},{"type":"VEC3","componentType":5126,"count":514,"normalized":false,"byteOffset":0,"bufferView":5},{"type":"SCALAR","componentType":5123,"count":1482,"normalized":false,"byteOffset":25176,"bufferView":3},{"type":"VEC3","componentType":5126,"count":6033,"max":[0.18982015550136566,0,0.050225019454956055],"min":[-0.18969152867794037,0,-0.0509968101978302],"normalized":false,"byteOffset":0,"bufferView":6},{"type":"VEC3","componentType":5126,"count":6033,"normalized":false,"byteOffset":0,"bufferView":7},{"type":"SCALAR","componentType":5123,"count":17787,"normalized":false,"byteOffset":28140,"bufferView":3},{"type":"VEC3","componentType":5126,"count":516,"max":[0.0995934009552002,0,0.00647339504212141],"min":[-0.0983075276017189,0,-0.006878532003611326],"normalized":false,"byteOffset":0,"bufferView":8},{"type":"VEC3","componentType":5126,"count":516,"normalized":false,"byteOffset":0,"bufferView":9},{"type":"SCALAR","componentType":5123,"count":1488,"normalized":false,"byteOffset":63714,"bufferView":3},{"type":"VEC3","componentType":5126,"count":935,"max":[0.07696018368005753,0,0.005671926308423281],"min":[-0.0783858671784401,0,-0.0060187154449522495],"normalized":false,"byteOffset":0,"bufferView":10},{"type":"VEC3","componentType":5126,"count":935,"normalized":false,"byteOffset":0,"bufferView":11},{"type":"SCALAR","componentType":5123,"count":2763,"normalized":false,"byteOffset":66690,"bufferView":3},{"type":"VEC3","componentType":5126,"count":947,"max":[0.12089777737855911,0,0.023399895057082176],"min":[-0.12069579213857651,0,-0.016835398972034454],"normalized":false,"byteOffset":0,"bufferView":12},{"type":"VEC3","componentType":5126,"count":947,"normalized":false,"byteOffset":0,"bufferView":13},{"type":"SCALAR","componentType":5123,"count":2799,"normalized":false,"byteOffset":72216,"bufferView":3},{"type":"VEC3","componentType":5126,"count":16575,"max":[-0.6786345839500427,-0.6202671527862549,0.010499999858438969],"min":[-0.6792500019073486,-0.9240528345108032,-0.010499999858438969],"normalized":false,"byteOffset":0,"bufferView":14},{"type":"VEC3","componentType":5126,"count":16575,"normalized":false,"byteOffset":0,"bufferView":15},{"type":"SCALAR","componentType":5123,"count":25032,"normalized":false,"byteOffset":77814,"bufferView":3},{"type":"VEC3","componentType":5126,"count":8772,"max":[0.6079999804496765,0.9880993366241455,0.11299999803304672],"min":[-0.6480000019073486,-0.988082766532898,-0.11299999803304672],"normalized":false,"byteOffset":0,"bufferView":16},{"type":"VEC3","componentType":5126,"count":8772,"normalized":false,"byteOffset":0,"bufferView":17},{"type":"VEC2","componentType":5126,"count":8772,"normalized":false,"byteOffset":0,"bufferView":18},{"type":"SCALAR","componentType":5123,"count":49152,"normalized":false,"byteOffset":127878,"bufferView":3},{"type":"VEC3","componentType":5126,"count":8,"max":[0.6079999804496765,0.9879999756813049,0.11299999803304672],"min":[-0.625,-0.9879999756813049,-0.11299999803304672],"normalized":false,"byteOffset":0,"bufferView":19},{"type":"VEC3","componentType":5126,"count":8,"normalized":false,"byteOffset":0,"bufferView":20},{"type":"SCALAR","componentType":5123,"count":12,"normalized":false,"byteOffset":226182,"bufferView":3},{"type":"VEC3","componentType":5126,"count":64,"max":[-0.6596047282218933,-0.5476400256156921,0.08607999980449677],"min":[-0.679099977016449,-0.5496399998664856,-0.08607999980449677],"normalized":false,"byteOffset":0,"bufferView":21},{"type":"VEC3","componentType":5126,"count":64,"normalized":false,"byteOffset":0,"bufferView":22},{"type":"SCALAR","componentType":5123,"count":96,"normalized":false,"byteOffset":226206,"bufferView":3},{"type":"VEC3","componentType":5126,"count":64,"max":[-0.6596047282218933,0.4683600068092346,0.08607999980449677],"min":[-0.679099977016449,0.4663600027561188,-0.08607999980449677],"normalized":false,"byteOffset":0,"bufferView":23},{"type":"VEC3","componentType":5126,"count":64,"normalized":false,"byteOffset":0,"bufferView":24},{"type":"VEC3","componentType":5126,"count":1326,"max":[0.6347570419311523,1.0157629251480103,0.01164552103728056],"min":[-0.6347570419311523,-1.0157629251480103,-0.0092870919033885],"normalized":false,"byteOffset":0,"bufferView":25},{"type":"VEC3","componentType":5126,"count":1326,"normalized":false,"byteOffset":0,"bufferView":26},{"type":"VEC2","componentType":5126,"count":1326,"normalized":false,"byteOffset":0,"bufferView":27},{"type":"SCALAR","componentType":5123,"count":6720,"normalized":false,"byteOffset":226398,"bufferView":3},{"type":"VEC3","componentType":5126,"count":1192,"max":[0.6347570419311523,1.0157629251480103,-0.0045584384351968765],"min":[-0.6347570419311523,-1.0157629251480103,-0.011645521968603134],"normalized":false,"byteOffset":0,"bufferView":28},{"type":"VEC3","componentType":5126,"count":1192,"normalized":false,"byteOffset":0,"bufferView":29},{"type":"VEC2","componentType":5126,"count":1192,"normalized":false,"byteOffset":0,"bufferView":30},{"type":"SCALAR","componentType":5123,"count":5940,"normalized":false,"byteOffset":239838,"bufferView":3},{"type":"VEC3","componentType":5126,"count":3230,"max":[-0.6197500228881836,0.9910420179367065,0.11299999803304672],"min":[-0.6512491106987,0.9829580187797546,-0.11299999803304672],"normalized":false,"byteOffset":0,"bufferView":31},{"type":"VEC3","componentType":5126,"count":3230,"normalized":false,"byteOffset":0,"bufferView":32},{"type":"SCALAR","componentType":5123,"count":19320,"normalized":false,"byteOffset":251718,"bufferView":3},{"type":"VEC3","componentType":5126,"count":588,"max":[-0.6256777048110962,0.9760000109672546,0.11299999803304672],"min":[-0.6510000228881836,-0.9760000109672546,-0.11299999803304672],"normalized":false,"byteOffset":0,"bufferView":33},{"type":"VEC3","componentType":5126,"count":588,"normalized":false,"byteOffset":0,"bufferView":34},{"type":"SCALAR","componentType":5123,"count":1164,"normalized":false,"byteOffset":290358,"bufferView":3},{"type":"VEC3","componentType":5126,"count":730,"max":[0.02171694114804268,-1.0079991817474365,0.02216394618153572],"min":[-0.02171694114804268,-1.2979999780654907,0.006000000052154064],"normalized":false,"byteOffset":0,"bufferView":35},{"type":"VEC3","componentType":5126,"count":730,"normalized":false,"byteOffset":0,"bufferView":36},{"type":"VEC2","componentType":5126,"count":730,"normalized":false,"byteOffset":0,"bufferView":37},{"type":"SCALAR","componentType":5123,"count":4368,"normalized":false,"byteOffset":292686,"bufferView":3},{"type":"VEC3","componentType":5126,"count":2178,"max":[-0.6271504759788513,1.0160653591156006,0.13449999690055847],"min":[-0.6774996519088745,-1.0160642862319946,-0.13449999690055847],"normalized":false,"byteOffset":0,"bufferView":38},{"type":"VEC3","componentType":5126,"count":2178,"normalized":false,"byteOffset":0,"bufferView":39},{"type":"VEC2","componentType":5126,"count":2178,"normalized":false,"byteOffset":0,"bufferView":40},{"type":"SCALAR","componentType":5123,"count":13056,"normalized":false,"byteOffset":301422,"bufferView":3},{"type":"VEC3","componentType":5126,"count":4146,"max":[-0.6784668564796448,0.7678422331809998,0.013000000268220901],"min":[-0.6792500019073486,0.6545577645301819,-0.013000000268220901],"normalized":false,"byteOffset":0,"bufferView":41},{"type":"VEC3","componentType":5126,"count":4146,"normalized":false,"byteOffset":0,"bufferView":42},{"type":"SCALAR","componentType":5123,"count":6276,"normalized":false,"byteOffset":327534,"bufferView":3},{"type":"VEC3","componentType":5126,"count":9740,"max":[-0.6766449213027954,0.1711287796497345,0.02850000001490116],"min":[-0.6792500019073486,-0.1711287796497345,-0.02850000001490116],"normalized":false,"byteOffset":0,"bufferView":43},{"type":"VEC3","componentType":5126,"count":9740,"normalized":false,"byteOffset":0,"bufferView":44},{"type":"SCALAR","componentType":5123,"count":14664,"normalized":false,"byteOffset":340086,"bufferView":3},{"type":"VEC3","componentType":5126,"count":3230,"max":[-0.6197500228881836,-0.9829580187797546,0.11299999803304672],"min":[-0.6512491106987,-0.9910420179367065,-0.11299999803304672],"normalized":false,"byteOffset":0,"bufferView":45},{"type":"VEC3","componentType":5126,"count":3230,"normalized":false,"byteOffset":0,"bufferView":46}],"bufferViews":[{"buffer":1,"byteOffset":0,"byteLength":28704,"target":34962,"byteStride":12,"extensions":{"EXT_meshopt_compression":{"buffer":0,"byteOffset":0,"byteLength":17183,"mode":"ATTRIBUTES","byteStride":12,"count":2392}}},{"buffer":1,"byteOffset":28704,"byteLength":28704,"target":34962,"byteStride":12,"extensions":{"EXT_meshopt_compression":{"buffer":0,"byteOffset":17184,"byteLength":21554,"mode":"ATTRIBUTES","byteStride":12,"count":2392}}},{"buffer":1,"byteOffset":57408,"byteLength":19136,"target":34962,"byteStride":8,"extensions":{"EXT_meshopt_compression":{"buffer":0,"byteOffset":38740,"byteLength":13504,"mode":"ATTRIBUTES","byteStride":8,"count":2392}}},{"buffer":1,"byteOffset":76544,"byteLength":369414,"target":34963,"extensions":{"EXT_meshopt_compression":{"buffer":0,"byteOffset":52244,"byteLength":167869,"mode":"TRIANGLES","byteStride":2,"count":184707}}},{"buffer":1,"byteOffset":445960,"byteLength":6168,"target":34962,"byteStride":12,"extensions":{"EXT_meshopt_compression":{"buffer":0,"byteOffset":220116,"byteLength":3261,"mode":"ATTRIBUTES","byteStride":12,"count":514}}},{"buffer":1,"byteOffset":452128,"byteLength":6168,"target":34962,"byteStride":12,"extensions":{"EXT_meshopt_compression":{"buffer":0,"byteOffset":223380,"byteLength":141,"mode":"ATTRIBUTES","byteStride":12,"count":514}}},{"buffer":1,"byteOffset":458296,"byteLength":72396,"target":34962,"byteStride":12,"extensions":{"EXT_meshopt_compression":{"buffer":0,"byteOffset":223524,"byteLength":33097,"mode":"ATTRIBUTES","byteStride":12,"count":6033}}},{"buffer":1,"byteOffset":530692,"byteLength":72396,"target":34962,"byteStride":12,"extensions":{"EXT_meshopt_compression":{"buffer":0,"byteOffset":256624,"byteLength":1173,"mode":"ATTRIBUTES","byteStride":12,"count":6033}}},{"buffer":1,"byteOffset":603088,"byteLength":6192,"target":34962,"byteStride":12,"extensions":{"EXT_meshopt_compression":{"buffer":0,"byteOffset":257800,"byteLength":3316,"mode":"ATTRIBUTES","byteStride":12,"count":516}}},{"buffer":1,"byteOffset":609280,"byteLength":6192,"target":34962,"byteStride":12,"extensions":{"EXT_meshopt_compression":{"buffer":0,"byteOffset":261116,"byteLength":141,"mode":"ATTRIBUTES","byteStride":12,"count":516}}},{"buffer":1,"byteOffset":615472,"byteLength":11220,"target":34962,"byteStride":12,"extensions":{"EXT_meshopt_compression":{"buffer":0,"byteOffset":261260,"byteLength":5869,"mode":"ATTRIBUTES","byteStride":12,"count":935}}},{"buffer":1,"byteOffset":626692,"byteLength":11220,"target":34962,"byteStride":12,"extensions":{"EXT_meshopt_compression":{"buffer":0,"byteOffset":267132,"byteLength":213,"mode":"ATTRIBUTES","byteStride":12,"count":935}}},{"buffer":1,"byteOffset":637912,"byteLength":11364,"target":34962,"byteStride":12,"extensions":{"EXT_meshopt_compression":{"buffer":0,"byteOffset":267348,"byteLength":5690,"mode":"ATTRIBUTES","byteStride":12,"count":947}}},{"buffer":1,"byteOffset":649276,"byteLength":11364,"target":34962,"byteStride":12,"extensions":{"EXT_meshopt_compression":{"buffer":0,"byteOffset":273040,"byteLength":213,"mode":"ATTRIBUTES","byteStride":12,"count":947}}},{"buffer":1,"byteOffset":660640,"byteLength":198900,"target":34962,"byteStride":12,"extensions":{"EXT_meshopt_compression":{"buffer":0,"byteOffset":273256,"byteLength":74746,"mode":"ATTRIBUTES","byteStride":12,"count":16575}}},{"buffer":1,"byteOffset":859540,"byteLength":198900,"target":34962,"byteStride":12,"extensions":{"EXT_meshopt_compression":{"buffer":0,"byteOffset":348004,"byteLength":125877,"mode":"ATTRIBUTES","byteStride":12,"count":16575}}},{"buffer":1,"byteOffset":1058440,"byteLength":105264,"target":34962,"byteStride":12,"extensions":{"EXT_meshopt_compression":{"buffer":0,"byteOffset":473884,"byteLength":43522,"mode":"ATTRIBUTES","byteStride":12,"count":8772}}},{"buffer":1,"byteOffset":1163704,"byteLength":105264,"target":34962,"byteStride":12,"extensions":{"EXT_meshopt_compression":{"buffer":0,"byteOffset":517408,"byteLength":15689,"mode":"ATTRIBUTES","byteStride":12,"count":8772}}},{"buffer":1,"byteOffset":1268968,"byteLength":70176,"target":34962,"byteStride":8,"extensions":{"EXT_meshopt_compression":{"buffer":0,"byteOffset":533100,"byteLength":35697,"mode":"ATTRIBUTES","byteStride":8,"count":8772}}},{"buffer":1,"byteOffset":1339144,"byteLength":96,"target":34962,"byteStride":12,"extensions":{"EXT_meshopt_compression":{"buffer":0,"byteOffset":568800,"byteLength":89,"mode":"ATTRIBUTES","byteStride":12,"count":8}}},{"buffer":1,"byteOffset":1339240,"byteLength":96,"target":34962,"byteStride":12,"extensions":{"EXT_meshopt_compression":{"buffer":0,"byteOffset":568892,"byteLength":50,"mode":"ATTRIBUTES","byteStride":12,"count":8}}},{"buffer":1,"byteOffset":1339336,"byteLength":768,"target":34962,"byteStride":12,"extensions":{"EXT_meshopt_compression":{"buffer":0,"byteOffset":568944,"byteLength":324,"mode":"ATTRIBUTES","byteStride":12,"count":64}}},{"buffer":1,"byteOffset":1340104,"byteLength":768,"target":34962,"byteStride":12,"extensions":{"EXT_meshopt_compression":{"buffer":0,"byteOffset":569268,"byteLength":364,"mode":"ATTRIBUTES","byteStride":12,"count":64}}},{"buffer":1,"byteOffset":1340872,"byteLength":768,"target":34962,"byteStride":12,"extensions":{"EXT_meshopt_compression":{"buffer":0,"byteOffset":569632,"byteLength":328,"mode":"ATTRIBUTES","byteStride":12,"count":64}}},{"buffer":1,"byteOffset":1341640,"byteLength":768,"target":34962,"byteStride":12,"extensions":{"EXT_meshopt_compression":{"buffer":0,"byteOffset":569960,"byteLength":364,"mode":"ATTRIBUTES","byteStride":12,"count":64}}},{"buffer":1,"byteOffset":1342408,"byteLength":15912,"target":34962,"byteStride":12,"extensions":{"EXT_meshopt_compression":{"buffer":0,"byteOffset":570324,"byteLength":10230,"mode":"ATTRIBUTES","byteStride":12,"count":1326}}},{"buffer":1,"byteOffset":1358320,"byteLength":15912,"target":34962,"byteStride":12,"extensions":{"EXT_meshopt_compression":{"buffer":0,"byteOffset":580556,"byteLength":12182,"mode":"ATTRIBUTES","byteStride":12,"count":1326}}},{"buffer":1,"byteOffset":1374232,"byteLength":10608,"target":34962,"byteStride":8,"extensions":{"EXT_meshopt_compression":{"buffer":0,"byteOffset":592740,"byteLength":7061,"mode":"ATTRIBUTES","byteStride":8,"count":1326}}},{"buffer":1,"byteOffset":1384840,"byteLength":14304,"target":34962,"byteStride":12,"extensions":{"EXT_meshopt_compression":{"buffer":0,"byteOffset":599804,"byteLength":8754,"mode":"ATTRIBUTES","byteStride":12,"count":1192}}},{"buffer":1,"byteOffset":1399144,"byteLength":14304,"target":34962,"byteStride":12,"extensions":{"EXT_meshopt_compression":{"buffer":0,"byteOffset":608560,"byteLength":10465,"mode":"ATTRIBUTES","byteStride":12,"count":1192}}},{"buffer":1,"byteOffset":1413448,"byteLength":9536,"target":34962,"byteStride":8,"extensions":{"EXT_meshopt_compression":{"buffer":0,"byteOffset":619028,"byteLength":6810,"mode":"ATTRIBUTES","byteStride":8,"count":1192}}},{"buffer":1,"byteOffset":1422984,"byteLength":38760,"target":34962,"byteStride":12,"extensions":{"EXT_meshopt_compression":{"buffer":0,"byteOffset":625840,"byteLength":18483,"mode":"ATTRIBUTES","byteStride":12,"count":3230}}},{"buffer":1,"byteOffset":1461744,"byteLength":38760,"target":34962,"byteStride":12,"extensions":{"EXT_meshopt_compression":{"buffer":0,"byteOffset":644324,"byteLength":34738,"mode":"ATTRIBUTES","byteStride":12,"count":3230}}},{"buffer":1,"byteOffset":1500504,"byteLength":7056,"target":34962,"byteStride":12,"extensions":{"EXT_meshopt_compression":{"buffer":0,"byteOffset":679064,"byteLength":1848,"mode":"ATTRIBUTES","byteStride":12,"count":588}}},{"buffer":1,"byteOffset":1507560,"byteLength":7056,"target":34962,"byteStride":12,"extensions":{"EXT_meshopt_compression":{"buffer":0,"byteOffset":680912,"byteLength":5827,"mode":"ATTRIBUTES","byteStride":12,"count":588}}},{"buffer":1,"byteOffset":1514616,"byteLength":8760,"target":34962,"byteStride":12,"extensions":{"EXT_meshopt_compression":{"buffer":0,"byteOffset":686740,"byteLength":4464,"mode":"ATTRIBUTES","byteStride":12,"count":730}}},{"buffer":1,"byteOffset":1523376,"byteLength":8760,"target":34962,"byteStride":12,"extensions":{"EXT_meshopt_compression":{"buffer":0,"byteOffset":691204,"byteLength":6185,"mode":"ATTRIBUTES","byteStride":12,"count":730}}},{"buffer":1,"byteOffset":1532136,"byteLength":5840,"target":34962,"byteStride":8,"extensions":{"EXT_meshopt_compression":{"buffer":0,"byteOffset":697392,"byteLength":2354,"mode":"ATTRIBUTES","byteStride":8,"count":730}}},{"buffer":1,"byteOffset":1537976,"byteLength":26136,"target":34962,"byteStride":12,"extensions":{"EXT_meshopt_compression":{"buffer":0,"byteOffset":699748,"byteLength":15214,"mode":"ATTRIBUTES","byteStride":12,"count":2178}}},{"buffer":1,"byteOffset":1564112,"byteLength":26136,"target":34962,"byteStride":12,"extensions":{"EXT_meshopt_compression":{"buffer":0,"byteOffset":714964,"byteLength":21378,"mode":"ATTRIBUTES","byteStride":12,"count":2178}}},{"buffer":1,"byteOffset":1590248,"byteLength":17424,"target":34962,"byteStride":8,"extensions":{"EXT_meshopt_compression":{"buffer":0,"byteOffset":736344,"byteLength":6858,"mode":"ATTRIBUTES","byteStride":8,"count":2178}}},{"buffer":1,"byteOffset":1607672,"byteLength":49752,"target":34962,"byteStride":12,"extensions":{"EXT_meshopt_compression":{"buffer":0,"byteOffset":743204,"byteLength":19004,"mode":"ATTRIBUTES","byteStride":12,"count":4146}}},{"buffer":1,"byteOffset":1657424,"byteLength":49752,"target":34962,"byteStride":12,"extensions":{"EXT_meshopt_compression":{"buffer":0,"byteOffset":762208,"byteLength":31921,"mode":"ATTRIBUTES","byteStride":12,"count":4146}}},{"buffer":1,"byteOffset":1707176,"byteLength":116880,"target":34962,"byteStride":12,"extensions":{"EXT_meshopt_compression":{"buffer":0,"byteOffset":794132,"byteLength":48147,"mode":"ATTRIBUTES","byteStride":12,"count":9740}}},{"buffer":1,"byteOffset":1824056,"byteLength":116880,"target":34962,"byteStride":12,"extensions":{"EXT_meshopt_compression":{"buffer":0,"byteOffset":842280,"byteLength":77224,"mode":"ATTRIBUTES","byteStride":12,"count":9740}}},{"buffer":1,"byteOffset":1940936,"byteLength":38760,"target":34962,"byteStride":12,"extensions":{"EXT_meshopt_compression":{"buffer":0,"byteOffset":919504,"byteLength":18483,"mode":"ATTRIBUTES","byteStride":12,"count":3230}}},{"buffer":1,"byteOffset":1979696,"byteLength":38760,"target":34962,"byteStride":12,"extensions":{"EXT_meshopt_compression":{"buffer":0,"byteOffset":937988,"byteLength":34738,"mode":"ATTRIBUTES","byteStride":12,"count":3230}}}],"samplers":[{"magFilter":9729,"minFilter":9987,"wrapS":10497,"wrapT":10497},{"magFilter":9729,"minFilter":9987,"wrapS":33071,"wrapT":33071}],"textures":[{"sampler":0,"extensions":{"EXT_texture_webp":{"source":0}}},{"sampler":0,"extensions":{"EXT_texture_webp":{"source":1}}},{"sampler":0,"extensions":{"EXT_texture_webp":{"source":3}}},{"sampler":0,"extensions":{"EXT_texture_webp":{"source":2}}},{"sampler":1,"extensions":{"EXT_texture_webp":{"source":6}}},{"sampler":0,"extensions":{"EXT_texture_webp":{"source":5}}},{"sampler":0,"extensions":{"EXT_texture_webp":{"source":4}}}],"images":[{"name":"book_pattern_nor_gl_2k","mimeType":"image/webp","uri":"shared/8de172b46ec41fd3863b660a.webp"},{"name":"book_pattern_rough_2k","mimeType":"image/webp","uri":"shared/a04d51bd9431742f3e8e78f4.webp"},{"name":"compressed-paper-normal","mimeType":"image/webp","uri":"shared/339c1ac519928878fbaa1237.webp"},{"name":"compressed-paper-color","mimeType":"image/webp","uri":"shared/7701c62282fa7f26c46af450.webp"},{"name":"the-republic_print_orm","mimeType":"image/webp","uri":"shared/4ee0b3d4ab6cf30b27837997.webp"},{"name":"the-republic_print_normal","mimeType":"image/webp","uri":"shared/ef8d33b5a5dcf16eebd730ad.webp"},{"name":"edition-the-republic","mimeType":"image/webp","uri":"shared/f2ea7f1be1e4828de1c077f9.webp"}],"buffers":[{"uri":"shared/452798712aaf8bc4055db037.bin","byteLength":972728},{"byteLength":2018456,"extensions":{"EXT_meshopt_compression":{"fallback":true}}}],"materials":[{"name":"the-republic case material.002","doubleSided":true,"pbrMetallicRoughness":{"baseColorFactor":[0.8549926280975342,0.8148465752601624,0.6938717365264893,1],"metallicFactor":0,"metallicRoughnessTexture":{"index":1}},"normalTexture":{"index":0,"scale":0.05999999865889549}},{"name":"MAT_the-republic_BackInk","doubleSided":true,"pbrMetallicRoughness":{"baseColorFactor":[0.02500000037252903,0.03200000151991844,0.027000000700354576,1],"roughnessFactor":0.7200000286102295,"metallicFactor":0}},{"name":"MAT_the-republic_Stamped_Ink.002","doubleSided":true,"pbrMetallicRoughness":{"baseColorFactor":[0.02500000037252903,0.03200000151991844,0.027000000700354576,1],"roughnessFactor":0.3400000035762787,"metallicFactor":0},"extensions":{"KHR_materials_clearcoat":{"clearcoatFactor":0.44999998807907104,"clearcoatRoughnessFactor":0.20000000298023224}}},{"name":"MAT_the-republic_Stamped_Ink.003","doubleSided":true,"pbrMetallicRoughness":{"baseColorFactor":[0.18447498977184296,0.0802198201417923,0.06847816705703735,1],"roughnessFactor":0.3400000035762787,"metallicFactor":0},"extensions":{"KHR_materials_clearcoat":{"clearcoatFactor":0.44999998807907104,"clearcoatRoughnessFactor":0.20000000298023224}}},{"name":"Compressed paper cut surface","doubleSided":true,"pbrMetallicRoughness":{"roughnessFactor":0.8999999761581421,"metallicFactor":0,"baseColorTexture":{"index":2}},"normalTexture":{"index":3}},{"name":"Compressed ivory stock 2","doubleSided":true,"pbrMetallicRoughness":{"baseColorFactor":[0.7279999852180481,0.7129999995231628,0.656000018119812,1],"roughnessFactor":0.8600000143051147,"metallicFactor":0}},{"name":"MAT_the-republic_Registered_Print.001","extras":{"surface_finish":"Registered print, selective varnish"},"doubleSided":true,"pbrMetallicRoughness":{"baseColorTexture":{"index":4},"metallicRoughnessTexture":{"index":6}},"normalTexture":{"index":5},"extensions":{"KHR_materials_clearcoat":{"clearcoatFactor":1,"clearcoatRoughnessFactor":0.23999999463558197,"clearcoatTexture":{"index":6}}}},{"name":"Endband cotton ecru","doubleSided":true,"pbrMetallicRoughness":{"baseColorFactor":[0.5,0.46000000834465027,0.3499999940395355,1],"roughnessFactor":0.8799999952316284,"metallicFactor":0}},{"name":"Binding linen warm ecru","doubleSided":true,"pbrMetallicRoughness":{"baseColorFactor":[0.3799999952316284,0.3400000035762787,0.25999999046325684,1],"roughnessFactor":0.9300000071525574,"metallicFactor":0}},{"name":"the-republic woven ribbon.002","doubleSided":true,"pbrMetallicRoughness":{"baseColorFactor":[0.18447498977184296,0.0802198201417923,0.06847816705703735,1],"metallicFactor":0,"metallicRoughnessTexture":{"index":1}},"normalTexture":{"index":0,"scale":1.149999976158142},"extensions":{"KHR_materials_sheen":{"sheenColorFactor":[1,1,1],"sheenRoughnessFactor":0.5}}}],"meshes":[{"name":"Pressed case joint Back board.030","primitives":[{"attributes":{"POSITION":0,"NORMAL":1,"TEXCOORD_0":2},"mode":4,"material":0,"indices":3}]},{"name":"Back collection.006","primitives":[{"attributes":{"POSITION":4,"NORMAL":5},"mode":4,"material":1,"indices":6}]},{"name":"Back description.006","primitives":[{"attributes":{"POSITION":7,"NORMAL":8},"mode":4,"material":1,"indices":9}]},{"name":"Back edition.006","primitives":[{"attributes":{"POSITION":10,"NORMAL":11},"mode":4,"material":2,"indices":12}]},{"name":"Back ISBN.006","primitives":[{"attributes":{"POSITION":13,"NORMAL":14},"mode":4,"material":1,"indices":15}]},{"name":"Back title.006","primitives":[{"attributes":{"POSITION":16,"NORMAL":17},"mode":4,"material":2,"indices":18}]},{"name":"Collection mark.022","primitives":[{"attributes":{"POSITION":19,"NORMAL":20},"mode":4,"material":3,"indices":21}]},{"name":"Continuous compressed cut the-republic.003","primitives":[{"attributes":{"POSITION":22,"NORMAL":23,"TEXCOORD_0":24},"mode":4,"material":4,"indices":25},{"attributes":{"POSITION":26,"NORMAL":27},"mode":4,"material":5,"indices":28}]},{"name":"Curved foil rule.044","primitives":[{"attributes":{"POSITION":29,"NORMAL":30},"mode":4,"material":3,"indices":31}]},{"name":"Curved foil rule.045","primitives":[{"attributes":{"POSITION":32,"NORMAL":33},"mode":4,"material":3,"indices":31}]},{"name":"Pressed case joint Wrapped printed cover.005","primitives":[{"attributes":{"POSITION":34,"NORMAL":35,"TEXCOORD_0":36},"mode":4,"material":6,"indices":37},{"attributes":{"POSITION":38,"NORMAL":39,"TEXCOORD_0":40},"mode":4,"material":0,"indices":41}]},{"name":"Head textile endband the-republic.004","primitives":[{"attributes":{"POSITION":42,"NORMAL":43},"mode":4,"material":7,"indices":44}]},{"name":"Linen spine lining the-republic.004","primitives":[{"attributes":{"POSITION":45,"NORMAL":46},"mode":4,"material":8,"indices":47}]},{"name":"Ribbon flexible satin the-republic.004","primitives":[{"attributes":{"POSITION":48,"NORMAL":49,"TEXCOORD_0":50},"mode":4,"material":9,"indices":51}]},{"name":"Rounded cloth spine.030","primitives":[{"attributes":{"POSITION":52,"NORMAL":53,"TEXCOORD_0":54},"mode":4,"material":0,"indices":55}]},{"name":"Spine author.022","primitives":[{"attributes":{"POSITION":56,"NORMAL":57},"mode":4,"material":3,"indices":58}]},{"name":"Spine title.030","primitives":[{"attributes":{"POSITION":59,"NORMAL":60},"mode":4,"material":3,"indices":61}]},{"name":"Tail textile endband the-republic.004","primitives":[{"attributes":{"POSITION":62,"NORMAL":63},"mode":4,"material":7,"indices":44}]}],"nodes":[{"name":"Back board.030","extras":{"edge_refined":true,"unpressed_mesh":"Back board.038","pressed_joint_revision":1,"joint_depth_mm":1.0365870877235217,"joint_center_mm":6.4},"translation":[0,0,-0.13449999690055847],"mesh":0},{"name":"Back collection.006","translation":[0,-0.48767998814582825,-0.14650000631809235],"rotation":[0,-0.7071068286895752,0.7071068286895752,3.090862321641907e-8],"mesh":1},{"name":"Back description.006","translation":[0,0.05079999938607216,-0.14650000631809235],"rotation":[0,-0.7071068286895752,0.7071068286895752,3.090862321641907e-8],"mesh":2},{"name":"Back edition.006","translation":[0,-0.6908800005912781,-0.14650000631809235],"rotation":[0,-0.7071068286895752,0.7071068286895752,3.090862321641907e-8],"mesh":3},{"name":"Back ISBN.006","translation":[0,-0.7924799919128418,-0.14650000631809235],"rotation":[0,-0.7071068286895752,0.7071068286895752,3.090862321641907e-8],"mesh":4},{"name":"Back title.006","translation":[0,0.5892800092697144,-0.14650000631809235],"rotation":[0,-0.7071068286895752,0.7071068286895752,3.090862321641907e-8],"mesh":5},{"name":"Collection mark.022","mesh":6},{"name":"Compressed paper signatures the-republic.003","extras":{"paper_surface_revision":1,"leaf_count":204,"paper_caliper_mm":0.11078431372549022,"binding_structure":"Rounded and backed signatures"},"mesh":7},{"name":"Curved foil rule.044","mesh":8},{"name":"Curved foil rule.045","mesh":9},{"name":"Wrapped printed cover.005","extras":{"edge_refined":true,"unpressed_mesh":"Front board.038","pressed_joint_revision":1,"joint_depth_mm":1.1145299033797595,"joint_center_mm":6.4},"translation":[0.6349999904632568,0,0],"mesh":10},{"name":"FrontHinge.030","translation":[-0.6349999904632568,0,0.13449999690055847],"children":[10]},{"name":"Head textile endband the-republic.004","extras":{"binding_revision":2},"mesh":11},{"name":"Linen spine lining the-republic.004","extras":{"binding_revision":2},"mesh":12},{"name":"Ribbon flexible satin the-republic.004","extras":{"binding_revision":2,"ribbon_width_dm":0.043,"ribbon_length_dm":0.29,"ribbon_anchor_dm":[0,-1.008,0.006]},"mesh":13},{"name":"Rounded cloth spine.030","mesh":14},{"name":"Spine author.022","mesh":15},{"name":"Spine title.030","mesh":16},{"name":"Tail textile endband the-republic.004","extras":{"binding_revision":2},"mesh":17},{"name":"Publisher_the-republic.001","extras":{"slug":"the-republic","dimensions_mm":[127,203.2,29],"model_design":"Publisher front artwork on a showcase binding; spine and interior are custom reconstructions"},"scale":[0.09676193445920944,0.09999362379312515,0.09969228506088257],"children":[0,1,2,3,4,5,6,7,8,9,11,12,13,14,15,16,17,18]}],"scenes":[{"name":"Library Publisher Editions.001","nodes":[19]}],"scene":0,"extensionsUsed":["EXT_meshopt_compression","EXT_texture_webp","KHR_materials_clearcoat","KHR_materials_sheen"],"extensionsRequired":["EXT_meshopt_compression","EXT_texture_webp"]}