{"asset":{"generator":"glTF-Transform v4.5.0","version":"2.0"},"accessors":[{"type":"VEC3","componentType":5126,"count":2392,"max":[0.6982570290565491,1.079319953918457,0.010828527621924877],"min":[-0.6982570290565491,-1.079319953918457,-0.010828527621924877],"normalized":false,"byteOffset":0,"bufferView":0},{"type":"VEC3","componentType":5126,"count":2392,"normalized":false,"byteOffset":0,"bufferView":1},{"type":"VEC2","componentType":5126,"count":2392,"normalized":false,"byteOffset":0,"bufferView":2},{"type":"SCALAR","componentType":5123,"count":12588,"normalized":false,"byteOffset":0,"bufferView":3},{"type":"VEC3","componentType":5126,"count":514,"max":[0.1009504571557045,0,0.0053944955579936504],"min":[-0.09995229542255402,0,-0.005732110235840082],"normalized":false,"byteOffset":0,"bufferView":4},{"type":"VEC3","componentType":5126,"count":514,"normalized":false,"byteOffset":0,"bufferView":5},{"type":"SCALAR","componentType":5123,"count":1482,"normalized":false,"byteOffset":25176,"bufferView":3},{"type":"VEC3","componentType":5126,"count":7738,"max":[0.17751821875572205,0,0.07542230188846588],"min":[-0.17760008573532104,0,-0.07163350284099579],"normalized":false,"byteOffset":0,"bufferView":6},{"type":"VEC3","componentType":5126,"count":7738,"normalized":false,"byteOffset":0,"bufferView":7},{"type":"SCALAR","componentType":5123,"count":22818,"normalized":false,"byteOffset":28140,"bufferView":3},{"type":"VEC3","componentType":5126,"count":236,"max":[0.05715082213282585,0,0.00647339504212141],"min":[-0.05578568950295448,0,-0.006878532003611326],"normalized":false,"byteOffset":0,"bufferView":8},{"type":"VEC3","componentType":5126,"count":236,"normalized":false,"byteOffset":0,"bufferView":9},{"type":"SCALAR","componentType":5123,"count":678,"normalized":false,"byteOffset":73776,"bufferView":3},{"type":"VEC3","componentType":5126,"count":824,"max":[0.07913339138031006,0,0.005664220545440912],"min":[-0.0783858671784401,0,-0.0060187154449522495],"normalized":false,"byteOffset":0,"bufferView":10},{"type":"VEC3","componentType":5126,"count":824,"normalized":false,"byteOffset":0,"bufferView":11},{"type":"SCALAR","componentType":5123,"count":2424,"normalized":false,"byteOffset":75132,"bufferView":3},{"type":"VEC3","componentType":5126,"count":1140,"max":[0.15638643503189087,0,0.015037741512060165],"min":[-0.15707318484783173,0,-0.016855597496032715],"normalized":false,"byteOffset":0,"bufferView":12},{"type":"VEC3","componentType":5126,"count":1140,"normalized":false,"byteOffset":0,"bufferView":13},{"type":"SCALAR","componentType":5123,"count":3384,"normalized":false,"byteOffset":79980,"bufferView":3},{"type":"VEC3","componentType":5126,"count":8562,"max":[-0.7420297861099243,-0.7268475294113159,0.010499999858438969],"min":[-0.7427499890327454,-0.9139924645423889,-0.010499999858438969],"normalized":false,"byteOffset":0,"bufferView":14},{"type":"VEC3","componentType":5126,"count":8562,"normalized":false,"byteOffset":0,"bufferView":15},{"type":"SCALAR","componentType":5123,"count":12936,"normalized":false,"byteOffset":86748,"bufferView":3},{"type":"VEC3","componentType":5126,"count":8772,"max":[0.671500027179718,1.051599383354187,0.09799999743700027],"min":[-0.7081000208854675,-1.0515828132629395,-0.09799999743700027],"normalized":false,"byteOffset":0,"bufferView":16},{"type":"VEC3","componentType":5126,"count":8772,"normalized":false,"byteOffset":0,"bufferView":17},{"type":"VEC2","componentType":5126,"count":8772,"normalized":false,"byteOffset":0,"bufferView":18},{"type":"SCALAR","componentType":5123,"count":49152,"normalized":false,"byteOffset":112620,"bufferView":3},{"type":"VEC3","componentType":5126,"count":8,"max":[0.671500027179718,1.0514999628067017,0.09799999743700027],"min":[-0.6884999871253967,-1.0514999628067017,-0.09799999743700027],"normalized":false,"byteOffset":0,"bufferView":19},{"type":"VEC3","componentType":5126,"count":8,"normalized":false,"byteOffset":0,"bufferView":20},{"type":"SCALAR","componentType":5123,"count":12,"normalized":false,"byteOffset":210924,"bufferView":3},{"type":"VEC3","componentType":5126,"count":64,"max":[-0.72310471534729,-0.5819299817085266,0.0745600014925003],"min":[-0.7426000237464905,-0.5839300155639648,-0.0745600014925003],"normalized":false,"byteOffset":0,"bufferView":21},{"type":"VEC3","componentType":5126,"count":64,"normalized":false,"byteOffset":0,"bufferView":22},{"type":"SCALAR","componentType":5123,"count":96,"normalized":false,"byteOffset":210948,"bufferView":3},{"type":"VEC3","componentType":5126,"count":64,"max":[-0.72310471534729,0.4975700080394745,0.0745600014925003],"min":[-0.7426000237464905,0.49557000398635864,-0.0745600014925003],"normalized":false,"byteOffset":0,"bufferView":23},{"type":"VEC3","componentType":5126,"count":64,"normalized":false,"byteOffset":0,"bufferView":24},{"type":"VEC3","componentType":5126,"count":1326,"max":[0.6982571482658386,1.079319953918457,0.011155091226100922],"min":[-0.6982571482658386,-1.079319953918457,-0.008788642473518848],"normalized":false,"byteOffset":0,"bufferView":25},{"type":"VEC3","componentType":5126,"count":1326,"normalized":false,"byteOffset":0,"bufferView":26},{"type":"VEC2","componentType":5126,"count":1326,"normalized":false,"byteOffset":0,"bufferView":27},{"type":"SCALAR","componentType":5123,"count":6720,"normalized":false,"byteOffset":211140,"bufferView":3},{"type":"VEC3","componentType":5126,"count":1192,"max":[0.6982571482658386,1.079319953918457,-0.004798297770321369],"min":[-0.6982571482658386,-1.079319953918457,-0.011350873857736588],"normalized":false,"byteOffset":0,"bufferView":28},{"type":"VEC3","componentType":5126,"count":1192,"normalized":false,"byteOffset":0,"bufferView":29},{"type":"VEC2","componentType":5126,"count":1192,"normalized":false,"byteOffset":0,"bufferView":30},{"type":"SCALAR","componentType":5123,"count":5940,"normalized":false,"byteOffset":224580,"bufferView":3},{"type":"VEC3","componentType":5126,"count":2810,"max":[-0.6832500100135803,1.0545419454574585,0.09799999743700027],"min":[-0.7113500237464905,1.0464580059051514,-0.09799999743700027],"normalized":false,"byteOffset":0,"bufferView":31},{"type":"VEC3","componentType":5126,"count":2810,"normalized":false,"byteOffset":0,"bufferView":32},{"type":"SCALAR","componentType":5123,"count":16800,"normalized":false,"byteOffset":236460,"bufferView":3},{"type":"VEC3","componentType":5126,"count":588,"max":[-0.6891722083091736,1.0394999980926514,0.09799999743700027],"min":[-0.7110999822616577,-1.0394999980926514,-0.09799999743700027],"normalized":false,"byteOffset":0,"bufferView":33},{"type":"VEC3","componentType":5126,"count":588,"normalized":false,"byteOffset":0,"bufferView":34},{"type":"SCALAR","componentType":5123,"count":1164,"normalized":false,"byteOffset":270060,"bufferView":3},{"type":"VEC3","componentType":5126,"count":730,"max":[0.021716931834816933,-1.0714991092681885,0.02216394804418087],"min":[-0.021716931834816933,-1.3615000247955322,0.006000000052154064],"normalized":false,"byteOffset":0,"bufferView":35},{"type":"VEC3","componentType":5126,"count":730,"normalized":false,"byteOffset":0,"bufferView":36},{"type":"VEC2","componentType":5126,"count":730,"normalized":false,"byteOffset":0,"bufferView":37},{"type":"SCALAR","componentType":5123,"count":4368,"normalized":false,"byteOffset":272388,"bufferView":3},{"type":"VEC3","componentType":5126,"count":2178,"max":[-0.690644383430481,1.0795612335205078,0.11649999767541885],"min":[-0.7409996390342712,-1.0795600414276123,-0.11649999767541885],"normalized":false,"byteOffset":0,"bufferView":38},{"type":"VEC3","componentType":5126,"count":2178,"normalized":false,"byteOffset":0,"bufferView":39},{"type":"VEC2","componentType":5126,"count":2178,"normalized":false,"byteOffset":0,"bufferView":40},{"type":"SCALAR","componentType":5123,"count":13056,"normalized":false,"byteOffset":281124,"bufferView":3},{"type":"VEC3","componentType":5126,"count":12941,"max":[-0.7418064475059509,0.9124717712402344,0.013000000268220901],"min":[-0.7427499890327454,0.5988281965255737,-0.013000000268220901],"normalized":false,"byteOffset":0,"bufferView":41},{"type":"VEC3","componentType":5126,"count":12941,"normalized":false,"byteOffset":0,"bufferView":42},{"type":"SCALAR","componentType":5123,"count":19440,"normalized":false,"byteOffset":307236,"bufferView":3},{"type":"VEC3","componentType":5126,"count":11748,"max":[-0.7395006418228149,0.2748013138771057,0.027960000559687614],"min":[-0.7427499890327454,-0.2748013138771057,-0.027960000559687614],"normalized":false,"byteOffset":0,"bufferView":43},{"type":"VEC3","componentType":5126,"count":11748,"normalized":false,"byteOffset":0,"bufferView":44},{"type":"SCALAR","componentType":5123,"count":17736,"normalized":false,"byteOffset":346116,"bufferView":3},{"type":"VEC3","componentType":5126,"count":2810,"max":[-0.6832500100135803,-1.0464580059051514,0.09799999743700027],"min":[-0.7113500237464905,-1.0545419454574585,-0.09799999743700027],"normalized":false,"byteOffset":0,"bufferView":45},{"type":"VEC3","componentType":5126,"count":2810,"normalized":false,"byteOffset":0,"bufferView":46}],"bufferViews":[{"buffer":1,"byteOffset":0,"byteLength":28704,"target":34962,"byteStride":12,"extensions":{"EXT_meshopt_compression":{"buffer":0,"byteOffset":0,"byteLength":17197,"mode":"ATTRIBUTES","byteStride":12,"count":2392}}},{"buffer":1,"byteOffset":28704,"byteLength":28704,"target":34962,"byteStride":12,"extensions":{"EXT_meshopt_compression":{"buffer":0,"byteOffset":17200,"byteLength":21619,"mode":"ATTRIBUTES","byteStride":12,"count":2392}}},{"buffer":1,"byteOffset":57408,"byteLength":19136,"target":34962,"byteStride":8,"extensions":{"EXT_meshopt_compression":{"buffer":0,"byteOffset":38820,"byteLength":13533,"mode":"ATTRIBUTES","byteStride":8,"count":2392}}},{"buffer":1,"byteOffset":76544,"byteLength":381588,"target":34963,"extensions":{"EXT_meshopt_compression":{"buffer":0,"byteOffset":52356,"byteLength":177496,"mode":"TRIANGLES","byteStride":2,"count":190794}}},{"buffer":1,"byteOffset":458132,"byteLength":6168,"target":34962,"byteStride":12,"extensions":{"EXT_meshopt_compression":{"buffer":0,"byteOffset":229852,"byteLength":3261,"mode":"ATTRIBUTES","byteStride":12,"count":514}}},{"buffer":1,"byteOffset":464300,"byteLength":6168,"target":34962,"byteStride":12,"extensions":{"EXT_meshopt_compression":{"buffer":0,"byteOffset":233116,"byteLength":141,"mode":"ATTRIBUTES","byteStride":12,"count":514}}},{"buffer":1,"byteOffset":470468,"byteLength":92856,"target":34962,"byteStride":12,"extensions":{"EXT_meshopt_compression":{"buffer":0,"byteOffset":233260,"byteLength":40507,"mode":"ATTRIBUTES","byteStride":12,"count":7738}}},{"buffer":1,"byteOffset":563324,"byteLength":92856,"target":34962,"byteStride":12,"extensions":{"EXT_meshopt_compression":{"buffer":0,"byteOffset":273768,"byteLength":1485,"mode":"ATTRIBUTES","byteStride":12,"count":7738}}},{"buffer":1,"byteOffset":656180,"byteLength":2832,"target":34962,"byteStride":12,"extensions":{"EXT_meshopt_compression":{"buffer":0,"byteOffset":275256,"byteLength":1547,"mode":"ATTRIBUTES","byteStride":12,"count":236}}},{"buffer":1,"byteOffset":659012,"byteLength":2832,"target":34962,"byteStride":12,"extensions":{"EXT_meshopt_compression":{"buffer":0,"byteOffset":276804,"byteLength":81,"mode":"ATTRIBUTES","byteStride":12,"count":236}}},{"buffer":1,"byteOffset":661844,"byteLength":9888,"target":34962,"byteStride":12,"extensions":{"EXT_meshopt_compression":{"buffer":0,"byteOffset":276888,"byteLength":5167,"mode":"ATTRIBUTES","byteStride":12,"count":824}}},{"buffer":1,"byteOffset":671732,"byteLength":9888,"target":34962,"byteStride":12,"extensions":{"EXT_meshopt_compression":{"buffer":0,"byteOffset":282056,"byteLength":189,"mode":"ATTRIBUTES","byteStride":12,"count":824}}},{"buffer":1,"byteOffset":681620,"byteLength":13680,"target":34962,"byteStride":12,"extensions":{"EXT_meshopt_compression":{"buffer":0,"byteOffset":282248,"byteLength":6855,"mode":"ATTRIBUTES","byteStride":12,"count":1140}}},{"buffer":1,"byteOffset":695300,"byteLength":13680,"target":34962,"byteStride":12,"extensions":{"EXT_meshopt_compression":{"buffer":0,"byteOffset":289104,"byteLength":249,"mode":"ATTRIBUTES","byteStride":12,"count":1140}}},{"buffer":1,"byteOffset":708980,"byteLength":102744,"target":34962,"byteStride":12,"extensions":{"EXT_meshopt_compression":{"buffer":0,"byteOffset":289356,"byteLength":39432,"mode":"ATTRIBUTES","byteStride":12,"count":8562}}},{"buffer":1,"byteOffset":811724,"byteLength":102744,"target":34962,"byteStride":12,"extensions":{"EXT_meshopt_compression":{"buffer":0,"byteOffset":328788,"byteLength":65522,"mode":"ATTRIBUTES","byteStride":12,"count":8562}}},{"buffer":1,"byteOffset":914468,"byteLength":105264,"target":34962,"byteStride":12,"extensions":{"EXT_meshopt_compression":{"buffer":0,"byteOffset":394312,"byteLength":43364,"mode":"ATTRIBUTES","byteStride":12,"count":8772}}},{"buffer":1,"byteOffset":1019732,"byteLength":105264,"target":34962,"byteStride":12,"extensions":{"EXT_meshopt_compression":{"buffer":0,"byteOffset":437676,"byteLength":15828,"mode":"ATTRIBUTES","byteStride":12,"count":8772}}},{"buffer":1,"byteOffset":1124996,"byteLength":70176,"target":34962,"byteStride":8,"extensions":{"EXT_meshopt_compression":{"buffer":0,"byteOffset":453504,"byteLength":35651,"mode":"ATTRIBUTES","byteStride":8,"count":8772}}},{"buffer":1,"byteOffset":1195172,"byteLength":96,"target":34962,"byteStride":12,"extensions":{"EXT_meshopt_compression":{"buffer":0,"byteOffset":489156,"byteLength":89,"mode":"ATTRIBUTES","byteStride":12,"count":8}}},{"buffer":1,"byteOffset":1195268,"byteLength":96,"target":34962,"byteStride":12,"extensions":{"EXT_meshopt_compression":{"buffer":0,"byteOffset":489248,"byteLength":50,"mode":"ATTRIBUTES","byteStride":12,"count":8}}},{"buffer":1,"byteOffset":1195364,"byteLength":768,"target":34962,"byteStride":12,"extensions":{"EXT_meshopt_compression":{"buffer":0,"byteOffset":489300,"byteLength":328,"mode":"ATTRIBUTES","byteStride":12,"count":64}}},{"buffer":1,"byteOffset":1196132,"byteLength":768,"target":34962,"byteStride":12,"extensions":{"EXT_meshopt_compression":{"buffer":0,"byteOffset":489628,"byteLength":374,"mode":"ATTRIBUTES","byteStride":12,"count":64}}},{"buffer":1,"byteOffset":1196900,"byteLength":768,"target":34962,"byteStride":12,"extensions":{"EXT_meshopt_compression":{"buffer":0,"byteOffset":490004,"byteLength":328,"mode":"ATTRIBUTES","byteStride":12,"count":64}}},{"buffer":1,"byteOffset":1197668,"byteLength":768,"target":34962,"byteStride":12,"extensions":{"EXT_meshopt_compression":{"buffer":0,"byteOffset":490332,"byteLength":374,"mode":"ATTRIBUTES","byteStride":12,"count":64}}},{"buffer":1,"byteOffset":1198436,"byteLength":15912,"target":34962,"byteStride":12,"extensions":{"EXT_meshopt_compression":{"buffer":0,"byteOffset":490708,"byteLength":10287,"mode":"ATTRIBUTES","byteStride":12,"count":1326}}},{"buffer":1,"byteOffset":1214348,"byteLength":15912,"target":34962,"byteStride":12,"extensions":{"EXT_meshopt_compression":{"buffer":0,"byteOffset":500996,"byteLength":12436,"mode":"ATTRIBUTES","byteStride":12,"count":1326}}},{"buffer":1,"byteOffset":1230260,"byteLength":10608,"target":34962,"byteStride":8,"extensions":{"EXT_meshopt_compression":{"buffer":0,"byteOffset":513432,"byteLength":7022,"mode":"ATTRIBUTES","byteStride":8,"count":1326}}},{"buffer":1,"byteOffset":1240868,"byteLength":14304,"target":34962,"byteStride":12,"extensions":{"EXT_meshopt_compression":{"buffer":0,"byteOffset":520456,"byteLength":8822,"mode":"ATTRIBUTES","byteStride":12,"count":1192}}},{"buffer":1,"byteOffset":1255172,"byteLength":14304,"target":34962,"byteStride":12,"extensions":{"EXT_meshopt_compression":{"buffer":0,"byteOffset":529280,"byteLength":10552,"mode":"ATTRIBUTES","byteStride":12,"count":1192}}},{"buffer":1,"byteOffset":1269476,"byteLength":9536,"target":34962,"byteStride":8,"extensions":{"EXT_meshopt_compression":{"buffer":0,"byteOffset":539832,"byteLength":6835,"mode":"ATTRIBUTES","byteStride":8,"count":1192}}},{"buffer":1,"byteOffset":1279012,"byteLength":33720,"target":34962,"byteStride":12,"extensions":{"EXT_meshopt_compression":{"buffer":0,"byteOffset":546668,"byteLength":15765,"mode":"ATTRIBUTES","byteStride":12,"count":2810}}},{"buffer":1,"byteOffset":1312732,"byteLength":33720,"target":34962,"byteStride":12,"extensions":{"EXT_meshopt_compression":{"buffer":0,"byteOffset":562436,"byteLength":30231,"mode":"ATTRIBUTES","byteStride":12,"count":2810}}},{"buffer":1,"byteOffset":1346452,"byteLength":7056,"target":34962,"byteStride":12,"extensions":{"EXT_meshopt_compression":{"buffer":0,"byteOffset":592668,"byteLength":1840,"mode":"ATTRIBUTES","byteStride":12,"count":588}}},{"buffer":1,"byteOffset":1353508,"byteLength":7056,"target":34962,"byteStride":12,"extensions":{"EXT_meshopt_compression":{"buffer":0,"byteOffset":594508,"byteLength":5813,"mode":"ATTRIBUTES","byteStride":12,"count":588}}},{"buffer":1,"byteOffset":1360564,"byteLength":8760,"target":34962,"byteStride":12,"extensions":{"EXT_meshopt_compression":{"buffer":0,"byteOffset":600324,"byteLength":4464,"mode":"ATTRIBUTES","byteStride":12,"count":730}}},{"buffer":1,"byteOffset":1369324,"byteLength":8760,"target":34962,"byteStride":12,"extensions":{"EXT_meshopt_compression":{"buffer":0,"byteOffset":604788,"byteLength":6185,"mode":"ATTRIBUTES","byteStride":12,"count":730}}},{"buffer":1,"byteOffset":1378084,"byteLength":5840,"target":34962,"byteStride":8,"extensions":{"EXT_meshopt_compression":{"buffer":0,"byteOffset":610976,"byteLength":2354,"mode":"ATTRIBUTES","byteStride":8,"count":730}}},{"buffer":1,"byteOffset":1383924,"byteLength":26136,"target":34962,"byteStride":12,"extensions":{"EXT_meshopt_compression":{"buffer":0,"byteOffset":613332,"byteLength":15189,"mode":"ATTRIBUTES","byteStride":12,"count":2178}}},{"buffer":1,"byteOffset":1410060,"byteLength":26136,"target":34962,"byteStride":12,"extensions":{"EXT_meshopt_compression":{"buffer":0,"byteOffset":628524,"byteLength":21426,"mode":"ATTRIBUTES","byteStride":12,"count":2178}}},{"buffer":1,"byteOffset":1436196,"byteLength":17424,"target":34962,"byteStride":8,"extensions":{"EXT_meshopt_compression":{"buffer":0,"byteOffset":649952,"byteLength":6858,"mode":"ATTRIBUTES","byteStride":8,"count":2178}}},{"buffer":1,"byteOffset":1453620,"byteLength":155292,"target":34962,"byteStride":12,"extensions":{"EXT_meshopt_compression":{"buffer":0,"byteOffset":656812,"byteLength":61655,"mode":"ATTRIBUTES","byteStride":12,"count":12941}}},{"buffer":1,"byteOffset":1608912,"byteLength":155292,"target":34962,"byteStride":12,"extensions":{"EXT_meshopt_compression":{"buffer":0,"byteOffset":718468,"byteLength":102212,"mode":"ATTRIBUTES","byteStride":12,"count":12941}}},{"buffer":1,"byteOffset":1764204,"byteLength":140976,"target":34962,"byteStride":12,"extensions":{"EXT_meshopt_compression":{"buffer":0,"byteOffset":820680,"byteLength":58747,"mode":"ATTRIBUTES","byteStride":12,"count":11748}}},{"buffer":1,"byteOffset":1905180,"byteLength":140976,"target":34962,"byteStride":12,"extensions":{"EXT_meshopt_compression":{"buffer":0,"byteOffset":879428,"byteLength":95139,"mode":"ATTRIBUTES","byteStride":12,"count":11748}}},{"buffer":1,"byteOffset":2046156,"byteLength":33720,"target":34962,"byteStride":12,"extensions":{"EXT_meshopt_compression":{"buffer":0,"byteOffset":974568,"byteLength":15765,"mode":"ATTRIBUTES","byteStride":12,"count":2810}}},{"buffer":1,"byteOffset":2079876,"byteLength":33720,"target":34962,"byteStride":12,"extensions":{"EXT_meshopt_compression":{"buffer":0,"byteOffset":990336,"byteLength":30230,"mode":"ATTRIBUTES","byteStride":12,"count":2810}}}],"samplers":[{"magFilter":9729,"minFilter":9987,"wrapS":10497,"wrapT":10497},{"magFilter":9729,"minFilter":9987,"wrapS":33071,"wrapT":33071}],"textures":[{"sampler":0,"extensions":{"EXT_texture_webp":{"source":0}}},{"sampler":0,"extensions":{"EXT_texture_webp":{"source":2}}},{"sampler":0,"extensions":{"EXT_texture_webp":{"source":1}}},{"source":5,"sampler":1},{"sampler":0,"extensions":{"EXT_texture_webp":{"source":4}}},{"sampler":0,"extensions":{"EXT_texture_webp":{"source":6}}},{"sampler":0,"extensions":{"EXT_texture_webp":{"source":3}}}],"images":[{"name":"book_pattern_nor_gl_2k","mimeType":"image/webp","uri":"shared/8de172b46ec41fd3863b660a.webp"},{"name":"compressed-paper-normal","mimeType":"image/webp","uri":"shared/339c1ac519928878fbaa1237.webp"},{"name":"compressed-paper-color","mimeType":"image/webp","uri":"shared/7701c62282fa7f26c46af450.webp"},{"name":"the-book-of-elon_print_orm","mimeType":"image/webp","uri":"shared/03b7c7ee99e9c87966a254a3.webp"},{"name":"the-book-of-elon_print_normal","mimeType":"image/webp","uri":"shared/bf662f5b8646acf6b61a2e3d.webp"},{"name":"edition-the-book-of-elon-sharp","mimeType":"image/jpeg","uri":"shared/75a1c649ddd3fe921a1bf0b8.jpg"},{"name":"book_pattern_rough_2k","mimeType":"image/webp","uri":"shared/a04d51bd9431742f3e8e78f4.webp"}],"buffers":[{"uri":"shared/99a0c8c36e810165a680ce67.bin","byteLength":1020568},{"byteLength":2113596,"extensions":{"EXT_meshopt_compression":{"fallback":true}}}],"materials":[{"name":"the-book-of-elon case material","doubleSided":true,"pbrMetallicRoughness":{"baseColorFactor":[0.7835378050804138,0.01032982300966978,0.03560131415724754,1],"roughnessFactor":0.5,"metallicFactor":0},"normalTexture":{"index":0,"scale":0.1599999964237213},"extensions":{"KHR_materials_clearcoat":{"clearcoatFactor":0.07999999821186066,"clearcoatRoughnessFactor":0.36000001430511475}}},{"name":"MAT_the-book-of-elon_BackInk","doubleSided":true,"pbrMetallicRoughness":{"baseColorFactor":[1,0.8962693810462952,0.715693473815918,1],"roughnessFactor":0.4000000059604645,"metallicFactor":0},"extensions":{"KHR_materials_clearcoat":{"clearcoatFactor":0.07000000029802322,"clearcoatRoughnessFactor":0}}},{"name":"MAT_the-book-of-elon_Stamped_Ink","doubleSided":true,"pbrMetallicRoughness":{"baseColorFactor":[1,0.8962693810462952,0.715693473815918,1],"roughnessFactor":0.4000000059604645,"metallicFactor":0},"extensions":{"KHR_materials_clearcoat":{"clearcoatFactor":0.07000000029802322,"clearcoatRoughnessFactor":0.20000000298023224}}},{"name":"MAT_the-book-of-elon_Stamped_Ink.001","doubleSided":true,"pbrMetallicRoughness":{"baseColorFactor":[1,0.8962693810462952,0.715693473815918,1],"roughnessFactor":0.4000000059604645,"metallicFactor":0},"extensions":{"KHR_materials_clearcoat":{"clearcoatFactor":0.07000000029802322,"clearcoatRoughnessFactor":0.20000000298023224}}},{"name":"Compressed paper cut surface","doubleSided":true,"pbrMetallicRoughness":{"roughnessFactor":0.8999999761581421,"metallicFactor":0,"baseColorTexture":{"index":1}},"normalTexture":{"index":2}},{"name":"Compressed ivory stock 2","doubleSided":true,"pbrMetallicRoughness":{"baseColorFactor":[0.7279999852180481,0.7129999995231628,0.656000018119812,1],"roughnessFactor":0.8600000143051147,"metallicFactor":0}},{"name":"MAT_the-book-of-elon_Registered_Print","extras":{"surface_finish":"Registered print, selective varnish"},"doubleSided":true,"pbrMetallicRoughness":{"roughnessFactor":0.4549019607843137,"metallicFactor":0,"baseColorTexture":{"index":3}},"normalTexture":{"index":4},"extensions":{"KHR_materials_clearcoat":{"clearcoatFactor":1,"clearcoatRoughnessFactor":0.23999999463558197,"clearcoatTexture":{"index":6}}}},{"name":"Endband cotton ecru","doubleSided":true,"pbrMetallicRoughness":{"baseColorFactor":[0.5,0.46000000834465027,0.3499999940395355,1],"roughnessFactor":0.8799999952316284,"metallicFactor":0}},{"name":"Binding linen warm ecru","doubleSided":true,"pbrMetallicRoughness":{"baseColorFactor":[0.3799999952316284,0.3400000035762787,0.25999999046325684,1],"roughnessFactor":0.9300000071525574,"metallicFactor":0}},{"name":"the-book-of-elon woven ribbon","doubleSided":true,"pbrMetallicRoughness":{"baseColorFactor":[1,0.8962693810462952,0.715693473815918,1],"metallicFactor":0,"metallicRoughnessTexture":{"index":5}},"normalTexture":{"index":0,"scale":1.149999976158142},"extensions":{"KHR_materials_sheen":{"sheenColorFactor":[1,1,1],"sheenRoughnessFactor":0.5}}}],"meshes":[{"name":"Pressed case joint Back board.001","primitives":[{"attributes":{"POSITION":0,"NORMAL":1,"TEXCOORD_0":2},"mode":4,"material":0,"indices":3}]},{"name":"Back collection.001","primitives":[{"attributes":{"POSITION":4,"NORMAL":5},"mode":4,"material":1,"indices":6}]},{"name":"Back description.001","primitives":[{"attributes":{"POSITION":7,"NORMAL":8},"mode":4,"material":1,"indices":9}]},{"name":"Back edition.001","primitives":[{"attributes":{"POSITION":10,"NORMAL":11},"mode":4,"material":2,"indices":12}]},{"name":"Back ISBN.001","primitives":[{"attributes":{"POSITION":13,"NORMAL":14},"mode":4,"material":1,"indices":15}]},{"name":"Back title.001","primitives":[{"attributes":{"POSITION":16,"NORMAL":17},"mode":4,"material":2,"indices":18}]},{"name":"Collection mark.001","primitives":[{"attributes":{"POSITION":19,"NORMAL":20},"mode":4,"material":3,"indices":21}]},{"name":"Continuous compressed cut the-book-of-elon","primitives":[{"attributes":{"POSITION":22,"NORMAL":23,"TEXCOORD_0":24},"mode":4,"material":4,"indices":25},{"attributes":{"POSITION":26,"NORMAL":27},"mode":4,"material":5,"indices":28}]},{"name":"Curved foil rule.002","primitives":[{"attributes":{"POSITION":29,"NORMAL":30},"mode":4,"material":3,"indices":31}]},{"name":"Curved foil rule.003","primitives":[{"attributes":{"POSITION":32,"NORMAL":33},"mode":4,"material":3,"indices":31}]},{"name":"Pressed case joint Wrapped printed cover.001","primitives":[{"attributes":{"POSITION":34,"NORMAL":35,"TEXCOORD_0":36},"mode":4,"material":6,"indices":37},{"attributes":{"POSITION":38,"NORMAL":39,"TEXCOORD_0":40},"mode":4,"material":0,"indices":41}]},{"name":"Head textile endband the-book-of-elon","primitives":[{"attributes":{"POSITION":42,"NORMAL":43},"mode":4,"material":7,"indices":44}]},{"name":"Linen spine lining the-book-of-elon","primitives":[{"attributes":{"POSITION":45,"NORMAL":46},"mode":4,"material":8,"indices":47}]},{"name":"Ribbon flexible satin the-book-of-elon","primitives":[{"attributes":{"POSITION":48,"NORMAL":49,"TEXCOORD_0":50},"mode":4,"material":9,"indices":51}]},{"name":"Rounded cloth spine.001","primitives":[{"attributes":{"POSITION":52,"NORMAL":53,"TEXCOORD_0":54},"mode":4,"material":0,"indices":55}]},{"name":"Spine author.001","primitives":[{"attributes":{"POSITION":56,"NORMAL":57},"mode":4,"material":3,"indices":58}]},{"name":"Spine title.001","primitives":[{"attributes":{"POSITION":59,"NORMAL":60},"mode":4,"material":3,"indices":61}]},{"name":"Tail textile endband the-book-of-elon","primitives":[{"attributes":{"POSITION":62,"NORMAL":63},"mode":4,"material":7,"indices":44}]}],"nodes":[{"name":"Back board.001","extras":{"edge_refined":true,"unpressed_mesh":"Back board.003","pressed_joint_revision":1,"joint_depth_mm":1.036605417735157,"joint_center_mm":6.4},"translation":[0,0,-0.11650000512599945],"mesh":0},{"name":"Back collection.001","translation":[0,-0.5181599855422974,-0.12850001454353333],"rotation":[0,-0.7071068286895752,0.7071068286895752,3.0908616110991716e-8],"mesh":1},{"name":"Back description.001","translation":[0,0.053975000977516174,-0.12850001454353333],"rotation":[0,-0.7071068286895752,0.7071068286895752,3.0908616110991716e-8],"mesh":2},{"name":"Back edition.001","translation":[0,-0.7340599894523621,-0.12850001454353333],"rotation":[0,-0.7071068286895752,0.7071068286895752,3.0908616110991716e-8],"mesh":3},{"name":"Back ISBN.001","translation":[0,-0.842009961605072,-0.12850001454353333],"rotation":[0,-0.7071068286895752,0.7071068286895752,3.0908616110991716e-8],"mesh":4},{"name":"Back title.001","translation":[0,0.6261100172996521,-0.12850001454353333],"rotation":[0,-0.7071068286895752,0.7071068286895752,3.0908616110991716e-8],"mesh":5},{"name":"Collection mark.001","mesh":6},{"name":"Compressed paper signatures the-book-of-elon","extras":{"paper_surface_revision":1,"leaf_count":200,"paper_caliper_mm":0.098,"binding_structure":"Rounded and backed signatures"},"mesh":7},{"name":"Curved foil rule.002","mesh":8},{"name":"Curved foil rule.003","mesh":9},{"name":"Wrapped printed cover.001","extras":{"edge_refined":true,"unpressed_mesh":"Front board.003","pressed_joint_revision":1,"joint_depth_mm":1.0866091631085961,"joint_center_mm":6.4},"translation":[0.6984999775886536,0,0],"mesh":10},{"name":"FrontHinge.001","translation":[-0.6984999179840088,0,0.11650000512599945],"children":[10]},{"name":"Head textile endband the-book-of-elon","extras":{"binding_revision":2},"mesh":11},{"name":"Linen spine lining the-book-of-elon","extras":{"binding_revision":2},"mesh":12},{"name":"Ribbon flexible satin the-book-of-elon","extras":{"binding_revision":2,"ribbon_width_dm":0.043,"ribbon_length_dm":0.29,"ribbon_anchor_dm":[0,-1.0715000000000001,0.006]},"mesh":13},{"name":"Rounded cloth spine.001","mesh":14},{"name":"Spine author.001","mesh":15},{"name":"Spine title.001","mesh":16},{"name":"Tail textile endband the-book-of-elon","extras":{"binding_revision":2},"mesh":17},{"name":"Publisher_the-book-of-elon","extras":{"slug":"the-book-of-elon","dimensions_mm":[139.7,215.9,25.4],"model_design":"Selected publisher front artwork with reconstructed binding, spine, back and interior. Matching front of the red edition; hardcover dimensions from Target 9781544550756. Back and spine reconstructed","edition_source":"https://www.elonmuskbook.org/","surface_stock":"satin-case","edition_print_evidence":"{\"slug\": \"the-book-of-elon\", \"spine\": \"Existing reconstruction; matching spine photograph not found\", \"back\": \"Existing original showcase typography; reverse not verified\"}"},"scale":[0.09704761207103729,0.09999438375234604,0.09971783310174942],"children":[0,1,2,3,4,5,6,7,8,9,11,12,13,14,15,16,17,18]}],"scenes":[{"name":"Selected edition updates","nodes":[19]}],"scene":0,"extensionsUsed":["EXT_meshopt_compression","EXT_texture_webp","KHR_materials_clearcoat","KHR_materials_sheen"],"extensionsRequired":["EXT_meshopt_compression","EXT_texture_webp"]}