{"asset":{"generator":"glTF-Transform v4.5.0","version":"2.0"},"accessors":[{"type":"VEC3","componentType":5126,"count":2392,"max":[0.6982570290565491,1.079319953918457,0.010828527621924877],"min":[-0.6982570290565491,-1.079319953918457,-0.010828527621924877],"normalized":false,"byteOffset":0,"bufferView":0},{"type":"VEC3","componentType":5126,"count":2392,"normalized":false,"byteOffset":0,"bufferView":1},{"type":"VEC2","componentType":5126,"count":2392,"normalized":false,"byteOffset":0,"bufferView":2},{"type":"SCALAR","componentType":5123,"count":12588,"normalized":false,"byteOffset":0,"bufferView":3},{"type":"VEC3","componentType":5126,"count":514,"max":[0.1009504571557045,0,0.0053944955579936504],"min":[-0.09995229542255402,0,-0.005732110235840082],"normalized":false,"byteOffset":0,"bufferView":4},{"type":"VEC3","componentType":5126,"count":514,"normalized":false,"byteOffset":0,"bufferView":5},{"type":"VEC2","componentType":5126,"count":514,"normalized":false,"byteOffset":0,"bufferView":6},{"type":"SCALAR","componentType":5123,"count":1482,"normalized":false,"byteOffset":25176,"bufferView":3},{"type":"VEC3","componentType":5126,"count":7738,"max":[0.17751821875572205,0,0.07542230188846588],"min":[-0.17760008573532104,0,-0.07163350284099579],"normalized":false,"byteOffset":0,"bufferView":7},{"type":"VEC3","componentType":5126,"count":7738,"normalized":false,"byteOffset":0,"bufferView":8},{"type":"VEC2","componentType":5126,"count":7738,"normalized":false,"byteOffset":0,"bufferView":9},{"type":"SCALAR","componentType":5123,"count":22818,"normalized":false,"byteOffset":28140,"bufferView":3},{"type":"VEC3","componentType":5126,"count":236,"max":[0.05715082213282585,0,0.00647339504212141],"min":[-0.05578568950295448,0,-0.006878532003611326],"normalized":false,"byteOffset":0,"bufferView":10},{"type":"VEC3","componentType":5126,"count":236,"normalized":false,"byteOffset":0,"bufferView":11},{"type":"VEC2","componentType":5126,"count":236,"normalized":false,"byteOffset":0,"bufferView":12},{"type":"SCALAR","componentType":5123,"count":678,"normalized":false,"byteOffset":73776,"bufferView":3},{"type":"VEC3","componentType":5126,"count":824,"max":[0.07913339138031006,0,0.005664220545440912],"min":[-0.0783858671784401,0,-0.0060187154449522495],"normalized":false,"byteOffset":0,"bufferView":13},{"type":"VEC3","componentType":5126,"count":824,"normalized":false,"byteOffset":0,"bufferView":14},{"type":"VEC2","componentType":5126,"count":824,"normalized":false,"byteOffset":0,"bufferView":15},{"type":"SCALAR","componentType":5123,"count":2424,"normalized":false,"byteOffset":75132,"bufferView":3},{"type":"VEC3","componentType":5126,"count":168,"max":[0.6635000109672546,1.0470000505447388,0.0010000000474974513],"min":[-0.6635000109672546,-1.0470000505447388,-0.0010000000474974513],"normalized":false,"byteOffset":0,"bufferView":16},{"type":"VEC3","componentType":5126,"count":168,"normalized":false,"byteOffset":0,"bufferView":17},{"type":"VEC2","componentType":5126,"count":168,"normalized":false,"byteOffset":0,"bufferView":18},{"type":"VEC2","componentType":5126,"count":168,"normalized":false,"byteOffset":0,"bufferView":19},{"type":"SCALAR","componentType":5123,"count":564,"normalized":false,"byteOffset":79980,"bufferView":3},{"type":"VEC3","componentType":5126,"count":1140,"max":[0.15638643503189087,0,0.015037741512060165],"min":[-0.15707318484783173,0,-0.016855597496032715],"normalized":false,"byteOffset":0,"bufferView":20},{"type":"VEC3","componentType":5126,"count":1140,"normalized":false,"byteOffset":0,"bufferView":21},{"type":"VEC2","componentType":5126,"count":1140,"normalized":false,"byteOffset":0,"bufferView":22},{"type":"SCALAR","componentType":5123,"count":3384,"normalized":false,"byteOffset":81108,"bufferView":3},{"type":"VEC3","componentType":5126,"count":8562,"max":[-0.7420297861099243,-0.7268475294113159,0.010499999858438969],"min":[-0.7427499890327454,-0.9139924645423889,-0.010499999858438969],"normalized":false,"byteOffset":0,"bufferView":23},{"type":"VEC3","componentType":5126,"count":8562,"normalized":false,"byteOffset":0,"bufferView":24},{"type":"VEC2","componentType":5126,"count":8562,"normalized":false,"byteOffset":0,"bufferView":25},{"type":"SCALAR","componentType":5123,"count":12936,"normalized":false,"byteOffset":87876,"bufferView":3},{"type":"VEC3","componentType":5126,"count":8772,"max":[0.671500027179718,1.051599383354187,0.09799999743700027],"min":[-0.7081000208854675,-1.0515828132629395,-0.09799999743700027],"normalized":false,"byteOffset":0,"bufferView":26},{"type":"VEC3","componentType":5126,"count":8772,"normalized":false,"byteOffset":0,"bufferView":27},{"type":"VEC2","componentType":5126,"count":8772,"normalized":false,"byteOffset":0,"bufferView":28},{"type":"SCALAR","componentType":5123,"count":49152,"normalized":false,"byteOffset":113748,"bufferView":3},{"type":"VEC3","componentType":5126,"count":8,"max":[0.671500027179718,1.0514999628067017,0.09799999743700027],"min":[-0.6884999871253967,-1.0514999628067017,-0.09799999743700027],"normalized":false,"byteOffset":0,"bufferView":29},{"type":"VEC3","componentType":5126,"count":8,"normalized":false,"byteOffset":0,"bufferView":30},{"type":"VEC2","componentType":5126,"count":8,"normalized":false,"byteOffset":0,"bufferView":31},{"type":"SCALAR","componentType":5123,"count":12,"normalized":false,"byteOffset":212052,"bufferView":3},{"type":"VEC3","componentType":5126,"count":64,"max":[-0.72310471534729,-0.5819299817085266,0.0745600014925003],"min":[-0.7426000237464905,-0.5839300155639648,-0.0745600014925003],"normalized":false,"byteOffset":0,"bufferView":32},{"type":"VEC3","componentType":5126,"count":64,"normalized":false,"byteOffset":0,"bufferView":33},{"type":"VEC2","componentType":5126,"count":64,"normalized":false,"byteOffset":0,"bufferView":34},{"type":"SCALAR","componentType":5123,"count":96,"normalized":false,"byteOffset":212076,"bufferView":3},{"type":"VEC3","componentType":5126,"count":64,"max":[-0.72310471534729,0.4975700080394745,0.0745600014925003],"min":[-0.7426000237464905,0.49557000398635864,-0.0745600014925003],"normalized":false,"byteOffset":0,"bufferView":35},{"type":"VEC3","componentType":5126,"count":64,"normalized":false,"byteOffset":0,"bufferView":36},{"type":"VEC2","componentType":5126,"count":64,"normalized":false,"byteOffset":0,"bufferView":37},{"type":"VEC3","componentType":5126,"count":168,"max":[0.6635000109672546,1.0470000505447388,0.0010000000474974513],"min":[-0.6635000109672546,-1.0470000505447388,-0.0010000000474974513],"normalized":false,"byteOffset":0,"bufferView":38},{"type":"VEC3","componentType":5126,"count":168,"normalized":false,"byteOffset":0,"bufferView":39},{"type":"VEC2","componentType":5126,"count":168,"normalized":false,"byteOffset":0,"bufferView":40},{"type":"VEC2","componentType":5126,"count":168,"normalized":false,"byteOffset":0,"bufferView":41},{"type":"VEC3","componentType":5126,"count":1326,"max":[0.6982571482658386,1.079319953918457,0.011155091226100922],"min":[-0.6982571482658386,-1.079319953918457,-0.008788642473518848],"normalized":false,"byteOffset":0,"bufferView":42},{"type":"VEC3","componentType":5126,"count":1326,"normalized":false,"byteOffset":0,"bufferView":43},{"type":"VEC2","componentType":5126,"count":1326,"normalized":false,"byteOffset":0,"bufferView":44},{"type":"VEC2","componentType":5126,"count":1326,"normalized":false,"byteOffset":0,"bufferView":45},{"type":"VEC2","componentType":5126,"count":1326,"normalized":false,"byteOffset":0,"bufferView":46},{"type":"VEC2","componentType":5126,"count":1326,"normalized":false,"byteOffset":0,"bufferView":47},{"type":"SCALAR","componentType":5123,"count":6720,"normalized":false,"byteOffset":212268,"bufferView":3},{"type":"VEC3","componentType":5126,"count":1192,"max":[0.6982571482658386,1.079319953918457,-0.004798297770321369],"min":[-0.6982571482658386,-1.079319953918457,-0.011350873857736588],"normalized":false,"byteOffset":0,"bufferView":48},{"type":"VEC3","componentType":5126,"count":1192,"normalized":false,"byteOffset":0,"bufferView":49},{"type":"VEC2","componentType":5126,"count":1192,"normalized":false,"byteOffset":0,"bufferView":50},{"type":"VEC2","componentType":5126,"count":1192,"normalized":false,"byteOffset":0,"bufferView":51},{"type":"VEC2","componentType":5126,"count":1192,"normalized":false,"byteOffset":0,"bufferView":52},{"type":"VEC2","componentType":5126,"count":1192,"normalized":false,"byteOffset":0,"bufferView":53},{"type":"SCALAR","componentType":5123,"count":5940,"normalized":false,"byteOffset":225708,"bufferView":3},{"type":"VEC3","componentType":5126,"count":2810,"max":[-0.6832500100135803,1.0545419454574585,0.09799999743700027],"min":[-0.7113500237464905,1.0464580059051514,-0.09799999743700027],"normalized":false,"byteOffset":0,"bufferView":54},{"type":"VEC3","componentType":5126,"count":2810,"normalized":false,"byteOffset":0,"bufferView":55},{"type":"SCALAR","componentType":5123,"count":16800,"normalized":false,"byteOffset":237588,"bufferView":3},{"type":"VEC3","componentType":5126,"count":588,"max":[-0.6891722083091736,1.0394999980926514,0.09799999743700027],"min":[-0.7110999822616577,-1.0394999980926514,-0.09799999743700027],"normalized":false,"byteOffset":0,"bufferView":56},{"type":"VEC3","componentType":5126,"count":588,"normalized":false,"byteOffset":0,"bufferView":57},{"type":"SCALAR","componentType":5123,"count":1164,"normalized":false,"byteOffset":271188,"bufferView":3},{"type":"VEC3","componentType":5126,"count":730,"max":[0.021716931834816933,-1.0714991092681885,0.02216394804418087],"min":[-0.021716931834816933,-1.3615000247955322,0.006000000052154064],"normalized":false,"byteOffset":0,"bufferView":58},{"type":"VEC3","componentType":5126,"count":730,"normalized":false,"byteOffset":0,"bufferView":59},{"type":"VEC2","componentType":5126,"count":730,"normalized":false,"byteOffset":0,"bufferView":60},{"type":"SCALAR","componentType":5123,"count":4368,"normalized":false,"byteOffset":273516,"bufferView":3},{"type":"VEC3","componentType":5126,"count":2178,"max":[-0.690644383430481,1.0795612335205078,0.11649999767541885],"min":[-0.7409996390342712,-1.0795600414276123,-0.11649999767541885],"normalized":false,"byteOffset":0,"bufferView":61},{"type":"VEC3","componentType":5126,"count":2178,"normalized":false,"byteOffset":0,"bufferView":62},{"type":"VEC2","componentType":5126,"count":2178,"normalized":false,"byteOffset":0,"bufferView":63},{"type":"SCALAR","componentType":5123,"count":13056,"normalized":false,"byteOffset":282252,"bufferView":3},{"type":"VEC3","componentType":5126,"count":12941,"max":[-0.7418064475059509,0.9124717712402344,0.013000000268220901],"min":[-0.7427499890327454,0.5988281965255737,-0.013000000268220901],"normalized":false,"byteOffset":0,"bufferView":64},{"type":"VEC3","componentType":5126,"count":12941,"normalized":false,"byteOffset":0,"bufferView":65},{"type":"VEC2","componentType":5126,"count":12941,"normalized":false,"byteOffset":0,"bufferView":66},{"type":"SCALAR","componentType":5123,"count":19440,"normalized":false,"byteOffset":308364,"bufferView":3},{"type":"VEC3","componentType":5126,"count":11748,"max":[-0.7395006418228149,0.2748013138771057,0.027960000559687614],"min":[-0.7427499890327454,-0.2748013138771057,-0.027960000559687614],"normalized":false,"byteOffset":0,"bufferView":67},{"type":"VEC3","componentType":5126,"count":11748,"normalized":false,"byteOffset":0,"bufferView":68},{"type":"VEC2","componentType":5126,"count":11748,"normalized":false,"byteOffset":0,"bufferView":69},{"type":"SCALAR","componentType":5123,"count":17736,"normalized":false,"byteOffset":347244,"bufferView":3},{"type":"VEC3","componentType":5126,"count":2810,"max":[-0.6832500100135803,-1.0464580059051514,0.09799999743700027],"min":[-0.7113500237464905,-1.0545419454574585,-0.09799999743700027],"normalized":false,"byteOffset":0,"bufferView":70},{"type":"VEC3","componentType":5126,"count":2810,"normalized":false,"byteOffset":0,"bufferView":71},{"type":"VEC3","componentType":5126,"count":1066,"max":[1.3220000267028809,1.0475000143051147,0.003754149656742811],"min":[-0.000021593448764178902,-1.0475000143051147,0],"normalized":false,"byteOffset":0,"bufferView":72},{"type":"VEC3","componentType":5126,"count":1066,"normalized":false,"byteOffset":0,"bufferView":73},{"type":"VEC2","componentType":5126,"count":1066,"normalized":false,"byteOffset":0,"bufferView":74},{"type":"SCALAR","componentType":5123,"count":6384,"normalized":false,"byteOffset":382716,"bufferView":3},{"type":"VEC3","componentType":5126,"count":6668,"max":[0.7755191326141357,-0.09518511593341827,0.0042517525143921375],"min":[0.5600708723068237,-0.12642361223697662,0.0042371018789708614],"normalized":false,"byteOffset":0,"bufferView":75},{"type":"VEC3","componentType":5126,"count":6668,"normalized":false,"byteOffset":0,"bufferView":76},{"type":"VEC2","componentType":5126,"count":6668,"normalized":false,"byteOffset":0,"bufferView":77},{"type":"SCALAR","componentType":5123,"count":19620,"normalized":false,"byteOffset":395484,"bufferView":3},{"type":"VEC3","componentType":5126,"count":9426,"max":[0.7977783679962158,-0.7701742649078369,0.004252193961292505],"min":[0.5372025370597839,-0.7844014167785645,0.004233165178447962],"normalized":false,"byteOffset":0,"bufferView":78},{"type":"VEC3","componentType":5126,"count":9426,"normalized":false,"byteOffset":0,"bufferView":79},{"type":"VEC2","componentType":5126,"count":9426,"normalized":false,"byteOffset":0,"bufferView":80},{"type":"SCALAR","componentType":5123,"count":27840,"normalized":false,"byteOffset":434724,"bufferView":3},{"type":"VEC3","componentType":5126,"count":6096,"max":[0.9555802345275879,0.44125980138778687,0.004253695718944073],"min":[0.3781546950340271,0.38250890374183655,0.00416519632562995],"normalized":false,"byteOffset":0,"bufferView":81},{"type":"VEC3","componentType":5126,"count":6096,"normalized":false,"byteOffset":0,"bufferView":82},{"type":"VEC2","componentType":5126,"count":6096,"normalized":false,"byteOffset":0,"bufferView":83},{"type":"SCALAR","componentType":5123,"count":17736,"normalized":false,"byteOffset":490404,"bufferView":3}],"bufferViews":[{"buffer":1,"byteOffset":0,"byteLength":28704,"target":34962,"byteStride":12,"extensions":{"EXT_meshopt_compression":{"buffer":0,"byteOffset":0,"byteLength":17197,"mode":"ATTRIBUTES","byteStride":12,"count":2392}}},{"buffer":1,"byteOffset":28704,"byteLength":28704,"target":34962,"byteStride":12,"extensions":{"EXT_meshopt_compression":{"buffer":0,"byteOffset":17200,"byteLength":21619,"mode":"ATTRIBUTES","byteStride":12,"count":2392}}},{"buffer":1,"byteOffset":57408,"byteLength":19136,"target":34962,"byteStride":8,"extensions":{"EXT_meshopt_compression":{"buffer":0,"byteOffset":38820,"byteLength":13533,"mode":"ATTRIBUTES","byteStride":8,"count":2392}}},{"buffer":1,"byteOffset":76544,"byteLength":525876,"target":34963,"extensions":{"EXT_meshopt_compression":{"buffer":0,"byteOffset":52356,"byteLength":243368,"mode":"TRIANGLES","byteStride":2,"count":262938}}},{"buffer":1,"byteOffset":602420,"byteLength":6168,"target":34962,"byteStride":12,"extensions":{"EXT_meshopt_compression":{"buffer":0,"byteOffset":295724,"byteLength":3261,"mode":"ATTRIBUTES","byteStride":12,"count":514}}},{"buffer":1,"byteOffset":608588,"byteLength":6168,"target":34962,"byteStride":12,"extensions":{"EXT_meshopt_compression":{"buffer":0,"byteOffset":298988,"byteLength":141,"mode":"ATTRIBUTES","byteStride":12,"count":514}}},{"buffer":1,"byteOffset":614756,"byteLength":4112,"target":34962,"byteStride":8,"extensions":{"EXT_meshopt_compression":{"buffer":0,"byteOffset":299132,"byteLength":1619,"mode":"ATTRIBUTES","byteStride":8,"count":514}}},{"buffer":1,"byteOffset":618868,"byteLength":92856,"target":34962,"byteStride":12,"extensions":{"EXT_meshopt_compression":{"buffer":0,"byteOffset":300752,"byteLength":40507,"mode":"ATTRIBUTES","byteStride":12,"count":7738}}},{"buffer":1,"byteOffset":711724,"byteLength":92856,"target":34962,"byteStride":12,"extensions":{"EXT_meshopt_compression":{"buffer":0,"byteOffset":341260,"byteLength":1485,"mode":"ATTRIBUTES","byteStride":12,"count":7738}}},{"buffer":1,"byteOffset":804580,"byteLength":61904,"target":34962,"byteStride":8,"extensions":{"EXT_meshopt_compression":{"buffer":0,"byteOffset":342748,"byteLength":22749,"mode":"ATTRIBUTES","byteStride":8,"count":7738}}},{"buffer":1,"byteOffset":866484,"byteLength":2832,"target":34962,"byteStride":12,"extensions":{"EXT_meshopt_compression":{"buffer":0,"byteOffset":365500,"byteLength":1547,"mode":"ATTRIBUTES","byteStride":12,"count":236}}},{"buffer":1,"byteOffset":869316,"byteLength":2832,"target":34962,"byteStride":12,"extensions":{"EXT_meshopt_compression":{"buffer":0,"byteOffset":367048,"byteLength":81,"mode":"ATTRIBUTES","byteStride":12,"count":236}}},{"buffer":1,"byteOffset":872148,"byteLength":1888,"target":34962,"byteStride":8,"extensions":{"EXT_meshopt_compression":{"buffer":0,"byteOffset":367132,"byteLength":736,"mode":"ATTRIBUTES","byteStride":8,"count":236}}},{"buffer":1,"byteOffset":874036,"byteLength":9888,"target":34962,"byteStride":12,"extensions":{"EXT_meshopt_compression":{"buffer":0,"byteOffset":367868,"byteLength":5167,"mode":"ATTRIBUTES","byteStride":12,"count":824}}},{"buffer":1,"byteOffset":883924,"byteLength":9888,"target":34962,"byteStride":12,"extensions":{"EXT_meshopt_compression":{"buffer":0,"byteOffset":373036,"byteLength":189,"mode":"ATTRIBUTES","byteStride":12,"count":824}}},{"buffer":1,"byteOffset":893812,"byteLength":6592,"target":34962,"byteStride":8,"extensions":{"EXT_meshopt_compression":{"buffer":0,"byteOffset":373228,"byteLength":2497,"mode":"ATTRIBUTES","byteStride":8,"count":824}}},{"buffer":1,"byteOffset":900404,"byteLength":2016,"target":34962,"byteStride":12,"extensions":{"EXT_meshopt_compression":{"buffer":0,"byteOffset":375728,"byteLength":1106,"mode":"ATTRIBUTES","byteStride":12,"count":168}}},{"buffer":1,"byteOffset":902420,"byteLength":2016,"target":34962,"byteStride":12,"extensions":{"EXT_meshopt_compression":{"buffer":0,"byteOffset":376836,"byteLength":1496,"mode":"ATTRIBUTES","byteStride":12,"count":168}}},{"buffer":1,"byteOffset":904436,"byteLength":1344,"target":34962,"byteStride":8,"extensions":{"EXT_meshopt_compression":{"buffer":0,"byteOffset":378332,"byteLength":1213,"mode":"ATTRIBUTES","byteStride":8,"count":168}}},{"buffer":1,"byteOffset":905780,"byteLength":1344,"target":34962,"byteStride":8,"extensions":{"EXT_meshopt_compression":{"buffer":0,"byteOffset":379548,"byteLength":654,"mode":"ATTRIBUTES","byteStride":8,"count":168}}},{"buffer":1,"byteOffset":907124,"byteLength":13680,"target":34962,"byteStride":12,"extensions":{"EXT_meshopt_compression":{"buffer":0,"byteOffset":380204,"byteLength":6855,"mode":"ATTRIBUTES","byteStride":12,"count":1140}}},{"buffer":1,"byteOffset":920804,"byteLength":13680,"target":34962,"byteStride":12,"extensions":{"EXT_meshopt_compression":{"buffer":0,"byteOffset":387060,"byteLength":249,"mode":"ATTRIBUTES","byteStride":12,"count":1140}}},{"buffer":1,"byteOffset":934484,"byteLength":9120,"target":34962,"byteStride":8,"extensions":{"EXT_meshopt_compression":{"buffer":0,"byteOffset":387312,"byteLength":3174,"mode":"ATTRIBUTES","byteStride":8,"count":1140}}},{"buffer":1,"byteOffset":943604,"byteLength":102744,"target":34962,"byteStride":12,"extensions":{"EXT_meshopt_compression":{"buffer":0,"byteOffset":390488,"byteLength":39432,"mode":"ATTRIBUTES","byteStride":12,"count":8562}}},{"buffer":1,"byteOffset":1046348,"byteLength":102744,"target":34962,"byteStride":12,"extensions":{"EXT_meshopt_compression":{"buffer":0,"byteOffset":429920,"byteLength":65522,"mode":"ATTRIBUTES","byteStride":12,"count":8562}}},{"buffer":1,"byteOffset":1149092,"byteLength":68496,"target":34962,"byteStride":8,"extensions":{"EXT_meshopt_compression":{"buffer":0,"byteOffset":495444,"byteLength":21172,"mode":"ATTRIBUTES","byteStride":8,"count":8562}}},{"buffer":1,"byteOffset":1217588,"byteLength":105264,"target":34962,"byteStride":12,"extensions":{"EXT_meshopt_compression":{"buffer":0,"byteOffset":516616,"byteLength":43364,"mode":"ATTRIBUTES","byteStride":12,"count":8772}}},{"buffer":1,"byteOffset":1322852,"byteLength":105264,"target":34962,"byteStride":12,"extensions":{"EXT_meshopt_compression":{"buffer":0,"byteOffset":559980,"byteLength":15828,"mode":"ATTRIBUTES","byteStride":12,"count":8772}}},{"buffer":1,"byteOffset":1428116,"byteLength":70176,"target":34962,"byteStride":8,"extensions":{"EXT_meshopt_compression":{"buffer":0,"byteOffset":575808,"byteLength":35651,"mode":"ATTRIBUTES","byteStride":8,"count":8772}}},{"buffer":1,"byteOffset":1498292,"byteLength":96,"target":34962,"byteStride":12,"extensions":{"EXT_meshopt_compression":{"buffer":0,"byteOffset":611460,"byteLength":89,"mode":"ATTRIBUTES","byteStride":12,"count":8}}},{"buffer":1,"byteOffset":1498388,"byteLength":96,"target":34962,"byteStride":12,"extensions":{"EXT_meshopt_compression":{"buffer":0,"byteOffset":611552,"byteLength":50,"mode":"ATTRIBUTES","byteStride":12,"count":8}}},{"buffer":1,"byteOffset":1498484,"byteLength":64,"target":34962,"byteStride":8,"extensions":{"EXT_meshopt_compression":{"buffer":0,"byteOffset":611604,"byteLength":71,"mode":"ATTRIBUTES","byteStride":8,"count":8}}},{"buffer":1,"byteOffset":1498548,"byteLength":768,"target":34962,"byteStride":12,"extensions":{"EXT_meshopt_compression":{"buffer":0,"byteOffset":611676,"byteLength":328,"mode":"ATTRIBUTES","byteStride":12,"count":64}}},{"buffer":1,"byteOffset":1499316,"byteLength":768,"target":34962,"byteStride":12,"extensions":{"EXT_meshopt_compression":{"buffer":0,"byteOffset":612004,"byteLength":374,"mode":"ATTRIBUTES","byteStride":12,"count":64}}},{"buffer":1,"byteOffset":1500084,"byteLength":512,"target":34962,"byteStride":8,"extensions":{"EXT_meshopt_compression":{"buffer":0,"byteOffset":612380,"byteLength":150,"mode":"ATTRIBUTES","byteStride":8,"count":64}}},{"buffer":1,"byteOffset":1500596,"byteLength":768,"target":34962,"byteStride":12,"extensions":{"EXT_meshopt_compression":{"buffer":0,"byteOffset":612532,"byteLength":328,"mode":"ATTRIBUTES","byteStride":12,"count":64}}},{"buffer":1,"byteOffset":1501364,"byteLength":768,"target":34962,"byteStride":12,"extensions":{"EXT_meshopt_compression":{"buffer":0,"byteOffset":612860,"byteLength":374,"mode":"ATTRIBUTES","byteStride":12,"count":64}}},{"buffer":1,"byteOffset":1502132,"byteLength":512,"target":34962,"byteStride":8,"extensions":{"EXT_meshopt_compression":{"buffer":0,"byteOffset":613236,"byteLength":154,"mode":"ATTRIBUTES","byteStride":8,"count":64}}},{"buffer":1,"byteOffset":1502644,"byteLength":2016,"target":34962,"byteStride":12,"extensions":{"EXT_meshopt_compression":{"buffer":0,"byteOffset":613392,"byteLength":1106,"mode":"ATTRIBUTES","byteStride":12,"count":168}}},{"buffer":1,"byteOffset":1504660,"byteLength":2016,"target":34962,"byteStride":12,"extensions":{"EXT_meshopt_compression":{"buffer":0,"byteOffset":614500,"byteLength":1496,"mode":"ATTRIBUTES","byteStride":12,"count":168}}},{"buffer":1,"byteOffset":1506676,"byteLength":1344,"target":34962,"byteStride":8,"extensions":{"EXT_meshopt_compression":{"buffer":0,"byteOffset":615996,"byteLength":1213,"mode":"ATTRIBUTES","byteStride":8,"count":168}}},{"buffer":1,"byteOffset":1508020,"byteLength":1344,"target":34962,"byteStride":8,"extensions":{"EXT_meshopt_compression":{"buffer":0,"byteOffset":617212,"byteLength":654,"mode":"ATTRIBUTES","byteStride":8,"count":168}}},{"buffer":1,"byteOffset":1509364,"byteLength":15912,"target":34962,"byteStride":12,"extensions":{"EXT_meshopt_compression":{"buffer":0,"byteOffset":617868,"byteLength":10287,"mode":"ATTRIBUTES","byteStride":12,"count":1326}}},{"buffer":1,"byteOffset":1525276,"byteLength":15912,"target":34962,"byteStride":12,"extensions":{"EXT_meshopt_compression":{"buffer":0,"byteOffset":628156,"byteLength":12436,"mode":"ATTRIBUTES","byteStride":12,"count":1326}}},{"buffer":1,"byteOffset":1541188,"byteLength":10608,"target":34962,"byteStride":8,"extensions":{"EXT_meshopt_compression":{"buffer":0,"byteOffset":640592,"byteLength":7580,"mode":"ATTRIBUTES","byteStride":8,"count":1326}}},{"buffer":1,"byteOffset":1551796,"byteLength":10608,"target":34962,"byteStride":8,"extensions":{"EXT_meshopt_compression":{"buffer":0,"byteOffset":648172,"byteLength":7022,"mode":"ATTRIBUTES","byteStride":8,"count":1326}}},{"buffer":1,"byteOffset":1562404,"byteLength":10608,"target":34962,"byteStride":8,"extensions":{"EXT_meshopt_compression":{"buffer":0,"byteOffset":655196,"byteLength":6834,"mode":"ATTRIBUTES","byteStride":8,"count":1326}}},{"buffer":1,"byteOffset":1573012,"byteLength":10608,"target":34962,"byteStride":8,"extensions":{"EXT_meshopt_compression":{"buffer":0,"byteOffset":662032,"byteLength":6200,"mode":"ATTRIBUTES","byteStride":8,"count":1326}}},{"buffer":1,"byteOffset":1583620,"byteLength":14304,"target":34962,"byteStride":12,"extensions":{"EXT_meshopt_compression":{"buffer":0,"byteOffset":668232,"byteLength":8822,"mode":"ATTRIBUTES","byteStride":12,"count":1192}}},{"buffer":1,"byteOffset":1597924,"byteLength":14304,"target":34962,"byteStride":12,"extensions":{"EXT_meshopt_compression":{"buffer":0,"byteOffset":677056,"byteLength":10552,"mode":"ATTRIBUTES","byteStride":12,"count":1192}}},{"buffer":1,"byteOffset":1612228,"byteLength":9536,"target":34962,"byteStride":8,"extensions":{"EXT_meshopt_compression":{"buffer":0,"byteOffset":687608,"byteLength":6835,"mode":"ATTRIBUTES","byteStride":8,"count":1192}}},{"buffer":1,"byteOffset":1621764,"byteLength":9536,"target":34962,"byteStride":8,"extensions":{"EXT_meshopt_compression":{"buffer":0,"byteOffset":694444,"byteLength":6285,"mode":"ATTRIBUTES","byteStride":8,"count":1192}}},{"buffer":1,"byteOffset":1631300,"byteLength":9536,"target":34962,"byteStride":8,"extensions":{"EXT_meshopt_compression":{"buffer":0,"byteOffset":700732,"byteLength":6219,"mode":"ATTRIBUTES","byteStride":8,"count":1192}}},{"buffer":1,"byteOffset":1640836,"byteLength":9536,"target":34962,"byteStride":8,"extensions":{"EXT_meshopt_compression":{"buffer":0,"byteOffset":706952,"byteLength":5600,"mode":"ATTRIBUTES","byteStride":8,"count":1192}}},{"buffer":1,"byteOffset":1650372,"byteLength":33720,"target":34962,"byteStride":12,"extensions":{"EXT_meshopt_compression":{"buffer":0,"byteOffset":712552,"byteLength":15765,"mode":"ATTRIBUTES","byteStride":12,"count":2810}}},{"buffer":1,"byteOffset":1684092,"byteLength":33720,"target":34962,"byteStride":12,"extensions":{"EXT_meshopt_compression":{"buffer":0,"byteOffset":728320,"byteLength":30231,"mode":"ATTRIBUTES","byteStride":12,"count":2810}}},{"buffer":1,"byteOffset":1717812,"byteLength":7056,"target":34962,"byteStride":12,"extensions":{"EXT_meshopt_compression":{"buffer":0,"byteOffset":758552,"byteLength":1840,"mode":"ATTRIBUTES","byteStride":12,"count":588}}},{"buffer":1,"byteOffset":1724868,"byteLength":7056,"target":34962,"byteStride":12,"extensions":{"EXT_meshopt_compression":{"buffer":0,"byteOffset":760392,"byteLength":5813,"mode":"ATTRIBUTES","byteStride":12,"count":588}}},{"buffer":1,"byteOffset":1731924,"byteLength":8760,"target":34962,"byteStride":12,"extensions":{"EXT_meshopt_compression":{"buffer":0,"byteOffset":766208,"byteLength":4464,"mode":"ATTRIBUTES","byteStride":12,"count":730}}},{"buffer":1,"byteOffset":1740684,"byteLength":8760,"target":34962,"byteStride":12,"extensions":{"EXT_meshopt_compression":{"buffer":0,"byteOffset":770672,"byteLength":6185,"mode":"ATTRIBUTES","byteStride":12,"count":730}}},{"buffer":1,"byteOffset":1749444,"byteLength":5840,"target":34962,"byteStride":8,"extensions":{"EXT_meshopt_compression":{"buffer":0,"byteOffset":776860,"byteLength":2354,"mode":"ATTRIBUTES","byteStride":8,"count":730}}},{"buffer":1,"byteOffset":1755284,"byteLength":26136,"target":34962,"byteStride":12,"extensions":{"EXT_meshopt_compression":{"buffer":0,"byteOffset":779216,"byteLength":15189,"mode":"ATTRIBUTES","byteStride":12,"count":2178}}},{"buffer":1,"byteOffset":1781420,"byteLength":26136,"target":34962,"byteStride":12,"extensions":{"EXT_meshopt_compression":{"buffer":0,"byteOffset":794408,"byteLength":21426,"mode":"ATTRIBUTES","byteStride":12,"count":2178}}},{"buffer":1,"byteOffset":1807556,"byteLength":17424,"target":34962,"byteStride":8,"extensions":{"EXT_meshopt_compression":{"buffer":0,"byteOffset":815836,"byteLength":6858,"mode":"ATTRIBUTES","byteStride":8,"count":2178}}},{"buffer":1,"byteOffset":1824980,"byteLength":155292,"target":34962,"byteStride":12,"extensions":{"EXT_meshopt_compression":{"buffer":0,"byteOffset":822696,"byteLength":61655,"mode":"ATTRIBUTES","byteStride":12,"count":12941}}},{"buffer":1,"byteOffset":1980272,"byteLength":155292,"target":34962,"byteStride":12,"extensions":{"EXT_meshopt_compression":{"buffer":0,"byteOffset":884352,"byteLength":102212,"mode":"ATTRIBUTES","byteStride":12,"count":12941}}},{"buffer":1,"byteOffset":2135564,"byteLength":103528,"target":34962,"byteStride":8,"extensions":{"EXT_meshopt_compression":{"buffer":0,"byteOffset":986564,"byteLength":31106,"mode":"ATTRIBUTES","byteStride":8,"count":12941}}},{"buffer":1,"byteOffset":2239092,"byteLength":140976,"target":34962,"byteStride":12,"extensions":{"EXT_meshopt_compression":{"buffer":0,"byteOffset":1017672,"byteLength":58747,"mode":"ATTRIBUTES","byteStride":12,"count":11748}}},{"buffer":1,"byteOffset":2380068,"byteLength":140976,"target":34962,"byteStride":12,"extensions":{"EXT_meshopt_compression":{"buffer":0,"byteOffset":1076420,"byteLength":95139,"mode":"ATTRIBUTES","byteStride":12,"count":11748}}},{"buffer":1,"byteOffset":2521044,"byteLength":93984,"target":34962,"byteStride":8,"extensions":{"EXT_meshopt_compression":{"buffer":0,"byteOffset":1171560,"byteLength":29239,"mode":"ATTRIBUTES","byteStride":8,"count":11748}}},{"buffer":1,"byteOffset":2615028,"byteLength":33720,"target":34962,"byteStride":12,"extensions":{"EXT_meshopt_compression":{"buffer":0,"byteOffset":1200800,"byteLength":15765,"mode":"ATTRIBUTES","byteStride":12,"count":2810}}},{"buffer":1,"byteOffset":2648748,"byteLength":33720,"target":34962,"byteStride":12,"extensions":{"EXT_meshopt_compression":{"buffer":0,"byteOffset":1216568,"byteLength":30230,"mode":"ATTRIBUTES","byteStride":12,"count":2810}}},{"buffer":1,"byteOffset":2682468,"byteLength":12792,"target":34962,"byteStride":12,"extensions":{"EXT_meshopt_compression":{"buffer":0,"byteOffset":1246800,"byteLength":6725,"mode":"ATTRIBUTES","byteStride":12,"count":1066}}},{"buffer":1,"byteOffset":2695260,"byteLength":12792,"target":34962,"byteStride":12,"extensions":{"EXT_meshopt_compression":{"buffer":0,"byteOffset":1253528,"byteLength":4149,"mode":"ATTRIBUTES","byteStride":12,"count":1066}}},{"buffer":1,"byteOffset":2708052,"byteLength":8528,"target":34962,"byteStride":8,"extensions":{"EXT_meshopt_compression":{"buffer":0,"byteOffset":1257680,"byteLength":3771,"mode":"ATTRIBUTES","byteStride":8,"count":1066}}},{"buffer":1,"byteOffset":2716580,"byteLength":80016,"target":34962,"byteStride":12,"extensions":{"EXT_meshopt_compression":{"buffer":0,"byteOffset":1261452,"byteLength":35159,"mode":"ATTRIBUTES","byteStride":12,"count":6668}}},{"buffer":1,"byteOffset":2796596,"byteLength":80016,"target":34962,"byteStride":12,"extensions":{"EXT_meshopt_compression":{"buffer":0,"byteOffset":1296612,"byteLength":9514,"mode":"ATTRIBUTES","byteStride":12,"count":6668}}},{"buffer":1,"byteOffset":2876612,"byteLength":53344,"target":34962,"byteStride":8,"extensions":{"EXT_meshopt_compression":{"buffer":0,"byteOffset":1306128,"byteLength":23760,"mode":"ATTRIBUTES","byteStride":8,"count":6668}}},{"buffer":1,"byteOffset":2929956,"byteLength":113112,"target":34962,"byteStride":12,"extensions":{"EXT_meshopt_compression":{"buffer":0,"byteOffset":1329888,"byteLength":46195,"mode":"ATTRIBUTES","byteStride":12,"count":9426}}},{"buffer":1,"byteOffset":3043068,"byteLength":113112,"target":34962,"byteStride":12,"extensions":{"EXT_meshopt_compression":{"buffer":0,"byteOffset":1376084,"byteLength":2707,"mode":"ATTRIBUTES","byteStride":12,"count":9426}}},{"buffer":1,"byteOffset":3156180,"byteLength":75408,"target":34962,"byteStride":8,"extensions":{"EXT_meshopt_compression":{"buffer":0,"byteOffset":1378792,"byteLength":33046,"mode":"ATTRIBUTES","byteStride":8,"count":9426}}},{"buffer":1,"byteOffset":3231588,"byteLength":73152,"target":34962,"byteStride":12,"extensions":{"EXT_meshopt_compression":{"buffer":0,"byteOffset":1411840,"byteLength":32719,"mode":"ATTRIBUTES","byteStride":12,"count":6096}}},{"buffer":1,"byteOffset":3304740,"byteLength":73152,"target":34962,"byteStride":12,"extensions":{"EXT_meshopt_compression":{"buffer":0,"byteOffset":1444560,"byteLength":7634,"mode":"ATTRIBUTES","byteStride":12,"count":6096}}},{"buffer":1,"byteOffset":3377892,"byteLength":48768,"target":34962,"byteStride":8,"extensions":{"EXT_meshopt_compression":{"buffer":0,"byteOffset":1452196,"byteLength":21895,"mode":"ATTRIBUTES","byteStride":8,"count":6096}}}],"samplers":[{"magFilter":9729,"minFilter":9987,"wrapS":10497,"wrapT":10497},{"magFilter":9729,"minFilter":9987,"wrapS":33071,"wrapT":33071}],"textures":[{"source":0,"sampler":0},{"source":2,"sampler":0},{"sampler":0,"extensions":{"EXT_texture_webp":{"source":1}}},{"sampler":0,"extensions":{"EXT_texture_webp":{"source":3}}},{"sampler":0,"extensions":{"EXT_texture_webp":{"source":5}}},{"sampler":0,"extensions":{"EXT_texture_webp":{"source":4}}},{"source":8,"sampler":1},{"sampler":0,"extensions":{"EXT_texture_webp":{"source":7}}},{"sampler":0,"extensions":{"EXT_texture_webp":{"source":6}}},{"sampler":0,"extensions":{"EXT_texture_webp":{"source":9}}}],"images":[{"name":"book_pattern_nor_gl_2k","mimeType":"image/jpeg","uri":"shared/140c3719f3201130f562bf79.jpg"},{"name":"Paper001_2K-JPG_NormalGL","mimeType":"image/webp","uri":"shared/a490f2254a54e6ac01465d82.webp"},{"name":"Paper001_2K-JPG_Color","mimeType":"image/jpeg","uri":"shared/1ec1da7815c3e53e02f7f6f4.jpg"},{"name":"Paper001_2K-JPG_Roughness","mimeType":"image/webp","uri":"shared/98c3a72e3346f80ad454feb3.webp"},{"name":"compressed-paper-normal","mimeType":"image/webp","uri":"shared/c65a4a9bdd0dce53b8ec9861.webp"},{"name":"compressed-paper-color","mimeType":"image/webp","uri":"shared/e933106c126139066215af87.webp"},{"name":"the-book-of-elon_print_orm","mimeType":"image/webp","uri":"shared/e3a0b3fc2d519093ce7398c3.webp"},{"name":"the-book-of-elon_print_normal","mimeType":"image/webp","uri":"shared/1cfa445ed4e585c719afc178.webp"},{"name":"edition-the-book-of-elon-sharp","mimeType":"image/jpeg","uri":"shared/75a1c649ddd3fe921a1bf0b8.jpg"},{"name":"book_pattern_rough_2k","mimeType":"image/webp","uri":"shared/8bb161f505fd3344121ca5dd.webp"}],"buffers":[{"uri":"shared/4da03549ee0f29d053b6b3c3.bin","byteLength":1474092},{"byteLength":3426660,"extensions":{"EXT_meshopt_compression":{"fallback":true}}}],"materials":[{"name":"the-book-of-elon case material","doubleSided":true,"pbrMetallicRoughness":{"baseColorFactor":[0.7835378050804138,0.01032982300966978,0.03560131415724754,1],"roughnessFactor":0.5,"metallicFactor":0},"normalTexture":{"index":0,"scale":0.1599999964237213},"extensions":{"KHR_materials_clearcoat":{"clearcoatFactor":0.07999999821186066,"clearcoatRoughnessFactor":0.36000001430511475}}},{"name":"MAT_the-book-of-elon_BackInk","doubleSided":true,"pbrMetallicRoughness":{"baseColorFactor":[1,0.8962693810462952,0.715693473815918,1],"roughnessFactor":0.4000000059604645,"metallicFactor":0},"extensions":{"KHR_materials_clearcoat":{"clearcoatFactor":0.07000000029802322,"clearcoatRoughnessFactor":0}}},{"name":"MAT_the-book-of-elon_Stamped_Ink","doubleSided":true,"pbrMetallicRoughness":{"baseColorFactor":[1,0.8962693810462952,0.715693473815918,1],"roughnessFactor":0.4000000059604645,"metallicFactor":0},"extensions":{"KHR_materials_clearcoat":{"clearcoatFactor":0.07000000029802322,"clearcoatRoughnessFactor":0.20000000298023224}}},{"name":"MAT_Uncoated_Paper_Fibre","doubleSided":true,"pbrMetallicRoughness":{"metallicFactor":0,"baseColorTexture":{"index":1,"texCoord":1},"metallicRoughnessTexture":{"index":3,"texCoord":1}},"normalTexture":{"index":2,"texCoord":1,"scale":0.07000000029802322}},{"name":"MAT_the-book-of-elon_Stamped_Ink.001","doubleSided":true,"pbrMetallicRoughness":{"baseColorFactor":[1,0.8962693810462952,0.715693473815918,1],"roughnessFactor":0.4000000059604645,"metallicFactor":0},"extensions":{"KHR_materials_clearcoat":{"clearcoatFactor":0.07000000029802322,"clearcoatRoughnessFactor":0.20000000298023224}}},{"name":"Compressed paper cut surface","doubleSided":true,"pbrMetallicRoughness":{"roughnessFactor":0.8999999761581421,"metallicFactor":0,"baseColorTexture":{"index":4}},"normalTexture":{"index":5}},{"name":"Compressed ivory stock 2","doubleSided":true,"pbrMetallicRoughness":{"baseColorFactor":[0.7279999852180481,0.7129999995231628,0.656000018119812,1],"roughnessFactor":0.8600000143051147,"metallicFactor":0}},{"name":"MAT_the-book-of-elon_Registered_Print","extras":{"surface_finish":"Registered print, selective varnish"},"doubleSided":true,"pbrMetallicRoughness":{"baseColorTexture":{"index":6,"texCoord":1},"metallicRoughnessTexture":{"index":8,"texCoord":1}},"normalTexture":{"index":7,"texCoord":1},"extensions":{"KHR_materials_clearcoat":{"clearcoatFactor":1,"clearcoatRoughnessFactor":0.23999999463558197,"clearcoatTexture":{"index":8,"texCoord":1}}}},{"name":"Endband cotton ecru","doubleSided":true,"pbrMetallicRoughness":{"baseColorFactor":[0.5,0.46000000834465027,0.3499999940395355,1],"roughnessFactor":0.8799999952316284,"metallicFactor":0}},{"name":"Binding linen warm ecru","doubleSided":true,"pbrMetallicRoughness":{"baseColorFactor":[0.3799999952316284,0.3400000035762787,0.25999999046325684,1],"roughnessFactor":0.9300000071525574,"metallicFactor":0}},{"name":"the-book-of-elon woven ribbon","doubleSided":true,"pbrMetallicRoughness":{"baseColorFactor":[1,0.8962693810462952,0.715693473815918,1],"metallicFactor":0,"metallicRoughnessTexture":{"index":9}},"normalTexture":{"index":0,"scale":1.149999976158142},"extensions":{"KHR_materials_sheen":{"sheenColorFactor":[1,1,1],"sheenRoughnessFactor":0.5}}},{"name":"MAT_Uncoated_Paper_Fibre","doubleSided":true,"pbrMetallicRoughness":{"metallicFactor":0,"baseColorTexture":{"index":1},"metallicRoughnessTexture":{"index":3}},"normalTexture":{"index":2,"scale":0.07000000029802322}},{"name":"the-book-of-elon printed ink","doubleSided":true,"pbrMetallicRoughness":{"baseColorFactor":[0.040915198624134064,0.03310476616024971,0.019382361322641373,1],"roughnessFactor":0.8999999761581421,"metallicFactor":0}}],"meshes":[{"name":"Pressed case joint Back board.001","primitives":[{"attributes":{"POSITION":0,"NORMAL":1,"TEXCOORD_0":2},"mode":4,"material":0,"indices":3}]},{"name":"Back collection.001","primitives":[{"attributes":{"POSITION":4,"NORMAL":5,"TEXCOORD_0":6},"mode":4,"material":1,"indices":7}]},{"name":"Back description.001","primitives":[{"attributes":{"POSITION":8,"NORMAL":9,"TEXCOORD_0":10},"mode":4,"material":1,"indices":11}]},{"name":"Back edition.001","primitives":[{"attributes":{"POSITION":12,"NORMAL":13,"TEXCOORD_0":14},"mode":4,"material":2,"indices":15}]},{"name":"Back ISBN.001","primitives":[{"attributes":{"POSITION":16,"NORMAL":17,"TEXCOORD_0":18},"mode":4,"material":1,"indices":19}]},{"name":"Back pastedown.001","primitives":[{"attributes":{"POSITION":20,"NORMAL":21,"TEXCOORD_0":22,"TEXCOORD_1":23},"mode":4,"material":3,"indices":24}]},{"name":"Back title.001","primitives":[{"attributes":{"POSITION":25,"NORMAL":26,"TEXCOORD_0":27},"mode":4,"material":2,"indices":28}]},{"name":"Collection mark.001","primitives":[{"attributes":{"POSITION":29,"NORMAL":30,"TEXCOORD_0":31},"mode":4,"material":4,"indices":32}]},{"name":"Continuous compressed cut the-book-of-elon","primitives":[{"attributes":{"POSITION":33,"NORMAL":34,"TEXCOORD_0":35},"mode":4,"material":5,"indices":36},{"attributes":{"POSITION":37,"NORMAL":38,"TEXCOORD_0":39},"mode":4,"material":6,"indices":40}]},{"name":"Curved foil rule.002","primitives":[{"attributes":{"POSITION":41,"NORMAL":42,"TEXCOORD_0":43},"mode":4,"material":4,"indices":44}]},{"name":"Curved foil rule.003","primitives":[{"attributes":{"POSITION":45,"NORMAL":46,"TEXCOORD_0":47},"mode":4,"material":4,"indices":44}]},{"name":"Front pastedown.001","primitives":[{"attributes":{"POSITION":48,"NORMAL":49,"TEXCOORD_0":50,"TEXCOORD_1":51},"mode":4,"material":3,"indices":24}]},{"name":"Pressed case joint Wrapped printed cover.001","primitives":[{"attributes":{"POSITION":52,"NORMAL":53,"TEXCOORD_0":54,"TEXCOORD_1":55,"TEXCOORD_2":56,"TEXCOORD_3":57},"mode":4,"material":7,"indices":58},{"attributes":{"POSITION":59,"NORMAL":60,"TEXCOORD_0":61,"TEXCOORD_1":62,"TEXCOORD_2":63,"TEXCOORD_3":64},"mode":4,"material":0,"indices":65}]},{"name":"Head textile endband the-book-of-elon","primitives":[{"attributes":{"POSITION":66,"NORMAL":67},"mode":4,"material":8,"indices":68}]},{"name":"Linen spine lining the-book-of-elon","primitives":[{"attributes":{"POSITION":69,"NORMAL":70},"mode":4,"material":9,"indices":71}]},{"name":"Ribbon flexible satin the-book-of-elon","primitives":[{"attributes":{"POSITION":72,"NORMAL":73,"TEXCOORD_0":74},"mode":4,"material":10,"indices":75}]},{"name":"Rounded cloth spine.001","primitives":[{"attributes":{"POSITION":76,"NORMAL":77,"TEXCOORD_0":78},"mode":4,"material":0,"indices":79}]},{"name":"Spine author.001","primitives":[{"attributes":{"POSITION":80,"NORMAL":81,"TEXCOORD_0":82},"mode":4,"material":4,"indices":83}]},{"name":"Spine title.001","primitives":[{"attributes":{"POSITION":84,"NORMAL":85,"TEXCOORD_0":86},"mode":4,"material":4,"indices":87}]},{"name":"Tail textile endband the-book-of-elon","primitives":[{"attributes":{"POSITION":88,"NORMAL":89},"mode":4,"material":8,"indices":68}]},{"name":"Flexible paper.001","primitives":[{"attributes":{"POSITION":90,"NORMAL":91,"TEXCOORD_0":92},"mode":4,"material":11,"indices":93}]},{"name":"Interior author.001","primitives":[{"attributes":{"POSITION":94,"NORMAL":95,"TEXCOORD_0":96},"mode":4,"material":12,"indices":97}]},{"name":"Interior imprint.001","primitives":[{"attributes":{"POSITION":98,"NORMAL":99,"TEXCOORD_0":100},"mode":4,"material":12,"indices":101}]},{"name":"Interior title.001","primitives":[{"attributes":{"POSITION":102,"NORMAL":103,"TEXCOORD_0":104},"mode":4,"material":12,"indices":105}]}],"nodes":[{"name":"Back board.001","extras":{"edge_refined":true,"unpressed_mesh":"Back board.003","pressed_joint_revision":1,"joint_depth_mm":1.036605417735157,"joint_center_mm":6.4},"translation":[0,0,-0.11650000512599945],"mesh":0},{"name":"Back collection.001","translation":[0,-0.5181599855422974,-0.12850001454353333],"rotation":[0,-0.7071068286895752,0.7071068286895752,3.0908616110991716e-8],"mesh":1},{"name":"Back description.001","translation":[0,0.053975000977516174,-0.12850001454353333],"rotation":[0,-0.7071068286895752,0.7071068286895752,3.0908616110991716e-8],"mesh":2},{"name":"Back edition.001","translation":[0,-0.7340599894523621,-0.12850001454353333],"rotation":[0,-0.7071068286895752,0.7071068286895752,3.0908616110991716e-8],"mesh":3},{"name":"Back ISBN.001","translation":[0,-0.842009961605072,-0.12850001454353333],"rotation":[0,-0.7071068286895752,0.7071068286895752,3.0908616110991716e-8],"mesh":4},{"name":"Back pastedown.001","translation":[0,0,-0.10500000417232513],"mesh":5},{"name":"Back title.001","translation":[0,0.6261100172996521,-0.12850001454353333],"rotation":[0,-0.7071068286895752,0.7071068286895752,3.0908616110991716e-8],"mesh":6},{"name":"Collection mark.001","mesh":7},{"name":"Compressed paper signatures the-book-of-elon","extras":{"paper_surface_revision":1,"leaf_count":200,"paper_caliper_mm":0.098,"binding_structure":"Rounded and backed signatures"},"mesh":8},{"name":"Curved foil rule.002","mesh":9},{"name":"Curved foil rule.003","mesh":10},{"name":"Front pastedown.001","translation":[0.6984999775886536,0,-0.01149999350309372],"mesh":11},{"name":"Wrapped printed cover.001","extras":{"edge_refined":true,"unpressed_mesh":"Front board.003","pressed_joint_revision":1,"joint_depth_mm":1.0866091631085961,"joint_center_mm":6.4},"translation":[0.6984999775886536,0,0],"mesh":12},{"name":"FrontHinge.001","translation":[-0.6984999179840088,0,0.11650000512599945],"children":[11,12]},{"name":"Head textile endband the-book-of-elon","extras":{"binding_revision":2},"mesh":13},{"name":"Linen spine lining the-book-of-elon","extras":{"binding_revision":2},"mesh":14},{"name":"Ribbon flexible satin the-book-of-elon","extras":{"binding_revision":2,"ribbon_width_dm":0.043,"ribbon_length_dm":0.29,"ribbon_anchor_dm":[0,-1.0715000000000001,0.006]},"mesh":15},{"name":"Rounded cloth spine.001","mesh":16},{"name":"Spine author.001","mesh":17},{"name":"Spine title.001","mesh":18},{"name":"Tail textile endband the-book-of-elon","extras":{"binding_revision":2},"mesh":19},{"name":"Curved title leaf.001","mesh":20},{"name":"Interior author.001","mesh":21},{"name":"Interior imprint.001","mesh":22},{"name":"Interior title.001","mesh":23},{"name":"TurningLeaf.001","translation":[-0.6535000205039978,0,0.10050001740455627],"children":[21,22,23,24]},{"name":"Publisher_the-book-of-elon","extras":{"slug":"the-book-of-elon","dimensions_mm":[139.7,215.9,25.4],"model_design":"Selected publisher front artwork with reconstructed binding, spine, back and interior. Matching front of the red edition; hardcover dimensions from Target 9781544550756. Back and spine reconstructed","edition_source":"https://www.elonmuskbook.org/","surface_stock":"satin-case","edition_print_evidence":"{\"slug\": \"the-book-of-elon\", \"spine\": \"Existing reconstruction; matching spine photograph not found\", \"back\": \"Existing original showcase typography; reverse not verified\"}"},"scale":[0.09704761207103729,0.09999438375234604,0.09971783310174942],"children":[0,1,2,3,4,5,6,7,8,9,10,13,14,15,16,17,18,19,20,25]}],"scenes":[{"name":"Selected edition updates","nodes":[26]}],"scene":0,"extensionsUsed":["EXT_meshopt_compression","EXT_texture_webp","KHR_materials_clearcoat","KHR_materials_sheen"],"extensionsRequired":["EXT_meshopt_compression","EXT_texture_webp"]}