{"asset":{"generator":"glTF-Transform v4.5.0","version":"2.0"},"accessors":[{"type":"VEC3","componentType":5126,"count":2392,"max":[0.7617413401603699,1.1428145170211792,0.010828857310116291],"min":[-0.7617413401603699,-1.1428145170211792,-0.010828857310116291],"normalized":false,"byteOffset":0,"bufferView":0},{"type":"VEC3","componentType":5126,"count":2392,"normalized":false,"byteOffset":0,"bufferView":1},{"type":"VEC2","componentType":5126,"count":2392,"normalized":false,"byteOffset":0,"bufferView":2},{"type":"SCALAR","componentType":5123,"count":12588,"normalized":false,"byteOffset":0,"bufferView":3},{"type":"VEC3","componentType":5126,"count":514,"max":[0.1009504571557045,0,0.0053944955579936504],"min":[-0.09995229542255402,0,-0.005732110235840082],"normalized":false,"byteOffset":0,"bufferView":4},{"type":"VEC3","componentType":5126,"count":514,"normalized":false,"byteOffset":0,"bufferView":5},{"type":"VEC2","componentType":5126,"count":514,"normalized":false,"byteOffset":0,"bufferView":6},{"type":"SCALAR","componentType":5123,"count":1482,"normalized":false,"byteOffset":25176,"bufferView":3},{"type":"VEC3","componentType":5126,"count":5774,"max":[0.16743232309818268,0,0.054797302931547165],"min":[-0.16708150506019592,0,-0.0509968101978302],"normalized":false,"byteOffset":0,"bufferView":7},{"type":"VEC3","componentType":5126,"count":5774,"normalized":false,"byteOffset":0,"bufferView":8},{"type":"VEC2","componentType":5126,"count":5774,"normalized":false,"byteOffset":0,"bufferView":9},{"type":"SCALAR","componentType":5123,"count":17082,"normalized":false,"byteOffset":28140,"bufferView":3},{"type":"VEC3","componentType":5126,"count":556,"max":[0.0702253207564354,0,0.00647339504212141],"min":[-0.06984661519527435,0,-0.00688733858987689],"normalized":false,"byteOffset":0,"bufferView":10},{"type":"VEC3","componentType":5126,"count":556,"normalized":false,"byteOffset":0,"bufferView":11},{"type":"VEC2","componentType":5126,"count":556,"normalized":false,"byteOffset":0,"bufferView":12},{"type":"SCALAR","componentType":5123,"count":1638,"normalized":false,"byteOffset":62304,"bufferView":3},{"type":"VEC3","componentType":5126,"count":915,"max":[0.079025499522686,0,0.005664220545440912],"min":[-0.0783858671784401,0,-0.0060187154449522495],"normalized":false,"byteOffset":0,"bufferView":13},{"type":"VEC3","componentType":5126,"count":915,"normalized":false,"byteOffset":0,"bufferView":14},{"type":"VEC2","componentType":5126,"count":915,"normalized":false,"byteOffset":0,"bufferView":15},{"type":"SCALAR","componentType":5123,"count":2715,"normalized":false,"byteOffset":65580,"bufferView":3},{"type":"VEC3","componentType":5126,"count":186,"max":[0.7269999980926514,1.1104999780654907,0.0010000000474974513],"min":[-0.7269999980926514,-1.1104999780654907,-0.0010000000474974513],"normalized":false,"byteOffset":0,"bufferView":16},{"type":"VEC3","componentType":5126,"count":186,"normalized":false,"byteOffset":0,"bufferView":17},{"type":"VEC2","componentType":5126,"count":186,"normalized":false,"byteOffset":0,"bufferView":18},{"type":"VEC2","componentType":5126,"count":186,"normalized":false,"byteOffset":0,"bufferView":19},{"type":"SCALAR","componentType":5123,"count":564,"normalized":false,"byteOffset":71010,"bufferView":3},{"type":"VEC3","componentType":5126,"count":583,"max":[0.06962402164936066,0,0.01499734353274107],"min":[-0.07069453597068787,0,-0.016835398972034454],"normalized":false,"byteOffset":0,"bufferView":20},{"type":"VEC3","componentType":5126,"count":583,"normalized":false,"byteOffset":0,"bufferView":21},{"type":"VEC2","componentType":5126,"count":583,"normalized":false,"byteOffset":0,"bufferView":22},{"type":"SCALAR","componentType":5123,"count":1731,"normalized":false,"byteOffset":72138,"bufferView":3},{"type":"VEC3","componentType":5126,"count":11546,"max":[-0.8055149912834167,-0.7620418071746826,0.010499999858438969],"min":[-0.8062499761581421,-0.975318193435669,-0.010499999858438969],"normalized":false,"byteOffset":0,"bufferView":23},{"type":"VEC3","componentType":5126,"count":11546,"normalized":false,"byteOffset":0,"bufferView":24},{"type":"VEC2","componentType":5126,"count":11546,"normalized":false,"byteOffset":0,"bufferView":25},{"type":"SCALAR","componentType":5123,"count":17364,"normalized":false,"byteOffset":75600,"bufferView":3},{"type":"VEC3","componentType":5126,"count":8772,"max":[0.7350000143051147,1.115099310874939,0.09300000220537186],"min":[-0.7749999761581421,-1.1150827407836914,-0.09300000220537186],"normalized":false,"byteOffset":0,"bufferView":26},{"type":"VEC3","componentType":5126,"count":8772,"normalized":false,"byteOffset":0,"bufferView":27},{"type":"VEC2","componentType":5126,"count":8772,"normalized":false,"byteOffset":0,"bufferView":28},{"type":"SCALAR","componentType":5123,"count":49152,"normalized":false,"byteOffset":110328,"bufferView":3},{"type":"VEC3","componentType":5126,"count":8,"max":[0.7350000143051147,1.1150000095367432,0.09300000220537186],"min":[-0.7519999742507935,-1.1150000095367432,-0.09300000220537186],"normalized":false,"byteOffset":0,"bufferView":29},{"type":"VEC3","componentType":5126,"count":8,"normalized":false,"byteOffset":0,"bufferView":30},{"type":"VEC2","componentType":5126,"count":8,"normalized":false,"byteOffset":0,"bufferView":31},{"type":"SCALAR","componentType":5123,"count":12,"normalized":false,"byteOffset":208632,"bufferView":3},{"type":"VEC3","componentType":5126,"count":64,"max":[-0.7866047024726868,-0.6162199974060059,0.07327999919652939],"min":[-0.8061000108718872,-0.6182199716567993,-0.07327999919652939],"normalized":false,"byteOffset":0,"bufferView":32},{"type":"VEC3","componentType":5126,"count":64,"normalized":false,"byteOffset":0,"bufferView":33},{"type":"VEC2","componentType":5126,"count":64,"normalized":false,"byteOffset":0,"bufferView":34},{"type":"SCALAR","componentType":5123,"count":96,"normalized":false,"byteOffset":208656,"bufferView":3},{"type":"VEC3","componentType":5126,"count":64,"max":[-0.7866047024726868,0.5267800092697144,0.07327999919652939],"min":[-0.8061000108718872,0.5247799754142761,-0.07327999919652939],"normalized":false,"byteOffset":0,"bufferView":35},{"type":"VEC3","componentType":5126,"count":64,"normalized":false,"byteOffset":0,"bufferView":36},{"type":"VEC2","componentType":5126,"count":64,"normalized":false,"byteOffset":0,"bufferView":37},{"type":"VEC3","componentType":5126,"count":186,"max":[0.7269999980926514,1.1104999780654907,0.0010000000474974513],"min":[-0.7269999980926514,-1.1104999780654907,-0.0010000000474974513],"normalized":false,"byteOffset":0,"bufferView":38},{"type":"VEC3","componentType":5126,"count":186,"normalized":false,"byteOffset":0,"bufferView":39},{"type":"VEC2","componentType":5126,"count":186,"normalized":false,"byteOffset":0,"bufferView":40},{"type":"VEC2","componentType":5126,"count":186,"normalized":false,"byteOffset":0,"bufferView":41},{"type":"VEC3","componentType":5126,"count":1326,"max":[0.7617408037185669,1.142814040184021,0.011402342468500137],"min":[-0.7617408037185669,-1.142814040184021,-0.008892604149878025],"normalized":false,"byteOffset":0,"bufferView":42},{"type":"VEC3","componentType":5126,"count":1326,"normalized":false,"byteOffset":0,"bufferView":43},{"type":"VEC2","componentType":5126,"count":1326,"normalized":false,"byteOffset":0,"bufferView":44},{"type":"VEC2","componentType":5126,"count":1326,"normalized":false,"byteOffset":0,"bufferView":45},{"type":"VEC2","componentType":5126,"count":1326,"normalized":false,"byteOffset":0,"bufferView":46},{"type":"VEC2","componentType":5126,"count":1326,"normalized":false,"byteOffset":0,"bufferView":47},{"type":"SCALAR","componentType":5123,"count":6720,"normalized":false,"byteOffset":208848,"bufferView":3},{"type":"VEC3","componentType":5126,"count":1192,"max":[0.7617408037185669,1.142814040184021,-0.004851226694881916],"min":[-0.7617408037185669,-1.142814040184021,-0.011442828923463821],"normalized":false,"byteOffset":0,"bufferView":48},{"type":"VEC3","componentType":5126,"count":1192,"normalized":false,"byteOffset":0,"bufferView":49},{"type":"VEC2","componentType":5126,"count":1192,"normalized":false,"byteOffset":0,"bufferView":50},{"type":"VEC2","componentType":5126,"count":1192,"normalized":false,"byteOffset":0,"bufferView":51},{"type":"VEC2","componentType":5126,"count":1192,"normalized":false,"byteOffset":0,"bufferView":52},{"type":"VEC2","componentType":5126,"count":1192,"normalized":false,"byteOffset":0,"bufferView":53},{"type":"SCALAR","componentType":5123,"count":5940,"normalized":false,"byteOffset":222288,"bufferView":3},{"type":"VEC3","componentType":5126,"count":2660,"max":[-0.746749997138977,1.1180419921875,0.09300000220537186],"min":[-0.7782418131828308,1.1099580526351929,-0.09300000220537186],"normalized":false,"byteOffset":0,"bufferView":54},{"type":"VEC3","componentType":5126,"count":2660,"normalized":false,"byteOffset":0,"bufferView":55},{"type":"SCALAR","componentType":5123,"count":15900,"normalized":false,"byteOffset":234168,"bufferView":3},{"type":"VEC3","componentType":5126,"count":588,"max":[-0.7527499794960022,1.1030000448226929,0.09300000220537186],"min":[-0.777999997138977,-1.1030000448226929,-0.09300000220537186],"normalized":false,"byteOffset":0,"bufferView":56},{"type":"VEC3","componentType":5126,"count":588,"normalized":false,"byteOffset":0,"bufferView":57},{"type":"SCALAR","componentType":5123,"count":1164,"normalized":false,"byteOffset":265968,"bufferView":3},{"type":"VEC3","componentType":5126,"count":730,"max":[0.02171693742275238,-1.13499915599823,0.02216394618153572],"min":[-0.02171693742275238,-1.4249999523162842,0.006000000052154064],"normalized":false,"byteOffset":0,"bufferView":58},{"type":"VEC3","componentType":5126,"count":730,"normalized":false,"byteOffset":0,"bufferView":59},{"type":"VEC2","componentType":5126,"count":730,"normalized":false,"byteOffset":0,"bufferView":60},{"type":"SCALAR","componentType":5123,"count":4368,"normalized":false,"byteOffset":268296,"bufferView":3},{"type":"VEC3","componentType":5126,"count":2178,"max":[-0.7541370391845703,1.143057942390442,0.1145000010728836],"min":[-0.804499626159668,-1.1430567502975464,-0.1145000010728836],"normalized":false,"byteOffset":0,"bufferView":61},{"type":"VEC3","componentType":5126,"count":2178,"normalized":false,"byteOffset":0,"bufferView":62},{"type":"VEC2","componentType":5126,"count":2178,"normalized":false,"byteOffset":0,"bufferView":63},{"type":"SCALAR","componentType":5123,"count":13056,"normalized":false,"byteOffset":277032,"bufferView":3},{"type":"VEC3","componentType":5126,"count":16440,"max":[-0.8052875995635986,1.0172699689865112,0.012962901033461094],"min":[-0.8062499761581421,0.5829300284385681,-0.012962901033461094],"normalized":false,"byteOffset":0,"bufferView":64},{"type":"VEC3","componentType":5126,"count":16440,"normalized":false,"byteOffset":0,"bufferView":65},{"type":"VEC2","componentType":5126,"count":16440,"normalized":false,"byteOffset":0,"bufferView":66},{"type":"SCALAR","componentType":5123,"count":24756,"normalized":false,"byteOffset":303144,"bufferView":3},{"type":"VEC3","componentType":5126,"count":6033,"max":[-0.8030006289482117,0.12113168835639954,0.027480000630021095],"min":[-0.8062499761581421,-0.12113168835639954,-0.027480000630021095],"normalized":false,"byteOffset":0,"bufferView":67},{"type":"VEC3","componentType":5126,"count":6033,"normalized":false,"byteOffset":0,"bufferView":68},{"type":"VEC2","componentType":5126,"count":6033,"normalized":false,"byteOffset":0,"bufferView":69},{"type":"SCALAR","componentType":5123,"count":9072,"normalized":false,"byteOffset":352656,"bufferView":3},{"type":"VEC3","componentType":5126,"count":2660,"max":[-0.746749997138977,-1.1099580526351929,0.09300000220537186],"min":[-0.7782418131828308,-1.1180419921875,-0.09300000220537186],"normalized":false,"byteOffset":0,"bufferView":70},{"type":"VEC3","componentType":5126,"count":2660,"normalized":false,"byteOffset":0,"bufferView":71},{"type":"VEC3","componentType":5126,"count":1066,"max":[1.4490000009536743,1.1109999418258667,0.004018731415271759],"min":[-0.000021593448764178902,-1.1109999418258667,0],"normalized":false,"byteOffset":0,"bufferView":72},{"type":"VEC3","componentType":5126,"count":1066,"normalized":false,"byteOffset":0,"bufferView":73},{"type":"VEC2","componentType":5126,"count":1066,"normalized":false,"byteOffset":0,"bufferView":74},{"type":"SCALAR","componentType":5123,"count":6384,"normalized":false,"byteOffset":370800,"bufferView":3},{"type":"VEC3","componentType":5126,"count":8738,"max":[0.8870090246200562,-0.10100889205932617,0.00451680226251483],"min":[0.5757723450660706,-0.13277360796928406,0.004493106156587601],"normalized":false,"byteOffset":0,"bufferView":75},{"type":"VEC3","componentType":5126,"count":8738,"normalized":false,"byteOffset":0,"bufferView":76},{"type":"VEC2","componentType":5126,"count":8738,"normalized":false,"byteOffset":0,"bufferView":77},{"type":"SCALAR","componentType":5123,"count":25776,"normalized":false,"byteOffset":383568,"bufferView":3},{"type":"VEC3","componentType":5126,"count":9436,"max":[0.8612783551216125,-0.8158943057060242,0.004516339395195246],"min":[0.6007025241851807,-0.8301214575767517,0.004497889894992113],"normalized":false,"byteOffset":0,"bufferView":78},{"type":"VEC3","componentType":5126,"count":9436,"normalized":false,"byteOffset":0,"bufferView":79},{"type":"VEC2","componentType":5126,"count":9436,"normalized":false,"byteOffset":0,"bufferView":80},{"type":"SCALAR","componentType":5123,"count":27840,"normalized":false,"byteOffset":435120,"bufferView":3},{"type":"VEC3","componentType":5126,"count":3074,"max":[0.859254777431488,0.4653525650501251,0.00451629888266325],"min":[0.6007732152938843,0.4067133069038391,0.004497902002185583],"normalized":false,"byteOffset":0,"bufferView":81},{"type":"VEC3","componentType":5126,"count":3074,"normalized":false,"byteOffset":0,"bufferView":82},{"type":"VEC2","componentType":5126,"count":3074,"normalized":false,"byteOffset":0,"bufferView":83},{"type":"SCALAR","componentType":5123,"count":9072,"normalized":false,"byteOffset":490800,"bufferView":3}],"bufferViews":[{"buffer":1,"byteOffset":0,"byteLength":28704,"target":34962,"byteStride":12,"extensions":{"EXT_meshopt_compression":{"buffer":0,"byteOffset":0,"byteLength":17289,"mode":"ATTRIBUTES","byteStride":12,"count":2392}}},{"buffer":1,"byteOffset":28704,"byteLength":28704,"target":34962,"byteStride":12,"extensions":{"EXT_meshopt_compression":{"buffer":0,"byteOffset":17292,"byteLength":21474,"mode":"ATTRIBUTES","byteStride":12,"count":2392}}},{"buffer":1,"byteOffset":57408,"byteLength":19136,"target":34962,"byteStride":8,"extensions":{"EXT_meshopt_compression":{"buffer":0,"byteOffset":38768,"byteLength":13541,"mode":"ATTRIBUTES","byteStride":8,"count":2392}}},{"buffer":1,"byteOffset":76544,"byteLength":508944,"target":34963,"extensions":{"EXT_meshopt_compression":{"buffer":0,"byteOffset":52312,"byteLength":243038,"mode":"TRIANGLES","byteStride":2,"count":254472}}},{"buffer":1,"byteOffset":585488,"byteLength":6168,"target":34962,"byteStride":12,"extensions":{"EXT_meshopt_compression":{"buffer":0,"byteOffset":295352,"byteLength":3261,"mode":"ATTRIBUTES","byteStride":12,"count":514}}},{"buffer":1,"byteOffset":591656,"byteLength":6168,"target":34962,"byteStride":12,"extensions":{"EXT_meshopt_compression":{"buffer":0,"byteOffset":298616,"byteLength":141,"mode":"ATTRIBUTES","byteStride":12,"count":514}}},{"buffer":1,"byteOffset":597824,"byteLength":4112,"target":34962,"byteStride":8,"extensions":{"EXT_meshopt_compression":{"buffer":0,"byteOffset":298760,"byteLength":1619,"mode":"ATTRIBUTES","byteStride":8,"count":514}}},{"buffer":1,"byteOffset":601936,"byteLength":69288,"target":34962,"byteStride":12,"extensions":{"EXT_meshopt_compression":{"buffer":0,"byteOffset":300380,"byteLength":31584,"mode":"ATTRIBUTES","byteStride":12,"count":5774}}},{"buffer":1,"byteOffset":671224,"byteLength":69288,"target":34962,"byteStride":12,"extensions":{"EXT_meshopt_compression":{"buffer":0,"byteOffset":331964,"byteLength":1125,"mode":"ATTRIBUTES","byteStride":12,"count":5774}}},{"buffer":1,"byteOffset":740512,"byteLength":46192,"target":34962,"byteStride":8,"extensions":{"EXT_meshopt_compression":{"buffer":0,"byteOffset":333092,"byteLength":16834,"mode":"ATTRIBUTES","byteStride":8,"count":5774}}},{"buffer":1,"byteOffset":786704,"byteLength":6672,"target":34962,"byteStride":12,"extensions":{"EXT_meshopt_compression":{"buffer":0,"byteOffset":349928,"byteLength":3489,"mode":"ATTRIBUTES","byteStride":12,"count":556}}},{"buffer":1,"byteOffset":793376,"byteLength":6672,"target":34962,"byteStride":12,"extensions":{"EXT_meshopt_compression":{"buffer":0,"byteOffset":353420,"byteLength":141,"mode":"ATTRIBUTES","byteStride":12,"count":556}}},{"buffer":1,"byteOffset":800048,"byteLength":4448,"target":34962,"byteStride":8,"extensions":{"EXT_meshopt_compression":{"buffer":0,"byteOffset":353564,"byteLength":1712,"mode":"ATTRIBUTES","byteStride":8,"count":556}}},{"buffer":1,"byteOffset":804496,"byteLength":10980,"target":34962,"byteStride":12,"extensions":{"EXT_meshopt_compression":{"buffer":0,"byteOffset":355276,"byteLength":5778,"mode":"ATTRIBUTES","byteStride":12,"count":915}}},{"buffer":1,"byteOffset":815476,"byteLength":10980,"target":34962,"byteStride":12,"extensions":{"EXT_meshopt_compression":{"buffer":0,"byteOffset":361056,"byteLength":213,"mode":"ATTRIBUTES","byteStride":12,"count":915}}},{"buffer":1,"byteOffset":826456,"byteLength":7320,"target":34962,"byteStride":8,"extensions":{"EXT_meshopt_compression":{"buffer":0,"byteOffset":361272,"byteLength":2833,"mode":"ATTRIBUTES","byteStride":8,"count":915}}},{"buffer":1,"byteOffset":833776,"byteLength":2232,"target":34962,"byteStride":12,"extensions":{"EXT_meshopt_compression":{"buffer":0,"byteOffset":364108,"byteLength":1136,"mode":"ATTRIBUTES","byteStride":12,"count":186}}},{"buffer":1,"byteOffset":836008,"byteLength":2232,"target":34962,"byteStride":12,"extensions":{"EXT_meshopt_compression":{"buffer":0,"byteOffset":365244,"byteLength":1552,"mode":"ATTRIBUTES","byteStride":12,"count":186}}},{"buffer":1,"byteOffset":838240,"byteLength":1488,"target":34962,"byteStride":8,"extensions":{"EXT_meshopt_compression":{"buffer":0,"byteOffset":366796,"byteLength":1273,"mode":"ATTRIBUTES","byteStride":8,"count":186}}},{"buffer":1,"byteOffset":839728,"byteLength":1488,"target":34962,"byteStride":8,"extensions":{"EXT_meshopt_compression":{"buffer":0,"byteOffset":368072,"byteLength":686,"mode":"ATTRIBUTES","byteStride":8,"count":186}}},{"buffer":1,"byteOffset":841216,"byteLength":6996,"target":34962,"byteStride":12,"extensions":{"EXT_meshopt_compression":{"buffer":0,"byteOffset":368760,"byteLength":3616,"mode":"ATTRIBUTES","byteStride":12,"count":583}}},{"buffer":1,"byteOffset":848212,"byteLength":6996,"target":34962,"byteStride":12,"extensions":{"EXT_meshopt_compression":{"buffer":0,"byteOffset":372376,"byteLength":153,"mode":"ATTRIBUTES","byteStride":12,"count":583}}},{"buffer":1,"byteOffset":855208,"byteLength":4664,"target":34962,"byteStride":8,"extensions":{"EXT_meshopt_compression":{"buffer":0,"byteOffset":372532,"byteLength":1744,"mode":"ATTRIBUTES","byteStride":8,"count":583}}},{"buffer":1,"byteOffset":859872,"byteLength":138552,"target":34962,"byteStride":12,"extensions":{"EXT_meshopt_compression":{"buffer":0,"byteOffset":374276,"byteLength":53358,"mode":"ATTRIBUTES","byteStride":12,"count":11546}}},{"buffer":1,"byteOffset":998424,"byteLength":138552,"target":34962,"byteStride":12,"extensions":{"EXT_meshopt_compression":{"buffer":0,"byteOffset":427636,"byteLength":90701,"mode":"ATTRIBUTES","byteStride":12,"count":11546}}},{"buffer":1,"byteOffset":1136976,"byteLength":92368,"target":34962,"byteStride":8,"extensions":{"EXT_meshopt_compression":{"buffer":0,"byteOffset":518340,"byteLength":28027,"mode":"ATTRIBUTES","byteStride":8,"count":11546}}},{"buffer":1,"byteOffset":1229344,"byteLength":105264,"target":34962,"byteStride":12,"extensions":{"EXT_meshopt_compression":{"buffer":0,"byteOffset":546368,"byteLength":43335,"mode":"ATTRIBUTES","byteStride":12,"count":8772}}},{"buffer":1,"byteOffset":1334608,"byteLength":105264,"target":34962,"byteStride":12,"extensions":{"EXT_meshopt_compression":{"buffer":0,"byteOffset":589704,"byteLength":16110,"mode":"ATTRIBUTES","byteStride":12,"count":8772}}},{"buffer":1,"byteOffset":1439872,"byteLength":70176,"target":34962,"byteStride":8,"extensions":{"EXT_meshopt_compression":{"buffer":0,"byteOffset":605816,"byteLength":35443,"mode":"ATTRIBUTES","byteStride":8,"count":8772}}},{"buffer":1,"byteOffset":1510048,"byteLength":96,"target":34962,"byteStride":12,"extensions":{"EXT_meshopt_compression":{"buffer":0,"byteOffset":641260,"byteLength":89,"mode":"ATTRIBUTES","byteStride":12,"count":8}}},{"buffer":1,"byteOffset":1510144,"byteLength":96,"target":34962,"byteStride":12,"extensions":{"EXT_meshopt_compression":{"buffer":0,"byteOffset":641352,"byteLength":50,"mode":"ATTRIBUTES","byteStride":12,"count":8}}},{"buffer":1,"byteOffset":1510240,"byteLength":64,"target":34962,"byteStride":8,"extensions":{"EXT_meshopt_compression":{"buffer":0,"byteOffset":641404,"byteLength":71,"mode":"ATTRIBUTES","byteStride":8,"count":8}}},{"buffer":1,"byteOffset":1510304,"byteLength":768,"target":34962,"byteStride":12,"extensions":{"EXT_meshopt_compression":{"buffer":0,"byteOffset":641476,"byteLength":328,"mode":"ATTRIBUTES","byteStride":12,"count":64}}},{"buffer":1,"byteOffset":1511072,"byteLength":768,"target":34962,"byteStride":12,"extensions":{"EXT_meshopt_compression":{"buffer":0,"byteOffset":641804,"byteLength":372,"mode":"ATTRIBUTES","byteStride":12,"count":64}}},{"buffer":1,"byteOffset":1511840,"byteLength":512,"target":34962,"byteStride":8,"extensions":{"EXT_meshopt_compression":{"buffer":0,"byteOffset":642176,"byteLength":182,"mode":"ATTRIBUTES","byteStride":8,"count":64}}},{"buffer":1,"byteOffset":1512352,"byteLength":768,"target":34962,"byteStride":12,"extensions":{"EXT_meshopt_compression":{"buffer":0,"byteOffset":642360,"byteLength":324,"mode":"ATTRIBUTES","byteStride":12,"count":64}}},{"buffer":1,"byteOffset":1513120,"byteLength":768,"target":34962,"byteStride":12,"extensions":{"EXT_meshopt_compression":{"buffer":0,"byteOffset":642684,"byteLength":372,"mode":"ATTRIBUTES","byteStride":12,"count":64}}},{"buffer":1,"byteOffset":1513888,"byteLength":512,"target":34962,"byteStride":8,"extensions":{"EXT_meshopt_compression":{"buffer":0,"byteOffset":643056,"byteLength":186,"mode":"ATTRIBUTES","byteStride":8,"count":64}}},{"buffer":1,"byteOffset":1514400,"byteLength":2232,"target":34962,"byteStride":12,"extensions":{"EXT_meshopt_compression":{"buffer":0,"byteOffset":643244,"byteLength":1136,"mode":"ATTRIBUTES","byteStride":12,"count":186}}},{"buffer":1,"byteOffset":1516632,"byteLength":2232,"target":34962,"byteStride":12,"extensions":{"EXT_meshopt_compression":{"buffer":0,"byteOffset":644380,"byteLength":1552,"mode":"ATTRIBUTES","byteStride":12,"count":186}}},{"buffer":1,"byteOffset":1518864,"byteLength":1488,"target":34962,"byteStride":8,"extensions":{"EXT_meshopt_compression":{"buffer":0,"byteOffset":645932,"byteLength":1273,"mode":"ATTRIBUTES","byteStride":8,"count":186}}},{"buffer":1,"byteOffset":1520352,"byteLength":1488,"target":34962,"byteStride":8,"extensions":{"EXT_meshopt_compression":{"buffer":0,"byteOffset":647208,"byteLength":686,"mode":"ATTRIBUTES","byteStride":8,"count":186}}},{"buffer":1,"byteOffset":1521840,"byteLength":15912,"target":34962,"byteStride":12,"extensions":{"EXT_meshopt_compression":{"buffer":0,"byteOffset":647896,"byteLength":10409,"mode":"ATTRIBUTES","byteStride":12,"count":1326}}},{"buffer":1,"byteOffset":1537752,"byteLength":15912,"target":34962,"byteStride":12,"extensions":{"EXT_meshopt_compression":{"buffer":0,"byteOffset":658308,"byteLength":12321,"mode":"ATTRIBUTES","byteStride":12,"count":1326}}},{"buffer":1,"byteOffset":1553664,"byteLength":10608,"target":34962,"byteStride":8,"extensions":{"EXT_meshopt_compression":{"buffer":0,"byteOffset":670632,"byteLength":7624,"mode":"ATTRIBUTES","byteStride":8,"count":1326}}},{"buffer":1,"byteOffset":1564272,"byteLength":10608,"target":34962,"byteStride":8,"extensions":{"EXT_meshopt_compression":{"buffer":0,"byteOffset":678256,"byteLength":7194,"mode":"ATTRIBUTES","byteStride":8,"count":1326}}},{"buffer":1,"byteOffset":1574880,"byteLength":10608,"target":34962,"byteStride":8,"extensions":{"EXT_meshopt_compression":{"buffer":0,"byteOffset":685452,"byteLength":6917,"mode":"ATTRIBUTES","byteStride":8,"count":1326}}},{"buffer":1,"byteOffset":1585488,"byteLength":10608,"target":34962,"byteStride":8,"extensions":{"EXT_meshopt_compression":{"buffer":0,"byteOffset":692372,"byteLength":6226,"mode":"ATTRIBUTES","byteStride":8,"count":1326}}},{"buffer":1,"byteOffset":1596096,"byteLength":14304,"target":34962,"byteStride":12,"extensions":{"EXT_meshopt_compression":{"buffer":0,"byteOffset":698600,"byteLength":8889,"mode":"ATTRIBUTES","byteStride":12,"count":1192}}},{"buffer":1,"byteOffset":1610400,"byteLength":14304,"target":34962,"byteStride":12,"extensions":{"EXT_meshopt_compression":{"buffer":0,"byteOffset":707492,"byteLength":10450,"mode":"ATTRIBUTES","byteStride":12,"count":1192}}},{"buffer":1,"byteOffset":1624704,"byteLength":9536,"target":34962,"byteStride":8,"extensions":{"EXT_meshopt_compression":{"buffer":0,"byteOffset":717944,"byteLength":6831,"mode":"ATTRIBUTES","byteStride":8,"count":1192}}},{"buffer":1,"byteOffset":1634240,"byteLength":9536,"target":34962,"byteStride":8,"extensions":{"EXT_meshopt_compression":{"buffer":0,"byteOffset":724776,"byteLength":6449,"mode":"ATTRIBUTES","byteStride":8,"count":1192}}},{"buffer":1,"byteOffset":1643776,"byteLength":9536,"target":34962,"byteStride":8,"extensions":{"EXT_meshopt_compression":{"buffer":0,"byteOffset":731228,"byteLength":6273,"mode":"ATTRIBUTES","byteStride":8,"count":1192}}},{"buffer":1,"byteOffset":1653312,"byteLength":9536,"target":34962,"byteStride":8,"extensions":{"EXT_meshopt_compression":{"buffer":0,"byteOffset":737504,"byteLength":5587,"mode":"ATTRIBUTES","byteStride":8,"count":1192}}},{"buffer":1,"byteOffset":1662848,"byteLength":31920,"target":34962,"byteStride":12,"extensions":{"EXT_meshopt_compression":{"buffer":0,"byteOffset":743092,"byteLength":15254,"mode":"ATTRIBUTES","byteStride":12,"count":2660}}},{"buffer":1,"byteOffset":1694768,"byteLength":31920,"target":34962,"byteStride":12,"extensions":{"EXT_meshopt_compression":{"buffer":0,"byteOffset":758348,"byteLength":28680,"mode":"ATTRIBUTES","byteStride":12,"count":2660}}},{"buffer":1,"byteOffset":1726688,"byteLength":7056,"target":34962,"byteStride":12,"extensions":{"EXT_meshopt_compression":{"buffer":0,"byteOffset":787028,"byteLength":1858,"mode":"ATTRIBUTES","byteStride":12,"count":588}}},{"buffer":1,"byteOffset":1733744,"byteLength":7056,"target":34962,"byteStride":12,"extensions":{"EXT_meshopt_compression":{"buffer":0,"byteOffset":788888,"byteLength":5846,"mode":"ATTRIBUTES","byteStride":12,"count":588}}},{"buffer":1,"byteOffset":1740800,"byteLength":8760,"target":34962,"byteStride":12,"extensions":{"EXT_meshopt_compression":{"buffer":0,"byteOffset":794736,"byteLength":4464,"mode":"ATTRIBUTES","byteStride":12,"count":730}}},{"buffer":1,"byteOffset":1749560,"byteLength":8760,"target":34962,"byteStride":12,"extensions":{"EXT_meshopt_compression":{"buffer":0,"byteOffset":799200,"byteLength":6185,"mode":"ATTRIBUTES","byteStride":12,"count":730}}},{"buffer":1,"byteOffset":1758320,"byteLength":5840,"target":34962,"byteStride":8,"extensions":{"EXT_meshopt_compression":{"buffer":0,"byteOffset":805388,"byteLength":2354,"mode":"ATTRIBUTES","byteStride":8,"count":730}}},{"buffer":1,"byteOffset":1764160,"byteLength":26136,"target":34962,"byteStride":12,"extensions":{"EXT_meshopt_compression":{"buffer":0,"byteOffset":807744,"byteLength":15151,"mode":"ATTRIBUTES","byteStride":12,"count":2178}}},{"buffer":1,"byteOffset":1790296,"byteLength":26136,"target":34962,"byteStride":12,"extensions":{"EXT_meshopt_compression":{"buffer":0,"byteOffset":822896,"byteLength":21430,"mode":"ATTRIBUTES","byteStride":12,"count":2178}}},{"buffer":1,"byteOffset":1816432,"byteLength":17424,"target":34962,"byteStride":8,"extensions":{"EXT_meshopt_compression":{"buffer":0,"byteOffset":844328,"byteLength":6848,"mode":"ATTRIBUTES","byteStride":8,"count":2178}}},{"buffer":1,"byteOffset":1833856,"byteLength":197280,"target":34962,"byteStride":12,"extensions":{"EXT_meshopt_compression":{"buffer":0,"byteOffset":851176,"byteLength":74545,"mode":"ATTRIBUTES","byteStride":12,"count":16440}}},{"buffer":1,"byteOffset":2031136,"byteLength":197280,"target":34962,"byteStride":12,"extensions":{"EXT_meshopt_compression":{"buffer":0,"byteOffset":925724,"byteLength":127715,"mode":"ATTRIBUTES","byteStride":12,"count":16440}}},{"buffer":1,"byteOffset":2228416,"byteLength":131520,"target":34962,"byteStride":8,"extensions":{"EXT_meshopt_compression":{"buffer":0,"byteOffset":1053440,"byteLength":40223,"mode":"ATTRIBUTES","byteStride":8,"count":16440}}},{"buffer":1,"byteOffset":2359936,"byteLength":72396,"target":34962,"byteStride":12,"extensions":{"EXT_meshopt_compression":{"buffer":0,"byteOffset":1093664,"byteLength":30886,"mode":"ATTRIBUTES","byteStride":12,"count":6033}}},{"buffer":1,"byteOffset":2432332,"byteLength":72396,"target":34962,"byteStride":12,"extensions":{"EXT_meshopt_compression":{"buffer":0,"byteOffset":1124552,"byteLength":49525,"mode":"ATTRIBUTES","byteStride":12,"count":6033}}},{"buffer":1,"byteOffset":2504728,"byteLength":48264,"target":34962,"byteStride":8,"extensions":{"EXT_meshopt_compression":{"buffer":0,"byteOffset":1174080,"byteLength":14845,"mode":"ATTRIBUTES","byteStride":8,"count":6033}}},{"buffer":1,"byteOffset":2552992,"byteLength":31920,"target":34962,"byteStride":12,"extensions":{"EXT_meshopt_compression":{"buffer":0,"byteOffset":1188928,"byteLength":15258,"mode":"ATTRIBUTES","byteStride":12,"count":2660}}},{"buffer":1,"byteOffset":2584912,"byteLength":31920,"target":34962,"byteStride":12,"extensions":{"EXT_meshopt_compression":{"buffer":0,"byteOffset":1204188,"byteLength":28680,"mode":"ATTRIBUTES","byteStride":12,"count":2660}}},{"buffer":1,"byteOffset":2616832,"byteLength":12792,"target":34962,"byteStride":12,"extensions":{"EXT_meshopt_compression":{"buffer":0,"byteOffset":1232868,"byteLength":6575,"mode":"ATTRIBUTES","byteStride":12,"count":1066}}},{"buffer":1,"byteOffset":2629624,"byteLength":12792,"target":34962,"byteStride":12,"extensions":{"EXT_meshopt_compression":{"buffer":0,"byteOffset":1239444,"byteLength":4149,"mode":"ATTRIBUTES","byteStride":12,"count":1066}}},{"buffer":1,"byteOffset":2642416,"byteLength":8528,"target":34962,"byteStride":8,"extensions":{"EXT_meshopt_compression":{"buffer":0,"byteOffset":1243596,"byteLength":3927,"mode":"ATTRIBUTES","byteStride":8,"count":1066}}},{"buffer":1,"byteOffset":2650944,"byteLength":104856,"target":34962,"byteStride":12,"extensions":{"EXT_meshopt_compression":{"buffer":0,"byteOffset":1247524,"byteLength":46128,"mode":"ATTRIBUTES","byteStride":12,"count":8738}}},{"buffer":1,"byteOffset":2755800,"byteLength":104856,"target":34962,"byteStride":12,"extensions":{"EXT_meshopt_compression":{"buffer":0,"byteOffset":1293652,"byteLength":11939,"mode":"ATTRIBUTES","byteStride":12,"count":8738}}},{"buffer":1,"byteOffset":2860656,"byteLength":69904,"target":34962,"byteStride":8,"extensions":{"EXT_meshopt_compression":{"buffer":0,"byteOffset":1305592,"byteLength":31187,"mode":"ATTRIBUTES","byteStride":8,"count":8738}}},{"buffer":1,"byteOffset":2930560,"byteLength":113232,"target":34962,"byteStride":12,"extensions":{"EXT_meshopt_compression":{"buffer":0,"byteOffset":1336780,"byteLength":46571,"mode":"ATTRIBUTES","byteStride":12,"count":9436}}},{"buffer":1,"byteOffset":3043792,"byteLength":113232,"target":34962,"byteStride":12,"extensions":{"EXT_meshopt_compression":{"buffer":0,"byteOffset":1383352,"byteLength":2810,"mode":"ATTRIBUTES","byteStride":12,"count":9436}}},{"buffer":1,"byteOffset":3157024,"byteLength":75488,"target":34962,"byteStride":8,"extensions":{"EXT_meshopt_compression":{"buffer":0,"byteOffset":1386164,"byteLength":33062,"mode":"ATTRIBUTES","byteStride":8,"count":9436}}},{"buffer":1,"byteOffset":3232512,"byteLength":36888,"target":34962,"byteStride":12,"extensions":{"EXT_meshopt_compression":{"buffer":0,"byteOffset":1419228,"byteLength":16417,"mode":"ATTRIBUTES","byteStride":12,"count":3074}}},{"buffer":1,"byteOffset":3269400,"byteLength":36888,"target":34962,"byteStride":12,"extensions":{"EXT_meshopt_compression":{"buffer":0,"byteOffset":1435648,"byteLength":3041,"mode":"ATTRIBUTES","byteStride":12,"count":3074}}},{"buffer":1,"byteOffset":3306288,"byteLength":24592,"target":34962,"byteStride":8,"extensions":{"EXT_meshopt_compression":{"buffer":0,"byteOffset":1438692,"byteLength":11011,"mode":"ATTRIBUTES","byteStride":8,"count":3074}}}],"samplers":[{"magFilter":9729,"minFilter":9987,"wrapS":10497,"wrapT":10497},{"magFilter":9729,"minFilter":9987,"wrapS":33071,"wrapT":33071}],"textures":[{"source":0,"sampler":0},{"sampler":0,"extensions":{"EXT_texture_webp":{"source":1}}},{"source":3,"sampler":0},{"sampler":0,"extensions":{"EXT_texture_webp":{"source":2}}},{"sampler":0,"extensions":{"EXT_texture_webp":{"source":4}}},{"sampler":0,"extensions":{"EXT_texture_webp":{"source":6}}},{"sampler":0,"extensions":{"EXT_texture_webp":{"source":5}}},{"source":9,"sampler":1},{"sampler":0,"extensions":{"EXT_texture_webp":{"source":8}}},{"sampler":0,"extensions":{"EXT_texture_webp":{"source":7}}}],"images":[{"name":"book_pattern_nor_gl_2k","mimeType":"image/jpeg","uri":"shared/140c3719f3201130f562bf79.jpg"},{"name":"book_pattern_rough_2k","mimeType":"image/webp","uri":"shared/8bb161f505fd3344121ca5dd.webp"},{"name":"Paper001_2K-JPG_NormalGL","mimeType":"image/webp","uri":"shared/a490f2254a54e6ac01465d82.webp"},{"name":"Paper001_2K-JPG_Color","mimeType":"image/jpeg","uri":"shared/1ec1da7815c3e53e02f7f6f4.jpg"},{"name":"Paper001_2K-JPG_Roughness","mimeType":"image/webp","uri":"shared/98c3a72e3346f80ad454feb3.webp"},{"name":"compressed-paper-normal","mimeType":"image/webp","uri":"shared/c65a4a9bdd0dce53b8ec9861.webp"},{"name":"compressed-paper-color","mimeType":"image/webp","uri":"shared/e933106c126139066215af87.webp"},{"name":"walden_print_orm","mimeType":"image/webp","uri":"shared/808049e04246a862d9143aa6.webp"},{"name":"walden_print_normal","mimeType":"image/webp","uri":"shared/6a63ccbbe9a58e9b2ff62d22.webp"},{"name":"edition-walden","mimeType":"image/jpeg","uri":"shared/466d6f20a11fef6b30af7af1.jpg"}],"buffers":[{"uri":"shared/bbc16c9f1e169dfd9cfaf4e3.bin","byteLength":1449704},{"byteLength":3330880,"extensions":{"EXT_meshopt_compression":{"fallback":true}}}],"materials":[{"name":"walden case material.002","doubleSided":true,"pbrMetallicRoughness":{"baseColorFactor":[0.07036009430885315,0.3915724754333496,0.03189603239297867,1],"metallicFactor":0,"metallicRoughnessTexture":{"index":1}},"normalTexture":{"index":0,"scale":0.05999999865889549}},{"name":"MAT_walden_BackInk","doubleSided":true,"pbrMetallicRoughness":{"baseColorFactor":[0.02500000037252903,0.03200000151991844,0.027000000700354576,1],"roughnessFactor":0.7200000286102295,"metallicFactor":0}},{"name":"MAT_walden_Stamped_Ink.002","doubleSided":true,"pbrMetallicRoughness":{"baseColorFactor":[0.02500000037252903,0.03200000151991844,0.027000000700354576,1],"roughnessFactor":0.3400000035762787,"metallicFactor":0},"extensions":{"KHR_materials_clearcoat":{"clearcoatFactor":0.44999998807907104,"clearcoatRoughnessFactor":0.20000000298023224}}},{"name":"MAT_Uncoated_Paper_Fibre","doubleSided":true,"pbrMetallicRoughness":{"metallicFactor":0,"baseColorTexture":{"index":2,"texCoord":1},"metallicRoughnessTexture":{"index":4,"texCoord":1}},"normalTexture":{"index":3,"texCoord":1,"scale":0.07000000029802322}},{"name":"MAT_walden_Stamped_Ink.003","doubleSided":true,"pbrMetallicRoughness":{"baseColorFactor":[0.009134058840572834,0.01850022003054619,0.010960093699395657,1],"roughnessFactor":0.3400000035762787,"metallicFactor":0},"extensions":{"KHR_materials_clearcoat":{"clearcoatFactor":0.44999998807907104,"clearcoatRoughnessFactor":0.20000000298023224}}},{"name":"Compressed paper cut surface","doubleSided":true,"pbrMetallicRoughness":{"roughnessFactor":0.8999999761581421,"metallicFactor":0,"baseColorTexture":{"index":5}},"normalTexture":{"index":6}},{"name":"Compressed ivory stock 2","doubleSided":true,"pbrMetallicRoughness":{"baseColorFactor":[0.7279999852180481,0.7129999995231628,0.656000018119812,1],"roughnessFactor":0.8600000143051147,"metallicFactor":0}},{"name":"MAT_walden_Registered_Print.001","extras":{"surface_finish":"Registered print, selective varnish"},"doubleSided":true,"pbrMetallicRoughness":{"baseColorTexture":{"index":7,"texCoord":1},"metallicRoughnessTexture":{"index":9,"texCoord":1}},"normalTexture":{"index":8,"texCoord":1},"extensions":{"KHR_materials_clearcoat":{"clearcoatFactor":1,"clearcoatRoughnessFactor":0.23999999463558197,"clearcoatTexture":{"index":9,"texCoord":1}}}},{"name":"Endband cotton ecru","doubleSided":true,"pbrMetallicRoughness":{"baseColorFactor":[0.5,0.46000000834465027,0.3499999940395355,1],"roughnessFactor":0.8799999952316284,"metallicFactor":0}},{"name":"Binding linen warm ecru","doubleSided":true,"pbrMetallicRoughness":{"baseColorFactor":[0.3799999952316284,0.3400000035762787,0.25999999046325684,1],"roughnessFactor":0.9300000071525574,"metallicFactor":0}},{"name":"walden woven ribbon.002","doubleSided":true,"pbrMetallicRoughness":{"baseColorFactor":[0.009134058840572834,0.01850022003054619,0.010960093699395657,1],"metallicFactor":0,"metallicRoughnessTexture":{"index":1}},"normalTexture":{"index":0,"scale":1.149999976158142},"extensions":{"KHR_materials_sheen":{"sheenColorFactor":[1,1,1],"sheenRoughnessFactor":0.5}}},{"name":"MAT_Uncoated_Paper_Fibre","doubleSided":true,"pbrMetallicRoughness":{"metallicFactor":0,"baseColorTexture":{"index":2},"metallicRoughnessTexture":{"index":4}},"normalTexture":{"index":3,"scale":0.07000000029802322}},{"name":"walden printed ink.002","doubleSided":true,"pbrMetallicRoughness":{"baseColorFactor":[0.040915198624134064,0.03310476616024971,0.019382361322641373,1],"roughnessFactor":0.8999999761581421,"metallicFactor":0}}],"meshes":[{"name":"Pressed case joint Back board.031","primitives":[{"attributes":{"POSITION":0,"NORMAL":1,"TEXCOORD_0":2},"mode":4,"material":0,"indices":3}]},{"name":"Back collection.007","primitives":[{"attributes":{"POSITION":4,"NORMAL":5,"TEXCOORD_0":6},"mode":4,"material":1,"indices":7}]},{"name":"Back description.007","primitives":[{"attributes":{"POSITION":8,"NORMAL":9,"TEXCOORD_0":10},"mode":4,"material":1,"indices":11}]},{"name":"Back edition.007","primitives":[{"attributes":{"POSITION":12,"NORMAL":13,"TEXCOORD_0":14},"mode":4,"material":2,"indices":15}]},{"name":"Back ISBN.007","primitives":[{"attributes":{"POSITION":16,"NORMAL":17,"TEXCOORD_0":18},"mode":4,"material":1,"indices":19}]},{"name":"Back pastedown.031","primitives":[{"attributes":{"POSITION":20,"NORMAL":21,"TEXCOORD_0":22,"TEXCOORD_1":23},"mode":4,"material":3,"indices":24}]},{"name":"Back title.007","primitives":[{"attributes":{"POSITION":25,"NORMAL":26,"TEXCOORD_0":27},"mode":4,"material":2,"indices":28}]},{"name":"Collection mark.023","primitives":[{"attributes":{"POSITION":29,"NORMAL":30,"TEXCOORD_0":31},"mode":4,"material":4,"indices":32}]},{"name":"Continuous compressed cut walden.003","primitives":[{"attributes":{"POSITION":33,"NORMAL":34,"TEXCOORD_0":35},"mode":4,"material":5,"indices":36},{"attributes":{"POSITION":37,"NORMAL":38,"TEXCOORD_0":39},"mode":4,"material":6,"indices":40}]},{"name":"Curved foil rule.046","primitives":[{"attributes":{"POSITION":41,"NORMAL":42,"TEXCOORD_0":43},"mode":4,"material":4,"indices":44}]},{"name":"Curved foil rule.047","primitives":[{"attributes":{"POSITION":45,"NORMAL":46,"TEXCOORD_0":47},"mode":4,"material":4,"indices":44}]},{"name":"Front pastedown.031","primitives":[{"attributes":{"POSITION":48,"NORMAL":49,"TEXCOORD_0":50,"TEXCOORD_1":51},"mode":4,"material":3,"indices":24}]},{"name":"Pressed case joint Wrapped printed cover.006","primitives":[{"attributes":{"POSITION":52,"NORMAL":53,"TEXCOORD_0":54,"TEXCOORD_1":55,"TEXCOORD_2":56,"TEXCOORD_3":57},"mode":4,"material":7,"indices":58},{"attributes":{"POSITION":59,"NORMAL":60,"TEXCOORD_0":61,"TEXCOORD_1":62,"TEXCOORD_2":63,"TEXCOORD_3":64},"mode":4,"material":0,"indices":65}]},{"name":"Head textile endband walden.004","primitives":[{"attributes":{"POSITION":66,"NORMAL":67},"mode":4,"material":8,"indices":68}]},{"name":"Linen spine lining walden.004","primitives":[{"attributes":{"POSITION":69,"NORMAL":70},"mode":4,"material":9,"indices":71}]},{"name":"Ribbon flexible satin walden.004","primitives":[{"attributes":{"POSITION":72,"NORMAL":73,"TEXCOORD_0":74},"mode":4,"material":10,"indices":75}]},{"name":"Rounded cloth spine.031","primitives":[{"attributes":{"POSITION":76,"NORMAL":77,"TEXCOORD_0":78},"mode":4,"material":0,"indices":79}]},{"name":"Spine author.023","primitives":[{"attributes":{"POSITION":80,"NORMAL":81,"TEXCOORD_0":82},"mode":4,"material":4,"indices":83}]},{"name":"Spine title.031","primitives":[{"attributes":{"POSITION":84,"NORMAL":85,"TEXCOORD_0":86},"mode":4,"material":4,"indices":87}]},{"name":"Tail textile endband walden.004","primitives":[{"attributes":{"POSITION":88,"NORMAL":89},"mode":4,"material":8,"indices":68}]},{"name":"Flexible paper.007","primitives":[{"attributes":{"POSITION":90,"NORMAL":91,"TEXCOORD_0":92},"mode":4,"material":11,"indices":93}]},{"name":"Interior author.031","primitives":[{"attributes":{"POSITION":94,"NORMAL":95,"TEXCOORD_0":96},"mode":4,"material":12,"indices":97}]},{"name":"Interior imprint.031","primitives":[{"attributes":{"POSITION":98,"NORMAL":99,"TEXCOORD_0":100},"mode":4,"material":12,"indices":101}]},{"name":"Interior title.031","primitives":[{"attributes":{"POSITION":102,"NORMAL":103,"TEXCOORD_0":104},"mode":4,"material":12,"indices":105}]}],"nodes":[{"name":"Back board.031","extras":{"edge_refined":true,"unpressed_mesh":"Back board.039","pressed_joint_revision":1,"joint_depth_mm":1.0363019123911799,"joint_center_mm":6.3999999999999995},"translation":[0,0,-0.1145000010728836],"mesh":0},{"name":"Back collection.007","translation":[0,-0.5486400127410889,-0.1264999955892563],"rotation":[0,-0.7071068286895752,0.7071068286895752,3.090862321641907e-8],"mesh":1},{"name":"Back description.007","translation":[0,0.05714999884366989,-0.1264999955892563],"rotation":[0,-0.7071068286895752,0.7071068286895752,3.090862321641907e-8],"mesh":2},{"name":"Back edition.007","translation":[0,-0.777239978313446,-0.1264999955892563],"rotation":[0,-0.7071068286895752,0.7071068286895752,3.090862321641907e-8],"mesh":3},{"name":"Back ISBN.007","translation":[0,-0.8915399312973022,-0.1264999955892563],"rotation":[0,-0.7071068286895752,0.7071068286895752,3.090862321641907e-8],"mesh":4},{"name":"Back pastedown.031","translation":[0,0,-0.10300000011920929],"mesh":5},{"name":"Back title.007","translation":[0,0.6629400253295898,-0.1264999955892563],"rotation":[0,-0.7071068286895752,0.7071068286895752,3.090862321641907e-8],"mesh":6},{"name":"Collection mark.023","mesh":7},{"name":"Compressed paper signatures walden.003","extras":{"paper_surface_revision":1,"leaf_count":144,"paper_caliper_mm":0.12916666666666668,"binding_structure":"Rounded and backed signatures"},"mesh":8},{"name":"Curved foil rule.046","mesh":9},{"name":"Curved foil rule.047","mesh":10},{"name":"Front pastedown.031","translation":[0.7619999647140503,0,-0.011500008404254913],"mesh":11},{"name":"Wrapped printed cover.006","extras":{"edge_refined":true,"unpressed_mesh":"Front board.039","pressed_joint_revision":1,"joint_depth_mm":1.0950578324554205,"joint_center_mm":6.3999999999999995},"translation":[0.7619999647140503,0,0],"mesh":12},{"name":"FrontHinge.031","translation":[-0.7620000243186951,0,0.1145000010728836],"children":[11,12]},{"name":"Head textile endband walden.004","extras":{"binding_revision":2},"mesh":13},{"name":"Linen spine lining walden.004","extras":{"binding_revision":2},"mesh":14},{"name":"Ribbon flexible satin walden.004","extras":{"binding_revision":2,"ribbon_width_dm":0.043,"ribbon_length_dm":0.29,"ribbon_anchor_dm":[0,-1.135,0.006]},"mesh":15},{"name":"Rounded cloth spine.031","mesh":16},{"name":"Spine author.023","mesh":17},{"name":"Spine title.031","mesh":18},{"name":"Tail textile endband walden.004","extras":{"binding_revision":2},"mesh":19},{"name":"Curved title leaf.007","mesh":20},{"name":"Interior author.031","mesh":21},{"name":"Interior imprint.031","mesh":22},{"name":"Interior title.031","mesh":23},{"name":"TurningLeaf.007","translation":[-0.7170000076293945,0,0.09549999982118607],"children":[21,22,23,24]},{"name":"Publisher_walden.001","extras":{"slug":"walden","dimensions_mm":[152.4,228.6,25],"model_design":"Publisher front artwork on a showcase binding; spine and interior are custom reconstructions"},"scale":[0.09728696942329407,0.09999497979879379,0.09968560189008713],"children":[0,1,2,3,4,5,6,7,8,9,10,13,14,15,16,17,18,19,20,25]}],"scenes":[{"name":"Library Publisher Editions.001","nodes":[26]}],"scene":0,"extensionsUsed":["EXT_meshopt_compression","EXT_texture_webp","KHR_materials_clearcoat","KHR_materials_sheen"],"extensionsRequired":["EXT_meshopt_compression","EXT_texture_webp"]}