{"asset":{"generator":"glTF-Transform v4.5.0","version":"2.0"},"accessors":[{"type":"VEC3","componentType":5126,"count":2392,"max":[0.7617413401603699,1.1428145170211792,0.010828857310116291],"min":[-0.7617413401603699,-1.1428145170211792,-0.010828857310116291],"normalized":false,"byteOffset":0,"bufferView":0},{"type":"VEC3","componentType":5126,"count":2392,"normalized":false,"byteOffset":0,"bufferView":1},{"type":"VEC2","componentType":5126,"count":2392,"normalized":false,"byteOffset":0,"bufferView":2},{"type":"SCALAR","componentType":5123,"count":12588,"normalized":false,"byteOffset":0,"bufferView":3},{"type":"VEC3","componentType":5126,"count":514,"max":[0.1009504571557045,0,0.0053944955579936504],"min":[-0.09995229542255402,0,-0.005732110235840082],"normalized":false,"byteOffset":0,"bufferView":4},{"type":"VEC3","componentType":5126,"count":514,"normalized":false,"byteOffset":0,"bufferView":5},{"type":"SCALAR","componentType":5123,"count":1482,"normalized":false,"byteOffset":25176,"bufferView":3},{"type":"VEC3","componentType":5126,"count":5774,"max":[0.16743232309818268,0,0.054797302931547165],"min":[-0.16708150506019592,0,-0.0509968101978302],"normalized":false,"byteOffset":0,"bufferView":6},{"type":"VEC3","componentType":5126,"count":5774,"normalized":false,"byteOffset":0,"bufferView":7},{"type":"SCALAR","componentType":5123,"count":17082,"normalized":false,"byteOffset":28140,"bufferView":3},{"type":"VEC3","componentType":5126,"count":556,"max":[0.0702253207564354,0,0.00647339504212141],"min":[-0.06984661519527435,0,-0.00688733858987689],"normalized":false,"byteOffset":0,"bufferView":8},{"type":"VEC3","componentType":5126,"count":556,"normalized":false,"byteOffset":0,"bufferView":9},{"type":"SCALAR","componentType":5123,"count":1638,"normalized":false,"byteOffset":62304,"bufferView":3},{"type":"VEC3","componentType":5126,"count":915,"max":[0.079025499522686,0,0.005664220545440912],"min":[-0.0783858671784401,0,-0.0060187154449522495],"normalized":false,"byteOffset":0,"bufferView":10},{"type":"VEC3","componentType":5126,"count":915,"normalized":false,"byteOffset":0,"bufferView":11},{"type":"SCALAR","componentType":5123,"count":2715,"normalized":false,"byteOffset":65580,"bufferView":3},{"type":"VEC3","componentType":5126,"count":583,"max":[0.06962402164936066,0,0.01499734353274107],"min":[-0.07069453597068787,0,-0.016835398972034454],"normalized":false,"byteOffset":0,"bufferView":12},{"type":"VEC3","componentType":5126,"count":583,"normalized":false,"byteOffset":0,"bufferView":13},{"type":"SCALAR","componentType":5123,"count":1731,"normalized":false,"byteOffset":71010,"bufferView":3},{"type":"VEC3","componentType":5126,"count":11546,"max":[-0.8055149912834167,-0.7620418071746826,0.010499999858438969],"min":[-0.8062499761581421,-0.975318193435669,-0.010499999858438969],"normalized":false,"byteOffset":0,"bufferView":14},{"type":"VEC3","componentType":5126,"count":11546,"normalized":false,"byteOffset":0,"bufferView":15},{"type":"SCALAR","componentType":5123,"count":17364,"normalized":false,"byteOffset":74472,"bufferView":3},{"type":"VEC3","componentType":5126,"count":8772,"max":[0.7350000143051147,1.115099310874939,0.09300000220537186],"min":[-0.7749999761581421,-1.1150827407836914,-0.09300000220537186],"normalized":false,"byteOffset":0,"bufferView":16},{"type":"VEC3","componentType":5126,"count":8772,"normalized":false,"byteOffset":0,"bufferView":17},{"type":"VEC2","componentType":5126,"count":8772,"normalized":false,"byteOffset":0,"bufferView":18},{"type":"SCALAR","componentType":5123,"count":49152,"normalized":false,"byteOffset":109200,"bufferView":3},{"type":"VEC3","componentType":5126,"count":8,"max":[0.7350000143051147,1.1150000095367432,0.09300000220537186],"min":[-0.7519999742507935,-1.1150000095367432,-0.09300000220537186],"normalized":false,"byteOffset":0,"bufferView":19},{"type":"VEC3","componentType":5126,"count":8,"normalized":false,"byteOffset":0,"bufferView":20},{"type":"SCALAR","componentType":5123,"count":12,"normalized":false,"byteOffset":207504,"bufferView":3},{"type":"VEC3","componentType":5126,"count":64,"max":[-0.7866047024726868,-0.6162199974060059,0.07327999919652939],"min":[-0.8061000108718872,-0.6182199716567993,-0.07327999919652939],"normalized":false,"byteOffset":0,"bufferView":21},{"type":"VEC3","componentType":5126,"count":64,"normalized":false,"byteOffset":0,"bufferView":22},{"type":"SCALAR","componentType":5123,"count":96,"normalized":false,"byteOffset":207528,"bufferView":3},{"type":"VEC3","componentType":5126,"count":64,"max":[-0.7866047024726868,0.5267800092697144,0.07327999919652939],"min":[-0.8061000108718872,0.5247799754142761,-0.07327999919652939],"normalized":false,"byteOffset":0,"bufferView":23},{"type":"VEC3","componentType":5126,"count":64,"normalized":false,"byteOffset":0,"bufferView":24},{"type":"VEC3","componentType":5126,"count":1326,"max":[0.7617408037185669,1.142814040184021,0.011402342468500137],"min":[-0.7617408037185669,-1.142814040184021,-0.008892604149878025],"normalized":false,"byteOffset":0,"bufferView":25},{"type":"VEC3","componentType":5126,"count":1326,"normalized":false,"byteOffset":0,"bufferView":26},{"type":"VEC2","componentType":5126,"count":1326,"normalized":false,"byteOffset":0,"bufferView":27},{"type":"SCALAR","componentType":5123,"count":6720,"normalized":false,"byteOffset":207720,"bufferView":3},{"type":"VEC3","componentType":5126,"count":1192,"max":[0.7617408037185669,1.142814040184021,-0.004851226694881916],"min":[-0.7617408037185669,-1.142814040184021,-0.011442828923463821],"normalized":false,"byteOffset":0,"bufferView":28},{"type":"VEC3","componentType":5126,"count":1192,"normalized":false,"byteOffset":0,"bufferView":29},{"type":"VEC2","componentType":5126,"count":1192,"normalized":false,"byteOffset":0,"bufferView":30},{"type":"SCALAR","componentType":5123,"count":5940,"normalized":false,"byteOffset":221160,"bufferView":3},{"type":"VEC3","componentType":5126,"count":2660,"max":[-0.746749997138977,1.1180419921875,0.09300000220537186],"min":[-0.7782418131828308,1.1099580526351929,-0.09300000220537186],"normalized":false,"byteOffset":0,"bufferView":31},{"type":"VEC3","componentType":5126,"count":2660,"normalized":false,"byteOffset":0,"bufferView":32},{"type":"SCALAR","componentType":5123,"count":15900,"normalized":false,"byteOffset":233040,"bufferView":3},{"type":"VEC3","componentType":5126,"count":588,"max":[-0.7527499794960022,1.1030000448226929,0.09300000220537186],"min":[-0.777999997138977,-1.1030000448226929,-0.09300000220537186],"normalized":false,"byteOffset":0,"bufferView":33},{"type":"VEC3","componentType":5126,"count":588,"normalized":false,"byteOffset":0,"bufferView":34},{"type":"SCALAR","componentType":5123,"count":1164,"normalized":false,"byteOffset":264840,"bufferView":3},{"type":"VEC3","componentType":5126,"count":730,"max":[0.02171693742275238,-1.13499915599823,0.02216394618153572],"min":[-0.02171693742275238,-1.4249999523162842,0.006000000052154064],"normalized":false,"byteOffset":0,"bufferView":35},{"type":"VEC3","componentType":5126,"count":730,"normalized":false,"byteOffset":0,"bufferView":36},{"type":"VEC2","componentType":5126,"count":730,"normalized":false,"byteOffset":0,"bufferView":37},{"type":"SCALAR","componentType":5123,"count":4368,"normalized":false,"byteOffset":267168,"bufferView":3},{"type":"VEC3","componentType":5126,"count":2178,"max":[-0.7541370391845703,1.143057942390442,0.1145000010728836],"min":[-0.804499626159668,-1.1430567502975464,-0.1145000010728836],"normalized":false,"byteOffset":0,"bufferView":38},{"type":"VEC3","componentType":5126,"count":2178,"normalized":false,"byteOffset":0,"bufferView":39},{"type":"VEC2","componentType":5126,"count":2178,"normalized":false,"byteOffset":0,"bufferView":40},{"type":"SCALAR","componentType":5123,"count":13056,"normalized":false,"byteOffset":275904,"bufferView":3},{"type":"VEC3","componentType":5126,"count":16440,"max":[-0.8052875995635986,1.0172699689865112,0.012962901033461094],"min":[-0.8062499761581421,0.5829300284385681,-0.012962901033461094],"normalized":false,"byteOffset":0,"bufferView":41},{"type":"VEC3","componentType":5126,"count":16440,"normalized":false,"byteOffset":0,"bufferView":42},{"type":"SCALAR","componentType":5123,"count":24756,"normalized":false,"byteOffset":302016,"bufferView":3},{"type":"VEC3","componentType":5126,"count":6033,"max":[-0.8030006289482117,0.12113168835639954,0.027480000630021095],"min":[-0.8062499761581421,-0.12113168835639954,-0.027480000630021095],"normalized":false,"byteOffset":0,"bufferView":43},{"type":"VEC3","componentType":5126,"count":6033,"normalized":false,"byteOffset":0,"bufferView":44},{"type":"SCALAR","componentType":5123,"count":9072,"normalized":false,"byteOffset":351528,"bufferView":3},{"type":"VEC3","componentType":5126,"count":2660,"max":[-0.746749997138977,-1.1099580526351929,0.09300000220537186],"min":[-0.7782418131828308,-1.1180419921875,-0.09300000220537186],"normalized":false,"byteOffset":0,"bufferView":45},{"type":"VEC3","componentType":5126,"count":2660,"normalized":false,"byteOffset":0,"bufferView":46}],"bufferViews":[{"buffer":1,"byteOffset":0,"byteLength":28704,"target":34962,"byteStride":12,"extensions":{"EXT_meshopt_compression":{"buffer":0,"byteOffset":0,"byteLength":17289,"mode":"ATTRIBUTES","byteStride":12,"count":2392}}},{"buffer":1,"byteOffset":28704,"byteLength":28704,"target":34962,"byteStride":12,"extensions":{"EXT_meshopt_compression":{"buffer":0,"byteOffset":17292,"byteLength":21474,"mode":"ATTRIBUTES","byteStride":12,"count":2392}}},{"buffer":1,"byteOffset":57408,"byteLength":19136,"target":34962,"byteStride":8,"extensions":{"EXT_meshopt_compression":{"buffer":0,"byteOffset":38768,"byteLength":13541,"mode":"ATTRIBUTES","byteStride":8,"count":2392}}},{"buffer":1,"byteOffset":76544,"byteLength":369672,"target":34963,"extensions":{"EXT_meshopt_compression":{"buffer":0,"byteOffset":52312,"byteLength":179292,"mode":"TRIANGLES","byteStride":2,"count":184836}}},{"buffer":1,"byteOffset":446216,"byteLength":6168,"target":34962,"byteStride":12,"extensions":{"EXT_meshopt_compression":{"buffer":0,"byteOffset":231604,"byteLength":3261,"mode":"ATTRIBUTES","byteStride":12,"count":514}}},{"buffer":1,"byteOffset":452384,"byteLength":6168,"target":34962,"byteStride":12,"extensions":{"EXT_meshopt_compression":{"buffer":0,"byteOffset":234868,"byteLength":141,"mode":"ATTRIBUTES","byteStride":12,"count":514}}},{"buffer":1,"byteOffset":458552,"byteLength":69288,"target":34962,"byteStride":12,"extensions":{"EXT_meshopt_compression":{"buffer":0,"byteOffset":235012,"byteLength":31584,"mode":"ATTRIBUTES","byteStride":12,"count":5774}}},{"buffer":1,"byteOffset":527840,"byteLength":69288,"target":34962,"byteStride":12,"extensions":{"EXT_meshopt_compression":{"buffer":0,"byteOffset":266596,"byteLength":1125,"mode":"ATTRIBUTES","byteStride":12,"count":5774}}},{"buffer":1,"byteOffset":597128,"byteLength":6672,"target":34962,"byteStride":12,"extensions":{"EXT_meshopt_compression":{"buffer":0,"byteOffset":267724,"byteLength":3489,"mode":"ATTRIBUTES","byteStride":12,"count":556}}},{"buffer":1,"byteOffset":603800,"byteLength":6672,"target":34962,"byteStride":12,"extensions":{"EXT_meshopt_compression":{"buffer":0,"byteOffset":271216,"byteLength":141,"mode":"ATTRIBUTES","byteStride":12,"count":556}}},{"buffer":1,"byteOffset":610472,"byteLength":10980,"target":34962,"byteStride":12,"extensions":{"EXT_meshopt_compression":{"buffer":0,"byteOffset":271360,"byteLength":5778,"mode":"ATTRIBUTES","byteStride":12,"count":915}}},{"buffer":1,"byteOffset":621452,"byteLength":10980,"target":34962,"byteStride":12,"extensions":{"EXT_meshopt_compression":{"buffer":0,"byteOffset":277140,"byteLength":213,"mode":"ATTRIBUTES","byteStride":12,"count":915}}},{"buffer":1,"byteOffset":632432,"byteLength":6996,"target":34962,"byteStride":12,"extensions":{"EXT_meshopt_compression":{"buffer":0,"byteOffset":277356,"byteLength":3616,"mode":"ATTRIBUTES","byteStride":12,"count":583}}},{"buffer":1,"byteOffset":639428,"byteLength":6996,"target":34962,"byteStride":12,"extensions":{"EXT_meshopt_compression":{"buffer":0,"byteOffset":280972,"byteLength":153,"mode":"ATTRIBUTES","byteStride":12,"count":583}}},{"buffer":1,"byteOffset":646424,"byteLength":138552,"target":34962,"byteStride":12,"extensions":{"EXT_meshopt_compression":{"buffer":0,"byteOffset":281128,"byteLength":53358,"mode":"ATTRIBUTES","byteStride":12,"count":11546}}},{"buffer":1,"byteOffset":784976,"byteLength":138552,"target":34962,"byteStride":12,"extensions":{"EXT_meshopt_compression":{"buffer":0,"byteOffset":334488,"byteLength":90701,"mode":"ATTRIBUTES","byteStride":12,"count":11546}}},{"buffer":1,"byteOffset":923528,"byteLength":105264,"target":34962,"byteStride":12,"extensions":{"EXT_meshopt_compression":{"buffer":0,"byteOffset":425192,"byteLength":43335,"mode":"ATTRIBUTES","byteStride":12,"count":8772}}},{"buffer":1,"byteOffset":1028792,"byteLength":105264,"target":34962,"byteStride":12,"extensions":{"EXT_meshopt_compression":{"buffer":0,"byteOffset":468528,"byteLength":16110,"mode":"ATTRIBUTES","byteStride":12,"count":8772}}},{"buffer":1,"byteOffset":1134056,"byteLength":70176,"target":34962,"byteStride":8,"extensions":{"EXT_meshopt_compression":{"buffer":0,"byteOffset":484640,"byteLength":35443,"mode":"ATTRIBUTES","byteStride":8,"count":8772}}},{"buffer":1,"byteOffset":1204232,"byteLength":96,"target":34962,"byteStride":12,"extensions":{"EXT_meshopt_compression":{"buffer":0,"byteOffset":520084,"byteLength":89,"mode":"ATTRIBUTES","byteStride":12,"count":8}}},{"buffer":1,"byteOffset":1204328,"byteLength":96,"target":34962,"byteStride":12,"extensions":{"EXT_meshopt_compression":{"buffer":0,"byteOffset":520176,"byteLength":50,"mode":"ATTRIBUTES","byteStride":12,"count":8}}},{"buffer":1,"byteOffset":1204424,"byteLength":768,"target":34962,"byteStride":12,"extensions":{"EXT_meshopt_compression":{"buffer":0,"byteOffset":520228,"byteLength":328,"mode":"ATTRIBUTES","byteStride":12,"count":64}}},{"buffer":1,"byteOffset":1205192,"byteLength":768,"target":34962,"byteStride":12,"extensions":{"EXT_meshopt_compression":{"buffer":0,"byteOffset":520556,"byteLength":372,"mode":"ATTRIBUTES","byteStride":12,"count":64}}},{"buffer":1,"byteOffset":1205960,"byteLength":768,"target":34962,"byteStride":12,"extensions":{"EXT_meshopt_compression":{"buffer":0,"byteOffset":520928,"byteLength":324,"mode":"ATTRIBUTES","byteStride":12,"count":64}}},{"buffer":1,"byteOffset":1206728,"byteLength":768,"target":34962,"byteStride":12,"extensions":{"EXT_meshopt_compression":{"buffer":0,"byteOffset":521252,"byteLength":372,"mode":"ATTRIBUTES","byteStride":12,"count":64}}},{"buffer":1,"byteOffset":1207496,"byteLength":15912,"target":34962,"byteStride":12,"extensions":{"EXT_meshopt_compression":{"buffer":0,"byteOffset":521624,"byteLength":10409,"mode":"ATTRIBUTES","byteStride":12,"count":1326}}},{"buffer":1,"byteOffset":1223408,"byteLength":15912,"target":34962,"byteStride":12,"extensions":{"EXT_meshopt_compression":{"buffer":0,"byteOffset":532036,"byteLength":12321,"mode":"ATTRIBUTES","byteStride":12,"count":1326}}},{"buffer":1,"byteOffset":1239320,"byteLength":10608,"target":34962,"byteStride":8,"extensions":{"EXT_meshopt_compression":{"buffer":0,"byteOffset":544360,"byteLength":7194,"mode":"ATTRIBUTES","byteStride":8,"count":1326}}},{"buffer":1,"byteOffset":1249928,"byteLength":14304,"target":34962,"byteStride":12,"extensions":{"EXT_meshopt_compression":{"buffer":0,"byteOffset":551556,"byteLength":8889,"mode":"ATTRIBUTES","byteStride":12,"count":1192}}},{"buffer":1,"byteOffset":1264232,"byteLength":14304,"target":34962,"byteStride":12,"extensions":{"EXT_meshopt_compression":{"buffer":0,"byteOffset":560448,"byteLength":10450,"mode":"ATTRIBUTES","byteStride":12,"count":1192}}},{"buffer":1,"byteOffset":1278536,"byteLength":9536,"target":34962,"byteStride":8,"extensions":{"EXT_meshopt_compression":{"buffer":0,"byteOffset":570900,"byteLength":6831,"mode":"ATTRIBUTES","byteStride":8,"count":1192}}},{"buffer":1,"byteOffset":1288072,"byteLength":31920,"target":34962,"byteStride":12,"extensions":{"EXT_meshopt_compression":{"buffer":0,"byteOffset":577732,"byteLength":15254,"mode":"ATTRIBUTES","byteStride":12,"count":2660}}},{"buffer":1,"byteOffset":1319992,"byteLength":31920,"target":34962,"byteStride":12,"extensions":{"EXT_meshopt_compression":{"buffer":0,"byteOffset":592988,"byteLength":28680,"mode":"ATTRIBUTES","byteStride":12,"count":2660}}},{"buffer":1,"byteOffset":1351912,"byteLength":7056,"target":34962,"byteStride":12,"extensions":{"EXT_meshopt_compression":{"buffer":0,"byteOffset":621668,"byteLength":1858,"mode":"ATTRIBUTES","byteStride":12,"count":588}}},{"buffer":1,"byteOffset":1358968,"byteLength":7056,"target":34962,"byteStride":12,"extensions":{"EXT_meshopt_compression":{"buffer":0,"byteOffset":623528,"byteLength":5846,"mode":"ATTRIBUTES","byteStride":12,"count":588}}},{"buffer":1,"byteOffset":1366024,"byteLength":8760,"target":34962,"byteStride":12,"extensions":{"EXT_meshopt_compression":{"buffer":0,"byteOffset":629376,"byteLength":4464,"mode":"ATTRIBUTES","byteStride":12,"count":730}}},{"buffer":1,"byteOffset":1374784,"byteLength":8760,"target":34962,"byteStride":12,"extensions":{"EXT_meshopt_compression":{"buffer":0,"byteOffset":633840,"byteLength":6185,"mode":"ATTRIBUTES","byteStride":12,"count":730}}},{"buffer":1,"byteOffset":1383544,"byteLength":5840,"target":34962,"byteStride":8,"extensions":{"EXT_meshopt_compression":{"buffer":0,"byteOffset":640028,"byteLength":2354,"mode":"ATTRIBUTES","byteStride":8,"count":730}}},{"buffer":1,"byteOffset":1389384,"byteLength":26136,"target":34962,"byteStride":12,"extensions":{"EXT_meshopt_compression":{"buffer":0,"byteOffset":642384,"byteLength":15151,"mode":"ATTRIBUTES","byteStride":12,"count":2178}}},{"buffer":1,"byteOffset":1415520,"byteLength":26136,"target":34962,"byteStride":12,"extensions":{"EXT_meshopt_compression":{"buffer":0,"byteOffset":657536,"byteLength":21430,"mode":"ATTRIBUTES","byteStride":12,"count":2178}}},{"buffer":1,"byteOffset":1441656,"byteLength":17424,"target":34962,"byteStride":8,"extensions":{"EXT_meshopt_compression":{"buffer":0,"byteOffset":678968,"byteLength":6848,"mode":"ATTRIBUTES","byteStride":8,"count":2178}}},{"buffer":1,"byteOffset":1459080,"byteLength":197280,"target":34962,"byteStride":12,"extensions":{"EXT_meshopt_compression":{"buffer":0,"byteOffset":685816,"byteLength":74545,"mode":"ATTRIBUTES","byteStride":12,"count":16440}}},{"buffer":1,"byteOffset":1656360,"byteLength":197280,"target":34962,"byteStride":12,"extensions":{"EXT_meshopt_compression":{"buffer":0,"byteOffset":760364,"byteLength":127715,"mode":"ATTRIBUTES","byteStride":12,"count":16440}}},{"buffer":1,"byteOffset":1853640,"byteLength":72396,"target":34962,"byteStride":12,"extensions":{"EXT_meshopt_compression":{"buffer":0,"byteOffset":888080,"byteLength":30886,"mode":"ATTRIBUTES","byteStride":12,"count":6033}}},{"buffer":1,"byteOffset":1926036,"byteLength":72396,"target":34962,"byteStride":12,"extensions":{"EXT_meshopt_compression":{"buffer":0,"byteOffset":918968,"byteLength":49525,"mode":"ATTRIBUTES","byteStride":12,"count":6033}}},{"buffer":1,"byteOffset":1998432,"byteLength":31920,"target":34962,"byteStride":12,"extensions":{"EXT_meshopt_compression":{"buffer":0,"byteOffset":968496,"byteLength":15258,"mode":"ATTRIBUTES","byteStride":12,"count":2660}}},{"buffer":1,"byteOffset":2030352,"byteLength":31920,"target":34962,"byteStride":12,"extensions":{"EXT_meshopt_compression":{"buffer":0,"byteOffset":983756,"byteLength":28680,"mode":"ATTRIBUTES","byteStride":12,"count":2660}}}],"samplers":[{"magFilter":9729,"minFilter":9987,"wrapS":10497,"wrapT":10497},{"magFilter":9729,"minFilter":9987,"wrapS":33071,"wrapT":33071}],"textures":[{"sampler":0,"extensions":{"EXT_texture_webp":{"source":0}}},{"sampler":0,"extensions":{"EXT_texture_webp":{"source":1}}},{"sampler":0,"extensions":{"EXT_texture_webp":{"source":3}}},{"sampler":0,"extensions":{"EXT_texture_webp":{"source":2}}},{"sampler":1,"extensions":{"EXT_texture_webp":{"source":6}}},{"sampler":0,"extensions":{"EXT_texture_webp":{"source":5}}},{"sampler":0,"extensions":{"EXT_texture_webp":{"source":4}}}],"images":[{"name":"book_pattern_nor_gl_2k","mimeType":"image/webp","uri":"shared/8de172b46ec41fd3863b660a.webp"},{"name":"book_pattern_rough_2k","mimeType":"image/webp","uri":"shared/a04d51bd9431742f3e8e78f4.webp"},{"name":"compressed-paper-normal","mimeType":"image/webp","uri":"shared/339c1ac519928878fbaa1237.webp"},{"name":"compressed-paper-color","mimeType":"image/webp","uri":"shared/7701c62282fa7f26c46af450.webp"},{"name":"walden_print_orm","mimeType":"image/webp","uri":"shared/b8780a8f7828aaf8c1f4a5cb.webp"},{"name":"walden_print_normal","mimeType":"image/webp","uri":"shared/a310269675a6e5280c5f6de8.webp"},{"name":"edition-walden","mimeType":"image/webp","uri":"shared/f1348188bc4bc08883c5229f.webp"}],"buffers":[{"uri":"shared/0fea83391d10176b056c2d41.bin","byteLength":1012436},{"byteLength":2062272,"extensions":{"EXT_meshopt_compression":{"fallback":true}}}],"materials":[{"name":"walden case material.002","doubleSided":true,"pbrMetallicRoughness":{"baseColorFactor":[0.07036009430885315,0.3915724754333496,0.03189603239297867,1],"metallicFactor":0,"metallicRoughnessTexture":{"index":1}},"normalTexture":{"index":0,"scale":0.05999999865889549}},{"name":"MAT_walden_BackInk","doubleSided":true,"pbrMetallicRoughness":{"baseColorFactor":[0.02500000037252903,0.03200000151991844,0.027000000700354576,1],"roughnessFactor":0.7200000286102295,"metallicFactor":0}},{"name":"MAT_walden_Stamped_Ink.002","doubleSided":true,"pbrMetallicRoughness":{"baseColorFactor":[0.02500000037252903,0.03200000151991844,0.027000000700354576,1],"roughnessFactor":0.3400000035762787,"metallicFactor":0},"extensions":{"KHR_materials_clearcoat":{"clearcoatFactor":0.44999998807907104,"clearcoatRoughnessFactor":0.20000000298023224}}},{"name":"MAT_walden_Stamped_Ink.003","doubleSided":true,"pbrMetallicRoughness":{"baseColorFactor":[0.009134058840572834,0.01850022003054619,0.010960093699395657,1],"roughnessFactor":0.3400000035762787,"metallicFactor":0},"extensions":{"KHR_materials_clearcoat":{"clearcoatFactor":0.44999998807907104,"clearcoatRoughnessFactor":0.20000000298023224}}},{"name":"Compressed paper cut surface","doubleSided":true,"pbrMetallicRoughness":{"roughnessFactor":0.8999999761581421,"metallicFactor":0,"baseColorTexture":{"index":2}},"normalTexture":{"index":3}},{"name":"Compressed ivory stock 2","doubleSided":true,"pbrMetallicRoughness":{"baseColorFactor":[0.7279999852180481,0.7129999995231628,0.656000018119812,1],"roughnessFactor":0.8600000143051147,"metallicFactor":0}},{"name":"MAT_walden_Registered_Print.001","extras":{"surface_finish":"Registered print, selective varnish"},"doubleSided":true,"pbrMetallicRoughness":{"baseColorTexture":{"index":4},"metallicRoughnessTexture":{"index":6}},"normalTexture":{"index":5},"extensions":{"KHR_materials_clearcoat":{"clearcoatFactor":1,"clearcoatRoughnessFactor":0.23999999463558197,"clearcoatTexture":{"index":6}}}},{"name":"Endband cotton ecru","doubleSided":true,"pbrMetallicRoughness":{"baseColorFactor":[0.5,0.46000000834465027,0.3499999940395355,1],"roughnessFactor":0.8799999952316284,"metallicFactor":0}},{"name":"Binding linen warm ecru","doubleSided":true,"pbrMetallicRoughness":{"baseColorFactor":[0.3799999952316284,0.3400000035762787,0.25999999046325684,1],"roughnessFactor":0.9300000071525574,"metallicFactor":0}},{"name":"walden woven ribbon.002","doubleSided":true,"pbrMetallicRoughness":{"baseColorFactor":[0.009134058840572834,0.01850022003054619,0.010960093699395657,1],"metallicFactor":0,"metallicRoughnessTexture":{"index":1}},"normalTexture":{"index":0,"scale":1.149999976158142},"extensions":{"KHR_materials_sheen":{"sheenColorFactor":[1,1,1],"sheenRoughnessFactor":0.5}}}],"meshes":[{"name":"Pressed case joint Back board.031","primitives":[{"attributes":{"POSITION":0,"NORMAL":1,"TEXCOORD_0":2},"mode":4,"material":0,"indices":3}]},{"name":"Back collection.007","primitives":[{"attributes":{"POSITION":4,"NORMAL":5},"mode":4,"material":1,"indices":6}]},{"name":"Back description.007","primitives":[{"attributes":{"POSITION":7,"NORMAL":8},"mode":4,"material":1,"indices":9}]},{"name":"Back edition.007","primitives":[{"attributes":{"POSITION":10,"NORMAL":11},"mode":4,"material":2,"indices":12}]},{"name":"Back ISBN.007","primitives":[{"attributes":{"POSITION":13,"NORMAL":14},"mode":4,"material":1,"indices":15}]},{"name":"Back title.007","primitives":[{"attributes":{"POSITION":16,"NORMAL":17},"mode":4,"material":2,"indices":18}]},{"name":"Collection mark.023","primitives":[{"attributes":{"POSITION":19,"NORMAL":20},"mode":4,"material":3,"indices":21}]},{"name":"Continuous compressed cut walden.003","primitives":[{"attributes":{"POSITION":22,"NORMAL":23,"TEXCOORD_0":24},"mode":4,"material":4,"indices":25},{"attributes":{"POSITION":26,"NORMAL":27},"mode":4,"material":5,"indices":28}]},{"name":"Curved foil rule.046","primitives":[{"attributes":{"POSITION":29,"NORMAL":30},"mode":4,"material":3,"indices":31}]},{"name":"Curved foil rule.047","primitives":[{"attributes":{"POSITION":32,"NORMAL":33},"mode":4,"material":3,"indices":31}]},{"name":"Pressed case joint Wrapped printed cover.006","primitives":[{"attributes":{"POSITION":34,"NORMAL":35,"TEXCOORD_0":36},"mode":4,"material":6,"indices":37},{"attributes":{"POSITION":38,"NORMAL":39,"TEXCOORD_0":40},"mode":4,"material":0,"indices":41}]},{"name":"Head textile endband walden.004","primitives":[{"attributes":{"POSITION":42,"NORMAL":43},"mode":4,"material":7,"indices":44}]},{"name":"Linen spine lining walden.004","primitives":[{"attributes":{"POSITION":45,"NORMAL":46},"mode":4,"material":8,"indices":47}]},{"name":"Ribbon flexible satin walden.004","primitives":[{"attributes":{"POSITION":48,"NORMAL":49,"TEXCOORD_0":50},"mode":4,"material":9,"indices":51}]},{"name":"Rounded cloth spine.031","primitives":[{"attributes":{"POSITION":52,"NORMAL":53,"TEXCOORD_0":54},"mode":4,"material":0,"indices":55}]},{"name":"Spine author.023","primitives":[{"attributes":{"POSITION":56,"NORMAL":57},"mode":4,"material":3,"indices":58}]},{"name":"Spine title.031","primitives":[{"attributes":{"POSITION":59,"NORMAL":60},"mode":4,"material":3,"indices":61}]},{"name":"Tail textile endband walden.004","primitives":[{"attributes":{"POSITION":62,"NORMAL":63},"mode":4,"material":7,"indices":44}]}],"nodes":[{"name":"Back board.031","extras":{"edge_refined":true,"unpressed_mesh":"Back board.039","pressed_joint_revision":1,"joint_depth_mm":1.0363019123911799,"joint_center_mm":6.3999999999999995},"translation":[0,0,-0.1145000010728836],"mesh":0},{"name":"Back collection.007","translation":[0,-0.5486400127410889,-0.1264999955892563],"rotation":[0,-0.7071068286895752,0.7071068286895752,3.090862321641907e-8],"mesh":1},{"name":"Back description.007","translation":[0,0.05714999884366989,-0.1264999955892563],"rotation":[0,-0.7071068286895752,0.7071068286895752,3.090862321641907e-8],"mesh":2},{"name":"Back edition.007","translation":[0,-0.777239978313446,-0.1264999955892563],"rotation":[0,-0.7071068286895752,0.7071068286895752,3.090862321641907e-8],"mesh":3},{"name":"Back ISBN.007","translation":[0,-0.8915399312973022,-0.1264999955892563],"rotation":[0,-0.7071068286895752,0.7071068286895752,3.090862321641907e-8],"mesh":4},{"name":"Back title.007","translation":[0,0.6629400253295898,-0.1264999955892563],"rotation":[0,-0.7071068286895752,0.7071068286895752,3.090862321641907e-8],"mesh":5},{"name":"Collection mark.023","mesh":6},{"name":"Compressed paper signatures walden.003","extras":{"paper_surface_revision":1,"leaf_count":144,"paper_caliper_mm":0.12916666666666668,"binding_structure":"Rounded and backed signatures"},"mesh":7},{"name":"Curved foil rule.046","mesh":8},{"name":"Curved foil rule.047","mesh":9},{"name":"Wrapped printed cover.006","extras":{"edge_refined":true,"unpressed_mesh":"Front board.039","pressed_joint_revision":1,"joint_depth_mm":1.0950578324554205,"joint_center_mm":6.3999999999999995},"translation":[0.7619999647140503,0,0],"mesh":10},{"name":"FrontHinge.031","translation":[-0.7620000243186951,0,0.1145000010728836],"children":[10]},{"name":"Head textile endband walden.004","extras":{"binding_revision":2},"mesh":11},{"name":"Linen spine lining walden.004","extras":{"binding_revision":2},"mesh":12},{"name":"Ribbon flexible satin walden.004","extras":{"binding_revision":2,"ribbon_width_dm":0.043,"ribbon_length_dm":0.29,"ribbon_anchor_dm":[0,-1.135,0.006]},"mesh":13},{"name":"Rounded cloth spine.031","mesh":14},{"name":"Spine author.023","mesh":15},{"name":"Spine title.031","mesh":16},{"name":"Tail textile endband walden.004","extras":{"binding_revision":2},"mesh":17},{"name":"Publisher_walden.001","extras":{"slug":"walden","dimensions_mm":[152.4,228.6,25],"model_design":"Publisher front artwork on a showcase binding; spine and interior are custom reconstructions"},"scale":[0.09728696942329407,0.09999497979879379,0.09968560189008713],"children":[0,1,2,3,4,5,6,7,8,9,11,12,13,14,15,16,17,18]}],"scenes":[{"name":"Library Publisher Editions.001","nodes":[19]}],"scene":0,"extensionsUsed":["EXT_meshopt_compression","EXT_texture_webp","KHR_materials_clearcoat","KHR_materials_sheen"],"extensionsRequired":["EXT_meshopt_compression","EXT_texture_webp"]}