{"asset":{"generator":"glTF-Transform v4.5.0","version":"2.0"},"accessors":[{"type":"VEC3","componentType":5126,"count":2392,"max":[0.6347571015357971,1.015763759613037,0.01083111111074686],"min":[-0.6347571015357971,-1.015763759613037,-0.01083111111074686],"normalized":false,"byteOffset":0,"bufferView":0},{"type":"VEC3","componentType":5126,"count":2392,"normalized":false,"byteOffset":0,"bufferView":1},{"type":"VEC2","componentType":5126,"count":2392,"normalized":false,"byteOffset":0,"bufferView":2},{"type":"SCALAR","componentType":5123,"count":12588,"normalized":false,"byteOffset":0,"bufferView":3},{"type":"VEC3","componentType":5126,"count":514,"max":[0.1009504571557045,0,0.0053944955579936504],"min":[-0.09995229542255402,0,-0.005732110235840082],"normalized":false,"byteOffset":0,"bufferView":4},{"type":"VEC3","componentType":5126,"count":514,"normalized":false,"byteOffset":0,"bufferView":5},{"type":"SCALAR","componentType":5123,"count":1482,"normalized":false,"byteOffset":25176,"bufferView":3},{"type":"VEC3","componentType":5126,"count":7439,"max":[0.1597260683774948,0,0.07085000723600388],"min":[-0.159726083278656,0,-0.07163350284099579],"normalized":false,"byteOffset":0,"bufferView":6},{"type":"VEC3","componentType":5126,"count":7439,"normalized":false,"byteOffset":0,"bufferView":7},{"type":"SCALAR","componentType":5123,"count":21885,"normalized":false,"byteOffset":28140,"bufferView":3},{"type":"VEC3","componentType":5126,"count":516,"max":[0.0995934009552002,0,0.00647339504212141],"min":[-0.0983075276017189,0,-0.006878532003611326],"normalized":false,"byteOffset":0,"bufferView":8},{"type":"VEC3","componentType":5126,"count":516,"normalized":false,"byteOffset":0,"bufferView":9},{"type":"SCALAR","componentType":5123,"count":1488,"normalized":false,"byteOffset":71910,"bufferView":3},{"type":"VEC3","componentType":5126,"count":898,"max":[0.07696018368005753,0,0.005664220545440912],"min":[-0.0783858671784401,0,-0.0060187154449522495],"normalized":false,"byteOffset":0,"bufferView":10},{"type":"VEC3","componentType":5126,"count":898,"normalized":false,"byteOffset":0,"bufferView":11},{"type":"SCALAR","componentType":5123,"count":2664,"normalized":false,"byteOffset":74886,"bufferView":3},{"type":"VEC3","componentType":5126,"count":1560,"max":[0.2036103904247284,0,0.015037741512060165],"min":[-0.20486268401145935,0,-0.016855597496032715],"normalized":false,"byteOffset":0,"bufferView":12},{"type":"VEC3","componentType":5126,"count":1560,"normalized":false,"byteOffset":0,"bufferView":13},{"type":"SCALAR","componentType":5123,"count":4602,"normalized":false,"byteOffset":80214,"bufferView":3},{"type":"VEC3","componentType":5126,"count":16517,"max":[-0.678739070892334,-0.6202671527862549,0.010499999858438969],"min":[-0.6792500019073486,-0.9240528345108032,-0.010499999858438969],"normalized":false,"byteOffset":0,"bufferView":14},{"type":"VEC3","componentType":5126,"count":16517,"normalized":false,"byteOffset":0,"bufferView":15},{"type":"SCALAR","componentType":5123,"count":25032,"normalized":false,"byteOffset":89418,"bufferView":3},{"type":"VEC3","componentType":5126,"count":8772,"max":[0.6079999804496765,0.9880993366241455,0.14300000667572021],"min":[-0.6480000019073486,-0.988082766532898,-0.14300000667572021],"normalized":false,"byteOffset":0,"bufferView":16},{"type":"VEC3","componentType":5126,"count":8772,"normalized":false,"byteOffset":0,"bufferView":17},{"type":"VEC2","componentType":5126,"count":8772,"normalized":false,"byteOffset":0,"bufferView":18},{"type":"SCALAR","componentType":5123,"count":49152,"normalized":false,"byteOffset":139482,"bufferView":3},{"type":"VEC3","componentType":5126,"count":8,"max":[0.6079999804496765,0.9879999756813049,0.14300000667572021],"min":[-0.625,-0.9879999756813049,-0.14300000667572021],"normalized":false,"byteOffset":0,"bufferView":19},{"type":"VEC3","componentType":5126,"count":8,"normalized":false,"byteOffset":0,"bufferView":20},{"type":"SCALAR","componentType":5123,"count":12,"normalized":false,"byteOffset":237786,"bufferView":3},{"type":"VEC3","componentType":5126,"count":64,"max":[-0.6596047282218933,-0.5476400256156921,0.10527999699115753],"min":[-0.679099977016449,-0.5496399998664856,-0.10527999699115753],"normalized":false,"byteOffset":0,"bufferView":21},{"type":"VEC3","componentType":5126,"count":64,"normalized":false,"byteOffset":0,"bufferView":22},{"type":"SCALAR","componentType":5123,"count":96,"normalized":false,"byteOffset":237810,"bufferView":3},{"type":"VEC3","componentType":5126,"count":64,"max":[-0.6596047282218933,0.4683600068092346,0.10527999699115753],"min":[-0.679099977016449,0.4663600027561188,-0.10527999699115753],"normalized":false,"byteOffset":0,"bufferView":23},{"type":"VEC3","componentType":5126,"count":64,"normalized":false,"byteOffset":0,"bufferView":24},{"type":"VEC3","componentType":5126,"count":1326,"max":[0.6347570419311523,1.0157629251480103,0.01164552103728056],"min":[-0.6347570419311523,-1.0157629251480103,-0.0092870919033885],"normalized":false,"byteOffset":0,"bufferView":25},{"type":"VEC3","componentType":5126,"count":1326,"normalized":false,"byteOffset":0,"bufferView":26},{"type":"VEC2","componentType":5126,"count":1326,"normalized":false,"byteOffset":0,"bufferView":27},{"type":"SCALAR","componentType":5123,"count":6720,"normalized":false,"byteOffset":238002,"bufferView":3},{"type":"VEC3","componentType":5126,"count":1192,"max":[0.6347570419311523,1.0157629251480103,-0.0045584384351968765],"min":[-0.6347570419311523,-1.0157629251480103,-0.011645521968603134],"normalized":false,"byteOffset":0,"bufferView":28},{"type":"VEC3","componentType":5126,"count":1192,"normalized":false,"byteOffset":0,"bufferView":29},{"type":"VEC2","componentType":5126,"count":1192,"normalized":false,"byteOffset":0,"bufferView":30},{"type":"SCALAR","componentType":5123,"count":5940,"normalized":false,"byteOffset":251442,"bufferView":3},{"type":"VEC3","componentType":5126,"count":4090,"max":[-0.6197500228881836,0.9910420179367065,0.14300000667572021],"min":[-0.6512494683265686,0.9829580187797546,-0.14300000667572021],"normalized":false,"byteOffset":0,"bufferView":31},{"type":"VEC3","componentType":5126,"count":4090,"normalized":false,"byteOffset":0,"bufferView":32},{"type":"SCALAR","componentType":5123,"count":24480,"normalized":false,"byteOffset":263322,"bufferView":3},{"type":"VEC3","componentType":5126,"count":588,"max":[-0.6256154775619507,0.9760000109672546,0.14300000667572021],"min":[-0.6510000228881836,-0.9760000109672546,-0.14300000667572021],"normalized":false,"byteOffset":0,"bufferView":33},{"type":"VEC3","componentType":5126,"count":588,"normalized":false,"byteOffset":0,"bufferView":34},{"type":"SCALAR","componentType":5123,"count":1164,"normalized":false,"byteOffset":312282,"bufferView":3},{"type":"VEC3","componentType":5126,"count":730,"max":[0.02171694114804268,-1.0079991817474365,0.02216394618153572],"min":[-0.02171694114804268,-1.2979999780654907,0.006000000052154064],"normalized":false,"byteOffset":0,"bufferView":35},{"type":"VEC3","componentType":5126,"count":730,"normalized":false,"byteOffset":0,"bufferView":36},{"type":"VEC2","componentType":5126,"count":730,"normalized":false,"byteOffset":0,"bufferView":37},{"type":"SCALAR","componentType":5123,"count":4368,"normalized":false,"byteOffset":314610,"bufferView":3},{"type":"VEC3","componentType":5126,"count":2178,"max":[-0.6270443797111511,1.0160654783248901,0.16449999809265137],"min":[-0.6774996519088745,-1.0160647630691528,-0.16449999809265137],"normalized":false,"byteOffset":0,"bufferView":38},{"type":"VEC3","componentType":5126,"count":2178,"normalized":false,"byteOffset":0,"bufferView":39},{"type":"VEC2","componentType":5126,"count":2178,"normalized":false,"byteOffset":0,"bufferView":40},{"type":"SCALAR","componentType":5123,"count":13056,"normalized":false,"byteOffset":323346,"bufferView":3},{"type":"VEC3","componentType":5126,"count":8089,"max":[-0.6786268353462219,0.8288675546646118,0.013000000268220901],"min":[-0.6792500019073486,0.5935324430465698,-0.013000000268220901],"normalized":false,"byteOffset":0,"bufferView":41},{"type":"VEC3","componentType":5126,"count":8089,"normalized":false,"byteOffset":0,"bufferView":42},{"type":"SCALAR","componentType":5123,"count":12240,"normalized":false,"byteOffset":349458,"bufferView":3},{"type":"VEC3","componentType":5126,"count":15959,"max":[-0.6774042844772339,0.3650129735469818,0.02850000001490116],"min":[-0.6792500019073486,-0.3650129735469818,-0.02850000001490116],"normalized":false,"byteOffset":0,"bufferView":43},{"type":"VEC3","componentType":5126,"count":15959,"normalized":false,"byteOffset":0,"bufferView":44},{"type":"SCALAR","componentType":5123,"count":24156,"normalized":false,"byteOffset":373938,"bufferView":3},{"type":"VEC3","componentType":5126,"count":4090,"max":[-0.6197500228881836,-0.9829580187797546,0.14300000667572021],"min":[-0.6512494683265686,-0.9910420179367065,-0.14300000667572021],"normalized":false,"byteOffset":0,"bufferView":45},{"type":"VEC3","componentType":5126,"count":4090,"normalized":false,"byteOffset":0,"bufferView":46}],"bufferViews":[{"buffer":1,"byteOffset":0,"byteLength":28704,"target":34962,"byteStride":12,"extensions":{"EXT_meshopt_compression":{"buffer":0,"byteOffset":0,"byteLength":17183,"mode":"ATTRIBUTES","byteStride":12,"count":2392}}},{"buffer":1,"byteOffset":28704,"byteLength":28704,"target":34962,"byteStride":12,"extensions":{"EXT_meshopt_compression":{"buffer":0,"byteOffset":17184,"byteLength":21554,"mode":"ATTRIBUTES","byteStride":12,"count":2392}}},{"buffer":1,"byteOffset":57408,"byteLength":19136,"target":34962,"byteStride":8,"extensions":{"EXT_meshopt_compression":{"buffer":0,"byteOffset":38740,"byteLength":13504,"mode":"ATTRIBUTES","byteStride":8,"count":2392}}},{"buffer":1,"byteOffset":76544,"byteLength":422250,"target":34963,"extensions":{"EXT_meshopt_compression":{"buffer":0,"byteOffset":52244,"byteLength":198422,"mode":"TRIANGLES","byteStride":2,"count":211125}}},{"buffer":1,"byteOffset":498796,"byteLength":6168,"target":34962,"byteStride":12,"extensions":{"EXT_meshopt_compression":{"buffer":0,"byteOffset":250668,"byteLength":3261,"mode":"ATTRIBUTES","byteStride":12,"count":514}}},{"buffer":1,"byteOffset":504964,"byteLength":6168,"target":34962,"byteStride":12,"extensions":{"EXT_meshopt_compression":{"buffer":0,"byteOffset":253932,"byteLength":141,"mode":"ATTRIBUTES","byteStride":12,"count":514}}},{"buffer":1,"byteOffset":511132,"byteLength":89268,"target":34962,"byteStride":12,"extensions":{"EXT_meshopt_compression":{"buffer":0,"byteOffset":254076,"byteLength":38760,"mode":"ATTRIBUTES","byteStride":12,"count":7439}}},{"buffer":1,"byteOffset":600400,"byteLength":89268,"target":34962,"byteStride":12,"extensions":{"EXT_meshopt_compression":{"buffer":0,"byteOffset":292836,"byteLength":1437,"mode":"ATTRIBUTES","byteStride":12,"count":7439}}},{"buffer":1,"byteOffset":689668,"byteLength":6192,"target":34962,"byteStride":12,"extensions":{"EXT_meshopt_compression":{"buffer":0,"byteOffset":294276,"byteLength":3316,"mode":"ATTRIBUTES","byteStride":12,"count":516}}},{"buffer":1,"byteOffset":695860,"byteLength":6192,"target":34962,"byteStride":12,"extensions":{"EXT_meshopt_compression":{"buffer":0,"byteOffset":297592,"byteLength":141,"mode":"ATTRIBUTES","byteStride":12,"count":516}}},{"buffer":1,"byteOffset":702052,"byteLength":10776,"target":34962,"byteStride":12,"extensions":{"EXT_meshopt_compression":{"buffer":0,"byteOffset":297736,"byteLength":5661,"mode":"ATTRIBUTES","byteStride":12,"count":898}}},{"buffer":1,"byteOffset":712828,"byteLength":10776,"target":34962,"byteStride":12,"extensions":{"EXT_meshopt_compression":{"buffer":0,"byteOffset":303400,"byteLength":213,"mode":"ATTRIBUTES","byteStride":12,"count":898}}},{"buffer":1,"byteOffset":723604,"byteLength":18720,"target":34962,"byteStride":12,"extensions":{"EXT_meshopt_compression":{"buffer":0,"byteOffset":303616,"byteLength":9222,"mode":"ATTRIBUTES","byteStride":12,"count":1560}}},{"buffer":1,"byteOffset":742324,"byteLength":18720,"target":34962,"byteStride":12,"extensions":{"EXT_meshopt_compression":{"buffer":0,"byteOffset":312840,"byteLength":333,"mode":"ATTRIBUTES","byteStride":12,"count":1560}}},{"buffer":1,"byteOffset":761044,"byteLength":198204,"target":34962,"byteStride":12,"extensions":{"EXT_meshopt_compression":{"buffer":0,"byteOffset":313176,"byteLength":74510,"mode":"ATTRIBUTES","byteStride":12,"count":16517}}},{"buffer":1,"byteOffset":959248,"byteLength":198204,"target":34962,"byteStride":12,"extensions":{"EXT_meshopt_compression":{"buffer":0,"byteOffset":387688,"byteLength":123836,"mode":"ATTRIBUTES","byteStride":12,"count":16517}}},{"buffer":1,"byteOffset":1157452,"byteLength":105264,"target":34962,"byteStride":12,"extensions":{"EXT_meshopt_compression":{"buffer":0,"byteOffset":511524,"byteLength":43522,"mode":"ATTRIBUTES","byteStride":12,"count":8772}}},{"buffer":1,"byteOffset":1262716,"byteLength":105264,"target":34962,"byteStride":12,"extensions":{"EXT_meshopt_compression":{"buffer":0,"byteOffset":555048,"byteLength":14909,"mode":"ATTRIBUTES","byteStride":12,"count":8772}}},{"buffer":1,"byteOffset":1367980,"byteLength":70176,"target":34962,"byteStride":8,"extensions":{"EXT_meshopt_compression":{"buffer":0,"byteOffset":569960,"byteLength":35632,"mode":"ATTRIBUTES","byteStride":8,"count":8772}}},{"buffer":1,"byteOffset":1438156,"byteLength":96,"target":34962,"byteStride":12,"extensions":{"EXT_meshopt_compression":{"buffer":0,"byteOffset":605592,"byteLength":89,"mode":"ATTRIBUTES","byteStride":12,"count":8}}},{"buffer":1,"byteOffset":1438252,"byteLength":96,"target":34962,"byteStride":12,"extensions":{"EXT_meshopt_compression":{"buffer":0,"byteOffset":605684,"byteLength":50,"mode":"ATTRIBUTES","byteStride":12,"count":8}}},{"buffer":1,"byteOffset":1438348,"byteLength":768,"target":34962,"byteStride":12,"extensions":{"EXT_meshopt_compression":{"buffer":0,"byteOffset":605736,"byteLength":324,"mode":"ATTRIBUTES","byteStride":12,"count":64}}},{"buffer":1,"byteOffset":1439116,"byteLength":768,"target":34962,"byteStride":12,"extensions":{"EXT_meshopt_compression":{"buffer":0,"byteOffset":606060,"byteLength":366,"mode":"ATTRIBUTES","byteStride":12,"count":64}}},{"buffer":1,"byteOffset":1439884,"byteLength":768,"target":34962,"byteStride":12,"extensions":{"EXT_meshopt_compression":{"buffer":0,"byteOffset":606428,"byteLength":328,"mode":"ATTRIBUTES","byteStride":12,"count":64}}},{"buffer":1,"byteOffset":1440652,"byteLength":768,"target":34962,"byteStride":12,"extensions":{"EXT_meshopt_compression":{"buffer":0,"byteOffset":606756,"byteLength":366,"mode":"ATTRIBUTES","byteStride":12,"count":64}}},{"buffer":1,"byteOffset":1441420,"byteLength":15912,"target":34962,"byteStride":12,"extensions":{"EXT_meshopt_compression":{"buffer":0,"byteOffset":607124,"byteLength":10230,"mode":"ATTRIBUTES","byteStride":12,"count":1326}}},{"buffer":1,"byteOffset":1457332,"byteLength":15912,"target":34962,"byteStride":12,"extensions":{"EXT_meshopt_compression":{"buffer":0,"byteOffset":617356,"byteLength":12182,"mode":"ATTRIBUTES","byteStride":12,"count":1326}}},{"buffer":1,"byteOffset":1473244,"byteLength":10608,"target":34962,"byteStride":8,"extensions":{"EXT_meshopt_compression":{"buffer":0,"byteOffset":629540,"byteLength":7062,"mode":"ATTRIBUTES","byteStride":8,"count":1326}}},{"buffer":1,"byteOffset":1483852,"byteLength":14304,"target":34962,"byteStride":12,"extensions":{"EXT_meshopt_compression":{"buffer":0,"byteOffset":636604,"byteLength":8754,"mode":"ATTRIBUTES","byteStride":12,"count":1192}}},{"buffer":1,"byteOffset":1498156,"byteLength":14304,"target":34962,"byteStride":12,"extensions":{"EXT_meshopt_compression":{"buffer":0,"byteOffset":645360,"byteLength":10465,"mode":"ATTRIBUTES","byteStride":12,"count":1192}}},{"buffer":1,"byteOffset":1512460,"byteLength":9536,"target":34962,"byteStride":8,"extensions":{"EXT_meshopt_compression":{"buffer":0,"byteOffset":655828,"byteLength":6810,"mode":"ATTRIBUTES","byteStride":8,"count":1192}}},{"buffer":1,"byteOffset":1521996,"byteLength":49080,"target":34962,"byteStride":12,"extensions":{"EXT_meshopt_compression":{"buffer":0,"byteOffset":662640,"byteLength":23387,"mode":"ATTRIBUTES","byteStride":12,"count":4090}}},{"buffer":1,"byteOffset":1571076,"byteLength":49080,"target":34962,"byteStride":12,"extensions":{"EXT_meshopt_compression":{"buffer":0,"byteOffset":686028,"byteLength":43905,"mode":"ATTRIBUTES","byteStride":12,"count":4090}}},{"buffer":1,"byteOffset":1620156,"byteLength":7056,"target":34962,"byteStride":12,"extensions":{"EXT_meshopt_compression":{"buffer":0,"byteOffset":729936,"byteLength":1861,"mode":"ATTRIBUTES","byteStride":12,"count":588}}},{"buffer":1,"byteOffset":1627212,"byteLength":7056,"target":34962,"byteStride":12,"extensions":{"EXT_meshopt_compression":{"buffer":0,"byteOffset":731800,"byteLength":5819,"mode":"ATTRIBUTES","byteStride":12,"count":588}}},{"buffer":1,"byteOffset":1634268,"byteLength":8760,"target":34962,"byteStride":12,"extensions":{"EXT_meshopt_compression":{"buffer":0,"byteOffset":737620,"byteLength":4464,"mode":"ATTRIBUTES","byteStride":12,"count":730}}},{"buffer":1,"byteOffset":1643028,"byteLength":8760,"target":34962,"byteStride":12,"extensions":{"EXT_meshopt_compression":{"buffer":0,"byteOffset":742084,"byteLength":6185,"mode":"ATTRIBUTES","byteStride":12,"count":730}}},{"buffer":1,"byteOffset":1651788,"byteLength":5840,"target":34962,"byteStride":8,"extensions":{"EXT_meshopt_compression":{"buffer":0,"byteOffset":748272,"byteLength":2354,"mode":"ATTRIBUTES","byteStride":8,"count":730}}},{"buffer":1,"byteOffset":1657628,"byteLength":26136,"target":34962,"byteStride":12,"extensions":{"EXT_meshopt_compression":{"buffer":0,"byteOffset":750628,"byteLength":15214,"mode":"ATTRIBUTES","byteStride":12,"count":2178}}},{"buffer":1,"byteOffset":1683764,"byteLength":26136,"target":34962,"byteStride":12,"extensions":{"EXT_meshopt_compression":{"buffer":0,"byteOffset":765844,"byteLength":21415,"mode":"ATTRIBUTES","byteStride":12,"count":2178}}},{"buffer":1,"byteOffset":1709900,"byteLength":17424,"target":34962,"byteStride":8,"extensions":{"EXT_meshopt_compression":{"buffer":0,"byteOffset":787260,"byteLength":6378,"mode":"ATTRIBUTES","byteStride":8,"count":2178}}},{"buffer":1,"byteOffset":1727324,"byteLength":97068,"target":34962,"byteStride":12,"extensions":{"EXT_meshopt_compression":{"buffer":0,"byteOffset":793640,"byteLength":36548,"mode":"ATTRIBUTES","byteStride":12,"count":8089}}},{"buffer":1,"byteOffset":1824392,"byteLength":97068,"target":34962,"byteStride":12,"extensions":{"EXT_meshopt_compression":{"buffer":0,"byteOffset":830188,"byteLength":60460,"mode":"ATTRIBUTES","byteStride":12,"count":8089}}},{"buffer":1,"byteOffset":1921460,"byteLength":191508,"target":34962,"byteStride":12,"extensions":{"EXT_meshopt_compression":{"buffer":0,"byteOffset":890648,"byteLength":77703,"mode":"ATTRIBUTES","byteStride":12,"count":15959}}},{"buffer":1,"byteOffset":2112968,"byteLength":191508,"target":34962,"byteStride":12,"extensions":{"EXT_meshopt_compression":{"buffer":0,"byteOffset":968352,"byteLength":125743,"mode":"ATTRIBUTES","byteStride":12,"count":15959}}},{"buffer":1,"byteOffset":2304476,"byteLength":49080,"target":34962,"byteStride":12,"extensions":{"EXT_meshopt_compression":{"buffer":0,"byteOffset":1094096,"byteLength":23387,"mode":"ATTRIBUTES","byteStride":12,"count":4090}}},{"buffer":1,"byteOffset":2353556,"byteLength":49080,"target":34962,"byteStride":12,"extensions":{"EXT_meshopt_compression":{"buffer":0,"byteOffset":1117484,"byteLength":43905,"mode":"ATTRIBUTES","byteStride":12,"count":4090}}}],"samplers":[{"magFilter":9729,"minFilter":9987,"wrapS":10497,"wrapT":10497},{"magFilter":9729,"minFilter":9987,"wrapS":33071,"wrapT":33071}],"textures":[{"sampler":0,"extensions":{"EXT_texture_webp":{"source":0}}},{"sampler":0,"extensions":{"EXT_texture_webp":{"source":1}}},{"sampler":0,"extensions":{"EXT_texture_webp":{"source":3}}},{"sampler":0,"extensions":{"EXT_texture_webp":{"source":2}}},{"sampler":1,"extensions":{"EXT_texture_webp":{"source":6}}},{"sampler":0,"extensions":{"EXT_texture_webp":{"source":5}}},{"sampler":0,"extensions":{"EXT_texture_webp":{"source":4}}}],"images":[{"name":"book_pattern_nor_gl_2k","mimeType":"image/webp","uri":"shared/8de172b46ec41fd3863b660a.webp"},{"name":"book_pattern_rough_2k","mimeType":"image/webp","uri":"shared/a04d51bd9431742f3e8e78f4.webp"},{"name":"compressed-paper-normal","mimeType":"image/webp","uri":"shared/339c1ac519928878fbaa1237.webp"},{"name":"compressed-paper-color","mimeType":"image/webp","uri":"shared/7701c62282fa7f26c46af450.webp"},{"name":"wealth-of-nations_print_orm","mimeType":"image/webp","uri":"shared/e1a9f65f5babadac56a06246.webp"},{"name":"wealth-of-nations_print_normal","mimeType":"image/webp","uri":"shared/e801ea98a8cd52f826414e4e.webp"},{"name":"edition-wealth-of-nations","mimeType":"image/webp","uri":"shared/b0ebbef7d2c4e354d77e9778.webp"}],"buffers":[{"uri":"shared/be7f6540a5c6989bc701d1b4.bin","byteLength":1161392},{"byteLength":2402636,"extensions":{"EXT_meshopt_compression":{"fallback":true}}}],"materials":[{"name":"wealth-of-nations case material.002","doubleSided":true,"pbrMetallicRoughness":{"baseColorFactor":[0.8468732237815857,0.8148465752601624,0.6938717365264893,1],"metallicFactor":0,"metallicRoughnessTexture":{"index":1}},"normalTexture":{"index":0,"scale":0.05999999865889549}},{"name":"MAT_wealth-of-nations_BackInk","doubleSided":true,"pbrMetallicRoughness":{"baseColorFactor":[0.02500000037252903,0.03200000151991844,0.027000000700354576,1],"roughnessFactor":0.7200000286102295,"metallicFactor":0}},{"name":"MAT_wealth-of-nations_Stamped_Ink.002","doubleSided":true,"pbrMetallicRoughness":{"baseColorFactor":[0.02500000037252903,0.03200000151991844,0.027000000700354576,1],"roughnessFactor":0.3400000035762787,"metallicFactor":0},"extensions":{"KHR_materials_clearcoat":{"clearcoatFactor":0.44999998807907104,"clearcoatRoughnessFactor":0.20000000298023224}}},{"name":"MAT_wealth-of-nations_Stamped_Ink.003","doubleSided":true,"pbrMetallicRoughness":{"baseColorFactor":[0.009134058840572834,0.04666508734226227,0.02955683507025242,1],"roughnessFactor":0.3400000035762787,"metallicFactor":0},"extensions":{"KHR_materials_clearcoat":{"clearcoatFactor":0.44999998807907104,"clearcoatRoughnessFactor":0.20000000298023224}}},{"name":"Compressed paper cut surface","doubleSided":true,"pbrMetallicRoughness":{"roughnessFactor":0.8999999761581421,"metallicFactor":0,"baseColorTexture":{"index":2}},"normalTexture":{"index":3}},{"name":"Compressed ivory stock 2","doubleSided":true,"pbrMetallicRoughness":{"baseColorFactor":[0.7279999852180481,0.7129999995231628,0.656000018119812,1],"roughnessFactor":0.8600000143051147,"metallicFactor":0}},{"name":"MAT_wealth-of-nations_Registered_Print.001","extras":{"surface_finish":"Registered print, selective varnish"},"doubleSided":true,"pbrMetallicRoughness":{"baseColorTexture":{"index":4},"metallicRoughnessTexture":{"index":6}},"normalTexture":{"index":5},"extensions":{"KHR_materials_clearcoat":{"clearcoatFactor":1,"clearcoatRoughnessFactor":0.23999999463558197,"clearcoatTexture":{"index":6}}}},{"name":"Endband cotton ecru","doubleSided":true,"pbrMetallicRoughness":{"baseColorFactor":[0.5,0.46000000834465027,0.3499999940395355,1],"roughnessFactor":0.8799999952316284,"metallicFactor":0}},{"name":"Binding linen warm ecru","doubleSided":true,"pbrMetallicRoughness":{"baseColorFactor":[0.3799999952316284,0.3400000035762787,0.25999999046325684,1],"roughnessFactor":0.9300000071525574,"metallicFactor":0}},{"name":"wealth-of-nations woven ribbon.002","doubleSided":true,"pbrMetallicRoughness":{"baseColorFactor":[0.009134058840572834,0.04666508734226227,0.02955683507025242,1],"metallicFactor":0,"metallicRoughnessTexture":{"index":1}},"normalTexture":{"index":0,"scale":1.149999976158142},"extensions":{"KHR_materials_sheen":{"sheenColorFactor":[1,1,1],"sheenRoughnessFactor":0.5}}}],"meshes":[{"name":"Pressed case joint Back board.024","primitives":[{"attributes":{"POSITION":0,"NORMAL":1,"TEXCOORD_0":2},"mode":4,"material":0,"indices":3}]},{"name":"Back collection","primitives":[{"attributes":{"POSITION":4,"NORMAL":5},"mode":4,"material":1,"indices":6}]},{"name":"Back description","primitives":[{"attributes":{"POSITION":7,"NORMAL":8},"mode":4,"material":1,"indices":9}]},{"name":"Back edition","primitives":[{"attributes":{"POSITION":10,"NORMAL":11},"mode":4,"material":2,"indices":12}]},{"name":"Back ISBN","primitives":[{"attributes":{"POSITION":13,"NORMAL":14},"mode":4,"material":1,"indices":15}]},{"name":"Back title","primitives":[{"attributes":{"POSITION":16,"NORMAL":17},"mode":4,"material":2,"indices":18}]},{"name":"Collection mark.016","primitives":[{"attributes":{"POSITION":19,"NORMAL":20},"mode":4,"material":3,"indices":21}]},{"name":"Continuous compressed cut wealth-of-nations.003","primitives":[{"attributes":{"POSITION":22,"NORMAL":23,"TEXCOORD_0":24},"mode":4,"material":4,"indices":25},{"attributes":{"POSITION":26,"NORMAL":27},"mode":4,"material":5,"indices":28}]},{"name":"Curved foil rule.032","primitives":[{"attributes":{"POSITION":29,"NORMAL":30},"mode":4,"material":3,"indices":31}]},{"name":"Curved foil rule.033","primitives":[{"attributes":{"POSITION":32,"NORMAL":33},"mode":4,"material":3,"indices":31}]},{"name":"Pressed case joint Wrapped printed cover","primitives":[{"attributes":{"POSITION":34,"NORMAL":35,"TEXCOORD_0":36},"mode":4,"material":6,"indices":37},{"attributes":{"POSITION":38,"NORMAL":39,"TEXCOORD_0":40},"mode":4,"material":0,"indices":41}]},{"name":"Head textile endband wealth-of-nations.004","primitives":[{"attributes":{"POSITION":42,"NORMAL":43},"mode":4,"material":7,"indices":44}]},{"name":"Linen spine lining wealth-of-nations.004","primitives":[{"attributes":{"POSITION":45,"NORMAL":46},"mode":4,"material":8,"indices":47}]},{"name":"Ribbon flexible satin wealth-of-nations.004","primitives":[{"attributes":{"POSITION":48,"NORMAL":49,"TEXCOORD_0":50},"mode":4,"material":9,"indices":51}]},{"name":"Rounded cloth spine.024","primitives":[{"attributes":{"POSITION":52,"NORMAL":53,"TEXCOORD_0":54},"mode":4,"material":0,"indices":55}]},{"name":"Spine author.016","primitives":[{"attributes":{"POSITION":56,"NORMAL":57},"mode":4,"material":3,"indices":58}]},{"name":"Spine title.024","primitives":[{"attributes":{"POSITION":59,"NORMAL":60},"mode":4,"material":3,"indices":61}]},{"name":"Tail textile endband wealth-of-nations.004","primitives":[{"attributes":{"POSITION":62,"NORMAL":63},"mode":4,"material":7,"indices":44}]}],"nodes":[{"name":"Back board.024","extras":{"edge_refined":true,"unpressed_mesh":"Back board.032","pressed_joint_revision":1,"joint_depth_mm":1.0371338719972867,"joint_center_mm":6.4},"translation":[0,0,-0.16450001299381256],"mesh":0},{"name":"Back collection","translation":[0,-0.48767992854118347,-0.17650000751018524],"rotation":[0,-0.7071068286895752,0.7071068286895752,3.090862321641907e-8],"mesh":1},{"name":"Back description","translation":[0,0.05079999566078186,-0.17650000751018524],"rotation":[0,-0.7071068286895752,0.7071068286895752,3.090862321641907e-8],"mesh":2},{"name":"Back edition","translation":[0,-0.6908799409866333,-0.17650000751018524],"rotation":[0,-0.7071068286895752,0.7071068286895752,3.090862321641907e-8],"mesh":3},{"name":"Back ISBN","translation":[0,-0.792479932308197,-0.17650000751018524],"rotation":[0,-0.7071068286895752,0.7071068286895752,3.090862321641907e-8],"mesh":4},{"name":"Back title","translation":[0,0.5892799496650696,-0.17650000751018524],"rotation":[0,-0.7071068286895752,0.7071068286895752,3.090862321641907e-8],"mesh":5},{"name":"Collection mark.016","mesh":6},{"name":"Compressed paper signatures wealth-of-nations.003","extras":{"paper_surface_revision":1,"leaf_count":312,"paper_caliper_mm":0.09166666666666666,"binding_structure":"Rounded and backed signatures"},"mesh":7},{"name":"Curved foil rule.032","mesh":8},{"name":"Curved foil rule.033","mesh":9},{"name":"Wrapped printed cover","extras":{"edge_refined":true,"unpressed_mesh":"Front board.032","pressed_joint_revision":1,"joint_depth_mm":1.1151178013297014,"joint_center_mm":6.4},"translation":[0.6349999904632568,0,0],"mesh":10},{"name":"FrontHinge.024","translation":[-0.6349999904632568,0,0.16450001299381256],"children":[10]},{"name":"Head textile endband wealth-of-nations.004","extras":{"binding_revision":2},"mesh":11},{"name":"Linen spine lining wealth-of-nations.004","extras":{"binding_revision":2},"mesh":12},{"name":"Ribbon flexible satin wealth-of-nations.004","extras":{"binding_revision":2,"ribbon_width_dm":0.043,"ribbon_length_dm":0.29,"ribbon_anchor_dm":[0,-1.008,0.006]},"mesh":13},{"name":"Rounded cloth spine.024","mesh":14},{"name":"Spine author.016","mesh":15},{"name":"Spine title.024","mesh":16},{"name":"Tail textile endband wealth-of-nations.004","extras":{"binding_revision":2},"mesh":17},{"name":"Publisher_wealth-of-nations.001","extras":{"slug":"wealth-of-nations","dimensions_mm":[127,203.2,35],"model_design":"Publisher front artwork on a showcase binding; spine and interior are custom reconstructions"},"scale":[0.09676193445920944,0.09999359399080276,0.09974487125873566],"children":[0,1,2,3,4,5,6,7,8,9,11,12,13,14,15,16,17,18]}],"scenes":[{"name":"Library Publisher Editions.001","nodes":[19]}],"scene":0,"extensionsUsed":["EXT_meshopt_compression","EXT_texture_webp","KHR_materials_clearcoat","KHR_materials_sheen"],"extensionsRequired":["EXT_meshopt_compression","EXT_texture_webp"]}