{"asset":{"generator":"glTF-Transform v4.5.0","version":"2.0"},"accessors":[{"type":"VEC3","componentType":5126,"count":2392,"max":[0.6347571015357971,1.015763759613037,0.01083111111074686],"min":[-0.6347571015357971,-1.015763759613037,-0.01083111111074686],"normalized":false,"byteOffset":0,"bufferView":0},{"type":"VEC3","componentType":5126,"count":2392,"normalized":false,"byteOffset":0,"bufferView":1},{"type":"VEC2","componentType":5126,"count":2392,"normalized":false,"byteOffset":0,"bufferView":2},{"type":"SCALAR","componentType":5123,"count":12588,"normalized":false,"byteOffset":0,"bufferView":3},{"type":"VEC3","componentType":5126,"count":514,"max":[0.1009504571557045,0,0.0053944955579936504],"min":[-0.09995229542255402,0,-0.005732110235840082],"normalized":false,"byteOffset":0,"bufferView":4},{"type":"VEC3","componentType":5126,"count":514,"normalized":false,"byteOffset":0,"bufferView":5},{"type":"VEC2","componentType":5126,"count":514,"normalized":false,"byteOffset":0,"bufferView":6},{"type":"SCALAR","componentType":5123,"count":1482,"normalized":false,"byteOffset":25176,"bufferView":3},{"type":"VEC3","componentType":5126,"count":7439,"max":[0.1597260683774948,0,0.07085000723600388],"min":[-0.159726083278656,0,-0.07163350284099579],"normalized":false,"byteOffset":0,"bufferView":7},{"type":"VEC3","componentType":5126,"count":7439,"normalized":false,"byteOffset":0,"bufferView":8},{"type":"VEC2","componentType":5126,"count":7439,"normalized":false,"byteOffset":0,"bufferView":9},{"type":"SCALAR","componentType":5123,"count":21885,"normalized":false,"byteOffset":28140,"bufferView":3},{"type":"VEC3","componentType":5126,"count":516,"max":[0.0995934009552002,0,0.00647339504212141],"min":[-0.0983075276017189,0,-0.006878532003611326],"normalized":false,"byteOffset":0,"bufferView":10},{"type":"VEC3","componentType":5126,"count":516,"normalized":false,"byteOffset":0,"bufferView":11},{"type":"VEC2","componentType":5126,"count":516,"normalized":false,"byteOffset":0,"bufferView":12},{"type":"SCALAR","componentType":5123,"count":1488,"normalized":false,"byteOffset":71910,"bufferView":3},{"type":"VEC3","componentType":5126,"count":898,"max":[0.07696018368005753,0,0.005664220545440912],"min":[-0.0783858671784401,0,-0.0060187154449522495],"normalized":false,"byteOffset":0,"bufferView":13},{"type":"VEC3","componentType":5126,"count":898,"normalized":false,"byteOffset":0,"bufferView":14},{"type":"VEC2","componentType":5126,"count":898,"normalized":false,"byteOffset":0,"bufferView":15},{"type":"SCALAR","componentType":5123,"count":2664,"normalized":false,"byteOffset":74886,"bufferView":3},{"type":"VEC3","componentType":5126,"count":155,"max":[0.6000000238418579,0.9835000038146973,0.0010000000474974513],"min":[-0.6000000238418579,-0.9835000038146973,-0.0010000000474974513],"normalized":false,"byteOffset":0,"bufferView":16},{"type":"VEC3","componentType":5126,"count":155,"normalized":false,"byteOffset":0,"bufferView":17},{"type":"VEC2","componentType":5126,"count":155,"normalized":false,"byteOffset":0,"bufferView":18},{"type":"VEC2","componentType":5126,"count":155,"normalized":false,"byteOffset":0,"bufferView":19},{"type":"SCALAR","componentType":5123,"count":564,"normalized":false,"byteOffset":80214,"bufferView":3},{"type":"VEC3","componentType":5126,"count":1560,"max":[0.2036103904247284,0,0.015037741512060165],"min":[-0.20486268401145935,0,-0.016855597496032715],"normalized":false,"byteOffset":0,"bufferView":20},{"type":"VEC3","componentType":5126,"count":1560,"normalized":false,"byteOffset":0,"bufferView":21},{"type":"VEC2","componentType":5126,"count":1560,"normalized":false,"byteOffset":0,"bufferView":22},{"type":"SCALAR","componentType":5123,"count":4602,"normalized":false,"byteOffset":81342,"bufferView":3},{"type":"VEC3","componentType":5126,"count":16517,"max":[-0.678739070892334,-0.6202671527862549,0.010499999858438969],"min":[-0.6792500019073486,-0.9240528345108032,-0.010499999858438969],"normalized":false,"byteOffset":0,"bufferView":23},{"type":"VEC3","componentType":5126,"count":16517,"normalized":false,"byteOffset":0,"bufferView":24},{"type":"VEC2","componentType":5126,"count":16517,"normalized":false,"byteOffset":0,"bufferView":25},{"type":"SCALAR","componentType":5123,"count":25032,"normalized":false,"byteOffset":90546,"bufferView":3},{"type":"VEC3","componentType":5126,"count":8772,"max":[0.6079999804496765,0.9880993366241455,0.14300000667572021],"min":[-0.6480000019073486,-0.988082766532898,-0.14300000667572021],"normalized":false,"byteOffset":0,"bufferView":26},{"type":"VEC3","componentType":5126,"count":8772,"normalized":false,"byteOffset":0,"bufferView":27},{"type":"VEC2","componentType":5126,"count":8772,"normalized":false,"byteOffset":0,"bufferView":28},{"type":"SCALAR","componentType":5123,"count":49152,"normalized":false,"byteOffset":140610,"bufferView":3},{"type":"VEC3","componentType":5126,"count":8,"max":[0.6079999804496765,0.9879999756813049,0.14300000667572021],"min":[-0.625,-0.9879999756813049,-0.14300000667572021],"normalized":false,"byteOffset":0,"bufferView":29},{"type":"VEC3","componentType":5126,"count":8,"normalized":false,"byteOffset":0,"bufferView":30},{"type":"VEC2","componentType":5126,"count":8,"normalized":false,"byteOffset":0,"bufferView":31},{"type":"SCALAR","componentType":5123,"count":12,"normalized":false,"byteOffset":238914,"bufferView":3},{"type":"VEC3","componentType":5126,"count":64,"max":[-0.6596047282218933,-0.5476400256156921,0.10527999699115753],"min":[-0.679099977016449,-0.5496399998664856,-0.10527999699115753],"normalized":false,"byteOffset":0,"bufferView":32},{"type":"VEC3","componentType":5126,"count":64,"normalized":false,"byteOffset":0,"bufferView":33},{"type":"VEC2","componentType":5126,"count":64,"normalized":false,"byteOffset":0,"bufferView":34},{"type":"SCALAR","componentType":5123,"count":96,"normalized":false,"byteOffset":238938,"bufferView":3},{"type":"VEC3","componentType":5126,"count":64,"max":[-0.6596047282218933,0.4683600068092346,0.10527999699115753],"min":[-0.679099977016449,0.4663600027561188,-0.10527999699115753],"normalized":false,"byteOffset":0,"bufferView":35},{"type":"VEC3","componentType":5126,"count":64,"normalized":false,"byteOffset":0,"bufferView":36},{"type":"VEC2","componentType":5126,"count":64,"normalized":false,"byteOffset":0,"bufferView":37},{"type":"VEC3","componentType":5126,"count":155,"max":[0.6000000238418579,0.9835000038146973,0.0010000000474974513],"min":[-0.6000000238418579,-0.9835000038146973,-0.0010000000474974513],"normalized":false,"byteOffset":0,"bufferView":38},{"type":"VEC3","componentType":5126,"count":155,"normalized":false,"byteOffset":0,"bufferView":39},{"type":"VEC2","componentType":5126,"count":155,"normalized":false,"byteOffset":0,"bufferView":40},{"type":"VEC2","componentType":5126,"count":155,"normalized":false,"byteOffset":0,"bufferView":41},{"type":"VEC3","componentType":5126,"count":1326,"max":[0.6347570419311523,1.0157629251480103,0.01164552103728056],"min":[-0.6347570419311523,-1.0157629251480103,-0.0092870919033885],"normalized":false,"byteOffset":0,"bufferView":42},{"type":"VEC3","componentType":5126,"count":1326,"normalized":false,"byteOffset":0,"bufferView":43},{"type":"VEC2","componentType":5126,"count":1326,"normalized":false,"byteOffset":0,"bufferView":44},{"type":"VEC2","componentType":5126,"count":1326,"normalized":false,"byteOffset":0,"bufferView":45},{"type":"VEC2","componentType":5126,"count":1326,"normalized":false,"byteOffset":0,"bufferView":46},{"type":"VEC2","componentType":5126,"count":1326,"normalized":false,"byteOffset":0,"bufferView":47},{"type":"SCALAR","componentType":5123,"count":6720,"normalized":false,"byteOffset":239130,"bufferView":3},{"type":"VEC3","componentType":5126,"count":1192,"max":[0.6347570419311523,1.0157629251480103,-0.0045584384351968765],"min":[-0.6347570419311523,-1.0157629251480103,-0.011645521968603134],"normalized":false,"byteOffset":0,"bufferView":48},{"type":"VEC3","componentType":5126,"count":1192,"normalized":false,"byteOffset":0,"bufferView":49},{"type":"VEC2","componentType":5126,"count":1192,"normalized":false,"byteOffset":0,"bufferView":50},{"type":"VEC2","componentType":5126,"count":1192,"normalized":false,"byteOffset":0,"bufferView":51},{"type":"VEC2","componentType":5126,"count":1192,"normalized":false,"byteOffset":0,"bufferView":52},{"type":"VEC2","componentType":5126,"count":1192,"normalized":false,"byteOffset":0,"bufferView":53},{"type":"SCALAR","componentType":5123,"count":5940,"normalized":false,"byteOffset":252570,"bufferView":3},{"type":"VEC3","componentType":5126,"count":4090,"max":[-0.6197500228881836,0.9910420179367065,0.14300000667572021],"min":[-0.6512494683265686,0.9829580187797546,-0.14300000667572021],"normalized":false,"byteOffset":0,"bufferView":54},{"type":"VEC3","componentType":5126,"count":4090,"normalized":false,"byteOffset":0,"bufferView":55},{"type":"SCALAR","componentType":5123,"count":24480,"normalized":false,"byteOffset":264450,"bufferView":3},{"type":"VEC3","componentType":5126,"count":588,"max":[-0.6256154775619507,0.9760000109672546,0.14300000667572021],"min":[-0.6510000228881836,-0.9760000109672546,-0.14300000667572021],"normalized":false,"byteOffset":0,"bufferView":56},{"type":"VEC3","componentType":5126,"count":588,"normalized":false,"byteOffset":0,"bufferView":57},{"type":"SCALAR","componentType":5123,"count":1164,"normalized":false,"byteOffset":313410,"bufferView":3},{"type":"VEC3","componentType":5126,"count":730,"max":[0.02171694114804268,-1.0079991817474365,0.02216394618153572],"min":[-0.02171694114804268,-1.2979999780654907,0.006000000052154064],"normalized":false,"byteOffset":0,"bufferView":58},{"type":"VEC3","componentType":5126,"count":730,"normalized":false,"byteOffset":0,"bufferView":59},{"type":"VEC2","componentType":5126,"count":730,"normalized":false,"byteOffset":0,"bufferView":60},{"type":"SCALAR","componentType":5123,"count":4368,"normalized":false,"byteOffset":315738,"bufferView":3},{"type":"VEC3","componentType":5126,"count":2178,"max":[-0.6270443797111511,1.0160654783248901,0.16449999809265137],"min":[-0.6774996519088745,-1.0160647630691528,-0.16449999809265137],"normalized":false,"byteOffset":0,"bufferView":61},{"type":"VEC3","componentType":5126,"count":2178,"normalized":false,"byteOffset":0,"bufferView":62},{"type":"VEC2","componentType":5126,"count":2178,"normalized":false,"byteOffset":0,"bufferView":63},{"type":"SCALAR","componentType":5123,"count":13056,"normalized":false,"byteOffset":324474,"bufferView":3},{"type":"VEC3","componentType":5126,"count":8089,"max":[-0.6786268353462219,0.8288675546646118,0.013000000268220901],"min":[-0.6792500019073486,0.5935324430465698,-0.013000000268220901],"normalized":false,"byteOffset":0,"bufferView":64},{"type":"VEC3","componentType":5126,"count":8089,"normalized":false,"byteOffset":0,"bufferView":65},{"type":"VEC2","componentType":5126,"count":8089,"normalized":false,"byteOffset":0,"bufferView":66},{"type":"SCALAR","componentType":5123,"count":12240,"normalized":false,"byteOffset":350586,"bufferView":3},{"type":"VEC3","componentType":5126,"count":15959,"max":[-0.6774042844772339,0.3650129735469818,0.02850000001490116],"min":[-0.6792500019073486,-0.3650129735469818,-0.02850000001490116],"normalized":false,"byteOffset":0,"bufferView":67},{"type":"VEC3","componentType":5126,"count":15959,"normalized":false,"byteOffset":0,"bufferView":68},{"type":"VEC2","componentType":5126,"count":15959,"normalized":false,"byteOffset":0,"bufferView":69},{"type":"SCALAR","componentType":5123,"count":24156,"normalized":false,"byteOffset":375066,"bufferView":3},{"type":"VEC3","componentType":5126,"count":4090,"max":[-0.6197500228881836,-0.9829580187797546,0.14300000667572021],"min":[-0.6512494683265686,-0.9910420179367065,-0.14300000667572021],"normalized":false,"byteOffset":0,"bufferView":70},{"type":"VEC3","componentType":5126,"count":4090,"normalized":false,"byteOffset":0,"bufferView":71},{"type":"VEC3","componentType":5126,"count":1066,"max":[1.1950000524520874,0.984000027179718,0.0034895678982138634],"min":[-0.000021593450583168305,-0.984000027179718,0],"normalized":false,"byteOffset":0,"bufferView":72},{"type":"VEC3","componentType":5126,"count":1066,"normalized":false,"byteOffset":0,"bufferView":73},{"type":"VEC2","componentType":5126,"count":1066,"normalized":false,"byteOffset":0,"bufferView":74},{"type":"SCALAR","componentType":5123,"count":6384,"normalized":false,"byteOffset":423378,"bufferView":3},{"type":"VEC3","componentType":5126,"count":5398,"max":[0.6935694217681885,-0.08830888569355011,0.003987231757491827],"min":[0.5129953622817993,-0.11345594376325607,0.003975165542215109],"normalized":false,"byteOffset":0,"bufferView":75},{"type":"VEC3","componentType":5126,"count":5398,"normalized":false,"byteOffset":0,"bufferView":76},{"type":"VEC2","componentType":5126,"count":5398,"normalized":false,"byteOffset":0,"bufferView":77},{"type":"SCALAR","componentType":5123,"count":15936,"normalized":false,"byteOffset":436146,"bufferView":3},{"type":"VEC3","componentType":5126,"count":9470,"max":[0.7342783212661743,-0.7244542241096497,0.003988020587712526],"min":[0.47370249032974243,-0.7386813759803772,0.003968191333115101],"normalized":false,"byteOffset":0,"bufferView":78},{"type":"VEC3","componentType":5126,"count":9470,"normalized":false,"byteOffset":0,"bufferView":79},{"type":"VEC2","componentType":5126,"count":9470,"normalized":false,"byteOffset":0,"bufferView":80},{"type":"SCALAR","componentType":5123,"count":27840,"normalized":false,"byteOffset":468018,"bufferView":3},{"type":"VEC3","componentType":5126,"count":8236,"max":[0.7965495586395264,0.46959254145622253,0.003988747019320726],"min":[0.4101853370666504,0.3058788776397705,0.00394910154864192],"normalized":false,"byteOffset":0,"bufferView":81},{"type":"VEC3","componentType":5126,"count":8236,"normalized":false,"byteOffset":0,"bufferView":82},{"type":"VEC2","componentType":5126,"count":8236,"normalized":false,"byteOffset":0,"bufferView":83},{"type":"SCALAR","componentType":5123,"count":24156,"normalized":false,"byteOffset":523698,"bufferView":3}],"bufferViews":[{"buffer":1,"byteOffset":0,"byteLength":28704,"target":34962,"byteStride":12,"extensions":{"EXT_meshopt_compression":{"buffer":0,"byteOffset":0,"byteLength":17183,"mode":"ATTRIBUTES","byteStride":12,"count":2392}}},{"buffer":1,"byteOffset":28704,"byteLength":28704,"target":34962,"byteStride":12,"extensions":{"EXT_meshopt_compression":{"buffer":0,"byteOffset":17184,"byteLength":21554,"mode":"ATTRIBUTES","byteStride":12,"count":2392}}},{"buffer":1,"byteOffset":57408,"byteLength":19136,"target":34962,"byteStride":8,"extensions":{"EXT_meshopt_compression":{"buffer":0,"byteOffset":38740,"byteLength":13504,"mode":"ATTRIBUTES","byteStride":8,"count":2392}}},{"buffer":1,"byteOffset":76544,"byteLength":572010,"target":34963,"extensions":{"EXT_meshopt_compression":{"buffer":0,"byteOffset":52244,"byteLength":266518,"mode":"TRIANGLES","byteStride":2,"count":286005}}},{"buffer":1,"byteOffset":648556,"byteLength":6168,"target":34962,"byteStride":12,"extensions":{"EXT_meshopt_compression":{"buffer":0,"byteOffset":318764,"byteLength":3261,"mode":"ATTRIBUTES","byteStride":12,"count":514}}},{"buffer":1,"byteOffset":654724,"byteLength":6168,"target":34962,"byteStride":12,"extensions":{"EXT_meshopt_compression":{"buffer":0,"byteOffset":322028,"byteLength":141,"mode":"ATTRIBUTES","byteStride":12,"count":514}}},{"buffer":1,"byteOffset":660892,"byteLength":4112,"target":34962,"byteStride":8,"extensions":{"EXT_meshopt_compression":{"buffer":0,"byteOffset":322172,"byteLength":1619,"mode":"ATTRIBUTES","byteStride":8,"count":514}}},{"buffer":1,"byteOffset":665004,"byteLength":89268,"target":34962,"byteStride":12,"extensions":{"EXT_meshopt_compression":{"buffer":0,"byteOffset":323792,"byteLength":38760,"mode":"ATTRIBUTES","byteStride":12,"count":7439}}},{"buffer":1,"byteOffset":754272,"byteLength":89268,"target":34962,"byteStride":12,"extensions":{"EXT_meshopt_compression":{"buffer":0,"byteOffset":362552,"byteLength":1437,"mode":"ATTRIBUTES","byteStride":12,"count":7439}}},{"buffer":1,"byteOffset":843540,"byteLength":59512,"target":34962,"byteStride":8,"extensions":{"EXT_meshopt_compression":{"buffer":0,"byteOffset":363992,"byteLength":21985,"mode":"ATTRIBUTES","byteStride":8,"count":7439}}},{"buffer":1,"byteOffset":903052,"byteLength":6192,"target":34962,"byteStride":12,"extensions":{"EXT_meshopt_compression":{"buffer":0,"byteOffset":385980,"byteLength":3316,"mode":"ATTRIBUTES","byteStride":12,"count":516}}},{"buffer":1,"byteOffset":909244,"byteLength":6192,"target":34962,"byteStride":12,"extensions":{"EXT_meshopt_compression":{"buffer":0,"byteOffset":389296,"byteLength":141,"mode":"ATTRIBUTES","byteStride":12,"count":516}}},{"buffer":1,"byteOffset":915436,"byteLength":4128,"target":34962,"byteStride":8,"extensions":{"EXT_meshopt_compression":{"buffer":0,"byteOffset":389440,"byteLength":1637,"mode":"ATTRIBUTES","byteStride":8,"count":516}}},{"buffer":1,"byteOffset":919564,"byteLength":10776,"target":34962,"byteStride":12,"extensions":{"EXT_meshopt_compression":{"buffer":0,"byteOffset":391080,"byteLength":5661,"mode":"ATTRIBUTES","byteStride":12,"count":898}}},{"buffer":1,"byteOffset":930340,"byteLength":10776,"target":34962,"byteStride":12,"extensions":{"EXT_meshopt_compression":{"buffer":0,"byteOffset":396744,"byteLength":213,"mode":"ATTRIBUTES","byteStride":12,"count":898}}},{"buffer":1,"byteOffset":941116,"byteLength":7184,"target":34962,"byteStride":8,"extensions":{"EXT_meshopt_compression":{"buffer":0,"byteOffset":396960,"byteLength":2741,"mode":"ATTRIBUTES","byteStride":8,"count":898}}},{"buffer":1,"byteOffset":948300,"byteLength":1860,"target":34962,"byteStride":12,"extensions":{"EXT_meshopt_compression":{"buffer":0,"byteOffset":399704,"byteLength":1022,"mode":"ATTRIBUTES","byteStride":12,"count":155}}},{"buffer":1,"byteOffset":950160,"byteLength":1860,"target":34962,"byteStride":12,"extensions":{"EXT_meshopt_compression":{"buffer":0,"byteOffset":400728,"byteLength":1455,"mode":"ATTRIBUTES","byteStride":12,"count":155}}},{"buffer":1,"byteOffset":952020,"byteLength":1240,"target":34962,"byteStride":8,"extensions":{"EXT_meshopt_compression":{"buffer":0,"byteOffset":402184,"byteLength":1071,"mode":"ATTRIBUTES","byteStride":8,"count":155}}},{"buffer":1,"byteOffset":953260,"byteLength":1240,"target":34962,"byteStride":8,"extensions":{"EXT_meshopt_compression":{"buffer":0,"byteOffset":403256,"byteLength":638,"mode":"ATTRIBUTES","byteStride":8,"count":155}}},{"buffer":1,"byteOffset":954500,"byteLength":18720,"target":34962,"byteStride":12,"extensions":{"EXT_meshopt_compression":{"buffer":0,"byteOffset":403896,"byteLength":9222,"mode":"ATTRIBUTES","byteStride":12,"count":1560}}},{"buffer":1,"byteOffset":973220,"byteLength":18720,"target":34962,"byteStride":12,"extensions":{"EXT_meshopt_compression":{"buffer":0,"byteOffset":413120,"byteLength":333,"mode":"ATTRIBUTES","byteStride":12,"count":1560}}},{"buffer":1,"byteOffset":991940,"byteLength":12480,"target":34962,"byteStride":8,"extensions":{"EXT_meshopt_compression":{"buffer":0,"byteOffset":413456,"byteLength":4650,"mode":"ATTRIBUTES","byteStride":8,"count":1560}}},{"buffer":1,"byteOffset":1004420,"byteLength":198204,"target":34962,"byteStride":12,"extensions":{"EXT_meshopt_compression":{"buffer":0,"byteOffset":418108,"byteLength":74510,"mode":"ATTRIBUTES","byteStride":12,"count":16517}}},{"buffer":1,"byteOffset":1202624,"byteLength":198204,"target":34962,"byteStride":12,"extensions":{"EXT_meshopt_compression":{"buffer":0,"byteOffset":492620,"byteLength":123836,"mode":"ATTRIBUTES","byteStride":12,"count":16517}}},{"buffer":1,"byteOffset":1400828,"byteLength":132136,"target":34962,"byteStride":8,"extensions":{"EXT_meshopt_compression":{"buffer":0,"byteOffset":616456,"byteLength":40850,"mode":"ATTRIBUTES","byteStride":8,"count":16517}}},{"buffer":1,"byteOffset":1532964,"byteLength":105264,"target":34962,"byteStride":12,"extensions":{"EXT_meshopt_compression":{"buffer":0,"byteOffset":657308,"byteLength":43522,"mode":"ATTRIBUTES","byteStride":12,"count":8772}}},{"buffer":1,"byteOffset":1638228,"byteLength":105264,"target":34962,"byteStride":12,"extensions":{"EXT_meshopt_compression":{"buffer":0,"byteOffset":700832,"byteLength":14909,"mode":"ATTRIBUTES","byteStride":12,"count":8772}}},{"buffer":1,"byteOffset":1743492,"byteLength":70176,"target":34962,"byteStride":8,"extensions":{"EXT_meshopt_compression":{"buffer":0,"byteOffset":715744,"byteLength":35632,"mode":"ATTRIBUTES","byteStride":8,"count":8772}}},{"buffer":1,"byteOffset":1813668,"byteLength":96,"target":34962,"byteStride":12,"extensions":{"EXT_meshopt_compression":{"buffer":0,"byteOffset":751376,"byteLength":89,"mode":"ATTRIBUTES","byteStride":12,"count":8}}},{"buffer":1,"byteOffset":1813764,"byteLength":96,"target":34962,"byteStride":12,"extensions":{"EXT_meshopt_compression":{"buffer":0,"byteOffset":751468,"byteLength":50,"mode":"ATTRIBUTES","byteStride":12,"count":8}}},{"buffer":1,"byteOffset":1813860,"byteLength":64,"target":34962,"byteStride":8,"extensions":{"EXT_meshopt_compression":{"buffer":0,"byteOffset":751520,"byteLength":71,"mode":"ATTRIBUTES","byteStride":8,"count":8}}},{"buffer":1,"byteOffset":1813924,"byteLength":768,"target":34962,"byteStride":12,"extensions":{"EXT_meshopt_compression":{"buffer":0,"byteOffset":751592,"byteLength":324,"mode":"ATTRIBUTES","byteStride":12,"count":64}}},{"buffer":1,"byteOffset":1814692,"byteLength":768,"target":34962,"byteStride":12,"extensions":{"EXT_meshopt_compression":{"buffer":0,"byteOffset":751916,"byteLength":366,"mode":"ATTRIBUTES","byteStride":12,"count":64}}},{"buffer":1,"byteOffset":1815460,"byteLength":512,"target":34962,"byteStride":8,"extensions":{"EXT_meshopt_compression":{"buffer":0,"byteOffset":752284,"byteLength":186,"mode":"ATTRIBUTES","byteStride":8,"count":64}}},{"buffer":1,"byteOffset":1815972,"byteLength":768,"target":34962,"byteStride":12,"extensions":{"EXT_meshopt_compression":{"buffer":0,"byteOffset":752472,"byteLength":328,"mode":"ATTRIBUTES","byteStride":12,"count":64}}},{"buffer":1,"byteOffset":1816740,"byteLength":768,"target":34962,"byteStride":12,"extensions":{"EXT_meshopt_compression":{"buffer":0,"byteOffset":752800,"byteLength":366,"mode":"ATTRIBUTES","byteStride":12,"count":64}}},{"buffer":1,"byteOffset":1817508,"byteLength":512,"target":34962,"byteStride":8,"extensions":{"EXT_meshopt_compression":{"buffer":0,"byteOffset":753168,"byteLength":186,"mode":"ATTRIBUTES","byteStride":8,"count":64}}},{"buffer":1,"byteOffset":1818020,"byteLength":1860,"target":34962,"byteStride":12,"extensions":{"EXT_meshopt_compression":{"buffer":0,"byteOffset":753356,"byteLength":1022,"mode":"ATTRIBUTES","byteStride":12,"count":155}}},{"buffer":1,"byteOffset":1819880,"byteLength":1860,"target":34962,"byteStride":12,"extensions":{"EXT_meshopt_compression":{"buffer":0,"byteOffset":754380,"byteLength":1455,"mode":"ATTRIBUTES","byteStride":12,"count":155}}},{"buffer":1,"byteOffset":1821740,"byteLength":1240,"target":34962,"byteStride":8,"extensions":{"EXT_meshopt_compression":{"buffer":0,"byteOffset":755836,"byteLength":1071,"mode":"ATTRIBUTES","byteStride":8,"count":155}}},{"buffer":1,"byteOffset":1822980,"byteLength":1240,"target":34962,"byteStride":8,"extensions":{"EXT_meshopt_compression":{"buffer":0,"byteOffset":756908,"byteLength":638,"mode":"ATTRIBUTES","byteStride":8,"count":155}}},{"buffer":1,"byteOffset":1824220,"byteLength":15912,"target":34962,"byteStride":12,"extensions":{"EXT_meshopt_compression":{"buffer":0,"byteOffset":757548,"byteLength":10230,"mode":"ATTRIBUTES","byteStride":12,"count":1326}}},{"buffer":1,"byteOffset":1840132,"byteLength":15912,"target":34962,"byteStride":12,"extensions":{"EXT_meshopt_compression":{"buffer":0,"byteOffset":767780,"byteLength":12182,"mode":"ATTRIBUTES","byteStride":12,"count":1326}}},{"buffer":1,"byteOffset":1856044,"byteLength":10608,"target":34962,"byteStride":8,"extensions":{"EXT_meshopt_compression":{"buffer":0,"byteOffset":779964,"byteLength":7560,"mode":"ATTRIBUTES","byteStride":8,"count":1326}}},{"buffer":1,"byteOffset":1866652,"byteLength":10608,"target":34962,"byteStride":8,"extensions":{"EXT_meshopt_compression":{"buffer":0,"byteOffset":787524,"byteLength":7062,"mode":"ATTRIBUTES","byteStride":8,"count":1326}}},{"buffer":1,"byteOffset":1877260,"byteLength":10608,"target":34962,"byteStride":8,"extensions":{"EXT_meshopt_compression":{"buffer":0,"byteOffset":794588,"byteLength":6900,"mode":"ATTRIBUTES","byteStride":8,"count":1326}}},{"buffer":1,"byteOffset":1887868,"byteLength":10608,"target":34962,"byteStride":8,"extensions":{"EXT_meshopt_compression":{"buffer":0,"byteOffset":801488,"byteLength":6228,"mode":"ATTRIBUTES","byteStride":8,"count":1326}}},{"buffer":1,"byteOffset":1898476,"byteLength":14304,"target":34962,"byteStride":12,"extensions":{"EXT_meshopt_compression":{"buffer":0,"byteOffset":807716,"byteLength":8754,"mode":"ATTRIBUTES","byteStride":12,"count":1192}}},{"buffer":1,"byteOffset":1912780,"byteLength":14304,"target":34962,"byteStride":12,"extensions":{"EXT_meshopt_compression":{"buffer":0,"byteOffset":816472,"byteLength":10465,"mode":"ATTRIBUTES","byteStride":12,"count":1192}}},{"buffer":1,"byteOffset":1927084,"byteLength":9536,"target":34962,"byteStride":8,"extensions":{"EXT_meshopt_compression":{"buffer":0,"byteOffset":826940,"byteLength":6810,"mode":"ATTRIBUTES","byteStride":8,"count":1192}}},{"buffer":1,"byteOffset":1936620,"byteLength":9536,"target":34962,"byteStride":8,"extensions":{"EXT_meshopt_compression":{"buffer":0,"byteOffset":833752,"byteLength":6354,"mode":"ATTRIBUTES","byteStride":8,"count":1192}}},{"buffer":1,"byteOffset":1946156,"byteLength":9536,"target":34962,"byteStride":8,"extensions":{"EXT_meshopt_compression":{"buffer":0,"byteOffset":840108,"byteLength":6280,"mode":"ATTRIBUTES","byteStride":8,"count":1192}}},{"buffer":1,"byteOffset":1955692,"byteLength":9536,"target":34962,"byteStride":8,"extensions":{"EXT_meshopt_compression":{"buffer":0,"byteOffset":846388,"byteLength":5620,"mode":"ATTRIBUTES","byteStride":8,"count":1192}}},{"buffer":1,"byteOffset":1965228,"byteLength":49080,"target":34962,"byteStride":12,"extensions":{"EXT_meshopt_compression":{"buffer":0,"byteOffset":852008,"byteLength":23387,"mode":"ATTRIBUTES","byteStride":12,"count":4090}}},{"buffer":1,"byteOffset":2014308,"byteLength":49080,"target":34962,"byteStride":12,"extensions":{"EXT_meshopt_compression":{"buffer":0,"byteOffset":875396,"byteLength":43905,"mode":"ATTRIBUTES","byteStride":12,"count":4090}}},{"buffer":1,"byteOffset":2063388,"byteLength":7056,"target":34962,"byteStride":12,"extensions":{"EXT_meshopt_compression":{"buffer":0,"byteOffset":919304,"byteLength":1861,"mode":"ATTRIBUTES","byteStride":12,"count":588}}},{"buffer":1,"byteOffset":2070444,"byteLength":7056,"target":34962,"byteStride":12,"extensions":{"EXT_meshopt_compression":{"buffer":0,"byteOffset":921168,"byteLength":5819,"mode":"ATTRIBUTES","byteStride":12,"count":588}}},{"buffer":1,"byteOffset":2077500,"byteLength":8760,"target":34962,"byteStride":12,"extensions":{"EXT_meshopt_compression":{"buffer":0,"byteOffset":926988,"byteLength":4464,"mode":"ATTRIBUTES","byteStride":12,"count":730}}},{"buffer":1,"byteOffset":2086260,"byteLength":8760,"target":34962,"byteStride":12,"extensions":{"EXT_meshopt_compression":{"buffer":0,"byteOffset":931452,"byteLength":6185,"mode":"ATTRIBUTES","byteStride":12,"count":730}}},{"buffer":1,"byteOffset":2095020,"byteLength":5840,"target":34962,"byteStride":8,"extensions":{"EXT_meshopt_compression":{"buffer":0,"byteOffset":937640,"byteLength":2354,"mode":"ATTRIBUTES","byteStride":8,"count":730}}},{"buffer":1,"byteOffset":2100860,"byteLength":26136,"target":34962,"byteStride":12,"extensions":{"EXT_meshopt_compression":{"buffer":0,"byteOffset":939996,"byteLength":15214,"mode":"ATTRIBUTES","byteStride":12,"count":2178}}},{"buffer":1,"byteOffset":2126996,"byteLength":26136,"target":34962,"byteStride":12,"extensions":{"EXT_meshopt_compression":{"buffer":0,"byteOffset":955212,"byteLength":21415,"mode":"ATTRIBUTES","byteStride":12,"count":2178}}},{"buffer":1,"byteOffset":2153132,"byteLength":17424,"target":34962,"byteStride":8,"extensions":{"EXT_meshopt_compression":{"buffer":0,"byteOffset":976628,"byteLength":6378,"mode":"ATTRIBUTES","byteStride":8,"count":2178}}},{"buffer":1,"byteOffset":2170556,"byteLength":97068,"target":34962,"byteStride":12,"extensions":{"EXT_meshopt_compression":{"buffer":0,"byteOffset":983008,"byteLength":36548,"mode":"ATTRIBUTES","byteStride":12,"count":8089}}},{"buffer":1,"byteOffset":2267624,"byteLength":97068,"target":34962,"byteStride":12,"extensions":{"EXT_meshopt_compression":{"buffer":0,"byteOffset":1019556,"byteLength":60460,"mode":"ATTRIBUTES","byteStride":12,"count":8089}}},{"buffer":1,"byteOffset":2364692,"byteLength":64712,"target":34962,"byteStride":8,"extensions":{"EXT_meshopt_compression":{"buffer":0,"byteOffset":1080016,"byteLength":20083,"mode":"ATTRIBUTES","byteStride":8,"count":8089}}},{"buffer":1,"byteOffset":2429404,"byteLength":191508,"target":34962,"byteStride":12,"extensions":{"EXT_meshopt_compression":{"buffer":0,"byteOffset":1100100,"byteLength":77703,"mode":"ATTRIBUTES","byteStride":12,"count":15959}}},{"buffer":1,"byteOffset":2620912,"byteLength":191508,"target":34962,"byteStride":12,"extensions":{"EXT_meshopt_compression":{"buffer":0,"byteOffset":1177804,"byteLength":125743,"mode":"ATTRIBUTES","byteStride":12,"count":15959}}},{"buffer":1,"byteOffset":2812420,"byteLength":127672,"target":34962,"byteStride":8,"extensions":{"EXT_meshopt_compression":{"buffer":0,"byteOffset":1303548,"byteLength":39536,"mode":"ATTRIBUTES","byteStride":8,"count":15959}}},{"buffer":1,"byteOffset":2940092,"byteLength":49080,"target":34962,"byteStride":12,"extensions":{"EXT_meshopt_compression":{"buffer":0,"byteOffset":1343084,"byteLength":23387,"mode":"ATTRIBUTES","byteStride":12,"count":4090}}},{"buffer":1,"byteOffset":2989172,"byteLength":49080,"target":34962,"byteStride":12,"extensions":{"EXT_meshopt_compression":{"buffer":0,"byteOffset":1366472,"byteLength":43905,"mode":"ATTRIBUTES","byteStride":12,"count":4090}}},{"buffer":1,"byteOffset":3038252,"byteLength":12792,"target":34962,"byteStride":12,"extensions":{"EXT_meshopt_compression":{"buffer":0,"byteOffset":1410380,"byteLength":6745,"mode":"ATTRIBUTES","byteStride":12,"count":1066}}},{"buffer":1,"byteOffset":3051044,"byteLength":12792,"target":34962,"byteStride":12,"extensions":{"EXT_meshopt_compression":{"buffer":0,"byteOffset":1417128,"byteLength":4150,"mode":"ATTRIBUTES","byteStride":12,"count":1066}}},{"buffer":1,"byteOffset":3063836,"byteLength":8528,"target":34962,"byteStride":8,"extensions":{"EXT_meshopt_compression":{"buffer":0,"byteOffset":1421280,"byteLength":3729,"mode":"ATTRIBUTES","byteStride":8,"count":1066}}},{"buffer":1,"byteOffset":3072364,"byteLength":64776,"target":34962,"byteStride":12,"extensions":{"EXT_meshopt_compression":{"buffer":0,"byteOffset":1425012,"byteLength":28316,"mode":"ATTRIBUTES","byteStride":12,"count":5398}}},{"buffer":1,"byteOffset":3137140,"byteLength":64776,"target":34962,"byteStride":12,"extensions":{"EXT_meshopt_compression":{"buffer":0,"byteOffset":1453328,"byteLength":7344,"mode":"ATTRIBUTES","byteStride":12,"count":5398}}},{"buffer":1,"byteOffset":3201916,"byteLength":43184,"target":34962,"byteStride":8,"extensions":{"EXT_meshopt_compression":{"buffer":0,"byteOffset":1460672,"byteLength":18895,"mode":"ATTRIBUTES","byteStride":8,"count":5398}}},{"buffer":1,"byteOffset":3245100,"byteLength":113640,"target":34962,"byteStride":12,"extensions":{"EXT_meshopt_compression":{"buffer":0,"byteOffset":1479568,"byteLength":46478,"mode":"ATTRIBUTES","byteStride":12,"count":9470}}},{"buffer":1,"byteOffset":3358740,"byteLength":113640,"target":34962,"byteStride":12,"extensions":{"EXT_meshopt_compression":{"buffer":0,"byteOffset":1526048,"byteLength":4266,"mode":"ATTRIBUTES","byteStride":12,"count":9470}}},{"buffer":1,"byteOffset":3472380,"byteLength":75760,"target":34962,"byteStride":8,"extensions":{"EXT_meshopt_compression":{"buffer":0,"byteOffset":1530316,"byteLength":33151,"mode":"ATTRIBUTES","byteStride":8,"count":9470}}},{"buffer":1,"byteOffset":3548140,"byteLength":98832,"target":34962,"byteStride":12,"extensions":{"EXT_meshopt_compression":{"buffer":0,"byteOffset":1563468,"byteLength":44013,"mode":"ATTRIBUTES","byteStride":12,"count":8236}}},{"buffer":1,"byteOffset":3646972,"byteLength":98832,"target":34962,"byteStride":12,"extensions":{"EXT_meshopt_compression":{"buffer":0,"byteOffset":1607484,"byteLength":17402,"mode":"ATTRIBUTES","byteStride":12,"count":8236}}},{"buffer":1,"byteOffset":3745804,"byteLength":65888,"target":34962,"byteStride":8,"extensions":{"EXT_meshopt_compression":{"buffer":0,"byteOffset":1624888,"byteLength":29451,"mode":"ATTRIBUTES","byteStride":8,"count":8236}}}],"samplers":[{"magFilter":9729,"minFilter":9987,"wrapS":10497,"wrapT":10497},{"magFilter":9729,"minFilter":9987,"wrapS":33071,"wrapT":33071}],"textures":[{"source":0,"sampler":0},{"sampler":0,"extensions":{"EXT_texture_webp":{"source":1}}},{"source":3,"sampler":0},{"sampler":0,"extensions":{"EXT_texture_webp":{"source":2}}},{"sampler":0,"extensions":{"EXT_texture_webp":{"source":4}}},{"sampler":0,"extensions":{"EXT_texture_webp":{"source":6}}},{"sampler":0,"extensions":{"EXT_texture_webp":{"source":5}}},{"source":9,"sampler":1},{"sampler":0,"extensions":{"EXT_texture_webp":{"source":8}}},{"sampler":0,"extensions":{"EXT_texture_webp":{"source":7}}}],"images":[{"name":"book_pattern_nor_gl_2k","mimeType":"image/jpeg","uri":"shared/140c3719f3201130f562bf79.jpg"},{"name":"book_pattern_rough_2k","mimeType":"image/webp","uri":"shared/8bb161f505fd3344121ca5dd.webp"},{"name":"Paper001_2K-JPG_NormalGL","mimeType":"image/webp","uri":"shared/a490f2254a54e6ac01465d82.webp"},{"name":"Paper001_2K-JPG_Color","mimeType":"image/jpeg","uri":"shared/1ec1da7815c3e53e02f7f6f4.jpg"},{"name":"Paper001_2K-JPG_Roughness","mimeType":"image/webp","uri":"shared/98c3a72e3346f80ad454feb3.webp"},{"name":"compressed-paper-normal","mimeType":"image/webp","uri":"shared/c65a4a9bdd0dce53b8ec9861.webp"},{"name":"compressed-paper-color","mimeType":"image/webp","uri":"shared/e933106c126139066215af87.webp"},{"name":"wealth-of-nations_print_orm","mimeType":"image/webp","uri":"shared/5fc2b49b494d3f480f17f684.webp"},{"name":"wealth-of-nations_print_normal","mimeType":"image/webp","uri":"shared/5ae8ca751a7b6ba12e7a9ef9.webp"},{"name":"edition-wealth-of-nations","mimeType":"image/jpeg","uri":"shared/9446d411b26ed8ae0673e27f.jpg"}],"buffers":[{"uri":"shared/9b6a224ee18bf65656cef011.bin","byteLength":1654340},{"byteLength":3811692,"extensions":{"EXT_meshopt_compression":{"fallback":true}}}],"materials":[{"name":"wealth-of-nations case material.002","doubleSided":true,"pbrMetallicRoughness":{"baseColorFactor":[0.8468732237815857,0.8148465752601624,0.6938717365264893,1],"metallicFactor":0,"metallicRoughnessTexture":{"index":1}},"normalTexture":{"index":0,"scale":0.05999999865889549}},{"name":"MAT_wealth-of-nations_BackInk","doubleSided":true,"pbrMetallicRoughness":{"baseColorFactor":[0.02500000037252903,0.03200000151991844,0.027000000700354576,1],"roughnessFactor":0.7200000286102295,"metallicFactor":0}},{"name":"MAT_wealth-of-nations_Stamped_Ink.002","doubleSided":true,"pbrMetallicRoughness":{"baseColorFactor":[0.02500000037252903,0.03200000151991844,0.027000000700354576,1],"roughnessFactor":0.3400000035762787,"metallicFactor":0},"extensions":{"KHR_materials_clearcoat":{"clearcoatFactor":0.44999998807907104,"clearcoatRoughnessFactor":0.20000000298023224}}},{"name":"MAT_Uncoated_Paper_Fibre","doubleSided":true,"pbrMetallicRoughness":{"metallicFactor":0,"baseColorTexture":{"index":2,"texCoord":1},"metallicRoughnessTexture":{"index":4,"texCoord":1}},"normalTexture":{"index":3,"texCoord":1,"scale":0.07000000029802322}},{"name":"MAT_wealth-of-nations_Stamped_Ink.003","doubleSided":true,"pbrMetallicRoughness":{"baseColorFactor":[0.009134058840572834,0.04666508734226227,0.02955683507025242,1],"roughnessFactor":0.3400000035762787,"metallicFactor":0},"extensions":{"KHR_materials_clearcoat":{"clearcoatFactor":0.44999998807907104,"clearcoatRoughnessFactor":0.20000000298023224}}},{"name":"Compressed paper cut surface","doubleSided":true,"pbrMetallicRoughness":{"roughnessFactor":0.8999999761581421,"metallicFactor":0,"baseColorTexture":{"index":5}},"normalTexture":{"index":6}},{"name":"Compressed ivory stock 2","doubleSided":true,"pbrMetallicRoughness":{"baseColorFactor":[0.7279999852180481,0.7129999995231628,0.656000018119812,1],"roughnessFactor":0.8600000143051147,"metallicFactor":0}},{"name":"MAT_wealth-of-nations_Registered_Print.001","extras":{"surface_finish":"Registered print, selective varnish"},"doubleSided":true,"pbrMetallicRoughness":{"baseColorTexture":{"index":7,"texCoord":1},"metallicRoughnessTexture":{"index":9,"texCoord":1}},"normalTexture":{"index":8,"texCoord":1},"extensions":{"KHR_materials_clearcoat":{"clearcoatFactor":1,"clearcoatRoughnessFactor":0.23999999463558197,"clearcoatTexture":{"index":9,"texCoord":1}}}},{"name":"Endband cotton ecru","doubleSided":true,"pbrMetallicRoughness":{"baseColorFactor":[0.5,0.46000000834465027,0.3499999940395355,1],"roughnessFactor":0.8799999952316284,"metallicFactor":0}},{"name":"Binding linen warm ecru","doubleSided":true,"pbrMetallicRoughness":{"baseColorFactor":[0.3799999952316284,0.3400000035762787,0.25999999046325684,1],"roughnessFactor":0.9300000071525574,"metallicFactor":0}},{"name":"wealth-of-nations woven ribbon.002","doubleSided":true,"pbrMetallicRoughness":{"baseColorFactor":[0.009134058840572834,0.04666508734226227,0.02955683507025242,1],"metallicFactor":0,"metallicRoughnessTexture":{"index":1}},"normalTexture":{"index":0,"scale":1.149999976158142},"extensions":{"KHR_materials_sheen":{"sheenColorFactor":[1,1,1],"sheenRoughnessFactor":0.5}}},{"name":"MAT_Uncoated_Paper_Fibre","doubleSided":true,"pbrMetallicRoughness":{"metallicFactor":0,"baseColorTexture":{"index":2},"metallicRoughnessTexture":{"index":4}},"normalTexture":{"index":3,"scale":0.07000000029802322}},{"name":"wealth-of-nations printed ink.002","doubleSided":true,"pbrMetallicRoughness":{"baseColorFactor":[0.040915198624134064,0.03310476616024971,0.019382361322641373,1],"roughnessFactor":0.8999999761581421,"metallicFactor":0}}],"meshes":[{"name":"Pressed case joint Back board.024","primitives":[{"attributes":{"POSITION":0,"NORMAL":1,"TEXCOORD_0":2},"mode":4,"material":0,"indices":3}]},{"name":"Back collection","primitives":[{"attributes":{"POSITION":4,"NORMAL":5,"TEXCOORD_0":6},"mode":4,"material":1,"indices":7}]},{"name":"Back description","primitives":[{"attributes":{"POSITION":8,"NORMAL":9,"TEXCOORD_0":10},"mode":4,"material":1,"indices":11}]},{"name":"Back edition","primitives":[{"attributes":{"POSITION":12,"NORMAL":13,"TEXCOORD_0":14},"mode":4,"material":2,"indices":15}]},{"name":"Back ISBN","primitives":[{"attributes":{"POSITION":16,"NORMAL":17,"TEXCOORD_0":18},"mode":4,"material":1,"indices":19}]},{"name":"Back pastedown.024","primitives":[{"attributes":{"POSITION":20,"NORMAL":21,"TEXCOORD_0":22,"TEXCOORD_1":23},"mode":4,"material":3,"indices":24}]},{"name":"Back title","primitives":[{"attributes":{"POSITION":25,"NORMAL":26,"TEXCOORD_0":27},"mode":4,"material":2,"indices":28}]},{"name":"Collection mark.016","primitives":[{"attributes":{"POSITION":29,"NORMAL":30,"TEXCOORD_0":31},"mode":4,"material":4,"indices":32}]},{"name":"Continuous compressed cut wealth-of-nations.003","primitives":[{"attributes":{"POSITION":33,"NORMAL":34,"TEXCOORD_0":35},"mode":4,"material":5,"indices":36},{"attributes":{"POSITION":37,"NORMAL":38,"TEXCOORD_0":39},"mode":4,"material":6,"indices":40}]},{"name":"Curved foil rule.032","primitives":[{"attributes":{"POSITION":41,"NORMAL":42,"TEXCOORD_0":43},"mode":4,"material":4,"indices":44}]},{"name":"Curved foil rule.033","primitives":[{"attributes":{"POSITION":45,"NORMAL":46,"TEXCOORD_0":47},"mode":4,"material":4,"indices":44}]},{"name":"Front pastedown.024","primitives":[{"attributes":{"POSITION":48,"NORMAL":49,"TEXCOORD_0":50,"TEXCOORD_1":51},"mode":4,"material":3,"indices":24}]},{"name":"Pressed case joint Wrapped printed cover","primitives":[{"attributes":{"POSITION":52,"NORMAL":53,"TEXCOORD_0":54,"TEXCOORD_1":55,"TEXCOORD_2":56,"TEXCOORD_3":57},"mode":4,"material":7,"indices":58},{"attributes":{"POSITION":59,"NORMAL":60,"TEXCOORD_0":61,"TEXCOORD_1":62,"TEXCOORD_2":63,"TEXCOORD_3":64},"mode":4,"material":0,"indices":65}]},{"name":"Head textile endband wealth-of-nations.004","primitives":[{"attributes":{"POSITION":66,"NORMAL":67},"mode":4,"material":8,"indices":68}]},{"name":"Linen spine lining wealth-of-nations.004","primitives":[{"attributes":{"POSITION":69,"NORMAL":70},"mode":4,"material":9,"indices":71}]},{"name":"Ribbon flexible satin wealth-of-nations.004","primitives":[{"attributes":{"POSITION":72,"NORMAL":73,"TEXCOORD_0":74},"mode":4,"material":10,"indices":75}]},{"name":"Rounded cloth spine.024","primitives":[{"attributes":{"POSITION":76,"NORMAL":77,"TEXCOORD_0":78},"mode":4,"material":0,"indices":79}]},{"name":"Spine author.016","primitives":[{"attributes":{"POSITION":80,"NORMAL":81,"TEXCOORD_0":82},"mode":4,"material":4,"indices":83}]},{"name":"Spine title.024","primitives":[{"attributes":{"POSITION":84,"NORMAL":85,"TEXCOORD_0":86},"mode":4,"material":4,"indices":87}]},{"name":"Tail textile endband wealth-of-nations.004","primitives":[{"attributes":{"POSITION":88,"NORMAL":89},"mode":4,"material":8,"indices":68}]},{"name":"Flexible paper","primitives":[{"attributes":{"POSITION":90,"NORMAL":91,"TEXCOORD_0":92},"mode":4,"material":11,"indices":93}]},{"name":"Interior author.024","primitives":[{"attributes":{"POSITION":94,"NORMAL":95,"TEXCOORD_0":96},"mode":4,"material":12,"indices":97}]},{"name":"Interior imprint.024","primitives":[{"attributes":{"POSITION":98,"NORMAL":99,"TEXCOORD_0":100},"mode":4,"material":12,"indices":101}]},{"name":"Interior title.024","primitives":[{"attributes":{"POSITION":102,"NORMAL":103,"TEXCOORD_0":104},"mode":4,"material":12,"indices":105}]}],"nodes":[{"name":"Back board.024","extras":{"edge_refined":true,"unpressed_mesh":"Back board.032","pressed_joint_revision":1,"joint_depth_mm":1.0371338719972867,"joint_center_mm":6.4},"translation":[0,0,-0.16450001299381256],"mesh":0},{"name":"Back collection","translation":[0,-0.48767992854118347,-0.17650000751018524],"rotation":[0,-0.7071068286895752,0.7071068286895752,3.090862321641907e-8],"mesh":1},{"name":"Back description","translation":[0,0.05079999566078186,-0.17650000751018524],"rotation":[0,-0.7071068286895752,0.7071068286895752,3.090862321641907e-8],"mesh":2},{"name":"Back edition","translation":[0,-0.6908799409866333,-0.17650000751018524],"rotation":[0,-0.7071068286895752,0.7071068286895752,3.090862321641907e-8],"mesh":3},{"name":"Back ISBN","translation":[0,-0.792479932308197,-0.17650000751018524],"rotation":[0,-0.7071068286895752,0.7071068286895752,3.090862321641907e-8],"mesh":4},{"name":"Back pastedown.024","translation":[0,0,-0.15299999713897705],"mesh":5},{"name":"Back title","translation":[0,0.5892799496650696,-0.17650000751018524],"rotation":[0,-0.7071068286895752,0.7071068286895752,3.090862321641907e-8],"mesh":6},{"name":"Collection mark.016","mesh":7},{"name":"Compressed paper signatures wealth-of-nations.003","extras":{"paper_surface_revision":1,"leaf_count":312,"paper_caliper_mm":0.09166666666666666,"binding_structure":"Rounded and backed signatures"},"mesh":8},{"name":"Curved foil rule.032","mesh":9},{"name":"Curved foil rule.033","mesh":10},{"name":"Front pastedown.024","translation":[0.6349999904632568,0,-0.011499986052513123],"mesh":11},{"name":"Wrapped printed cover","extras":{"edge_refined":true,"unpressed_mesh":"Front board.032","pressed_joint_revision":1,"joint_depth_mm":1.1151178013297014,"joint_center_mm":6.4},"translation":[0.6349999904632568,0,0],"mesh":12},{"name":"FrontHinge.024","translation":[-0.6349999904632568,0,0.16450001299381256],"children":[11,12]},{"name":"Head textile endband wealth-of-nations.004","extras":{"binding_revision":2},"mesh":13},{"name":"Linen spine lining wealth-of-nations.004","extras":{"binding_revision":2},"mesh":14},{"name":"Ribbon flexible satin wealth-of-nations.004","extras":{"binding_revision":2,"ribbon_width_dm":0.043,"ribbon_length_dm":0.29,"ribbon_anchor_dm":[0,-1.008,0.006]},"mesh":15},{"name":"Rounded cloth spine.024","mesh":16},{"name":"Spine author.016","mesh":17},{"name":"Spine title.024","mesh":18},{"name":"Tail textile endband wealth-of-nations.004","extras":{"binding_revision":2},"mesh":19},{"name":"Curved title leaf","mesh":20},{"name":"Interior author.024","mesh":21},{"name":"Interior imprint.024","mesh":22},{"name":"Interior title.024","mesh":23},{"name":"TurningLeaf","translation":[-0.5899999737739563,0,0.14550000429153442],"children":[21,22,23,24]},{"name":"Publisher_wealth-of-nations.001","extras":{"slug":"wealth-of-nations","dimensions_mm":[127,203.2,35],"model_design":"Publisher front artwork on a showcase binding; spine and interior are custom reconstructions"},"scale":[0.09676193445920944,0.09999359399080276,0.09974487125873566],"children":[0,1,2,3,4,5,6,7,8,9,10,13,14,15,16,17,18,19,20,25]}],"scenes":[{"name":"Library Publisher Editions.001","nodes":[26]}],"scene":0,"extensionsUsed":["EXT_meshopt_compression","EXT_texture_webp","KHR_materials_clearcoat","KHR_materials_sheen"],"extensionsRequired":["EXT_meshopt_compression","EXT_texture_webp"]}