{"asset":{"generator":"glTF-Transform v4.5.0","version":"2.0"},"accessors":[{"type":"VEC3","componentType":5126,"count":2392,"max":[0.5952146649360657,0.920775830745697,0.010829009115695953],"min":[-0.5952146649360657,-0.920775830745697,-0.010829009115695953],"normalized":false,"byteOffset":0,"bufferView":0},{"type":"VEC3","componentType":5126,"count":2392,"normalized":false,"byteOffset":0,"bufferView":1},{"type":"VEC2","componentType":5126,"count":2392,"normalized":false,"byteOffset":0,"bufferView":2},{"type":"SCALAR","componentType":5123,"count":12612,"normalized":false,"byteOffset":0,"bufferView":3},{"type":"VEC3","componentType":5126,"count":514,"max":[0.1009504571557045,0,0.0053944955579936504],"min":[-0.09995229542255402,0,-0.005732110235840082],"normalized":false,"byteOffset":0,"bufferView":4},{"type":"VEC3","componentType":5126,"count":514,"normalized":false,"byteOffset":0,"bufferView":5},{"type":"SCALAR","componentType":5123,"count":1482,"normalized":false,"byteOffset":25224,"bufferView":3},{"type":"VEC3","componentType":5126,"count":7920,"max":[0.17263604700565338,0,0.07053427398204803],"min":[-0.17455384135246277,0,-0.07163350284099579],"normalized":false,"byteOffset":0,"bufferView":6},{"type":"VEC3","componentType":5126,"count":7920,"normalized":false,"byteOffset":0,"bufferView":7},{"type":"SCALAR","componentType":5123,"count":23436,"normalized":false,"byteOffset":28188,"bufferView":3},{"type":"VEC3","componentType":5126,"count":455,"max":[0.08104073256254196,0,0.00647339504212141],"min":[-0.0798429325222969,0,-0.00688733858987689],"normalized":false,"byteOffset":0,"bufferView":8},{"type":"VEC3","componentType":5126,"count":455,"normalized":false,"byteOffset":0,"bufferView":9},{"type":"SCALAR","componentType":5123,"count":1335,"normalized":false,"byteOffset":75060,"bufferView":3},{"type":"VEC3","componentType":5126,"count":977,"max":[0.07914110273122787,0,0.005671926308423281],"min":[-0.0783858671784401,0,-0.0060187154449522495],"normalized":false,"byteOffset":0,"bufferView":10},{"type":"VEC3","componentType":5126,"count":977,"normalized":false,"byteOffset":0,"bufferView":11},{"type":"SCALAR","componentType":5123,"count":2889,"normalized":false,"byteOffset":77730,"bufferView":3},{"type":"VEC3","componentType":5126,"count":1923,"max":[0.21857744455337524,0,0.023399895057082176],"min":[-0.21879960596561432,0,-0.016835398972034454],"normalized":false,"byteOffset":0,"bufferView":12},{"type":"VEC3","componentType":5126,"count":1923,"normalized":false,"byteOffset":0,"bufferView":13},{"type":"SCALAR","componentType":5123,"count":5685,"normalized":false,"byteOffset":83508,"bufferView":3},{"type":"VEC3","componentType":5126,"count":12878,"max":[-0.6390820145606995,-0.5680285692214966,0.010499999858438969],"min":[-0.6397500038146973,-0.8318914175033569,-0.010499999858438969],"normalized":false,"byteOffset":0,"bufferView":14},{"type":"VEC3","componentType":5126,"count":12878,"normalized":false,"byteOffset":0,"bufferView":15},{"type":"SCALAR","componentType":5123,"count":19380,"normalized":false,"byteOffset":94878,"bufferView":3},{"type":"VEC3","componentType":5126,"count":8772,"max":[0.5684999823570251,0.893099308013916,0.10300000011920929],"min":[-0.6085000038146973,-0.8930827975273132,-0.10300000011920929],"normalized":false,"byteOffset":0,"bufferView":16},{"type":"VEC3","componentType":5126,"count":8772,"normalized":false,"byteOffset":0,"bufferView":17},{"type":"VEC2","componentType":5126,"count":8772,"normalized":false,"byteOffset":0,"bufferView":18},{"type":"SCALAR","componentType":5123,"count":49152,"normalized":false,"byteOffset":133638,"bufferView":3},{"type":"VEC3","componentType":5126,"count":8,"max":[0.5684999823570251,0.8930000066757202,0.10300000011920929],"min":[-0.5855000019073486,-0.8930000066757202,-0.10300000011920929],"normalized":false,"byteOffset":0,"bufferView":19},{"type":"VEC3","componentType":5126,"count":8,"normalized":false,"byteOffset":0,"bufferView":20},{"type":"SCALAR","componentType":5123,"count":12,"normalized":false,"byteOffset":231942,"bufferView":3},{"type":"VEC3","componentType":5126,"count":64,"max":[-0.6201047301292419,-0.4963400065898895,0.07968000322580338],"min":[-0.6395999789237976,-0.49834001064300537,-0.07968000322580338],"normalized":false,"byteOffset":0,"bufferView":21},{"type":"VEC3","componentType":5126,"count":64,"normalized":false,"byteOffset":0,"bufferView":22},{"type":"SCALAR","componentType":5123,"count":96,"normalized":false,"byteOffset":231966,"bufferView":3},{"type":"VEC3","componentType":5126,"count":64,"max":[-0.6201047301292419,0.42465999722480774,0.07968000322580338],"min":[-0.6395999789237976,0.4226599931716919,-0.07968000322580338],"normalized":false,"byteOffset":0,"bufferView":23},{"type":"VEC3","componentType":5126,"count":64,"normalized":false,"byteOffset":0,"bufferView":24},{"type":"VEC3","componentType":5126,"count":1323,"max":[0.595214307308197,0.9207764267921448,0.01176385022699833],"min":[-0.595214307308197,-0.9207764267921448,-0.009335865266621113],"normalized":false,"byteOffset":0,"bufferView":25},{"type":"VEC3","componentType":5126,"count":1323,"normalized":false,"byteOffset":0,"bufferView":26},{"type":"VEC2","componentType":5126,"count":1323,"normalized":false,"byteOffset":0,"bufferView":27},{"type":"SCALAR","componentType":5123,"count":6702,"normalized":false,"byteOffset":232158,"bufferView":3},{"type":"VEC3","componentType":5126,"count":1189,"max":[0.595214307308197,0.9207764267921448,-0.004619614686816931],"min":[-0.595214307308197,-0.9207764267921448,-0.01176384836435318],"normalized":false,"byteOffset":0,"bufferView":28},{"type":"VEC3","componentType":5126,"count":1189,"normalized":false,"byteOffset":0,"bufferView":29},{"type":"VEC2","componentType":5126,"count":1189,"normalized":false,"byteOffset":0,"bufferView":30},{"type":"SCALAR","componentType":5123,"count":5922,"normalized":false,"byteOffset":245562,"bufferView":3},{"type":"VEC3","componentType":5126,"count":2950,"max":[-0.5802500247955322,0.896041989326477,0.10300000011920929],"min":[-0.6117457151412964,0.8879579901695251,-0.10300000011920929],"normalized":false,"byteOffset":0,"bufferView":31},{"type":"VEC3","componentType":5126,"count":2950,"normalized":false,"byteOffset":0,"bufferView":32},{"type":"SCALAR","componentType":5123,"count":17640,"normalized":false,"byteOffset":257406,"bufferView":3},{"type":"VEC3","componentType":5126,"count":588,"max":[-0.5862094759941101,0.8809999823570251,0.10300000011920929],"min":[-0.6115000247955322,-0.8809999823570251,-0.10300000011920929],"normalized":false,"byteOffset":0,"bufferView":33},{"type":"VEC3","componentType":5126,"count":588,"normalized":false,"byteOffset":0,"bufferView":34},{"type":"SCALAR","componentType":5123,"count":1164,"normalized":false,"byteOffset":292686,"bufferView":3},{"type":"VEC3","componentType":5126,"count":730,"max":[0.02171694114804268,-0.912999153137207,0.02216394618153572],"min":[-0.02171694114804268,-1.2029999494552612,0.006000000052154064],"normalized":false,"byteOffset":0,"bufferView":35},{"type":"VEC3","componentType":5126,"count":730,"normalized":false,"byteOffset":0,"bufferView":36},{"type":"VEC2","componentType":5126,"count":730,"normalized":false,"byteOffset":0,"bufferView":37},{"type":"SCALAR","componentType":5123,"count":4368,"normalized":false,"byteOffset":295014,"bufferView":3},{"type":"VEC3","componentType":5126,"count":2178,"max":[-0.587658703327179,0.9210719466209412,0.12449999898672104],"min":[-0.6379996538162231,-0.9210706949234009,-0.12449999898672104],"normalized":false,"byteOffset":0,"bufferView":38},{"type":"VEC3","componentType":5126,"count":2178,"normalized":false,"byteOffset":0,"bufferView":39},{"type":"VEC2","componentType":5126,"count":2178,"normalized":false,"byteOffset":0,"bufferView":40},{"type":"SCALAR","componentType":5123,"count":13056,"normalized":false,"byteOffset":303750,"bufferView":3},{"type":"VEC3","componentType":5126,"count":16205,"max":[-0.6390455961227417,0.8196899890899658,0.011007807217538357],"min":[-0.6397500038146973,0.46970999240875244,-0.011007807217538357],"normalized":false,"byteOffset":0,"bufferView":41},{"type":"VEC3","componentType":5126,"count":16205,"normalized":false,"byteOffset":0,"bufferView":42},{"type":"SCALAR","componentType":5123,"count":24540,"normalized":false,"byteOffset":329862,"bufferView":3},{"type":"VEC3","componentType":5126,"count":19788,"max":[-0.636763870716095,0.30980873107910156,0.02850000001490116],"min":[-0.6397500038146973,-0.30980873107910156,-0.02850000001490116],"normalized":false,"byteOffset":0,"bufferView":43},{"type":"VEC3","componentType":5126,"count":19788,"normalized":false,"byteOffset":0,"bufferView":44},{"type":"SCALAR","componentType":5123,"count":29820,"normalized":false,"byteOffset":378942,"bufferView":3},{"type":"VEC3","componentType":5126,"count":2950,"max":[-0.5802500247955322,-0.8879579901695251,0.10300000011920929],"min":[-0.6117457151412964,-0.896041989326477,-0.10300000011920929],"normalized":false,"byteOffset":0,"bufferView":45},{"type":"VEC3","componentType":5126,"count":2950,"normalized":false,"byteOffset":0,"bufferView":46}],"bufferViews":[{"buffer":1,"byteOffset":0,"byteLength":28704,"target":34962,"byteStride":12,"extensions":{"EXT_meshopt_compression":{"buffer":0,"byteOffset":0,"byteLength":17256,"mode":"ATTRIBUTES","byteStride":12,"count":2392}}},{"buffer":1,"byteOffset":28704,"byteLength":28704,"target":34962,"byteStride":12,"extensions":{"EXT_meshopt_compression":{"buffer":0,"byteOffset":17256,"byteLength":21517,"mode":"ATTRIBUTES","byteStride":12,"count":2392}}},{"buffer":1,"byteOffset":57408,"byteLength":19136,"target":34962,"byteStride":8,"extensions":{"EXT_meshopt_compression":{"buffer":0,"byteOffset":38776,"byteLength":13601,"mode":"ATTRIBUTES","byteStride":8,"count":2392}}},{"buffer":1,"byteOffset":76544,"byteLength":438582,"target":34963,"extensions":{"EXT_meshopt_compression":{"buffer":0,"byteOffset":52380,"byteLength":217858,"mode":"TRIANGLES","byteStride":2,"count":219291}}},{"buffer":1,"byteOffset":515128,"byteLength":6168,"target":34962,"byteStride":12,"extensions":{"EXT_meshopt_compression":{"buffer":0,"byteOffset":270240,"byteLength":3261,"mode":"ATTRIBUTES","byteStride":12,"count":514}}},{"buffer":1,"byteOffset":521296,"byteLength":6168,"target":34962,"byteStride":12,"extensions":{"EXT_meshopt_compression":{"buffer":0,"byteOffset":273504,"byteLength":141,"mode":"ATTRIBUTES","byteStride":12,"count":514}}},{"buffer":1,"byteOffset":527464,"byteLength":95040,"target":34962,"byteStride":12,"extensions":{"EXT_meshopt_compression":{"buffer":0,"byteOffset":273648,"byteLength":41289,"mode":"ATTRIBUTES","byteStride":12,"count":7920}}},{"buffer":1,"byteOffset":622504,"byteLength":95040,"target":34962,"byteStride":12,"extensions":{"EXT_meshopt_compression":{"buffer":0,"byteOffset":314940,"byteLength":1521,"mode":"ATTRIBUTES","byteStride":12,"count":7920}}},{"buffer":1,"byteOffset":717544,"byteLength":5460,"target":34962,"byteStride":12,"extensions":{"EXT_meshopt_compression":{"buffer":0,"byteOffset":316464,"byteLength":2874,"mode":"ATTRIBUTES","byteStride":12,"count":455}}},{"buffer":1,"byteOffset":723004,"byteLength":5460,"target":34962,"byteStride":12,"extensions":{"EXT_meshopt_compression":{"buffer":0,"byteOffset":319340,"byteLength":129,"mode":"ATTRIBUTES","byteStride":12,"count":455}}},{"buffer":1,"byteOffset":728464,"byteLength":11724,"target":34962,"byteStride":12,"extensions":{"EXT_meshopt_compression":{"buffer":0,"byteOffset":319472,"byteLength":6127,"mode":"ATTRIBUTES","byteStride":12,"count":977}}},{"buffer":1,"byteOffset":740188,"byteLength":11724,"target":34962,"byteStride":12,"extensions":{"EXT_meshopt_compression":{"buffer":0,"byteOffset":325600,"byteLength":225,"mode":"ATTRIBUTES","byteStride":12,"count":977}}},{"buffer":1,"byteOffset":751912,"byteLength":23076,"target":34962,"byteStride":12,"extensions":{"EXT_meshopt_compression":{"buffer":0,"byteOffset":325828,"byteLength":11238,"mode":"ATTRIBUTES","byteStride":12,"count":1923}}},{"buffer":1,"byteOffset":774988,"byteLength":23076,"target":34962,"byteStride":12,"extensions":{"EXT_meshopt_compression":{"buffer":0,"byteOffset":337068,"byteLength":405,"mode":"ATTRIBUTES","byteStride":12,"count":1923}}},{"buffer":1,"byteOffset":798064,"byteLength":154536,"target":34962,"byteStride":12,"extensions":{"EXT_meshopt_compression":{"buffer":0,"byteOffset":337476,"byteLength":58705,"mode":"ATTRIBUTES","byteStride":12,"count":12878}}},{"buffer":1,"byteOffset":952600,"byteLength":154536,"target":34962,"byteStride":12,"extensions":{"EXT_meshopt_compression":{"buffer":0,"byteOffset":396184,"byteLength":98715,"mode":"ATTRIBUTES","byteStride":12,"count":12878}}},{"buffer":1,"byteOffset":1107136,"byteLength":105264,"target":34962,"byteStride":12,"extensions":{"EXT_meshopt_compression":{"buffer":0,"byteOffset":494900,"byteLength":43537,"mode":"ATTRIBUTES","byteStride":12,"count":8772}}},{"buffer":1,"byteOffset":1212400,"byteLength":105264,"target":34962,"byteStride":12,"extensions":{"EXT_meshopt_compression":{"buffer":0,"byteOffset":538440,"byteLength":15989,"mode":"ATTRIBUTES","byteStride":12,"count":8772}}},{"buffer":1,"byteOffset":1317664,"byteLength":70176,"target":34962,"byteStride":8,"extensions":{"EXT_meshopt_compression":{"buffer":0,"byteOffset":554432,"byteLength":35628,"mode":"ATTRIBUTES","byteStride":8,"count":8772}}},{"buffer":1,"byteOffset":1387840,"byteLength":96,"target":34962,"byteStride":12,"extensions":{"EXT_meshopt_compression":{"buffer":0,"byteOffset":590060,"byteLength":89,"mode":"ATTRIBUTES","byteStride":12,"count":8}}},{"buffer":1,"byteOffset":1387936,"byteLength":96,"target":34962,"byteStride":12,"extensions":{"EXT_meshopt_compression":{"buffer":0,"byteOffset":590152,"byteLength":50,"mode":"ATTRIBUTES","byteStride":12,"count":8}}},{"buffer":1,"byteOffset":1388032,"byteLength":768,"target":34962,"byteStride":12,"extensions":{"EXT_meshopt_compression":{"buffer":0,"byteOffset":590204,"byteLength":328,"mode":"ATTRIBUTES","byteStride":12,"count":64}}},{"buffer":1,"byteOffset":1388800,"byteLength":768,"target":34962,"byteStride":12,"extensions":{"EXT_meshopt_compression":{"buffer":0,"byteOffset":590532,"byteLength":366,"mode":"ATTRIBUTES","byteStride":12,"count":64}}},{"buffer":1,"byteOffset":1389568,"byteLength":768,"target":34962,"byteStride":12,"extensions":{"EXT_meshopt_compression":{"buffer":0,"byteOffset":590900,"byteLength":328,"mode":"ATTRIBUTES","byteStride":12,"count":64}}},{"buffer":1,"byteOffset":1390336,"byteLength":768,"target":34962,"byteStride":12,"extensions":{"EXT_meshopt_compression":{"buffer":0,"byteOffset":591228,"byteLength":366,"mode":"ATTRIBUTES","byteStride":12,"count":64}}},{"buffer":1,"byteOffset":1391104,"byteLength":15876,"target":34962,"byteStride":12,"extensions":{"EXT_meshopt_compression":{"buffer":0,"byteOffset":591596,"byteLength":10350,"mode":"ATTRIBUTES","byteStride":12,"count":1323}}},{"buffer":1,"byteOffset":1406980,"byteLength":15876,"target":34962,"byteStride":12,"extensions":{"EXT_meshopt_compression":{"buffer":0,"byteOffset":601948,"byteLength":12293,"mode":"ATTRIBUTES","byteStride":12,"count":1323}}},{"buffer":1,"byteOffset":1422856,"byteLength":10584,"target":34962,"byteStride":8,"extensions":{"EXT_meshopt_compression":{"buffer":0,"byteOffset":614244,"byteLength":7071,"mode":"ATTRIBUTES","byteStride":8,"count":1323}}},{"buffer":1,"byteOffset":1433440,"byteLength":14268,"target":34962,"byteStride":12,"extensions":{"EXT_meshopt_compression":{"buffer":0,"byteOffset":621316,"byteLength":8933,"mode":"ATTRIBUTES","byteStride":12,"count":1189}}},{"buffer":1,"byteOffset":1447708,"byteLength":14268,"target":34962,"byteStride":12,"extensions":{"EXT_meshopt_compression":{"buffer":0,"byteOffset":630252,"byteLength":10534,"mode":"ATTRIBUTES","byteStride":12,"count":1189}}},{"buffer":1,"byteOffset":1461976,"byteLength":9512,"target":34962,"byteStride":8,"extensions":{"EXT_meshopt_compression":{"buffer":0,"byteOffset":640788,"byteLength":6891,"mode":"ATTRIBUTES","byteStride":8,"count":1189}}},{"buffer":1,"byteOffset":1471488,"byteLength":35400,"target":34962,"byteStride":12,"extensions":{"EXT_meshopt_compression":{"buffer":0,"byteOffset":647680,"byteLength":16945,"mode":"ATTRIBUTES","byteStride":12,"count":2950}}},{"buffer":1,"byteOffset":1506888,"byteLength":35400,"target":34962,"byteStride":12,"extensions":{"EXT_meshopt_compression":{"buffer":0,"byteOffset":664628,"byteLength":31778,"mode":"ATTRIBUTES","byteStride":12,"count":2950}}},{"buffer":1,"byteOffset":1542288,"byteLength":7056,"target":34962,"byteStride":12,"extensions":{"EXT_meshopt_compression":{"buffer":0,"byteOffset":696408,"byteLength":1844,"mode":"ATTRIBUTES","byteStride":12,"count":588}}},{"buffer":1,"byteOffset":1549344,"byteLength":7056,"target":34962,"byteStride":12,"extensions":{"EXT_meshopt_compression":{"buffer":0,"byteOffset":698252,"byteLength":5832,"mode":"ATTRIBUTES","byteStride":12,"count":588}}},{"buffer":1,"byteOffset":1556400,"byteLength":8760,"target":34962,"byteStride":12,"extensions":{"EXT_meshopt_compression":{"buffer":0,"byteOffset":704084,"byteLength":4466,"mode":"ATTRIBUTES","byteStride":12,"count":730}}},{"buffer":1,"byteOffset":1565160,"byteLength":8760,"target":34962,"byteStride":12,"extensions":{"EXT_meshopt_compression":{"buffer":0,"byteOffset":708552,"byteLength":6185,"mode":"ATTRIBUTES","byteStride":12,"count":730}}},{"buffer":1,"byteOffset":1573920,"byteLength":5840,"target":34962,"byteStride":8,"extensions":{"EXT_meshopt_compression":{"buffer":0,"byteOffset":714740,"byteLength":2354,"mode":"ATTRIBUTES","byteStride":8,"count":730}}},{"buffer":1,"byteOffset":1579760,"byteLength":26136,"target":34962,"byteStride":12,"extensions":{"EXT_meshopt_compression":{"buffer":0,"byteOffset":717096,"byteLength":15270,"mode":"ATTRIBUTES","byteStride":12,"count":2178}}},{"buffer":1,"byteOffset":1605896,"byteLength":26136,"target":34962,"byteStride":12,"extensions":{"EXT_meshopt_compression":{"buffer":0,"byteOffset":732368,"byteLength":21437,"mode":"ATTRIBUTES","byteStride":12,"count":2178}}},{"buffer":1,"byteOffset":1632032,"byteLength":17424,"target":34962,"byteStride":8,"extensions":{"EXT_meshopt_compression":{"buffer":0,"byteOffset":753808,"byteLength":6842,"mode":"ATTRIBUTES","byteStride":8,"count":2178}}},{"buffer":1,"byteOffset":1649456,"byteLength":194460,"target":34962,"byteStride":12,"extensions":{"EXT_meshopt_compression":{"buffer":0,"byteOffset":760652,"byteLength":73286,"mode":"ATTRIBUTES","byteStride":12,"count":16205}}},{"buffer":1,"byteOffset":1843916,"byteLength":194460,"target":34962,"byteStride":12,"extensions":{"EXT_meshopt_compression":{"buffer":0,"byteOffset":833940,"byteLength":121515,"mode":"ATTRIBUTES","byteStride":12,"count":16205}}},{"buffer":1,"byteOffset":2038376,"byteLength":237456,"target":34962,"byteStride":12,"extensions":{"EXT_meshopt_compression":{"buffer":0,"byteOffset":955456,"byteLength":96029,"mode":"ATTRIBUTES","byteStride":12,"count":19788}}},{"buffer":1,"byteOffset":2275832,"byteLength":237456,"target":34962,"byteStride":12,"extensions":{"EXT_meshopt_compression":{"buffer":0,"byteOffset":1051488,"byteLength":158911,"mode":"ATTRIBUTES","byteStride":12,"count":19788}}},{"buffer":1,"byteOffset":2513288,"byteLength":35400,"target":34962,"byteStride":12,"extensions":{"EXT_meshopt_compression":{"buffer":0,"byteOffset":1210400,"byteLength":16945,"mode":"ATTRIBUTES","byteStride":12,"count":2950}}},{"buffer":1,"byteOffset":2548688,"byteLength":35400,"target":34962,"byteStride":12,"extensions":{"EXT_meshopt_compression":{"buffer":0,"byteOffset":1227348,"byteLength":31778,"mode":"ATTRIBUTES","byteStride":12,"count":2950}}}],"samplers":[{"magFilter":9729,"minFilter":9987,"wrapS":10497,"wrapT":10497},{"magFilter":9729,"minFilter":9987,"wrapS":33071,"wrapT":33071}],"textures":[{"sampler":0,"extensions":{"EXT_texture_webp":{"source":0}}},{"sampler":0,"extensions":{"EXT_texture_webp":{"source":1}}},{"sampler":0,"extensions":{"EXT_texture_webp":{"source":3}}},{"sampler":0,"extensions":{"EXT_texture_webp":{"source":2}}},{"sampler":1,"extensions":{"EXT_texture_webp":{"source":6}}},{"sampler":0,"extensions":{"EXT_texture_webp":{"source":5}}},{"sampler":0,"extensions":{"EXT_texture_webp":{"source":4}}}],"images":[{"name":"book_pattern_nor_gl_2k","mimeType":"image/webp","uri":"shared/8de172b46ec41fd3863b660a.webp"},{"name":"book_pattern_rough_2k","mimeType":"image/webp","uri":"shared/a04d51bd9431742f3e8e78f4.webp"},{"name":"compressed-paper-normal","mimeType":"image/webp","uri":"shared/339c1ac519928878fbaa1237.webp"},{"name":"compressed-paper-color","mimeType":"image/webp","uri":"shared/7701c62282fa7f26c46af450.webp"},{"name":"zarathustra_print_orm","mimeType":"image/webp","uri":"shared/2e57026262aef64a682fe1ad.webp"},{"name":"zarathustra_print_normal","mimeType":"image/webp","uri":"shared/87e03fd99a25eaf4bab50cd4.webp"},{"name":"edition-zarathustra","mimeType":"image/webp","uri":"shared/658957751eb9cf100d35812e.webp"}],"buffers":[{"uri":"shared/6e99e1ac3a56cf61dda83969.bin","byteLength":1259128},{"byteLength":2584088,"extensions":{"EXT_meshopt_compression":{"fallback":true}}}],"materials":[{"name":"zarathustra case material.002","doubleSided":true,"pbrMetallicRoughness":{"baseColorFactor":[0.48514994978904724,0.4793201684951782,0.40724021196365356,1],"metallicFactor":0,"metallicRoughnessTexture":{"index":1}},"normalTexture":{"index":0,"scale":0.05999999865889549}},{"name":"MAT_zarathustra_BackInk","doubleSided":true,"pbrMetallicRoughness":{"baseColorFactor":[0.02500000037252903,0.03200000151991844,0.027000000700354576,1],"roughnessFactor":0.7200000286102295,"metallicFactor":0}},{"name":"MAT_zarathustra_Stamped_Ink.002","doubleSided":true,"pbrMetallicRoughness":{"baseColorFactor":[0.02500000037252903,0.03200000151991844,0.027000000700354576,1],"roughnessFactor":0.3400000035762787,"metallicFactor":0},"extensions":{"KHR_materials_clearcoat":{"clearcoatFactor":0.44999998807907104,"clearcoatRoughnessFactor":0.20000000298023224}}},{"name":"MAT_zarathustra_Stamped_Ink.003","doubleSided":true,"pbrMetallicRoughness":{"baseColorFactor":[0.039546236395835876,0.03071344457566738,0.03310476616024971,1],"roughnessFactor":0.3400000035762787,"metallicFactor":0},"extensions":{"KHR_materials_clearcoat":{"clearcoatFactor":0.44999998807907104,"clearcoatRoughnessFactor":0.20000000298023224}}},{"name":"Compressed paper cut surface","doubleSided":true,"pbrMetallicRoughness":{"roughnessFactor":0.8999999761581421,"metallicFactor":0,"baseColorTexture":{"index":2}},"normalTexture":{"index":3}},{"name":"Compressed ivory stock 2","doubleSided":true,"pbrMetallicRoughness":{"baseColorFactor":[0.7279999852180481,0.7129999995231628,0.656000018119812,1],"roughnessFactor":0.8600000143051147,"metallicFactor":0}},{"name":"MAT_zarathustra_Registered_Print.001","extras":{"surface_finish":"Registered print, selective varnish"},"doubleSided":true,"pbrMetallicRoughness":{"baseColorTexture":{"index":4},"metallicRoughnessTexture":{"index":6}},"normalTexture":{"index":5},"extensions":{"KHR_materials_clearcoat":{"clearcoatFactor":1,"clearcoatRoughnessFactor":0.23999999463558197,"clearcoatTexture":{"index":6}}}},{"name":"Endband cotton ecru","doubleSided":true,"pbrMetallicRoughness":{"baseColorFactor":[0.5,0.46000000834465027,0.3499999940395355,1],"roughnessFactor":0.8799999952316284,"metallicFactor":0}},{"name":"Binding linen warm ecru","doubleSided":true,"pbrMetallicRoughness":{"baseColorFactor":[0.3799999952316284,0.3400000035762787,0.25999999046325684,1],"roughnessFactor":0.9300000071525574,"metallicFactor":0}},{"name":"zarathustra woven ribbon.002","doubleSided":true,"pbrMetallicRoughness":{"baseColorFactor":[0.039546236395835876,0.03071344457566738,0.03310476616024971,1],"metallicFactor":0,"metallicRoughnessTexture":{"index":1}},"normalTexture":{"index":0,"scale":1.149999976158142},"extensions":{"KHR_materials_sheen":{"sheenColorFactor":[1,1,1],"sheenRoughnessFactor":0.5}}}],"meshes":[{"name":"Pressed case joint Back board.029","primitives":[{"attributes":{"POSITION":0,"NORMAL":1,"TEXCOORD_0":2},"mode":4,"material":0,"indices":3}]},{"name":"Back collection.005","primitives":[{"attributes":{"POSITION":4,"NORMAL":5},"mode":4,"material":1,"indices":6}]},{"name":"Back description.005","primitives":[{"attributes":{"POSITION":7,"NORMAL":8},"mode":4,"material":1,"indices":9}]},{"name":"Back edition.005","primitives":[{"attributes":{"POSITION":10,"NORMAL":11},"mode":4,"material":2,"indices":12}]},{"name":"Back ISBN.005","primitives":[{"attributes":{"POSITION":13,"NORMAL":14},"mode":4,"material":1,"indices":15}]},{"name":"Back title.005","primitives":[{"attributes":{"POSITION":16,"NORMAL":17},"mode":4,"material":2,"indices":18}]},{"name":"Collection mark.021","primitives":[{"attributes":{"POSITION":19,"NORMAL":20},"mode":4,"material":3,"indices":21}]},{"name":"Continuous compressed cut zarathustra.003","primitives":[{"attributes":{"POSITION":22,"NORMAL":23,"TEXCOORD_0":24},"mode":4,"material":4,"indices":25},{"attributes":{"POSITION":26,"NORMAL":27},"mode":4,"material":5,"indices":28}]},{"name":"Curved foil rule.042","primitives":[{"attributes":{"POSITION":29,"NORMAL":30},"mode":4,"material":3,"indices":31}]},{"name":"Curved foil rule.043","primitives":[{"attributes":{"POSITION":32,"NORMAL":33},"mode":4,"material":3,"indices":31}]},{"name":"Pressed case joint Wrapped printed cover.004","primitives":[{"attributes":{"POSITION":34,"NORMAL":35,"TEXCOORD_0":36},"mode":4,"material":6,"indices":37},{"attributes":{"POSITION":38,"NORMAL":39,"TEXCOORD_0":40},"mode":4,"material":0,"indices":41}]},{"name":"Head textile endband zarathustra.004","primitives":[{"attributes":{"POSITION":42,"NORMAL":43},"mode":4,"material":7,"indices":44}]},{"name":"Linen spine lining zarathustra.004","primitives":[{"attributes":{"POSITION":45,"NORMAL":46},"mode":4,"material":8,"indices":47}]},{"name":"Ribbon flexible satin zarathustra.004","primitives":[{"attributes":{"POSITION":48,"NORMAL":49,"TEXCOORD_0":50},"mode":4,"material":9,"indices":51}]},{"name":"Rounded cloth spine.029","primitives":[{"attributes":{"POSITION":52,"NORMAL":53,"TEXCOORD_0":54},"mode":4,"material":0,"indices":55}]},{"name":"Spine author.021","primitives":[{"attributes":{"POSITION":56,"NORMAL":57},"mode":4,"material":3,"indices":58}]},{"name":"Spine title.029","primitives":[{"attributes":{"POSITION":59,"NORMAL":60},"mode":4,"material":3,"indices":61}]},{"name":"Tail textile endband zarathustra.004","primitives":[{"attributes":{"POSITION":62,"NORMAL":63},"mode":4,"material":7,"indices":44}]}],"nodes":[{"name":"Back board.029","extras":{"edge_refined":true,"unpressed_mesh":"Back board.037","pressed_joint_revision":1,"joint_depth_mm":1.03574908123516,"joint_center_mm":6.400000000000001},"translation":[0,0,-0.12449999898672104],"mesh":0},{"name":"Back collection.005","translation":[0,-0.44207996129989624,-0.13650000095367432],"rotation":[0,-0.7071068286895752,0.7071068286895752,3.090862321641907e-8],"mesh":1},{"name":"Back description.005","translation":[0,0.046049997210502625,-0.13650000095367432],"rotation":[0,-0.7071068286895752,0.7071068286895752,3.090862321641907e-8],"mesh":2},{"name":"Back edition.005","translation":[0,-0.6262799501419067,-0.13650000095367432],"rotation":[0,-0.7071068286895752,0.7071068286895752,3.090862321641907e-8],"mesh":3},{"name":"Back ISBN.005","translation":[0,-0.7183799743652344,-0.13650000095367432],"rotation":[0,-0.7071068286895752,0.7071068286895752,3.090862321641907e-8],"mesh":4},{"name":"Back title.005","translation":[0,0.5341799259185791,-0.13650000095367432],"rotation":[0,-0.7071068286895752,0.7071068286895752,3.090862321641907e-8],"mesh":5},{"name":"Collection mark.021","mesh":6},{"name":"Compressed paper signatures zarathustra.003","extras":{"paper_surface_revision":1,"leaf_count":184,"paper_caliper_mm":0.11195652173913045,"binding_structure":"Rounded and backed signatures"},"mesh":7},{"name":"Curved foil rule.042","mesh":8},{"name":"Curved foil rule.043","mesh":9},{"name":"Wrapped printed cover.004","extras":{"edge_refined":true,"unpressed_mesh":"Front board.037","pressed_joint_revision":1,"joint_depth_mm":1.1251626044089802,"joint_center_mm":6.400000000000001},"translation":[0.5954999923706055,0,0],"mesh":10},{"name":"FrontHinge.029","translation":[-0.5954999923706055,0,0.12449999898672104],"children":[10]},{"name":"Head textile endband zarathustra.004","extras":{"binding_revision":2},"mesh":11},{"name":"Linen spine lining zarathustra.004","extras":{"binding_revision":2},"mesh":12},{"name":"Ribbon flexible satin zarathustra.004","extras":{"binding_revision":2,"ribbon_width_dm":0.043,"ribbon_length_dm":0.29,"ribbon_anchor_dm":[0,-0.9129999999999999,0.006]},"mesh":13},{"name":"Rounded cloth spine.029","mesh":14},{"name":"Spine author.021","mesh":15},{"name":"Spine title.029","mesh":16},{"name":"Tail textile endband zarathustra.004","extras":{"binding_revision":2},"mesh":17},{"name":"Publisher_zarathustra.001","extras":{"slug":"zarathustra","dimensions_mm":[119.1,184.2,27],"model_design":"Publisher front artwork on a showcase binding; spine and interior are custom reconstructions"},"scale":[0.09655454754829407,0.09999226033687592,0.09963102638721466],"children":[0,1,2,3,4,5,6,7,8,9,11,12,13,14,15,16,17,18]}],"scenes":[{"name":"Library Publisher Editions.001","nodes":[19]}],"scene":0,"extensionsUsed":["EXT_meshopt_compression","EXT_texture_webp","KHR_materials_clearcoat","KHR_materials_sheen"],"extensionsRequired":["EXT_meshopt_compression","EXT_texture_webp"]}