{"asset":{"generator":"glTF-Transform v4.5.0","version":"2.0"},"accessors":[{"type":"VEC3","componentType":5126,"count":2392,"max":[0.5952146649360657,0.920775830745697,0.010829009115695953],"min":[-0.5952146649360657,-0.920775830745697,-0.010829009115695953],"normalized":false,"byteOffset":0,"bufferView":0},{"type":"VEC3","componentType":5126,"count":2392,"normalized":false,"byteOffset":0,"bufferView":1},{"type":"VEC2","componentType":5126,"count":2392,"normalized":false,"byteOffset":0,"bufferView":2},{"type":"SCALAR","componentType":5123,"count":12612,"normalized":false,"byteOffset":0,"bufferView":3},{"type":"VEC3","componentType":5126,"count":514,"max":[0.1009504571557045,0,0.0053944955579936504],"min":[-0.09995229542255402,0,-0.005732110235840082],"normalized":false,"byteOffset":0,"bufferView":4},{"type":"VEC3","componentType":5126,"count":514,"normalized":false,"byteOffset":0,"bufferView":5},{"type":"VEC2","componentType":5126,"count":514,"normalized":false,"byteOffset":0,"bufferView":6},{"type":"SCALAR","componentType":5123,"count":1482,"normalized":false,"byteOffset":25224,"bufferView":3},{"type":"VEC3","componentType":5126,"count":7920,"max":[0.17263604700565338,0,0.07053427398204803],"min":[-0.17455384135246277,0,-0.07163350284099579],"normalized":false,"byteOffset":0,"bufferView":7},{"type":"VEC3","componentType":5126,"count":7920,"normalized":false,"byteOffset":0,"bufferView":8},{"type":"VEC2","componentType":5126,"count":7920,"normalized":false,"byteOffset":0,"bufferView":9},{"type":"SCALAR","componentType":5123,"count":23436,"normalized":false,"byteOffset":28188,"bufferView":3},{"type":"VEC3","componentType":5126,"count":455,"max":[0.08104073256254196,0,0.00647339504212141],"min":[-0.0798429325222969,0,-0.00688733858987689],"normalized":false,"byteOffset":0,"bufferView":10},{"type":"VEC3","componentType":5126,"count":455,"normalized":false,"byteOffset":0,"bufferView":11},{"type":"VEC2","componentType":5126,"count":455,"normalized":false,"byteOffset":0,"bufferView":12},{"type":"SCALAR","componentType":5123,"count":1335,"normalized":false,"byteOffset":75060,"bufferView":3},{"type":"VEC3","componentType":5126,"count":977,"max":[0.07914110273122787,0,0.005671926308423281],"min":[-0.0783858671784401,0,-0.0060187154449522495],"normalized":false,"byteOffset":0,"bufferView":13},{"type":"VEC3","componentType":5126,"count":977,"normalized":false,"byteOffset":0,"bufferView":14},{"type":"VEC2","componentType":5126,"count":977,"normalized":false,"byteOffset":0,"bufferView":15},{"type":"SCALAR","componentType":5123,"count":2889,"normalized":false,"byteOffset":77730,"bufferView":3},{"type":"VEC3","componentType":5126,"count":170,"max":[0.5605000257492065,0.8884999752044678,0.0010000000474974513],"min":[-0.5605000257492065,-0.8884999752044678,-0.0010000000474974513],"normalized":false,"byteOffset":0,"bufferView":16},{"type":"VEC3","componentType":5126,"count":170,"normalized":false,"byteOffset":0,"bufferView":17},{"type":"VEC2","componentType":5126,"count":170,"normalized":false,"byteOffset":0,"bufferView":18},{"type":"VEC2","componentType":5126,"count":170,"normalized":false,"byteOffset":0,"bufferView":19},{"type":"SCALAR","componentType":5123,"count":564,"normalized":false,"byteOffset":83508,"bufferView":3},{"type":"VEC3","componentType":5126,"count":1923,"max":[0.21857744455337524,0,0.023399895057082176],"min":[-0.21879960596561432,0,-0.016835398972034454],"normalized":false,"byteOffset":0,"bufferView":20},{"type":"VEC3","componentType":5126,"count":1923,"normalized":false,"byteOffset":0,"bufferView":21},{"type":"VEC2","componentType":5126,"count":1923,"normalized":false,"byteOffset":0,"bufferView":22},{"type":"SCALAR","componentType":5123,"count":5685,"normalized":false,"byteOffset":84636,"bufferView":3},{"type":"VEC3","componentType":5126,"count":12878,"max":[-0.6390820145606995,-0.5680285692214966,0.010499999858438969],"min":[-0.6397500038146973,-0.8318914175033569,-0.010499999858438969],"normalized":false,"byteOffset":0,"bufferView":23},{"type":"VEC3","componentType":5126,"count":12878,"normalized":false,"byteOffset":0,"bufferView":24},{"type":"VEC2","componentType":5126,"count":12878,"normalized":false,"byteOffset":0,"bufferView":25},{"type":"SCALAR","componentType":5123,"count":19380,"normalized":false,"byteOffset":96006,"bufferView":3},{"type":"VEC3","componentType":5126,"count":8772,"max":[0.5684999823570251,0.893099308013916,0.10300000011920929],"min":[-0.6085000038146973,-0.8930827975273132,-0.10300000011920929],"normalized":false,"byteOffset":0,"bufferView":26},{"type":"VEC3","componentType":5126,"count":8772,"normalized":false,"byteOffset":0,"bufferView":27},{"type":"VEC2","componentType":5126,"count":8772,"normalized":false,"byteOffset":0,"bufferView":28},{"type":"SCALAR","componentType":5123,"count":49152,"normalized":false,"byteOffset":134766,"bufferView":3},{"type":"VEC3","componentType":5126,"count":8,"max":[0.5684999823570251,0.8930000066757202,0.10300000011920929],"min":[-0.5855000019073486,-0.8930000066757202,-0.10300000011920929],"normalized":false,"byteOffset":0,"bufferView":29},{"type":"VEC3","componentType":5126,"count":8,"normalized":false,"byteOffset":0,"bufferView":30},{"type":"VEC2","componentType":5126,"count":8,"normalized":false,"byteOffset":0,"bufferView":31},{"type":"SCALAR","componentType":5123,"count":12,"normalized":false,"byteOffset":233070,"bufferView":3},{"type":"VEC3","componentType":5126,"count":64,"max":[-0.6201047301292419,-0.4963400065898895,0.07968000322580338],"min":[-0.6395999789237976,-0.49834001064300537,-0.07968000322580338],"normalized":false,"byteOffset":0,"bufferView":32},{"type":"VEC3","componentType":5126,"count":64,"normalized":false,"byteOffset":0,"bufferView":33},{"type":"VEC2","componentType":5126,"count":64,"normalized":false,"byteOffset":0,"bufferView":34},{"type":"SCALAR","componentType":5123,"count":96,"normalized":false,"byteOffset":233094,"bufferView":3},{"type":"VEC3","componentType":5126,"count":64,"max":[-0.6201047301292419,0.42465999722480774,0.07968000322580338],"min":[-0.6395999789237976,0.4226599931716919,-0.07968000322580338],"normalized":false,"byteOffset":0,"bufferView":35},{"type":"VEC3","componentType":5126,"count":64,"normalized":false,"byteOffset":0,"bufferView":36},{"type":"VEC2","componentType":5126,"count":64,"normalized":false,"byteOffset":0,"bufferView":37},{"type":"VEC3","componentType":5126,"count":170,"max":[0.5605000257492065,0.8884999752044678,0.0010000000474974513],"min":[-0.5605000257492065,-0.8884999752044678,-0.0010000000474974513],"normalized":false,"byteOffset":0,"bufferView":38},{"type":"VEC3","componentType":5126,"count":170,"normalized":false,"byteOffset":0,"bufferView":39},{"type":"VEC2","componentType":5126,"count":170,"normalized":false,"byteOffset":0,"bufferView":40},{"type":"VEC2","componentType":5126,"count":170,"normalized":false,"byteOffset":0,"bufferView":41},{"type":"VEC3","componentType":5126,"count":1323,"max":[0.595214307308197,0.9207764267921448,0.01176385022699833],"min":[-0.595214307308197,-0.9207764267921448,-0.009335865266621113],"normalized":false,"byteOffset":0,"bufferView":42},{"type":"VEC3","componentType":5126,"count":1323,"normalized":false,"byteOffset":0,"bufferView":43},{"type":"VEC2","componentType":5126,"count":1323,"normalized":false,"byteOffset":0,"bufferView":44},{"type":"VEC2","componentType":5126,"count":1323,"normalized":false,"byteOffset":0,"bufferView":45},{"type":"VEC2","componentType":5126,"count":1323,"normalized":false,"byteOffset":0,"bufferView":46},{"type":"VEC2","componentType":5126,"count":1323,"normalized":false,"byteOffset":0,"bufferView":47},{"type":"SCALAR","componentType":5123,"count":6702,"normalized":false,"byteOffset":233286,"bufferView":3},{"type":"VEC3","componentType":5126,"count":1189,"max":[0.595214307308197,0.9207764267921448,-0.004619614686816931],"min":[-0.595214307308197,-0.9207764267921448,-0.01176384836435318],"normalized":false,"byteOffset":0,"bufferView":48},{"type":"VEC3","componentType":5126,"count":1189,"normalized":false,"byteOffset":0,"bufferView":49},{"type":"VEC2","componentType":5126,"count":1189,"normalized":false,"byteOffset":0,"bufferView":50},{"type":"VEC2","componentType":5126,"count":1189,"normalized":false,"byteOffset":0,"bufferView":51},{"type":"VEC2","componentType":5126,"count":1189,"normalized":false,"byteOffset":0,"bufferView":52},{"type":"VEC2","componentType":5126,"count":1189,"normalized":false,"byteOffset":0,"bufferView":53},{"type":"SCALAR","componentType":5123,"count":5922,"normalized":false,"byteOffset":246690,"bufferView":3},{"type":"VEC3","componentType":5126,"count":2950,"max":[-0.5802500247955322,0.896041989326477,0.10300000011920929],"min":[-0.6117457151412964,0.8879579901695251,-0.10300000011920929],"normalized":false,"byteOffset":0,"bufferView":54},{"type":"VEC3","componentType":5126,"count":2950,"normalized":false,"byteOffset":0,"bufferView":55},{"type":"SCALAR","componentType":5123,"count":17640,"normalized":false,"byteOffset":258534,"bufferView":3},{"type":"VEC3","componentType":5126,"count":588,"max":[-0.5862094759941101,0.8809999823570251,0.10300000011920929],"min":[-0.6115000247955322,-0.8809999823570251,-0.10300000011920929],"normalized":false,"byteOffset":0,"bufferView":56},{"type":"VEC3","componentType":5126,"count":588,"normalized":false,"byteOffset":0,"bufferView":57},{"type":"SCALAR","componentType":5123,"count":1164,"normalized":false,"byteOffset":293814,"bufferView":3},{"type":"VEC3","componentType":5126,"count":730,"max":[0.02171694114804268,-0.912999153137207,0.02216394618153572],"min":[-0.02171694114804268,-1.2029999494552612,0.006000000052154064],"normalized":false,"byteOffset":0,"bufferView":58},{"type":"VEC3","componentType":5126,"count":730,"normalized":false,"byteOffset":0,"bufferView":59},{"type":"VEC2","componentType":5126,"count":730,"normalized":false,"byteOffset":0,"bufferView":60},{"type":"SCALAR","componentType":5123,"count":4368,"normalized":false,"byteOffset":296142,"bufferView":3},{"type":"VEC3","componentType":5126,"count":2178,"max":[-0.587658703327179,0.9210719466209412,0.12449999898672104],"min":[-0.6379996538162231,-0.9210706949234009,-0.12449999898672104],"normalized":false,"byteOffset":0,"bufferView":61},{"type":"VEC3","componentType":5126,"count":2178,"normalized":false,"byteOffset":0,"bufferView":62},{"type":"VEC2","componentType":5126,"count":2178,"normalized":false,"byteOffset":0,"bufferView":63},{"type":"SCALAR","componentType":5123,"count":13056,"normalized":false,"byteOffset":304878,"bufferView":3},{"type":"VEC3","componentType":5126,"count":16205,"max":[-0.6390455961227417,0.8196899890899658,0.011007807217538357],"min":[-0.6397500038146973,0.46970999240875244,-0.011007807217538357],"normalized":false,"byteOffset":0,"bufferView":64},{"type":"VEC3","componentType":5126,"count":16205,"normalized":false,"byteOffset":0,"bufferView":65},{"type":"VEC2","componentType":5126,"count":16205,"normalized":false,"byteOffset":0,"bufferView":66},{"type":"SCALAR","componentType":5123,"count":24540,"normalized":false,"byteOffset":330990,"bufferView":3},{"type":"VEC3","componentType":5126,"count":19788,"max":[-0.636763870716095,0.30980873107910156,0.02850000001490116],"min":[-0.6397500038146973,-0.30980873107910156,-0.02850000001490116],"normalized":false,"byteOffset":0,"bufferView":67},{"type":"VEC3","componentType":5126,"count":19788,"normalized":false,"byteOffset":0,"bufferView":68},{"type":"VEC2","componentType":5126,"count":19788,"normalized":false,"byteOffset":0,"bufferView":69},{"type":"SCALAR","componentType":5123,"count":29820,"normalized":false,"byteOffset":380070,"bufferView":3},{"type":"VEC3","componentType":5126,"count":2950,"max":[-0.5802500247955322,-0.8879579901695251,0.10300000011920929],"min":[-0.6117457151412964,-0.896041989326477,-0.10300000011920929],"normalized":false,"byteOffset":0,"bufferView":70},{"type":"VEC3","componentType":5126,"count":2950,"normalized":false,"byteOffset":0,"bufferView":71},{"type":"VEC3","componentType":5126,"count":1066,"max":[1.1160000562667847,0.8889999985694885,0.003324985969811678],"min":[-0.000021593450583168305,-0.8889999985694885,0],"normalized":false,"byteOffset":0,"bufferView":72},{"type":"VEC3","componentType":5126,"count":1066,"normalized":false,"byteOffset":0,"bufferView":73},{"type":"VEC2","componentType":5126,"count":1066,"normalized":false,"byteOffset":0,"bufferView":74},{"type":"SCALAR","componentType":5123,"count":6384,"normalized":false,"byteOffset":439710,"bufferView":3},{"type":"VEC3","componentType":5126,"count":7702,"max":[0.7046425938606262,-0.07880889624357224,0.003823809092864394],"min":[0.4250589907169342,-0.10394001007080078,0.003800930455327034],"normalized":false,"byteOffset":0,"bufferView":75},{"type":"VEC3","componentType":5126,"count":7702,"normalized":false,"byteOffset":0,"bufferView":76},{"type":"VEC2","componentType":5126,"count":7702,"normalized":false,"byteOffset":0,"bufferView":77},{"type":"SCALAR","componentType":5123,"count":22656,"normalized":false,"byteOffset":452478,"bufferView":3},{"type":"VEC3","componentType":5126,"count":9418,"max":[0.694778323173523,-0.6560541987419128,0.003823675913736224],"min":[0.43420249223709106,-0.6702813506126404,0.0038031842559576035],"normalized":false,"byteOffset":0,"bufferView":78},{"type":"VEC3","componentType":5126,"count":9418,"normalized":false,"byteOffset":0,"bufferView":79},{"type":"VEC2","componentType":5126,"count":9418,"normalized":false,"byteOffset":0,"bufferView":80},{"type":"SCALAR","componentType":5123,"count":27840,"normalized":false,"byteOffset":497790,"bufferView":3},{"type":"VEC3","componentType":5126,"count":10226,"max":[0.7621284127235413,0.4334925413131714,0.00382435810752213],"min":[0.3669087588787079,0.2699277102947235,0.00378001993522048],"normalized":false,"byteOffset":0,"bufferView":81},{"type":"VEC3","componentType":5126,"count":10226,"normalized":false,"byteOffset":0,"bufferView":82},{"type":"VEC2","componentType":5126,"count":10226,"normalized":false,"byteOffset":0,"bufferView":83},{"type":"SCALAR","componentType":5123,"count":29820,"normalized":false,"byteOffset":553470,"bufferView":3}],"bufferViews":[{"buffer":1,"byteOffset":0,"byteLength":28704,"target":34962,"byteStride":12,"extensions":{"EXT_meshopt_compression":{"buffer":0,"byteOffset":0,"byteLength":17256,"mode":"ATTRIBUTES","byteStride":12,"count":2392}}},{"buffer":1,"byteOffset":28704,"byteLength":28704,"target":34962,"byteStride":12,"extensions":{"EXT_meshopt_compression":{"buffer":0,"byteOffset":17256,"byteLength":21517,"mode":"ATTRIBUTES","byteStride":12,"count":2392}}},{"buffer":1,"byteOffset":57408,"byteLength":19136,"target":34962,"byteStride":8,"extensions":{"EXT_meshopt_compression":{"buffer":0,"byteOffset":38776,"byteLength":13601,"mode":"ATTRIBUTES","byteStride":8,"count":2392}}},{"buffer":1,"byteOffset":76544,"byteLength":613110,"target":34963,"extensions":{"EXT_meshopt_compression":{"buffer":0,"byteOffset":52380,"byteLength":297716,"mode":"TRIANGLES","byteStride":2,"count":306555}}},{"buffer":1,"byteOffset":689656,"byteLength":6168,"target":34962,"byteStride":12,"extensions":{"EXT_meshopt_compression":{"buffer":0,"byteOffset":350096,"byteLength":3261,"mode":"ATTRIBUTES","byteStride":12,"count":514}}},{"buffer":1,"byteOffset":695824,"byteLength":6168,"target":34962,"byteStride":12,"extensions":{"EXT_meshopt_compression":{"buffer":0,"byteOffset":353360,"byteLength":141,"mode":"ATTRIBUTES","byteStride":12,"count":514}}},{"buffer":1,"byteOffset":701992,"byteLength":4112,"target":34962,"byteStride":8,"extensions":{"EXT_meshopt_compression":{"buffer":0,"byteOffset":353504,"byteLength":1619,"mode":"ATTRIBUTES","byteStride":8,"count":514}}},{"buffer":1,"byteOffset":706104,"byteLength":95040,"target":34962,"byteStride":12,"extensions":{"EXT_meshopt_compression":{"buffer":0,"byteOffset":355124,"byteLength":41289,"mode":"ATTRIBUTES","byteStride":12,"count":7920}}},{"buffer":1,"byteOffset":801144,"byteLength":95040,"target":34962,"byteStride":12,"extensions":{"EXT_meshopt_compression":{"buffer":0,"byteOffset":396416,"byteLength":1521,"mode":"ATTRIBUTES","byteStride":12,"count":7920}}},{"buffer":1,"byteOffset":896184,"byteLength":63360,"target":34962,"byteStride":8,"extensions":{"EXT_meshopt_compression":{"buffer":0,"byteOffset":397940,"byteLength":23154,"mode":"ATTRIBUTES","byteStride":8,"count":7920}}},{"buffer":1,"byteOffset":959544,"byteLength":5460,"target":34962,"byteStride":12,"extensions":{"EXT_meshopt_compression":{"buffer":0,"byteOffset":421096,"byteLength":2874,"mode":"ATTRIBUTES","byteStride":12,"count":455}}},{"buffer":1,"byteOffset":965004,"byteLength":5460,"target":34962,"byteStride":12,"extensions":{"EXT_meshopt_compression":{"buffer":0,"byteOffset":423972,"byteLength":129,"mode":"ATTRIBUTES","byteStride":12,"count":455}}},{"buffer":1,"byteOffset":970464,"byteLength":3640,"target":34962,"byteStride":8,"extensions":{"EXT_meshopt_compression":{"buffer":0,"byteOffset":424104,"byteLength":1493,"mode":"ATTRIBUTES","byteStride":8,"count":455}}},{"buffer":1,"byteOffset":974104,"byteLength":11724,"target":34962,"byteStride":12,"extensions":{"EXT_meshopt_compression":{"buffer":0,"byteOffset":425600,"byteLength":6127,"mode":"ATTRIBUTES","byteStride":12,"count":977}}},{"buffer":1,"byteOffset":985828,"byteLength":11724,"target":34962,"byteStride":12,"extensions":{"EXT_meshopt_compression":{"buffer":0,"byteOffset":431728,"byteLength":225,"mode":"ATTRIBUTES","byteStride":12,"count":977}}},{"buffer":1,"byteOffset":997552,"byteLength":7816,"target":34962,"byteStride":8,"extensions":{"EXT_meshopt_compression":{"buffer":0,"byteOffset":431956,"byteLength":2976,"mode":"ATTRIBUTES","byteStride":8,"count":977}}},{"buffer":1,"byteOffset":1005368,"byteLength":2040,"target":34962,"byteStride":12,"extensions":{"EXT_meshopt_compression":{"buffer":0,"byteOffset":434932,"byteLength":1070,"mode":"ATTRIBUTES","byteStride":12,"count":170}}},{"buffer":1,"byteOffset":1007408,"byteLength":2040,"target":34962,"byteStride":12,"extensions":{"EXT_meshopt_compression":{"buffer":0,"byteOffset":436004,"byteLength":1512,"mode":"ATTRIBUTES","byteStride":12,"count":170}}},{"buffer":1,"byteOffset":1009448,"byteLength":1360,"target":34962,"byteStride":8,"extensions":{"EXT_meshopt_compression":{"buffer":0,"byteOffset":437516,"byteLength":1154,"mode":"ATTRIBUTES","byteStride":8,"count":170}}},{"buffer":1,"byteOffset":1010808,"byteLength":1360,"target":34962,"byteStride":8,"extensions":{"EXT_meshopt_compression":{"buffer":0,"byteOffset":438672,"byteLength":663,"mode":"ATTRIBUTES","byteStride":8,"count":170}}},{"buffer":1,"byteOffset":1012168,"byteLength":23076,"target":34962,"byteStride":12,"extensions":{"EXT_meshopt_compression":{"buffer":0,"byteOffset":439336,"byteLength":11238,"mode":"ATTRIBUTES","byteStride":12,"count":1923}}},{"buffer":1,"byteOffset":1035244,"byteLength":23076,"target":34962,"byteStride":12,"extensions":{"EXT_meshopt_compression":{"buffer":0,"byteOffset":450576,"byteLength":405,"mode":"ATTRIBUTES","byteStride":12,"count":1923}}},{"buffer":1,"byteOffset":1058320,"byteLength":15384,"target":34962,"byteStride":8,"extensions":{"EXT_meshopt_compression":{"buffer":0,"byteOffset":450984,"byteLength":5632,"mode":"ATTRIBUTES","byteStride":8,"count":1923}}},{"buffer":1,"byteOffset":1073704,"byteLength":154536,"target":34962,"byteStride":12,"extensions":{"EXT_meshopt_compression":{"buffer":0,"byteOffset":456616,"byteLength":58705,"mode":"ATTRIBUTES","byteStride":12,"count":12878}}},{"buffer":1,"byteOffset":1228240,"byteLength":154536,"target":34962,"byteStride":12,"extensions":{"EXT_meshopt_compression":{"buffer":0,"byteOffset":515324,"byteLength":98715,"mode":"ATTRIBUTES","byteStride":12,"count":12878}}},{"buffer":1,"byteOffset":1382776,"byteLength":103024,"target":34962,"byteStride":8,"extensions":{"EXT_meshopt_compression":{"buffer":0,"byteOffset":614040,"byteLength":31391,"mode":"ATTRIBUTES","byteStride":8,"count":12878}}},{"buffer":1,"byteOffset":1485800,"byteLength":105264,"target":34962,"byteStride":12,"extensions":{"EXT_meshopt_compression":{"buffer":0,"byteOffset":645432,"byteLength":43537,"mode":"ATTRIBUTES","byteStride":12,"count":8772}}},{"buffer":1,"byteOffset":1591064,"byteLength":105264,"target":34962,"byteStride":12,"extensions":{"EXT_meshopt_compression":{"buffer":0,"byteOffset":688972,"byteLength":15989,"mode":"ATTRIBUTES","byteStride":12,"count":8772}}},{"buffer":1,"byteOffset":1696328,"byteLength":70176,"target":34962,"byteStride":8,"extensions":{"EXT_meshopt_compression":{"buffer":0,"byteOffset":704964,"byteLength":35628,"mode":"ATTRIBUTES","byteStride":8,"count":8772}}},{"buffer":1,"byteOffset":1766504,"byteLength":96,"target":34962,"byteStride":12,"extensions":{"EXT_meshopt_compression":{"buffer":0,"byteOffset":740592,"byteLength":89,"mode":"ATTRIBUTES","byteStride":12,"count":8}}},{"buffer":1,"byteOffset":1766600,"byteLength":96,"target":34962,"byteStride":12,"extensions":{"EXT_meshopt_compression":{"buffer":0,"byteOffset":740684,"byteLength":50,"mode":"ATTRIBUTES","byteStride":12,"count":8}}},{"buffer":1,"byteOffset":1766696,"byteLength":64,"target":34962,"byteStride":8,"extensions":{"EXT_meshopt_compression":{"buffer":0,"byteOffset":740736,"byteLength":71,"mode":"ATTRIBUTES","byteStride":8,"count":8}}},{"buffer":1,"byteOffset":1766760,"byteLength":768,"target":34962,"byteStride":12,"extensions":{"EXT_meshopt_compression":{"buffer":0,"byteOffset":740808,"byteLength":328,"mode":"ATTRIBUTES","byteStride":12,"count":64}}},{"buffer":1,"byteOffset":1767528,"byteLength":768,"target":34962,"byteStride":12,"extensions":{"EXT_meshopt_compression":{"buffer":0,"byteOffset":741136,"byteLength":366,"mode":"ATTRIBUTES","byteStride":12,"count":64}}},{"buffer":1,"byteOffset":1768296,"byteLength":512,"target":34962,"byteStride":8,"extensions":{"EXT_meshopt_compression":{"buffer":0,"byteOffset":741504,"byteLength":182,"mode":"ATTRIBUTES","byteStride":8,"count":64}}},{"buffer":1,"byteOffset":1768808,"byteLength":768,"target":34962,"byteStride":12,"extensions":{"EXT_meshopt_compression":{"buffer":0,"byteOffset":741688,"byteLength":328,"mode":"ATTRIBUTES","byteStride":12,"count":64}}},{"buffer":1,"byteOffset":1769576,"byteLength":768,"target":34962,"byteStride":12,"extensions":{"EXT_meshopt_compression":{"buffer":0,"byteOffset":742016,"byteLength":366,"mode":"ATTRIBUTES","byteStride":12,"count":64}}},{"buffer":1,"byteOffset":1770344,"byteLength":512,"target":34962,"byteStride":8,"extensions":{"EXT_meshopt_compression":{"buffer":0,"byteOffset":742384,"byteLength":182,"mode":"ATTRIBUTES","byteStride":8,"count":64}}},{"buffer":1,"byteOffset":1770856,"byteLength":2040,"target":34962,"byteStride":12,"extensions":{"EXT_meshopt_compression":{"buffer":0,"byteOffset":742568,"byteLength":1070,"mode":"ATTRIBUTES","byteStride":12,"count":170}}},{"buffer":1,"byteOffset":1772896,"byteLength":2040,"target":34962,"byteStride":12,"extensions":{"EXT_meshopt_compression":{"buffer":0,"byteOffset":743640,"byteLength":1512,"mode":"ATTRIBUTES","byteStride":12,"count":170}}},{"buffer":1,"byteOffset":1774936,"byteLength":1360,"target":34962,"byteStride":8,"extensions":{"EXT_meshopt_compression":{"buffer":0,"byteOffset":745152,"byteLength":1154,"mode":"ATTRIBUTES","byteStride":8,"count":170}}},{"buffer":1,"byteOffset":1776296,"byteLength":1360,"target":34962,"byteStride":8,"extensions":{"EXT_meshopt_compression":{"buffer":0,"byteOffset":746308,"byteLength":663,"mode":"ATTRIBUTES","byteStride":8,"count":170}}},{"buffer":1,"byteOffset":1777656,"byteLength":15876,"target":34962,"byteStride":12,"extensions":{"EXT_meshopt_compression":{"buffer":0,"byteOffset":746972,"byteLength":10350,"mode":"ATTRIBUTES","byteStride":12,"count":1323}}},{"buffer":1,"byteOffset":1793532,"byteLength":15876,"target":34962,"byteStride":12,"extensions":{"EXT_meshopt_compression":{"buffer":0,"byteOffset":757324,"byteLength":12293,"mode":"ATTRIBUTES","byteStride":12,"count":1323}}},{"buffer":1,"byteOffset":1809408,"byteLength":10584,"target":34962,"byteStride":8,"extensions":{"EXT_meshopt_compression":{"buffer":0,"byteOffset":769620,"byteLength":7595,"mode":"ATTRIBUTES","byteStride":8,"count":1323}}},{"buffer":1,"byteOffset":1819992,"byteLength":10584,"target":34962,"byteStride":8,"extensions":{"EXT_meshopt_compression":{"buffer":0,"byteOffset":777216,"byteLength":7071,"mode":"ATTRIBUTES","byteStride":8,"count":1323}}},{"buffer":1,"byteOffset":1830576,"byteLength":10584,"target":34962,"byteStride":8,"extensions":{"EXT_meshopt_compression":{"buffer":0,"byteOffset":784288,"byteLength":6804,"mode":"ATTRIBUTES","byteStride":8,"count":1323}}},{"buffer":1,"byteOffset":1841160,"byteLength":10584,"target":34962,"byteStride":8,"extensions":{"EXT_meshopt_compression":{"buffer":0,"byteOffset":791092,"byteLength":6229,"mode":"ATTRIBUTES","byteStride":8,"count":1323}}},{"buffer":1,"byteOffset":1851744,"byteLength":14268,"target":34962,"byteStride":12,"extensions":{"EXT_meshopt_compression":{"buffer":0,"byteOffset":797324,"byteLength":8933,"mode":"ATTRIBUTES","byteStride":12,"count":1189}}},{"buffer":1,"byteOffset":1866012,"byteLength":14268,"target":34962,"byteStride":12,"extensions":{"EXT_meshopt_compression":{"buffer":0,"byteOffset":806260,"byteLength":10534,"mode":"ATTRIBUTES","byteStride":12,"count":1189}}},{"buffer":1,"byteOffset":1880280,"byteLength":9512,"target":34962,"byteStride":8,"extensions":{"EXT_meshopt_compression":{"buffer":0,"byteOffset":816796,"byteLength":6891,"mode":"ATTRIBUTES","byteStride":8,"count":1189}}},{"buffer":1,"byteOffset":1889792,"byteLength":9512,"target":34962,"byteStride":8,"extensions":{"EXT_meshopt_compression":{"buffer":0,"byteOffset":823688,"byteLength":6341,"mode":"ATTRIBUTES","byteStride":8,"count":1189}}},{"buffer":1,"byteOffset":1899304,"byteLength":9512,"target":34962,"byteStride":8,"extensions":{"EXT_meshopt_compression":{"buffer":0,"byteOffset":830032,"byteLength":6235,"mode":"ATTRIBUTES","byteStride":8,"count":1189}}},{"buffer":1,"byteOffset":1908816,"byteLength":9512,"target":34962,"byteStride":8,"extensions":{"EXT_meshopt_compression":{"buffer":0,"byteOffset":836268,"byteLength":5592,"mode":"ATTRIBUTES","byteStride":8,"count":1189}}},{"buffer":1,"byteOffset":1918328,"byteLength":35400,"target":34962,"byteStride":12,"extensions":{"EXT_meshopt_compression":{"buffer":0,"byteOffset":841860,"byteLength":16945,"mode":"ATTRIBUTES","byteStride":12,"count":2950}}},{"buffer":1,"byteOffset":1953728,"byteLength":35400,"target":34962,"byteStride":12,"extensions":{"EXT_meshopt_compression":{"buffer":0,"byteOffset":858808,"byteLength":31778,"mode":"ATTRIBUTES","byteStride":12,"count":2950}}},{"buffer":1,"byteOffset":1989128,"byteLength":7056,"target":34962,"byteStride":12,"extensions":{"EXT_meshopt_compression":{"buffer":0,"byteOffset":890588,"byteLength":1844,"mode":"ATTRIBUTES","byteStride":12,"count":588}}},{"buffer":1,"byteOffset":1996184,"byteLength":7056,"target":34962,"byteStride":12,"extensions":{"EXT_meshopt_compression":{"buffer":0,"byteOffset":892432,"byteLength":5832,"mode":"ATTRIBUTES","byteStride":12,"count":588}}},{"buffer":1,"byteOffset":2003240,"byteLength":8760,"target":34962,"byteStride":12,"extensions":{"EXT_meshopt_compression":{"buffer":0,"byteOffset":898264,"byteLength":4466,"mode":"ATTRIBUTES","byteStride":12,"count":730}}},{"buffer":1,"byteOffset":2012000,"byteLength":8760,"target":34962,"byteStride":12,"extensions":{"EXT_meshopt_compression":{"buffer":0,"byteOffset":902732,"byteLength":6185,"mode":"ATTRIBUTES","byteStride":12,"count":730}}},{"buffer":1,"byteOffset":2020760,"byteLength":5840,"target":34962,"byteStride":8,"extensions":{"EXT_meshopt_compression":{"buffer":0,"byteOffset":908920,"byteLength":2354,"mode":"ATTRIBUTES","byteStride":8,"count":730}}},{"buffer":1,"byteOffset":2026600,"byteLength":26136,"target":34962,"byteStride":12,"extensions":{"EXT_meshopt_compression":{"buffer":0,"byteOffset":911276,"byteLength":15270,"mode":"ATTRIBUTES","byteStride":12,"count":2178}}},{"buffer":1,"byteOffset":2052736,"byteLength":26136,"target":34962,"byteStride":12,"extensions":{"EXT_meshopt_compression":{"buffer":0,"byteOffset":926548,"byteLength":21437,"mode":"ATTRIBUTES","byteStride":12,"count":2178}}},{"buffer":1,"byteOffset":2078872,"byteLength":17424,"target":34962,"byteStride":8,"extensions":{"EXT_meshopt_compression":{"buffer":0,"byteOffset":947988,"byteLength":6842,"mode":"ATTRIBUTES","byteStride":8,"count":2178}}},{"buffer":1,"byteOffset":2096296,"byteLength":194460,"target":34962,"byteStride":12,"extensions":{"EXT_meshopt_compression":{"buffer":0,"byteOffset":954832,"byteLength":73286,"mode":"ATTRIBUTES","byteStride":12,"count":16205}}},{"buffer":1,"byteOffset":2290756,"byteLength":194460,"target":34962,"byteStride":12,"extensions":{"EXT_meshopt_compression":{"buffer":0,"byteOffset":1028120,"byteLength":121515,"mode":"ATTRIBUTES","byteStride":12,"count":16205}}},{"buffer":1,"byteOffset":2485216,"byteLength":129640,"target":34962,"byteStride":8,"extensions":{"EXT_meshopt_compression":{"buffer":0,"byteOffset":1149636,"byteLength":40193,"mode":"ATTRIBUTES","byteStride":8,"count":16205}}},{"buffer":1,"byteOffset":2614856,"byteLength":237456,"target":34962,"byteStride":12,"extensions":{"EXT_meshopt_compression":{"buffer":0,"byteOffset":1189832,"byteLength":96029,"mode":"ATTRIBUTES","byteStride":12,"count":19788}}},{"buffer":1,"byteOffset":2852312,"byteLength":237456,"target":34962,"byteStride":12,"extensions":{"EXT_meshopt_compression":{"buffer":0,"byteOffset":1285864,"byteLength":158911,"mode":"ATTRIBUTES","byteStride":12,"count":19788}}},{"buffer":1,"byteOffset":3089768,"byteLength":158304,"target":34962,"byteStride":8,"extensions":{"EXT_meshopt_compression":{"buffer":0,"byteOffset":1444776,"byteLength":48573,"mode":"ATTRIBUTES","byteStride":8,"count":19788}}},{"buffer":1,"byteOffset":3248072,"byteLength":35400,"target":34962,"byteStride":12,"extensions":{"EXT_meshopt_compression":{"buffer":0,"byteOffset":1493352,"byteLength":16945,"mode":"ATTRIBUTES","byteStride":12,"count":2950}}},{"buffer":1,"byteOffset":3283472,"byteLength":35400,"target":34962,"byteStride":12,"extensions":{"EXT_meshopt_compression":{"buffer":0,"byteOffset":1510300,"byteLength":31778,"mode":"ATTRIBUTES","byteStride":12,"count":2950}}},{"buffer":1,"byteOffset":3318872,"byteLength":12792,"target":34962,"byteStride":12,"extensions":{"EXT_meshopt_compression":{"buffer":0,"byteOffset":1542080,"byteLength":6610,"mode":"ATTRIBUTES","byteStride":12,"count":1066}}},{"buffer":1,"byteOffset":3331664,"byteLength":12792,"target":34962,"byteStride":12,"extensions":{"EXT_meshopt_compression":{"buffer":0,"byteOffset":1548692,"byteLength":4149,"mode":"ATTRIBUTES","byteStride":12,"count":1066}}},{"buffer":1,"byteOffset":3344456,"byteLength":8528,"target":34962,"byteStride":8,"extensions":{"EXT_meshopt_compression":{"buffer":0,"byteOffset":1552844,"byteLength":3737,"mode":"ATTRIBUTES","byteStride":8,"count":1066}}},{"buffer":1,"byteOffset":3352984,"byteLength":92424,"target":34962,"byteStride":12,"extensions":{"EXT_meshopt_compression":{"buffer":0,"byteOffset":1556584,"byteLength":41107,"mode":"ATTRIBUTES","byteStride":12,"count":7702}}},{"buffer":1,"byteOffset":3445408,"byteLength":92424,"target":34962,"byteStride":12,"extensions":{"EXT_meshopt_compression":{"buffer":0,"byteOffset":1597692,"byteLength":9254,"mode":"ATTRIBUTES","byteStride":12,"count":7702}}},{"buffer":1,"byteOffset":3537832,"byteLength":61616,"target":34962,"byteStride":8,"extensions":{"EXT_meshopt_compression":{"buffer":0,"byteOffset":1606948,"byteLength":27560,"mode":"ATTRIBUTES","byteStride":8,"count":7702}}},{"buffer":1,"byteOffset":3599448,"byteLength":113016,"target":34962,"byteStride":12,"extensions":{"EXT_meshopt_compression":{"buffer":0,"byteOffset":1634508,"byteLength":46582,"mode":"ATTRIBUTES","byteStride":12,"count":9418}}},{"buffer":1,"byteOffset":3712464,"byteLength":113016,"target":34962,"byteStride":12,"extensions":{"EXT_meshopt_compression":{"buffer":0,"byteOffset":1681092,"byteLength":4039,"mode":"ATTRIBUTES","byteStride":12,"count":9418}}},{"buffer":1,"byteOffset":3825480,"byteLength":75344,"target":34962,"byteStride":8,"extensions":{"EXT_meshopt_compression":{"buffer":0,"byteOffset":1685132,"byteLength":33029,"mode":"ATTRIBUTES","byteStride":8,"count":9418}}},{"buffer":1,"byteOffset":3900824,"byteLength":122712,"target":34962,"byteStride":12,"extensions":{"EXT_meshopt_compression":{"buffer":0,"byteOffset":1718164,"byteLength":55427,"mode":"ATTRIBUTES","byteStride":12,"count":10226}}},{"buffer":1,"byteOffset":4023536,"byteLength":122712,"target":34962,"byteStride":12,"extensions":{"EXT_meshopt_compression":{"buffer":0,"byteOffset":1773592,"byteLength":22768,"mode":"ATTRIBUTES","byteStride":12,"count":10226}}},{"buffer":1,"byteOffset":4146248,"byteLength":81808,"target":34962,"byteStride":8,"extensions":{"EXT_meshopt_compression":{"buffer":0,"byteOffset":1796360,"byteLength":36333,"mode":"ATTRIBUTES","byteStride":8,"count":10226}}}],"samplers":[{"magFilter":9729,"minFilter":9987,"wrapS":10497,"wrapT":10497},{"magFilter":9729,"minFilter":9987,"wrapS":33071,"wrapT":33071}],"textures":[{"sampler":0,"extensions":{"EXT_texture_webp":{"source":0}}},{"sampler":0,"extensions":{"EXT_texture_webp":{"source":1}}},{"sampler":0,"extensions":{"EXT_texture_webp":{"source":3}}},{"sampler":0,"extensions":{"EXT_texture_webp":{"source":2}}},{"sampler":0,"extensions":{"EXT_texture_webp":{"source":4}}},{"sampler":0,"extensions":{"EXT_texture_webp":{"source":6}}},{"sampler":0,"extensions":{"EXT_texture_webp":{"source":5}}},{"sampler":1,"extensions":{"EXT_texture_webp":{"source":9}}},{"sampler":0,"extensions":{"EXT_texture_webp":{"source":8}}},{"sampler":0,"extensions":{"EXT_texture_webp":{"source":7}}}],"images":[{"name":"book_pattern_nor_gl_2k","mimeType":"image/webp","uri":"shared/8de172b46ec41fd3863b660a.webp"},{"name":"book_pattern_rough_2k","mimeType":"image/webp","uri":"shared/a04d51bd9431742f3e8e78f4.webp"},{"name":"Paper001_2K-JPG_NormalGL","mimeType":"image/webp","uri":"shared/a4ffc7b7fc49def2917e39f5.webp"},{"name":"Paper001_2K-JPG_Color","mimeType":"image/webp","uri":"shared/75262c983a496cb7fcdc6c19.webp"},{"name":"Paper001_2K-JPG_Roughness","mimeType":"image/webp","uri":"shared/49f61cb86539e805ce6a1ee3.webp"},{"name":"compressed-paper-normal","mimeType":"image/webp","uri":"shared/339c1ac519928878fbaa1237.webp"},{"name":"compressed-paper-color","mimeType":"image/webp","uri":"shared/7701c62282fa7f26c46af450.webp"},{"name":"zarathustra_print_orm","mimeType":"image/webp","uri":"shared/2e57026262aef64a682fe1ad.webp"},{"name":"zarathustra_print_normal","mimeType":"image/webp","uri":"shared/87e03fd99a25eaf4bab50cd4.webp"},{"name":"edition-zarathustra","mimeType":"image/webp","uri":"shared/658957751eb9cf100d35812e.webp"}],"buffers":[{"uri":"shared/a24a05257d8d070b5a4e523b.bin","byteLength":1832696},{"byteLength":4228056,"extensions":{"EXT_meshopt_compression":{"fallback":true}}}],"materials":[{"name":"zarathustra case material.002","doubleSided":true,"pbrMetallicRoughness":{"baseColorFactor":[0.48514994978904724,0.4793201684951782,0.40724021196365356,1],"metallicFactor":0,"metallicRoughnessTexture":{"index":1}},"normalTexture":{"index":0,"scale":0.05999999865889549}},{"name":"MAT_zarathustra_BackInk","doubleSided":true,"pbrMetallicRoughness":{"baseColorFactor":[0.02500000037252903,0.03200000151991844,0.027000000700354576,1],"roughnessFactor":0.7200000286102295,"metallicFactor":0}},{"name":"MAT_zarathustra_Stamped_Ink.002","doubleSided":true,"pbrMetallicRoughness":{"baseColorFactor":[0.02500000037252903,0.03200000151991844,0.027000000700354576,1],"roughnessFactor":0.3400000035762787,"metallicFactor":0},"extensions":{"KHR_materials_clearcoat":{"clearcoatFactor":0.44999998807907104,"clearcoatRoughnessFactor":0.20000000298023224}}},{"name":"MAT_Uncoated_Paper_Fibre","doubleSided":true,"pbrMetallicRoughness":{"metallicFactor":0,"baseColorTexture":{"index":2,"texCoord":1},"metallicRoughnessTexture":{"index":4,"texCoord":1}},"normalTexture":{"index":3,"texCoord":1,"scale":0.07000000029802322}},{"name":"MAT_zarathustra_Stamped_Ink.003","doubleSided":true,"pbrMetallicRoughness":{"baseColorFactor":[0.039546236395835876,0.03071344457566738,0.03310476616024971,1],"roughnessFactor":0.3400000035762787,"metallicFactor":0},"extensions":{"KHR_materials_clearcoat":{"clearcoatFactor":0.44999998807907104,"clearcoatRoughnessFactor":0.20000000298023224}}},{"name":"Compressed paper cut surface","doubleSided":true,"pbrMetallicRoughness":{"roughnessFactor":0.8999999761581421,"metallicFactor":0,"baseColorTexture":{"index":5}},"normalTexture":{"index":6}},{"name":"Compressed ivory stock 2","doubleSided":true,"pbrMetallicRoughness":{"baseColorFactor":[0.7279999852180481,0.7129999995231628,0.656000018119812,1],"roughnessFactor":0.8600000143051147,"metallicFactor":0}},{"name":"MAT_zarathustra_Registered_Print.001","extras":{"surface_finish":"Registered print, selective varnish"},"doubleSided":true,"pbrMetallicRoughness":{"baseColorTexture":{"index":7,"texCoord":1},"metallicRoughnessTexture":{"index":9,"texCoord":1}},"normalTexture":{"index":8,"texCoord":1},"extensions":{"KHR_materials_clearcoat":{"clearcoatFactor":1,"clearcoatRoughnessFactor":0.23999999463558197,"clearcoatTexture":{"index":9,"texCoord":1}}}},{"name":"Endband cotton ecru","doubleSided":true,"pbrMetallicRoughness":{"baseColorFactor":[0.5,0.46000000834465027,0.3499999940395355,1],"roughnessFactor":0.8799999952316284,"metallicFactor":0}},{"name":"Binding linen warm ecru","doubleSided":true,"pbrMetallicRoughness":{"baseColorFactor":[0.3799999952316284,0.3400000035762787,0.25999999046325684,1],"roughnessFactor":0.9300000071525574,"metallicFactor":0}},{"name":"zarathustra woven ribbon.002","doubleSided":true,"pbrMetallicRoughness":{"baseColorFactor":[0.039546236395835876,0.03071344457566738,0.03310476616024971,1],"metallicFactor":0,"metallicRoughnessTexture":{"index":1}},"normalTexture":{"index":0,"scale":1.149999976158142},"extensions":{"KHR_materials_sheen":{"sheenColorFactor":[1,1,1],"sheenRoughnessFactor":0.5}}},{"name":"MAT_Uncoated_Paper_Fibre","doubleSided":true,"pbrMetallicRoughness":{"metallicFactor":0,"baseColorTexture":{"index":2},"metallicRoughnessTexture":{"index":4}},"normalTexture":{"index":3,"scale":0.07000000029802322}},{"name":"zarathustra printed ink.002","doubleSided":true,"pbrMetallicRoughness":{"baseColorFactor":[0.040915198624134064,0.03310476616024971,0.019382361322641373,1],"roughnessFactor":0.8999999761581421,"metallicFactor":0}}],"meshes":[{"name":"Pressed case joint Back board.029","primitives":[{"attributes":{"POSITION":0,"NORMAL":1,"TEXCOORD_0":2},"mode":4,"material":0,"indices":3}]},{"name":"Back collection.005","primitives":[{"attributes":{"POSITION":4,"NORMAL":5,"TEXCOORD_0":6},"mode":4,"material":1,"indices":7}]},{"name":"Back description.005","primitives":[{"attributes":{"POSITION":8,"NORMAL":9,"TEXCOORD_0":10},"mode":4,"material":1,"indices":11}]},{"name":"Back edition.005","primitives":[{"attributes":{"POSITION":12,"NORMAL":13,"TEXCOORD_0":14},"mode":4,"material":2,"indices":15}]},{"name":"Back ISBN.005","primitives":[{"attributes":{"POSITION":16,"NORMAL":17,"TEXCOORD_0":18},"mode":4,"material":1,"indices":19}]},{"name":"Back pastedown.029","primitives":[{"attributes":{"POSITION":20,"NORMAL":21,"TEXCOORD_0":22,"TEXCOORD_1":23},"mode":4,"material":3,"indices":24}]},{"name":"Back title.005","primitives":[{"attributes":{"POSITION":25,"NORMAL":26,"TEXCOORD_0":27},"mode":4,"material":2,"indices":28}]},{"name":"Collection mark.021","primitives":[{"attributes":{"POSITION":29,"NORMAL":30,"TEXCOORD_0":31},"mode":4,"material":4,"indices":32}]},{"name":"Continuous compressed cut zarathustra.003","primitives":[{"attributes":{"POSITION":33,"NORMAL":34,"TEXCOORD_0":35},"mode":4,"material":5,"indices":36},{"attributes":{"POSITION":37,"NORMAL":38,"TEXCOORD_0":39},"mode":4,"material":6,"indices":40}]},{"name":"Curved foil rule.042","primitives":[{"attributes":{"POSITION":41,"NORMAL":42,"TEXCOORD_0":43},"mode":4,"material":4,"indices":44}]},{"name":"Curved foil rule.043","primitives":[{"attributes":{"POSITION":45,"NORMAL":46,"TEXCOORD_0":47},"mode":4,"material":4,"indices":44}]},{"name":"Front pastedown.029","primitives":[{"attributes":{"POSITION":48,"NORMAL":49,"TEXCOORD_0":50,"TEXCOORD_1":51},"mode":4,"material":3,"indices":24}]},{"name":"Pressed case joint Wrapped printed cover.004","primitives":[{"attributes":{"POSITION":52,"NORMAL":53,"TEXCOORD_0":54,"TEXCOORD_1":55,"TEXCOORD_2":56,"TEXCOORD_3":57},"mode":4,"material":7,"indices":58},{"attributes":{"POSITION":59,"NORMAL":60,"TEXCOORD_0":61,"TEXCOORD_1":62,"TEXCOORD_2":63,"TEXCOORD_3":64},"mode":4,"material":0,"indices":65}]},{"name":"Head textile endband zarathustra.004","primitives":[{"attributes":{"POSITION":66,"NORMAL":67},"mode":4,"material":8,"indices":68}]},{"name":"Linen spine lining zarathustra.004","primitives":[{"attributes":{"POSITION":69,"NORMAL":70},"mode":4,"material":9,"indices":71}]},{"name":"Ribbon flexible satin zarathustra.004","primitives":[{"attributes":{"POSITION":72,"NORMAL":73,"TEXCOORD_0":74},"mode":4,"material":10,"indices":75}]},{"name":"Rounded cloth spine.029","primitives":[{"attributes":{"POSITION":76,"NORMAL":77,"TEXCOORD_0":78},"mode":4,"material":0,"indices":79}]},{"name":"Spine author.021","primitives":[{"attributes":{"POSITION":80,"NORMAL":81,"TEXCOORD_0":82},"mode":4,"material":4,"indices":83}]},{"name":"Spine title.029","primitives":[{"attributes":{"POSITION":84,"NORMAL":85,"TEXCOORD_0":86},"mode":4,"material":4,"indices":87}]},{"name":"Tail textile endband zarathustra.004","primitives":[{"attributes":{"POSITION":88,"NORMAL":89},"mode":4,"material":8,"indices":68}]},{"name":"Flexible paper.005","primitives":[{"attributes":{"POSITION":90,"NORMAL":91,"TEXCOORD_0":92},"mode":4,"material":11,"indices":93}]},{"name":"Interior author.029","primitives":[{"attributes":{"POSITION":94,"NORMAL":95,"TEXCOORD_0":96},"mode":4,"material":12,"indices":97}]},{"name":"Interior imprint.029","primitives":[{"attributes":{"POSITION":98,"NORMAL":99,"TEXCOORD_0":100},"mode":4,"material":12,"indices":101}]},{"name":"Interior title.029","primitives":[{"attributes":{"POSITION":102,"NORMAL":103,"TEXCOORD_0":104},"mode":4,"material":12,"indices":105}]}],"nodes":[{"name":"Back board.029","extras":{"edge_refined":true,"unpressed_mesh":"Back board.037","pressed_joint_revision":1,"joint_depth_mm":1.03574908123516,"joint_center_mm":6.400000000000001},"translation":[0,0,-0.12449999898672104],"mesh":0},{"name":"Back collection.005","translation":[0,-0.44207996129989624,-0.13650000095367432],"rotation":[0,-0.7071068286895752,0.7071068286895752,3.090862321641907e-8],"mesh":1},{"name":"Back description.005","translation":[0,0.046049997210502625,-0.13650000095367432],"rotation":[0,-0.7071068286895752,0.7071068286895752,3.090862321641907e-8],"mesh":2},{"name":"Back edition.005","translation":[0,-0.6262799501419067,-0.13650000095367432],"rotation":[0,-0.7071068286895752,0.7071068286895752,3.090862321641907e-8],"mesh":3},{"name":"Back ISBN.005","translation":[0,-0.7183799743652344,-0.13650000095367432],"rotation":[0,-0.7071068286895752,0.7071068286895752,3.090862321641907e-8],"mesh":4},{"name":"Back pastedown.029","translation":[0,0,-0.11299999803304672],"mesh":5},{"name":"Back title.005","translation":[0,0.5341799259185791,-0.13650000095367432],"rotation":[0,-0.7071068286895752,0.7071068286895752,3.090862321641907e-8],"mesh":6},{"name":"Collection mark.021","mesh":7},{"name":"Compressed paper signatures zarathustra.003","extras":{"paper_surface_revision":1,"leaf_count":184,"paper_caliper_mm":0.11195652173913045,"binding_structure":"Rounded and backed signatures"},"mesh":8},{"name":"Curved foil rule.042","mesh":9},{"name":"Curved foil rule.043","mesh":10},{"name":"Front pastedown.029","translation":[0.5954999923706055,0,-0.011500000953674316],"mesh":11},{"name":"Wrapped printed cover.004","extras":{"edge_refined":true,"unpressed_mesh":"Front board.037","pressed_joint_revision":1,"joint_depth_mm":1.1251626044089802,"joint_center_mm":6.400000000000001},"translation":[0.5954999923706055,0,0],"mesh":12},{"name":"FrontHinge.029","translation":[-0.5954999923706055,0,0.12449999898672104],"children":[11,12]},{"name":"Head textile endband zarathustra.004","extras":{"binding_revision":2},"mesh":13},{"name":"Linen spine lining zarathustra.004","extras":{"binding_revision":2},"mesh":14},{"name":"Ribbon flexible satin zarathustra.004","extras":{"binding_revision":2,"ribbon_width_dm":0.043,"ribbon_length_dm":0.29,"ribbon_anchor_dm":[0,-0.9129999999999999,0.006]},"mesh":15},{"name":"Rounded cloth spine.029","mesh":16},{"name":"Spine author.021","mesh":17},{"name":"Spine title.029","mesh":18},{"name":"Tail textile endband zarathustra.004","extras":{"binding_revision":2},"mesh":19},{"name":"Curved title leaf.005","mesh":20},{"name":"Interior author.029","mesh":21},{"name":"Interior imprint.029","mesh":22},{"name":"Interior title.029","mesh":23},{"name":"TurningLeaf.005","translation":[-0.5504999756813049,0,0.1054999977350235],"children":[21,22,23,24]},{"name":"Publisher_zarathustra.001","extras":{"slug":"zarathustra","dimensions_mm":[119.1,184.2,27],"model_design":"Publisher front artwork on a showcase binding; spine and interior are custom reconstructions"},"scale":[0.09655454754829407,0.09999226033687592,0.09963102638721466],"children":[0,1,2,3,4,5,6,7,8,9,10,13,14,15,16,17,18,19,20,25]}],"scenes":[{"name":"Library Publisher Editions.001","nodes":[26]}],"scene":0,"extensionsUsed":["EXT_meshopt_compression","EXT_texture_webp","KHR_materials_clearcoat","KHR_materials_sheen"],"extensionsRequired":["EXT_meshopt_compression","EXT_texture_webp"]}